<svg xmlns="http://www.w3.org/2000/svg" xmlns:xlink="http://www.w3.org/1999/xlink" viewBox="0 0 100 164"><defs><path id="c" d="M22.08 0 0 3.045 22.08 59z"/><path id="e" d="M33.5 56.125 9.898 0 0 4.568z"/><path id="a" d="M52.001 0C78.688 1.05 100 23.017 100 49.96c0 27.615-22.386 50-50 50s-50-22.385-50-50c0-15.5 7.054-29.354 18.127-38.525L52 62.96Z"/></defs><g fill="none" fill-rule="evenodd"><path fill="#243A4A" fill-rule="nonzero" d="M9.968 156v-4.656l7.824-12.336c.64-1.024 1.112-1.944 1.416-2.76.304-.816.456-1.848.456-3.096v-3.36c0-1.408-.64-2.112-1.92-2.112h-.288c-1.28 0-1.92.704-1.92 2.112v6.096H9.68v-6.48c0-2.048.56-3.616 1.68-4.704 1.12-1.088 2.672-1.632 4.656-1.632h3.072c2.08 0 3.672.544 4.776 1.632 1.104 1.088 1.656 2.656 1.656 4.704v3.744c0 1.344-.128 2.504-.384 3.48a12.529 12.529 0 0 1-1.08 2.76c-.464.864-1 1.776-1.608 2.736l-5.568 8.784h8.928V156H9.968Zm18.48 7.008L31.232 156h-2.016v-5.712h5.856v5.136l-3.12 7.584h-3.504Zm16.416-6.72c-1.952 0-3.496-.536-4.632-1.608-1.136-1.072-1.704-2.648-1.704-4.728v-20.544c0-2.08.568-3.656 1.704-4.728 1.136-1.072 2.68-1.608 4.632-1.608h3.264c1.984 0 3.536.536 4.656 1.608 1.12 1.072 1.68 2.648 1.68 4.728v20.544c0 2.08-.56 3.656-1.68 4.728-1.12 1.072-2.672 1.608-4.656 1.608h-3.264Zm-.816-26.544v13.2l4.896-13.488c-.064-.64-.28-1.112-.648-1.416-.368-.304-.84-.456-1.416-.456h-.768c-.608 0-1.104.176-1.488.528-.384.352-.576.896-.576 1.632Zm2.064 22.032h.768c.64 0 1.144-.176 1.512-.528.368-.352.552-.896.552-1.632v-13.2l-4.896 13.488c.064.64.28 1.112.648 1.416.368.304.84.456 1.416.456ZM58.016 156v-5.088h4.704v-22.08l-4.704 1.296v-5.088l5.808-1.68h4.752v27.552h4.56V156h-15.12Zm17.856 0v-5.088h4.704v-22.08l-4.704 1.296v-5.088l5.808-1.68h4.752v27.552h4.56V156h-15.12Z"/><g transform="translate(0 9.04)"><mask id="b" fill="#fff"><use xlink:href="#a"/></mask><use xlink:href="#a" fill="#243A4A"/><path fill="#37556A" d="M61.2 63.003a1.8 1.8 0 1 0 0-3.6 1.8 1.8 0 0 0 0 3.6Zm-5.4 0a1.8 1.8 0 1 0 0-3.6 1.8 1.8 0 0 0 0 3.6Zm-5.4 0a1.8 1.8 0 1 0 0-3.6 1.8 1.8 0 0 0 0 3.6Zm-5.4 0a1.8 1.8 0 1 0 0-3.6 1.8 1.8 0 0 0 0 3.6Zm-5.4 0a1.8 1.8 0 1 0 0-3.6 1.8 1.8 0 0 0 0 3.6Zm-5.4 0a1.8 1.8 0 1 0 0-3.6 1.8 1.8 0 0 0 0 3.6Zm-5.4 0a1.8 1.8 0 1 0 0-3.6 1.8 1.8 0 0 0 0 3.6Zm-5.4 0a1.8 1.8 0 1 0 0-3.6 1.8 1.8 0 0 0 0 3.6Zm-5.4 0a1.8 1.8 0 1 0 0-3.6 1.8 1.8 0 0 0 0 3.6Zm-5.4 0a1.8 1.8 0 1 0 0-3.6 1.8 1.8 0 0 0 0 3.6Zm-5.4 0a1.8 1.8 0 1 0 0-3.6 1.8 1.8 0 0 0 0 3.6Zm-5.4 0a1.8 1.8 0 1 0 0-3.6 1.8 1.8 0 0 0 0 3.6Zm59.4-5.4a1.8 1.8 0 1 0 0-3.6 1.8 1.8 0 0 0 0 3.6Zm-5.4 0a1.8 1.8 0 1 0 0-3.6 1.8 1.8 0 0 0 0 3.6Zm-5.4 0a1.8 1.8 0 1 0 0-3.6 1.8 1.8 0 0 0 0 3.6Zm-5.4 0a1.8 1.8 0 1 0 0-3.6 1.8 1.8 0 0 0 0 3.6Zm-5.4 0a1.8 1.8 0 1 0 0-3.6 1.8 1.8 0 0 0 0 3.6Zm-5.4 0a1.8 1.8 0 1 0 0-3.6 1.8 1.8 0 0 0 0 3.6Zm-5.4 0a1.8 1.8 0 1 0 0-3.6 1.8 1.8 0 0 0 0 3.6Zm-5.4 0a1.8 1.8 0 1 0 0-3.6 1.8 1.8 0 0 0 0 3.6Zm-5.4 0a1.8 1.8 0 1 0 0-3.6 1.8 1.8 0 0 0 0 3.6Zm-5.4 0a1.8 1.8 0 1 0 0-3.6 1.8 1.8 0 0 0 0 3.6Zm-5.4 0a1.8 1.8 0 1 0 0-3.6 1.8 1.8 0 0 0 0 3.6Zm-5.4 0a1.8 1.8 0 1 0 0-3.6 1.8 1.8 0 0 0 0 3.6Zm59.4-5.4a1.8 1.8 0 1 0 0-3.6 1.8 1.8 0 0 0 0 3.6Zm-5.4 0a1.8 1.8 0 1 0 0-3.6 1.8 1.8 0 0 0 0 3.6Zm-5.4 0a1.8 1.8 0 1 0 0-3.6 1.8 1.8 0 0 0 0 3.6Zm-5.4 0a1.8 1.8 0 1 0 0-3.6 1.8 1.8 0 0 0 0 3.6Zm-5.4 0a1.8 1.8 0 1 0 0-3.6 1.8 1.8 0 0 0 0 3.6Zm-5.4 0a1.8 1.8 0 1 0 0-3.6 1.8 1.8 0 0 0 0 3.6Zm-5.4 0a1.8 1.8 0 1 0 0-3.6 1.8 1.8 0 0 0 0 3.6Zm-5.4 0a1.8 1.8 0 1 0 0-3.6 1.8 1.8 0 0 0 0 3.6Zm-5.4 0a1.8 1.8 0 1 0 0-3.6 1.8 1.8 0 0 0 0 3.6Zm-5.4 0a1.8 1.8 0 1 0 0-3.6 1.8 1.8 0 0 0 0 3.6Zm-5.4 0a1.8 1.8 0 1 0 0-3.6 1.8 1.8 0 0 0 0 3.6Zm-5.4 0a1.8 1.8 0 1 0 0-3.6 1.8 1.8 0 0 0 0 3.6Zm59.4-5.4a1.8 1.8 0 1 0 0-3.6 1.8 1.8 0 0 0 0 3.6Zm-5.4 0a1.8 1.8 0 1 0 0-3.6 1.8 1.8 0 0 0 0 3.6Zm-5.4 0a1.8 1.8 0 1 0 0-3.6 1.8 1.8 0 0 0 0 3.6Zm-5.4 0a1.8 1.8 0 1 0 0-3.6 1.8 1.8 0 0 0 0 3.6Zm-5.4 0a1.8 1.8 0 1 0 0-3.6 1.8 1.8 0 0 0 0 3.6Zm-5.4 0a1.8 1.8 0 1 0 0-3.6 1.8 1.8 0 0 0 0 3.6Zm-5.4 0a1.8 1.8 0 1 0 0-3.6 1.8 1.8 0 0 0 0 3.6Zm-5.4 0a1.8 1.8 0 1 0 0-3.6 1.8 1.8 0 0 0 0 3.6Zm-5.4 0a1.8 1.8 0 1 0 0-3.6 1.8 1.8 0 0 0 0 3.6Zm-5.4 0a1.8 1.8 0 1 0 0-3.6 1.8 1.8 0 0 0 0 3.6Zm-5.4 0a1.8 1.8 0 1 0 0-3.6 1.8 1.8 0 0 0 0 3.6Zm-5.4 0a1.8 1.8 0 1 0 0-3.6 1.8 1.8 0 0 0 0 3.6Zm59.4-5.401a1.8 1.8 0 1 0 0-3.6 1.8 1.8 0 0 0 0 3.6Zm-5.4 0a1.8 1.8 0 1 0 0-3.6 1.8 1.8 0 0 0 0 3.6Zm-5.4 0a1.8 1.8 0 1 0 0-3.6 1.8 1.8 0 0 0 0 3.6Zm-5.4 0a1.8 1.8 0 1 0 0-3.6 1.8 1.8 0 0 0 0 3.6Zm-5.4 0a1.8 1.8 0 1 0 0-3.6 1.8 1.8 0 0 0 0 3.6Zm-5.4 0a1.8 1.8 0 1 0 0-3.6 1.8 1.8 0 0 0 0 3.6Zm-5.4 0a1.8 1.8 0 1 0 0-3.6 1.8 1.8 0 0 0 0 3.6Zm-5.4 0a1.8 1.8 0 1 0 0-3.6 1.8 1.8 0 0 0 0 3.6Zm-5.4 0a1.8 1.8 0 1 0 0-3.6 1.8 1.8 0 0 0 0 3.6Zm-5.4 0a1.8 1.8 0 1 0 0-3.6 1.8 1.8 0 0 0 0 3.6Zm-5.4 0a1.8 1.8 0 1 0 0-3.6 1.8 1.8 0 0 0 0 3.6Zm-5.4 0a1.8 1.8 0 1 0 0-3.6 1.8 1.8 0 0 0 0 3.6Zm59.4-5.4a1.8 1.8 0 1 0 0-3.6 1.8 1.8 0 0 0 0 3.6Zm-5.4 0a1.8 1.8 0 1 0 0-3.6 1.8 1.8 0 0 0 0 3.6Zm-5.4 0a1.8 1.8 0 1 0 0-3.6 1.8 1.8 0 0 0 0 3.6Zm-5.4 0a1.8 1.8 0 1 0 0-3.6 1.8 1.8 0 0 0 0 3.6Zm-5.4 0a1.8 1.8 0 1 0 0-3.6 1.8 1.8 0 0 0 0 3.6Zm-5.4 0a1.8 1.8 0 1 0 0-3.6 1.8 1.8 0 0 0 0 3.6Zm-5.4 0a1.8 1.8 0 1 0 0-3.6 1.8 1.8 0 0 0 0 3.6Zm-5.4 0a1.8 1.8 0 1 0 0-3.6 1.8 1.8 0 0 0 0 3.6Zm-5.4 0a1.8 1.8 0 1 0 0-3.6 1.8 1.8 0 0 0 0 3.6Zm-5.4 0a1.8 1.8 0 1 0 0-3.6 1.8 1.8 0 0 0 0 3.6Zm-5.4 0a1.8 1.8 0 1 0 0-3.6 1.8 1.8 0 0 0 0 3.6Zm-5.4 0a1.8 1.8 0 1 0 0-3.6 1.8 1.8 0 0 0 0 3.6Zm59.4-5.4a1.8 1.8 0 1 0 0-3.6 1.8 1.8 0 0 0 0 3.6Zm-5.4 0a1.8 1.8 0 1 0 0-3.6 1.8 1.8 0 0 0 0 3.6Zm-5.4 0a1.8 1.8 0 1 0 0-3.6 1.8 1.8 0 0 0 0 3.6Zm-5.4 0a1.8 1.8 0 1 0 0-3.6 1.8 1.8 0 0 0 0 3.6Zm-5.4 0a1.8 1.8 0 1 0 0-3.6 1.8 1.8 0 0 0 0 3.6Zm-5.4 0a1.8 1.8 0 1 0 0-3.6 1.8 1.8 0 0 0 0 3.6Zm-5.4 0a1.8 1.8 0 1 0 0-3.6 1.8 1.8 0 0 0 0 3.6Zm-5.4 0a1.8 1.8 0 1 0 0-3.6 1.8 1.8 0 0 0 0 3.6Zm-5.4 0a1.8 1.8 0 1 0 0-3.6 1.8 1.8 0 0 0 0 3.6Zm-5.4 0a1.8 1.8 0 1 0 0-3.6 1.8 1.8 0 0 0 0 3.6Zm-5.4 0a1.8 1.8 0 1 0 0-3.6 1.8 1.8 0 0 0 0 3.6Zm-5.4 0a1.8 1.8 0 1 0 0-3.6 1.8 1.8 0 0 0 0 3.6Zm59.4-5.4a1.8 1.8 0 1 0 0-3.6 1.8 1.8 0 0 0 0 3.6Zm-5.4 0a1.8 1.8 0 1 0 0-3.6 1.8 1.8 0 0 0 0 3.6Zm-5.4 0a1.8 1.8 0 1 0 0-3.6 1.8 1.8 0 0 0 0 3.6Zm-5.4 0a1.8 1.8 0 1 0 0-3.6 1.8 1.8 0 0 0 0 3.6Zm-5.4 0a1.8 1.8 0 1 0 0-3.6 1.8 1.8 0 0 0 0 3.6Zm-5.4 0a1.8 1.8 0 1 0 0-3.6 1.8 1.8 0 0 0 0 3.6Zm-5.4 0a1.8 1.8 0 1 0 0-3.6 1.8 1.8 0 0 0 0 3.6Zm-5.4 0a1.8 1.8 0 1 0 0-3.6 1.8 1.8 0 0 0 0 3.6Zm-5.4 0a1.8 1.8 0 1 0 0-3.6 1.8 1.8 0 0 0 0 3.6Zm-5.4 0a1.8 1.8 0 1 0 0-3.6 1.8 1.8 0 0 0 0 3.6Zm-5.4 0a1.8 1.8 0 1 0 0-3.6 1.8 1.8 0 0 0 0 3.6Zm-5.4 0a1.8 1.8 0 1 0 0-3.6 1.8 1.8 0 0 0 0 3.6ZM61.2 19.8a1.8 1.8 0 1 0 0-3.6 1.8 1.8 0 0 0 0 3.6Zm-5.4 0a1.8 1.8 0 1 0 0-3.6 1.8 1.8 0 0 0 0 3.6Zm-5.4 0a1.8 1.8 0 1 0 0-3.6 1.8 1.8 0 0 0 0 3.6Zm-5.4 0a1.8 1.8 0 1 0 0-3.6 1.8 1.8 0 0 0 0 3.6Zm-5.4 0a1.8 1.8 0 1 0 0-3.6 1.8 1.8 0 0 0 0 3.6Zm-5.4 0a1.8 1.8 0 1 0 0-3.6 1.8 1.8 0 0 0 0 3.6Zm-5.4 0a1.8 1.8 0 1 0 0-3.6 1.8 1.8 0 0 0 0 3.6Zm-5.4 0a1.8 1.8 0 1 0 0-3.6 1.8 1.8 0 0 0 0 3.6Zm-5.4 0a1.8 1.8 0 1 0 0-3.6 1.8 1.8 0 0 0 0 3.6Zm-5.4 0a1.8 1.8 0 1 0 0-3.6 1.8 1.8 0 0 0 0 3.6Zm-5.4 0a1.8 1.8 0 1 0 0-3.6 1.8 1.8 0 0 0 0 3.6Zm-5.4 0a1.8 1.8 0 1 0 0-3.6 1.8 1.8 0 0 0 0 3.6Zm59.4-5.4a1.8 1.8 0 1 0 0-3.6 1.8 1.8 0 0 0 0 3.6Zm-5.4 0a1.8 1.8 0 1 0 0-3.6 1.8 1.8 0 0 0 0 3.6Zm-5.4 0a1.8 1.8 0 1 0 0-3.6 1.8 1.8 0 0 0 0 3.6Zm-5.4 0a1.8 1.8 0 1 0 0-3.6 1.8 1.8 0 0 0 0 3.6Zm-5.4 0a1.8 1.8 0 1 0 0-3.6 1.8 1.8 0 0 0 0 3.6Zm-5.4 0a1.8 1.8 0 1 0 0-3.6 1.8 1.8 0 0 0 0 3.6Zm-5.4 0a1.8 1.8 0 1 0 0-3.6 1.8 1.8 0 0 0 0 3.6Zm-5.4 0a1.8 1.8 0 1 0 0-3.6 1.8 1.8 0 0 0 0 3.6Zm-5.4 0a1.8 1.8 0 1 0 0-3.6 1.8 1.8 0 0 0 0 3.6Zm-5.4 0a1.8 1.8 0 1 0 0-3.6 1.8 1.8 0 0 0 0 3.6Zm-5.4 0a1.8 1.8 0 1 0 0-3.6 1.8 1.8 0 0 0 0 3.6Zm-5.4 0a1.8 1.8 0 1 0 0-3.6 1.8 1.8 0 0 0 0 3.6ZM61.2 9a1.8 1.8 0 1 0 0-3.6 1.8 1.8 0 0 0 0 3.6Zm-5.4 0a1.8 1.8 0 1 0 0-3.6 1.8 1.8 0 0 0 0 3.6Zm-5.4 0a1.8 1.8 0 1 0 0-3.6 1.8 1.8 0 0 0 0 3.6ZM45 9a1.8 1.8 0 1 0 0-3.6A1.8 1.8 0 0 0 45 9Zm-5.4 0a1.8 1.8 0 1 0 0-3.6 1.8 1.8 0 0 0 0 3.6Zm-5.4 0a1.8 1.8 0 1 0 0-3.6 1.8 1.8 0 0 0 0 3.6Zm-5.4 0a1.8 1.8 0 1 0 0-3.6 1.8 1.8 0 0 0 0 3.6Zm-5.4 0a1.8 1.8 0 1 0 0-3.6 1.8 1.8 0 0 0 0 3.6ZM18 9a1.8 1.8 0 1 0 0-3.6A1.8 1.8 0 0 0 18 9Zm-5.4 0a1.8 1.8 0 1 0 0-3.6 1.8 1.8 0 0 0 0 3.6ZM7.2 9a1.8 1.8 0 1 0 0-3.6 1.8 1.8 0 0 0 0 3.6ZM1.8 9a1.8 1.8 0 1 0 0-3.6 1.8 1.8 0 0 0 0 3.6Zm59.4-5.4a1.8 1.8 0 1 0 0-3.6 1.8 1.8 0 0 0 0 3.6Zm-5.4 0a1.8 1.8 0 1 0 0-3.6 1.8 1.8 0 0 0 0 3.6Zm-5.4 0a1.8 1.8 0 1 0 0-3.6 1.8 1.8 0 0 0 0 3.6Zm-5.4 0A1.8 1.8 0 1 0 45 0a1.8 1.8 0 0 0 0 3.6Zm-5.4 0a1.8 1.8 0 1 0 0-3.6 1.8 1.8 0 0 0 0 3.6Zm-5.4 0a1.8 1.8 0 1 0 0-3.6 1.8 1.8 0 0 0 0 3.6Zm-5.4 0a1.8 1.8 0 1 0 0-3.6 1.8 1.8 0 0 0 0 3.6Zm-5.4 0a1.8 1.8 0 1 0 0-3.6 1.8 1.8 0 0 0 0 3.6Zm-5.4 0A1.8 1.8 0 1 0 18 0a1.8 1.8 0 0 0 0 3.6Zm-5.4 0a1.8 1.8 0 1 0 0-3.6 1.8 1.8 0 0 0 0 3.6Zm-5.4 0a1.8 1.8 0 1 0 0-3.6 1.8 1.8 0 0 0 0 3.6Zm-5.4 0a1.8 1.8 0 1 0 0-3.6 1.8 1.8 0 0 0 0 3.6Zm59.4 124.405a1.8 1.8 0 1 0 0-3.6 1.8 1.8 0 0 0 0 3.6Zm-5.4 0a1.8 1.8 0 1 0 0-3.6 1.8 1.8 0 0 0 0 3.6Zm-5.4 0a1.8 1.8 0 1 0 0-3.6 1.8 1.8 0 0 0 0 3.6Zm-5.4 0a1.8 1.8 0 1 0 0-3.6 1.8 1.8 0 0 0 0 3.6Zm-5.4 0a1.8 1.8 0 1 0 0-3.6 1.8 1.8 0 0 0 0 3.6Zm-5.4 0a1.8 1.8 0 1 0 0-3.6 1.8 1.8 0 0 0 0 3.6Zm-5.4 0a1.8 1.8 0 1 0 0-3.6 1.8 1.8 0 0 0 0 3.6Zm-5.4 0a1.8 1.8 0 1 0 0-3.6 1.8 1.8 0 0 0 0 3.6Zm-5.4 0a1.8 1.8 0 1 0 0-3.6 1.8 1.8 0 0 0 0 3.6Zm-5.4 0a1.8 1.8 0 1 0 0-3.6 1.8 1.8 0 0 0 0 3.6Zm-5.4 0a1.8 1.8 0 1 0 0-3.6 1.8 1.8 0 0 0 0 3.6Zm-5.4 0a1.8 1.8 0 1 0 0-3.6 1.8 1.8 0 0 0 0 3.6Zm59.4-5.4a1.8 1.8 0 1 0 0-3.6 1.8 1.8 0 0 0 0 3.6Zm-5.4 0a1.8 1.8 0 1 0 0-3.6 1.8 1.8 0 0 0 0 3.6Zm-5.4 0a1.8 1.8 0 1 0 0-3.6 1.8 1.8 0 0 0 0 3.6Zm-5.4 0a1.8 1.8 0 1 0 0-3.6 1.8 1.8 0 0 0 0 3.6Zm-5.4 0a1.8 1.8 0 1 0 0-3.6 1.8 1.8 0 0 0 0 3.6Zm-5.4 0a1.8 1.8 0 1 0 0-3.6 1.8 1.8 0 0 0 0 3.6Zm-5.4 0a1.8 1.8 0 1 0 0-3.6 1.8 1.8 0 0 0 0 3.6Zm-5.4 0a1.8 1.8 0 1 0 0-3.6 1.8 1.8 0 0 0 0 3.6Zm-5.4 0a1.8 1.8 0 1 0 0-3.6 1.8 1.8 0 0 0 0 3.6Zm-5.4 0a1.8 1.8 0 1 0 0-3.6 1.8 1.8 0 0 0 0 3.6Zm-5.4 0a1.8 1.8 0 1 0 0-3.6 1.8 1.8 0 0 0 0 3.6Zm-5.4 0a1.8 1.8 0 1 0 0-3.6 1.8 1.8 0 0 0 0 3.6Zm59.4-5.4a1.8 1.8 0 1 0 0-3.6 1.8 1.8 0 0 0 0 3.6Zm-5.4 0a1.8 1.8 0 1 0 0-3.6 1.8 1.8 0 0 0 0 3.6Zm-5.4 0a1.8 1.8 0 1 0 0-3.6 1.8 1.8 0 0 0 0 3.6Zm-5.4 0a1.8 1.8 0 1 0 0-3.6 1.8 1.8 0 0 0 0 3.6Zm-5.4 0a1.8 1.8 0 1 0 0-3.6 1.8 1.8 0 0 0 0 3.6Zm-5.4 0a1.8 1.8 0 1 0 0-3.6 1.8 1.8 0 0 0 0 3.6Zm-5.4 0a1.8 1.8 0 1 0 0-3.6 1.8 1.8 0 0 0 0 3.6Zm-5.4 0a1.8 1.8 0 1 0 0-3.6 1.8 1.8 0 0 0 0 3.6Zm-5.4 0a1.8 1.8 0 1 0 0-3.6 1.8 1.8 0 0 0 0 3.6Zm-5.4 0a1.8 1.8 0 1 0 0-3.6 1.8 1.8 0 0 0 0 3.6Zm-5.4 0a1.8 1.8 0 1 0 0-3.6 1.8 1.8 0 0 0 0 3.6Zm-5.4 0a1.8 1.8 0 1 0 0-3.6 1.8 1.8 0 0 0 0 3.6Zm59.4-5.4a1.8 1.8 0 1 0 0-3.6 1.8 1.8 0 0 0 0 3.6Zm-5.4 0a1.8 1.8 0 1 0 0-3.6 1.8 1.8 0 0 0 0 3.6Zm-5.4 0a1.8 1.8 0 1 0 0-3.6 1.8 1.8 0 0 0 0 3.6Zm-5.4 0a1.8 1.8 0 1 0 0-3.6 1.8 1.8 0 0 0 0 3.6Zm-5.4 0a1.8 1.8 0 1 0 0-3.6 1.8 1.8 0 0 0 0 3.6Zm-5.4 0a1.8 1.8 0 1 0 0-3.6 1.8 1.8 0 0 0 0 3.6Zm-5.4 0a1.8 1.8 0 1 0 0-3.6 1.8 1.8 0 0 0 0 3.6Zm-5.4 0a1.8 1.8 0 1 0 0-3.6 1.8 1.8 0 0 0 0 3.6Zm-5.4 0a1.8 1.8 0 1 0 0-3.6 1.8 1.8 0 0 0 0 3.6Zm-5.4 0a1.8 1.8 0 1 0 0-3.6 1.8 1.8 0 0 0 0 3.6Zm-5.4 0a1.8 1.8 0 1 0 0-3.6 1.8 1.8 0 0 0 0 3.6Zm-5.4 0a1.8 1.8 0 1 0 0-3.6 1.8 1.8 0 0 0 0 3.6Zm59.4-5.4a1.8 1.8 0 1 0 0-3.6 1.8 1.8 0 0 0 0 3.6Zm-5.4 0a1.8 1.8 0 1 0 0-3.6 1.8 1.8 0 0 0 0 3.6Zm-5.4 0a1.8 1.8 0 1 0 0-3.6 1.8 1.8 0 0 0 0 3.6Zm-5.4 0a1.8 1.8 0 1 0 0-3.6 1.8 1.8 0 0 0 0 3.6Zm-5.4 0a1.8 1.8 0 1 0 0-3.6 1.8 1.8 0 0 0 0 3.6Zm-5.4 0a1.8 1.8 0 1 0 0-3.6 1.8 1.8 0 0 0 0 3.6Zm-5.4 0a1.8 1.8 0 1 0 0-3.6 1.8 1.8 0 0 0 0 3.6Zm-5.4 0a1.8 1.8 0 1 0 0-3.6 1.8 1.8 0 0 0 0 3.6Zm-5.4 0a1.8 1.8 0 1 0 0-3.6 1.8 1.8 0 0 0 0 3.6Zm-5.4 0a1.8 1.8 0 1 0 0-3.6 1.8 1.8 0 0 0 0 3.6Zm-5.4 0a1.8 1.8 0 1 0 0-3.6 1.8 1.8 0 0 0 0 3.6Zm-5.4 0a1.8 1.8 0 1 0 0-3.6 1.8 1.8 0 0 0 0 3.6Zm59.4-5.401a1.8 1.8 0 1 0 0-3.6 1.8 1.8 0 0 0 0 3.6Zm-5.4 0a1.8 1.8 0 1 0 0-3.6 1.8 1.8 0 0 0 0 3.6Zm-5.4 0a1.8 1.8 0 1 0 0-3.6 1.8 1.8 0 0 0 0 3.6Zm-5.4 0a1.8 1.8 0 1 0 0-3.6 1.8 1.8 0 0 0 0 3.6Zm-5.4 0a1.8 1.8 0 1 0 0-3.6 1.8 1.8 0 0 0 0 3.6Zm-5.4 0a1.8 1.8 0 1 0 0-3.6 1.8 1.8 0 0 0 0 3.6Zm-5.4 0a1.8 1.8 0 1 0 0-3.6 1.8 1.8 0 0 0 0 3.6Zm-5.4 0a1.8 1.8 0 1 0 0-3.6 1.8 1.8 0 0 0 0 3.6Zm-5.4 0a1.8 1.8 0 1 0 0-3.6 1.8 1.8 0 0 0 0 3.6Zm-5.4 0a1.8 1.8 0 1 0 0-3.6 1.8 1.8 0 0 0 0 3.6Zm-5.4 0a1.8 1.8 0 1 0 0-3.6 1.8 1.8 0 0 0 0 3.6Zm-5.4 0a1.8 1.8 0 1 0 0-3.6 1.8 1.8 0 0 0 0 3.6Zm59.4-5.4a1.8 1.8 0 1 0 0-3.6 1.8 1.8 0 0 0 0 3.6Zm-5.4 0a1.8 1.8 0 1 0 0-3.6 1.8 1.8 0 0 0 0 3.6Zm-5.4 0a1.8 1.8 0 1 0 0-3.6 1.8 1.8 0 0 0 0 3.6Zm-5.4 0a1.8 1.8 0 1 0 0-3.6 1.8 1.8 0 0 0 0 3.6Zm-5.4 0a1.8 1.8 0 1 0 0-3.6 1.8 1.8 0 0 0 0 3.6Zm-5.4 0a1.8 1.8 0 1 0 0-3.6 1.8 1.8 0 0 0 0 3.6Zm-5.4 0a1.8 1.8 0 1 0 0-3.6 1.8 1.8 0 0 0 0 3.6Zm-5.4 0a1.8 1.8 0 1 0 0-3.6 1.8 1.8 0 0 0 0 3.6Zm-5.4 0a1.8 1.8 0 1 0 0-3.6 1.8 1.8 0 0 0 0 3.6Zm-5.4 0a1.8 1.8 0 1 0 0-3.6 1.8 1.8 0 0 0 0 3.6Zm-5.4 0a1.8 1.8 0 1 0 0-3.6 1.8 1.8 0 0 0 0 3.6Zm-5.4 0a1.8 1.8 0 1 0 0-3.6 1.8 1.8 0 0 0 0 3.6Zm59.4-5.4a1.8 1.8 0 1 0 0-3.6 1.8 1.8 0 0 0 0 3.6Zm-5.4 0a1.8 1.8 0 1 0 0-3.6 1.8 1.8 0 0 0 0 3.6Zm-5.4 0a1.8 1.8 0 1 0 0-3.6 1.8 1.8 0 0 0 0 3.6Zm-5.4 0a1.8 1.8 0 1 0 0-3.6 1.8 1.8 0 0 0 0 3.6Zm-5.4 0a1.8 1.8 0 1 0 0-3.6 1.8 1.8 0 0 0 0 3.6Zm-5.4 0a1.8 1.8 0 1 0 0-3.6 1.8 1.8 0 0 0 0 3.6Zm-5.4 0a1.8 1.8 0 1 0 0-3.6 1.8 1.8 0 0 0 0 3.6Zm-5.4 0a1.8 1.8 0 1 0 0-3.6 1.8 1.8 0 0 0 0 3.6Zm-5.4 0a1.8 1.8 0 1 0 0-3.6 1.8 1.8 0 0 0 0 3.6Zm-5.4 0a1.8 1.8 0 1 0 0-3.6 1.8 1.8 0 0 0 0 3.6Zm-5.4 0a1.8 1.8 0 1 0 0-3.6 1.8 1.8 0 0 0 0 3.6Zm-5.4 0a1.8 1.8 0 1 0 0-3.6 1.8 1.8 0 0 0 0 3.6Zm59.4-5.4a1.8 1.8 0 1 0 0-3.6 1.8 1.8 0 0 0 0 3.6Zm-5.4 0a1.8 1.8 0 1 0 0-3.6 1.8 1.8 0 0 0 0 3.6Zm-5.4 0a1.8 1.8 0 1 0 0-3.6 1.8 1.8 0 0 0 0 3.6Zm-5.4 0a1.8 1.8 0 1 0 0-3.6 1.8 1.8 0 0 0 0 3.6Zm-5.4 0a1.8 1.8 0 1 0 0-3.6 1.8 1.8 0 0 0 0 3.6Zm-5.4 0a1.8 1.8 0 1 0 0-3.6 1.8 1.8 0 0 0 0 3.6Zm-5.4 0a1.8 1.8 0 1 0 0-3.6 1.8 1.8 0 0 0 0 3.6Zm-5.4 0a1.8 1.8 0 1 0 0-3.6 1.8 1.8 0 0 0 0 3.6Zm-5.4 0a1.8 1.8 0 1 0 0-3.6 1.8 1.8 0 0 0 0 3.6Zm-5.4 0a1.8 1.8 0 1 0 0-3.6 1.8 1.8 0 0 0 0 3.6Zm-5.4 0a1.8 1.8 0 1 0 0-3.6 1.8 1.8 0 0 0 0 3.6Zm-5.4 0a1.8 1.8 0 1 0 0-3.6 1.8 1.8 0 0 0 0 3.6Zm59.4-5.401a1.8 1.8 0 1 0 0-3.6 1.8 1.8 0 0 0 0 3.6Zm-5.4 0a1.8 1.8 0 1 0 0-3.6 1.8 1.8 0 0 0 0 3.6Zm-5.4 0a1.8 1.8 0 1 0 0-3.6 1.8 1.8 0 0 0 0 3.6Zm-5.4 0a1.8 1.8 0 1 0 0-3.6 1.8 1.8 0 0 0 0 3.6Zm-5.4 0a1.8 1.8 0 1 0 0-3.6 1.8 1.8 0 0 0 0 3.6Zm-5.4 0a1.8 1.8 0 1 0 0-3.6 1.8 1.8 0 0 0 0 3.6Zm-5.4 0a1.8 1.8 0 1 0 0-3.6 1.8 1.8 0 0 0 0 3.6Zm-5.4 0a1.8 1.8 0 1 0 0-3.6 1.8 1.8 0 0 0 0 3.6Zm-5.4 0a1.8 1.8 0 1 0 0-3.6 1.8 1.8 0 0 0 0 3.6Zm-5.4 0a1.8 1.8 0 1 0 0-3.6 1.8 1.8 0 0 0 0 3.6Zm-5.4 0a1.8 1.8 0 1 0 0-3.6 1.8 1.8 0 0 0 0 3.6Zm-5.4 0a1.8 1.8 0 1 0 0-3.6 1.8 1.8 0 0 0 0 3.6Zm59.4-5.4a1.8 1.8 0 1 0 0-3.6 1.8 1.8 0 0 0 0 3.6Zm-5.4 0a1.8 1.8 0 1 0 0-3.6 1.8 1.8 0 0 0 0 3.6Zm-5.4 0a1.8 1.8 0 1 0 0-3.6 1.8 1.8 0 0 0 0 3.6Zm-5.4 0a1.8 1.8 0 1 0 0-3.6 1.8 1.8 0 0 0 0 3.6Zm-5.4 0a1.8 1.8 0 1 0 0-3.6 1.8 1.8 0 0 0 0 3.6Zm-5.4 0a1.8 1.8 0 1 0 0-3.6 1.8 1.8 0 0 0 0 3.6Zm-5.4 0a1.8 1.8 0 1 0 0-3.6 1.8 1.8 0 0 0 0 3.6Zm-5.4 0a1.8 1.8 0 1 0 0-3.6 1.8 1.8 0 0 0 0 3.6Zm-5.4 0a1.8 1.8 0 1 0 0-3.6 1.8 1.8 0 0 0 0 3.6Zm-5.4 0a1.8 1.8 0 1 0 0-3.6 1.8 1.8 0 0 0 0 3.6Zm-5.4 0a1.8 1.8 0 1 0 0-3.6 1.8 1.8 0 0 0 0 3.6Zm-5.4 0a1.8 1.8 0 1 0 0-3.6 1.8 1.8 0 0 0 0 3.6Zm59.4-5.4a1.8 1.8 0 1 0 0-3.6 1.8 1.8 0 0 0 0 3.6Zm-5.4 0a1.8 1.8 0 1 0 0-3.6 1.8 1.8 0 0 0 0 3.6Zm-5.4 0a1.8 1.8 0 1 0 0-3.6 1.8 1.8 0 0 0 0 3.6Zm-5.4 0a1.8 1.8 0 1 0 0-3.6 1.8 1.8 0 0 0 0 3.6Zm-5.4 0a1.8 1.8 0 1 0 0-3.6 1.8 1.8 0 0 0 0 3.6Zm-5.4 0a1.8 1.8 0 1 0 0-3.6 1.8 1.8 0 0 0 0 3.6Zm-5.4 0a1.8 1.8 0 1 0 0-3.6 1.8 1.8 0 0 0 0 3.6Zm-5.4 0a1.8 1.8 0 1 0 0-3.6 1.8 1.8 0 0 0 0 3.6Zm-5.4 0a1.8 1.8 0 1 0 0-3.6 1.8 1.8 0 0 0 0 3.6Zm-5.4 0a1.8 1.8 0 1 0 0-3.6 1.8 1.8 0 0 0 0 3.6Zm-5.4 0a1.8 1.8 0 1 0 0-3.6 1.8 1.8 0 0 0 0 3.6Zm-5.4 0a1.8 1.8 0 1 0 0-3.6 1.8 1.8 0 0 0 0 3.6Zm124.4-5.6a1.8 1.8 0 1 0 0-3.601 1.8 1.8 0 0 0 0 3.6Zm-5.4 0a1.8 1.8 0 1 0 0-3.601 1.8 1.8 0 0 0 0 3.6Zm-5.4 0a1.8 1.8 0 1 0 0-3.601 1.8 1.8 0 0 0 0 3.6Zm-5.4 0a1.8 1.8 0 1 0 0-3.601 1.8 1.8 0 0 0 0 3.6Zm-5.4 0a1.8 1.8 0 1 0 0-3.601 1.8 1.8 0 0 0 0 3.6Zm-5.4 0a1.8 1.8 0 1 0 0-3.601 1.8 1.8 0 0 0 0 3.6Zm-5.4 0a1.8 1.8 0 1 0 0-3.601 1.8 1.8 0 0 0 0 3.6Zm-5.4 0a1.8 1.8 0 1 0 0-3.601 1.8 1.8 0 0 0 0 3.6Zm-5.4 0a1.8 1.8 0 1 0 0-3.601 1.8 1.8 0 0 0 0 3.6Zm-5.4 0a1.8 1.8 0 1 0 0-3.601 1.8 1.8 0 0 0 0 3.6Zm-5.4 0a1.8 1.8 0 1 0 0-3.601 1.8 1.8 0 0 0 0 3.6Zm-5.4 0a1.8 1.8 0 1 0 0-3.601 1.8 1.8 0 0 0 0 3.6Zm59.4-5.401a1.8 1.8 0 1 0 0-3.6 1.8 1.8 0 0 0 0 3.6Zm-5.4 0a1.8 1.8 0 1 0 0-3.6 1.8 1.8 0 0 0 0 3.6Zm-5.4 0a1.8 1.8 0 1 0 0-3.6 1.8 1.8 0 0 0 0 3.6Zm-5.4 0a1.8 1.8 0 1 0 0-3.6 1.8 1.8 0 0 0 0 3.6Zm-5.4 0a1.8 1.8 0 1 0 0-3.6 1.8 1.8 0 0 0 0 3.6Zm-5.4 0a1.8 1.8 0 1 0 0-3.6 1.8 1.8 0 0 0 0 3.6Zm-5.4 0a1.8 1.8 0 1 0 0-3.6 1.8 1.8 0 0 0 0 3.6Zm-5.4 0a1.8 1.8 0 1 0 0-3.6 1.8 1.8 0 0 0 0 3.6Zm-5.4 0a1.8 1.8 0 1 0 0-3.6 1.8 1.8 0 0 0 0 3.6Zm-5.4 0a1.8 1.8 0 1 0 0-3.6 1.8 1.8 0 0 0 0 3.6Zm-5.4 0a1.8 1.8 0 1 0 0-3.6 1.8 1.8 0 0 0 0 3.6Zm-5.4 0a1.8 1.8 0 1 0 0-3.6 1.8 1.8 0 0 0 0 3.6Zm59.4-5.4a1.8 1.8 0 1 0 0-3.6 1.8 1.8 0 0 0 0 3.6Zm-5.4 0a1.8 1.8 0 1 0 0-3.6 1.8 1.8 0 0 0 0 3.6Zm-5.4 0a1.8 1.8 0 1 0 0-3.6 1.8 1.8 0 0 0 0 3.6Zm-5.4 0a1.8 1.8 0 1 0 0-3.6 1.8 1.8 0 0 0 0 3.6Zm-5.4 0a1.8 1.8 0 1 0 0-3.6 1.8 1.8 0 0 0 0 3.6Zm-5.4 0a1.8 1.8 0 1 0 0-3.6 1.8 1.8 0 0 0 0 3.6Zm-5.4 0a1.8 1.8 0 1 0 0-3.6 1.8 1.8 0 0 0 0 3.6Zm-5.4 0a1.8 1.8 0 1 0 0-3.6 1.8 1.8 0 0 0 0 3.6Zm-5.4 0a1.8 1.8 0 1 0 0-3.6 1.8 1.8 0 0 0 0 3.6Zm-5.4 0a1.8 1.8 0 1 0 0-3.6 1.8 1.8 0 0 0 0 3.6Zm-5.4 0a1.8 1.8 0 1 0 0-3.6 1.8 1.8 0 0 0 0 3.6Zm-5.4 0a1.8 1.8 0 1 0 0-3.6 1.8 1.8 0 0 0 0 3.6Zm59.4-5.4a1.8 1.8 0 1 0 0-3.6 1.8 1.8 0 0 0 0 3.6Zm-5.4 0a1.8 1.8 0 1 0 0-3.6 1.8 1.8 0 0 0 0 3.6Zm-5.4 0a1.8 1.8 0 1 0 0-3.6 1.8 1.8 0 0 0 0 3.6Zm-5.4 0a1.8 1.8 0 1 0 0-3.6 1.8 1.8 0 0 0 0 3.6Zm-5.4 0a1.8 1.8 0 1 0 0-3.6 1.8 1.8 0 0 0 0 3.6Zm-5.4 0a1.8 1.8 0 1 0 0-3.6 1.8 1.8 0 0 0 0 3.6Zm-5.4 0a1.8 1.8 0 1 0 0-3.6 1.8 1.8 0 0 0 0 3.6Zm-5.4 0a1.8 1.8 0 1 0 0-3.6 1.8 1.8 0 0 0 0 3.6Zm-5.4 0a1.8 1.8 0 1 0 0-3.6 1.8 1.8 0 0 0 0 3.6Zm-5.4 0a1.8 1.8 0 1 0 0-3.6 1.8 1.8 0 0 0 0 3.6Zm-5.4 0a1.8 1.8 0 1 0 0-3.6 1.8 1.8 0 0 0 0 3.6Zm-5.4 0a1.8 1.8 0 1 0 0-3.6 1.8 1.8 0 0 0 0 3.6Zm59.4-5.401a1.8 1.8 0 1 0 0-3.6 1.8 1.8 0 0 0 0 3.6Zm-5.4 0a1.8 1.8 0 1 0 0-3.6 1.8 1.8 0 0 0 0 3.6Zm-5.4 0a1.8 1.8 0 1 0 0-3.6 1.8 1.8 0 0 0 0 3.6Zm-5.4 0a1.8 1.8 0 1 0 0-3.6 1.8 1.8 0 0 0 0 3.6Zm-5.4 0a1.8 1.8 0 1 0 0-3.6 1.8 1.8 0 0 0 0 3.6Zm-5.4 0a1.8 1.8 0 1 0 0-3.6 1.8 1.8 0 0 0 0 3.6Zm-5.4 0a1.8 1.8 0 1 0 0-3.6 1.8 1.8 0 0 0 0 3.6Zm-5.4 0a1.8 1.8 0 1 0 0-3.6 1.8 1.8 0 0 0 0 3.6Zm-5.4 0a1.8 1.8 0 1 0 0-3.6 1.8 1.8 0 0 0 0 3.6Zm-5.4 0a1.8 1.8 0 1 0 0-3.6 1.8 1.8 0 0 0 0 3.6Zm-5.4 0a1.8 1.8 0 1 0 0-3.6 1.8 1.8 0 0 0 0 3.6Zm-5.4 0a1.8 1.8 0 1 0 0-3.6 1.8 1.8 0 0 0 0 3.6Zm59.4-5.4a1.8 1.8 0 1 0 0-3.6 1.8 1.8 0 0 0 0 3.6Zm-5.4 0a1.8 1.8 0 1 0 0-3.6 1.8 1.8 0 0 0 0 3.6Zm-5.4 0a1.8 1.8 0 1 0 0-3.6 1.8 1.8 0 0 0 0 3.6Zm-5.4 0a1.8 1.8 0 1 0 0-3.6 1.8 1.8 0 0 0 0 3.6Zm-5.4 0a1.8 1.8 0 1 0 0-3.6 1.8 1.8 0 0 0 0 3.6Zm-5.4 0a1.8 1.8 0 1 0 0-3.6 1.8 1.8 0 0 0 0 3.6Zm-5.4 0a1.8 1.8 0 1 0 0-3.6 1.8 1.8 0 0 0 0 3.6Zm-5.4 0a1.8 1.8 0 1 0 0-3.6 1.8 1.8 0 0 0 0 3.6Zm-5.4 0a1.8 1.8 0 1 0 0-3.6 1.8 1.8 0 0 0 0 3.6Zm-5.4 0a1.8 1.8 0 1 0 0-3.6 1.8 1.8 0 0 0 0 3.6Zm-5.4 0a1.8 1.8 0 1 0 0-3.6 1.8 1.8 0 0 0 0 3.6Zm-5.4 0a1.8 1.8 0 1 0 0-3.6 1.8 1.8 0 0 0 0 3.6Zm59.4-5.4a1.8 1.8 0 1 0 0-3.6 1.8 1.8 0 0 0 0 3.6Zm-5.4 0a1.8 1.8 0 1 0 0-3.6 1.8 1.8 0 0 0 0 3.6Zm-5.4 0a1.8 1.8 0 1 0 0-3.6 1.8 1.8 0 0 0 0 3.6Zm-5.4 0a1.8 1.8 0 1 0 0-3.6 1.8 1.8 0 0 0 0 3.6Zm-5.4 0a1.8 1.8 0 1 0 0-3.6 1.8 1.8 0 0 0 0 3.6Zm-5.4 0a1.8 1.8 0 1 0 0-3.6 1.8 1.8 0 0 0 0 3.6Zm-5.4 0a1.8 1.8 0 1 0 0-3.6 1.8 1.8 0 0 0 0 3.6Zm-5.4 0a1.8 1.8 0 1 0 0-3.6 1.8 1.8 0 0 0 0 3.6Zm-5.4 0a1.8 1.8 0 1 0 0-3.6 1.8 1.8 0 0 0 0 3.6Zm-5.4 0a1.8 1.8 0 1 0 0-3.6 1.8 1.8 0 0 0 0 3.6Zm-5.4 0a1.8 1.8 0 1 0 0-3.6 1.8 1.8 0 0 0 0 3.6Zm-5.4 0a1.8 1.8 0 1 0 0-3.6 1.8 1.8 0 0 0 0 3.6Zm59.4-5.4a1.8 1.8 0 1 0 0-3.6 1.8 1.8 0 0 0 0 3.6Zm-5.4 0a1.8 1.8 0 1 0 0-3.6 1.8 1.8 0 0 0 0 3.6Zm-5.4 0a1.8 1.8 0 1 0 0-3.6 1.8 1.8 0 0 0 0 3.6Zm-5.4 0a1.8 1.8 0 1 0 0-3.6 1.8 1.8 0 0 0 0 3.6Zm-5.4 0a1.8 1.8 0 1 0 0-3.6 1.8 1.8 0 0 0 0 3.6Zm-5.4 0a1.8 1.8 0 1 0 0-3.6 1.8 1.8 0 0 0 0 3.6Zm-5.4 0a1.8 1.8 0 1 0 0-3.6 1.8 1.8 0 0 0 0 3.6Zm-5.4 0a1.8 1.8 0 1 0 0-3.6 1.8 1.8 0 0 0 0 3.6Zm-5.4 0a1.8 1.8 0 1 0 0-3.6 1.8 1.8 0 0 0 0 3.6Zm-5.4 0a1.8 1.8 0 1 0 0-3.6 1.8 1.8 0 0 0 0 3.6Zm-5.4 0a1.8 1.8 0 1 0 0-3.6 1.8 1.8 0 0 0 0 3.6Zm-5.4 0a1.8 1.8 0 1 0 0-3.6 1.8 1.8 0 0 0 0 3.6Zm59.4-5.401a1.8 1.8 0 1 0 0-3.6 1.8 1.8 0 0 0 0 3.6Zm-5.4 0a1.8 1.8 0 1 0 0-3.6 1.8 1.8 0 0 0 0 3.6Zm-5.4 0a1.8 1.8 0 1 0 0-3.6 1.8 1.8 0 0 0 0 3.6Zm-5.4 0a1.8 1.8 0 1 0 0-3.6 1.8 1.8 0 0 0 0 3.6Zm-5.4 0a1.8 1.8 0 1 0 0-3.6 1.8 1.8 0 0 0 0 3.6Zm-5.4 0a1.8 1.8 0 1 0 0-3.6 1.8 1.8 0 0 0 0 3.6Zm-5.4 0a1.8 1.8 0 1 0 0-3.6 1.8 1.8 0 0 0 0 3.6Zm-5.4 0a1.8 1.8 0 1 0 0-3.6 1.8 1.8 0 0 0 0 3.6Zm-5.4 0a1.8 1.8 0 1 0 0-3.6 1.8 1.8 0 0 0 0 3.6Zm-5.4 0a1.8 1.8 0 1 0 0-3.6 1.8 1.8 0 0 0 0 3.6Zm-5.4 0a1.8 1.8 0 1 0 0-3.6 1.8 1.8 0 0 0 0 3.6Zm-5.4 0a1.8 1.8 0 1 0 0-3.6 1.8 1.8 0 0 0 0 3.6Zm59.4-5.4a1.8 1.8 0 1 0 0-3.6 1.8 1.8 0 0 0 0 3.6Zm-5.4 0a1.8 1.8 0 1 0 0-3.6 1.8 1.8 0 0 0 0 3.6Zm-5.4 0a1.8 1.8 0 1 0 0-3.6 1.8 1.8 0 0 0 0 3.6Zm-5.4 0a1.8 1.8 0 1 0 0-3.6 1.8 1.8 0 0 0 0 3.6Zm-5.4 0a1.8 1.8 0 1 0 0-3.6 1.8 1.8 0 0 0 0 3.6Zm-5.4 0a1.8 1.8 0 1 0 0-3.6 1.8 1.8 0 0 0 0 3.6Zm-5.4 0a1.8 1.8 0 1 0 0-3.6 1.8 1.8 0 0 0 0 3.6Zm-5.4 0a1.8 1.8 0 1 0 0-3.6 1.8 1.8 0 0 0 0 3.6Zm-5.4 0a1.8 1.8 0 1 0 0-3.6 1.8 1.8 0 0 0 0 3.6Zm-5.4 0a1.8 1.8 0 1 0 0-3.6 1.8 1.8 0 0 0 0 3.6Zm-5.4 0a1.8 1.8 0 1 0 0-3.6 1.8 1.8 0 0 0 0 3.6Zm-5.4 0a1.8 1.8 0 1 0 0-3.6 1.8 1.8 0 0 0 0 3.6ZM126.2 9a1.8 1.8 0 1 0 0-3.6 1.8 1.8 0 0 0 0 3.6Zm-5.4 0a1.8 1.8 0 1 0 0-3.6 1.8 1.8 0 0 0 0 3.6Zm-5.4 0a1.8 1.8 0 1 0 0-3.6 1.8 1.8 0 0 0 0 3.6ZM110 9a1.8 1.8 0 1 0 0-3.6 1.8 1.8 0 0 0 0 3.6Zm-5.4 0a1.8 1.8 0 1 0 0-3.6 1.8 1.8 0 0 0 0 3.6Zm-5.4 0a1.8 1.8 0 1 0 0-3.6 1.8 1.8 0 0 0 0 3.6Zm-5.4 0a1.8 1.8 0 1 0 0-3.6 1.8 1.8 0 0 0 0 3.6Zm-5.4 0a1.8 1.8 0 1 0 0-3.6 1.8 1.8 0 0 0 0 3.6ZM83 9a1.8 1.8 0 1 0 0-3.6A1.8 1.8 0 0 0 83 9Zm-5.4 0a1.8 1.8 0 1 0 0-3.6 1.8 1.8 0 0 0 0 3.6Zm-5.4 0a1.8 1.8 0 1 0 0-3.6 1.8 1.8 0 0 0 0 3.6Zm-5.4 0a1.8 1.8 0 1 0 0-3.6 1.8 1.8 0 0 0 0 3.6Zm59.4-5.4a1.8 1.8 0 1 0 0-3.6 1.8 1.8 0 0 0 0 3.6Zm-5.4 0a1.8 1.8 0 1 0 0-3.6 1.8 1.8 0 0 0 0 3.6Zm-5.4 0a1.8 1.8 0 1 0 0-3.6 1.8 1.8 0 0 0 0 3.6Zm-5.4 0a1.8 1.8 0 1 0 0-3.6 1.8 1.8 0 0 0 0 3.6Zm-5.4 0a1.8 1.8 0 1 0 0-3.6 1.8 1.8 0 0 0 0 3.6Zm-5.4 0a1.8 1.8 0 1 0 0-3.6 1.8 1.8 0 0 0 0 3.6Zm-5.4 0a1.8 1.8 0 1 0 0-3.6 1.8 1.8 0 0 0 0 3.6Zm-5.4 0a1.8 1.8 0 1 0 0-3.6 1.8 1.8 0 0 0 0 3.6Zm-5.4 0A1.8 1.8 0 1 0 83 0a1.8 1.8 0 0 0 0 3.6Zm-5.4 0a1.8 1.8 0 1 0 0-3.6 1.8 1.8 0 0 0 0 3.6Zm-5.4 0a1.8 1.8 0 1 0 0-3.6 1.8 1.8 0 0 0 0 3.6Zm-5.4 0a1.8 1.8 0 1 0 0-3.6 1.8 1.8 0 0 0 0 3.6Zm59.4 124.405a1.8 1.8 0 1 0 0-3.6 1.8 1.8 0 0 0 0 3.6Zm-5.4 0a1.8 1.8 0 1 0 0-3.6 1.8 1.8 0 0 0 0 3.6Zm-5.4 0a1.8 1.8 0 1 0 0-3.6 1.8 1.8 0 0 0 0 3.6Zm-5.4 0a1.8 1.8 0 1 0 0-3.6 1.8 1.8 0 0 0 0 3.6Zm-5.4 0a1.8 1.8 0 1 0 0-3.6 1.8 1.8 0 0 0 0 3.6Zm-5.4 0a1.8 1.8 0 1 0 0-3.6 1.8 1.8 0 0 0 0 3.6Zm-5.4 0a1.8 1.8 0 1 0 0-3.6 1.8 1.8 0 0 0 0 3.6Zm-5.4 0a1.8 1.8 0 1 0 0-3.6 1.8 1.8 0 0 0 0 3.6Zm-5.4 0a1.8 1.8 0 1 0 0-3.6 1.8 1.8 0 0 0 0 3.6Zm-5.4 0a1.8 1.8 0 1 0 0-3.6 1.8 1.8 0 0 0 0 3.6Zm-5.4 0a1.8 1.8 0 1 0 0-3.6 1.8 1.8 0 0 0 0 3.6Zm-5.4 0a1.8 1.8 0 1 0 0-3.6 1.8 1.8 0 0 0 0 3.6Zm59.4-5.4a1.8 1.8 0 1 0 0-3.6 1.8 1.8 0 0 0 0 3.6Zm-5.4 0a1.8 1.8 0 1 0 0-3.6 1.8 1.8 0 0 0 0 3.6Zm-5.4 0a1.8 1.8 0 1 0 0-3.6 1.8 1.8 0 0 0 0 3.6Zm-5.4 0a1.8 1.8 0 1 0 0-3.6 1.8 1.8 0 0 0 0 3.6Zm-5.4 0a1.8 1.8 0 1 0 0-3.6 1.8 1.8 0 0 0 0 3.6Zm-5.4 0a1.8 1.8 0 1 0 0-3.6 1.8 1.8 0 0 0 0 3.6Zm-5.4 0a1.8 1.8 0 1 0 0-3.6 1.8 1.8 0 0 0 0 3.6Zm-5.4 0a1.8 1.8 0 1 0 0-3.6 1.8 1.8 0 0 0 0 3.6Zm-5.4 0a1.8 1.8 0 1 0 0-3.6 1.8 1.8 0 0 0 0 3.6Zm-5.4 0a1.8 1.8 0 1 0 0-3.6 1.8 1.8 0 0 0 0 3.6Zm-5.4 0a1.8 1.8 0 1 0 0-3.6 1.8 1.8 0 0 0 0 3.6Zm-5.4 0a1.8 1.8 0 1 0 0-3.6 1.8 1.8 0 0 0 0 3.6Zm59.4-5.4a1.8 1.8 0 1 0 0-3.6 1.8 1.8 0 0 0 0 3.6Zm-5.4 0a1.8 1.8 0 1 0 0-3.6 1.8 1.8 0 0 0 0 3.6Zm-5.4 0a1.8 1.8 0 1 0 0-3.6 1.8 1.8 0 0 0 0 3.6Zm-5.4 0a1.8 1.8 0 1 0 0-3.6 1.8 1.8 0 0 0 0 3.6Zm-5.4 0a1.8 1.8 0 1 0 0-3.6 1.8 1.8 0 0 0 0 3.6Zm-5.4 0a1.8 1.8 0 1 0 0-3.6 1.8 1.8 0 0 0 0 3.6Zm-5.4 0a1.8 1.8 0 1 0 0-3.6 1.8 1.8 0 0 0 0 3.6Zm-5.4 0a1.8 1.8 0 1 0 0-3.6 1.8 1.8 0 0 0 0 3.6Zm-5.4 0a1.8 1.8 0 1 0 0-3.6 1.8 1.8 0 0 0 0 3.6Zm-5.4 0a1.8 1.8 0 1 0 0-3.6 1.8 1.8 0 0 0 0 3.6Zm-5.4 0a1.8 1.8 0 1 0 0-3.6 1.8 1.8 0 0 0 0 3.6Zm-5.4 0a1.8 1.8 0 1 0 0-3.6 1.8 1.8 0 0 0 0 3.6Zm59.4-5.4a1.8 1.8 0 1 0 0-3.6 1.8 1.8 0 0 0 0 3.6Zm-5.4 0a1.8 1.8 0 1 0 0-3.6 1.8 1.8 0 0 0 0 3.6Zm-5.4 0a1.8 1.8 0 1 0 0-3.6 1.8 1.8 0 0 0 0 3.6Zm-5.4 0a1.8 1.8 0 1 0 0-3.6 1.8 1.8 0 0 0 0 3.6Zm-5.4 0a1.8 1.8 0 1 0 0-3.6 1.8 1.8 0 0 0 0 3.6Zm-5.4 0a1.8 1.8 0 1 0 0-3.6 1.8 1.8 0 0 0 0 3.6Zm-5.4 0a1.8 1.8 0 1 0 0-3.6 1.8 1.8 0 0 0 0 3.6Zm-5.4 0a1.8 1.8 0 1 0 0-3.6 1.8 1.8 0 0 0 0 3.6Zm-5.4 0a1.8 1.8 0 1 0 0-3.6 1.8 1.8 0 0 0 0 3.6Zm-5.4 0a1.8 1.8 0 1 0 0-3.6 1.8 1.8 0 0 0 0 3.6Zm-5.4 0a1.8 1.8 0 1 0 0-3.6 1.8 1.8 0 0 0 0 3.6Zm-5.4 0a1.8 1.8 0 1 0 0-3.6 1.8 1.8 0 0 0 0 3.6Zm59.4-5.4a1.8 1.8 0 1 0 0-3.6 1.8 1.8 0 0 0 0 3.6Zm-5.4 0a1.8 1.8 0 1 0 0-3.6 1.8 1.8 0 0 0 0 3.6Zm-5.4 0a1.8 1.8 0 1 0 0-3.6 1.8 1.8 0 0 0 0 3.6Zm-5.4 0a1.8 1.8 0 1 0 0-3.6 1.8 1.8 0 0 0 0 3.6Zm-5.4 0a1.8 1.8 0 1 0 0-3.6 1.8 1.8 0 0 0 0 3.6Zm-5.4 0a1.8 1.8 0 1 0 0-3.6 1.8 1.8 0 0 0 0 3.6Zm-5.4 0a1.8 1.8 0 1 0 0-3.6 1.8 1.8 0 0 0 0 3.6Zm-5.4 0a1.8 1.8 0 1 0 0-3.6 1.8 1.8 0 0 0 0 3.6Zm-5.4 0a1.8 1.8 0 1 0 0-3.6 1.8 1.8 0 0 0 0 3.6Zm-5.4 0a1.8 1.8 0 1 0 0-3.6 1.8 1.8 0 0 0 0 3.6Zm-5.4 0a1.8 1.8 0 1 0 0-3.6 1.8 1.8 0 0 0 0 3.6Zm-5.4 0a1.8 1.8 0 1 0 0-3.6 1.8 1.8 0 0 0 0 3.6Zm59.4-5.401a1.8 1.8 0 1 0 0-3.6 1.8 1.8 0 0 0 0 3.6Zm-5.4 0a1.8 1.8 0 1 0 0-3.6 1.8 1.8 0 0 0 0 3.6Zm-5.4 0a1.8 1.8 0 1 0 0-3.6 1.8 1.8 0 0 0 0 3.6Zm-5.4 0a1.8 1.8 0 1 0 0-3.6 1.8 1.8 0 0 0 0 3.6Zm-5.4 0a1.8 1.8 0 1 0 0-3.6 1.8 1.8 0 0 0 0 3.6Zm-5.4 0a1.8 1.8 0 1 0 0-3.6 1.8 1.8 0 0 0 0 3.6Zm-5.4 0a1.8 1.8 0 1 0 0-3.6 1.8 1.8 0 0 0 0 3.6Zm-5.4 0a1.8 1.8 0 1 0 0-3.6 1.8 1.8 0 0 0 0 3.6Zm-5.4 0a1.8 1.8 0 1 0 0-3.6 1.8 1.8 0 0 0 0 3.6Zm-5.4 0a1.8 1.8 0 1 0 0-3.6 1.8 1.8 0 0 0 0 3.6Zm-5.4 0a1.8 1.8 0 1 0 0-3.6 1.8 1.8 0 0 0 0 3.6Zm-5.4 0a1.8 1.8 0 1 0 0-3.6 1.8 1.8 0 0 0 0 3.6Zm59.4-5.4a1.8 1.8 0 1 0 0-3.6 1.8 1.8 0 0 0 0 3.6Zm-5.4 0a1.8 1.8 0 1 0 0-3.6 1.8 1.8 0 0 0 0 3.6Zm-5.4 0a1.8 1.8 0 1 0 0-3.6 1.8 1.8 0 0 0 0 3.6Zm-5.4 0a1.8 1.8 0 1 0 0-3.6 1.8 1.8 0 0 0 0 3.6Zm-5.4 0a1.8 1.8 0 1 0 0-3.6 1.8 1.8 0 0 0 0 3.6Zm-5.4 0a1.8 1.8 0 1 0 0-3.6 1.8 1.8 0 0 0 0 3.6Zm-5.4 0a1.8 1.8 0 1 0 0-3.6 1.8 1.8 0 0 0 0 3.6Zm-5.4 0a1.8 1.8 0 1 0 0-3.6 1.8 1.8 0 0 0 0 3.6Zm-5.4 0a1.8 1.8 0 1 0 0-3.6 1.8 1.8 0 0 0 0 3.6Zm-5.4 0a1.8 1.8 0 1 0 0-3.6 1.8 1.8 0 0 0 0 3.6Zm-5.4 0a1.8 1.8 0 1 0 0-3.6 1.8 1.8 0 0 0 0 3.6Zm-5.4 0a1.8 1.8 0 1 0 0-3.6 1.8 1.8 0 0 0 0 3.6Zm59.4-5.4a1.8 1.8 0 1 0 0-3.6 1.8 1.8 0 0 0 0 3.6Zm-5.4 0a1.8 1.8 0 1 0 0-3.6 1.8 1.8 0 0 0 0 3.6Zm-5.4 0a1.8 1.8 0 1 0 0-3.6 1.8 1.8 0 0 0 0 3.6Zm-5.4 0a1.8 1.8 0 1 0 0-3.6 1.8 1.8 0 0 0 0 3.6Zm-5.4 0a1.8 1.8 0 1 0 0-3.6 1.8 1.8 0 0 0 0 3.6Zm-5.4 0a1.8 1.8 0 1 0 0-3.6 1.8 1.8 0 0 0 0 3.6Zm-5.4 0a1.8 1.8 0 1 0 0-3.6 1.8 1.8 0 0 0 0 3.6Zm-5.4 0a1.8 1.8 0 1 0 0-3.6 1.8 1.8 0 0 0 0 3.6Zm-5.4 0a1.8 1.8 0 1 0 0-3.6 1.8 1.8 0 0 0 0 3.6Zm-5.4 0a1.8 1.8 0 1 0 0-3.6 1.8 1.8 0 0 0 0 3.6Zm-5.4 0a1.8 1.8 0 1 0 0-3.6 1.8 1.8 0 0 0 0 3.6Zm-5.4 0a1.8 1.8 0 1 0 0-3.6 1.8 1.8 0 0 0 0 3.6Zm59.4-5.4a1.8 1.8 0 1 0 0-3.6 1.8 1.8 0 0 0 0 3.6Zm-5.4 0a1.8 1.8 0 1 0 0-3.6 1.8 1.8 0 0 0 0 3.6Zm-5.4 0a1.8 1.8 0 1 0 0-3.6 1.8 1.8 0 0 0 0 3.6Zm-5.4 0a1.8 1.8 0 1 0 0-3.6 1.8 1.8 0 0 0 0 3.6Zm-5.4 0a1.8 1.8 0 1 0 0-3.6 1.8 1.8 0 0 0 0 3.6Zm-5.4 0a1.8 1.8 0 1 0 0-3.6 1.8 1.8 0 0 0 0 3.6Zm-5.4 0a1.8 1.8 0 1 0 0-3.6 1.8 1.8 0 0 0 0 3.6Zm-5.4 0a1.8 1.8 0 1 0 0-3.6 1.8 1.8 0 0 0 0 3.6Zm-5.4 0a1.8 1.8 0 1 0 0-3.6 1.8 1.8 0 0 0 0 3.6Zm-5.4 0a1.8 1.8 0 1 0 0-3.6 1.8 1.8 0 0 0 0 3.6Zm-5.4 0a1.8 1.8 0 1 0 0-3.6 1.8 1.8 0 0 0 0 3.6Zm-5.4 0a1.8 1.8 0 1 0 0-3.6 1.8 1.8 0 0 0 0 3.6Zm59.4-5.401a1.8 1.8 0 1 0 0-3.6 1.8 1.8 0 0 0 0 3.6Zm-5.4 0a1.8 1.8 0 1 0 0-3.6 1.8 1.8 0 0 0 0 3.6Zm-5.4 0a1.8 1.8 0 1 0 0-3.6 1.8 1.8 0 0 0 0 3.6Zm-5.4 0a1.8 1.8 0 1 0 0-3.6 1.8 1.8 0 0 0 0 3.6Zm-5.4 0a1.8 1.8 0 1 0 0-3.6 1.8 1.8 0 0 0 0 3.6Zm-5.4 0a1.8 1.8 0 1 0 0-3.6 1.8 1.8 0 0 0 0 3.6Zm-5.4 0a1.8 1.8 0 1 0 0-3.6 1.8 1.8 0 0 0 0 3.6Zm-5.4 0a1.8 1.8 0 1 0 0-3.6 1.8 1.8 0 0 0 0 3.6Zm-5.4 0a1.8 1.8 0 1 0 0-3.6 1.8 1.8 0 0 0 0 3.6Zm-5.4 0a1.8 1.8 0 1 0 0-3.6 1.8 1.8 0 0 0 0 3.6Zm-5.4 0a1.8 1.8 0 1 0 0-3.6 1.8 1.8 0 0 0 0 3.6Zm-5.4 0a1.8 1.8 0 1 0 0-3.6 1.8 1.8 0 0 0 0 3.6Zm59.4-5.4a1.8 1.8 0 1 0 0-3.6 1.8 1.8 0 0 0 0 3.6Zm-5.4 0a1.8 1.8 0 1 0 0-3.6 1.8 1.8 0 0 0 0 3.6Zm-5.4 0a1.8 1.8 0 1 0 0-3.6 1.8 1.8 0 0 0 0 3.6Zm-5.4 0a1.8 1.8 0 1 0 0-3.6 1.8 1.8 0 0 0 0 3.6Zm-5.4 0a1.8 1.8 0 1 0 0-3.6 1.8 1.8 0 0 0 0 3.6Zm-5.4 0a1.8 1.8 0 1 0 0-3.6 1.8 1.8 0 0 0 0 3.6Zm-5.4 0a1.8 1.8 0 1 0 0-3.6 1.8 1.8 0 0 0 0 3.6Zm-5.4 0a1.8 1.8 0 1 0 0-3.6 1.8 1.8 0 0 0 0 3.6Zm-5.4 0a1.8 1.8 0 1 0 0-3.6 1.8 1.8 0 0 0 0 3.6Zm-5.4 0a1.8 1.8 0 1 0 0-3.6 1.8 1.8 0 0 0 0 3.6Zm-5.4 0a1.8 1.8 0 1 0 0-3.6 1.8 1.8 0 0 0 0 3.6Zm-5.4 0a1.8 1.8 0 1 0 0-3.6 1.8 1.8 0 0 0 0 3.6Zm59.4-5.4a1.8 1.8 0 1 0 0-3.6 1.8 1.8 0 0 0 0 3.6Zm-5.4 0a1.8 1.8 0 1 0 0-3.6 1.8 1.8 0 0 0 0 3.6Zm-5.4 0a1.8 1.8 0 1 0 0-3.6 1.8 1.8 0 0 0 0 3.6Zm-5.4 0a1.8 1.8 0 1 0 0-3.6 1.8 1.8 0 0 0 0 3.6Zm-5.4 0a1.8 1.8 0 1 0 0-3.6 1.8 1.8 0 0 0 0 3.6Zm-5.4 0a1.8 1.8 0 1 0 0-3.6 1.8 1.8 0 0 0 0 3.6Zm-5.4 0a1.8 1.8 0 1 0 0-3.6 1.8 1.8 0 0 0 0 3.6Zm-5.4 0a1.8 1.8 0 1 0 0-3.6 1.8 1.8 0 0 0 0 3.6Zm-5.4 0a1.8 1.8 0 1 0 0-3.6 1.8 1.8 0 0 0 0 3.6Zm-5.4 0a1.8 1.8 0 1 0 0-3.6 1.8 1.8 0 0 0 0 3.6Zm-5.4 0a1.8 1.8 0 1 0 0-3.6 1.8 1.8 0 0 0 0 3.6Zm-5.4 0a1.8 1.8 0 1 0 0-3.6 1.8 1.8 0 0 0 0 3.6Z" mask="url(#b)"/></g><g transform="translate(27.92)"><mask id="d" fill="#fff"><use xlink:href="#c"/></mask><use xlink:href="#c" fill="#BA0D37"/><g stroke="#FFF" stroke-linecap="square" stroke-width=".6" mask="url(#d)" opacity=".4"><path d="m32.548 118.694 92.631-92.631m-94.71 90.55 92.63-92.63m-94.71 90.55 92.63-92.63m-94.71 90.55 92.63-92.63m-94.71 90.55 92.63-92.63m-94.71 90.55 92.63-92.63m-94.711 90.55 92.631-92.63m-94.711 90.55 92.631-92.63m-94.711 90.55 92.631-92.63m-94.711 90.55 92.63-92.63m-94.71 90.55 92.63-92.63m-94.71 90.55 92.63-92.63m-94.71 90.55 92.63-92.63m-94.71 90.55 92.63-92.63m-94.71 90.55 92.63-92.63m-94.71 90.55 92.63-92.63m-94.71 90.55 92.63-92.63m-94.71 90.55 92.63-92.63m-94.71 90.55 92.63-92.63m-94.71 90.55 92.63-92.63m-94.71 90.55 92.63-92.63m-94.71 90.55 92.63-92.63m-94.71 90.55 92.63-92.63m-94.71 90.55 92.63-92.63m-94.71 90.55 92.63-92.63m-94.71 90.55 92.63-92.63m-94.71 90.55 92.63-92.63m-94.71 90.55 92.63-92.63m-94.71 90.55 92.63-92.63m-94.71 90.55 92.63-92.63m-94.71 90.55 92.63-92.631m-94.71 90.551 92.63-92.631m-94.71 90.551 92.63-92.631m-94.71 90.55 92.63-92.63m-94.71 90.55 92.63-92.63m-94.71 90.55 92.63-92.63m-94.71 90.55 92.63-92.63m-94.71 90.55 92.63-92.63m-94.711 90.55 92.631-92.63m-94.711 90.55 92.631-92.63m-94.711 90.55 92.631-92.63m-94.711 90.55 92.63-92.63" opacity=".801"/></g></g><g transform="translate(16.5 8.375)"><mask id="f" fill="#fff"><use xlink:href="#e"/></mask><use xlink:href="#e" fill="#818F67"/><path stroke="#FFF" stroke-linecap="square" stroke-width=".6" d="M-34.5 82.63H99.3m-133.8-3H99.3m-133.8-3H99.3m-133.8-3.001H99.3m-133.8-3H99.3m-133.8-3H99.3m-133.8-3H99.3m-133.8-3H99.3m-133.8-3H99.3m-133.8-3H99.3m-133.8-3.001H99.3m-133.8-3H99.3m-133.8-3H99.3m-133.8-3H99.3m-133.8-3H99.3m-133.8-3H99.3m-133.8-3H99.3m-133.8-3.001H99.3m-133.8-3H99.3m-133.8-3H99.3m-133.8-3H99.3m-133.8-3H99.3m-133.8-3H99.3m-133.8-3H99.3m-133.8-3.001H99.3m-133.8-3H99.3m-133.8-3H99.3m-133.8-3H99.3m-133.8-3H99.3m-133.8-3H99.3M-34.5-7.376H99.3m-133.8-3H99.3m-133.8-3H99.3m-133.8-3H99.3m-133.8-3H99.3m-133.8-3H99.3m-133.8-3H99.3m-133.8-3.001H99.3m-133.8-3H99.3m-133.8-3H99.3m-133.8-3H99.3m-133.8-3H99.3" mask="url(#f)" opacity=".4"/></g></g></svg>