<svg xmlns="http://www.w3.org/2000/svg" viewBox="0 0 377 45">
<g fill="none" fill-rule="evenodd">
<path fill="#F2F9FF" d="M357.586 30.585A12.098 12.098 0 0 1 349 34.142a12.097 12.097 0 0 1-8.586-3.557A12.1 12.1 0 0 1 336.858 22a12.102 12.102 0 0 1 3.556-8.586A12.104 12.104 0 0 1 349 9.858a12.105 12.105 0 0 1 8.586 3.556A12.1 12.1 0 0 1 361.142 22a12.097 12.097 0 0 1-3.557 8.586M349 6.91c-8.32 0-15.09 6.77-15.09 15.09s6.77 15.09 15.09 15.09c8.321 0 15.09-6.77 15.09-15.09S357.322 6.91 349 6.91"/>
<path fill="#F2F9FF" d="M359.096 22c0 5.566-4.53 10.095-10.096 10.095S338.905 27.566 338.905 22c0-5.566 4.529-10.095 10.095-10.095 5.567 0 10.096 4.529 10.096 10.095"/>
<path fill="#243A4A" d="M349 33.232c-6.193 0-11.233-5.038-11.233-11.232 0-6.194 5.04-11.233 11.233-11.233 6.194 0 11.233 5.04 11.233 11.233 0 6.194-5.039 11.232-11.233 11.232Zm11.188-15.958a12.1 12.1 0 0 0-2.602-3.86A12.105 12.105 0 0 0 349 9.858a12.104 12.104 0 0 0-8.586 3.556A12.102 12.102 0 0 0 336.858 22a12.1 12.1 0 0 0 3.556 8.586A12.096 12.096 0 0 0 349 34.141a12.098 12.098 0 0 0 8.586-3.557A12.097 12.097 0 0 0 361.142 22a12.07 12.07 0 0 0-.954-4.726Z"/>
<path fill="#243A4A" d="M349 37.09a15.027 15.027 0 0 1-9.531-3.4 15.219 15.219 0 0 1-1.713-1.636A15.021 15.021 0 0 1 333.91 22c0-8.32 6.77-15.09 15.091-15.09a15.022 15.022 0 0 1 10.054 3.846 15.235 15.235 0 0 1 3.19 4.016 15.036 15.036 0 0 1 1.153 2.702c.45 1.43.694 2.95.694 4.526 0 8.32-6.77 15.09-15.09 15.09Zm15.12-20.338a15.847 15.847 0 0 0-1.203-2.652 16.129 16.129 0 0 0-2.603-3.414 16.2 16.2 0 0 0-2.368-1.953 16.011 16.011 0 0 0-3.198-1.67A15.908 15.908 0 0 0 349 6a15.898 15.898 0 0 0-8.946 2.733 16.116 16.116 0 0 0-4.321 4.321A15.9 15.9 0 0 0 333 22a15.908 15.908 0 0 0 2.733 8.946 16.082 16.082 0 0 0 7.039 5.796A15.915 15.915 0 0 0 349 38a15.898 15.898 0 0 0 8.946-2.733 16.122 16.122 0 0 0 4.321-4.321A15.897 15.897 0 0 0 365 22a15.91 15.91 0 0 0-.88-5.248Z"/>
<path fill="#243A4A" fill-rule="nonzero" d="m343.667 27.492.644-1.786c.254-.132.444-.278.57-.438.128-.16.252-.4.373-.72l.512-1.438h-.876l.645-1.785h.893l1.124-3.125c.518-1.378 1.543-2.067 3.075-2.067h1.72c.837 0 1.43.262 1.777.786.347.523.372 1.193.074 2.008l-.48 1.307h-2.843l.579-1.588c.066-.165.069-.311.008-.438-.06-.126-.168-.19-.322-.19h-.199c-.187 0-.328.044-.421.132-.094.089-.185.254-.273.496l-.976 2.679h2.547l-.662 1.785h-2.546l-.413 1.141c-.199.54-.496.92-.893 1.141h4.745l-.76 2.1h-7.622Z"/>
<path fill="#F2F9FF" d="M320.586 30.585A12.098 12.098 0 0 1 312 34.142a12.097 12.097 0 0 1-8.586-3.557A12.1 12.1 0 0 1 299.858 22a12.102 12.102 0 0 1 3.556-8.586A12.104 12.104 0 0 1 312 9.858a12.105 12.105 0 0 1 8.586 3.556A12.1 12.1 0 0 1 324.142 22a12.097 12.097 0 0 1-3.557 8.586M312 6.91c-8.32 0-15.09 6.77-15.09 15.09s6.77 15.09 15.09 15.09c8.321 0 15.09-6.77 15.09-15.09S320.322 6.91 312 6.91"/>
<path fill="#F2F9FF" d="M322.096 22c0 5.566-4.53 10.095-10.096 10.095S301.905 27.566 301.905 22c0-5.566 4.529-10.095 10.095-10.095 5.567 0 10.096 4.529 10.096 10.095"/>
<path fill="#243A4A" d="M312 33.232c-6.193 0-11.233-5.038-11.233-11.232 0-6.194 5.04-11.233 11.233-11.233 6.194 0 11.233 5.04 11.233 11.233 0 6.194-5.039 11.232-11.233 11.232Zm11.188-15.958a12.1 12.1 0 0 0-2.602-3.86A12.105 12.105 0 0 0 312 9.858a12.104 12.104 0 0 0-8.586 3.556A12.102 12.102 0 0 0 299.858 22a12.1 12.1 0 0 0 3.556 8.586A12.096 12.096 0 0 0 312 34.141a12.098 12.098 0 0 0 8.586-3.557A12.097 12.097 0 0 0 324.142 22a12.07 12.07 0 0 0-.954-4.726Z"/>
<path fill="#243A4A" d="M312 37.09a15.027 15.027 0 0 1-9.531-3.4 15.219 15.219 0 0 1-1.713-1.636A15.021 15.021 0 0 1 296.91 22c0-8.32 6.77-15.09 15.091-15.09a15.022 15.022 0 0 1 10.054 3.846 15.235 15.235 0 0 1 3.19 4.016 15.036 15.036 0 0 1 1.153 2.702c.45 1.43.694 2.95.694 4.526 0 8.32-6.77 15.09-15.09 15.09Zm15.12-20.338a15.847 15.847 0 0 0-1.203-2.652 16.129 16.129 0 0 0-2.603-3.414 16.2 16.2 0 0 0-2.368-1.953 16.011 16.011 0 0 0-3.198-1.67A15.908 15.908 0 0 0 312 6a15.898 15.898 0 0 0-8.946 2.733 16.116 16.116 0 0 0-4.321 4.321A15.9 15.9 0 0 0 296 22a15.908 15.908 0 0 0 2.733 8.946 16.082 16.082 0 0 0 7.039 5.796A15.915 15.915 0 0 0 312 38a15.898 15.898 0 0 0 8.946-2.733 16.122 16.122 0 0 0 4.321-4.321A15.897 15.897 0 0 0 328 22a15.91 15.91 0 0 0-.88-5.248Z"/>
<path fill="#243A4A" fill-rule="nonzero" d="m306.667 27.492.644-1.786c.254-.132.444-.278.57-.438.128-.16.252-.4.373-.72l.512-1.438h-.876l.645-1.785h.893l1.124-3.125c.518-1.378 1.543-2.067 3.075-2.067h1.72c.837 0 1.43.262 1.777.786.347.523.372 1.193.074 2.008l-.48 1.307h-2.843l.579-1.588c.066-.165.069-.311.008-.438-.06-.126-.168-.19-.322-.19h-.199c-.187 0-.328.044-.421.132-.094.089-.185.254-.273.496l-.976 2.679h2.547l-.662 1.785h-2.546l-.413 1.141c-.199.54-.496.92-.893 1.141h4.745l-.76 2.1h-7.622Z"/>
<path fill="#F2F9FF" d="M283.586 30.585A12.098 12.098 0 0 1 275 34.142a12.097 12.097 0 0 1-8.586-3.557A12.1 12.1 0 0 1 262.858 22a12.102 12.102 0 0 1 3.556-8.586A12.104 12.104 0 0 1 275 9.858a12.105 12.105 0 0 1 8.586 3.556A12.1 12.1 0 0 1 287.142 22a12.097 12.097 0 0 1-3.557 8.586M275 6.91c-8.32 0-15.09 6.77-15.09 15.09s6.77 15.09 15.09 15.09c8.321 0 15.09-6.77 15.09-15.09S283.322 6.91 275 6.91"/>
<path fill="#F2F9FF" d="M285.096 22c0 5.566-4.53 10.095-10.096 10.095S264.905 27.566 264.905 22c0-5.566 4.529-10.095 10.095-10.095 5.567 0 10.096 4.529 10.096 10.095"/>
<path fill="#243A4A" d="M275 33.232c-6.193 0-11.233-5.038-11.233-11.232 0-6.194 5.04-11.233 11.233-11.233 6.194 0 11.233 5.04 11.233 11.233 0 6.194-5.039 11.232-11.233 11.232Zm11.188-15.958a12.1 12.1 0 0 0-2.602-3.86A12.105 12.105 0 0 0 275 9.858a12.104 12.104 0 0 0-8.586 3.556A12.102 12.102 0 0 0 262.858 22a12.1 12.1 0 0 0 3.556 8.586A12.096 12.096 0 0 0 275 34.141a12.098 12.098 0 0 0 8.586-3.557A12.097 12.097 0 0 0 287.142 22a12.07 12.07 0 0 0-.954-4.726Z"/>
<path fill="#243A4A" d="M275 37.09a15.027 15.027 0 0 1-9.531-3.4 15.219 15.219 0 0 1-1.713-1.636A15.021 15.021 0 0 1 259.91 22c0-8.32 6.77-15.09 15.091-15.09a15.022 15.022 0 0 1 10.054 3.846 15.235 15.235 0 0 1 3.19 4.016 15.036 15.036 0 0 1 1.153 2.702c.45 1.43.694 2.95.694 4.526 0 8.32-6.77 15.09-15.09 15.09Zm15.12-20.338a15.847 15.847 0 0 0-1.203-2.652 16.129 16.129 0 0 0-2.603-3.414 16.2 16.2 0 0 0-2.368-1.953 16.011 16.011 0 0 0-3.198-1.67A15.908 15.908 0 0 0 275 6a15.898 15.898 0 0 0-8.946 2.733 16.116 16.116 0 0 0-4.321 4.321A15.9 15.9 0 0 0 259 22a15.908 15.908 0 0 0 2.733 8.946 16.082 16.082 0 0 0 7.039 5.796A15.915 15.915 0 0 0 275 38a15.898 15.898 0 0 0 8.946-2.733 16.122 16.122 0 0 0 4.321-4.321A15.897 15.897 0 0 0 291 22a15.91 15.91 0 0 0-.88-5.248Z"/>
<path fill="#243A4A" fill-rule="nonzero" d="m269.667 27.492.644-1.786c.254-.132.444-.278.57-.438.128-.16.252-.4.373-.72l.512-1.438h-.876l.645-1.785h.893l1.124-3.125c.518-1.378 1.543-2.067 3.075-2.067h1.72c.837 0 1.43.262 1.777.786.347.523.372 1.193.074 2.008l-.48 1.307h-2.843l.579-1.588c.066-.165.069-.311.008-.438-.06-.126-.168-.19-.322-.19h-.199c-.187 0-.328.044-.421.132-.094.089-.185.254-.273.496l-.976 2.679h2.547l-.662 1.785h-2.546l-.413 1.141c-.199.54-.496.92-.893 1.141h4.745l-.76 2.1h-7.622Z"/>
<path fill="#F2F9FF" d="M246.586 30.585A12.098 12.098 0 0 1 238 34.142a12.097 12.097 0 0 1-8.586-3.557A12.1 12.1 0 0 1 225.858 22a12.102 12.102 0 0 1 3.556-8.586A12.104 12.104 0 0 1 238 9.858a12.105 12.105 0 0 1 8.586 3.556A12.1 12.1 0 0 1 250.142 22a12.097 12.097 0 0 1-3.557 8.586M238 6.91c-8.32 0-15.09 6.77-15.09 15.09s6.77 15.09 15.09 15.09c8.321 0 15.09-6.77 15.09-15.09S246.322 6.91 238 6.91"/>
<path fill="#F2F9FF" d="M248.096 22c0 5.566-4.53 10.095-10.096 10.095S227.905 27.566 227.905 22c0-5.566 4.529-10.095 10.095-10.095 5.567 0 10.096 4.529 10.096 10.095"/>
<path fill="#243A4A" d="M238 33.232c-6.193 0-11.233-5.038-11.233-11.232 0-6.194 5.04-11.233 11.233-11.233 6.194 0 11.233 5.04 11.233 11.233 0 6.194-5.039 11.232-11.233 11.232Zm11.188-15.958a12.1 12.1 0 0 0-2.602-3.86A12.105 12.105 0 0 0 238 9.858a12.104 12.104 0 0 0-8.586 3.556A12.102 12.102 0 0 0 225.858 22a12.1 12.1 0 0 0 3.556 8.586A12.096 12.096 0 0 0 238 34.141a12.098 12.098 0 0 0 8.586-3.557A12.097 12.097 0 0 0 250.142 22a12.07 12.07 0 0 0-.954-4.726Z"/>
<path fill="#243A4A" d="M238 37.09a15.027 15.027 0 0 1-9.531-3.4 15.219 15.219 0 0 1-1.713-1.636A15.021 15.021 0 0 1 222.91 22c0-8.32 6.77-15.09 15.091-15.09a15.022 15.022 0 0 1 10.054 3.846 15.235 15.235 0 0 1 3.19 4.016 15.036 15.036 0 0 1 1.153 2.702c.45 1.43.694 2.95.694 4.526 0 8.32-6.77 15.09-15.09 15.09Zm15.12-20.338a15.847 15.847 0 0 0-1.203-2.652 16.129 16.129 0 0 0-2.603-3.414 16.2 16.2 0 0 0-2.368-1.953 16.011 16.011 0 0 0-3.198-1.67A15.908 15.908 0 0 0 238 6a15.898 15.898 0 0 0-8.946 2.733 16.116 16.116 0 0 0-4.321 4.321A15.9 15.9 0 0 0 222 22a15.908 15.908 0 0 0 2.733 8.946 16.082 16.082 0 0 0 7.039 5.796A15.915 15.915 0 0 0 238 38a15.898 15.898 0 0 0 8.946-2.733 16.122 16.122 0 0 0 4.321-4.321A15.897 15.897 0 0 0 254 22a15.91 15.91 0 0 0-.88-5.248Z"/>
<path fill="#243A4A" fill-rule="nonzero" d="m232.667 27.492.644-1.786c.254-.132.444-.278.57-.438.128-.16.252-.4.373-.72l.512-1.438h-.876l.645-1.785h.893l1.124-3.125c.518-1.378 1.543-2.067 3.075-2.067h1.72c.837 0 1.43.262 1.777.786.347.523.372 1.193.074 2.008l-.48 1.307h-2.843l.579-1.588c.066-.165.069-.311.008-.438-.06-.126-.168-.19-.322-.19h-.199c-.187 0-.328.044-.421.132-.094.089-.185.254-.273.496l-.976 2.679h2.547l-.662 1.785h-2.546l-.413 1.141c-.199.54-.496.92-.893 1.141h4.745l-.76 2.1h-7.622Z"/>
<path fill="#F2F9FF" d="M209.586 30.585A12.098 12.098 0 0 1 201 34.142a12.097 12.097 0 0 1-8.586-3.557A12.1 12.1 0 0 1 188.858 22a12.102 12.102 0 0 1 3.556-8.586A12.104 12.104 0 0 1 201 9.858a12.105 12.105 0 0 1 8.586 3.556A12.1 12.1 0 0 1 213.142 22a12.097 12.097 0 0 1-3.557 8.586M201 6.91c-8.32 0-15.09 6.77-15.09 15.09s6.77 15.09 15.09 15.09c8.321 0 15.09-6.77 15.09-15.09S209.322 6.91 201 6.91"/>
<path fill="#F2F9FF" d="M211.096 22c0 5.566-4.53 10.095-10.096 10.095S190.905 27.566 190.905 22c0-5.566 4.529-10.095 10.095-10.095 5.567 0 10.096 4.529 10.096 10.095"/>
<path fill="#243A4A" d="M201 33.232c-6.193 0-11.233-5.038-11.233-11.232 0-6.194 5.04-11.233 11.233-11.233 6.194 0 11.233 5.04 11.233 11.233 0 6.194-5.039 11.232-11.233 11.232Zm11.188-15.958a12.1 12.1 0 0 0-2.602-3.86A12.105 12.105 0 0 0 201 9.858a12.104 12.104 0 0 0-8.586 3.556A12.102 12.102 0 0 0 188.858 22a12.1 12.1 0 0 0 3.556 8.586A12.096 12.096 0 0 0 201 34.141a12.098 12.098 0 0 0 8.586-3.557A12.097 12.097 0 0 0 213.142 22a12.07 12.07 0 0 0-.954-4.726Z"/>
<path fill="#243A4A" d="M201 37.09a15.027 15.027 0 0 1-9.531-3.4 15.219 15.219 0 0 1-1.713-1.636A15.021 15.021 0 0 1 185.91 22c0-8.32 6.77-15.09 15.091-15.09a15.022 15.022 0 0 1 10.054 3.846 15.235 15.235 0 0 1 3.19 4.016 15.036 15.036 0 0 1 1.153 2.702c.45 1.43.694 2.95.694 4.526 0 8.32-6.77 15.09-15.09 15.09Zm15.12-20.338a15.847 15.847 0 0 0-1.203-2.652 16.129 16.129 0 0 0-2.603-3.414 16.2 16.2 0 0 0-2.368-1.953 16.011 16.011 0 0 0-3.198-1.67A15.908 15.908 0 0 0 201 6a15.898 15.898 0 0 0-8.946 2.733 16.116 16.116 0 0 0-4.321 4.321A15.9 15.9 0 0 0 185 22a15.908 15.908 0 0 0 2.733 8.946 16.082 16.082 0 0 0 7.039 5.796A15.915 15.915 0 0 0 201 38a15.898 15.898 0 0 0 8.946-2.733 16.122 16.122 0 0 0 4.321-4.321A15.897 15.897 0 0 0 217 22a15.91 15.91 0 0 0-.88-5.248Z"/>
<path fill="#243A4A" fill-rule="nonzero" d="m195.667 27.492.644-1.786c.254-.132.444-.278.57-.438.128-.16.252-.4.373-.72l.512-1.438h-.876l.645-1.785h.893l1.124-3.125c.518-1.378 1.543-2.067 3.075-2.067h1.72c.837 0 1.43.262 1.777.786.347.523.372 1.193.074 2.008l-.48 1.307h-2.843l.579-1.588c.066-.165.069-.311.008-.438-.06-.126-.168-.19-.322-.19h-.199c-.187 0-.328.044-.421.132-.094.089-.185.254-.273.496l-.976 2.679h2.547l-.662 1.785h-2.546l-.413 1.141c-.199.54-.496.92-.893 1.141h4.745l-.76 2.1h-7.622Z"/>
<path fill="#F2F9FF" d="M172.586 30.585A12.098 12.098 0 0 1 164 34.142a12.097 12.097 0 0 1-8.586-3.557A12.1 12.1 0 0 1 151.858 22a12.102 12.102 0 0 1 3.556-8.586A12.104 12.104 0 0 1 164 9.858a12.105 12.105 0 0 1 8.586 3.556A12.1 12.1 0 0 1 176.142 22a12.097 12.097 0 0 1-3.557 8.586M164 6.91c-8.32 0-15.09 6.77-15.09 15.09s6.77 15.09 15.09 15.09c8.321 0 15.09-6.77 15.09-15.09S172.322 6.91 164 6.91"/>
<path fill="#F2F9FF" d="M174.096 22c0 5.566-4.53 10.095-10.096 10.095S153.905 27.566 153.905 22c0-5.566 4.529-10.095 10.095-10.095 5.567 0 10.096 4.529 10.096 10.095"/>
<path fill="#243A4A" d="M164 33.232c-6.193 0-11.233-5.038-11.233-11.232 0-6.194 5.04-11.233 11.233-11.233 6.194 0 11.233 5.04 11.233 11.233 0 6.194-5.039 11.232-11.233 11.232Zm11.188-15.958a12.1 12.1 0 0 0-2.602-3.86A12.105 12.105 0 0 0 164 9.858a12.104 12.104 0 0 0-8.586 3.556A12.102 12.102 0 0 0 151.858 22a12.1 12.1 0 0 0 3.556 8.586A12.096 12.096 0 0 0 164 34.141a12.098 12.098 0 0 0 8.586-3.557A12.097 12.097 0 0 0 176.142 22a12.07 12.07 0 0 0-.954-4.726Z"/>
<path fill="#243A4A" d="M164 37.09a15.027 15.027 0 0 1-9.531-3.4 15.219 15.219 0 0 1-1.713-1.636A15.021 15.021 0 0 1 148.91 22c0-8.32 6.77-15.09 15.091-15.09a15.022 15.022 0 0 1 10.054 3.846 15.235 15.235 0 0 1 3.19 4.016 15.036 15.036 0 0 1 1.153 2.702c.45 1.43.694 2.95.694 4.526 0 8.32-6.77 15.09-15.09 15.09Zm15.12-20.338a15.847 15.847 0 0 0-1.203-2.652 16.129 16.129 0 0 0-2.603-3.414 16.2 16.2 0 0 0-2.368-1.953 16.011 16.011 0 0 0-3.198-1.67A15.908 15.908 0 0 0 164 6a15.898 15.898 0 0 0-8.946 2.733 16.116 16.116 0 0 0-4.321 4.321A15.9 15.9 0 0 0 148 22a15.908 15.908 0 0 0 2.733 8.946 16.082 16.082 0 0 0 7.039 5.796A15.915 15.915 0 0 0 164 38a15.898 15.898 0 0 0 8.946-2.733 16.122 16.122 0 0 0 4.321-4.321A15.897 15.897 0 0 0 180 22a15.91 15.91 0 0 0-.88-5.248Z"/>
<path fill="#243A4A" fill-rule="nonzero" d="m158.667 27.492.644-1.786c.254-.132.444-.278.57-.438.128-.16.252-.4.373-.72l.512-1.438h-.876l.645-1.785h.893l1.124-3.125c.518-1.378 1.543-2.067 3.075-2.067h1.72c.837 0 1.43.262 1.777.786.347.523.372 1.193.074 2.008l-.48 1.307h-2.843l.579-1.588c.066-.165.069-.311.008-.438-.06-.126-.168-.19-.322-.19h-.199c-.187 0-.328.044-.421.132-.094.089-.185.254-.273.496l-.976 2.679h2.547l-.662 1.785h-2.546l-.413 1.141c-.199.54-.496.92-.893 1.141h4.745l-.76 2.1h-7.622Z"/>
<path fill="#F2F9FF" d="M135.586 30.585A12.098 12.098 0 0 1 127 34.142a12.097 12.097 0 0 1-8.586-3.557A12.1 12.1 0 0 1 114.858 22a12.102 12.102 0 0 1 3.556-8.586A12.104 12.104 0 0 1 127 9.858a12.105 12.105 0 0 1 8.586 3.556A12.1 12.1 0 0 1 139.142 22a12.097 12.097 0 0 1-3.557 8.586M127 6.91c-8.32 0-15.09 6.77-15.09 15.09s6.77 15.09 15.09 15.09c8.321 0 15.09-6.77 15.09-15.09S135.322 6.91 127 6.91"/>
<path fill="#F2F9FF" d="M137.096 22c0 5.566-4.53 10.095-10.096 10.095S116.905 27.566 116.905 22c0-5.566 4.529-10.095 10.095-10.095 5.567 0 10.096 4.529 10.096 10.095"/>
<path fill="#243A4A" d="M127 33.232c-6.193 0-11.233-5.038-11.233-11.232 0-6.194 5.04-11.233 11.233-11.233 6.194 0 11.233 5.04 11.233 11.233 0 6.194-5.039 11.232-11.233 11.232Zm11.188-15.958a12.1 12.1 0 0 0-2.602-3.86A12.105 12.105 0 0 0 127 9.858a12.104 12.104 0 0 0-8.586 3.556A12.102 12.102 0 0 0 114.858 22a12.1 12.1 0 0 0 3.556 8.586A12.096 12.096 0 0 0 127 34.141a12.098 12.098 0 0 0 8.586-3.557A12.097 12.097 0 0 0 139.142 22a12.07 12.07 0 0 0-.954-4.726Z"/>
<path fill="#243A4A" d="M127 37.09a15.027 15.027 0 0 1-9.531-3.4 15.219 15.219 0 0 1-1.713-1.636A15.021 15.021 0 0 1 111.91 22c0-8.32 6.77-15.09 15.091-15.09a15.022 15.022 0 0 1 10.054 3.846 15.235 15.235 0 0 1 3.19 4.016 15.036 15.036 0 0 1 1.153 2.702c.45 1.43.694 2.95.694 4.526 0 8.32-6.77 15.09-15.09 15.09Zm15.12-20.338a15.847 15.847 0 0 0-1.203-2.652 16.129 16.129 0 0 0-2.603-3.414 16.2 16.2 0 0 0-2.368-1.953 16.011 16.011 0 0 0-3.198-1.67A15.908 15.908 0 0 0 127 6a15.898 15.898 0 0 0-8.946 2.733 16.116 16.116 0 0 0-4.321 4.321A15.9 15.9 0 0 0 111 22a15.908 15.908 0 0 0 2.733 8.946 16.082 16.082 0 0 0 7.039 5.796A15.915 15.915 0 0 0 127 38a15.898 15.898 0 0 0 8.946-2.733 16.122 16.122 0 0 0 4.321-4.321A15.897 15.897 0 0 0 143 22a15.91 15.91 0 0 0-.88-5.248Z"/>
<path fill="#243A4A" fill-rule="nonzero" d="m121.667 27.492.644-1.786c.254-.132.444-.278.57-.438.128-.16.252-.4.373-.72l.512-1.438h-.876l.645-1.785h.893l1.124-3.125c.518-1.378 1.543-2.067 3.075-2.067h1.72c.837 0 1.43.262 1.777.786.347.523.372 1.193.074 2.008l-.48 1.307h-2.843l.579-1.588c.066-.165.069-.311.008-.438-.06-.126-.168-.19-.322-.19h-.199c-.187 0-.328.044-.421.132-.094.089-.185.254-.273.496l-.976 2.679h2.547l-.662 1.785h-2.546l-.413 1.141c-.199.54-.496.92-.893 1.141h4.745l-.76 2.1h-7.622Z"/>
<path fill="#F2F9FF" d="M98.586 30.585A12.098 12.098 0 0 1 90 34.142a12.097 12.097 0 0 1-8.586-3.557A12.1 12.1 0 0 1 77.858 22a12.102 12.102 0 0 1 3.556-8.586A12.104 12.104 0 0 1 90 9.858a12.105 12.105 0 0 1 8.586 3.556A12.1 12.1 0 0 1 102.142 22a12.097 12.097 0 0 1-3.557 8.586M90 6.91c-8.32 0-15.09 6.77-15.09 15.09S81.68 37.09 90 37.09c8.321 0 15.09-6.77 15.09-15.09S98.322 6.91 90 6.91"/>
<path fill="#F2F9FF" d="M100.096 22c0 5.566-4.53 10.095-10.096 10.095S79.905 27.566 79.905 22c0-5.566 4.529-10.095 10.095-10.095 5.567 0 10.096 4.529 10.096 10.095"/>
<path fill="#243A4A" d="M90 33.232c-6.193 0-11.233-5.038-11.233-11.232 0-6.194 5.04-11.233 11.233-11.233 6.194 0 11.233 5.04 11.233 11.233 0 6.194-5.039 11.232-11.233 11.232Zm11.188-15.958a12.1 12.1 0 0 0-2.602-3.86A12.105 12.105 0 0 0 90 9.858a12.104 12.104 0 0 0-8.586 3.556A12.102 12.102 0 0 0 77.858 22a12.1 12.1 0 0 0 3.556 8.586A12.096 12.096 0 0 0 90 34.141a12.098 12.098 0 0 0 8.586-3.557A12.097 12.097 0 0 0 102.142 22a12.07 12.07 0 0 0-.954-4.726Z"/>
<path fill="#243A4A" d="M90 37.09a15.027 15.027 0 0 1-9.531-3.4 15.219 15.219 0 0 1-1.713-1.636A15.021 15.021 0 0 1 74.91 22c0-8.32 6.77-15.09 15.091-15.09a15.022 15.022 0 0 1 10.054 3.846 15.235 15.235 0 0 1 3.19 4.016 15.036 15.036 0 0 1 1.153 2.702c.45 1.43.694 2.95.694 4.526 0 8.32-6.77 15.09-15.09 15.09Zm15.12-20.338a15.847 15.847 0 0 0-1.203-2.652 16.129 16.129 0 0 0-2.603-3.414 16.2 16.2 0 0 0-2.368-1.953 16.011 16.011 0 0 0-3.198-1.67A15.908 15.908 0 0 0 90 6a15.898 15.898 0 0 0-8.946 2.733 16.116 16.116 0 0 0-4.321 4.321A15.9 15.9 0 0 0 74 22a15.908 15.908 0 0 0 2.733 8.946 16.082 16.082 0 0 0 7.039 5.796A15.915 15.915 0 0 0 90 38a15.898 15.898 0 0 0 8.946-2.733 16.122 16.122 0 0 0 4.321-4.321A15.897 15.897 0 0 0 106 22a15.91 15.91 0 0 0-.88-5.248Z"/>
<path fill="#243A4A" fill-rule="nonzero" d="m84.667 27.492.644-1.786c.254-.132.444-.278.57-.438.128-.16.252-.4.373-.72l.512-1.438h-.876l.645-1.785h.893l1.124-3.125c.518-1.378 1.543-2.067 3.075-2.067h1.72c.837 0 1.43.262 1.777.786.347.523.372 1.193.074 2.008l-.48 1.307h-2.843l.579-1.588c.066-.165.069-.311.008-.438-.06-.126-.168-.19-.322-.19h-.199c-.187 0-.328.044-.421.132-.094.089-.185.254-.273.496l-.976 2.679h2.547l-.662 1.785H89.61l-.413 1.141c-.199.54-.496.92-.893 1.141h4.745l-.76 2.1h-7.622Z"/>
<path fill="#F2F9FF" d="M61.586 30.585A12.098 12.098 0 0 1 53 34.142a12.097 12.097 0 0 1-8.586-3.557A12.1 12.1 0 0 1 40.858 22a12.102 12.102 0 0 1 3.556-8.586A12.104 12.104 0 0 1 53 9.858a12.105 12.105 0 0 1 8.586 3.556A12.1 12.1 0 0 1 65.142 22a12.097 12.097 0 0 1-3.557 8.586M53 6.91c-8.32 0-15.09 6.77-15.09 15.09S44.68 37.09 53 37.09c8.321 0 15.09-6.77 15.09-15.09S61.322 6.91 53 6.91"/>
<path fill="#F2F9FF" d="M63.096 22c0 5.566-4.53 10.095-10.096 10.095S42.905 27.566 42.905 22c0-5.566 4.529-10.095 10.095-10.095 5.567 0 10.096 4.529 10.096 10.095"/>
<path fill="#243A4A" d="M53 33.232c-6.193 0-11.233-5.038-11.233-11.232 0-6.194 5.04-11.233 11.233-11.233 6.194 0 11.233 5.04 11.233 11.233 0 6.194-5.039 11.232-11.233 11.232Zm11.188-15.958a12.1 12.1 0 0 0-2.602-3.86A12.105 12.105 0 0 0 53 9.858a12.104 12.104 0 0 0-8.586 3.556A12.102 12.102 0 0 0 40.858 22a12.1 12.1 0 0 0 3.556 8.586A12.096 12.096 0 0 0 53 34.141a12.098 12.098 0 0 0 8.586-3.557A12.097 12.097 0 0 0 65.142 22a12.07 12.07 0 0 0-.954-4.726Z"/>
<path fill="#243A4A" d="M53 37.09a15.027 15.027 0 0 1-9.531-3.4 15.219 15.219 0 0 1-1.713-1.636A15.021 15.021 0 0 1 37.91 22c0-8.32 6.77-15.09 15.091-15.09a15.022 15.022 0 0 1 10.054 3.846 15.235 15.235 0 0 1 3.19 4.016 15.036 15.036 0 0 1 1.153 2.702c.45 1.43.694 2.95.694 4.526 0 8.32-6.77 15.09-15.09 15.09Zm15.12-20.338a15.847 15.847 0 0 0-1.203-2.652 16.129 16.129 0 0 0-2.603-3.414 16.2 16.2 0 0 0-2.368-1.953 16.011 16.011 0 0 0-3.198-1.67A15.908 15.908 0 0 0 53 6a15.898 15.898 0 0 0-8.946 2.733 16.116 16.116 0 0 0-4.321 4.321A15.9 15.9 0 0 0 37 22a15.908 15.908 0 0 0 2.733 8.946 16.082 16.082 0 0 0 7.039 5.796A15.915 15.915 0 0 0 53 38a15.898 15.898 0 0 0 8.946-2.733 16.122 16.122 0 0 0 4.321-4.321A15.897 15.897 0 0 0 69 22a15.91 15.91 0 0 0-.88-5.248Z"/>
<path fill="#243A4A" fill-rule="nonzero" d="m47.667 27.492.644-1.786c.254-.132.444-.278.57-.438.128-.16.252-.4.373-.72l.512-1.438h-.876l.645-1.785h.893l1.124-3.125c.518-1.378 1.543-2.067 3.075-2.067h1.72c.837 0 1.43.262 1.777.786.347.523.372 1.193.074 2.008l-.48 1.307h-2.843l.579-1.588c.066-.165.069-.311.008-.438-.06-.126-.168-.19-.322-.19h-.199c-.187 0-.328.044-.421.132-.094.089-.185.254-.273.496l-.976 2.679h2.547l-.662 1.785H52.61l-.413 1.141c-.199.54-.496.92-.893 1.141h4.745l-.76 2.1h-7.622Z"/>
<path fill="#F2F9FF" d="M24.586 30.585A12.098 12.098 0 0 1 16 34.142a12.097 12.097 0 0 1-8.586-3.557A12.1 12.1 0 0 1 3.858 22a12.102 12.102 0 0 1 3.556-8.586A12.104 12.104 0 0 1 16 9.858a12.105 12.105 0 0 1 8.586 3.556A12.1 12.1 0 0 1 28.142 22a12.097 12.097 0 0 1-3.557 8.586M16 6.91C7.68 6.91.91 13.68.91 22S7.68 37.09 16 37.09c8.321 0 15.09-6.77 15.09-15.09S24.322 6.91 16 6.91"/>
<path fill="#F2F9FF" d="M26.096 22c0 5.566-4.53 10.095-10.096 10.095S5.905 27.566 5.905 22c0-5.566 4.529-10.095 10.095-10.095 5.567 0 10.096 4.529 10.096 10.095"/>
<path fill="#243A4A" d="M16 33.232C9.807 33.232 4.767 28.194 4.767 22c0-6.194 5.04-11.233 11.233-11.233 6.194 0 11.233 5.04 11.233 11.233 0 6.194-5.039 11.232-11.233 11.232Zm11.188-15.958a12.1 12.1 0 0 0-2.602-3.86A12.105 12.105 0 0 0 16 9.858a12.104 12.104 0 0 0-8.586 3.556A12.102 12.102 0 0 0 3.858 22a12.1 12.1 0 0 0 3.556 8.586A12.096 12.096 0 0 0 16 34.141a12.098 12.098 0 0 0 8.586-3.557A12.097 12.097 0 0 0 28.142 22a12.07 12.07 0 0 0-.954-4.726Z"/>
<path fill="#243A4A" d="M16 37.09a15.027 15.027 0 0 1-9.531-3.4 15.219 15.219 0 0 1-1.713-1.636A15.021 15.021 0 0 1 .91 22C.91 13.68 7.68 6.91 16 6.91a15.022 15.022 0 0 1 10.054 3.846 15.235 15.235 0 0 1 3.19 4.016 15.036 15.036 0 0 1 1.153 2.702c.45 1.43.694 2.95.694 4.526 0 8.32-6.77 15.09-15.09 15.09Zm15.12-20.338a15.847 15.847 0 0 0-1.203-2.652 16.129 16.129 0 0 0-2.603-3.414 16.2 16.2 0 0 0-2.368-1.953 16.011 16.011 0 0 0-3.198-1.67A15.908 15.908 0 0 0 16 6a15.898 15.898 0 0 0-8.946 2.733 16.116 16.116 0 0 0-4.321 4.321A15.9 15.9 0 0 0 0 22a15.908 15.908 0 0 0 2.733 8.946 16.082 16.082 0 0 0 7.039 5.796A15.915 15.915 0 0 0 16 38a15.898 15.898 0 0 0 8.946-2.733 16.122 16.122 0 0 0 4.321-4.321A15.897 15.897 0 0 0 32 22a15.91 15.91 0 0 0-.88-5.248Z"/>
<path fill="#243A4A" fill-rule="nonzero" d="m10.667 27.492.644-1.786c.254-.132.444-.278.57-.438.128-.16.252-.4.373-.72l.512-1.438h-.876l.645-1.785h.893l1.124-3.125c.518-1.378 1.543-2.067 3.075-2.067h1.72c.837 0 1.43.262 1.777.786.347.523.372 1.193.074 2.008l-.48 1.307h-2.843l.579-1.588c.066-.165.069-.311.008-.438-.06-.126-.168-.19-.322-.19h-.199c-.187 0-.328.044-.421.132-.094.089-.185.254-.273.496l-.976 2.679h2.547l-.662 1.785H15.61l-.413 1.141c-.199.54-.496.92-.893 1.141h4.745l-.76 2.1h-7.622Z"/>
<path fill="#FFF" d="M107 0h270v45H107z" opacity=".751"/>
</g>
</svg>