<svg xmlns="http://www.w3.org/2000/svg" viewBox="0 0 701 300">

<g fill="none" fill-rule="evenodd">

<path fill="#F2F9FF" d="M682.136 255.85v5.299c0 1.657-1.377 3.006-3.071 3.006h-48.13c-1.693 0-3.071-1.35-3.071-3.006v-5.299c0-1.657 1.378-3.005 3.071-3.005h48.13c1.694 0 3.071 1.348 3.071 3.005"/>

<path fill="#FFF" d="M633.04 264.155h6.32v-11.31h-6.32z"/>

<path fill="#B8CAD9" d="M663.933 264.155h11.011v-11.31h-11.011z"/>

<path fill="#2D3C53" d="M630.935 253.69c-1.217 0-2.207.97-2.207 2.16v5.299c0 1.19.99 2.16 2.207 2.16h48.13c1.217 0 2.207-.97 2.207-2.16v-5.299c0-1.19-.99-2.16-2.207-2.16h-48.13Zm48.13 11.31h-48.13c-2.17 0-3.935-1.728-3.935-3.851v-5.299c0-2.123 1.765-3.85 3.935-3.85h48.13c2.17 0 3.935 1.727 3.935 3.85v5.299c0 2.123-1.764 3.851-3.935 3.851Z"/>

<path fill="#F2F9FF" d="M682.136 242.85v5.299c0 1.657-1.377 3.006-3.071 3.006h-48.13c-1.693 0-3.071-1.35-3.071-3.006v-5.299c0-1.657 1.378-3.005 3.071-3.005h48.13c1.694 0 3.071 1.348 3.071 3.005"/>

<path fill="#FFF" d="M633.04 251.155h6.32v-11.31h-6.32z"/>

<path fill="#B8CAD9" d="M663.933 251.155h11.011v-11.31h-11.011z"/>

<path fill="#2D3C53" d="M630.935 240.69c-1.217 0-2.207.97-2.207 2.16v5.299c0 1.19.99 2.16 2.207 2.16h48.13c1.217 0 2.207-.97 2.207-2.16v-5.299c0-1.19-.99-2.16-2.207-2.16h-48.13Zm48.13 11.31h-48.13c-2.17 0-3.935-1.728-3.935-3.851v-5.299c0-2.123 1.765-3.85 3.935-3.85h48.13c2.17 0 3.935 1.727 3.935 3.85v5.299c0 2.123-1.764 3.851-3.935 3.851Z"/>

<path fill="#F2F9FF" d="M682.136 229.85v5.299c0 1.657-1.377 3.006-3.071 3.006h-48.13c-1.693 0-3.071-1.35-3.071-3.006v-5.299c0-1.657 1.378-3.005 3.071-3.005h48.13c1.694 0 3.071 1.348 3.071 3.005"/>

<path fill="#FFF" d="M633.04 238.155h6.32v-11.31h-6.32z"/>

<path fill="#B8CAD9" d="M663.933 238.155h11.011v-11.31h-11.011z"/>

<path fill="#2D3C53" d="M630.935 227.69c-1.217 0-2.207.97-2.207 2.16v5.299c0 1.19.99 2.16 2.207 2.16h48.13c1.217 0 2.207-.97 2.207-2.16v-5.299c0-1.19-.99-2.16-2.207-2.16h-48.13Zm48.13 11.31h-48.13c-2.17 0-3.935-1.728-3.935-3.851v-5.299c0-2.123 1.765-3.85 3.935-3.85h48.13c2.17 0 3.935 1.727 3.935 3.85v5.299c0 2.123-1.764 3.851-3.935 3.851Z"/>

<path fill="#F2F9FF" d="M682.136 216.85v5.299c0 1.657-1.377 3.006-3.071 3.006h-48.13c-1.693 0-3.071-1.35-3.071-3.006v-5.299c0-1.657 1.378-3.005 3.071-3.005h48.13c1.694 0 3.071 1.348 3.071 3.005"/>

<path fill="#FFF" d="M633.04 225.155h6.32v-11.31h-6.32z"/>

<path fill="#B8CAD9" d="M663.933 225.155h11.011v-11.31h-11.011z"/>

<path fill="#2D3C53" d="M630.935 214.69c-1.217 0-2.207.97-2.207 2.16v5.299c0 1.19.99 2.16 2.207 2.16h48.13c1.217 0 2.207-.97 2.207-2.16v-5.299c0-1.19-.99-2.16-2.207-2.16h-48.13Zm48.13 11.31h-48.13c-2.17 0-3.935-1.728-3.935-3.851v-5.299c0-2.123 1.765-3.85 3.935-3.85h48.13c2.17 0 3.935 1.727 3.935 3.85v5.299c0 2.123-1.764 3.851-3.935 3.851Z"/>

<path fill="#F2F9FF" d="M682.136 203.85v5.299c0 1.657-1.377 3.006-3.071 3.006h-48.13c-1.693 0-3.071-1.35-3.071-3.006v-5.299c0-1.657 1.378-3.005 3.071-3.005h48.13c1.694 0 3.071 1.348 3.071 3.005"/>

<path fill="#FFF" d="M633.04 212.155h6.32v-11.31h-6.32z"/>

<path fill="#B8CAD9" d="M663.933 212.155h11.011v-11.31h-11.011z"/>

<path fill="#2D3C53" d="M630.935 201.69c-1.217 0-2.207.97-2.207 2.16v5.299c0 1.19.99 2.16 2.207 2.16h48.13c1.217 0 2.207-.97 2.207-2.16v-5.299c0-1.19-.99-2.16-2.207-2.16h-48.13Zm48.13 11.31h-48.13c-2.17 0-3.935-1.728-3.935-3.851v-5.299c0-2.123 1.765-3.85 3.935-3.85h48.13c2.17 0 3.935 1.727 3.935 3.85v5.299c0 2.123-1.764 3.851-3.935 3.851Z"/>

<path fill="#F2F9FF" d="M682.136 190.85v5.299c0 1.657-1.377 3.006-3.071 3.006h-48.13c-1.693 0-3.071-1.35-3.071-3.006v-5.299c0-1.657 1.378-3.005 3.071-3.005h48.13c1.694 0 3.071 1.348 3.071 3.005"/>

<path fill="#FFF" d="M633.04 199.155h6.32v-11.31h-6.32z"/>

<path fill="#B8CAD9" d="M663.933 199.155h11.011v-11.31h-11.011z"/>

<path fill="#2D3C53" d="M630.935 188.69c-1.217 0-2.207.97-2.207 2.16v5.299c0 1.19.99 2.16 2.207 2.16h48.13c1.217 0 2.207-.97 2.207-2.16v-5.299c0-1.19-.99-2.16-2.207-2.16h-48.13Zm48.13 11.31h-48.13c-2.17 0-3.935-1.728-3.935-3.851v-5.299c0-2.123 1.765-3.85 3.935-3.85h48.13c2.17 0 3.935 1.727 3.935 3.85v5.299c0 2.123-1.764 3.851-3.935 3.851Z"/>

<path fill="#F2F9FF" d="M682.136 177.85v5.299c0 1.657-1.377 3.006-3.071 3.006h-48.13c-1.693 0-3.071-1.35-3.071-3.006v-5.299c0-1.657 1.378-3.005 3.071-3.005h48.13c1.694 0 3.071 1.348 3.071 3.005"/>

<path fill="#FFF" d="M633.04 186.155h6.32v-11.31h-6.32z"/>

<path fill="#B8CAD9" d="M663.933 186.155h11.011v-11.31h-11.011z"/>

<path fill="#2D3C53" d="M630.935 175.69c-1.217 0-2.207.97-2.207 2.16v5.299c0 1.19.99 2.16 2.207 2.16h48.13c1.217 0 2.207-.97 2.207-2.16v-5.299c0-1.19-.99-2.16-2.207-2.16h-48.13Zm48.13 11.31h-48.13c-2.17 0-3.935-1.728-3.935-3.851v-5.299c0-2.123 1.765-3.85 3.935-3.85h48.13c2.17 0 3.935 1.727 3.935 3.85v5.299c0 2.123-1.764 3.851-3.935 3.851Z"/>

<path fill="#F2F9FF" d="M682.136 164.85v5.299c0 1.657-1.377 3.006-3.071 3.006h-48.13c-1.693 0-3.071-1.35-3.071-3.006v-5.299c0-1.657 1.378-3.005 3.071-3.005h48.13c1.694 0 3.071 1.348 3.071 3.005"/>

<path fill="#FFF" d="M633.04 173.155h6.32v-11.31h-6.32z"/>

<path fill="#B8CAD9" d="M663.933 173.155h11.011v-11.31h-11.011z"/>

<path fill="#2D3C53" d="M630.935 162.69c-1.217 0-2.207.97-2.207 2.16v5.299c0 1.19.99 2.16 2.207 2.16h48.13c1.217 0 2.207-.97 2.207-2.16v-5.299c0-1.19-.99-2.16-2.207-2.16h-48.13Zm48.13 11.31h-48.13c-2.17 0-3.935-1.728-3.935-3.851v-5.299c0-2.123 1.765-3.85 3.935-3.85h48.13c2.17 0 3.935 1.727 3.935 3.85v5.299c0 2.123-1.764 3.851-3.935 3.851Z"/>

<path fill="#F2F9FF" d="M682.136 151.85v5.299c0 1.657-1.377 3.006-3.071 3.006h-48.13c-1.693 0-3.071-1.35-3.071-3.006v-5.299c0-1.657 1.378-3.005 3.071-3.005h48.13c1.694 0 3.071 1.348 3.071 3.005"/>

<path fill="#FFF" d="M633.04 160.155h6.32v-11.31h-6.32z"/>

<path fill="#B8CAD9" d="M663.933 160.155h11.011v-11.31h-11.011z"/>

<path fill="#2D3C53" d="M630.935 149.69c-1.217 0-2.207.97-2.207 2.16v5.299c0 1.19.99 2.16 2.207 2.16h48.13c1.217 0 2.207-.97 2.207-2.16v-5.299c0-1.19-.99-2.16-2.207-2.16h-48.13Zm48.13 11.31h-48.13c-2.17 0-3.935-1.728-3.935-3.851v-5.299c0-2.123 1.765-3.85 3.935-3.85h48.13c2.17 0 3.935 1.727 3.935 3.85v5.299c0 2.123-1.764 3.851-3.935 3.851Z"/>

<path fill="#F2F9FF" d="M682.136 138.85v5.299c0 1.657-1.377 3.006-3.071 3.006h-48.13c-1.693 0-3.071-1.35-3.071-3.006v-5.299c0-1.657 1.378-3.005 3.071-3.005h48.13c1.694 0 3.071 1.348 3.071 3.005"/>

<path fill="#FFF" d="M633.04 147.155h6.32v-11.31h-6.32z"/>

<path fill="#B8CAD9" d="M663.933 147.155h11.011v-11.31h-11.011z"/>

<path fill="#2D3C53" d="M630.935 136.69c-1.217 0-2.207.97-2.207 2.16v5.299c0 1.19.99 2.16 2.207 2.16h48.13c1.217 0 2.207-.97 2.207-2.16v-5.299c0-1.19-.99-2.16-2.207-2.16h-48.13Zm48.13 11.31h-48.13c-2.17 0-3.935-1.728-3.935-3.851v-5.299c0-2.123 1.765-3.85 3.935-3.85h48.13c2.17 0 3.935 1.727 3.935 3.85v5.299c0 2.123-1.764 3.851-3.935 3.851Z"/>

<path fill="#F2F9FF" d="M682.136 125.85v5.299c0 1.657-1.377 3.006-3.071 3.006h-48.13c-1.693 0-3.071-1.35-3.071-3.006v-5.299c0-1.657 1.378-3.005 3.071-3.005h48.13c1.694 0 3.071 1.348 3.071 3.005"/>

<path fill="#FFF" d="M633.04 134.155h6.32v-11.31h-6.32z"/>

<path fill="#B8CAD9" d="M663.933 134.155h11.011v-11.31h-11.011z"/>

<path fill="#2D3C53" d="M630.935 123.69c-1.217 0-2.207.97-2.207 2.16v5.299c0 1.19.99 2.16 2.207 2.16h48.13c1.217 0 2.207-.97 2.207-2.16v-5.299c0-1.19-.99-2.16-2.207-2.16h-48.13Zm48.13 11.31h-48.13c-2.17 0-3.935-1.728-3.935-3.851v-5.299c0-2.123 1.765-3.85 3.935-3.85h48.13c2.17 0 3.935 1.727 3.935 3.85v5.299c0 2.123-1.764 3.851-3.935 3.851Z"/>

<path fill="#F2F9FF" d="M682.136 112.85v5.299c0 1.657-1.377 3.006-3.071 3.006h-48.13c-1.693 0-3.071-1.35-3.071-3.006v-5.299c0-1.657 1.378-3.005 3.071-3.005h48.13c1.694 0 3.071 1.348 3.071 3.005"/>

<path fill="#FFF" d="M633.04 121.155h6.32v-11.31h-6.32z"/>

<path fill="#B8CAD9" d="M663.933 121.155h11.011v-11.31h-11.011z"/>

<path fill="#2D3C53" d="M630.935 110.69c-1.217 0-2.207.97-2.207 2.16v5.299c0 1.19.99 2.16 2.207 2.16h48.13c1.217 0 2.207-.97 2.207-2.16v-5.299c0-1.19-.99-2.16-2.207-2.16h-48.13Zm48.13 11.31h-48.13c-2.17 0-3.935-1.728-3.935-3.851v-5.299c0-2.123 1.765-3.85 3.935-3.85h48.13c2.17 0 3.935 1.727 3.935 3.85v5.299c0 2.123-1.764 3.851-3.935 3.851Z"/>

<path fill="#F2F9FF" d="M682.136 99.85v5.299c0 1.657-1.377 3.006-3.071 3.006h-48.13c-1.693 0-3.071-1.35-3.071-3.006V99.85c0-1.657 1.378-3.005 3.071-3.005h48.13c1.694 0 3.071 1.348 3.071 3.005"/>

<path fill="#FFF" d="M633.04 108.155h6.32v-11.31h-6.32z"/>

<path fill="#B8CAD9" d="M663.933 108.155h11.011v-11.31h-11.011z"/>

<path fill="#2D3C53" d="M630.935 97.69c-1.217 0-2.207.97-2.207 2.16v5.299c0 1.19.99 2.16 2.207 2.16h48.13c1.217 0 2.207-.97 2.207-2.16V99.85c0-1.19-.99-2.16-2.207-2.16h-48.13Zm48.13 11.31h-48.13c-2.17 0-3.935-1.728-3.935-3.851V99.85c0-2.123 1.765-3.85 3.935-3.85h48.13c2.17 0 3.935 1.727 3.935 3.85v5.299c0 2.123-1.764 3.851-3.935 3.851Z"/>

<path fill="#F2F9FF" d="M682.136 86.85v5.299c0 1.657-1.377 3.006-3.071 3.006h-48.13c-1.693 0-3.071-1.35-3.071-3.006V86.85c0-1.657 1.378-3.005 3.071-3.005h48.13c1.694 0 3.071 1.348 3.071 3.005"/>

<path fill="#FFF" d="M633.04 95.155h6.32v-11.31h-6.32z"/>

<path fill="#B8CAD9" d="M663.933 95.155h11.011v-11.31h-11.011z"/>

<path fill="#2D3C53" d="M630.935 84.69c-1.217 0-2.207.97-2.207 2.16v5.299c0 1.19.99 2.16 2.207 2.16h48.13c1.217 0 2.207-.97 2.207-2.16V86.85c0-1.19-.99-2.16-2.207-2.16h-48.13ZM679.065 96h-48.13c-2.17 0-3.935-1.728-3.935-3.851V86.85c0-2.123 1.765-3.85 3.935-3.85h48.13c2.17 0 3.935 1.727 3.935 3.85v5.299c0 2.123-1.764 3.851-3.935 3.851Z"/>

<path fill="#F2F9FF" d="M682.136 73.85v5.299c0 1.657-1.377 3.006-3.071 3.006h-48.13c-1.693 0-3.071-1.35-3.071-3.006V73.85c0-1.657 1.378-3.005 3.071-3.005h48.13c1.694 0 3.071 1.348 3.071 3.005"/>

<path fill="#FFF" d="M633.04 82.155h6.32v-11.31h-6.32z"/>

<path fill="#B8CAD9" d="M663.933 82.155h11.011v-11.31h-11.011z"/>

<path fill="#2D3C53" d="M630.935 71.69c-1.217 0-2.207.97-2.207 2.16v5.299c0 1.19.99 2.16 2.207 2.16h48.13c1.217 0 2.207-.97 2.207-2.16V73.85c0-1.19-.99-2.16-2.207-2.16h-48.13ZM679.065 83h-48.13c-2.17 0-3.935-1.728-3.935-3.851V73.85c0-2.123 1.765-3.85 3.935-3.85h48.13c2.17 0 3.935 1.727 3.935 3.85v5.299c0 2.123-1.764 3.851-3.935 3.851Z"/>

<path fill="#F2F9FF" d="M671.098 57.098A22.683 22.683 0 0 1 655 63.766c-3.073 0-6.055-.602-8.862-1.79a22.682 22.682 0 0 1-7.236-4.878 22.688 22.688 0 0 1-6.668-16.099c0-3.073.602-6.054 1.79-8.86a22.692 22.692 0 0 1 4.878-7.238A22.696 22.696 0 0 1 655 18.234a22.697 22.697 0 0 1 16.098 6.668 22.687 22.687 0 0 1 6.67 16.097 22.682 22.682 0 0 1-6.669 16.098M655 12.707c-15.601 0-28.294 12.693-28.294 28.293 0 15.602 12.693 28.295 28.294 28.295 15.602 0 28.295-12.693 28.295-28.295 0-15.6-12.693-28.293-28.295-28.293"/>

<path fill="#B8CAD9" d="M676.061 41c0 11.613-9.447 21.06-21.06 21.06-11.614 0-21.062-9.447-21.062-21.06S643.387 19.938 655 19.938c11.614 0 21.061 9.448 21.061 21.06"/>

<path fill="#F2F9FF" d="M673.93 41c0 10.437-8.492 18.928-18.93 18.928-10.437 0-18.928-8.491-18.928-18.929 0-10.436 8.491-18.927 18.928-18.927 10.438 0 18.93 8.491 18.93 18.927"/>

<path fill="#2D3C53" d="M655 62.06c-11.613 0-21.061-9.447-21.061-21.06S643.387 19.938 655 19.938c11.614 0 21.061 9.448 21.061 21.06 0 11.614-9.447 21.061-21.06 21.061Zm20.978-29.922a22.687 22.687 0 0 0-4.88-7.237A22.697 22.697 0 0 0 655 18.234a22.695 22.695 0 0 0-16.098 6.668 22.692 22.692 0 0 0-6.668 16.097 22.688 22.688 0 0 0 6.668 16.098A22.68 22.68 0 0 0 655 63.768a22.683 22.683 0 0 0 16.098-6.669 22.682 22.682 0 0 0 6.67-16.099c0-3.073-.604-6.054-1.79-8.86Z"/>

<path fill="#2D3C53" d="M655 69.294a28.176 28.176 0 0 1-13.551-3.462 28.416 28.416 0 0 1-7.531-5.98A28.165 28.165 0 0 1 626.706 41c0-15.601 12.693-28.294 28.294-28.294a28.167 28.167 0 0 1 18.852 7.212 28.423 28.423 0 0 1 7.171 9.973A28.177 28.177 0 0 1 683.295 41c0 15.6-12.693 28.293-28.295 28.293Zm28.35-38.135a29.713 29.713 0 0 0-2.256-4.97 30.242 30.242 0 0 0-2.953-4.281 30.142 30.142 0 0 0-6.367-5.784 30.02 30.02 0 0 0-5.996-3.13A29.828 29.828 0 0 0 655 11c-4.05 0-7.978.793-11.677 2.358a30.034 30.034 0 0 0-9.536 6.43 30.156 30.156 0 0 0-3.663 4.439 29.982 29.982 0 0 0-2.766 5.095A29.812 29.812 0 0 0 625 40.999a29.828 29.828 0 0 0 5.124 16.774 30.154 30.154 0 0 0 12.468 10.548 29.874 29.874 0 0 0 2.567 1.028A29.84 29.84 0 0 0 655 71a29.875 29.875 0 0 0 16.774-5.125 30.228 30.228 0 0 0 4.44-3.662 30.02 30.02 0 0 0 6.428-9.536A29.806 29.806 0 0 0 685 40.999a29.83 29.83 0 0 0-1.65-9.84Z"/>

<path fill="#2D3C53" fill-rule="nonzero" d="m645 51.297 1.209-3.348c.475-.248.832-.522 1.07-.822.237-.3.47-.749.697-1.348l.961-2.697h-1.643l1.209-3.348h1.674l2.108-5.859c.971-2.583 2.893-3.875 5.766-3.875h3.224c1.57 0 2.682.49 3.332 1.473.652.981.698 2.237.14 3.766l-.899 2.449h-5.332l1.085-2.976c.124-.31.13-.584.015-.822-.113-.237-.315-.356-.604-.356h-.372c-.351 0-.615.083-.79.248-.176.165-.347.475-.512.93l-1.829 5.022h4.774l-1.24 3.348h-4.774l-.775 2.139c-.372 1.013-.93 1.726-1.674 2.139h8.897l-1.426 3.937H645Z"/>

<path fill="#F2F9FF" d="M619.136 255.85v5.299c0 1.657-1.377 3.006-3.071 3.006h-48.13c-1.693 0-3.071-1.35-3.071-3.006v-5.299c0-1.657 1.378-3.005 3.071-3.005h48.13c1.694 0 3.071 1.348 3.071 3.005"/>

<path fill="#FFF" d="M570.04 264.155h6.32v-11.31h-6.32z"/>

<path fill="#B8CAD9" d="M600.933 264.155h11.011v-11.31h-11.011z"/>

<path fill="#2D3C53" d="M567.935 253.69c-1.217 0-2.207.97-2.207 2.16v5.299c0 1.19.99 2.16 2.207 2.16h48.13c1.217 0 2.207-.97 2.207-2.16v-5.299c0-1.19-.99-2.16-2.207-2.16h-48.13Zm48.13 11.31h-48.13c-2.17 0-3.935-1.728-3.935-3.851v-5.299c0-2.123 1.765-3.85 3.935-3.85h48.13c2.17 0 3.935 1.727 3.935 3.85v5.299c0 2.123-1.764 3.851-3.935 3.851Z"/>

<path fill="#F2F9FF" d="M619.136 242.85v5.299c0 1.657-1.377 3.006-3.071 3.006h-48.13c-1.693 0-3.071-1.35-3.071-3.006v-5.299c0-1.657 1.378-3.005 3.071-3.005h48.13c1.694 0 3.071 1.348 3.071 3.005"/>

<path fill="#FFF" d="M570.04 251.155h6.32v-11.31h-6.32z"/>

<path fill="#B8CAD9" d="M600.933 251.155h11.011v-11.31h-11.011z"/>

<path fill="#2D3C53" d="M567.935 240.69c-1.217 0-2.207.97-2.207 2.16v5.299c0 1.19.99 2.16 2.207 2.16h48.13c1.217 0 2.207-.97 2.207-2.16v-5.299c0-1.19-.99-2.16-2.207-2.16h-48.13Zm48.13 11.31h-48.13c-2.17 0-3.935-1.728-3.935-3.851v-5.299c0-2.123 1.765-3.85 3.935-3.85h48.13c2.17 0 3.935 1.727 3.935 3.85v5.299c0 2.123-1.764 3.851-3.935 3.851Z"/>

<path fill="#F2F9FF" d="M619.136 229.85v5.299c0 1.657-1.377 3.006-3.071 3.006h-48.13c-1.693 0-3.071-1.35-3.071-3.006v-5.299c0-1.657 1.378-3.005 3.071-3.005h48.13c1.694 0 3.071 1.348 3.071 3.005"/>

<path fill="#FFF" d="M570.04 238.155h6.32v-11.31h-6.32z"/>

<path fill="#B8CAD9" d="M600.933 238.155h11.011v-11.31h-11.011z"/>

<path fill="#2D3C53" d="M567.935 227.69c-1.217 0-2.207.97-2.207 2.16v5.299c0 1.19.99 2.16 2.207 2.16h48.13c1.217 0 2.207-.97 2.207-2.16v-5.299c0-1.19-.99-2.16-2.207-2.16h-48.13Zm48.13 11.31h-48.13c-2.17 0-3.935-1.728-3.935-3.851v-5.299c0-2.123 1.765-3.85 3.935-3.85h48.13c2.17 0 3.935 1.727 3.935 3.85v5.299c0 2.123-1.764 3.851-3.935 3.851Z"/>

<path fill="#F2F9FF" d="M619.136 216.85v5.299c0 1.657-1.377 3.006-3.071 3.006h-48.13c-1.693 0-3.071-1.35-3.071-3.006v-5.299c0-1.657 1.378-3.005 3.071-3.005h48.13c1.694 0 3.071 1.348 3.071 3.005"/>

<path fill="#FFF" d="M570.04 225.155h6.32v-11.31h-6.32z"/>

<path fill="#B8CAD9" d="M600.933 225.155h11.011v-11.31h-11.011z"/>

<path fill="#2D3C53" d="M567.935 214.69c-1.217 0-2.207.97-2.207 2.16v5.299c0 1.19.99 2.16 2.207 2.16h48.13c1.217 0 2.207-.97 2.207-2.16v-5.299c0-1.19-.99-2.16-2.207-2.16h-48.13Zm48.13 11.31h-48.13c-2.17 0-3.935-1.728-3.935-3.851v-5.299c0-2.123 1.765-3.85 3.935-3.85h48.13c2.17 0 3.935 1.727 3.935 3.85v5.299c0 2.123-1.764 3.851-3.935 3.851Z"/>

<path fill="#F2F9FF" d="M619.136 203.85v5.299c0 1.657-1.377 3.006-3.071 3.006h-48.13c-1.693 0-3.071-1.35-3.071-3.006v-5.299c0-1.657 1.378-3.005 3.071-3.005h48.13c1.694 0 3.071 1.348 3.071 3.005"/>

<path fill="#FFF" d="M570.04 212.155h6.32v-11.31h-6.32z"/>

<path fill="#B8CAD9" d="M600.933 212.155h11.011v-11.31h-11.011z"/>

<path fill="#2D3C53" d="M567.935 201.69c-1.217 0-2.207.97-2.207 2.16v5.299c0 1.19.99 2.16 2.207 2.16h48.13c1.217 0 2.207-.97 2.207-2.16v-5.299c0-1.19-.99-2.16-2.207-2.16h-48.13Zm48.13 11.31h-48.13c-2.17 0-3.935-1.728-3.935-3.851v-5.299c0-2.123 1.765-3.85 3.935-3.85h48.13c2.17 0 3.935 1.727 3.935 3.85v5.299c0 2.123-1.764 3.851-3.935 3.851Z"/>

<path fill="#F2F9FF" d="M619.136 190.85v5.299c0 1.657-1.377 3.006-3.071 3.006h-48.13c-1.693 0-3.071-1.35-3.071-3.006v-5.299c0-1.657 1.378-3.005 3.071-3.005h48.13c1.694 0 3.071 1.348 3.071 3.005"/>

<path fill="#FFF" d="M570.04 199.155h6.32v-11.31h-6.32z"/>

<path fill="#B8CAD9" d="M600.933 199.155h11.011v-11.31h-11.011z"/>

<path fill="#2D3C53" d="M567.935 188.69c-1.217 0-2.207.97-2.207 2.16v5.299c0 1.19.99 2.16 2.207 2.16h48.13c1.217 0 2.207-.97 2.207-2.16v-5.299c0-1.19-.99-2.16-2.207-2.16h-48.13Zm48.13 11.31h-48.13c-2.17 0-3.935-1.728-3.935-3.851v-5.299c0-2.123 1.765-3.85 3.935-3.85h48.13c2.17 0 3.935 1.727 3.935 3.85v5.299c0 2.123-1.764 3.851-3.935 3.851Z"/>

<path fill="#F2F9FF" d="M619.136 177.85v5.299c0 1.657-1.377 3.006-3.071 3.006h-48.13c-1.693 0-3.071-1.35-3.071-3.006v-5.299c0-1.657 1.378-3.005 3.071-3.005h48.13c1.694 0 3.071 1.348 3.071 3.005"/>

<path fill="#FFF" d="M570.04 186.155h6.32v-11.31h-6.32z"/>

<path fill="#B8CAD9" d="M600.933 186.155h11.011v-11.31h-11.011z"/>

<path fill="#2D3C53" d="M567.935 175.69c-1.217 0-2.207.97-2.207 2.16v5.299c0 1.19.99 2.16 2.207 2.16h48.13c1.217 0 2.207-.97 2.207-2.16v-5.299c0-1.19-.99-2.16-2.207-2.16h-48.13Zm48.13 11.31h-48.13c-2.17 0-3.935-1.728-3.935-3.851v-5.299c0-2.123 1.765-3.85 3.935-3.85h48.13c2.17 0 3.935 1.727 3.935 3.85v5.299c0 2.123-1.764 3.851-3.935 3.851Z"/>

<path fill="#F2F9FF" d="M619.136 164.85v5.299c0 1.657-1.377 3.006-3.071 3.006h-48.13c-1.693 0-3.071-1.35-3.071-3.006v-5.299c0-1.657 1.378-3.005 3.071-3.005h48.13c1.694 0 3.071 1.348 3.071 3.005"/>

<path fill="#FFF" d="M570.04 173.155h6.32v-11.31h-6.32z"/>

<path fill="#B8CAD9" d="M600.933 173.155h11.011v-11.31h-11.011z"/>

<path fill="#2D3C53" d="M567.935 162.69c-1.217 0-2.207.97-2.207 2.16v5.299c0 1.19.99 2.16 2.207 2.16h48.13c1.217 0 2.207-.97 2.207-2.16v-5.299c0-1.19-.99-2.16-2.207-2.16h-48.13Zm48.13 11.31h-48.13c-2.17 0-3.935-1.728-3.935-3.851v-5.299c0-2.123 1.765-3.85 3.935-3.85h48.13c2.17 0 3.935 1.727 3.935 3.85v5.299c0 2.123-1.764 3.851-3.935 3.851Z"/>

<path fill="#F2F9FF" d="M619.136 151.85v5.299c0 1.657-1.377 3.006-3.071 3.006h-48.13c-1.693 0-3.071-1.35-3.071-3.006v-5.299c0-1.657 1.378-3.005 3.071-3.005h48.13c1.694 0 3.071 1.348 3.071 3.005"/>

<path fill="#FFF" d="M570.04 160.155h6.32v-11.31h-6.32z"/>

<path fill="#B8CAD9" d="M600.933 160.155h11.011v-11.31h-11.011z"/>

<path fill="#2D3C53" d="M567.935 149.69c-1.217 0-2.207.97-2.207 2.16v5.299c0 1.19.99 2.16 2.207 2.16h48.13c1.217 0 2.207-.97 2.207-2.16v-5.299c0-1.19-.99-2.16-2.207-2.16h-48.13Zm48.13 11.31h-48.13c-2.17 0-3.935-1.728-3.935-3.851v-5.299c0-2.123 1.765-3.85 3.935-3.85h48.13c2.17 0 3.935 1.727 3.935 3.85v5.299c0 2.123-1.764 3.851-3.935 3.851Z"/>

<path fill="#F2F9FF" d="M619.136 138.85v5.299c0 1.657-1.377 3.006-3.071 3.006h-48.13c-1.693 0-3.071-1.35-3.071-3.006v-5.299c0-1.657 1.378-3.005 3.071-3.005h48.13c1.694 0 3.071 1.348 3.071 3.005"/>

<path fill="#FFF" d="M570.04 147.155h6.32v-11.31h-6.32z"/>

<path fill="#B8CAD9" d="M600.933 147.155h11.011v-11.31h-11.011z"/>

<path fill="#2D3C53" d="M567.935 136.69c-1.217 0-2.207.97-2.207 2.16v5.299c0 1.19.99 2.16 2.207 2.16h48.13c1.217 0 2.207-.97 2.207-2.16v-5.299c0-1.19-.99-2.16-2.207-2.16h-48.13Zm48.13 11.31h-48.13c-2.17 0-3.935-1.728-3.935-3.851v-5.299c0-2.123 1.765-3.85 3.935-3.85h48.13c2.17 0 3.935 1.727 3.935 3.85v5.299c0 2.123-1.764 3.851-3.935 3.851Z"/>

<path fill="#F2F9FF" d="M619.136 125.85v5.299c0 1.657-1.377 3.006-3.071 3.006h-48.13c-1.693 0-3.071-1.35-3.071-3.006v-5.299c0-1.657 1.378-3.005 3.071-3.005h48.13c1.694 0 3.071 1.348 3.071 3.005"/>

<path fill="#FFF" d="M570.04 134.155h6.32v-11.31h-6.32z"/>

<path fill="#B8CAD9" d="M600.933 134.155h11.011v-11.31h-11.011z"/>

<path fill="#2D3C53" d="M567.935 123.69c-1.217 0-2.207.97-2.207 2.16v5.299c0 1.19.99 2.16 2.207 2.16h48.13c1.217 0 2.207-.97 2.207-2.16v-5.299c0-1.19-.99-2.16-2.207-2.16h-48.13Zm48.13 11.31h-48.13c-2.17 0-3.935-1.728-3.935-3.851v-5.299c0-2.123 1.765-3.85 3.935-3.85h48.13c2.17 0 3.935 1.727 3.935 3.85v5.299c0 2.123-1.764 3.851-3.935 3.851Z"/>

<path fill="#F2F9FF" d="M619.136 112.85v5.299c0 1.657-1.377 3.006-3.071 3.006h-48.13c-1.693 0-3.071-1.35-3.071-3.006v-5.299c0-1.657 1.378-3.005 3.071-3.005h48.13c1.694 0 3.071 1.348 3.071 3.005"/>

<path fill="#FFF" d="M570.04 121.155h6.32v-11.31h-6.32z"/>

<path fill="#B8CAD9" d="M600.933 121.155h11.011v-11.31h-11.011z"/>

<path fill="#2D3C53" d="M567.935 110.69c-1.217 0-2.207.97-2.207 2.16v5.299c0 1.19.99 2.16 2.207 2.16h48.13c1.217 0 2.207-.97 2.207-2.16v-5.299c0-1.19-.99-2.16-2.207-2.16h-48.13Zm48.13 11.31h-48.13c-2.17 0-3.935-1.728-3.935-3.851v-5.299c0-2.123 1.765-3.85 3.935-3.85h48.13c2.17 0 3.935 1.727 3.935 3.85v5.299c0 2.123-1.764 3.851-3.935 3.851Z"/>

<path fill="#F2F9FF" d="M619.136 99.85v5.299c0 1.657-1.377 3.006-3.071 3.006h-48.13c-1.693 0-3.071-1.35-3.071-3.006V99.85c0-1.657 1.378-3.005 3.071-3.005h48.13c1.694 0 3.071 1.348 3.071 3.005"/>

<path fill="#FFF" d="M570.04 108.155h6.32v-11.31h-6.32z"/>

<path fill="#B8CAD9" d="M600.933 108.155h11.011v-11.31h-11.011z"/>

<path fill="#2D3C53" d="M567.935 97.69c-1.217 0-2.207.97-2.207 2.16v5.299c0 1.19.99 2.16 2.207 2.16h48.13c1.217 0 2.207-.97 2.207-2.16V99.85c0-1.19-.99-2.16-2.207-2.16h-48.13Zm48.13 11.31h-48.13c-2.17 0-3.935-1.728-3.935-3.851V99.85c0-2.123 1.765-3.85 3.935-3.85h48.13c2.17 0 3.935 1.727 3.935 3.85v5.299c0 2.123-1.764 3.851-3.935 3.851Z"/>

<path fill="#F2F9FF" d="M619.136 86.85v5.299c0 1.657-1.377 3.006-3.071 3.006h-48.13c-1.693 0-3.071-1.35-3.071-3.006V86.85c0-1.657 1.378-3.005 3.071-3.005h48.13c1.694 0 3.071 1.348 3.071 3.005"/>

<path fill="#FFF" d="M570.04 95.155h6.32v-11.31h-6.32z"/>

<path fill="#B8CAD9" d="M600.933 95.155h11.011v-11.31h-11.011z"/>

<path fill="#2D3C53" d="M567.935 84.69c-1.217 0-2.207.97-2.207 2.16v5.299c0 1.19.99 2.16 2.207 2.16h48.13c1.217 0 2.207-.97 2.207-2.16V86.85c0-1.19-.99-2.16-2.207-2.16h-48.13ZM616.065 96h-48.13c-2.17 0-3.935-1.728-3.935-3.851V86.85c0-2.123 1.765-3.85 3.935-3.85h48.13c2.17 0 3.935 1.727 3.935 3.85v5.299c0 2.123-1.764 3.851-3.935 3.851Z"/>

<path fill="#F2F9FF" d="M558.136 255.85v5.299c0 1.657-1.377 3.006-3.071 3.006h-48.13c-1.693 0-3.071-1.35-3.071-3.006v-5.299c0-1.657 1.378-3.005 3.071-3.005h48.13c1.694 0 3.071 1.348 3.071 3.005"/>

<path fill="#FFF" d="M509.04 264.155h6.32v-11.31h-6.32z"/>

<path fill="#B8CAD9" d="M539.933 264.155h11.011v-11.31h-11.011z"/>

<path fill="#2D3C53" d="M506.935 253.69c-1.217 0-2.207.97-2.207 2.16v5.299c0 1.19.99 2.16 2.207 2.16h48.13c1.217 0 2.207-.97 2.207-2.16v-5.299c0-1.19-.99-2.16-2.207-2.16h-48.13Zm48.13 11.31h-48.13c-2.17 0-3.935-1.728-3.935-3.851v-5.299c0-2.123 1.765-3.85 3.935-3.85h48.13c2.17 0 3.935 1.727 3.935 3.85v5.299c0 2.123-1.764 3.851-3.935 3.851Z"/>

<path fill="#F2F9FF" d="M558.136 242.85v5.299c0 1.657-1.377 3.006-3.071 3.006h-48.13c-1.693 0-3.071-1.35-3.071-3.006v-5.299c0-1.657 1.378-3.005 3.071-3.005h48.13c1.694 0 3.071 1.348 3.071 3.005"/>

<path fill="#FFF" d="M509.04 251.155h6.32v-11.31h-6.32z"/>

<path fill="#B8CAD9" d="M539.933 251.155h11.011v-11.31h-11.011z"/>

<path fill="#2D3C53" d="M506.935 240.69c-1.217 0-2.207.97-2.207 2.16v5.299c0 1.19.99 2.16 2.207 2.16h48.13c1.217 0 2.207-.97 2.207-2.16v-5.299c0-1.19-.99-2.16-2.207-2.16h-48.13Zm48.13 11.31h-48.13c-2.17 0-3.935-1.728-3.935-3.851v-5.299c0-2.123 1.765-3.85 3.935-3.85h48.13c2.17 0 3.935 1.727 3.935 3.85v5.299c0 2.123-1.764 3.851-3.935 3.851Z"/>

<path fill="#F2F9FF" d="M558.136 229.85v5.299c0 1.657-1.377 3.006-3.071 3.006h-48.13c-1.693 0-3.071-1.35-3.071-3.006v-5.299c0-1.657 1.378-3.005 3.071-3.005h48.13c1.694 0 3.071 1.348 3.071 3.005"/>

<path fill="#FFF" d="M509.04 238.155h6.32v-11.31h-6.32z"/>

<path fill="#B8CAD9" d="M539.933 238.155h11.011v-11.31h-11.011z"/>

<path fill="#2D3C53" d="M506.935 227.69c-1.217 0-2.207.97-2.207 2.16v5.299c0 1.19.99 2.16 2.207 2.16h48.13c1.217 0 2.207-.97 2.207-2.16v-5.299c0-1.19-.99-2.16-2.207-2.16h-48.13Zm48.13 11.31h-48.13c-2.17 0-3.935-1.728-3.935-3.851v-5.299c0-2.123 1.765-3.85 3.935-3.85h48.13c2.17 0 3.935 1.727 3.935 3.85v5.299c0 2.123-1.764 3.851-3.935 3.851Z"/>

<path fill="#F2F9FF" d="M558.136 216.85v5.299c0 1.657-1.377 3.006-3.071 3.006h-48.13c-1.693 0-3.071-1.35-3.071-3.006v-5.299c0-1.657 1.378-3.005 3.071-3.005h48.13c1.694 0 3.071 1.348 3.071 3.005"/>

<path fill="#FFF" d="M509.04 225.155h6.32v-11.31h-6.32z"/>

<path fill="#B8CAD9" d="M539.933 225.155h11.011v-11.31h-11.011z"/>

<path fill="#2D3C53" d="M506.935 214.69c-1.217 0-2.207.97-2.207 2.16v5.299c0 1.19.99 2.16 2.207 2.16h48.13c1.217 0 2.207-.97 2.207-2.16v-5.299c0-1.19-.99-2.16-2.207-2.16h-48.13Zm48.13 11.31h-48.13c-2.17 0-3.935-1.728-3.935-3.851v-5.299c0-2.123 1.765-3.85 3.935-3.85h48.13c2.17 0 3.935 1.727 3.935 3.85v5.299c0 2.123-1.764 3.851-3.935 3.851Z"/>

<path fill="#F2F9FF" d="M558.136 203.85v5.299c0 1.657-1.377 3.006-3.071 3.006h-48.13c-1.693 0-3.071-1.35-3.071-3.006v-5.299c0-1.657 1.378-3.005 3.071-3.005h48.13c1.694 0 3.071 1.348 3.071 3.005"/>

<path fill="#FFF" d="M509.04 212.155h6.32v-11.31h-6.32z"/>

<path fill="#B8CAD9" d="M539.933 212.155h11.011v-11.31h-11.011z"/>

<path fill="#2D3C53" d="M506.935 201.69c-1.217 0-2.207.97-2.207 2.16v5.299c0 1.19.99 2.16 2.207 2.16h48.13c1.217 0 2.207-.97 2.207-2.16v-5.299c0-1.19-.99-2.16-2.207-2.16h-48.13Zm48.13 11.31h-48.13c-2.17 0-3.935-1.728-3.935-3.851v-5.299c0-2.123 1.765-3.85 3.935-3.85h48.13c2.17 0 3.935 1.727 3.935 3.85v5.299c0 2.123-1.764 3.851-3.935 3.851Z"/>

<path fill="#F2F9FF" d="M558.136 190.85v5.299c0 1.657-1.377 3.006-3.071 3.006h-48.13c-1.693 0-3.071-1.35-3.071-3.006v-5.299c0-1.657 1.378-3.005 3.071-3.005h48.13c1.694 0 3.071 1.348 3.071 3.005"/>

<path fill="#FFF" d="M509.04 199.155h6.32v-11.31h-6.32z"/>

<path fill="#B8CAD9" d="M539.933 199.155h11.011v-11.31h-11.011z"/>

<path fill="#2D3C53" d="M506.935 188.69c-1.217 0-2.207.97-2.207 2.16v5.299c0 1.19.99 2.16 2.207 2.16h48.13c1.217 0 2.207-.97 2.207-2.16v-5.299c0-1.19-.99-2.16-2.207-2.16h-48.13Zm48.13 11.31h-48.13c-2.17 0-3.935-1.728-3.935-3.851v-5.299c0-2.123 1.765-3.85 3.935-3.85h48.13c2.17 0 3.935 1.727 3.935 3.85v5.299c0 2.123-1.764 3.851-3.935 3.851Z"/>

<path fill="#F2F9FF" d="M558.136 177.85v5.299c0 1.657-1.377 3.006-3.071 3.006h-48.13c-1.693 0-3.071-1.35-3.071-3.006v-5.299c0-1.657 1.378-3.005 3.071-3.005h48.13c1.694 0 3.071 1.348 3.071 3.005"/>

<path fill="#FFF" d="M509.04 186.155h6.32v-11.31h-6.32z"/>

<path fill="#B8CAD9" d="M539.933 186.155h11.011v-11.31h-11.011z"/>

<path fill="#2D3C53" d="M506.935 175.69c-1.217 0-2.207.97-2.207 2.16v5.299c0 1.19.99 2.16 2.207 2.16h48.13c1.217 0 2.207-.97 2.207-2.16v-5.299c0-1.19-.99-2.16-2.207-2.16h-48.13Zm48.13 11.31h-48.13c-2.17 0-3.935-1.728-3.935-3.851v-5.299c0-2.123 1.765-3.85 3.935-3.85h48.13c2.17 0 3.935 1.727 3.935 3.85v5.299c0 2.123-1.764 3.851-3.935 3.851Z"/>

<path fill="#F2F9FF" d="M558.136 164.85v5.299c0 1.657-1.377 3.006-3.071 3.006h-48.13c-1.693 0-3.071-1.35-3.071-3.006v-5.299c0-1.657 1.378-3.005 3.071-3.005h48.13c1.694 0 3.071 1.348 3.071 3.005"/>

<path fill="#FFF" d="M509.04 173.155h6.32v-11.31h-6.32z"/>

<path fill="#B8CAD9" d="M539.933 173.155h11.011v-11.31h-11.011z"/>

<path fill="#2D3C53" d="M506.935 162.69c-1.217 0-2.207.97-2.207 2.16v5.299c0 1.19.99 2.16 2.207 2.16h48.13c1.217 0 2.207-.97 2.207-2.16v-5.299c0-1.19-.99-2.16-2.207-2.16h-48.13Zm48.13 11.31h-48.13c-2.17 0-3.935-1.728-3.935-3.851v-5.299c0-2.123 1.765-3.85 3.935-3.85h48.13c2.17 0 3.935 1.727 3.935 3.85v5.299c0 2.123-1.764 3.851-3.935 3.851Z"/>

<path fill="#F2F9FF" d="M558.136 151.85v5.299c0 1.657-1.377 3.006-3.071 3.006h-48.13c-1.693 0-3.071-1.35-3.071-3.006v-5.299c0-1.657 1.378-3.005 3.071-3.005h48.13c1.694 0 3.071 1.348 3.071 3.005"/>

<path fill="#FFF" d="M509.04 160.155h6.32v-11.31h-6.32z"/>

<path fill="#B8CAD9" d="M539.933 160.155h11.011v-11.31h-11.011z"/>

<path fill="#2D3C53" d="M506.935 149.69c-1.217 0-2.207.97-2.207 2.16v5.299c0 1.19.99 2.16 2.207 2.16h48.13c1.217 0 2.207-.97 2.207-2.16v-5.299c0-1.19-.99-2.16-2.207-2.16h-48.13Zm48.13 11.31h-48.13c-2.17 0-3.935-1.728-3.935-3.851v-5.299c0-2.123 1.765-3.85 3.935-3.85h48.13c2.17 0 3.935 1.727 3.935 3.85v5.299c0 2.123-1.764 3.851-3.935 3.851Z"/>

<path fill="#F2F9FF" d="M558.136 138.85v5.299c0 1.657-1.377 3.006-3.071 3.006h-48.13c-1.693 0-3.071-1.35-3.071-3.006v-5.299c0-1.657 1.378-3.005 3.071-3.005h48.13c1.694 0 3.071 1.348 3.071 3.005"/>

<path fill="#FFF" d="M509.04 147.155h6.32v-11.31h-6.32z"/>

<path fill="#B8CAD9" d="M539.933 147.155h11.011v-11.31h-11.011z"/>

<path fill="#2D3C53" d="M506.935 136.69c-1.217 0-2.207.97-2.207 2.16v5.299c0 1.19.99 2.16 2.207 2.16h48.13c1.217 0 2.207-.97 2.207-2.16v-5.299c0-1.19-.99-2.16-2.207-2.16h-48.13Zm48.13 11.31h-48.13c-2.17 0-3.935-1.728-3.935-3.851v-5.299c0-2.123 1.765-3.85 3.935-3.85h48.13c2.17 0 3.935 1.727 3.935 3.85v5.299c0 2.123-1.764 3.851-3.935 3.851Z"/>

<path fill="#F2F9FF" d="M558.136 125.85v5.299c0 1.657-1.377 3.006-3.071 3.006h-48.13c-1.693 0-3.071-1.35-3.071-3.006v-5.299c0-1.657 1.378-3.005 3.071-3.005h48.13c1.694 0 3.071 1.348 3.071 3.005"/>

<path fill="#FFF" d="M509.04 134.155h6.32v-11.31h-6.32z"/>

<path fill="#B8CAD9" d="M539.933 134.155h11.011v-11.31h-11.011z"/>

<path fill="#2D3C53" d="M506.935 123.69c-1.217 0-2.207.97-2.207 2.16v5.299c0 1.19.99 2.16 2.207 2.16h48.13c1.217 0 2.207-.97 2.207-2.16v-5.299c0-1.19-.99-2.16-2.207-2.16h-48.13Zm48.13 11.31h-48.13c-2.17 0-3.935-1.728-3.935-3.851v-5.299c0-2.123 1.765-3.85 3.935-3.85h48.13c2.17 0 3.935 1.727 3.935 3.85v5.299c0 2.123-1.764 3.851-3.935 3.851Z"/>

<path fill="#F2F9FF" d="M558.136 112.85v5.299c0 1.657-1.377 3.006-3.071 3.006h-48.13c-1.693 0-3.071-1.35-3.071-3.006v-5.299c0-1.657 1.378-3.005 3.071-3.005h48.13c1.694 0 3.071 1.348 3.071 3.005"/>

<path fill="#FFF" d="M509.04 121.155h6.32v-11.31h-6.32z"/>

<path fill="#B8CAD9" d="M539.933 121.155h11.011v-11.31h-11.011z"/>

<path fill="#2D3C53" d="M506.935 110.69c-1.217 0-2.207.97-2.207 2.16v5.299c0 1.19.99 2.16 2.207 2.16h48.13c1.217 0 2.207-.97 2.207-2.16v-5.299c0-1.19-.99-2.16-2.207-2.16h-48.13Zm48.13 11.31h-48.13c-2.17 0-3.935-1.728-3.935-3.851v-5.299c0-2.123 1.765-3.85 3.935-3.85h48.13c2.17 0 3.935 1.727 3.935 3.85v5.299c0 2.123-1.764 3.851-3.935 3.851Z"/>

<path fill="#F2F9FF" d="M558.136 99.85v5.299c0 1.657-1.377 3.006-3.071 3.006h-48.13c-1.693 0-3.071-1.35-3.071-3.006V99.85c0-1.657 1.378-3.005 3.071-3.005h48.13c1.694 0 3.071 1.348 3.071 3.005"/>

<path fill="#FFF" d="M509.04 108.155h6.32v-11.31h-6.32z"/>

<path fill="#B8CAD9" d="M539.933 108.155h11.011v-11.31h-11.011z"/>

<path fill="#2D3C53" d="M506.935 97.69c-1.217 0-2.207.97-2.207 2.16v5.299c0 1.19.99 2.16 2.207 2.16h48.13c1.217 0 2.207-.97 2.207-2.16V99.85c0-1.19-.99-2.16-2.207-2.16h-48.13Zm48.13 11.31h-48.13c-2.17 0-3.935-1.728-3.935-3.851V99.85c0-2.123 1.765-3.85 3.935-3.85h48.13c2.17 0 3.935 1.727 3.935 3.85v5.299c0 2.123-1.764 3.851-3.935 3.851Z"/>

<path fill="#F2F9FF" d="M497.136 255.85v5.299c0 1.657-1.377 3.006-3.071 3.006h-48.13c-1.693 0-3.071-1.35-3.071-3.006v-5.299c0-1.657 1.378-3.005 3.071-3.005h48.13c1.694 0 3.071 1.348 3.071 3.005"/>

<path fill="#FFF" d="M448.04 264.155h6.32v-11.31h-6.32z"/>

<path fill="#B8CAD9" d="M478.933 264.155h11.011v-11.31h-11.011z"/>

<path fill="#2D3C53" d="M445.935 253.69c-1.217 0-2.207.97-2.207 2.16v5.299c0 1.19.99 2.16 2.207 2.16h48.13c1.217 0 2.207-.97 2.207-2.16v-5.299c0-1.19-.99-2.16-2.207-2.16h-48.13Zm48.13 11.31h-48.13c-2.17 0-3.935-1.728-3.935-3.851v-5.299c0-2.123 1.765-3.85 3.935-3.85h48.13c2.17 0 3.935 1.727 3.935 3.85v5.299c0 2.123-1.764 3.851-3.935 3.851Z"/>

<path fill="#F2F9FF" d="M497.136 242.85v5.299c0 1.657-1.377 3.006-3.071 3.006h-48.13c-1.693 0-3.071-1.35-3.071-3.006v-5.299c0-1.657 1.378-3.005 3.071-3.005h48.13c1.694 0 3.071 1.348 3.071 3.005"/>

<path fill="#FFF" d="M448.04 251.155h6.32v-11.31h-6.32z"/>

<path fill="#B8CAD9" d="M478.933 251.155h11.011v-11.31h-11.011z"/>

<path fill="#2D3C53" d="M445.935 240.69c-1.217 0-2.207.97-2.207 2.16v5.299c0 1.19.99 2.16 2.207 2.16h48.13c1.217 0 2.207-.97 2.207-2.16v-5.299c0-1.19-.99-2.16-2.207-2.16h-48.13Zm48.13 11.31h-48.13c-2.17 0-3.935-1.728-3.935-3.851v-5.299c0-2.123 1.765-3.85 3.935-3.85h48.13c2.17 0 3.935 1.727 3.935 3.85v5.299c0 2.123-1.764 3.851-3.935 3.851Z"/>

<path fill="#F2F9FF" d="M497.136 229.85v5.299c0 1.657-1.377 3.006-3.071 3.006h-48.13c-1.693 0-3.071-1.35-3.071-3.006v-5.299c0-1.657 1.378-3.005 3.071-3.005h48.13c1.694 0 3.071 1.348 3.071 3.005"/>

<path fill="#FFF" d="M448.04 238.155h6.32v-11.31h-6.32z"/>

<path fill="#B8CAD9" d="M478.933 238.155h11.011v-11.31h-11.011z"/>

<path fill="#2D3C53" d="M445.935 227.69c-1.217 0-2.207.97-2.207 2.16v5.299c0 1.19.99 2.16 2.207 2.16h48.13c1.217 0 2.207-.97 2.207-2.16v-5.299c0-1.19-.99-2.16-2.207-2.16h-48.13Zm48.13 11.31h-48.13c-2.17 0-3.935-1.728-3.935-3.851v-5.299c0-2.123 1.765-3.85 3.935-3.85h48.13c2.17 0 3.935 1.727 3.935 3.85v5.299c0 2.123-1.764 3.851-3.935 3.851Z"/>

<path fill="#F2F9FF" d="M497.136 216.85v5.299c0 1.657-1.377 3.006-3.071 3.006h-48.13c-1.693 0-3.071-1.35-3.071-3.006v-5.299c0-1.657 1.378-3.005 3.071-3.005h48.13c1.694 0 3.071 1.348 3.071 3.005"/>

<path fill="#FFF" d="M448.04 225.155h6.32v-11.31h-6.32z"/>

<path fill="#B8CAD9" d="M478.933 225.155h11.011v-11.31h-11.011z"/>

<path fill="#2D3C53" d="M445.935 214.69c-1.217 0-2.207.97-2.207 2.16v5.299c0 1.19.99 2.16 2.207 2.16h48.13c1.217 0 2.207-.97 2.207-2.16v-5.299c0-1.19-.99-2.16-2.207-2.16h-48.13Zm48.13 11.31h-48.13c-2.17 0-3.935-1.728-3.935-3.851v-5.299c0-2.123 1.765-3.85 3.935-3.85h48.13c2.17 0 3.935 1.727 3.935 3.85v5.299c0 2.123-1.764 3.851-3.935 3.851Z"/>

<path fill="#F2F9FF" d="M497.136 203.85v5.299c0 1.657-1.377 3.006-3.071 3.006h-48.13c-1.693 0-3.071-1.35-3.071-3.006v-5.299c0-1.657 1.378-3.005 3.071-3.005h48.13c1.694 0 3.071 1.348 3.071 3.005"/>

<path fill="#FFF" d="M448.04 212.155h6.32v-11.31h-6.32z"/>

<path fill="#B8CAD9" d="M478.933 212.155h11.011v-11.31h-11.011z"/>

<path fill="#2D3C53" d="M445.935 201.69c-1.217 0-2.207.97-2.207 2.16v5.299c0 1.19.99 2.16 2.207 2.16h48.13c1.217 0 2.207-.97 2.207-2.16v-5.299c0-1.19-.99-2.16-2.207-2.16h-48.13Zm48.13 11.31h-48.13c-2.17 0-3.935-1.728-3.935-3.851v-5.299c0-2.123 1.765-3.85 3.935-3.85h48.13c2.17 0 3.935 1.727 3.935 3.85v5.299c0 2.123-1.764 3.851-3.935 3.851Z"/>

<path fill="#F2F9FF" d="M497.136 190.85v5.299c0 1.657-1.377 3.006-3.071 3.006h-48.13c-1.693 0-3.071-1.35-3.071-3.006v-5.299c0-1.657 1.378-3.005 3.071-3.005h48.13c1.694 0 3.071 1.348 3.071 3.005"/>

<path fill="#FFF" d="M448.04 199.155h6.32v-11.31h-6.32z"/>

<path fill="#B8CAD9" d="M478.933 199.155h11.011v-11.31h-11.011z"/>

<path fill="#2D3C53" d="M445.935 188.69c-1.217 0-2.207.97-2.207 2.16v5.299c0 1.19.99 2.16 2.207 2.16h48.13c1.217 0 2.207-.97 2.207-2.16v-5.299c0-1.19-.99-2.16-2.207-2.16h-48.13Zm48.13 11.31h-48.13c-2.17 0-3.935-1.728-3.935-3.851v-5.299c0-2.123 1.765-3.85 3.935-3.85h48.13c2.17 0 3.935 1.727 3.935 3.85v5.299c0 2.123-1.764 3.851-3.935 3.851Z"/>

<path fill="#F2F9FF" d="M497.136 177.85v5.299c0 1.657-1.377 3.006-3.071 3.006h-48.13c-1.693 0-3.071-1.35-3.071-3.006v-5.299c0-1.657 1.378-3.005 3.071-3.005h48.13c1.694 0 3.071 1.348 3.071 3.005"/>

<path fill="#FFF" d="M448.04 186.155h6.32v-11.31h-6.32z"/>

<path fill="#B8CAD9" d="M478.933 186.155h11.011v-11.31h-11.011z"/>

<path fill="#2D3C53" d="M445.935 175.69c-1.217 0-2.207.97-2.207 2.16v5.299c0 1.19.99 2.16 2.207 2.16h48.13c1.217 0 2.207-.97 2.207-2.16v-5.299c0-1.19-.99-2.16-2.207-2.16h-48.13Zm48.13 11.31h-48.13c-2.17 0-3.935-1.728-3.935-3.851v-5.299c0-2.123 1.765-3.85 3.935-3.85h48.13c2.17 0 3.935 1.727 3.935 3.85v5.299c0 2.123-1.764 3.851-3.935 3.851Z"/>

<path fill="#F2F9FF" d="M497.136 164.85v5.299c0 1.657-1.377 3.006-3.071 3.006h-48.13c-1.693 0-3.071-1.35-3.071-3.006v-5.299c0-1.657 1.378-3.005 3.071-3.005h48.13c1.694 0 3.071 1.348 3.071 3.005"/>

<path fill="#FFF" d="M448.04 173.155h6.32v-11.31h-6.32z"/>

<path fill="#B8CAD9" d="M478.933 173.155h11.011v-11.31h-11.011z"/>

<path fill="#2D3C53" d="M445.935 162.69c-1.217 0-2.207.97-2.207 2.16v5.299c0 1.19.99 2.16 2.207 2.16h48.13c1.217 0 2.207-.97 2.207-2.16v-5.299c0-1.19-.99-2.16-2.207-2.16h-48.13Zm48.13 11.31h-48.13c-2.17 0-3.935-1.728-3.935-3.851v-5.299c0-2.123 1.765-3.85 3.935-3.85h48.13c2.17 0 3.935 1.727 3.935 3.85v5.299c0 2.123-1.764 3.851-3.935 3.851Z"/>

<path fill="#F2F9FF" d="M497.136 151.85v5.299c0 1.657-1.377 3.006-3.071 3.006h-48.13c-1.693 0-3.071-1.35-3.071-3.006v-5.299c0-1.657 1.378-3.005 3.071-3.005h48.13c1.694 0 3.071 1.348 3.071 3.005"/>

<path fill="#FFF" d="M448.04 160.155h6.32v-11.31h-6.32z"/>

<path fill="#B8CAD9" d="M478.933 160.155h11.011v-11.31h-11.011z"/>

<path fill="#2D3C53" d="M445.935 149.69c-1.217 0-2.207.97-2.207 2.16v5.299c0 1.19.99 2.16 2.207 2.16h48.13c1.217 0 2.207-.97 2.207-2.16v-5.299c0-1.19-.99-2.16-2.207-2.16h-48.13Zm48.13 11.31h-48.13c-2.17 0-3.935-1.728-3.935-3.851v-5.299c0-2.123 1.765-3.85 3.935-3.85h48.13c2.17 0 3.935 1.727 3.935 3.85v5.299c0 2.123-1.764 3.851-3.935 3.851Z"/>

<path fill="#F2F9FF" d="M497.136 138.85v5.299c0 1.657-1.377 3.006-3.071 3.006h-48.13c-1.693 0-3.071-1.35-3.071-3.006v-5.299c0-1.657 1.378-3.005 3.071-3.005h48.13c1.694 0 3.071 1.348 3.071 3.005"/>

<path fill="#FFF" d="M448.04 147.155h6.32v-11.31h-6.32z"/>

<path fill="#B8CAD9" d="M478.933 147.155h11.011v-11.31h-11.011z"/>

<path fill="#2D3C53" d="M445.935 136.69c-1.217 0-2.207.97-2.207 2.16v5.299c0 1.19.99 2.16 2.207 2.16h48.13c1.217 0 2.207-.97 2.207-2.16v-5.299c0-1.19-.99-2.16-2.207-2.16h-48.13Zm48.13 11.31h-48.13c-2.17 0-3.935-1.728-3.935-3.851v-5.299c0-2.123 1.765-3.85 3.935-3.85h48.13c2.17 0 3.935 1.727 3.935 3.85v5.299c0 2.123-1.764 3.851-3.935 3.851Z"/>

<path fill="#F2F9FF" d="M497.136 125.85v5.299c0 1.657-1.377 3.006-3.071 3.006h-48.13c-1.693 0-3.071-1.35-3.071-3.006v-5.299c0-1.657 1.378-3.005 3.071-3.005h48.13c1.694 0 3.071 1.348 3.071 3.005"/>

<path fill="#FFF" d="M448.04 134.155h6.32v-11.31h-6.32z"/>

<path fill="#B8CAD9" d="M478.933 134.155h11.011v-11.31h-11.011z"/>

<path fill="#2D3C53" d="M445.935 123.69c-1.217 0-2.207.97-2.207 2.16v5.299c0 1.19.99 2.16 2.207 2.16h48.13c1.217 0 2.207-.97 2.207-2.16v-5.299c0-1.19-.99-2.16-2.207-2.16h-48.13Zm48.13 11.31h-48.13c-2.17 0-3.935-1.728-3.935-3.851v-5.299c0-2.123 1.765-3.85 3.935-3.85h48.13c2.17 0 3.935 1.727 3.935 3.85v5.299c0 2.123-1.764 3.851-3.935 3.851Z"/>

<path fill="#F2F9FF" d="M497.136 112.85v5.299c0 1.657-1.377 3.006-3.071 3.006h-48.13c-1.693 0-3.071-1.35-3.071-3.006v-5.299c0-1.657 1.378-3.005 3.071-3.005h48.13c1.694 0 3.071 1.348 3.071 3.005"/>

<path fill="#FFF" d="M448.04 121.155h6.32v-11.31h-6.32z"/>

<path fill="#B8CAD9" d="M478.933 121.155h11.011v-11.31h-11.011z"/>

<path fill="#2D3C53" d="M445.935 110.69c-1.217 0-2.207.97-2.207 2.16v5.299c0 1.19.99 2.16 2.207 2.16h48.13c1.217 0 2.207-.97 2.207-2.16v-5.299c0-1.19-.99-2.16-2.207-2.16h-48.13Zm48.13 11.31h-48.13c-2.17 0-3.935-1.728-3.935-3.851v-5.299c0-2.123 1.765-3.85 3.935-3.85h48.13c2.17 0 3.935 1.727 3.935 3.85v5.299c0 2.123-1.764 3.851-3.935 3.851Z"/>

<path fill="#F2F9FF" d="M436.136 255.85v5.299c0 1.657-1.377 3.006-3.071 3.006h-48.13c-1.693 0-3.071-1.35-3.071-3.006v-5.299c0-1.657 1.378-3.005 3.071-3.005h48.13c1.694 0 3.071 1.348 3.071 3.005"/>

<path fill="#FFF" d="M387.04 264.155h6.32v-11.31h-6.32z"/>

<path fill="#B8CAD9" d="M417.933 264.155h11.011v-11.31h-11.011z"/>

<path fill="#2D3C53" d="M384.935 253.69c-1.217 0-2.207.97-2.207 2.16v5.299c0 1.19.99 2.16 2.207 2.16h48.13c1.217 0 2.207-.97 2.207-2.16v-5.299c0-1.19-.99-2.16-2.207-2.16h-48.13Zm48.13 11.31h-48.13c-2.17 0-3.935-1.728-3.935-3.851v-5.299c0-2.123 1.765-3.85 3.935-3.85h48.13c2.17 0 3.935 1.727 3.935 3.85v5.299c0 2.123-1.764 3.851-3.935 3.851Z"/>

<path fill="#F2F9FF" d="M436.136 242.85v5.299c0 1.657-1.377 3.006-3.071 3.006h-48.13c-1.693 0-3.071-1.35-3.071-3.006v-5.299c0-1.657 1.378-3.005 3.071-3.005h48.13c1.694 0 3.071 1.348 3.071 3.005"/>

<path fill="#FFF" d="M387.04 251.155h6.32v-11.31h-6.32z"/>

<path fill="#B8CAD9" d="M417.933 251.155h11.011v-11.31h-11.011z"/>

<path fill="#2D3C53" d="M384.935 240.69c-1.217 0-2.207.97-2.207 2.16v5.299c0 1.19.99 2.16 2.207 2.16h48.13c1.217 0 2.207-.97 2.207-2.16v-5.299c0-1.19-.99-2.16-2.207-2.16h-48.13Zm48.13 11.31h-48.13c-2.17 0-3.935-1.728-3.935-3.851v-5.299c0-2.123 1.765-3.85 3.935-3.85h48.13c2.17 0 3.935 1.727 3.935 3.85v5.299c0 2.123-1.764 3.851-3.935 3.851Z"/>

<path fill="#F2F9FF" d="M436.136 229.85v5.299c0 1.657-1.377 3.006-3.071 3.006h-48.13c-1.693 0-3.071-1.35-3.071-3.006v-5.299c0-1.657 1.378-3.005 3.071-3.005h48.13c1.694 0 3.071 1.348 3.071 3.005"/>

<path fill="#FFF" d="M387.04 238.155h6.32v-11.31h-6.32z"/>

<path fill="#B8CAD9" d="M417.933 238.155h11.011v-11.31h-11.011z"/>

<path fill="#2D3C53" d="M384.935 227.69c-1.217 0-2.207.97-2.207 2.16v5.299c0 1.19.99 2.16 2.207 2.16h48.13c1.217 0 2.207-.97 2.207-2.16v-5.299c0-1.19-.99-2.16-2.207-2.16h-48.13Zm48.13 11.31h-48.13c-2.17 0-3.935-1.728-3.935-3.851v-5.299c0-2.123 1.765-3.85 3.935-3.85h48.13c2.17 0 3.935 1.727 3.935 3.85v5.299c0 2.123-1.764 3.851-3.935 3.851Z"/>

<path fill="#F2F9FF" d="M436.136 216.85v5.299c0 1.657-1.377 3.006-3.071 3.006h-48.13c-1.693 0-3.071-1.35-3.071-3.006v-5.299c0-1.657 1.378-3.005 3.071-3.005h48.13c1.694 0 3.071 1.348 3.071 3.005"/>

<path fill="#FFF" d="M387.04 225.155h6.32v-11.31h-6.32z"/>

<path fill="#B8CAD9" d="M417.933 225.155h11.011v-11.31h-11.011z"/>

<path fill="#2D3C53" d="M384.935 214.69c-1.217 0-2.207.97-2.207 2.16v5.299c0 1.19.99 2.16 2.207 2.16h48.13c1.217 0 2.207-.97 2.207-2.16v-5.299c0-1.19-.99-2.16-2.207-2.16h-48.13Zm48.13 11.31h-48.13c-2.17 0-3.935-1.728-3.935-3.851v-5.299c0-2.123 1.765-3.85 3.935-3.85h48.13c2.17 0 3.935 1.727 3.935 3.85v5.299c0 2.123-1.764 3.851-3.935 3.851Z"/>

<path fill="#F2F9FF" d="M436.136 203.85v5.299c0 1.657-1.377 3.006-3.071 3.006h-48.13c-1.693 0-3.071-1.35-3.071-3.006v-5.299c0-1.657 1.378-3.005 3.071-3.005h48.13c1.694 0 3.071 1.348 3.071 3.005"/>

<path fill="#FFF" d="M387.04 212.155h6.32v-11.31h-6.32z"/>

<path fill="#B8CAD9" d="M417.933 212.155h11.011v-11.31h-11.011z"/>

<path fill="#2D3C53" d="M384.935 201.69c-1.217 0-2.207.97-2.207 2.16v5.299c0 1.19.99 2.16 2.207 2.16h48.13c1.217 0 2.207-.97 2.207-2.16v-5.299c0-1.19-.99-2.16-2.207-2.16h-48.13Zm48.13 11.31h-48.13c-2.17 0-3.935-1.728-3.935-3.851v-5.299c0-2.123 1.765-3.85 3.935-3.85h48.13c2.17 0 3.935 1.727 3.935 3.85v5.299c0 2.123-1.764 3.851-3.935 3.851Z"/>

<path fill="#F2F9FF" d="M436.136 190.85v5.299c0 1.657-1.377 3.006-3.071 3.006h-48.13c-1.693 0-3.071-1.35-3.071-3.006v-5.299c0-1.657 1.378-3.005 3.071-3.005h48.13c1.694 0 3.071 1.348 3.071 3.005"/>

<path fill="#FFF" d="M387.04 199.155h6.32v-11.31h-6.32z"/>

<path fill="#B8CAD9" d="M417.933 199.155h11.011v-11.31h-11.011z"/>

<path fill="#2D3C53" d="M384.935 188.69c-1.217 0-2.207.97-2.207 2.16v5.299c0 1.19.99 2.16 2.207 2.16h48.13c1.217 0 2.207-.97 2.207-2.16v-5.299c0-1.19-.99-2.16-2.207-2.16h-48.13Zm48.13 11.31h-48.13c-2.17 0-3.935-1.728-3.935-3.851v-5.299c0-2.123 1.765-3.85 3.935-3.85h48.13c2.17 0 3.935 1.727 3.935 3.85v5.299c0 2.123-1.764 3.851-3.935 3.851Z"/>

<path fill="#F2F9FF" d="M436.136 177.85v5.299c0 1.657-1.377 3.006-3.071 3.006h-48.13c-1.693 0-3.071-1.35-3.071-3.006v-5.299c0-1.657 1.378-3.005 3.071-3.005h48.13c1.694 0 3.071 1.348 3.071 3.005"/>

<path fill="#FFF" d="M387.04 186.155h6.32v-11.31h-6.32z"/>

<path fill="#B8CAD9" d="M417.933 186.155h11.011v-11.31h-11.011z"/>

<path fill="#2D3C53" d="M384.935 175.69c-1.217 0-2.207.97-2.207 2.16v5.299c0 1.19.99 2.16 2.207 2.16h48.13c1.217 0 2.207-.97 2.207-2.16v-5.299c0-1.19-.99-2.16-2.207-2.16h-48.13Zm48.13 11.31h-48.13c-2.17 0-3.935-1.728-3.935-3.851v-5.299c0-2.123 1.765-3.85 3.935-3.85h48.13c2.17 0 3.935 1.727 3.935 3.85v5.299c0 2.123-1.764 3.851-3.935 3.851Z"/>

<path fill="#F2F9FF" d="M436.136 164.85v5.299c0 1.657-1.377 3.006-3.071 3.006h-48.13c-1.693 0-3.071-1.35-3.071-3.006v-5.299c0-1.657 1.378-3.005 3.071-3.005h48.13c1.694 0 3.071 1.348 3.071 3.005"/>

<path fill="#FFF" d="M387.04 173.155h6.32v-11.31h-6.32z"/>

<path fill="#B8CAD9" d="M417.933 173.155h11.011v-11.31h-11.011z"/>

<path fill="#2D3C53" d="M384.935 162.69c-1.217 0-2.207.97-2.207 2.16v5.299c0 1.19.99 2.16 2.207 2.16h48.13c1.217 0 2.207-.97 2.207-2.16v-5.299c0-1.19-.99-2.16-2.207-2.16h-48.13Zm48.13 11.31h-48.13c-2.17 0-3.935-1.728-3.935-3.851v-5.299c0-2.123 1.765-3.85 3.935-3.85h48.13c2.17 0 3.935 1.727 3.935 3.85v5.299c0 2.123-1.764 3.851-3.935 3.851Z"/>

<path fill="#F2F9FF" d="M436.136 151.85v5.299c0 1.657-1.377 3.006-3.071 3.006h-48.13c-1.693 0-3.071-1.35-3.071-3.006v-5.299c0-1.657 1.378-3.005 3.071-3.005h48.13c1.694 0 3.071 1.348 3.071 3.005"/>

<path fill="#FFF" d="M387.04 160.155h6.32v-11.31h-6.32z"/>

<path fill="#B8CAD9" d="M417.933 160.155h11.011v-11.31h-11.011z"/>

<path fill="#2D3C53" d="M384.935 149.69c-1.217 0-2.207.97-2.207 2.16v5.299c0 1.19.99 2.16 2.207 2.16h48.13c1.217 0 2.207-.97 2.207-2.16v-5.299c0-1.19-.99-2.16-2.207-2.16h-48.13Zm48.13 11.31h-48.13c-2.17 0-3.935-1.728-3.935-3.851v-5.299c0-2.123 1.765-3.85 3.935-3.85h48.13c2.17 0 3.935 1.727 3.935 3.85v5.299c0 2.123-1.764 3.851-3.935 3.851Z"/>

<path fill="#F2F9FF" d="M436.136 138.85v5.299c0 1.657-1.377 3.006-3.071 3.006h-48.13c-1.693 0-3.071-1.35-3.071-3.006v-5.299c0-1.657 1.378-3.005 3.071-3.005h48.13c1.694 0 3.071 1.348 3.071 3.005"/>

<path fill="#FFF" d="M387.04 147.155h6.32v-11.31h-6.32z"/>

<path fill="#B8CAD9" d="M417.933 147.155h11.011v-11.31h-11.011z"/>

<path fill="#2D3C53" d="M384.935 136.69c-1.217 0-2.207.97-2.207 2.16v5.299c0 1.19.99 2.16 2.207 2.16h48.13c1.217 0 2.207-.97 2.207-2.16v-5.299c0-1.19-.99-2.16-2.207-2.16h-48.13Zm48.13 11.31h-48.13c-2.17 0-3.935-1.728-3.935-3.851v-5.299c0-2.123 1.765-3.85 3.935-3.85h48.13c2.17 0 3.935 1.727 3.935 3.85v5.299c0 2.123-1.764 3.851-3.935 3.851Z"/>

<path fill="#F2F9FF" d="M436.136 125.85v5.299c0 1.657-1.377 3.006-3.071 3.006h-48.13c-1.693 0-3.071-1.35-3.071-3.006v-5.299c0-1.657 1.378-3.005 3.071-3.005h48.13c1.694 0 3.071 1.348 3.071 3.005"/>

<path fill="#FFF" d="M387.04 134.155h6.32v-11.31h-6.32z"/>

<path fill="#B8CAD9" d="M417.933 134.155h11.011v-11.31h-11.011z"/>

<path fill="#2D3C53" d="M384.935 123.69c-1.217 0-2.207.97-2.207 2.16v5.299c0 1.19.99 2.16 2.207 2.16h48.13c1.217 0 2.207-.97 2.207-2.16v-5.299c0-1.19-.99-2.16-2.207-2.16h-48.13Zm48.13 11.31h-48.13c-2.17 0-3.935-1.728-3.935-3.851v-5.299c0-2.123 1.765-3.85 3.935-3.85h48.13c2.17 0 3.935 1.727 3.935 3.85v5.299c0 2.123-1.764 3.851-3.935 3.851Z"/>

<path fill="#F2F9FF" d="M375.136 255.85v5.299c0 1.657-1.377 3.006-3.071 3.006h-48.13c-1.693 0-3.071-1.35-3.071-3.006v-5.299c0-1.657 1.378-3.005 3.071-3.005h48.13c1.694 0 3.071 1.348 3.071 3.005"/>

<path fill="#FFF" d="M326.04 264.155h6.32v-11.31h-6.32z"/>

<path fill="#B8CAD9" d="M356.933 264.155h11.011v-11.31h-11.011z"/>

<path fill="#2D3C53" d="M323.935 253.69c-1.217 0-2.207.97-2.207 2.16v5.299c0 1.19.99 2.16 2.207 2.16h48.13c1.217 0 2.207-.97 2.207-2.16v-5.299c0-1.19-.99-2.16-2.207-2.16h-48.13Zm48.13 11.31h-48.13c-2.17 0-3.935-1.728-3.935-3.851v-5.299c0-2.123 1.765-3.85 3.935-3.85h48.13c2.17 0 3.935 1.727 3.935 3.85v5.299c0 2.123-1.764 3.851-3.935 3.851Z"/>

<path fill="#F2F9FF" d="M375.136 242.85v5.299c0 1.657-1.377 3.006-3.071 3.006h-48.13c-1.693 0-3.071-1.35-3.071-3.006v-5.299c0-1.657 1.378-3.005 3.071-3.005h48.13c1.694 0 3.071 1.348 3.071 3.005"/>

<path fill="#FFF" d="M326.04 251.155h6.32v-11.31h-6.32z"/>

<path fill="#B8CAD9" d="M356.933 251.155h11.011v-11.31h-11.011z"/>

<path fill="#2D3C53" d="M323.935 240.69c-1.217 0-2.207.97-2.207 2.16v5.299c0 1.19.99 2.16 2.207 2.16h48.13c1.217 0 2.207-.97 2.207-2.16v-5.299c0-1.19-.99-2.16-2.207-2.16h-48.13Zm48.13 11.31h-48.13c-2.17 0-3.935-1.728-3.935-3.851v-5.299c0-2.123 1.765-3.85 3.935-3.85h48.13c2.17 0 3.935 1.727 3.935 3.85v5.299c0 2.123-1.764 3.851-3.935 3.851Z"/>

<path fill="#F2F9FF" d="M375.136 229.85v5.299c0 1.657-1.377 3.006-3.071 3.006h-48.13c-1.693 0-3.071-1.35-3.071-3.006v-5.299c0-1.657 1.378-3.005 3.071-3.005h48.13c1.694 0 3.071 1.348 3.071 3.005"/>

<path fill="#FFF" d="M326.04 238.155h6.32v-11.31h-6.32z"/>

<path fill="#B8CAD9" d="M356.933 238.155h11.011v-11.31h-11.011z"/>

<path fill="#2D3C53" d="M323.935 227.69c-1.217 0-2.207.97-2.207 2.16v5.299c0 1.19.99 2.16 2.207 2.16h48.13c1.217 0 2.207-.97 2.207-2.16v-5.299c0-1.19-.99-2.16-2.207-2.16h-48.13Zm48.13 11.31h-48.13c-2.17 0-3.935-1.728-3.935-3.851v-5.299c0-2.123 1.765-3.85 3.935-3.85h48.13c2.17 0 3.935 1.727 3.935 3.85v5.299c0 2.123-1.764 3.851-3.935 3.851Z"/>

<path fill="#F2F9FF" d="M375.136 216.85v5.299c0 1.657-1.377 3.006-3.071 3.006h-48.13c-1.693 0-3.071-1.35-3.071-3.006v-5.299c0-1.657 1.378-3.005 3.071-3.005h48.13c1.694 0 3.071 1.348 3.071 3.005"/>

<path fill="#FFF" d="M326.04 225.155h6.32v-11.31h-6.32z"/>

<path fill="#B8CAD9" d="M356.933 225.155h11.011v-11.31h-11.011z"/>

<path fill="#2D3C53" d="M323.935 214.69c-1.217 0-2.207.97-2.207 2.16v5.299c0 1.19.99 2.16 2.207 2.16h48.13c1.217 0 2.207-.97 2.207-2.16v-5.299c0-1.19-.99-2.16-2.207-2.16h-48.13Zm48.13 11.31h-48.13c-2.17 0-3.935-1.728-3.935-3.851v-5.299c0-2.123 1.765-3.85 3.935-3.85h48.13c2.17 0 3.935 1.727 3.935 3.85v5.299c0 2.123-1.764 3.851-3.935 3.851Z"/>

<path fill="#F2F9FF" d="M375.136 203.85v5.299c0 1.657-1.377 3.006-3.071 3.006h-48.13c-1.693 0-3.071-1.35-3.071-3.006v-5.299c0-1.657 1.378-3.005 3.071-3.005h48.13c1.694 0 3.071 1.348 3.071 3.005"/>

<path fill="#FFF" d="M326.04 212.155h6.32v-11.31h-6.32z"/>

<path fill="#B8CAD9" d="M356.933 212.155h11.011v-11.31h-11.011z"/>

<path fill="#2D3C53" d="M323.935 201.69c-1.217 0-2.207.97-2.207 2.16v5.299c0 1.19.99 2.16 2.207 2.16h48.13c1.217 0 2.207-.97 2.207-2.16v-5.299c0-1.19-.99-2.16-2.207-2.16h-48.13Zm48.13 11.31h-48.13c-2.17 0-3.935-1.728-3.935-3.851v-5.299c0-2.123 1.765-3.85 3.935-3.85h48.13c2.17 0 3.935 1.727 3.935 3.85v5.299c0 2.123-1.764 3.851-3.935 3.851Z"/>

<path fill="#F2F9FF" d="M375.136 190.85v5.299c0 1.657-1.377 3.006-3.071 3.006h-48.13c-1.693 0-3.071-1.35-3.071-3.006v-5.299c0-1.657 1.378-3.005 3.071-3.005h48.13c1.694 0 3.071 1.348 3.071 3.005"/>

<path fill="#FFF" d="M326.04 199.155h6.32v-11.31h-6.32z"/>

<path fill="#B8CAD9" d="M356.933 199.155h11.011v-11.31h-11.011z"/>

<path fill="#2D3C53" d="M323.935 188.69c-1.217 0-2.207.97-2.207 2.16v5.299c0 1.19.99 2.16 2.207 2.16h48.13c1.217 0 2.207-.97 2.207-2.16v-5.299c0-1.19-.99-2.16-2.207-2.16h-48.13Zm48.13 11.31h-48.13c-2.17 0-3.935-1.728-3.935-3.851v-5.299c0-2.123 1.765-3.85 3.935-3.85h48.13c2.17 0 3.935 1.727 3.935 3.85v5.299c0 2.123-1.764 3.851-3.935 3.851Z"/>

<path fill="#F2F9FF" d="M375.136 177.85v5.299c0 1.657-1.377 3.006-3.071 3.006h-48.13c-1.693 0-3.071-1.35-3.071-3.006v-5.299c0-1.657 1.378-3.005 3.071-3.005h48.13c1.694 0 3.071 1.348 3.071 3.005"/>

<path fill="#FFF" d="M326.04 186.155h6.32v-11.31h-6.32z"/>

<path fill="#B8CAD9" d="M356.933 186.155h11.011v-11.31h-11.011z"/>

<path fill="#2D3C53" d="M323.935 175.69c-1.217 0-2.207.97-2.207 2.16v5.299c0 1.19.99 2.16 2.207 2.16h48.13c1.217 0 2.207-.97 2.207-2.16v-5.299c0-1.19-.99-2.16-2.207-2.16h-48.13Zm48.13 11.31h-48.13c-2.17 0-3.935-1.728-3.935-3.851v-5.299c0-2.123 1.765-3.85 3.935-3.85h48.13c2.17 0 3.935 1.727 3.935 3.85v5.299c0 2.123-1.764 3.851-3.935 3.851Z"/>

<path fill="#F2F9FF" d="M375.136 164.85v5.299c0 1.657-1.377 3.006-3.071 3.006h-48.13c-1.693 0-3.071-1.35-3.071-3.006v-5.299c0-1.657 1.378-3.005 3.071-3.005h48.13c1.694 0 3.071 1.348 3.071 3.005"/>

<path fill="#FFF" d="M326.04 173.155h6.32v-11.31h-6.32z"/>

<path fill="#B8CAD9" d="M356.933 173.155h11.011v-11.31h-11.011z"/>

<path fill="#2D3C53" d="M323.935 162.69c-1.217 0-2.207.97-2.207 2.16v5.299c0 1.19.99 2.16 2.207 2.16h48.13c1.217 0 2.207-.97 2.207-2.16v-5.299c0-1.19-.99-2.16-2.207-2.16h-48.13Zm48.13 11.31h-48.13c-2.17 0-3.935-1.728-3.935-3.851v-5.299c0-2.123 1.765-3.85 3.935-3.85h48.13c2.17 0 3.935 1.727 3.935 3.85v5.299c0 2.123-1.764 3.851-3.935 3.851Z"/>

<path fill="#F2F9FF" d="M375.136 151.85v5.299c0 1.657-1.377 3.006-3.071 3.006h-48.13c-1.693 0-3.071-1.35-3.071-3.006v-5.299c0-1.657 1.378-3.005 3.071-3.005h48.13c1.694 0 3.071 1.348 3.071 3.005"/>

<path fill="#FFF" d="M326.04 160.155h6.32v-11.31h-6.32z"/>

<path fill="#B8CAD9" d="M356.933 160.155h11.011v-11.31h-11.011z"/>

<path fill="#2D3C53" d="M323.935 149.69c-1.217 0-2.207.97-2.207 2.16v5.299c0 1.19.99 2.16 2.207 2.16h48.13c1.217 0 2.207-.97 2.207-2.16v-5.299c0-1.19-.99-2.16-2.207-2.16h-48.13Zm48.13 11.31h-48.13c-2.17 0-3.935-1.728-3.935-3.851v-5.299c0-2.123 1.765-3.85 3.935-3.85h48.13c2.17 0 3.935 1.727 3.935 3.85v5.299c0 2.123-1.764 3.851-3.935 3.851Z"/>

<path fill="#F2F9FF" d="M375.136 138.85v5.299c0 1.657-1.377 3.006-3.071 3.006h-48.13c-1.693 0-3.071-1.35-3.071-3.006v-5.299c0-1.657 1.378-3.005 3.071-3.005h48.13c1.694 0 3.071 1.348 3.071 3.005"/>

<path fill="#FFF" d="M326.04 147.155h6.32v-11.31h-6.32z"/>

<path fill="#B8CAD9" d="M356.933 147.155h11.011v-11.31h-11.011z"/>

<path fill="#2D3C53" d="M323.935 136.69c-1.217 0-2.207.97-2.207 2.16v5.299c0 1.19.99 2.16 2.207 2.16h48.13c1.217 0 2.207-.97 2.207-2.16v-5.299c0-1.19-.99-2.16-2.207-2.16h-48.13Zm48.13 11.31h-48.13c-2.17 0-3.935-1.728-3.935-3.851v-5.299c0-2.123 1.765-3.85 3.935-3.85h48.13c2.17 0 3.935 1.727 3.935 3.85v5.299c0 2.123-1.764 3.851-3.935 3.851Z"/>

<path fill="#F2F9FF" d="M314.136 255.85v5.299c0 1.657-1.377 3.006-3.071 3.006h-48.13c-1.693 0-3.071-1.35-3.071-3.006v-5.299c0-1.657 1.378-3.005 3.071-3.005h48.13c1.694 0 3.071 1.348 3.071 3.005"/>

<path fill="#FFF" d="M265.04 264.155h6.32v-11.31h-6.32z"/>

<path fill="#B8CAD9" d="M295.933 264.155h11.011v-11.31h-11.011z"/>

<path fill="#2D3C53" d="M262.935 253.69c-1.217 0-2.207.97-2.207 2.16v5.299c0 1.19.99 2.16 2.207 2.16h48.13c1.217 0 2.207-.97 2.207-2.16v-5.299c0-1.19-.99-2.16-2.207-2.16h-48.13Zm48.13 11.31h-48.13c-2.17 0-3.935-1.728-3.935-3.851v-5.299c0-2.123 1.765-3.85 3.935-3.85h48.13c2.17 0 3.935 1.727 3.935 3.85v5.299c0 2.123-1.764 3.851-3.935 3.851Z"/>

<path fill="#F2F9FF" d="M314.136 242.85v5.299c0 1.657-1.377 3.006-3.071 3.006h-48.13c-1.693 0-3.071-1.35-3.071-3.006v-5.299c0-1.657 1.378-3.005 3.071-3.005h48.13c1.694 0 3.071 1.348 3.071 3.005"/>

<path fill="#FFF" d="M265.04 251.155h6.32v-11.31h-6.32z"/>

<path fill="#B8CAD9" d="M295.933 251.155h11.011v-11.31h-11.011z"/>

<path fill="#2D3C53" d="M262.935 240.69c-1.217 0-2.207.97-2.207 2.16v5.299c0 1.19.99 2.16 2.207 2.16h48.13c1.217 0 2.207-.97 2.207-2.16v-5.299c0-1.19-.99-2.16-2.207-2.16h-48.13Zm48.13 11.31h-48.13c-2.17 0-3.935-1.728-3.935-3.851v-5.299c0-2.123 1.765-3.85 3.935-3.85h48.13c2.17 0 3.935 1.727 3.935 3.85v5.299c0 2.123-1.764 3.851-3.935 3.851Z"/>

<path fill="#F2F9FF" d="M314.136 229.85v5.299c0 1.657-1.377 3.006-3.071 3.006h-48.13c-1.693 0-3.071-1.35-3.071-3.006v-5.299c0-1.657 1.378-3.005 3.071-3.005h48.13c1.694 0 3.071 1.348 3.071 3.005"/>

<path fill="#FFF" d="M265.04 238.155h6.32v-11.31h-6.32z"/>

<path fill="#B8CAD9" d="M295.933 238.155h11.011v-11.31h-11.011z"/>

<path fill="#2D3C53" d="M262.935 227.69c-1.217 0-2.207.97-2.207 2.16v5.299c0 1.19.99 2.16 2.207 2.16h48.13c1.217 0 2.207-.97 2.207-2.16v-5.299c0-1.19-.99-2.16-2.207-2.16h-48.13Zm48.13 11.31h-48.13c-2.17 0-3.935-1.728-3.935-3.851v-5.299c0-2.123 1.765-3.85 3.935-3.85h48.13c2.17 0 3.935 1.727 3.935 3.85v5.299c0 2.123-1.764 3.851-3.935 3.851Z"/>

<path fill="#F2F9FF" d="M314.136 216.85v5.299c0 1.657-1.377 3.006-3.071 3.006h-48.13c-1.693 0-3.071-1.35-3.071-3.006v-5.299c0-1.657 1.378-3.005 3.071-3.005h48.13c1.694 0 3.071 1.348 3.071 3.005"/>

<path fill="#FFF" d="M265.04 225.155h6.32v-11.31h-6.32z"/>

<path fill="#B8CAD9" d="M295.933 225.155h11.011v-11.31h-11.011z"/>

<path fill="#2D3C53" d="M262.935 214.69c-1.217 0-2.207.97-2.207 2.16v5.299c0 1.19.99 2.16 2.207 2.16h48.13c1.217 0 2.207-.97 2.207-2.16v-5.299c0-1.19-.99-2.16-2.207-2.16h-48.13Zm48.13 11.31h-48.13c-2.17 0-3.935-1.728-3.935-3.851v-5.299c0-2.123 1.765-3.85 3.935-3.85h48.13c2.17 0 3.935 1.727 3.935 3.85v5.299c0 2.123-1.764 3.851-3.935 3.851Z"/>

<path fill="#F2F9FF" d="M314.136 203.85v5.299c0 1.657-1.377 3.006-3.071 3.006h-48.13c-1.693 0-3.071-1.35-3.071-3.006v-5.299c0-1.657 1.378-3.005 3.071-3.005h48.13c1.694 0 3.071 1.348 3.071 3.005"/>

<path fill="#FFF" d="M265.04 212.155h6.32v-11.31h-6.32z"/>

<path fill="#B8CAD9" d="M295.933 212.155h11.011v-11.31h-11.011z"/>

<path fill="#2D3C53" d="M262.935 201.69c-1.217 0-2.207.97-2.207 2.16v5.299c0 1.19.99 2.16 2.207 2.16h48.13c1.217 0 2.207-.97 2.207-2.16v-5.299c0-1.19-.99-2.16-2.207-2.16h-48.13Zm48.13 11.31h-48.13c-2.17 0-3.935-1.728-3.935-3.851v-5.299c0-2.123 1.765-3.85 3.935-3.85h48.13c2.17 0 3.935 1.727 3.935 3.85v5.299c0 2.123-1.764 3.851-3.935 3.851Z"/>

<path fill="#F2F9FF" d="M314.136 190.85v5.299c0 1.657-1.377 3.006-3.071 3.006h-48.13c-1.693 0-3.071-1.35-3.071-3.006v-5.299c0-1.657 1.378-3.005 3.071-3.005h48.13c1.694 0 3.071 1.348 3.071 3.005"/>

<path fill="#FFF" d="M265.04 199.155h6.32v-11.31h-6.32z"/>

<path fill="#B8CAD9" d="M295.933 199.155h11.011v-11.31h-11.011z"/>

<path fill="#2D3C53" d="M262.935 188.69c-1.217 0-2.207.97-2.207 2.16v5.299c0 1.19.99 2.16 2.207 2.16h48.13c1.217 0 2.207-.97 2.207-2.16v-5.299c0-1.19-.99-2.16-2.207-2.16h-48.13Zm48.13 11.31h-48.13c-2.17 0-3.935-1.728-3.935-3.851v-5.299c0-2.123 1.765-3.85 3.935-3.85h48.13c2.17 0 3.935 1.727 3.935 3.85v5.299c0 2.123-1.764 3.851-3.935 3.851Z"/>

<path fill="#F2F9FF" d="M314.136 177.85v5.299c0 1.657-1.377 3.006-3.071 3.006h-48.13c-1.693 0-3.071-1.35-3.071-3.006v-5.299c0-1.657 1.378-3.005 3.071-3.005h48.13c1.694 0 3.071 1.348 3.071 3.005"/>

<path fill="#FFF" d="M265.04 186.155h6.32v-11.31h-6.32z"/>

<path fill="#B8CAD9" d="M295.933 186.155h11.011v-11.31h-11.011z"/>

<path fill="#2D3C53" d="M262.935 175.69c-1.217 0-2.207.97-2.207 2.16v5.299c0 1.19.99 2.16 2.207 2.16h48.13c1.217 0 2.207-.97 2.207-2.16v-5.299c0-1.19-.99-2.16-2.207-2.16h-48.13Zm48.13 11.31h-48.13c-2.17 0-3.935-1.728-3.935-3.851v-5.299c0-2.123 1.765-3.85 3.935-3.85h48.13c2.17 0 3.935 1.727 3.935 3.85v5.299c0 2.123-1.764 3.851-3.935 3.851Z"/>

<path fill="#F2F9FF" d="M314.136 164.85v5.299c0 1.657-1.377 3.006-3.071 3.006h-48.13c-1.693 0-3.071-1.35-3.071-3.006v-5.299c0-1.657 1.378-3.005 3.071-3.005h48.13c1.694 0 3.071 1.348 3.071 3.005"/>

<path fill="#FFF" d="M265.04 173.155h6.32v-11.31h-6.32z"/>

<path fill="#B8CAD9" d="M295.933 173.155h11.011v-11.31h-11.011z"/>

<path fill="#2D3C53" d="M262.935 162.69c-1.217 0-2.207.97-2.207 2.16v5.299c0 1.19.99 2.16 2.207 2.16h48.13c1.217 0 2.207-.97 2.207-2.16v-5.299c0-1.19-.99-2.16-2.207-2.16h-48.13Zm48.13 11.31h-48.13c-2.17 0-3.935-1.728-3.935-3.851v-5.299c0-2.123 1.765-3.85 3.935-3.85h48.13c2.17 0 3.935 1.727 3.935 3.85v5.299c0 2.123-1.764 3.851-3.935 3.851Z"/>

<path fill="#F2F9FF" d="M314.136 151.85v5.299c0 1.657-1.377 3.006-3.071 3.006h-48.13c-1.693 0-3.071-1.35-3.071-3.006v-5.299c0-1.657 1.378-3.005 3.071-3.005h48.13c1.694 0 3.071 1.348 3.071 3.005"/>

<path fill="#FFF" d="M265.04 160.155h6.32v-11.31h-6.32z"/>

<path fill="#B8CAD9" d="M295.933 160.155h11.011v-11.31h-11.011z"/>

<path fill="#2D3C53" d="M262.935 149.69c-1.217 0-2.207.97-2.207 2.16v5.299c0 1.19.99 2.16 2.207 2.16h48.13c1.217 0 2.207-.97 2.207-2.16v-5.299c0-1.19-.99-2.16-2.207-2.16h-48.13Zm48.13 11.31h-48.13c-2.17 0-3.935-1.728-3.935-3.851v-5.299c0-2.123 1.765-3.85 3.935-3.85h48.13c2.17 0 3.935 1.727 3.935 3.85v5.299c0 2.123-1.764 3.851-3.935 3.851Z"/>

<path fill="#F2F9FF" d="M253.136 255.85v5.299c0 1.657-1.377 3.006-3.071 3.006h-48.13c-1.693 0-3.071-1.35-3.071-3.006v-5.299c0-1.657 1.378-3.005 3.071-3.005h48.13c1.694 0 3.071 1.348 3.071 3.005"/>

<path fill="#FFF" d="M204.04 264.155h6.32v-11.31h-6.32z"/>

<path fill="#B8CAD9" d="M234.933 264.155h11.011v-11.31h-11.011z"/>

<path fill="#2D3C53" d="M201.935 253.69c-1.217 0-2.207.97-2.207 2.16v5.299c0 1.19.99 2.16 2.207 2.16h48.13c1.217 0 2.207-.97 2.207-2.16v-5.299c0-1.19-.99-2.16-2.207-2.16h-48.13Zm48.13 11.31h-48.13c-2.17 0-3.935-1.728-3.935-3.851v-5.299c0-2.123 1.765-3.85 3.935-3.85h48.13c2.17 0 3.935 1.727 3.935 3.85v5.299c0 2.123-1.764 3.851-3.935 3.851Z"/>

<path fill="#F2F9FF" d="M253.136 242.85v5.299c0 1.657-1.377 3.006-3.071 3.006h-48.13c-1.693 0-3.071-1.35-3.071-3.006v-5.299c0-1.657 1.378-3.005 3.071-3.005h48.13c1.694 0 3.071 1.348 3.071 3.005"/>

<path fill="#FFF" d="M204.04 251.155h6.32v-11.31h-6.32z"/>

<path fill="#B8CAD9" d="M234.933 251.155h11.011v-11.31h-11.011z"/>

<path fill="#2D3C53" d="M201.935 240.69c-1.217 0-2.207.97-2.207 2.16v5.299c0 1.19.99 2.16 2.207 2.16h48.13c1.217 0 2.207-.97 2.207-2.16v-5.299c0-1.19-.99-2.16-2.207-2.16h-48.13Zm48.13 11.31h-48.13c-2.17 0-3.935-1.728-3.935-3.851v-5.299c0-2.123 1.765-3.85 3.935-3.85h48.13c2.17 0 3.935 1.727 3.935 3.85v5.299c0 2.123-1.764 3.851-3.935 3.851Z"/>

<path fill="#F2F9FF" d="M253.136 229.85v5.299c0 1.657-1.377 3.006-3.071 3.006h-48.13c-1.693 0-3.071-1.35-3.071-3.006v-5.299c0-1.657 1.378-3.005 3.071-3.005h48.13c1.694 0 3.071 1.348 3.071 3.005"/>

<path fill="#FFF" d="M204.04 238.155h6.32v-11.31h-6.32z"/>

<path fill="#B8CAD9" d="M234.933 238.155h11.011v-11.31h-11.011z"/>

<path fill="#2D3C53" d="M201.935 227.69c-1.217 0-2.207.97-2.207 2.16v5.299c0 1.19.99 2.16 2.207 2.16h48.13c1.217 0 2.207-.97 2.207-2.16v-5.299c0-1.19-.99-2.16-2.207-2.16h-48.13Zm48.13 11.31h-48.13c-2.17 0-3.935-1.728-3.935-3.851v-5.299c0-2.123 1.765-3.85 3.935-3.85h48.13c2.17 0 3.935 1.727 3.935 3.85v5.299c0 2.123-1.764 3.851-3.935 3.851Z"/>

<path fill="#F2F9FF" d="M253.136 216.85v5.299c0 1.657-1.377 3.006-3.071 3.006h-48.13c-1.693 0-3.071-1.35-3.071-3.006v-5.299c0-1.657 1.378-3.005 3.071-3.005h48.13c1.694 0 3.071 1.348 3.071 3.005"/>

<path fill="#FFF" d="M204.04 225.155h6.32v-11.31h-6.32z"/>

<path fill="#B8CAD9" d="M234.933 225.155h11.011v-11.31h-11.011z"/>

<path fill="#2D3C53" d="M201.935 214.69c-1.217 0-2.207.97-2.207 2.16v5.299c0 1.19.99 2.16 2.207 2.16h48.13c1.217 0 2.207-.97 2.207-2.16v-5.299c0-1.19-.99-2.16-2.207-2.16h-48.13Zm48.13 11.31h-48.13c-2.17 0-3.935-1.728-3.935-3.851v-5.299c0-2.123 1.765-3.85 3.935-3.85h48.13c2.17 0 3.935 1.727 3.935 3.85v5.299c0 2.123-1.764 3.851-3.935 3.851Z"/>

<path fill="#F2F9FF" d="M253.136 203.85v5.299c0 1.657-1.377 3.006-3.071 3.006h-48.13c-1.693 0-3.071-1.35-3.071-3.006v-5.299c0-1.657 1.378-3.005 3.071-3.005h48.13c1.694 0 3.071 1.348 3.071 3.005"/>

<path fill="#FFF" d="M204.04 212.155h6.32v-11.31h-6.32z"/>

<path fill="#B8CAD9" d="M234.933 212.155h11.011v-11.31h-11.011z"/>

<path fill="#2D3C53" d="M201.935 201.69c-1.217 0-2.207.97-2.207 2.16v5.299c0 1.19.99 2.16 2.207 2.16h48.13c1.217 0 2.207-.97 2.207-2.16v-5.299c0-1.19-.99-2.16-2.207-2.16h-48.13Zm48.13 11.31h-48.13c-2.17 0-3.935-1.728-3.935-3.851v-5.299c0-2.123 1.765-3.85 3.935-3.85h48.13c2.17 0 3.935 1.727 3.935 3.85v5.299c0 2.123-1.764 3.851-3.935 3.851Z"/>

<path fill="#F2F9FF" d="M253.136 190.85v5.299c0 1.657-1.377 3.006-3.071 3.006h-48.13c-1.693 0-3.071-1.35-3.071-3.006v-5.299c0-1.657 1.378-3.005 3.071-3.005h48.13c1.694 0 3.071 1.348 3.071 3.005"/>

<path fill="#FFF" d="M204.04 199.155h6.32v-11.31h-6.32z"/>

<path fill="#B8CAD9" d="M234.933 199.155h11.011v-11.31h-11.011z"/>

<path fill="#2D3C53" d="M201.935 188.69c-1.217 0-2.207.97-2.207 2.16v5.299c0 1.19.99 2.16 2.207 2.16h48.13c1.217 0 2.207-.97 2.207-2.16v-5.299c0-1.19-.99-2.16-2.207-2.16h-48.13Zm48.13 11.31h-48.13c-2.17 0-3.935-1.728-3.935-3.851v-5.299c0-2.123 1.765-3.85 3.935-3.85h48.13c2.17 0 3.935 1.727 3.935 3.85v5.299c0 2.123-1.764 3.851-3.935 3.851Z"/>

<path fill="#F2F9FF" d="M253.136 177.85v5.299c0 1.657-1.377 3.006-3.071 3.006h-48.13c-1.693 0-3.071-1.35-3.071-3.006v-5.299c0-1.657 1.378-3.005 3.071-3.005h48.13c1.694 0 3.071 1.348 3.071 3.005"/>

<path fill="#FFF" d="M204.04 186.155h6.32v-11.31h-6.32z"/>

<path fill="#B8CAD9" d="M234.933 186.155h11.011v-11.31h-11.011z"/>

<path fill="#2D3C53" d="M201.935 175.69c-1.217 0-2.207.97-2.207 2.16v5.299c0 1.19.99 2.16 2.207 2.16h48.13c1.217 0 2.207-.97 2.207-2.16v-5.299c0-1.19-.99-2.16-2.207-2.16h-48.13Zm48.13 11.31h-48.13c-2.17 0-3.935-1.728-3.935-3.851v-5.299c0-2.123 1.765-3.85 3.935-3.85h48.13c2.17 0 3.935 1.727 3.935 3.85v5.299c0 2.123-1.764 3.851-3.935 3.851Z"/>

<path fill="#F2F9FF" d="M253.136 164.85v5.299c0 1.657-1.377 3.006-3.071 3.006h-48.13c-1.693 0-3.071-1.35-3.071-3.006v-5.299c0-1.657 1.378-3.005 3.071-3.005h48.13c1.694 0 3.071 1.348 3.071 3.005"/>

<path fill="#FFF" d="M204.04 173.155h6.32v-11.31h-6.32z"/>

<path fill="#B8CAD9" d="M234.933 173.155h11.011v-11.31h-11.011z"/>

<path fill="#2D3C53" d="M201.935 162.69c-1.217 0-2.207.97-2.207 2.16v5.299c0 1.19.99 2.16 2.207 2.16h48.13c1.217 0 2.207-.97 2.207-2.16v-5.299c0-1.19-.99-2.16-2.207-2.16h-48.13Zm48.13 11.31h-48.13c-2.17 0-3.935-1.728-3.935-3.851v-5.299c0-2.123 1.765-3.85 3.935-3.85h48.13c2.17 0 3.935 1.727 3.935 3.85v5.299c0 2.123-1.764 3.851-3.935 3.851Z"/>

<path fill="#F2F9FF" d="M192.136 255.85v5.299c0 1.657-1.377 3.006-3.071 3.006h-48.13c-1.693 0-3.071-1.35-3.071-3.006v-5.299c0-1.657 1.378-3.005 3.071-3.005h48.13c1.694 0 3.071 1.348 3.071 3.005"/>

<path fill="#FFF" d="M143.04 264.155h6.32v-11.31h-6.32z"/>

<path fill="#B8CAD9" d="M173.933 264.155h11.011v-11.31h-11.011z"/>

<path fill="#2D3C53" d="M140.935 253.69c-1.217 0-2.207.97-2.207 2.16v5.299c0 1.19.99 2.16 2.207 2.16h48.13c1.217 0 2.207-.97 2.207-2.16v-5.299c0-1.19-.99-2.16-2.207-2.16h-48.13Zm48.13 11.31h-48.13c-2.17 0-3.935-1.728-3.935-3.851v-5.299c0-2.123 1.765-3.85 3.935-3.85h48.13c2.17 0 3.935 1.727 3.935 3.85v5.299c0 2.123-1.764 3.851-3.935 3.851Z"/>

<path fill="#F2F9FF" d="M192.136 242.85v5.299c0 1.657-1.377 3.006-3.071 3.006h-48.13c-1.693 0-3.071-1.35-3.071-3.006v-5.299c0-1.657 1.378-3.005 3.071-3.005h48.13c1.694 0 3.071 1.348 3.071 3.005"/>

<path fill="#FFF" d="M143.04 251.155h6.32v-11.31h-6.32z"/>

<path fill="#B8CAD9" d="M173.933 251.155h11.011v-11.31h-11.011z"/>

<path fill="#2D3C53" d="M140.935 240.69c-1.217 0-2.207.97-2.207 2.16v5.299c0 1.19.99 2.16 2.207 2.16h48.13c1.217 0 2.207-.97 2.207-2.16v-5.299c0-1.19-.99-2.16-2.207-2.16h-48.13Zm48.13 11.31h-48.13c-2.17 0-3.935-1.728-3.935-3.851v-5.299c0-2.123 1.765-3.85 3.935-3.85h48.13c2.17 0 3.935 1.727 3.935 3.85v5.299c0 2.123-1.764 3.851-3.935 3.851Z"/>

<path fill="#F2F9FF" d="M192.136 229.85v5.299c0 1.657-1.377 3.006-3.071 3.006h-48.13c-1.693 0-3.071-1.35-3.071-3.006v-5.299c0-1.657 1.378-3.005 3.071-3.005h48.13c1.694 0 3.071 1.348 3.071 3.005"/>

<path fill="#FFF" d="M143.04 238.155h6.32v-11.31h-6.32z"/>

<path fill="#B8CAD9" d="M173.933 238.155h11.011v-11.31h-11.011z"/>

<path fill="#2D3C53" d="M140.935 227.69c-1.217 0-2.207.97-2.207 2.16v5.299c0 1.19.99 2.16 2.207 2.16h48.13c1.217 0 2.207-.97 2.207-2.16v-5.299c0-1.19-.99-2.16-2.207-2.16h-48.13Zm48.13 11.31h-48.13c-2.17 0-3.935-1.728-3.935-3.851v-5.299c0-2.123 1.765-3.85 3.935-3.85h48.13c2.17 0 3.935 1.727 3.935 3.85v5.299c0 2.123-1.764 3.851-3.935 3.851Z"/>

<path fill="#F2F9FF" d="M192.136 216.85v5.299c0 1.657-1.377 3.006-3.071 3.006h-48.13c-1.693 0-3.071-1.35-3.071-3.006v-5.299c0-1.657 1.378-3.005 3.071-3.005h48.13c1.694 0 3.071 1.348 3.071 3.005"/>

<path fill="#FFF" d="M143.04 225.155h6.32v-11.31h-6.32z"/>

<path fill="#B8CAD9" d="M173.933 225.155h11.011v-11.31h-11.011z"/>

<path fill="#2D3C53" d="M140.935 214.69c-1.217 0-2.207.97-2.207 2.16v5.299c0 1.19.99 2.16 2.207 2.16h48.13c1.217 0 2.207-.97 2.207-2.16v-5.299c0-1.19-.99-2.16-2.207-2.16h-48.13Zm48.13 11.31h-48.13c-2.17 0-3.935-1.728-3.935-3.851v-5.299c0-2.123 1.765-3.85 3.935-3.85h48.13c2.17 0 3.935 1.727 3.935 3.85v5.299c0 2.123-1.764 3.851-3.935 3.851Z"/>

<path fill="#F2F9FF" d="M192.136 203.85v5.299c0 1.657-1.377 3.006-3.071 3.006h-48.13c-1.693 0-3.071-1.35-3.071-3.006v-5.299c0-1.657 1.378-3.005 3.071-3.005h48.13c1.694 0 3.071 1.348 3.071 3.005"/>

<path fill="#FFF" d="M143.04 212.155h6.32v-11.31h-6.32z"/>

<path fill="#B8CAD9" d="M173.933 212.155h11.011v-11.31h-11.011z"/>

<path fill="#2D3C53" d="M140.935 201.69c-1.217 0-2.207.97-2.207 2.16v5.299c0 1.19.99 2.16 2.207 2.16h48.13c1.217 0 2.207-.97 2.207-2.16v-5.299c0-1.19-.99-2.16-2.207-2.16h-48.13Zm48.13 11.31h-48.13c-2.17 0-3.935-1.728-3.935-3.851v-5.299c0-2.123 1.765-3.85 3.935-3.85h48.13c2.17 0 3.935 1.727 3.935 3.85v5.299c0 2.123-1.764 3.851-3.935 3.851Z"/>

<path fill="#F2F9FF" d="M192.136 190.85v5.299c0 1.657-1.377 3.006-3.071 3.006h-48.13c-1.693 0-3.071-1.35-3.071-3.006v-5.299c0-1.657 1.378-3.005 3.071-3.005h48.13c1.694 0 3.071 1.348 3.071 3.005"/>

<path fill="#FFF" d="M143.04 199.155h6.32v-11.31h-6.32z"/>

<path fill="#B8CAD9" d="M173.933 199.155h11.011v-11.31h-11.011z"/>

<path fill="#2D3C53" d="M140.935 188.69c-1.217 0-2.207.97-2.207 2.16v5.299c0 1.19.99 2.16 2.207 2.16h48.13c1.217 0 2.207-.97 2.207-2.16v-5.299c0-1.19-.99-2.16-2.207-2.16h-48.13Zm48.13 11.31h-48.13c-2.17 0-3.935-1.728-3.935-3.851v-5.299c0-2.123 1.765-3.85 3.935-3.85h48.13c2.17 0 3.935 1.727 3.935 3.85v5.299c0 2.123-1.764 3.851-3.935 3.851Z"/>

<path fill="#F2F9FF" d="M192.136 177.85v5.299c0 1.657-1.377 3.006-3.071 3.006h-48.13c-1.693 0-3.071-1.35-3.071-3.006v-5.299c0-1.657 1.378-3.005 3.071-3.005h48.13c1.694 0 3.071 1.348 3.071 3.005"/>

<path fill="#FFF" d="M143.04 186.155h6.32v-11.31h-6.32z"/>

<path fill="#B8CAD9" d="M173.933 186.155h11.011v-11.31h-11.011z"/>

<path fill="#2D3C53" d="M140.935 175.69c-1.217 0-2.207.97-2.207 2.16v5.299c0 1.19.99 2.16 2.207 2.16h48.13c1.217 0 2.207-.97 2.207-2.16v-5.299c0-1.19-.99-2.16-2.207-2.16h-48.13Zm48.13 11.31h-48.13c-2.17 0-3.935-1.728-3.935-3.851v-5.299c0-2.123 1.765-3.85 3.935-3.85h48.13c2.17 0 3.935 1.727 3.935 3.85v5.299c0 2.123-1.764 3.851-3.935 3.851Z"/>

<path fill="#F2F9FF" d="M131.136 255.85v5.299c0 1.657-1.377 3.006-3.071 3.006h-48.13c-1.693 0-3.071-1.35-3.071-3.006v-5.299c0-1.657 1.378-3.005 3.071-3.005h48.13c1.694 0 3.071 1.348 3.071 3.005"/>

<path fill="#FFF" d="M82.04 264.155h6.32v-11.31h-6.32z"/>

<path fill="#B8CAD9" d="M112.933 264.155h11.011v-11.31h-11.011z"/>

<path fill="#2D3C53" d="M79.935 253.69c-1.217 0-2.207.97-2.207 2.16v5.299c0 1.19.99 2.16 2.207 2.16h48.13c1.217 0 2.207-.97 2.207-2.16v-5.299c0-1.19-.99-2.16-2.207-2.16h-48.13Zm48.13 11.31h-48.13c-2.17 0-3.935-1.728-3.935-3.851v-5.299c0-2.123 1.765-3.85 3.935-3.85h48.13c2.17 0 3.935 1.727 3.935 3.85v5.299c0 2.123-1.764 3.851-3.935 3.851Z"/>

<path fill="#F2F9FF" d="M131.136 242.85v5.299c0 1.657-1.377 3.006-3.071 3.006h-48.13c-1.693 0-3.071-1.35-3.071-3.006v-5.299c0-1.657 1.378-3.005 3.071-3.005h48.13c1.694 0 3.071 1.348 3.071 3.005"/>

<path fill="#FFF" d="M82.04 251.155h6.32v-11.31h-6.32z"/>

<path fill="#B8CAD9" d="M112.933 251.155h11.011v-11.31h-11.011z"/>

<path fill="#2D3C53" d="M79.935 240.69c-1.217 0-2.207.97-2.207 2.16v5.299c0 1.19.99 2.16 2.207 2.16h48.13c1.217 0 2.207-.97 2.207-2.16v-5.299c0-1.19-.99-2.16-2.207-2.16h-48.13Zm48.13 11.31h-48.13c-2.17 0-3.935-1.728-3.935-3.851v-5.299c0-2.123 1.765-3.85 3.935-3.85h48.13c2.17 0 3.935 1.727 3.935 3.85v5.299c0 2.123-1.764 3.851-3.935 3.851Z"/>

<path fill="#F2F9FF" d="M131.136 229.85v5.299c0 1.657-1.377 3.006-3.071 3.006h-48.13c-1.693 0-3.071-1.35-3.071-3.006v-5.299c0-1.657 1.378-3.005 3.071-3.005h48.13c1.694 0 3.071 1.348 3.071 3.005"/>

<path fill="#FFF" d="M82.04 238.155h6.32v-11.31h-6.32z"/>

<path fill="#B8CAD9" d="M112.933 238.155h11.011v-11.31h-11.011z"/>

<path fill="#2D3C53" d="M79.935 227.69c-1.217 0-2.207.97-2.207 2.16v5.299c0 1.19.99 2.16 2.207 2.16h48.13c1.217 0 2.207-.97 2.207-2.16v-5.299c0-1.19-.99-2.16-2.207-2.16h-48.13Zm48.13 11.31h-48.13c-2.17 0-3.935-1.728-3.935-3.851v-5.299c0-2.123 1.765-3.85 3.935-3.85h48.13c2.17 0 3.935 1.727 3.935 3.85v5.299c0 2.123-1.764 3.851-3.935 3.851Z"/>

<path fill="#F2F9FF" d="M131.136 216.85v5.299c0 1.657-1.377 3.006-3.071 3.006h-48.13c-1.693 0-3.071-1.35-3.071-3.006v-5.299c0-1.657 1.378-3.005 3.071-3.005h48.13c1.694 0 3.071 1.348 3.071 3.005"/>

<path fill="#FFF" d="M82.04 225.155h6.32v-11.31h-6.32z"/>

<path fill="#B8CAD9" d="M112.933 225.155h11.011v-11.31h-11.011z"/>

<path fill="#2D3C53" d="M79.935 214.69c-1.217 0-2.207.97-2.207 2.16v5.299c0 1.19.99 2.16 2.207 2.16h48.13c1.217 0 2.207-.97 2.207-2.16v-5.299c0-1.19-.99-2.16-2.207-2.16h-48.13Zm48.13 11.31h-48.13c-2.17 0-3.935-1.728-3.935-3.851v-5.299c0-2.123 1.765-3.85 3.935-3.85h48.13c2.17 0 3.935 1.727 3.935 3.85v5.299c0 2.123-1.764 3.851-3.935 3.851Z"/>

<path fill="#F2F9FF" d="M131.136 203.85v5.299c0 1.657-1.377 3.006-3.071 3.006h-48.13c-1.693 0-3.071-1.35-3.071-3.006v-5.299c0-1.657 1.378-3.005 3.071-3.005h48.13c1.694 0 3.071 1.348 3.071 3.005"/>

<path fill="#FFF" d="M82.04 212.155h6.32v-11.31h-6.32z"/>

<path fill="#B8CAD9" d="M112.933 212.155h11.011v-11.31h-11.011z"/>

<path fill="#2D3C53" d="M79.935 201.69c-1.217 0-2.207.97-2.207 2.16v5.299c0 1.19.99 2.16 2.207 2.16h48.13c1.217 0 2.207-.97 2.207-2.16v-5.299c0-1.19-.99-2.16-2.207-2.16h-48.13Zm48.13 11.31h-48.13c-2.17 0-3.935-1.728-3.935-3.851v-5.299c0-2.123 1.765-3.85 3.935-3.85h48.13c2.17 0 3.935 1.727 3.935 3.85v5.299c0 2.123-1.764 3.851-3.935 3.851Z"/>

<path fill="#F2F9FF" d="M131.136 190.85v5.299c0 1.657-1.377 3.006-3.071 3.006h-48.13c-1.693 0-3.071-1.35-3.071-3.006v-5.299c0-1.657 1.378-3.005 3.071-3.005h48.13c1.694 0 3.071 1.348 3.071 3.005"/>

<path fill="#FFF" d="M82.04 199.155h6.32v-11.31h-6.32z"/>

<path fill="#B8CAD9" d="M112.933 199.155h11.011v-11.31h-11.011z"/>

<path fill="#2D3C53" d="M79.935 188.69c-1.217 0-2.207.97-2.207 2.16v5.299c0 1.19.99 2.16 2.207 2.16h48.13c1.217 0 2.207-.97 2.207-2.16v-5.299c0-1.19-.99-2.16-2.207-2.16h-48.13Zm48.13 11.31h-48.13c-2.17 0-3.935-1.728-3.935-3.851v-5.299c0-2.123 1.765-3.85 3.935-3.85h48.13c2.17 0 3.935 1.727 3.935 3.85v5.299c0 2.123-1.764 3.851-3.935 3.851Z"/>

<path fill="#F2F9FF" d="M70.136 255.85v5.299c0 1.657-1.377 3.006-3.071 3.006h-48.13c-1.693 0-3.071-1.35-3.071-3.006v-5.299c0-1.657 1.378-3.005 3.071-3.005h48.13c1.694 0 3.071 1.348 3.071 3.005"/>

<path fill="#FFF" d="M21.04 264.155h6.32v-11.31h-6.32z"/>

<path fill="#B8CAD9" d="M51.933 264.155h11.011v-11.31H51.933z"/>

<path fill="#2D3C53" d="M18.935 253.69c-1.217 0-2.207.97-2.207 2.16v5.299c0 1.19.99 2.16 2.207 2.16h48.13c1.217 0 2.207-.97 2.207-2.16v-5.299c0-1.19-.99-2.16-2.207-2.16h-48.13ZM67.065 265h-48.13c-2.17 0-3.935-1.728-3.935-3.851v-5.299c0-2.123 1.765-3.85 3.935-3.85h48.13c2.17 0 3.935 1.727 3.935 3.85v5.299c0 2.123-1.764 3.851-3.935 3.851Z"/>

<path fill="#F2F9FF" d="M70.136 242.85v5.299c0 1.657-1.377 3.006-3.071 3.006h-48.13c-1.693 0-3.071-1.35-3.071-3.006v-5.299c0-1.657 1.378-3.005 3.071-3.005h48.13c1.694 0 3.071 1.348 3.071 3.005"/>

<path fill="#FFF" d="M21.04 251.155h6.32v-11.31h-6.32z"/>

<path fill="#B8CAD9" d="M51.933 251.155h11.011v-11.31H51.933z"/>

<path fill="#2D3C53" d="M18.935 240.69c-1.217 0-2.207.97-2.207 2.16v5.299c0 1.19.99 2.16 2.207 2.16h48.13c1.217 0 2.207-.97 2.207-2.16v-5.299c0-1.19-.99-2.16-2.207-2.16h-48.13ZM67.065 252h-48.13c-2.17 0-3.935-1.728-3.935-3.851v-5.299c0-2.123 1.765-3.85 3.935-3.85h48.13c2.17 0 3.935 1.727 3.935 3.85v5.299c0 2.123-1.764 3.851-3.935 3.851Z"/>

<path fill="#F2F9FF" d="M70.136 229.85v5.299c0 1.657-1.377 3.006-3.071 3.006h-48.13c-1.693 0-3.071-1.35-3.071-3.006v-5.299c0-1.657 1.378-3.005 3.071-3.005h48.13c1.694 0 3.071 1.348 3.071 3.005"/>

<path fill="#FFF" d="M21.04 238.155h6.32v-11.31h-6.32z"/>

<path fill="#B8CAD9" d="M51.933 238.155h11.011v-11.31H51.933z"/>

<path fill="#2D3C53" d="M18.935 227.69c-1.217 0-2.207.97-2.207 2.16v5.299c0 1.19.99 2.16 2.207 2.16h48.13c1.217 0 2.207-.97 2.207-2.16v-5.299c0-1.19-.99-2.16-2.207-2.16h-48.13ZM67.065 239h-48.13c-2.17 0-3.935-1.728-3.935-3.851v-5.299c0-2.123 1.765-3.85 3.935-3.85h48.13c2.17 0 3.935 1.727 3.935 3.85v5.299c0 2.123-1.764 3.851-3.935 3.851Z"/>

<path fill="#F2F9FF" d="M70.136 216.85v5.299c0 1.657-1.377 3.006-3.071 3.006h-48.13c-1.693 0-3.071-1.35-3.071-3.006v-5.299c0-1.657 1.378-3.005 3.071-3.005h48.13c1.694 0 3.071 1.348 3.071 3.005"/>

<path fill="#FFF" d="M21.04 225.155h6.32v-11.31h-6.32z"/>

<path fill="#B8CAD9" d="M51.933 225.155h11.011v-11.31H51.933z"/>

<path fill="#2D3C53" d="M18.935 214.69c-1.217 0-2.207.97-2.207 2.16v5.299c0 1.19.99 2.16 2.207 2.16h48.13c1.217 0 2.207-.97 2.207-2.16v-5.299c0-1.19-.99-2.16-2.207-2.16h-48.13ZM67.065 226h-48.13c-2.17 0-3.935-1.728-3.935-3.851v-5.299c0-2.123 1.765-3.85 3.935-3.85h48.13c2.17 0 3.935 1.727 3.935 3.85v5.299c0 2.123-1.764 3.851-3.935 3.851Z"/>

<path fill="#F2F9FF" d="M70.136 203.85v5.299c0 1.657-1.377 3.006-3.071 3.006h-48.13c-1.693 0-3.071-1.35-3.071-3.006v-5.299c0-1.657 1.378-3.005 3.071-3.005h48.13c1.694 0 3.071 1.348 3.071 3.005"/>

<path fill="#FFF" d="M21.04 212.155h6.32v-11.31h-6.32z"/>

<path fill="#B8CAD9" d="M51.933 212.155h11.011v-11.31H51.933z"/>

<path fill="#2D3C53" d="M18.935 201.69c-1.217 0-2.207.97-2.207 2.16v5.299c0 1.19.99 2.16 2.207 2.16h48.13c1.217 0 2.207-.97 2.207-2.16v-5.299c0-1.19-.99-2.16-2.207-2.16h-48.13ZM67.065 213h-48.13c-2.17 0-3.935-1.728-3.935-3.851v-5.299c0-2.123 1.765-3.85 3.935-3.85h48.13c2.17 0 3.935 1.727 3.935 3.85v5.299c0 2.123-1.764 3.851-3.935 3.851Z"/>

<path class="svg-colour-text" fill="#fff" fill-rule="nonzero" d="M638.851 289v-2.037l3.423-5.397c.28-.448.486-.85.62-1.207.133-.357.199-.809.199-1.355v-1.47c0-.616-.28-.924-.84-.924h-.126c-.56 0-.84.308-.84.924v2.667h-2.562v-2.835c0-.896.245-1.582.735-2.058.49-.476 1.169-.714 2.037-.714h1.344c.91 0 1.606.238 2.09.714.482.476.724 1.162.724 2.058v1.638c0 .588-.056 1.095-.168 1.522-.112.428-.27.83-.472 1.208-.203.378-.438.777-.704 1.197l-2.436 3.843h3.906V289h-6.93Zm11.193.126c-.854 0-1.53-.234-2.026-.703-.498-.47-.746-1.159-.746-2.069v-8.988c0-.91.248-1.6.745-2.068.497-.47 1.173-.704 2.027-.704h1.428c.868 0 1.547.235 2.037.704s.735 1.158.735 2.068v8.988c0 .91-.245 1.6-.735 2.069-.49.469-1.169.703-2.037.703h-1.428Zm-.357-11.613v5.775l2.142-5.901c-.028-.28-.122-.486-.284-.62-.16-.132-.367-.199-.619-.199h-.336c-.266 0-.483.077-.651.231-.168.154-.252.392-.252.714Zm.903 9.639h.336c.28 0 .5-.077.661-.231.162-.154.242-.392.242-.714v-5.775l-2.142 5.901c.028.28.122.486.284.62.16.133.367.199.619.199Zm5.229 1.848v-2.037l3.423-5.397c.28-.448.487-.85.62-1.207.133-.357.199-.809.199-1.355v-1.47c0-.616-.28-.924-.84-.924h-.126c-.56 0-.84.308-.84.924v2.667h-2.562v-2.835c0-.896.245-1.582.735-2.058.49-.476 1.169-.714 2.037-.714h1.344c.91 0 1.606.238 2.09.714.482.476.724 1.162.724 2.058v1.638c0 .588-.056 1.095-.168 1.522-.112.428-.27.83-.473 1.208-.202.378-.437.777-.703 1.197l-2.436 3.843h3.906V289h-6.93Zm11.172.126c-.882 0-1.572-.234-2.068-.703-.497-.47-.746-1.159-.746-2.069v-2.394h2.562v2.184c0 .644.28.966.84.966h.231c.56 0 .84-.315.84-.945v-2.667c0-.63-.245-.945-.735-.945h-1.533v-2.016h1.428c.49 0 .735-.308.735-.924v-2.058c0-.63-.28-.945-.84-.945h-.126c-.56 0-.84.315-.84.945v1.617h-2.457v-1.806c0-.91.248-1.6.745-2.068.497-.47 1.173-.704 2.027-.704h1.239c.882 0 1.572.235 2.068.704.498.469.746 1.158.746 2.068v2.184c0 .924-.385 1.561-1.155 1.911.84.336 1.26 1.001 1.26 1.995v2.898c0 .91-.249 1.6-.745 2.069-.497.469-1.187.703-2.069.703h-1.407Zm-91.14-.126v-2.037l3.423-5.397c.28-.448.486-.85.62-1.207.133-.357.199-.809.199-1.355v-1.47c0-.616-.28-.924-.84-.924h-.126c-.56 0-.84.308-.84.924v2.667h-2.562v-2.835c0-.896.245-1.582.735-2.058.49-.476 1.169-.714 2.037-.714h1.344c.91 0 1.606.238 2.09.714.482.476.724 1.162.724 2.058v1.638c0 .588-.056 1.095-.168 1.522-.112.428-.27.83-.472 1.208-.203.378-.438.777-.704 1.197l-2.436 3.843h3.906V289h-6.93Zm11.193.126c-.854 0-1.53-.234-2.026-.703-.498-.47-.746-1.159-.746-2.069v-8.988c0-.91.248-1.6.745-2.068.497-.47 1.173-.704 2.027-.704h1.428c.868 0 1.547.235 2.037.704s.735 1.158.735 2.068v8.988c0 .91-.245 1.6-.735 2.069-.49.469-1.169.703-2.037.703h-1.428Zm-.357-11.613v5.775l2.142-5.901c-.028-.28-.122-.486-.284-.62-.16-.132-.367-.199-.619-.199h-.336c-.266 0-.483.077-.651.231-.168.154-.252.392-.252.714Zm.903 9.639h.336c.28 0 .5-.077.661-.231.162-.154.242-.392.242-.714v-5.775l-2.142 5.901c.028.28.122.486.284.62.16.133.367.199.619.199Zm5.229 1.848v-2.037l3.423-5.397c.28-.448.487-.85.62-1.207.133-.357.199-.809.199-1.355v-1.47c0-.616-.28-.924-.84-.924h-.126c-.56 0-.84.308-.84.924v2.667h-2.562v-2.835c0-.896.245-1.582.735-2.058.49-.476 1.169-.714 2.037-.714h1.344c.91 0 1.606.238 2.09.714.482.476.724 1.162.724 2.058v1.638c0 .588-.056 1.095-.168 1.522-.112.428-.27.83-.473 1.208-.202.378-.437.777-.703 1.197l-2.436 3.843h3.906V289h-6.93Zm8.484 0v-2.037l3.423-5.397c.28-.448.486-.85.62-1.207.133-.357.199-.809.199-1.355v-1.47c0-.616-.28-.924-.84-.924h-.126c-.56 0-.84.308-.84.924v2.667h-2.562v-2.835c0-.896.245-1.582.735-2.058.49-.476 1.169-.714 2.037-.714h1.344c.91 0 1.606.238 2.09.714.482.476.724 1.162.724 2.058v1.638c0 .588-.056 1.095-.168 1.522-.112.428-.27.83-.472 1.208-.203.378-.438.777-.704 1.197l-2.436 3.843h3.906V289h-6.93Zm-86.116 0v-2.037l3.423-5.397c.28-.448.486-.85.62-1.207.132-.357.199-.809.199-1.355v-1.47c0-.616-.28-.924-.84-.924h-.126c-.56 0-.84.308-.84.924v2.667h-2.562v-2.835c0-.896.245-1.582.735-2.058.49-.476 1.169-.714 2.037-.714h1.344c.91 0 1.606.238 2.09.714.482.476.724 1.162.724 2.058v1.638c0 .588-.056 1.095-.168 1.522-.112.428-.27.83-.472 1.208-.203.378-.438.777-.704 1.197l-2.436 3.843h3.906V289h-6.93Zm11.193.126c-.854 0-1.53-.234-2.026-.703-.498-.47-.746-1.159-.746-2.069v-8.988c0-.91.249-1.6.746-2.068.496-.47 1.172-.704 2.026-.704h1.428c.868 0 1.547.235 2.037.704s.735 1.158.735 2.068v8.988c0 .91-.245 1.6-.735 2.069-.49.469-1.169.703-2.037.703h-1.428Zm-.357-11.613v5.775l2.142-5.901c-.028-.28-.122-.486-.284-.62-.16-.132-.367-.199-.619-.199h-.336c-.266 0-.483.077-.651.231-.168.154-.252.392-.252.714Zm.903 9.639h.336c.28 0 .5-.077.662-.231.16-.154.241-.392.241-.714v-5.775l-2.142 5.901c.028.28.122.486.284.62.16.133.367.199.619.199Zm5.229 1.848v-2.037l3.423-5.397c.28-.448.486-.85.62-1.207.133-.357.199-.809.199-1.355v-1.47c0-.616-.28-.924-.84-.924h-.126c-.56 0-.84.308-.84.924v2.667h-2.562v-2.835c0-.896.245-1.582.735-2.058.49-.476 1.169-.714 2.037-.714h1.344c.91 0 1.606.238 2.09.714.482.476.724 1.162.724 2.058v1.638c0 .588-.056 1.095-.168 1.522-.112.428-.27.83-.473 1.208-.202.378-.437.777-.703 1.197l-2.436 3.843h3.906V289h-6.93Zm8.463 0v-2.226h2.058v-9.66l-2.058.567v-2.226l2.541-.735h2.079v12.054h1.995V289h-6.615Zm-86.767 0v-2.037l3.423-5.397c.28-.448.486-.85.62-1.207.132-.357.199-.809.199-1.355v-1.47c0-.616-.28-.924-.84-.924h-.126c-.56 0-.84.308-.84.924v2.667h-2.562v-2.835c0-.896.245-1.582.735-2.058.49-.476 1.169-.714 2.037-.714h1.344c.91 0 1.606.238 2.09.714.483.476.724 1.162.724 2.058v1.638c0 .588-.056 1.095-.168 1.522-.112.428-.27.83-.473 1.208-.202.378-.437.777-.703 1.197l-2.436 3.843h3.906V289h-6.93Zm11.193.126c-.854 0-1.53-.234-2.026-.703-.497-.47-.746-1.159-.746-2.069v-8.988c0-.91.249-1.6.745-2.068.498-.47 1.173-.704 2.027-.704h1.428c.868 0 1.547.235 2.037.704s.735 1.158.735 2.068v8.988c0 .91-.245 1.6-.735 2.069-.49.469-1.169.703-2.037.703h-1.428Zm-.357-11.613v5.775l2.142-5.901c-.028-.28-.123-.486-.284-.62-.16-.132-.367-.199-.619-.199h-.336c-.266 0-.483.077-.651.231-.168.154-.252.392-.252.714Zm.903 9.639h.336c.28 0 .5-.077.661-.231.161-.154.242-.392.242-.714v-5.775l-2.142 5.901c.028.28.123.486.284.62.16.133.367.199.619.199Zm5.229 1.848v-2.037l3.423-5.397c.28-.448.486-.85.62-1.207.132-.357.199-.809.199-1.355v-1.47c0-.616-.28-.924-.84-.924h-.126c-.56 0-.84.308-.84.924v2.667h-2.562v-2.835c0-.896.245-1.582.735-2.058.49-.476 1.169-.714 2.037-.714h1.344c.91 0 1.606.238 2.09.714.483.476.724 1.162.724 2.058v1.638c0 .588-.056 1.095-.168 1.522-.112.428-.27.83-.472 1.208-.204.378-.438.777-.704 1.197l-2.436 3.843h3.906V289h-6.93Zm11.193.126c-.854 0-1.53-.234-2.026-.703-.498-.47-.746-1.159-.746-2.069v-8.988c0-.91.248-1.6.745-2.068.498-.47 1.173-.704 2.027-.704h1.428c.868 0 1.547.235 2.037.704s.735 1.158.735 2.068v8.988c0 .91-.245 1.6-.735 2.069-.49.469-1.169.703-2.037.703h-1.428Zm-.357-11.613v5.775l2.142-5.901c-.028-.28-.123-.486-.284-.62-.16-.132-.367-.199-.619-.199h-.336c-.266 0-.483.077-.651.231-.168.154-.252.392-.252.714Zm.903 9.639h.336c.28 0 .5-.077.661-.231.161-.154.242-.392.242-.714v-5.775l-2.142 5.901c.028.28.123.486.284.62.16.133.367.199.619.199ZM393.187 289v-2.037l3.423-5.397c.28-.448.486-.85.62-1.207.132-.357.199-.809.199-1.355v-1.47c0-.616-.28-.924-.84-.924h-.126c-.56 0-.84.308-.84.924v2.667h-2.562v-2.835c0-.896.245-1.582.735-2.058.49-.476 1.169-.714 2.037-.714h1.344c.91 0 1.606.238 2.09.714.483.476.724 1.162.724 2.058v1.638c0 .588-.056 1.095-.168 1.522-.112.428-.27.83-.472 1.208-.204.378-.438.777-.704 1.197l-2.436 3.843h3.906V289h-6.93Zm11.193.126c-.854 0-1.53-.234-2.026-.703-.498-.47-.746-1.159-.746-2.069v-8.988c0-.91.248-1.6.745-2.068.498-.47 1.173-.704 2.027-.704h1.428c.868 0 1.547.235 2.037.704s.735 1.158.735 2.068v8.988c0 .91-.245 1.6-.735 2.069-.49.469-1.169.703-2.037.703h-1.428Zm-.357-11.613v5.775l2.142-5.901c-.028-.28-.123-.486-.284-.62-.16-.132-.367-.199-.619-.199h-.336c-.266 0-.483.077-.651.231-.168.154-.252.392-.252.714Zm.903 9.639h.336c.28 0 .5-.077.661-.231.161-.154.242-.392.242-.714v-5.775l-2.142 5.901c.028.28.123.486.284.62.16.133.367.199.619.199Zm5.208 1.848v-2.226h2.058v-9.66l-2.058.567v-2.226l2.541-.735h2.079v12.054h1.995V289h-6.615Zm11.97-14.406c.882 0 1.565.238 2.048.714.483.476.724 1.162.724 2.058v8.988c0 .896-.241 1.582-.724 2.058-.483.476-1.18.714-2.09.714h-1.26c-.896 0-1.589-.238-2.079-.714-.49-.476-.735-1.162-.735-2.058v-1.701h2.562v1.512c0 .63.28.945.84.945h.084c.56 0 .84-.315.84-.945v-3.78l-.378.231c-.56.35-1.008.609-1.344.777a2.198 2.198 0 0 1-.987.252c-.56 0-1.005-.203-1.334-.609-.329-.406-.493-.973-.493-1.701v-3.969c0-.896.245-1.582.735-2.058.49-.476 1.183-.714 2.079-.714h1.512Zm-1.764 5.754c0 .602.21.903.63.903.14 0 .28-.021.42-.063.14-.042.273-.091.399-.147l.525-.21v-3.276c0-.63-.28-.945-.84-.945h-.294c-.56 0-.84.308-.84.924v2.814ZM332.187 289v-2.037l3.423-5.397c.28-.448.486-.85.62-1.207.132-.357.199-.809.199-1.355v-1.47c0-.616-.28-.924-.84-.924h-.126c-.56 0-.84.308-.84.924v2.667h-2.562v-2.835c0-.896.245-1.582.735-2.058.49-.476 1.169-.714 2.037-.714h1.344c.91 0 1.606.238 2.09.714.483.476.724 1.162.724 2.058v1.638c0 .588-.056 1.095-.168 1.522-.112.428-.27.83-.472 1.208-.204.378-.438.777-.704 1.197l-2.436 3.843h3.906V289h-6.93Zm11.193.126c-.854 0-1.53-.234-2.026-.703-.498-.47-.746-1.159-.746-2.069v-8.988c0-.91.248-1.6.745-2.068.498-.47 1.173-.704 2.027-.704h1.428c.868 0 1.547.235 2.037.704s.735 1.158.735 2.068v8.988c0 .91-.245 1.6-.735 2.069-.49.469-1.169.703-2.037.703h-1.428Zm-.357-11.613v5.775l2.142-5.901c-.028-.28-.123-.486-.284-.62-.16-.132-.367-.199-.619-.199h-.336c-.266 0-.483.077-.651.231-.168.154-.252.392-.252.714Zm.903 9.639h.336c.28 0 .5-.077.661-.231.161-.154.242-.392.242-.714v-5.775l-2.142 5.901c.028.28.123.486.284.62.16.133.367.199.619.199Zm5.208 1.848v-2.226h2.058v-9.66l-2.058.567v-2.226l2.541-.735h2.079v12.054h1.995V289h-6.615Zm14.805-2.646c0 .882-.242 1.565-.725 2.048-.483.483-1.172.724-2.068.724h-1.533c-.882 0-1.565-.241-2.048-.724-.483-.483-.724-1.166-.724-2.048v-2.562c0-.588.112-1.06.336-1.417.224-.358.595-.655 1.113-.893-.462-.294-.791-.63-.987-1.008-.196-.378-.294-.84-.294-1.386v-1.722c0-.896.245-1.582.735-2.058.49-.476 1.183-.714 2.079-.714h1.134c.91 0 1.606.238 2.09.714.482.476.724 1.162.724 2.058v1.512c0 .546-.095.99-.284 1.334-.189.343-.514.64-.976.892.49.294.85.648 1.081 1.06.232.413.347.956.347 1.628v2.562Zm-3.381-6.174.378.168a.684.684 0 0 0 .252-.452c.028-.189.042-.472.042-.85v-1.554c0-.616-.273-.924-.819-.924h-.042c-.546 0-.819.308-.819.924v.924c0 .518.06.892.178 1.123.12.232.396.445.83.641Zm-.336 6.972h.336c.56 0 .84-.315.84-.945v-1.848c0-.364-.021-.651-.063-.861a1.018 1.018 0 0 0-.325-.556c-.175-.161-.466-.326-.872-.494l-.294-.126c-.182.14-.305.312-.368.514-.063.203-.094.501-.094.893v2.457c0 .644.28.966.84.966ZM271.817 289v-2.037l3.423-5.397c.28-.448.486-.85.62-1.207.132-.357.199-.809.199-1.355v-1.47c0-.616-.28-.924-.84-.924h-.126c-.56 0-.84.308-.84.924v2.667h-2.562v-2.835c0-.896.245-1.582.735-2.058.49-.476 1.169-.714 2.037-.714h1.344c.91 0 1.606.238 2.09.714.483.476.724 1.162.724 2.058v1.638c0 .588-.056 1.095-.168 1.522-.112.428-.27.83-.472 1.208-.204.378-.438.777-.704 1.197l-2.436 3.843h3.906V289h-6.93Zm11.193.126c-.854 0-1.53-.234-2.026-.703-.498-.47-.746-1.159-.746-2.069v-8.988c0-.91.248-1.6.745-2.068.498-.47 1.173-.704 2.027-.704h1.428c.868 0 1.547.235 2.037.704s.735 1.158.735 2.068v8.988c0 .91-.245 1.6-.735 2.069-.49.469-1.169.703-2.037.703h-1.428Zm-.357-11.613v5.775l2.142-5.901c-.028-.28-.123-.486-.284-.62-.16-.132-.367-.199-.619-.199h-.336c-.266 0-.483.077-.651.231-.168.154-.252.392-.252.714Zm.903 9.639h.336c.28 0 .5-.077.661-.231.161-.154.242-.392.242-.714v-5.775l-2.142 5.901c.028.28.123.486.284.62.16.133.367.199.619.199Zm5.208 1.848v-2.226h2.058v-9.66l-2.058.567v-2.226l2.541-.735h2.079v12.054h1.995V289h-6.615Zm8.148 0 3.255-12.054h-4.074v-2.226h6.468v2.226L299.516 289h-2.604Zm-86.725 0v-2.037l3.423-5.397c.28-.448.486-.85.62-1.207.133-.357.199-.809.199-1.355v-1.47c0-.616-.28-.924-.84-.924h-.126c-.56 0-.84.308-.84.924v2.667h-2.562v-2.835c0-.896.245-1.582.735-2.058.49-.476 1.169-.714 2.037-.714h1.344c.91 0 1.607.238 2.09.714.483.476.724 1.162.724 2.058v1.638c0 .588-.056 1.095-.168 1.522-.112.428-.27.83-.472 1.208-.203.378-.438.777-.704 1.197l-2.436 3.843h3.906V289h-6.93Zm11.193.126c-.854 0-1.53-.234-2.026-.703-.498-.47-.746-1.159-.746-2.069v-8.988c0-.91.249-1.6.745-2.068.498-.47 1.173-.704 2.027-.704h1.428c.868 0 1.547.235 2.037.704s.735 1.158.735 2.068v8.988c0 .91-.245 1.6-.735 2.069-.49.469-1.169.703-2.037.703h-1.428Zm-.357-11.613v5.775l2.142-5.901c-.028-.28-.123-.486-.284-.62-.16-.132-.367-.199-.619-.199h-.336c-.266 0-.483.077-.651.231-.168.154-.252.392-.252.714Zm.903 9.639h.336c.28 0 .5-.077.661-.231.161-.154.242-.392.242-.714v-5.775l-2.142 5.901c.028.28.123.486.284.62.16.133.367.199.619.199Zm5.208 1.848v-2.226h2.058v-9.66l-2.058.567v-2.226l2.541-.735h2.079v12.054h1.995V289h-6.615Zm10.542.126c-.882 0-1.564-.238-2.047-.714-.483-.476-.725-1.162-.725-2.058v-8.988c0-.896.245-1.582.735-2.058.49-.476 1.183-.714 2.079-.714h1.26c.91 0 1.606.238 2.09.714.482.476.724 1.162.724 2.058v1.701h-2.562v-1.512c0-.63-.28-.945-.84-.945h-.084c-.56 0-.84.315-.84.945v3.78l.378-.231a14.247 14.247 0 0 1 1.365-.787c.336-.161.658-.242.966-.242.574 0 1.022.203 1.344.609.322.406.483.973.483 1.701v3.969c0 .896-.242 1.582-.725 2.058-.482.476-1.179.714-2.089.714h-1.512Zm.63-2.016h.294c.56 0 .84-.308.84-.924v-2.814c0-.602-.21-.903-.63-.903-.14 0-.28.021-.42.063-.14.042-.273.091-.399.147l-.525.21v3.276c0 .63.28.945.84.945ZM149.187 289v-2.037l3.423-5.397c.28-.448.486-.85.62-1.207.133-.357.199-.809.199-1.355v-1.47c0-.616-.28-.924-.84-.924h-.126c-.56 0-.84.308-.84.924v2.667h-2.562v-2.835c0-.896.245-1.582.735-2.058.49-.476 1.169-.714 2.037-.714h1.344c.91 0 1.607.238 2.09.714.483.476.724 1.162.724 2.058v1.638c0 .588-.056 1.095-.168 1.522-.112.428-.27.83-.472 1.208-.203.378-.438.777-.704 1.197l-2.436 3.843h3.906V289h-6.93Zm11.193.126c-.854 0-1.53-.234-2.026-.703-.498-.47-.746-1.159-.746-2.069v-8.988c0-.91.249-1.6.745-2.068.498-.47 1.173-.704 2.027-.704h1.428c.868 0 1.547.235 2.037.704s.735 1.158.735 2.068v8.988c0 .91-.245 1.6-.735 2.069-.49.469-1.169.703-2.037.703h-1.428Zm-.357-11.613v5.775l2.142-5.901c-.028-.28-.123-.486-.284-.62-.16-.132-.367-.199-.619-.199h-.336c-.266 0-.483.077-.651.231-.168.154-.252.392-.252.714Zm.903 9.639h.336c.28 0 .5-.077.661-.231.161-.154.242-.392.242-.714v-5.775l-2.142 5.901c.028.28.123.486.284.62.16.133.367.199.619.199Zm5.208 1.848v-2.226h2.058v-9.66l-2.058.567v-2.226l2.541-.735h2.079v12.054h1.995V289h-6.615Zm10.542.126c-.882 0-1.571-.234-2.069-.703-.496-.47-.745-1.159-.745-2.069v-2.289h2.562v2.079c0 .644.28.966.84.966h.21c.56 0 .84-.315.84-.945v-3.024c0-.602-.21-.903-.63-.903-.168 0-.326.031-.472.094a9.342 9.342 0 0 0-.62.305l-.546.273h-2.058l.336-8.19h6.384v2.226h-4.074l-.168 4.2.294-.21c.49-.35.893-.612 1.208-.787a2.19 2.19 0 0 1 1.081-.263c.602 0 1.057.203 1.365.609.308.406.462.994.462 1.764v4.095c0 .91-.249 1.6-.745 2.069-.498.469-1.187.703-2.069.703h-1.386ZM88.187 289v-2.037l3.423-5.397c.28-.448.487-.85.62-1.207.132-.357.199-.809.199-1.355v-1.47c0-.616-.28-.924-.84-.924h-.126c-.56 0-.84.308-.84.924v2.667h-2.562v-2.835c0-.896.245-1.582.735-2.058.49-.476 1.169-.714 2.037-.714h1.344c.91 0 1.606.238 2.09.714.483.476.724 1.162.724 2.058v1.638c0 .588-.056 1.095-.168 1.522-.112.428-.27.83-.472 1.208-.204.378-.438.777-.704 1.197l-2.436 3.843h3.906V289h-6.93Zm11.193.126c-.854 0-1.53-.234-2.026-.703-.498-.47-.746-1.159-.746-2.069v-8.988c0-.91.248-1.6.745-2.068.498-.47 1.173-.704 2.027-.704h1.428c.868 0 1.547.235 2.037.704s.735 1.158.735 2.068v8.988c0 .91-.245 1.6-.735 2.069-.49.469-1.169.703-2.037.703H99.38Zm-.357-11.613v5.775l2.142-5.901c-.028-.28-.123-.486-.284-.62-.16-.132-.367-.199-.619-.199h-.336c-.266 0-.483.077-.651.231-.168.154-.252.392-.252.714Zm.903 9.639h.336c.28 0 .5-.077.662-.231.16-.154.241-.392.241-.714v-5.775l-2.142 5.901c.028.28.123.486.284.62.16.133.367.199.619.199Zm5.208 1.848v-2.226h2.058v-9.66l-2.058.567v-2.226l2.541-.735h2.079v12.054h1.995V289h-6.615Zm11.529 0v-2.919h-4.389v-1.806l3.549-9.555h3.402v9.345h1.26v2.016h-1.26V289h-2.562Zm-2.268-4.935h2.268v-6.111l-2.268 6.111ZM27.187 289v-2.037l3.423-5.397c.28-.448.486-.85.62-1.207.133-.357.199-.809.199-1.355v-1.47c0-.616-.28-.924-.84-.924h-.126c-.56 0-.84.308-.84.924v2.667h-2.562v-2.835c0-.896.245-1.582.735-2.058.49-.476 1.169-.714 2.037-.714h1.344c.91 0 1.606.238 2.09.714.482.476.724 1.162.724 2.058v1.638c0 .588-.056 1.095-.168 1.522-.112.428-.27.83-.473 1.208-.203.378-.437.777-.703 1.197l-2.436 3.843h3.906V289h-6.93Zm11.193.126c-.854 0-1.53-.234-2.027-.703-.497-.47-.745-1.159-.745-2.069v-8.988c0-.91.248-1.6.745-2.068.497-.47 1.173-.704 2.027-.704h1.428c.868 0 1.547.235 2.037.704s.735 1.158.735 2.068v8.988c0 .91-.245 1.6-.735 2.069-.49.469-1.169.703-2.037.703H38.38Zm-.357-11.613v5.775l2.142-5.901c-.028-.28-.123-.486-.283-.62-.161-.132-.368-.199-.62-.199h-.336c-.266 0-.483.077-.651.231-.168.154-.252.392-.252.714Zm.903 9.639h.336c.28 0 .5-.077.661-.231.161-.154.242-.392.242-.714v-5.775l-2.142 5.901c.028.28.122.486.283.62.162.133.368.199.62.199ZM44.134 289v-2.226h2.058v-9.66l-2.058.567v-2.226l2.541-.735h2.079v12.054h1.995V289h-6.615Zm10.521.126c-.882 0-1.572-.234-2.069-.703-.496-.47-.745-1.159-.745-2.069v-2.394h2.562v2.184c0 .644.28.966.84.966h.231c.56 0 .84-.315.84-.945v-2.667c0-.63-.245-.945-.735-.945h-1.533v-2.016h1.428c.49 0 .735-.308.735-.924v-2.058c0-.63-.28-.945-.84-.945h-.126c-.56 0-.84.315-.84.945v1.617h-2.457v-1.806c0-.91.248-1.6.745-2.068.497-.47 1.173-.704 2.027-.704h1.239c.882 0 1.572.235 2.069.704.496.469.745 1.158.745 2.068v2.184c0 .924-.385 1.561-1.155 1.911.84.336 1.26 1.001 1.26 1.995v2.898c0 .91-.248 1.6-.745 2.069-.498.469-1.187.703-2.069.703h-1.407Z"/>

<path stroke="#bf0d3e" stroke-linecap="round" stroke-width="5" d="M592 51 43 168"/>

</g></svg>