<svg xmlns="http://www.w3.org/2000/svg" viewBox="0 0 32 32">
<g fill="none" fill-rule="evenodd">
<circle cx="16" cy="16" r="16" fill="#243A4A"/>
<path fill="#FFF" fill-rule="nonzero" d="m11.456 15.658.862-7.588h8.367v2.471h-5.937l-.37 3.21a4.698 4.698 0 0 1 2.246-.564c1.422 0 2.536.44 3.343 1.322.807.882 1.21 2.116 1.21 3.702 0 .964-.203 1.827-.61 2.59a4.306 4.306 0 0 1-1.748 1.773c-.76.42-1.655.63-2.687.63-.902 0-1.74-.182-2.512-.548-.772-.366-1.383-.88-1.83-1.543-.448-.663-.686-1.418-.713-2.266h2.933c.061.622.278 1.106.65 1.45.373.346.86.519 1.462.519.67 0 1.186-.241 1.548-.723.363-.482.544-1.164.544-2.046 0-.848-.209-1.497-.626-1.948-.417-.451-1.008-.677-1.774-.677-.704 0-1.275.185-1.712.554l-.287.266-2.359-.584Z"/>
</g>
</svg>