<svg xmlns="http://www.w3.org/2000/svg" viewBox="0 0 250 50">
<g fill="none" fill-rule="evenodd">
<path fill="#bf0d3e" d="M148 34.23C148 44.42 138.833 49 126 49s-22-4.58-22-14.698c0-11.078 5.5-16.69 16.5-22.302l-3.895-7.307a2.415 2.415 0 0 1-.072-2.465A2.38 2.38 0 0 1 118.658 1h15.546a2.381 2.381 0 0 1 1.991 1.181c.418.713.44 1.593.061 2.327L131.501 12C142.496 17.537 148 23.149 148 34.23Zm-16.935-13.978c.518.182 1.11.446 1.491.764a1.723 1.723 0 0 1-.499 2.93 1.695 1.695 0 0 1-1.68-.29l-.013-.017.017.014.01.01a.116.116 0 0 1 .024.02s-.01 0-.03-.013a6.072 6.072 0 0 0-1.825-.487c-1.076-.103-2.094.103-2.846.857-.398.402-.66 1.07-.756 2.236a17.808 17.808 0 0 0-.034 1.838h5.048c.94 0 1.702.767 1.702 1.714s-.762 1.714-1.702 1.714h-5.003a10.359 10.359 0 0 1-.59 3.34c-.03.078-.061.155-.095.233h7.673c.94 0 1.702.767 1.702 1.714s-.762 1.714-1.702 1.714h-11.914a1.706 1.706 0 0 1-1.676-1.44 1.715 1.715 0 0 1 1.138-1.9c.987-.332 1.433-.867 1.702-1.56a6.833 6.833 0 0 0 .354-2.101h-1.518c-.94 0-1.702-.767-1.702-1.714s.762-1.714 1.702-1.714h1.474c-.017-.708 0-1.417.051-2.123.12-1.457.49-3.12 1.74-4.375 1.732-1.741 3.928-2.005 5.582-1.844a9.6 9.6 0 0 1 2.179.48h-.004Z"/>
<path fill="#2D3C53" d="M217.9 8.857c-.939 0-1.7.768-1.7 1.714v6.57a16.82 16.82 0 0 1 6.8-1.427c2.417 0 4.72.508 6.8 1.427v-6.57c0-.946-.761-1.714-1.7-1.714h-10.2Zm-8.5 1.714v12c-5.26 7.073-4.324 17.019 2.161 22.968a16.895 16.895 0 0 0 22.878 0c6.485-5.949 7.42-15.895 2.16-22.968v-12c0-4.733-3.805-8.571-8.5-8.571H217.9c-4.694 0-8.5 3.838-8.5 8.571ZM223 37.143c2.347 0 4.25-1.919 4.25-4.286 0-2.367-1.903-4.286-4.25-4.286s-4.25 1.92-4.25 4.286c0 2.367 1.903 4.286 4.25 4.286ZM10.716 2C7.466 2 4.83 4.659 4.83 7.937V31.31c0 1.911 1.537 3.461 3.433 3.461h26.516c1.896 0 3.433-1.55 3.433-3.461V7.937C38.21 4.659 35.574 2 32.323 2H10.716Zm.148 8.571a.862.862 0 0 0-.859.866v7.944L21.52 22.54l11.514-3.158v-7.944a.862.862 0 0 0-.859-.866H10.864Zm4.888 19.78a2.155 2.155 0 0 0 2.146-2.163c0-1.195-.96-2.163-2.146-2.163h-2.695a2.155 2.155 0 0 0-2.145 2.163c0 1.195.96 2.164 2.145 2.164h2.695Zm16.307-2.163a2.155 2.155 0 0 1-2.146 2.164h-2.695a2.155 2.155 0 0 1-2.145-2.164c0-1.195.96-2.163 2.145-2.163h2.695c1.185 0 2.146.969 2.146 2.163Zm4.823 18.271 1.353 2.31a2.562 2.562 0 0 0 3.524.855 2.609 2.609 0 0 0 .88-3.546l-5.225-8.917a2.57 2.57 0 0 0-2.26-1.271 2.572 2.572 0 0 0-2.214 1.352 2.615 2.615 0 0 0 .07 2.609l.827 1.416H9.12l.83-1.416a2.609 2.609 0 0 0-.88-3.546 2.562 2.562 0 0 0-3.524.856L.328 46.078a2.609 2.609 0 0 0 .913 3.488 2.562 2.562 0 0 0 3.488-.798l1.353-2.309h30.8Zm41.404-35.173a2.286 2.286 0 0 0-4.572 0v11.428H62.286a2.286 2.286 0 0 0 0 4.572h11.428v11.428a2.286 2.286 0 0 0 4.572 0V27.286h11.428a2.286 2.286 0 0 0 0-4.572H78.286V11.286Zm98 0a2.286 2.286 0 1 0-4.572 0v11.428h-11.428a2.286 2.286 0 0 0 0 4.572h11.428v11.428a2.286 2.286 0 1 0 4.572 0V27.286h11.428a2.286 2.286 0 0 0 0-4.572h-11.428V11.286Z"/>
</g></svg>