<svg xmlns="http://www.w3.org/2000/svg" viewBox="0 0 100 100">
<g fill="none" fill-rule="evenodd">
<circle cx="50" cy="50" r="50" fill="#F2F9FF"/>
<path fill="#2D3C53" d="M39.716 26c-3.25 0-5.887 2.659-5.887 5.937V55.31c0 1.911 1.537 3.461 3.433 3.461h26.516c1.896 0 3.433-1.55 3.433-3.461V31.937c0-3.278-2.637-5.937-5.888-5.937H39.716Zm.148 8.571a.862.862 0 0 0-.859.866v7.944L50.52 46.54l11.514-3.158v-7.944a.862.862 0 0 0-.859-.866H39.864Zm4.888 19.78a2.155 2.155 0 0 0 2.146-2.163c0-1.195-.96-2.163-2.146-2.163h-2.695a2.155 2.155 0 0 0-2.145 2.163c0 1.195.96 2.164 2.145 2.164h2.695Zm16.307-2.163a2.155 2.155 0 0 1-2.146 2.164h-2.695a2.155 2.155 0 0 1-2.145-2.164c0-1.195.96-2.163 2.145-2.163h2.695c1.185 0 2.146.969 2.146 2.163Zm4.823 18.271 1.353 2.31a2.562 2.562 0 0 0 3.524.855 2.609 2.609 0 0 0 .88-3.546l-5.225-8.917a2.57 2.57 0 0 0-2.26-1.271 2.572 2.572 0 0 0-2.214 1.352 2.615 2.615 0 0 0 .07 2.609l.827 1.416H38.12l.83-1.416a2.609 2.609 0 0 0-.88-3.546 2.562 2.562 0 0 0-3.524.856l-5.218 8.917a2.609 2.609 0 0 0 .913 3.488 2.562 2.562 0 0 0 3.488-.798l1.353-2.309h30.8Z"/>
</g>
</svg>