<svg xmlns="http://www.w3.org/2000/svg" width="68" viewBox="0 0 68 48"><path fill="#2D3C53" d="M52.479.03a5.492 5.492 0 0 0-2.298 10.467.5.5 0 0 1 .3.459v9.987a.5.5 0 0 1-.5.56H39.99a.5.5 0 0 1-.46-.3 5.454 5.454 0 0 0-2.738-2.677.5.5 0 0 1-.3-.46v-7.11a.5.5 0 0 1 .3-.46A5.493 5.493 0 0 0 35.301.056a5.496 5.496 0 0 0-5.782 3.17.5.5 0 0 1-.46.3h-8.113a.5.5 0 0 1-.46-.3A5.496 5.496 0 0 0 10 5.523 5.496 5.496 0 0 0 20.487 7.82a.5.5 0 0 1 .46-.3h8.112a.5.5 0 0 1 .46.3 5.454 5.454 0 0 0 2.677 2.676.5.5 0 0 1 .3.46v7.11a.5.5 0 0 1-.3.46 5.473 5.473 0 0 0 0 9.988.5.5 0 0 1 .3.46v7.11a.44.44 0 0 1-.26.4 5.414 5.414 0 0 0-2.717 2.696.5.5 0 0 1-.46.3h-8.113a.5.5 0 0 1-.46-.3A5.496 5.496 0 0 0 10 41.477a5.496 5.496 0 0 0 10.487 2.297.5.5 0 0 1 .46-.3h8.112a.5.5 0 0 1 .46.3 5.496 5.496 0 0 0 10.445-1.49 5.493 5.493 0 0 0-3.172-5.78.5.5 0 0 1-.3-.46v-7.15a.44.44 0 0 1 .26-.4 5.414 5.414 0 0 0 2.718-2.697.5.5 0 0 1 .52-.3h10.55a3.996 3.996 0 0 0 3.997-3.994V10.956a.5.5 0 0 1 .3-.46A5.492 5.492 0 0 0 52.479.03Z"/></svg>