<svg xmlns="http://www.w3.org/2000/svg" width="100" height="100" viewBox="0 0 100 100"><g fill="none"><path fill="#BA0D37" d="M59.09 5.585a10.189 10.189 0 0 0-18.18 0l-10.647 20.39-21.885 4.281C.265 31.842-2.657 41.868 2.755 47.846L18.15 64.852l-2.882 23.193c-1 8.065 7.112 14.632 14.718 10.862L50 88.984l20.014 9.924c7.604 3.77 15.718-2.8 14.716-10.864l-2.88-23.191 15.395-17.006c5.412-5.979 2.49-16.005-5.623-17.591l-21.885-4.283L59.09 5.583v.002Z"/><path fill="#FFF" d="M36.591 69.271c-3.07 0-5.46-.674-7.168-2.024-1.709-1.35-2.563-3.535-2.563-6.556l5.72-.557c0 1.56.34 2.687 1.021 3.38.681.693 1.653 1.04 2.916 1.04 1.313 0 2.31-.272 2.99-.817.681-.545 1.022-1.35 1.022-2.414v-.706c0-1.065-.34-1.894-1.022-2.489-.68-.594-1.876-.891-3.584-.891h-1.634v-4.68h1.597c1.411 0 2.402-.26 2.971-.78.57-.52.854-1.226.854-2.117v-.594c0-.892-.303-1.554-.91-1.988-.606-.433-1.405-.65-2.395-.65-1.189 0-2.093.285-2.712.855-.619.57-.94 1.56-.965 2.971l-5.683-.52c.024-2.526.86-4.494 2.507-5.906 1.647-1.411 4.005-2.117 7.076-2.117 2.798 0 4.99.564 6.574 1.69 1.585 1.127 2.377 2.78 2.377 4.959v1.114c0 1.189-.291 2.229-.873 3.12-.582.892-1.554 1.535-2.916 1.932 1.66.371 2.848 1.052 3.566 2.042.718.99 1.077 2.217 1.077 3.678v1.448c0 1.164-.235 2.216-.705 3.157a6.856 6.856 0 0 1-1.988 2.396c-.854.656-1.888 1.158-3.101 1.504-1.213.347-2.563.52-4.049.52Zm14.461.075c-.94 0-1.74-.248-2.395-.743-.657-.496-.985-1.263-.985-2.303s.328-1.82.985-2.34c.656-.52 1.454-.78 2.395-.78.966 0 1.783.26 2.452.78.668.52 1.003 1.3 1.003 2.34 0 1.04-.335 1.807-1.003 2.303-.669.495-1.486.743-2.452.743Zm13.83-.075c-1.387 0-2.65-.154-3.789-.464-1.139-.31-2.11-.799-2.915-1.467-.805-.669-1.43-1.53-1.876-2.582-.446-1.052-.681-2.321-.706-3.807l5.757-.52c.075 2.749 1.313 4.123 3.715 4.123 2.476 0 3.714-1.287 3.714-3.863V59.8c0-2.427-1.213-3.64-3.64-3.64-1.535 0-2.81.42-3.826 1.263l-5.088-1.635.928-13.594H73.24v4.977H62.022l-.372 5.535c1.461-.743 3.207-1.115 5.238-1.115 1.114 0 2.148.136 3.101.409.953.272 1.77.712 2.451 1.318.681.607 1.214 1.393 1.598 2.359.383.966.575 2.142.575 3.529v1.671c0 2.848-.873 4.959-2.618 6.333-1.746 1.374-4.117 2.061-7.113 2.061Z"/></g></svg>