<svg xmlns="http://www.w3.org/2000/svg" viewBox="0 0 32 123"><g fill="none" fill-rule="evenodd"><g fill="#BA0D37"><path d="M18.667 16A2.67 2.67 0 0 1 16 18.667 2.67 2.67 0 0 1 13.333 16 2.67 2.67 0 0 1 16 13.333 2.67 2.67 0 0 1 18.667 16M7.78 11.583A9.272 9.272 0 0 0 6.667 16c0 .503.05.992.128 1.473a8.004 8.004 0 0 1 6.518 7.462 9.27 9.27 0 0 0 5.374 0 8.004 8.004 0 0 1 6.518-7.462c.078-.481.128-.97.128-1.473a9.272 9.272 0 0 0-1.114-4.417 37.914 37.914 0 0 0-16.438 0"/><path d="M16 26.667C10.119 26.667 5.333 21.88 5.333 16S10.12 5.333 16 5.333 26.667 10.12 26.667 16 21.88 26.667 16 26.667M16 0C7.177 0 0 7.177 0 16s7.177 16 16 16 16-7.177 16-16S24.823 0 16 0"/></g><path stroke="#BA0D37" stroke-linecap="round" d="M15.5 122V42"/></g></svg>