<svg xmlns="http://www.w3.org/2000/svg" width="68" viewBox="0 0 68 48"><path fill="#243A4A" d="M34 0C20.745 0 10 10.745 10 24s10.745 24 24 24 24-10.745 24-24S47.255 0 34 0ZM20.28 17.82l-1.72-1a1.5 1.5 0 1 1 1.44-2.6l1.72 1a1.5 1.5 0 0 1 .56 2 1.52 1.52 0 0 1-2 .54v.06ZM20.5 24a1.52 1.52 0 0 1-1.5 1.5h-2a1.5 1.5 0 0 1 0-3h2a1.52 1.52 0 0 1 1.5 1.5Zm18 0a4.5 4.5 0 1 1-4.5-4.5h.16a.5.5 0 0 0 .46-.2l6.8-10.16a2 2 0 0 1 2.78-.54 2 2 0 0 1 .54 2.76l-6.74 10a.54.54 0 0 0 0 .64 4.5 4.5 0 0 1 .48 2h.02ZM35.52 9.12a1.5 1.5 0 0 1-3 0v-2a1.5 1.5 0 0 1 3 0v2ZM24.78 8a1.52 1.52 0 0 1 2 .56l1 1.74a1.5 1.5 0 0 1-.56 2 1.42 1.42 0 0 1-.74.2 1.5 1.5 0 0 1-1.3-.74l-1-1.74a1.5 1.5 0 0 1 .6-2.02ZM25 34a1 1 0 0 1 1-1h16a1 1 0 0 1 1 1v4a1 1 0 0 1-1 1H26a1 1 0 0 1-1-1v-4Zm20.62-16.6a1.48 1.48 0 0 1 .54-2l1.74-1a1.48 1.48 0 0 1 2 .54 1.5 1.5 0 0 1-.54 2l-1.74 1a1.58 1.58 0 0 1-.74.2 1.52 1.52 0 0 1-1.26-.74Zm1.76 6.74a1.5 1.5 0 0 1 1.5-1.5h2a1.5 1.5 0 0 1 0 3h-2a1.52 1.52 0 0 1-1.5-1.5Z"/></svg>