<svg xmlns="http://www.w3.org/2000/svg" viewBox="0 0 32 32">
<g fill="none" fill-rule="evenodd">
<circle cx="16" cy="16" r="16" fill="#2D3C53"/>
<path fill="#FFF" fill-rule="nonzero" d="M14.03 14.222h1.579c.752 0 1.309-.188 1.671-.564.362-.376.543-.875.543-1.497 0-.601-.179-1.07-.538-1.404-.359-.335-.853-.503-1.482-.503-.567 0-1.042.156-1.425.467a1.492 1.492 0 0 0-.574 1.215H10.84c0-.78.21-1.478.63-2.097.42-.619 1.008-1.102 1.764-1.451.755-.349 1.588-.523 2.497-.523 1.579 0 2.816.378 3.712 1.133.895.755 1.343 1.796 1.343 3.122 0 .684-.209 1.313-.626 1.887a4.064 4.064 0 0 1-1.64 1.323c.84.3 1.468.752 1.881 1.353.414.602.62 1.313.62 2.133 0 1.326-.483 2.39-1.45 3.19-.968.799-2.248 1.199-3.84 1.199-1.49 0-2.71-.393-3.656-1.18-.947-.785-1.42-1.825-1.42-3.117h2.963c0 .561.21 1.019.631 1.374.42.356.938.534 1.553.534.705 0 1.257-.187 1.656-.56.4-.372.6-.866.6-1.48 0-1.491-.82-2.236-2.46-2.236h-1.57v-2.318Z"/>
</g>
</svg>