<svg xmlns="http://www.w3.org/2000/svg" viewBox="0 0 250 50">
<g fill="none" fill-rule="evenodd">
<path fill="#243A4A" d="M24 1a4.12 4.12 0 0 0-2.174.623L1.563 15.018H1.56c-1.44.959-1.875 2.61-1.32 4.018.535 1.357 1.886 2.274 3.497 2.274h40.526c1.611 0 2.962-.917 3.497-2.274.555-1.408.117-3.06-1.32-4.015l-.003-.003L26.174 1.623A4.12 4.12 0 0 0 24 1ZM0 41.88c0-2.076 1.961-3.077 3.429-3.077h.188a1.76 1.76 0 0 1-.01-.187V27.502c0-.955.767-1.73 1.714-1.73h5.705c.947 0 1.715.775 1.715 1.73v11.114c0 .063-.004.125-.01.187h6.712a1.771 1.771 0 0 1-.01-.187V27.502c0-.955.768-1.73 1.714-1.73h5.706c.946 0 1.714.775 1.714 1.73v11.114c0 .063-.004.125-.01.187h6.713a1.771 1.771 0 0 1-.01-.187V27.502c0-.955.767-1.73 1.714-1.73h5.705c.947 0 1.714.775 1.714 1.73v11.114c0 .063-.003.125-.01.187h.188c1.468 0 3.429 1 3.429 3.08v4.04C48 48 46.039 49 44.571 49H3.43C1.96 49 0 48 0 45.92v-4.04Z"/>
<path fill="#BA0D37" d="M123.127 1.507a1.72 1.72 0 0 1 1.22-.507h10.333c.457 0 .896.183 1.22.507l3.444 3.452c.628.63.672 1.637.103 2.322l-5.924 7.124c8.64 2.044 14.383 10.249 13.359 19.085-1.024 8.836-8.49 15.504-17.369 15.51-8.888.009-16.37-6.661-17.395-15.507-1.025-8.846 4.732-17.056 13.386-19.088l-5.925-7.124a1.728 1.728 0 0 1 .104-2.322l3.444-3.452Zm-5.942 29.964c0-6.822 5.52-12.352 12.328-12.352 6.809 0 12.328 5.53 12.328 12.352s-5.52 12.352-12.328 12.352-12.328-5.53-12.328-12.352Z"/>
<path fill="#243A4A" d="M81.286 11.286a2.286 2.286 0 0 0-4.572 0v11.428H65.286a2.286 2.286 0 0 0 0 4.572h11.428v11.428a2.286 2.286 0 0 0 4.572 0V27.286h11.428a2.286 2.286 0 0 0 0-4.572H81.286V11.286Z"/></g></svg>