<svg xmlns="http://www.w3.org/2000/svg" width="68" viewBox="0 0 68 48"><path fill="#2D3C53" d="M61.221 17.878a1.42 1.42 0 0 0-1.424 1.416v4.303H52.68V40.81h7.118v4.303c-.007.38.14.747.407 1.019.268.271.635.424 1.017.424a5.768 5.768 0 0 0 4.095-1.675A5.703 5.703 0 0 0 67 40.81V23.597c0-1.521-.61-2.98-1.694-4.053a5.768 5.768 0 0 0-4.085-1.666Zm-12.255 5.72v-5.72c0-.392-.16-.768-.445-1.04a1.456 1.456 0 0 0-1.063-.403h-4.271l-4.327-5.747H33.5V4.164h8.012a2.088 2.088 0 0 0 2.094-2.082C43.606.932 42.668 0 41.512 0h-20.24a2.088 2.088 0 0 0-2.093 2.082c0 1.15.937 2.082 2.093 2.082h8.013v6.524h-6.952l-4.383 4.303h-5.778c-.383 0-.75.153-1.017.425a1.412 1.412 0 0 0-.407 1.019v7.968h-6.56V14.99c0-.744-.4-1.43-1.047-1.803a2.104 2.104 0 0 0-2.094 0A2.08 2.08 0 0 0 0 14.991v22.96c0 1.15.937 2.081 2.094 2.081a2.088 2.088 0 0 0 2.093-2.082v-9.383h6.56v7.94c-.007.38.14.747.408 1.019.268.271.634.424 1.017.424h5.778L23.73 48h23.728c.802 0 1.452-.646 1.452-1.444V23.597h.056Z"/></svg>