<svg xmlns="http://www.w3.org/2000/svg" viewBox="0 0 24 24"><g fill="#BB6C1D" fill-rule="evenodd"><path d="M14 12c0 1.102-.897 2-2 2s-2-.898-2-2c0-1.102.897-2 2-2s2 .898 2 2M5.836 8.687A6.954 6.954 0 0 0 5 12c0 .377.038.744.096 1.105a6.003 6.003 0 0 1 4.889 5.596 6.952 6.952 0 0 0 4.03 0 6.003 6.003 0 0 1 4.889-5.596c.058-.361.096-.728.096-1.105a6.954 6.954 0 0 0-.836-3.313 28.436 28.436 0 0 0-12.328 0"/><path d="M12 20c-4.411 0-8-3.589-8-8s3.589-8 8-8 8 3.589 8 8-3.589 8-8 8m0-20C5.383 0 0 5.383 0 12s5.383 12 12 12 12-5.383 12-12S18.617 0 12 0"/></g></svg>