<svg xmlns="http://www.w3.org/2000/svg" viewBox="0 0 100 100">
<g fill="none" fill-rule="evenodd">
<circle cx="50" cy="50" r="50" fill="#F2F9FF"/>
<path fill="#243A4A" d="M72 59.23C72 69.42 62.833 74 50 74s-22-4.58-22-14.698C28 48.224 33.5 42.612 44.5 37l-3.895-7.307a2.415 2.415 0 0 1-.072-2.465A2.38 2.38 0 0 1 42.658 26h15.546a2.381 2.381 0 0 1 1.991 1.181c.418.713.44 1.593.061 2.327L55.501 37C66.496 42.537 72 48.149 72 59.23ZM55.065 45.252c.518.182 1.11.446 1.491.764a1.723 1.723 0 0 1-.499 2.93 1.695 1.695 0 0 1-1.68-.29l-.013-.017.017.014.01.01a.116.116 0 0 1 .024.02s-.01 0-.03-.013a6.072 6.072 0 0 0-1.825-.487c-1.076-.103-2.094.103-2.846.857-.398.402-.66 1.07-.756 2.236a17.808 17.808 0 0 0-.034 1.838h5.048c.94 0 1.702.767 1.702 1.714s-.762 1.714-1.702 1.714H48.97a10.359 10.359 0 0 1-.59 3.34c-.03.078-.061.155-.095.233h7.673c.94 0 1.702.767 1.702 1.714s-.762 1.714-1.702 1.714H44.043a1.706 1.706 0 0 1-1.676-1.44 1.715 1.715 0 0 1 1.138-1.9c.987-.332 1.433-.867 1.702-1.56a6.833 6.833 0 0 0 .354-2.101h-1.518c-.94 0-1.702-.767-1.702-1.714s.762-1.714 1.702-1.714h1.474c-.017-.708 0-1.417.051-2.123.12-1.457.49-3.12 1.74-4.375 1.732-1.741 3.928-2.005 5.582-1.844a9.6 9.6 0 0 1 2.179.48h-.004Z"/>
</g>
</svg>