<svg xmlns="http://www.w3.org/2000/svg" viewBox="0 0 250 50">
<g fill="none" fill-rule="evenodd">
<path fill="#243A4A" d="M1.73 1C.776 1 0 1.768 0 2.714v5.143c0 .457.184.894.51 1.216.327.322.77.501 1.231.498a1.74 1.74 0 0 1 1.229.498 1.706 1.706 0 0 1 0 2.434c-.327.32-.769.5-1.229.497a1.74 1.74 0 0 0-1.23.498c-.327.322-.511.76-.511 1.216v6.857c0 .457.184.894.51 1.216.327.322.77.501 1.231.499a1.74 1.74 0 0 1 1.229.497 1.706 1.706 0 0 1 0 2.434c-.327.321-.769.5-1.229.497a1.74 1.74 0 0 0-1.23.499c-.327.322-.511.76-.511 1.216v6.857c0 .456.184.894.51 1.216.327.321.77.5 1.231.498a1.74 1.74 0 0 1 1.229.497 1.706 1.706 0 0 1 0 2.434c-.327.321-.769.5-1.229.498a1.74 1.74 0 0 0-1.23.498c-.327.322-.511.76-.511 1.216v5.143C0 48.232.775 49 1.73 49h8.655c.46 0 .902-.182 1.227-.506.325-.323.506-.762.503-1.219a1.706 1.706 0 0 1 .502-1.217 1.732 1.732 0 0 1 2.458 0c.324.324.505.762.502 1.217-.003.457.178.896.503 1.22a1.74 1.74 0 0 0 1.228.505h10.384c.461 0 .903-.182 1.228-.506.325-.323.506-.762.503-1.219a1.706 1.706 0 0 1 .502-1.217 1.732 1.732 0 0 1 2.458 0c.324.324.504.762.502 1.217-.003.457.178.896.503 1.22a1.74 1.74 0 0 0 1.227.505h8.654c.956 0 1.731-.768 1.731-1.714v-5.143c0-.457-.184-.894-.51-1.216a1.74 1.74 0 0 0-1.231-.498 1.736 1.736 0 0 1-1.229-.498 1.7 1.7 0 0 1 0-2.434l-1.218-1.217 1.218 1.217c.327-.32.769-.5 1.229-.497a1.74 1.74 0 0 0 1.23-.498c.327-.322.511-.76.511-1.216v-6.857c0-.457-.184-.894-.51-1.216a1.74 1.74 0 0 0-1.231-.499 1.74 1.74 0 0 1-1.229-.497 1.7 1.7 0 0 1 0-2.434c.327-.321.769-.5 1.229-.497a1.74 1.74 0 0 0 1.23-.499c.327-.322.511-.76.511-1.216v-6.857c0-.456-.184-.894-.51-1.216A1.74 1.74 0 0 0 43.258 13a1.74 1.74 0 0 1-1.229-.497 1.7 1.7 0 0 1 0-2.434c.327-.321.769-.5 1.229-.498a1.74 1.74 0 0 0 1.23-.498c.327-.322.511-.76.511-1.216V2.714c0-.454-.182-.89-.507-1.212A1.74 1.74 0 0 0 43.27 1h-8.654c-.46 0-.902.182-1.227.506a1.706 1.706 0 0 0-.503 1.219c.002.455-.178.893-.502 1.217a1.74 1.74 0 0 1-2.458 0 1.706 1.706 0 0 1-.502-1.217 1.706 1.706 0 0 0-.503-1.22A1.74 1.74 0 0 0 27.692 1H17.308c-.461 0-.903.182-1.228.506a1.706 1.706 0 0 0-.503 1.219c.003.455-.178.893-.502 1.217a1.74 1.74 0 0 1-2.458 0 1.706 1.706 0 0 1-.502-1.217 1.706 1.706 0 0 0-.503-1.22A1.74 1.74 0 0 0 10.385 1H1.73Zm25.705 14.92c.526.182 1.127.446 1.514.765a1.71 1.71 0 0 1-.506 2.93c-.58.213-1.23.102-1.706-.29l-.013-.017.017.014.01.01a.117.117 0 0 1 .024.02s-.01 0-.03-.013a6.24 6.24 0 0 0-1.853-.487c-1.092-.103-2.126.103-2.89.857-.404.401-.67 1.07-.767 2.235a17.54 17.54 0 0 0-.035 1.838h5.126c.954 0 1.728.768 1.728 1.714 0 .947-.774 1.715-1.728 1.715h-5.08a10.219 10.219 0 0 1-.599 3.34c-.03.077-.063.155-.096.232h7.79c.954 0 1.728.768 1.728 1.715 0 .946-.774 1.714-1.728 1.714H16.244a1.724 1.724 0 0 1-1.702-1.44 1.713 1.713 0 0 1 1.156-1.9c1.002-.332 1.455-.867 1.728-1.56a6.74 6.74 0 0 0 .36-2.101h-1.542a1.721 1.721 0 0 1-1.728-1.715c0-.946.774-1.714 1.728-1.714h1.497c-.018-.708 0-1.416.052-2.122.12-1.457.497-3.12 1.766-4.375 1.759-1.742 3.988-2.006 5.668-1.845.847.083 1.61.275 2.212.48h-.004Z"/>
<path fill="#BA0D37" d="M121.9 7.857c-.939 0-1.7.768-1.7 1.714v6.57a16.82 16.82 0 0 1 6.8-1.427c2.417 0 4.72.508 6.8 1.427V9.57c0-.946-.761-1.714-1.7-1.714h-10.2Zm-8.5 1.714v12c-5.26 7.073-4.324 17.019 2.161 22.968a16.895 16.895 0 0 0 22.878 0c6.485-5.949 7.42-15.895 2.16-22.968v-12c0-4.733-3.805-8.571-8.5-8.571H121.9c-4.694 0-8.5 3.838-8.5 8.571ZM127 36.143c2.347 0 4.25-1.919 4.25-4.286 0-2.367-1.903-4.286-4.25-4.286s-4.25 1.92-4.25 4.286c0 2.367 1.903 4.286 4.25 4.286Z"/>
<path fill="#243A4A" d="M79.286 11.286a2.286 2.286 0 0 0-4.572 0v11.428H63.286a2.286 2.286 0 0 0 0 4.572h11.428v11.428a2.286 2.286 0 0 0 4.572 0V27.286h11.428a2.286 2.286 0 0 0 0-4.572H79.286V11.286Z"/>
</g></svg>