<svg xmlns="http://www.w3.org/2000/svg" width="32" viewBox="0 0 48 48" class="comparison-edit">
<g fill="none" fill-rule="evenodd"><path fill="#CC1441" d="M30.612 12.198a2.571 2.571 0 0 1 2.815.562l1.812 1.812h.001a2.571 2.571 0 0 1 0 3.65l-10.638 10.67a.857.857 0 0 1-.456.24l-5.139.927a.857.857 0 0 1-.997-.984l.857-5.21a.857.857 0 0 1 .24-.468L29.776 12.76c.238-.24.522-.43.834-.56h.002ZM12 34.286c0-.947.767-1.714 1.714-1.714h20.57a1.714 1.714 0 0 1 0 3.428h-20.57A1.714 1.714 0 0 1 12 34.286Z"/><circle cx="24" cy="24" r="22" stroke="#CC1441" stroke-width="4"/></g></svg>