<svg xmlns="http://www.w3.org/2000/svg" width="32" viewBox="0 0 48 48">
<g fill="none" fill-rule="evenodd">
<circle cx="24" cy="24" r="24" fill="#BA0D37"/>
<path fill="#FFF" d="M24.625 8c-3.52 0-6.375 2.93-6.375 6.545v5.091h-3.542a.718.718 0 0 0-.708.728v5.818c0 .401.317.727.708.727h3.542v12.364c0 .401.317.727.708.727h5.667a.718.718 0 0 0 .708-.727V26.909h3.542a.712.712 0 0 0 .687-.551l1.417-5.818a.742.742 0 0 0-.13-.624.702.702 0 0 0-.557-.28h-4.959v-2.181c0-1.205.952-2.182 2.125-2.182h2.834a.718.718 0 0 0 .708-.728V8.727A.718.718 0 0 0 30.292 8h-5.667Z"/></g></svg>