<svg xmlns="http://www.w3.org/2000/svg" viewBox="0 0 50 50"><path fill="#2D3C53" fill-rule="evenodd" d="M28.482 1.513a3.429 3.429 0 0 1 3.336-.151c8 3.997 11.887 10.981 13.763 17.554 1.851 6.46 1.848 12.85 1.848 16.286v.082A3.429 3.429 0 0 1 44 38.713H33.714v6.857a3.429 3.429 0 1 1-6.857 0V4.427c0-1.187.616-2.29 1.625-2.914Zm-23.91.342a2.571 2.571 0 0 1 2.57 2.572v8.571a6 6 0 0 0 3.43 5.42V4.428a2.571 2.571 0 1 1 5.142 0V18.42A6 6 0 0 0 19.143 13V4.426a2.571 2.571 0 0 1 5.143 0v8.571c0 4.833-3.116 9.114-7.715 10.601v21.97a3.429 3.429 0 0 1-6.857 0V23.6A11.143 11.143 0 0 1 2 13V4.426a2.571 2.571 0 0 1 2.571-2.572Z"/></svg>