<svg xmlns="http://www.w3.org/2000/svg" viewBox="0 0 100 100">
<g fill="none" fill-rule="evenodd">
<circle cx="50" cy="50" r="50" fill="#F2F9FF"/>
<path fill="#243A4A" d="m73.63 45.57-4.725-9.853c-.888-1.852-2.736-3.027-4.76-3.027h-1.547v12.88H73.63Zm-15.445-14.6a5.25 5.25 0 0 0-4.09-1.97H31.297C28.371 29 26 31.415 26 34.394v23.827c0 2.98 2.371 5.394 5.296 5.394h1.074c.229 3.586 3.152 6.376 6.68 6.376 3.53 0 6.452-2.79 6.681-6.376h9.015c.232 3.72 3.355 6.56 7.011 6.377 3.656-.184 6.489-3.324 6.36-7.05h.587c2.925 0 5.296-2.414 5.296-5.393v-7.484H60.392c-1.22 0-2.207-1.006-2.207-2.247V30.97Zm-11.622 7.02c.434.151.931.37 1.251.635a1.42 1.42 0 0 1-.419 2.43 1.435 1.435 0 0 1-1.409-.24l-.011-.014.014.01.009.01c.007.004.014.01.02.016 0 0-.009 0-.026-.01a5.14 5.14 0 0 0-1.531-.405c-.903-.085-1.757.086-2.388.711-.334.333-.554.888-.634 1.855a14.608 14.608 0 0 0-.028 1.524h4.235c.789 0 1.428.637 1.428 1.423 0 .785-.64 1.422-1.428 1.422h-4.198a8.507 8.507 0 0 1-.494 2.77l-.08.194h6.437c.79 0 1.428.637 1.428 1.422 0 .785-.639 1.422-1.428 1.422h-9.996a1.422 1.422 0 0 1-.451-2.77c.828-.276 1.202-.72 1.428-1.294.19-.562.29-1.151.297-1.744h-1.274a1.425 1.425 0 0 1-1.428-1.422c0-.786.64-1.423 1.428-1.423h1.237c-.015-.587 0-1.174.042-1.76.1-1.21.412-2.589 1.46-3.63 1.454-1.445 3.296-1.664 4.684-1.53.7.068 1.33.228 1.828.398h-.003Z"/>
</g>
</svg>