<svg xmlns="http://www.w3.org/2000/svg" width="100" height="100" viewBox="0 0 100 100"><g fill="none"><path fill="#CC1441" d="M59.0903607,5.58507774 C57.3558018,2.15939104 53.8411429,0 50,0 C46.1588571,0 42.6441982,2.15939104 40.9096393,5.58507774 L30.2634712,25.9749422 L8.37770548,30.2559696 C0.265280903,31.8421935 -2.65741453,41.868284 2.75457283,47.8466154 L18.1503989,64.8507582 L15.2677099,88.0442846 C14.267548,96.1087004 22.3799726,102.675756 29.9856484,98.9056975 L50,88.9840223 L70.0143516,98.9079191 C77.6178049,102.677978 85.732452,96.1087004 84.7300675,88.0442846 L81.8496011,64.8529798 L97.2454272,47.8466154 C102.657415,41.868284 99.7347191,31.8421935 91.6222945,30.2559696 L69.7365288,25.9727206 L59.0903607,5.58285614 L59.0903607,5.58507774 Z"/><path fill="#FFF" d="M41.5438096,65.2598352 L49.1952381,56.9398352 C50.0619048,56.0484066 50.7738096,55.2745971 51.3309524,54.6184066 C51.8880953,53.9622161 52.3338096,53.3803114 52.6680953,52.8726923 C53.002381,52.3650733 53.2376191,51.9007875 53.3738096,51.4798352 C53.51,51.0588828 53.5780953,50.6255495 53.5780953,50.1798352 L53.5780953,49.7341209 C53.5780953,48.7684066 53.2995238,48.0255495 52.742381,47.5055495 C52.1852381,46.9855495 51.3619048,46.7255495 50.272381,46.7255495 C49.1085715,46.7255495 48.2357143,47.0660256 47.6538096,47.746978 C47.0719048,48.4279304 46.7685715,49.4122161 46.7438096,50.6998352 L40.9866667,50.1055495 C41.0114286,47.4807875 41.8533334,45.4255495 43.512381,43.9398352 C45.1714286,42.4541209 47.4990476,41.7112637 50.4952381,41.7112637 C53.4666667,41.7112637 55.72,42.3612637 57.2552381,43.6612637 C58.7904762,44.9612637 59.5580953,46.7131685 59.5580953,48.916978 L59.5580953,49.956978 C59.5580953,50.7245971 59.4652381,51.4612637 59.2795238,52.166978 C59.0938096,52.8726923 58.7842857,53.5907875 58.3509524,54.3212637 C57.9176191,55.0517399 57.3604762,55.8131685 56.6795238,56.6055495 C55.9985715,57.3979304 55.1628572,58.276978 54.172381,59.2426923 L49.8638096,63.9226923 L60.4495238,63.9226923 L60.4495238,68.8255495 L41.5438096,68.8255495 L41.5438096,65.2598352 Z"/></g></svg>