<svg xmlns="http://www.w3.org/2000/svg" viewBox="0 0 50 50"><path fill="#2D3C53" fill-rule="evenodd" d="M9.143 6.846c0-.388.315-.703.703-.703h29.482c.387 0 .703.315.703.703V21.43H9.143V6.846ZM45.17 37.96a5.851 5.851 0 0 1-4.453 5.681V45.4a3.429 3.429 0 0 1-6.858 0v-1.594H15.311V45.4a3.429 3.429 0 0 1-6.857 0v-1.759A5.85 5.85 0 0 1 4 37.957V6.846C4 3.616 6.62 1 9.846 1h29.482a5.844 5.844 0 0 1 5.846 5.846V37.96h-.004ZM14.3 35.145a3.429 3.429 0 1 0 0-6.857 3.429 3.429 0 0 0 0 6.857Zm20.57 0a3.429 3.429 0 1 0 0-6.857 3.429 3.429 0 0 0 0 6.857Z"/></svg>