<svg xmlns="http://www.w3.org/2000/svg" viewBox="0 0 50 50"><path fill="#2D3C53" fill-rule="evenodd" d="M4 6.143A5.143 5.143 0 0 1 9.143 1H40a5.143 5.143 0 0 1 5.143 5.143v3.363H4V6.143Zm0 7.649v30.065A5.143 5.143 0 0 0 9.143 49H40a5.143 5.143 0 0 0 5.143-5.143V13.792H4Zm8.201 16.35a12.374 12.374 0 1 1 24.747 0 12.374 12.374 0 0 1-24.747 0Zm3.806-1.028a1.714 1.714 0 0 1 1.69-1.43h1.214c2.623 0 4.159.642 5.54 1.214l.206.086c1.293.538 2.599 1.042 5.18 1.042h1.705a1.714 1.714 0 0 1 1.69 1.996 8.736 8.736 0 0 1-17.225-2.908Z"/></svg>