<svg xmlns="http://www.w3.org/2000/svg" viewBox="0 0 50 50"><path fill="#2D3C53" fill-rule="evenodd" d="M6.143 1A5.143 5.143 0 0 0 1 6.143v36.71a5.143 5.143 0 0 0 5.143 5.142h3.531V27.057a5.143 5.143 0 0 1 5.143-5.143h19.605a5.143 5.143 0 0 1 5.143 5.143v20.945h3.538a5.143 5.143 0 0 0 5.143-5.143V6.143A5.143 5.143 0 0 0 43.103 1H6.139h.004Zm16.766 24.34H14.82c-.947 0-1.715.767-1.715 1.714v20.945h9.803V25.336v.003Zm3.428 22.659V25.336h8.088c.947 0 1.714.768 1.714 1.714V48h-9.802ZM16.456 7.37c.486 0 .95.205 1.275.566l3.97 4.41a1.714 1.714 0 0 1-1.275 2.862h-7.94a1.714 1.714 0 0 1-1.276-2.863l3.974-4.406a1.714 1.714 0 0 1 1.272-.569Zm10.8 1.015a1.714 1.714 0 0 1 1.563-1.018h7.941a1.714 1.714 0 0 1 1.272 2.863l-3.97 4.409a1.714 1.714 0 0 1-2.548 0l-3.97-4.41a1.714 1.714 0 0 1-.291-1.844h.003Z"/></svg>