<svg xmlns="http://www.w3.org/2000/svg" viewBox="0 0 50 50"><path fill="#243A4A" fill-rule="evenodd" d="M25 1c-.768 0-1.52.214-2.174.617L2.563 14.886H2.56c-1.44.95-1.875 2.585-1.32 3.98.535 1.344 1.886 2.253 3.497 2.253h40.526c1.611 0 2.962-.909 3.497-2.253.555-1.395.117-3.03-1.32-3.977l-.003-.003L27.174 1.617A4.149 4.149 0 0 0 25 1ZM1 41.495c0-2.057 1.961-3.048 3.429-3.048h.188a1.728 1.728 0 0 1-.01-.185v-11.01c0-.946.767-1.714 1.714-1.714h5.705c.947 0 1.715.768 1.715 1.715v11.009c0 .062-.004.123-.01.185h6.712a1.738 1.738 0 0 1-.01-.185v-11.01c0-.946.768-1.714 1.714-1.714h5.706c.946 0 1.714.768 1.714 1.715v11.009c0 .062-.004.123-.01.185h6.713a1.738 1.738 0 0 1-.01-.185v-11.01c0-.946.767-1.714 1.714-1.714h5.705c.947 0 1.714.768 1.714 1.715v11.009c0 .062-.003.123-.01.185h.188c1.468 0 3.429.99 3.429 3.051V45.5c0 2.058-1.961 3.048-3.429 3.048H4.43C2.96 48.547 1 47.557 1 45.496v-4.001Z"/></svg>