<svg xmlns="http://www.w3.org/2000/svg" width="60" viewBox="0 0 60 60">
<g fill="#bf0d3e" fill-rule="evenodd">
<path class="svg-colour-accent" d="M35 30c0 2.755-2.242 5-5 5s-5-2.245-5-5 2.242-5 5-5 5 2.245 5 5m-20.41-8.282A17.385 17.385 0 0 0 12.5 30c0 .942.095 1.86.24 2.763 6.725 1.247 11.875 6.992 12.222 13.99a17.368 17.368 0 0 0 10.075 0c.348-6.998 5.498-12.743 12.223-13.99.145-.903.24-1.82.24-2.763 0-2.992-.758-5.815-2.09-8.282a71.089 71.089 0 0 0-30.82 0"/>
<path class="svg-colour-accent" d="M30 50c-11.027 0-20-8.972-20-20 0-11.027 8.973-20 20-20 11.028 0 20 8.973 20 20 0 11.028-8.972 20-20 20m0-50C13.457 0 0 13.457 0 30c0 16.542 13.457 30 30 30 16.542 0 30-13.458 30-30C60 13.457 46.542 0 30 0"/>
</g></svg>