<svg xmlns="http://www.w3.org/2000/svg" viewBox="0 0 250 50">
<g fill="none" fill-rule="evenodd">
<path fill="#bf0d3e" d="M108.73 1c-.955 0-1.73.768-1.73 1.714v5.143c0 .457.184.894.51 1.216.327.322.77.501 1.231.498a1.74 1.74 0 0 1 1.229.498 1.706 1.706 0 0 1 0 2.434c-.327.32-.769.5-1.229.497a1.74 1.74 0 0 0-1.23.498c-.327.322-.511.76-.511 1.216v6.857c0 .457.184.894.51 1.216.327.322.77.501 1.231.499a1.74 1.74 0 0 1 1.229.497 1.706 1.706 0 0 1 0 2.434c-.327.321-.769.5-1.229.497a1.74 1.74 0 0 0-1.23.499c-.327.322-.511.76-.511 1.216v6.857c0 .456.184.894.51 1.216.327.321.77.5 1.231.498a1.74 1.74 0 0 1 1.229.497 1.706 1.706 0 0 1 0 2.434c-.327.321-.769.5-1.229.498a1.74 1.74 0 0 0-1.23.498c-.327.322-.511.76-.511 1.216v5.143c0 .946.775 1.714 1.73 1.714h8.655c.46 0 .902-.182 1.227-.506.325-.323.506-.762.503-1.219a1.706 1.706 0 0 1 .502-1.217 1.732 1.732 0 0 1 2.458 0c.324.324.505.762.502 1.217-.003.457.178.896.503 1.22a1.74 1.74 0 0 0 1.228.505h10.384c.461 0 .903-.182 1.228-.506.325-.323.506-.762.503-1.219a1.706 1.706 0 0 1 .502-1.217 1.732 1.732 0 0 1 2.458 0c.324.324.504.762.502 1.217-.003.457.178.896.503 1.22a1.74 1.74 0 0 0 1.227.505h8.654c.956 0 1.731-.768 1.731-1.714v-5.143c0-.457-.184-.894-.51-1.216a1.74 1.74 0 0 0-1.231-.498 1.736 1.736 0 0 1-1.229-.498 1.7 1.7 0 0 1 0-2.434l-1.218-1.217 1.218 1.217c.327-.32.769-.5 1.229-.497a1.74 1.74 0 0 0 1.23-.498c.327-.322.511-.76.511-1.216v-6.857c0-.457-.184-.894-.51-1.216a1.74 1.74 0 0 0-1.231-.499 1.74 1.74 0 0 1-1.229-.497 1.7 1.7 0 0 1 0-2.434c.327-.321.769-.5 1.229-.497a1.74 1.74 0 0 0 1.23-.499c.327-.322.511-.76.511-1.216v-6.857c0-.456-.184-.894-.51-1.216a1.74 1.74 0 0 0-1.231-.498 1.74 1.74 0 0 1-1.229-.497 1.7 1.7 0 0 1 0-2.434c.327-.321.769-.5 1.229-.498a1.74 1.74 0 0 0 1.23-.498c.327-.322.511-.76.511-1.216V2.714c0-.454-.182-.89-.507-1.212A1.74 1.74 0 0 0 150.27 1h-8.654c-.46 0-.902.182-1.227.506a1.706 1.706 0 0 0-.503 1.219c.002.455-.178.893-.502 1.217a1.74 1.74 0 0 1-2.458 0 1.706 1.706 0 0 1-.502-1.217 1.706 1.706 0 0 0-.503-1.22A1.74 1.74 0 0 0 134.692 1h-10.384c-.461 0-.903.182-1.228.506a1.706 1.706 0 0 0-.503 1.219c.003.455-.178.893-.502 1.217a1.74 1.74 0 0 1-2.458 0 1.706 1.706 0 0 1-.502-1.217 1.706 1.706 0 0 0-.503-1.22A1.74 1.74 0 0 0 117.385 1h-8.654Zm25.705 14.92c.526.182 1.127.446 1.514.765a1.71 1.71 0 0 1-.506 2.93c-.58.213-1.23.102-1.706-.29l-.013-.017.017.014.01.01a.117.117 0 0 1 .024.02s-.01 0-.03-.013a6.24 6.24 0 0 0-1.853-.487c-1.092-.103-2.126.103-2.89.857-.404.401-.67 1.07-.767 2.235a17.54 17.54 0 0 0-.035 1.838h5.126c.954 0 1.728.768 1.728 1.714 0 .947-.774 1.715-1.728 1.715h-5.08a10.219 10.219 0 0 1-.599 3.34c-.03.077-.063.155-.096.232h7.79c.954 0 1.728.768 1.728 1.715 0 .946-.774 1.714-1.728 1.714h-12.097a1.724 1.724 0 0 1-1.702-1.44 1.713 1.713 0 0 1 1.156-1.9c1.002-.332 1.455-.867 1.728-1.56a6.74 6.74 0 0 0 .36-2.101h-1.542a1.721 1.721 0 0 1-1.728-1.715c0-.946.774-1.714 1.728-1.714h1.497c-.018-.708 0-1.416.052-2.122.12-1.457.497-3.12 1.766-4.375 1.759-1.742 3.988-2.006 5.668-1.845.847.083 1.61.275 2.212.48h-.004Z"/>
<path fill="#2D3C53" d="M24 1a4.12 4.12 0 0 0-2.174.623L1.563 15.018H1.56c-1.44.959-1.875 2.61-1.32 4.018.535 1.357 1.886 2.274 3.497 2.274h40.526c1.611 0 2.962-.917 3.497-2.274.555-1.408.117-3.06-1.32-4.015l-.003-.003L26.174 1.623A4.12 4.12 0 0 0 24 1ZM0 41.88c0-2.076 1.961-3.077 3.429-3.077h.188a1.76 1.76 0 0 1-.01-.187V27.502c0-.955.767-1.73 1.714-1.73h5.705c.947 0 1.715.775 1.715 1.73v11.114c0 .063-.004.125-.01.187h6.712a1.771 1.771 0 0 1-.01-.187V27.502c0-.955.768-1.73 1.714-1.73h5.706c.946 0 1.714.775 1.714 1.73v11.114c0 .063-.004.125-.01.187h6.713a1.771 1.771 0 0 1-.01-.187V27.502c0-.955.767-1.73 1.714-1.73h5.705c.947 0 1.714.775 1.714 1.73v11.114c0 .063-.003.125-.01.187h.188c1.468 0 3.429 1 3.429 3.08v4.04C48 48 46.039 49 44.571 49H3.43C1.96 49 0 48 0 45.92v-4.04Zm81.286-30.594a2.286 2.286 0 0 0-4.572 0v11.428H65.286a2.286 2.286 0 0 0 0 4.572h11.428v11.428a2.286 2.286 0 0 0 4.572 0V27.286h11.428a2.286 2.286 0 0 0 0-4.572H81.286V11.286Z"/></g></svg>