<svg xmlns="http://www.w3.org/2000/svg" width="32" viewBox="0 0 32 26">
<path fill="#2D3C53" fill-rule="evenodd" d="M11.57 3.393a2.855 2.855 0 0 0-2.772 2.148l-.892 3.531h16.185l-.889-3.531a2.851 2.851 0 0 0-2.772-2.148h-8.86Zm-6.098 1.33C6.167 1.95 8.682.003 11.57 0h8.86c2.888.001 5.404 1.95 6.098 4.723l1.422 5.635c.005.022.01.044.013.066 2.4.73 4.036 2.92 4.037 5.403v2.26c0 1.873-1.535 3.392-3.429 3.392v2.26c0 1.249-1.023 2.261-2.285 2.261C25.023 26 24 24.988 24 23.74v-2.261H8v2.26C8 24.988 6.977 26 5.714 26c-1.262 0-2.285-1.012-2.285-2.26v-2.261C1.535 21.479 0 19.96 0 18.088v-2.261c0-2.482 1.637-4.674 4.037-5.403l.013-.068 1.422-5.633Zm-.043 11.104c0-.78.64-1.413 1.428-1.413h2.286c.51 0 .982.27 1.237.707a1.4 1.4 0 0 1 0 1.412 1.432 1.432 0 0 1-1.237.707H6.857a1.42 1.42 0 0 1-1.428-1.413Zm17.428-1.413c-.51 0-.982.27-1.237.707a1.4 1.4 0 0 0 0 1.412c.255.438.727.707 1.237.707h2.286c.51 0 .982-.27 1.237-.707a1.4 1.4 0 0 0 0-1.412 1.432 1.432 0 0 0-1.237-.707h-2.286Z"/></svg>