<svg xmlns="http://www.w3.org/2000/svg" viewBox="0 0 32 32">
<g fill="none" fill-rule="evenodd">
<circle cx="16" cy="16" r="16" fill="#2D3C53"/>
<path fill="#FFF" fill-rule="nonzero" d="M19.054 7.917v2.44h-.287c-1.34.02-2.419.37-3.235 1.046-.817.677-1.308 1.617-1.472 2.82.793-.806 1.795-1.21 3.005-1.21 1.298 0 2.33.465 3.096 1.395.766.93 1.149 2.153 1.149 3.67 0 .971-.21 1.85-.63 2.636a4.523 4.523 0 0 1-1.785 1.835c-.77.438-1.639.657-2.61.657-1.572 0-2.842-.547-3.81-1.641-.966-1.094-1.45-2.553-1.45-4.378V16.12c0-1.62.306-3.05.918-4.291.612-1.24 1.49-2.201 2.635-2.881 1.145-.68 2.473-1.024 3.984-1.031h.492Zm-2.892 7.475c-.478 0-.912.125-1.302.374-.39.25-.677.58-.861.99v.902c0 .991.194 1.766.584 2.323.39.557.937.835 1.64.835.636 0 1.15-.25 1.544-.753.393-.503.59-1.154.59-1.954 0-.813-.199-1.47-.595-1.968-.397-.5-.93-.749-1.6-.749Z"/>
</g>
</svg>