<svg xmlns="http://www.w3.org/2000/svg" viewBox="0 0 50 50"><path fill="#2D3C53" fill-rule="evenodd" d="M15.412 9.91A12.857 12.857 0 0 1 37.362 19v.549H11.646V19c0-3.409 1.354-6.678 3.765-9.09Zm-8.908 9.635V19c0-9.941 8.059-18 18-18s18 8.059 18 18v.549h.429a5.177 5.177 0 0 1 5.04 5.811L45.58 43.394l-.024.192c-.052.45-.138 1.2-.422 1.876a5.31 5.31 0 0 1-3.388 3.03c-.72.21-1.45.206-1.896.2H9.322a6.926 6.926 0 0 1-2.064-.2 5.31 5.31 0 0 1-3.39-3.03c-.323-.779-.419-1.7-.477-2.26a3.782 3.782 0 0 0-.034-.301L1.08 25.703a6.216 6.216 0 0 1-.044-1.66 5.208 5.208 0 0 1 4.07-4.388c.342-.072.699-.11 1.062-.106h.34l-.004-.004Zm9.724 7.91c1.182 0 2.142.96 2.142 2.143v9.607a2.143 2.143 0 0 1-4.285 0v-9.607c0-1.183.96-2.143 2.143-2.143Zm18.696 2.143a2.143 2.143 0 1 0-4.286 0v9.607a2.143 2.143 0 0 0 4.286 0v-9.607Z"/></svg>