<svg xmlns="http://www.w3.org/2000/svg" viewBox="0 0 32 32">
<g fill="none" fill-rule="evenodd">
<circle cx="16" cy="16" r="16" fill="#243A4A"/>
<path fill="#FFF" fill-rule="nonzero" d="M21.249 23H11.015v-2.03l4.83-5.148c.663-.725 1.154-1.357 1.471-1.897.318-.54.477-1.053.477-1.538 0-.663-.167-1.184-.502-1.564-.335-.38-.814-.569-1.436-.569-.67 0-1.198.23-1.584.692-.386.462-.58 1.068-.58 1.82h-2.973c0-.909.217-1.74.651-2.491a4.59 4.59 0 0 1 1.84-1.77c.794-.426 1.693-.64 2.697-.64 1.539 0 2.733.37 3.584 1.107.851.739 1.277 1.781 1.277 3.128 0 .738-.192 1.49-.574 2.256-.383.765-1.04 1.657-1.97 2.676l-3.393 3.579h6.419V23Z"/>
</g>
</svg>