<svg xmlns="http://www.w3.org/2000/svg" width="32" viewBox="0 0 48 48">
<g fill="none" fill-rule="evenodd">
<circle cx="24" cy="24" r="24" fill="#BA0D37"/>
<path fill="#FFF" d="M19.864 10h-1.91v8.59h.399a8.313 8.313 0 0 1 1.51-1.12V10Zm9.783 8.59A8.243 8.243 0 0 0 24 16.365c-.753 0-1.502.101-2.227.303V10h12.409A3.818 3.818 0 0 1 38 13.818v4.773h-8.353Zm-1.686 1.91a5.727 5.727 0 1 1-7.926 8.273 5.727 5.727 0 0 1 7.927-8.273h-.001Zm-11.126 0a8.273 8.273 0 1 0 14.33 0H38v13.682A3.818 3.818 0 0 1 34.182 38H13.818A3.818 3.818 0 0 1 10 34.182V20.5h6.835Zm-.79-10.5v8.59h-1.909V10h1.91Zm-3.818.346v8.245H10v-4.773c0-1.493.87-2.85 2.227-3.472Zm18.137 2.836c0-.352.285-.637.636-.637h2.545c.352 0 .637.285.637.637v2.545a.636.636 0 0 1-.637.637H31a.636.636 0 0 1-.636-.637v-2.545Z"/></g></svg>