<svg xmlns="http://www.w3.org/2000/svg" width="100" height="100" viewBox="0 0 100 100"><g fill="none"><path fill="#CC1441" d="M59.09 5.585a10.189 10.189 0 0 0-18.18 0l-10.647 20.39-21.885 4.281C.265 31.842-2.657 41.868 2.755 47.846L18.15 64.852l-2.882 23.193c-1 8.065 7.112 14.632 14.718 10.862L50 88.984l20.014 9.924c7.604 3.77 15.718-2.8 14.716-10.864l-2.88-23.191 15.395-17.006c5.412-5.979 2.49-16.005-5.623-17.591l-21.885-4.283L59.09 5.583v.002Z"/><path fill="#FFF" d="M38.709 63.96H26.08v-3.12l7.614-18.646h6.129l-7.02 16.863h5.906v-6.649h5.942v6.649h2.6v4.903h-2.6v4.866H38.71V63.96Zm12.455 5.386c-.941 0-1.74-.248-2.396-.743-.656-.496-.984-1.263-.984-2.303s.328-1.82.984-2.34c.656-.52 1.455-.78 2.396-.78.966 0 1.783.26 2.451.78.669.52 1.003 1.3 1.003 2.34 0 1.04-.334 1.807-1.003 2.303-.668.495-1.485.743-2.451.743Zm13.83-.075c-1.387 0-2.65-.154-3.79-.464-1.138-.31-2.11-.799-2.915-1.467-.805-.669-1.43-1.53-1.876-2.582-.445-1.052-.68-2.321-.705-3.807l5.757-.52c.074 2.749 1.312 4.123 3.714 4.123 2.476 0 3.714-1.287 3.714-3.863V59.8c0-2.427-1.213-3.64-3.64-3.64-1.535 0-2.81.42-3.825 1.263l-5.089-1.635.929-13.594H73.35v4.977H62.133l-.371 5.535c1.46-.743 3.207-1.115 5.237-1.115 1.114 0 2.148.136 3.101.409.954.272 1.771.712 2.452 1.318.68.607 1.213 1.393 1.597 2.359.384.966.576 2.142.576 3.529v1.671c0 2.848-.873 4.959-2.619 6.333-1.746 1.374-4.116 2.061-7.113 2.061Z"/></g></svg>