<svg xmlns="http://www.w3.org/2000/svg" viewBox="0 0 50 50"><path fill="#2D3C53" fill-rule="evenodd" d="M6.143 6A5.143 5.143 0 0 0 1 11.143V35.63a4.66 4.66 0 0 0 3.456 4.501 8.571 8.571 0 1 1 17.074.155h5.225a8.571 8.571 0 1 1 17.061-.014h.062A5.143 5.143 0 0 0 49 35.129v-13.7C49 12.908 42.092 6 33.571 6H6.143ZM40.36 40.286a5.144 5.144 0 0 0-10.145-1.715 5.143 5.143 0 0 0 10.142 1.715h.003ZM13 44.57a5.143 5.143 0 1 1 0-10.285 5.143 5.143 0 0 1 0 10.285ZM41.927 15.43c.418.579.775 1.203 1.063 1.865.26 1.049.397 2.146.397 3.277v2.572H34.43v-7.714h7.498Zm-12.641 0v7.714h-8.572v-7.714h8.572Zm-22.67 7.714h8.955v-7.714H6.616v7.714Z"/></svg>