<svg xmlns="http://www.w3.org/2000/svg" width="420" viewBox="0 0 420 255">
<g fill="none" fill-rule="evenodd"><path fill="#7D757C" d="m82.726 215.112-3.35 39.146H54.32l-3.264-38.63a7.11 7.11 0 0 0-.057-.516s6.185-20.218 13.744-23.597a4.726 4.726 0 0 1 2.119-.515c8.475 0 15.863 24.112 15.863 24.112"/><path fill="#40343E" d="m64.744 191.515-.802 10.71s-.982 20.099-4.426 33.18c-.529 2.01-3.336 2.183-4.074.24-2.517-6.631-4.056-17.517-4.385-20.018-.028-.344-.057-.515-.057-.515s6.185-20.218 13.744-23.597m4.238 0 .802 10.71s.982 20.099 4.426 33.18c.53 2.01 3.336 2.183 4.074.24 2.517-6.631 4.055-17.517 4.384-20.018.029-.344.057-.515.057-.515s-6.185-20.218-13.743-23.597"/><path fill="#7D757C" d="m225.451 215.112-3.35 39.146h-25.054l-3.264-38.63c-.029-.344-.057-.516-.057-.516s6.185-20.218 13.744-23.597a4.726 4.726 0 0 1 2.119-.515c8.475 0 15.862 24.112 15.862 24.112"/><path fill="#40343E" d="m207.47 191.515-.803 10.71s-.982 20.099-4.425 33.18c-.529 2.01-3.337 2.183-4.075.24-2.517-6.631-4.055-17.517-4.384-20.018-.029-.344-.057-.515-.057-.515s6.185-20.218 13.744-23.597m4.237 0 .803 10.71s.982 20.099 4.425 33.18c.53 2.01 3.337 2.183 4.075.24 2.517-6.631 4.055-17.517 4.384-20.018.029-.344.057-.515.057-.515s-6.185-20.218-13.744-23.597"/><path fill="#7D757C" d="m368.177 215.112-3.35 39.146h-25.054l-3.264-38.63c-.029-.344-.058-.516-.058-.516s6.186-20.218 13.744-23.597a4.726 4.726 0 0 1 2.12-.515c8.475 0 15.862 24.112 15.862 24.112"/><path fill="#40343E" d="m350.195 191.515-.802 10.71s-.982 20.099-4.426 33.18c-.528 2.01-3.336 2.183-4.074.24-2.517-6.631-4.055-17.517-4.384-20.018-.029-.344-.057-.515-.057-.515s6.185-20.218 13.743-23.597m4.238 0 .802 10.71s.982 20.099 4.426 33.18c.53 2.01 3.336 2.183 4.074.24 2.517-6.631 4.056-17.517 4.385-20.018.028-.344.057-.515.057-.515s-6.185-20.218-13.744-23.597"/><path fill="#7D757C" d="m130.726 226.429-5.545 16.597v11.545H103.18v-11.545L97.726 226l8.182-33.238c.266-1.056 1.056-1.762 2.024-1.762h12.496c1.057 0 1.85.706 2.024 1.762l8.274 33.667Zm142.725 0-5.545 16.597v11.545h-22v-11.545L240.45 226l8.183-33.238c.266-1.056 1.056-1.762 2.024-1.762h12.496c1.056 0 1.85.706 2.024 1.762l8.273 33.667Zm-94.725 0-5.545 16.597v11.545H151.18v-11.545L145.726 226l8.182-33.238c.266-1.056 1.056-1.762 2.024-1.762h12.496c1.057 0 1.85.706 2.024 1.762l8.274 33.667Zm142.725 0-5.545 16.597v11.545h-22v-11.545L288.45 226l8.183-33.238c.266-1.056 1.056-1.762 2.024-1.762h12.496c1.056 0 1.85.706 2.024 1.762l8.273 33.667Z"/><path fill="#243A4A" fill-rule="nonzero" d="m139.212 74.32 10.584-43.56h-12.96v-5.4h18.504v5.184L145.116 74.32h-5.904Zm28.512 0V25.36h11.232c2.544 0 4.536.684 5.976 2.052 1.44 1.368 2.16 3.468 2.16 6.3V45.52c0 2.832-.732 4.92-2.196 6.264-1.464 1.344-3.444 2.016-5.94 2.016h-5.4v20.52h-5.832Zm10.152-43.992h-4.32v18.504h4.32c1.056 0 1.872-.264 2.448-.792.576-.528.864-1.44.864-2.736V33.928c0-1.296-.288-2.22-.864-2.772-.576-.552-1.392-.828-2.448-.828Zm14.328 43.992V25.36h5.832v48.96h-5.832Zm12.024 0V25.36h15.264v5.112h-9.432V46.24h8.496v5.112h-8.496v17.856h10.152v5.112h-15.984Zm28.224.36c-2.496 0-4.476-.684-5.94-2.052-1.464-1.368-2.196-3.444-2.196-6.228V33.28c0-2.784.72-4.86 2.16-6.228 1.44-1.368 3.432-2.052 5.976-2.052h2.88c2.544 0 4.536.684 5.976 2.052 1.44 1.368 2.16 3.444 2.16 6.228v11.016h-5.904V33.64c0-1.296-.3-2.232-.9-2.808-.6-.576-1.404-.864-2.412-.864h-.72c-1.008 0-1.812.288-2.412.864-.6.576-.9 1.512-.9 2.808v32.4c0 1.296.3 2.232.9 2.808.6.576 1.404.864 2.412.864h.72c1.056 0 1.872-.288 2.448-.864.576-.576.864-1.512.864-2.808V55.744h5.904V66.4c0 2.784-.72 4.86-2.16 6.228-1.44 1.368-3.432 2.052-5.976 2.052h-2.88Zm16.272-.36V25.36h15.264v5.112h-9.432V46.24h8.496v5.112h-8.496v17.856h10.152v5.112h-15.984ZM44.136 134.68c-2.544 0-4.536-.696-5.976-2.088C36.72 131.2 36 129.136 36 126.4v-10.8h5.832v10.44c0 1.296.3 2.232.9 2.808.6.576 1.404.864 2.412.864h1.296c1.008 0 1.812-.288 2.412-.864.6-.576.9-1.512.9-2.808v-7.992c0-1.392-.252-2.496-.756-3.312-.504-.816-1.428-1.536-2.772-2.16l-4.392-2.088c-2.064-.96-3.552-2.196-4.464-3.708-.912-1.512-1.368-3.516-1.368-6.012V93.28c0-2.784.72-4.86 2.16-6.228C39.6 85.684 41.592 85 44.136 85h3.312c2.544 0 4.536.684 5.976 2.052 1.44 1.368 2.16 3.444 2.16 6.228v9.288h-5.832V93.64c0-1.296-.3-2.232-.9-2.808-.6-.576-1.404-.864-2.412-.864h-1.296c-.912 0-1.692.288-2.34.864-.648.576-.972 1.512-.972 2.808v6.408c0 1.44.264 2.544.792 3.312.528.768 1.44 1.464 2.736 2.088l4.32 2.016c2.112 1.008 3.624 2.244 4.536 3.708.912 1.464 1.368 3.444 1.368 5.94v9.288c0 2.736-.72 4.8-2.16 6.192-1.44 1.392-3.432 2.088-5.976 2.088h-3.312Zm25.056 0c-2.496 0-4.476-.684-5.94-2.052-1.464-1.368-2.196-3.444-2.196-6.228V93.28c0-2.784.72-4.86 2.16-6.228C64.656 85.684 66.648 85 69.192 85h2.88c2.544 0 4.536.684 5.976 2.052 1.44 1.368 2.16 3.444 2.16 6.228v11.016h-5.904V93.64c0-1.296-.3-2.232-.9-2.808-.6-.576-1.404-.864-2.412-.864h-.72c-1.008 0-1.812.288-2.412.864-.6.576-.9 1.512-.9 2.808v32.4c0 1.296.3 2.232.9 2.808.6.576 1.404.864 2.412.864h.72c1.056 0 1.872-.288 2.448-.864.576-.576.864-1.512.864-2.808v-10.296h5.904V126.4c0 2.784-.72 4.86-2.16 6.228-1.44 1.368-3.432 2.052-5.976 2.052h-2.88Zm16.272-.36V85.36H96.84c2.496 0 4.476.684 5.94 2.052 1.464 1.368 2.196 3.468 2.196 6.3v11.664c0 3.888-1.416 6.432-4.248 7.632l5.256 21.312h-6.336l-4.536-20.52h-3.816v20.52h-5.832ZM95.76 90.328h-4.464v18.432h4.464c1.008 0 1.812-.264 2.412-.792.6-.528.9-1.44.9-2.736V93.928c0-1.296-.3-2.22-.9-2.772-.6-.552-1.404-.828-2.412-.828Zm14.904 43.992V85.36h15.264v5.112h-9.432v15.768h8.496v5.112h-8.496v17.856h10.152v5.112h-15.984Zm22.968 0-4.392-48.96h5.904l2.88 39.456 4.392-39.456h6.264l4.392 39.528 2.808-39.528h5.256l-4.464 48.96h-7.488l-3.96-36.576-4.176 36.576h-7.416Zm31.752 0V85.36h11.232c2.544 0 4.536.684 5.976 2.052 1.44 1.368 2.16 3.468 2.16 6.3v32.256c0 2.832-.72 4.932-2.16 6.3-1.44 1.368-3.432 2.052-5.976 2.052h-11.232Zm10.152-43.992h-4.32v39.024h4.32c1.056 0 1.872-.288 2.448-.864.576-.576.864-1.512.864-2.808V94c0-1.296-.288-2.232-.864-2.808-.576-.576-1.392-.864-2.448-.864Zm15.048 43.992V85.36h11.376c2.496 0 4.476.684 5.94 2.052 1.464 1.368 2.196 3.468 2.196 6.3v11.664c0 3.888-1.416 6.432-4.248 7.632l5.256 21.312h-6.336l-4.536-20.52h-3.816v20.52h-5.832Zm10.296-43.992h-4.464v18.432h4.464c1.008 0 1.812-.264 2.412-.792.6-.528.9-1.44.9-2.736V93.928c0-1.296-.3-2.22-.9-2.772-.6-.552-1.404-.828-2.412-.828Zm14.904 43.992V85.36h5.832v48.96h-5.832Zm16.92 0-7.416-48.96h6.264l5.184 40.032 5.256-40.032h5.616l-7.632 48.96h-7.272Zm18.576 0V85.36h15.264v5.112h-9.432v15.768h8.496v5.112h-8.496v17.856h10.152v5.112H251.28Zm20.448 0V85.36h11.376c2.496 0 4.476.684 5.94 2.052 1.464 1.368 2.196 3.468 2.196 6.3v11.664c0 3.888-1.416 6.432-4.248 7.632l5.256 21.312h-6.336l-4.536-20.52h-3.816v20.52h-5.832Zm10.296-43.992h-4.464v18.432h4.464c1.008 0 1.812-.264 2.412-.792.6-.528.9-1.44.9-2.736V93.928c0-1.296-.3-2.22-.9-2.772-.6-.552-1.404-.828-2.412-.828Zm30.6 44.352c-2.544 0-4.536-.696-5.976-2.088-1.44-1.392-2.16-3.456-2.16-6.192v-10.8h5.832v10.44c0 1.296.3 2.232.9 2.808.6.576 1.404.864 2.412.864h1.296c1.008 0 1.812-.288 2.412-.864.6-.576.9-1.512.9-2.808v-7.992c0-1.392-.252-2.496-.756-3.312-.504-.816-1.428-1.536-2.772-2.16l-4.392-2.088c-2.064-.96-3.552-2.196-4.464-3.708-.912-1.512-1.368-3.516-1.368-6.012V93.28c0-2.784.72-4.86 2.16-6.228 1.44-1.368 3.432-2.052 5.976-2.052h3.312c2.544 0 4.536.684 5.976 2.052 1.44 1.368 2.16 3.444 2.16 6.228v9.288h-5.832V93.64c0-1.296-.3-2.232-.9-2.808-.6-.576-1.404-.864-2.412-.864h-1.296c-.912 0-1.692.288-2.34.864-.648.576-.972 1.512-.972 2.808v6.408c0 1.44.264 2.544.792 3.312.528.768 1.44 1.464 2.736 2.088l4.32 2.016c2.112 1.008 3.624 2.244 4.536 3.708.912 1.464 1.368 3.444 1.368 5.94v9.288c0 2.736-.72 4.8-2.16 6.192-1.44 1.392-3.432 2.088-5.976 2.088h-3.312Zm17.28-.36V85.36h15.264v5.112h-9.432v15.768h8.496v5.112h-8.496v17.856h10.152v5.112h-15.984Zm25.128 0V90.472h-7.056V85.36h19.944v5.112h-7.056v43.848h-5.832Zm-111.368 36.12V169c.256-.272.428-.592.516-.96.088-.368.132-.808.132-1.32v-3.072h-1.128v-1.632h1.128v-5.328c0-.896.232-1.568.696-2.016.464-.448 1.112-.672 1.944-.672h.888c.832 0 1.48.224 1.944.672.464.448.696 1.12.696 2.016v3.192h-1.92v-3.12c0-.416-.092-.712-.276-.888-.184-.176-.444-.264-.78-.264h-.24c-.32 0-.576.088-.768.264-.192.176-.288.472-.288.888v5.256h2.88v1.632h-2.88v3.168c0 .896-.232 1.56-.696 1.992h5.208v1.632h-7.056Zm8.352 0v-1.632l3.384-6.312c.32-.624.56-1.132.72-1.524.16-.392.264-.768.312-1.128.048-.36.072-.812.072-1.356v-1.656c0-.816-.368-1.224-1.104-1.224h-.336c-.736 0-1.104.408-1.104 1.224v3.24h-1.944v-3.312c0-.896.236-1.58.708-2.052s1.14-.708 2.004-.708h.984c.896 0 1.576.236 2.04.708.464.472.696 1.156.696 2.052v1.728c0 .656-.044 1.224-.132 1.704-.088.48-.236.968-.444 1.464a21.54 21.54 0 0 1-.864 1.776l-2.808 5.208h4.296v1.8h-6.48ZM263.944 154c.864 0 1.532.232 2.004.696.472.464.708 1.152.708 2.064v11.04c0 .912-.24 1.6-.72 2.064-.48.464-1.144.696-1.992.696h-.888c-.864 0-1.536-.232-2.016-.696-.48-.464-.72-1.152-.72-2.064v-2.376h1.944v2.304c0 .432.096.744.288.936.192.192.464.288.816.288h.264c.336 0 .604-.096.804-.288.2-.192.3-.504.3-.936v-4.944l-.576.336c-.528.32-.948.548-1.26.684a2.25 2.25 0 0 1-.9.204c-.576 0-1.028-.204-1.356-.612-.328-.408-.492-.98-.492-1.716v-4.92c0-.928.24-1.62.72-2.076.48-.456 1.152-.684 2.016-.684h1.056Zm-1.848 7.224c0 .64.232.96.696.96.288 0 .632-.088 1.032-.264l.912-.36v-4.728c0-.432-.1-.744-.3-.936-.2-.192-.468-.288-.804-.288h-.432c-.736 0-1.104.408-1.104 1.224v4.392Zm6.384 9.216v-2.592h1.992v2.592h-1.992Zm7.44-16.44c.864 0 1.532.232 2.004.696.472.464.708 1.152.708 2.064v11.04c0 .912-.24 1.6-.72 2.064-.48.464-1.144.696-1.992.696h-.888c-.864 0-1.536-.232-2.016-.696-.48-.464-.72-1.152-.72-2.064v-2.376h1.944v2.304c0 .432.096.744.288.936.192.192.464.288.816.288h.264c.336 0 .604-.096.804-.288.2-.192.3-.504.3-.936v-4.944l-.576.336c-.528.32-.948.548-1.26.684a2.25 2.25 0 0 1-.9.204c-.576 0-1.028-.204-1.356-.612-.328-.408-.492-.98-.492-1.716v-4.92c0-.928.24-1.62.72-2.076.48-.456 1.152-.684 2.016-.684h1.056Zm-1.848 7.224c0 .64.232.96.696.96.288 0 .632-.088 1.032-.264l.912-.36v-4.728c0-.432-.1-.744-.3-.936-.2-.192-.468-.288-.804-.288h-.432c-.736 0-1.104.408-1.104 1.224v4.392ZM284.128 154c.864 0 1.532.232 2.004.696.472.464.708 1.152.708 2.064v11.04c0 .912-.24 1.6-.72 2.064-.48.464-1.144.696-1.992.696h-.888c-.864 0-1.536-.232-2.016-.696-.48-.464-.72-1.152-.72-2.064v-2.376h1.944v2.304c0 .432.096.744.288.936.192.192.464.288.816.288h.264c.336 0 .604-.096.804-.288.2-.192.3-.504.3-.936v-4.944l-.576.336c-.528.32-.948.548-1.26.684a2.25 2.25 0 0 1-.9.204c-.576 0-1.028-.204-1.356-.612-.328-.408-.492-.98-.492-1.716v-4.92c0-.928.24-1.62.72-2.076.48-.456 1.152-.684 2.016-.684h1.056Zm-1.848 7.224c0 .64.232.96.696.96.288 0 .632-.088 1.032-.264l.912-.36v-4.728c0-.432-.1-.744-.3-.936-.2-.192-.468-.288-.804-.288h-.432c-.736 0-1.104.408-1.104 1.224v4.392ZM118 170.44v-16.32h1.944v6.912h2.592v-6.912h1.944v16.32h-1.944v-7.704h-2.592v7.704H118Zm7.704 0 2.592-16.32h2.4l2.592 16.32h-2.064l-.48-3.504h-2.736l-.48 3.504h-1.824Zm2.52-5.16h2.28l-1.128-8.28-1.152 8.28Zm6.288 5.16v-16.32h2.28l2.832 12.288V154.12h1.56v16.32h-2.28l-2.832-12.24v12.24h-1.56Zm8.736 0v-16.32h3.744c.848 0 1.512.228 1.992.684.48.456.72 1.156.72 2.1v10.752c0 .944-.24 1.644-.72 2.1-.48.456-1.144.684-1.992.684h-3.744Zm3.384-14.664h-1.44v13.008h1.44c.352 0 .624-.096.816-.288.192-.192.288-.504.288-.936V157c0-.432-.096-.744-.288-.936-.192-.192-.464-.288-.816-.288Zm9.168 14.664v-14.616h-2.352v-1.704h6.648v1.704h-2.352v14.616H155.8Zm8.16.12c-.832 0-1.492-.228-1.98-.684-.488-.456-.732-1.148-.732-2.076v-11.04c0-.928.244-1.62.732-2.076.488-.456 1.148-.684 1.98-.684h1.176c.832 0 1.488.228 1.968.684.48.456.72 1.148.72 2.076v11.04c0 .928-.24 1.62-.72 2.076-.48.456-1.136.684-1.968.684h-1.176Zm.36-1.656h.456c.336 0 .604-.096.804-.288.2-.192.3-.504.3-.936v-10.8c0-.432-.1-.744-.3-.936-.2-.192-.468-.288-.804-.288h-.456c-.336 0-.604.096-.804.288-.2.192-.3.504-.3.936v10.8c0 .432.1.744.3.936.2.192.468.288.804.288Zm8.064 1.656c-.832 0-1.492-.228-1.98-.684-.488-.456-.732-1.148-.732-2.076v-11.04c0-.928.244-1.62.732-2.076.488-.456 1.148-.684 1.98-.684h1.176c.832 0 1.488.228 1.968.684.48.456.72 1.148.72 2.076v11.04c0 .928-.24 1.62-.72 2.076-.48.456-1.136.684-1.968.684h-1.176Zm.36-1.656h.456c.336 0 .604-.096.804-.288.2-.192.3-.504.3-.936v-10.8c0-.432-.1-.744-.3-.936-.2-.192-.468-.288-.804-.288h-.456c-.336 0-.604.096-.804.288-.2.192-.3.504-.3.936v10.8c0 .432.1.744.3.936.2.192.468.288.804.288Zm5.472 1.536v-16.32h1.944v14.616h3.12v1.704h-5.064Zm9.12.12c-.848 0-1.512-.232-1.992-.696-.48-.464-.72-1.152-.72-2.064v-3.6h1.944v3.48c0 .432.1.744.3.936.2.192.468.288.804.288h.432c.336 0 .604-.096.804-.288.2-.192.3-.504.3-.936v-2.664c0-.464-.084-.832-.252-1.104-.168-.272-.476-.512-.924-.72l-1.464-.696c-.688-.32-1.184-.732-1.488-1.236-.304-.504-.456-1.172-.456-2.004v-2.496c0-.928.24-1.62.72-2.076.48-.456 1.144-.684 1.992-.684h1.104c.848 0 1.512.228 1.992.684.48.456.72 1.148.72 2.076v3.096h-1.944v-2.976c0-.432-.1-.744-.3-.936-.2-.192-.468-.288-.804-.288h-.432c-.304 0-.564.096-.78.288-.216.192-.324.504-.324.936v2.136c0 .48.088.848.264 1.104.176.256.48.488.912.696l1.44.672c.704.336 1.208.748 1.512 1.236.304.488.456 1.148.456 1.98v3.096c0 .912-.24 1.6-.72 2.064-.48.464-1.144.696-1.992.696h-1.104Z"/></g></svg>