<svg xmlns="http://www.w3.org/2000/svg" viewBox="0 0 335 175"><g fill="none" fill-rule="evenodd"><path fill="#33302E" fill-rule="nonzero" d="M58.91 101c.085-.784.127-1.561.127-2.331V88.421c0-.756-.042-1.533-.127-2.331h9.556l.168 3.402a11.76 11.76 0 0 0-1.323-.136 28.257 28.257 0 0 0-1.324-.032h-2.981v2.583h2.352c.391 0 .77-.01 1.133-.031.365-.022.743-.06 1.135-.116v3.108a11.02 11.02 0 0 0-1.135-.105 29.532 29.532 0 0 0-1.133-.021h-2.353v3.024h2.982a25.25 25.25 0 0 0 2.857-.168L68.675 101H58.91Zm10.963 0 4.64-7.602-4.305-7.308h4.978c.097.378.244.749.44 1.113l1.995 3.591 1.933-3.528c.195-.42.343-.812.44-1.176h4.41l-4.22 7.224L84.887 101H79.91a4.087 4.087 0 0 0-.22-.62 3.598 3.598 0 0 0-.325-.577l-2.31-3.696-2.227 3.696a8.879 8.879 0 0 0-.283.578 6.67 6.67 0 0 0-.242.619h-4.43Zm16.421 0c.085-.784.127-1.561.127-2.331V88.421c0-.756-.043-1.533-.127-2.331h5.46c1.918 0 3.36.493 4.326 1.48.966.988 1.45 2.293 1.45 3.917 0 1.694-.519 3.056-1.555 4.085-1.035 1.028-2.596 1.543-4.682 1.543h-.967v1.554c0 .392.008.78.022 1.166.014.385.049.773.105 1.165h-4.159Zm4.873-11.697h-.84v4.851h.797c1.82 0 2.73-.833 2.73-2.499 0-1.568-.895-2.352-2.688-2.352ZM99.25 101c.084-.784.126-1.561.126-2.331V88.421c0-.756-.041-1.533-.126-2.331h9.555l.169 3.402a11.76 11.76 0 0 0-1.323-.136 28.257 28.257 0 0 0-1.323-.032h-2.982v2.583h2.352c.392 0 .77-.01 1.133-.031.365-.022.743-.06 1.135-.116v3.108a11.02 11.02 0 0 0-1.135-.105 29.532 29.532 0 0 0-1.133-.021h-2.352v3.024h2.982a25.25 25.25 0 0 0 2.856-.168l-.169 3.402h-9.765Zm11.95 0a13.4 13.4 0 0 0 .115-1.165c.021-.385.031-.774.031-1.166V88.421c0-.364-.01-.746-.031-1.145a9.619 9.619 0 0 0-.136-1.186h5.48c1.989 0 3.424.392 4.306 1.176.882.784 1.323 1.883 1.323 3.297 0 .826-.172 1.547-.515 2.163-.343.616-.963 1.127-1.859 1.533.658.28 1.141.668 1.45 1.165.308.497.588 1.194.84 2.09l.356 1.386c.182.77.434 1.47.756 2.1h-4.157l-.651-2.562c-.154-.658-.344-1.148-.567-1.47a1.64 1.64 0 0 0-.861-.651c-.35-.112-.799-.168-1.344-.168h-.441v2.52c0 .392.01.78.031 1.166a9.6 9.6 0 0 0 .136 1.165h-4.262Zm5.019-11.676h-.924v3.906h.965c.868 0 1.47-.178 1.806-.535.337-.357.505-.837.505-1.439 0-.616-.179-1.092-.536-1.428-.357-.336-.963-.504-1.817-.504ZM127.873 101c.056-.392.092-.78.106-1.165.013-.385.02-.774.02-1.166v-9.261h-1.239c-.433 0-.86.007-1.28.021-.42.014-.847.049-1.281.105V86.09h11.612v3.444a13.53 13.53 0 0 0-1.28-.105c-.42-.014-.847-.021-1.282-.021h-1.238v9.261c0 .392.006.78.02 1.166.014.385.05.773.105 1.165h-4.263Zm13.987 0c.056-.392.09-.78.105-1.165.013-.385.02-.774.02-1.166V88.421c0-.364-.006-.746-.02-1.145a11.148 11.148 0 0 0-.106-1.186h4.263c-.055.392-.09.787-.105 1.186-.013.4-.02.781-.02 1.145v9.345h2.75c.463 0 .921-.007 1.376-.021.455-.014.906-.042 1.355-.084V101h-9.619Zm18.207.252c-1.47 0-2.752-.322-3.844-.966-1.091-.644-1.942-1.554-2.551-2.73-.609-1.176-.913-2.548-.913-4.116 0-1.68.335-3.084 1.008-4.21a6.438 6.438 0 0 1 2.74-2.541c1.155-.567 2.468-.851 3.938-.851 1.47 0 2.754.326 3.853.977 1.099.65 1.95 1.56 2.552 2.73.601 1.168.903 2.537.903 4.105 0 1.68-.337 3.084-1.008 4.21a6.438 6.438 0 0 1-2.741 2.541c-1.155.568-2.468.851-3.938.851Zm.23-3.486c.994 0 1.803-.34 2.426-1.019.623-.678.935-1.641.935-2.887 0-1.498-.312-2.629-.935-3.391-.623-.763-1.452-1.145-2.488-1.145-.994 0-1.81.34-2.447 1.019-.637.678-.956 1.641-.956 2.887 0 1.498.319 2.629.956 3.391.637.764 1.474 1.145 2.51 1.145Zm17.137 3.486c-1.554 0-2.951-.283-4.19-.85a6.662 6.662 0 0 1-2.94-2.584c-.721-1.154-1.082-2.607-1.082-4.357 0-1.288.21-2.408.63-3.36a6.448 6.448 0 0 1 1.754-2.373 7.592 7.592 0 0 1 2.594-1.417c.98-.316 2.023-.473 3.129-.473.475 0 .927.025 1.354.074.427.048.822.115 1.186.199l.231 3.822a5.355 5.355 0 0 0-1.186-.357 7.35 7.35 0 0 0-1.27-.105c-1.275 0-2.297.332-3.067.998-.77.665-1.155 1.662-1.155 2.992 0 1.358.392 2.39 1.177 3.097.784.707 1.876 1.061 3.275 1.061.448 0 .858-.025 1.229-.073.371-.05.738-.13 1.102-.242l-.105 3.675a11.21 11.21 0 0 1-1.333.21c-.441.042-.886.063-1.333.063Zm4.83-.252c.056-.392.09-.78.105-1.165.013-.385.02-.774.02-1.166V88.421c0-.364-.006-.746-.02-1.145a11.148 11.148 0 0 0-.106-1.186h4.263c-.055.392-.09.787-.104 1.186-.014.4-.022.781-.022 1.145v4.683l3.297-5.103a8.676 8.676 0 0 0 .903-1.911h4.662l-4.809 7.056 5.397 7.854h-4.934c-.225-.658-.602-1.379-1.135-2.163l-3.38-4.662v4.494c0 .392.007.78.02 1.166.014.385.05.773.106 1.165h-4.263Zm14.93 0c.085-.784.126-1.561.126-2.331V88.421c0-.756-.041-1.533-.125-2.331h5.46c1.917 0 3.36.493 4.326 1.48.965.988 1.448 2.293 1.448 3.917 0 1.694-.518 3.056-1.554 4.085-1.036 1.028-2.596 1.543-4.683 1.543h-.966v1.554c0 .392.007.78.022 1.166.013.385.049.773.105 1.165h-4.159Zm4.873-11.697h-.84v4.851h.797c1.82 0 2.73-.833 2.73-2.499 0-1.568-.895-2.352-2.688-2.352ZM210.151 101c.085-.784.127-1.561.127-2.331V88.421c0-.756-.042-1.533-.126-2.331h4.263a22.268 22.268 0 0 0-.126 2.331v10.248c0 .77.042 1.547.126 2.331h-4.263Zm14.407.252c-1.554 0-2.951-.283-4.19-.85a6.662 6.662 0 0 1-2.94-2.584c-.721-1.154-1.082-2.607-1.082-4.357 0-1.288.21-2.408.63-3.36a6.448 6.448 0 0 1 1.754-2.373 7.592 7.592 0 0 1 2.594-1.417c.98-.316 2.023-.473 3.129-.473.475 0 .927.025 1.354.074.427.048.823.115 1.186.199l.232 3.822a5.355 5.355 0 0 0-1.187-.357 7.35 7.35 0 0 0-1.27-.105c-1.275 0-2.297.332-3.067.998-.77.665-1.154 1.662-1.154 2.992 0 1.358.392 2.39 1.175 3.097.784.707 1.876 1.061 3.276 1.061.448 0 .858-.025 1.229-.073.371-.05.738-.13 1.102-.242l-.105 3.675a11.21 11.21 0 0 1-1.333.21c-.441.042-.886.063-1.333.063Zm4.83-.252c.055-.392.09-.78.105-1.165.013-.385.02-.774.02-1.166V88.421c0-.364-.007-.746-.02-1.145a11.148 11.148 0 0 0-.106-1.186h4.263c-.056.392-.09.787-.105 1.186-.013.4-.02.781-.02 1.145v4.683l3.296-5.103a8.676 8.676 0 0 0 .904-1.911h4.661l-4.809 7.056 5.398 7.854h-4.935c-.225-.658-.602-1.379-1.135-2.163l-3.38-4.662v4.494c0 .392.006.78.02 1.166.014.385.05.773.106 1.165h-4.263Zm14.93 0c.085-.784.127-1.561.127-2.331V88.421c0-.756-.042-1.533-.126-2.331h9.555l.167 3.402a11.76 11.76 0 0 0-1.322-.136 28.257 28.257 0 0 0-1.323-.032h-2.982v2.583h2.352c.392 0 .77-.01 1.133-.031.364-.022.743-.06 1.135-.116v3.108a11.02 11.02 0 0 0-1.135-.105 29.532 29.532 0 0 0-1.133-.021h-2.352v3.024h2.982a25.25 25.25 0 0 0 2.856-.168l-.168 3.402h-9.766Zm11.95 0a13.4 13.4 0 0 0 .115-1.165c.021-.385.031-.774.031-1.166V88.421c0-.364-.01-.746-.031-1.145a9.619 9.619 0 0 0-.137-1.186h5.481c1.988 0 3.423.392 4.305 1.176.882.784 1.323 1.883 1.323 3.297 0 .826-.171 1.547-.514 2.163-.343.616-.962 1.127-1.858 1.533.658.28 1.14.668 1.449 1.165.308.497.588 1.194.84 2.09l.356 1.386c.183.77.434 1.47.756 2.1h-4.157l-.651-2.562c-.154-.658-.344-1.148-.567-1.47a1.64 1.64 0 0 0-.861-.651c-.35-.112-.798-.168-1.344-.168h-.442v2.52c0 .392.011.78.032 1.166a9.6 9.6 0 0 0 .137 1.165h-4.263Zm5.019-11.676h-.925v3.906h.966c.868 0 1.47-.178 1.806-.535.337-.357.505-.837.505-1.439 0-.616-.179-1.092-.536-1.428-.357-.336-.962-.504-1.816-.504Zm8.861 14.742-.692-.861c.447-.462.755-.871.923-1.228.168-.358.252-.704.252-1.04 0-.322-.101-.602-.304-.84-.203-.238-.507-.392-.913-.462 0-.826.216-1.442.65-1.848a2.196 2.196 0 0 1 1.555-.609c.587 0 1.077.203 1.47.609.392.406.588.945.588 1.617 0 .854-.288 1.648-.861 2.383-.575.735-1.464 1.495-2.668 2.279ZM13.288 125c.084-.784.126-1.561.126-2.331v-10.248c0-.756-.042-1.533-.126-2.331h9.555l.168 3.402a11.76 11.76 0 0 0-1.323-.136 28.257 28.257 0 0 0-1.323-.032h-2.982v2.583h2.352c.392 0 .77-.01 1.134-.031.364-.022.742-.06 1.134-.116v3.108a11.02 11.02 0 0 0-1.134-.105 29.532 29.532 0 0 0-1.134-.021h-2.352v3.024h2.982a25.25 25.25 0 0 0 2.856-.168L23.053 125h-9.765Zm11.928 0c.056-.392.091-.78.105-1.165.014-.385.021-.774.021-1.166v-10.248c0-.364-.007-.746-.021-1.145a11.148 11.148 0 0 0-.105-1.186h4.263c-.056.392-.091.787-.105 1.186-.014.4-.021.781-.021 1.145v9.345h2.751c.462 0 .92-.007 1.376-.021.455-.014.906-.042 1.354-.084V125h-9.618Zm11.361 0c.084-.784.126-1.561.126-2.331v-10.248c0-.756-.042-1.533-.126-2.331h9.555l.168 3.402a11.76 11.76 0 0 0-1.323-.136 28.257 28.257 0 0 0-1.323-.032h-2.982v2.583h2.352c.392 0 .77-.01 1.134-.031.364-.022.742-.06 1.134-.116v3.108a11.02 11.02 0 0 0-1.134-.105 29.532 29.532 0 0 0-1.134-.021h-2.352v3.024h2.982a25.25 25.25 0 0 0 2.856-.168L46.342 125h-9.765Zm19.677.252c-1.554 0-2.95-.283-4.19-.85a6.662 6.662 0 0 1-2.94-2.584c-.72-1.154-1.081-2.607-1.081-4.357 0-1.288.21-2.408.63-3.36a6.448 6.448 0 0 1 1.753-2.373 7.592 7.592 0 0 1 2.594-1.417c.98-.316 2.023-.473 3.129-.473.476 0 .928.025 1.355.074.427.048.822.115 1.186.199l.231 3.822a5.355 5.355 0 0 0-1.187-.357 7.35 7.35 0 0 0-1.27-.105c-1.274 0-2.296.332-3.066.998-.77.665-1.155 1.662-1.155 2.992 0 1.358.392 2.39 1.176 3.097.784.707 1.876 1.061 3.276 1.061.448 0 .858-.025 1.228-.073.371-.05.739-.13 1.103-.242l-.105 3.675a11.21 11.21 0 0 1-1.334.21c-.44.042-.885.063-1.333.063Zm7.728-.252c.056-.392.091-.78.105-1.165.014-.385.021-.774.021-1.166v-9.261h-1.239c-.434 0-.861.007-1.281.021-.42.014-.847.049-1.281.105v-3.444H71.92v3.444a13.53 13.53 0 0 0-1.281-.105c-.42-.014-.847-.021-1.281-.021h-1.239v9.261c0 .392.007.78.021 1.166.014.385.049.773.105 1.165h-4.263Zm9.597 0a13.4 13.4 0 0 0 .116-1.165c.02-.385.031-.774.031-1.166v-10.248c0-.364-.01-.746-.031-1.145a9.619 9.619 0 0 0-.137-1.186h5.481c1.988 0 3.423.392 4.305 1.176.882.784 1.323 1.883 1.323 3.297 0 .826-.171 1.547-.514 2.163-.344.616-.963 1.127-1.859 1.533.658.28 1.141.668 1.449 1.165.308.497.588 1.194.84 2.09l.357 1.386c.182.77.434 1.47.756 2.1h-4.158l-.651-2.562c-.154-.658-.343-1.148-.567-1.47a1.64 1.64 0 0 0-.861-.651c-.35-.112-.798-.168-1.344-.168h-.441v2.52c0 .392.01.78.031 1.166a9.6 9.6 0 0 0 .137 1.165h-4.263Zm5.019-11.676h-.924v3.906h.966c.868 0 1.47-.178 1.806-.535.336-.357.504-.837.504-1.439 0-.616-.178-1.092-.535-1.428-.358-.336-.963-.504-1.817-.504ZM87.355 125c.084-.784.126-1.561.126-2.331v-10.248c0-.756-.042-1.533-.126-2.331h4.263a22.268 22.268 0 0 0-.126 2.331v10.248c0 .77.042 1.547.126 2.331h-4.263Zm14.406.252c-1.554 0-2.95-.283-4.19-.85a6.662 6.662 0 0 1-2.94-2.584c-.72-1.154-1.081-2.607-1.081-4.357 0-1.288.21-2.408.63-3.36a6.448 6.448 0 0 1 1.753-2.373 7.592 7.592 0 0 1 2.594-1.417c.98-.316 2.023-.473 3.129-.473.476 0 .927.025 1.354.074.427.048.823.115 1.187.199l.231 3.822a5.355 5.355 0 0 0-1.186-.357 7.35 7.35 0 0 0-1.271-.105c-1.274 0-2.296.332-3.066.998-.77.665-1.155 1.662-1.155 2.992 0 1.358.392 2.39 1.176 3.097.784.707 1.876 1.061 3.276 1.061.448 0 .858-.025 1.228-.073.371-.05.739-.13 1.103-.242l-.105 3.675a11.21 11.21 0 0 1-1.334.21c-.44.042-.885.063-1.333.063Zm4.83-.252c.084-.784.126-1.561.126-2.331v-10.248c0-.756-.042-1.533-.126-2.331h4.263a22.268 22.268 0 0 0-.126 2.331v10.248c0 .77.042 1.547.126 2.331h-4.263Zm21 0h-4.683a9.996 9.996 0 0 0-.157-1.207c-.078-.4-.172-.781-.284-1.145l-.105-.336h-4.872l-.105.336c-.112.392-.207.784-.284 1.176-.076.392-.129.784-.157 1.176h-4.473l4.326-12.579c.14-.406.252-.805.336-1.197.084-.392.154-.77.21-1.134h5.313c.07.364.157.742.262 1.134.105.392.214.791.326 1.197L127.591 125Zm-9.261-5.544h3.192l-1.596-5.334-1.596 5.334ZM129.25 125c.056-.392.091-.78.105-1.165.014-.385.021-.774.021-1.166v-9.849c0-.518-.053-.98-.157-1.386-.106-.406-.305-.854-.599-1.344h4.641l5.271 8.085v-5.754c0-.392-.007-.78-.021-1.166a11.086 11.086 0 0 0-.105-1.165h4.011a13.4 13.4 0 0 0-.115 1.165c-.022.386-.032.774-.032 1.166V125h-3.36l-5.796-8.673v6.342c0 .392.007.78.021 1.166.014.385.049.773.105 1.165h-3.99Zm15.645 3.066-.693-.861c.448-.462.756-.871.924-1.228.168-.358.252-.704.252-1.04 0-.322-.101-.602-.304-.84-.204-.238-.508-.392-.914-.462 0-.826.217-1.442.651-1.848a2.196 2.196 0 0 1 1.554-.609c.588 0 1.078.203 1.47.609.392.406.588.945.588 1.617 0 .854-.287 1.648-.861 2.383-.574.735-1.463 1.495-2.667 2.279Zm9.639-3.066c.07-.392.119-.78.147-1.165.028-.385.049-.774.063-1.166l.378-9.849a8.797 8.797 0 0 0-.294-2.73h4.767l3.444 8.001 3.465-8.001h4.515a7.358 7.358 0 0 0-.242 1.334 10.22 10.22 0 0 0-.01 1.396l.357 9.849a21.248 21.248 0 0 0 .21 2.331h-4.137c.07-.392.105-.78.105-1.165s-.007-.774-.021-1.166l-.294-6.51-4.158 8.988h-.042l-4.137-8.946-.294 6.468c-.014.392-.017.77-.01 1.134.006.364.031.763.073 1.197h-3.885Zm19.089 0c.084-.784.126-1.561.126-2.331v-10.248c0-.756-.042-1.533-.126-2.331h9.555l.168 3.402a11.76 11.76 0 0 0-1.323-.136 28.257 28.257 0 0 0-1.323-.032h-2.982v2.583h2.352c.392 0 .77-.01 1.134-.031.364-.022.742-.06 1.134-.116v3.108a11.02 11.02 0 0 0-1.134-.105 29.532 29.532 0 0 0-1.134-.021h-2.352v3.024h2.982a25.25 25.25 0 0 0 2.856-.168l-.168 3.402h-9.765Zm19.677.252c-1.554 0-2.95-.283-4.19-.85a6.662 6.662 0 0 1-2.94-2.584c-.72-1.154-1.081-2.607-1.081-4.357 0-1.288.21-2.408.63-3.36a6.448 6.448 0 0 1 1.754-2.373 7.592 7.592 0 0 1 2.593-1.417c.98-.316 2.023-.473 3.129-.473.476 0 .928.025 1.355.074.426.048.822.115 1.186.199l.231 3.822a5.355 5.355 0 0 0-1.187-.357 7.35 7.35 0 0 0-1.27-.105c-1.274 0-2.296.332-3.066.998-.77.665-1.155 1.662-1.155 2.992 0 1.358.392 2.39 1.176 3.097.784.707 1.876 1.061 3.276 1.061.448 0 .857-.025 1.228-.073.371-.05.739-.13 1.103-.242l-.105 3.675a11.21 11.21 0 0 1-1.334.21c-.44.042-.885.063-1.333.063Zm4.83-.252c.084-.784.126-1.561.126-2.331v-10.248c0-.756-.042-1.533-.126-2.331h4.263c-.056.392-.091.787-.105 1.186-.014.4-.021.781-.021 1.145v3.255h4.893v-3.255c0-.756-.042-1.533-.126-2.331h4.263c-.056.392-.095.787-.115 1.186-.021.4-.032.781-.032 1.145v10.248c0 .392.01.78.031 1.166.021.385.06.773.116 1.165h-4.263c.084-.784.126-1.561.126-2.331v-3.591h-4.893v3.591c0 .392.007.78.021 1.166.014.385.049.773.105 1.165h-4.263Zm29.904 0h-4.683a9.996 9.996 0 0 0-.157-1.207c-.077-.4-.172-.781-.284-1.145l-.105-.336h-4.872l-.105.336c-.112.392-.207.784-.284 1.176-.077.392-.129.784-.157 1.176h-4.473l4.326-12.579c.14-.406.252-.805.336-1.197.084-.392.154-.77.21-1.134h5.313c.07.364.157.742.263 1.134.105.392.213.791.325 1.197L228.034 125Zm-9.261-5.544h3.192l-1.596-5.334-1.596 5.334Zm10.92 5.544c.056-.392.091-.78.105-1.165.014-.385.021-.774.021-1.166v-9.849c0-.518-.052-.98-.157-1.386-.106-.406-.305-.854-.599-1.344h4.641l5.271 8.085v-5.754c0-.392-.007-.78-.021-1.166a11.086 11.086 0 0 0-.105-1.165h4.011a13.4 13.4 0 0 0-.116 1.165c-.02.386-.031.774-.031 1.166V125h-3.36l-5.796-8.673v6.342c0 .392.007.78.021 1.166.014.385.049.773.105 1.165h-3.99Zm15.54 0c.084-.784.126-1.561.126-2.331v-10.248c0-.756-.042-1.533-.126-2.331h4.263a22.268 22.268 0 0 0-.126 2.331v10.248c0 .77.042 1.547.126 2.331h-4.263Zm14.406.252c-1.554 0-2.95-.283-4.19-.85a6.662 6.662 0 0 1-2.94-2.584c-.72-1.154-1.081-2.607-1.081-4.357 0-1.288.21-2.408.63-3.36a6.448 6.448 0 0 1 1.754-2.373 7.592 7.592 0 0 1 2.593-1.417c.98-.316 2.023-.473 3.129-.473.476 0 .928.025 1.355.074.426.048.822.115 1.186.199l.231 3.822a5.355 5.355 0 0 0-1.186-.357 7.35 7.35 0 0 0-1.271-.105c-1.274 0-2.296.332-3.066.998-.77.665-1.155 1.662-1.155 2.992 0 1.358.392 2.39 1.176 3.097.784.707 1.876 1.061 3.276 1.061.448 0 .858-.025 1.228-.073.372-.05.739-.13 1.103-.242l-.105 3.675a11.21 11.21 0 0 1-1.333.21c-.442.042-.886.063-1.334.063Zm4.935 2.814-.693-.861c.448-.462.756-.871.924-1.228.168-.358.252-.704.252-1.04 0-.322-.102-.602-.305-.84-.202-.238-.507-.392-.913-.462 0-.826.217-1.442.651-1.848a2.196 2.196 0 0 1 1.554-.609c.588 0 1.078.203 1.47.609.392.406.588.945.588 1.617 0 .854-.287 1.648-.861 2.383-.574.735-1.463 1.495-2.667 2.279ZM288.661 125h-4.683a9.996 9.996 0 0 0-.158-1.207c-.077-.4-.171-.781-.283-1.145l-.105-.336h-4.872l-.105.336c-.112.392-.207.784-.284 1.176-.077.392-.129.784-.157 1.176h-4.473l4.326-12.579c.14-.406.252-.805.336-1.197.084-.392.154-.77.21-1.134h5.313c.07.364.158.742.262 1.134.106.392.214.791.326 1.197L288.661 125Zm-9.261-5.544h3.192l-1.596-5.334-1.596 5.334ZM290.32 125c.056-.392.091-.78.105-1.165.014-.385.021-.774.021-1.166v-9.849c0-.518-.053-.98-.158-1.386-.105-.406-.304-.854-.598-1.344h4.641l5.271 8.085v-5.754c0-.392-.007-.78-.021-1.166a11.086 11.086 0 0 0-.105-1.165h4.011a13.4 13.4 0 0 0-.115 1.165c-.022.386-.032.774-.032 1.166V125h-3.36l-5.796-8.673v6.342c0 .392.007.78.021 1.166.014.385.049.773.105 1.165h-3.99Zm15.54 0c.056-.392.091-.78.105-1.165.014-.385.021-.774.021-1.166v-10.248c0-.756-.042-1.533-.126-2.331h4.914c2.73 0 4.813.616 6.248 1.848 1.435 1.232 2.152 3.08 2.152 5.544 0 2.45-.69 4.316-2.068 5.597-1.38 1.28-3.406 1.921-6.08 1.921h-5.166Zm5.124-11.697h-.987v8.484h.987c1.372 0 2.408-.333 3.108-.998.7-.665 1.05-1.767 1.05-3.307 0-1.484-.35-2.552-1.05-3.203-.7-.65-1.736-.976-3.108-.976ZM.93 149c.055-.392.09-.78.104-1.166.014-.385.022-.773.022-1.165v-10.248c0-.756-.042-1.533-.127-2.331h4.914c2.73 0 4.813.616 6.248 1.848 1.435 1.232 2.152 3.08 2.152 5.544 0 2.45-.689 4.316-2.068 5.596C10.796 148.36 8.77 149 6.095 149H.93Zm5.123-11.697h-.987v8.484h.987c1.373 0 2.408-.333 3.109-.998.7-.664 1.05-1.767 1.05-3.307 0-1.484-.35-2.552-1.05-3.202-.7-.651-1.737-.977-3.109-.977ZM16.197 149a13.4 13.4 0 0 0 .116-1.166c.021-.385.031-.773.031-1.165v-10.248c0-.364-.01-.745-.031-1.144a9.619 9.619 0 0 0-.137-1.187h5.482c1.988 0 3.422.392 4.305 1.176.881.784 1.323 1.883 1.323 3.297 0 .826-.172 1.547-.515 2.163-.343.616-.962 1.127-1.858 1.533.658.28 1.14.669 1.448 1.166.309.496.588 1.193.84 2.089l.358 1.386c.181.77.433 1.47.756 2.1h-4.159l-.65-2.562c-.154-.658-.343-1.148-.567-1.47a1.64 1.64 0 0 0-.861-.651c-.35-.112-.799-.168-1.345-.168h-.44v2.52c0 .392.01.78.031 1.165a9.6 9.6 0 0 0 .136 1.166h-4.262Zm5.02-11.676h-.925v3.906h.966c.868 0 1.47-.178 1.806-.535.337-.357.505-.837.505-1.439 0-.616-.179-1.092-.536-1.428-.357-.336-.962-.504-1.817-.504ZM29.971 149c.084-.784.127-1.561.127-2.331v-10.248c0-.756-.043-1.533-.127-2.331h4.264a22.268 22.268 0 0 0-.127 2.331v10.248c0 .77.042 1.547.127 2.331h-4.263Zm10.605 0a6.592 6.592 0 0 0-.178-1.05 21.181 21.181 0 0 0-.305-1.092L35.81 134.09h4.662c.029.392.078.773.148 1.144.07.371.154.739.252 1.103l2.54 8.778 2.563-8.778c.195-.7.328-1.449.398-2.247h4.453l-4.242 12.768a12.91 12.91 0 0 0-.326 1.092c-.091.364-.15.714-.178 1.05h-5.502Zm11.824 0c.083-.784.125-1.561.125-2.331v-10.248c0-.756-.042-1.533-.126-2.331h9.556l.167 3.402a11.76 11.76 0 0 0-1.322-.136 28.257 28.257 0 0 0-1.324-.032h-2.981v2.583h2.351c.392 0 .77-.01 1.134-.032.364-.02.742-.059 1.134-.115v3.108a11.02 11.02 0 0 0-1.134-.105 29.532 29.532 0 0 0-1.134-.021h-2.352v3.024h2.983a25.25 25.25 0 0 0 2.855-.168L62.166 149H52.4Zm11.949 0a13.4 13.4 0 0 0 .115-1.166c.021-.385.031-.773.031-1.165v-10.248c0-.364-.01-.745-.031-1.144a9.619 9.619 0 0 0-.136-1.187h5.48c1.989 0 3.424.392 4.306 1.176.882.784 1.323 1.883 1.323 3.297 0 .826-.172 1.547-.515 2.163-.343.616-.963 1.127-1.859 1.533.659.28 1.142.669 1.45 1.166.308.496.588 1.193.84 2.089l.356 1.386c.183.77.434 1.47.757 2.1h-4.159l-.65-2.562c-.154-.658-.344-1.148-.567-1.47a1.64 1.64 0 0 0-.861-.651c-.35-.112-.799-.168-1.345-.168h-.44v2.52c0 .392.01.78.031 1.165a9.6 9.6 0 0 0 .136 1.166H64.35Zm5.019-11.676h-.924v3.906h.966c.867 0 1.47-.178 1.805-.535.337-.357.505-.837.505-1.439 0-.616-.179-1.092-.536-1.428-.357-.336-.963-.504-1.817-.504Zm10.29 11.949c-.617 0-1.12-.192-1.513-.577-.392-.386-.588-.879-.588-1.481 0-.574.196-1.057.588-1.449.392-.392.897-.588 1.513-.588.615 0 1.116.196 1.501.588.385.392.578.875.578 1.449 0 .602-.193 1.095-.578 1.48-.385.386-.885.578-1.501.578Zm8.21-.273c.07-.392.12-.78.147-1.166.028-.385.05-.773.063-1.165l.379-9.849a8.797 8.797 0 0 0-.294-2.73h4.766l3.444 8.001 3.466-8.001h4.514a7.358 7.358 0 0 0-.241 1.333 10.22 10.22 0 0 0-.01 1.397l.357 9.849a21.248 21.248 0 0 0 .21 2.331h-4.138c.07-.392.106-.78.106-1.166 0-.385-.008-.773-.022-1.165l-.293-6.51-4.158 8.988h-.043l-4.136-8.946-.294 6.468c-.014.392-.018.77-.011 1.134.007.364.032.763.073 1.197H87.87Zm25.936.252c-1.47 0-2.752-.322-3.844-.966-1.091-.644-1.942-1.554-2.551-2.73-.609-1.176-.913-2.548-.913-4.116 0-1.68.335-3.083 1.007-4.21a6.438 6.438 0 0 1 2.741-2.541c1.155-.567 2.468-.851 3.938-.851 1.47 0 2.754.326 3.853.977 1.099.65 1.95 1.56 2.552 2.73.602 1.169.903 2.537.903 4.105 0 1.68-.337 3.083-1.008 4.21a6.438 6.438 0 0 1-2.741 2.541c-1.155.567-2.468.851-3.938.851Zm.23-3.486c.995 0 1.803-.34 2.426-1.018.623-.68.934-1.642.934-2.888 0-1.498-.311-2.629-.934-3.392-.623-.762-1.453-1.144-2.489-1.144-.993 0-1.809.34-2.446 1.018-.637.68-.956 1.642-.956 2.888 0 1.498.319 2.629.956 3.392.637.762 1.474 1.144 2.51 1.144Zm13.21 3.486a21.22 21.22 0 0 1-1.859-.073 16.019 16.019 0 0 1-1.837-.284l-.21-3.591c.755.21 1.4.35 1.931.42.532.07 1.086.105 1.66.105.91 0 1.515-.102 1.816-.305.301-.203.451-.472.451-.808 0-.252-.105-.497-.315-.735-.21-.238-.602-.511-1.175-.819l-1.407-.714c-1.106-.574-1.918-1.222-2.436-1.942-.519-.721-.778-1.565-.778-2.531 0-1.288.487-2.3 1.46-3.035.973-.734 2.411-1.102 4.316-1.102.657 0 1.225.031 1.7.095.476.063 1.057.178 1.743.346l.231 3.633a11.15 11.15 0 0 0-1.89-.494 11.527 11.527 0 0 0-1.805-.136c-.728 0-1.219.091-1.47.273-.252.182-.378.413-.378.693 0 .252.094.49.283.714.189.224.543.476 1.06.756l1.407.756c1.177.616 2.034 1.285 2.573 2.006.539.72.809 1.578.809 2.572 0 1.33-.459 2.363-1.376 3.097-.917.736-2.418 1.103-4.504 1.103Zm10.647-.252c.055-.392.09-.78.105-1.166.013-.385.02-.773.02-1.165v-9.261h-1.238c-.434 0-.862.007-1.281.021-.42.014-.847.049-1.281.105v-3.444h11.612v3.444a13.53 13.53 0 0 0-1.28-.105c-.42-.014-.847-.021-1.281-.021h-1.24v9.261c0 .392.008.78.022 1.165.013.386.048.774.105 1.166h-4.263Zm13.986 0c.056-.392.09-.78.105-1.166.013-.385.02-.773.02-1.165v-10.248c0-.364-.006-.745-.02-1.144a11.148 11.148 0 0 0-.106-1.187h4.263c-.055.392-.09.787-.104 1.186-.014.4-.022.781-.022 1.145v9.345h2.751c.463 0 .921-.007 1.376-.021.455-.014.907-.042 1.355-.084V149h-9.619Zm11.36 0c.084-.784.126-1.561.126-2.331v-10.248c0-.756-.042-1.533-.126-2.331h4.263a22.268 22.268 0 0 0-.126 2.331v10.248c0 .77.042 1.547.126 2.331h-4.263Zm6.657 0c.056-.392.091-.78.105-1.166.014-.385.022-.773.022-1.165v-10.248c0-.364-.007-.745-.022-1.144a11.148 11.148 0 0 0-.105-1.187h4.263c-.055.392-.09.787-.104 1.186-.014.4-.022.781-.022 1.145v4.683l3.297-5.103a8.676 8.676 0 0 0 .903-1.911h4.662l-4.809 7.056 5.397 7.854h-4.934c-.225-.658-.602-1.379-1.135-2.163l-3.38-4.662v4.494c0 .392.007.78.02 1.165.014.386.05.774.106 1.166h-4.263Zm14.931 0c.085-.784.126-1.561.126-2.331v-10.248c0-.756-.041-1.533-.125-2.331h9.554l.168 3.402a11.76 11.76 0 0 0-1.323-.136 28.257 28.257 0 0 0-1.322-.032h-2.982v2.583h2.352c.392 0 .77-.01 1.133-.032.364-.02.742-.059 1.135-.115v3.108a11.02 11.02 0 0 0-1.135-.105 29.532 29.532 0 0 0-1.133-.021h-2.352v3.024h2.982a25.25 25.25 0 0 0 2.856-.168l-.168 3.402h-9.766Zm11.929 0c.055-.392.09-.78.105-1.166.013-.385.02-.773.02-1.165v-10.248c0-.364-.006-.745-.02-1.144a11.148 11.148 0 0 0-.106-1.187h4.264c-.056.392-.091.787-.106 1.186-.013.4-.02.781-.02 1.145v9.345h2.75c.463 0 .921-.007 1.376-.021.455-.014.906-.042 1.355-.084V149h-9.618Zm15.54 0c.056-.392.09-.78.105-1.166.013-.385.02-.773.02-1.165v-2.058l-5.123-10.521h4.83c.041.35.101.675.178.976.077.302.171.613.284.935l1.931 4.977 1.911-4.977c.126-.322.228-.633.305-.935.077-.3.137-.626.179-.976h4.64l-5.124 10.563v2.016c0 .392.007.78.021 1.165.014.386.05.774.106 1.166h-4.263Zm18.144 0c.055-.392.09-.78.105-1.166.013-.385.02-.773.02-1.165v-9.261h-1.238c-.434 0-.862.007-1.281.021-.42.014-.847.049-1.281.105v-3.444h11.612v3.444a13.53 13.53 0 0 0-1.28-.105c-.42-.014-.847-.021-1.281-.021h-1.24v9.261c0 .392.008.78.022 1.165.013.386.048.774.105 1.166h-4.263Zm9.576 0c.084-.784.126-1.561.126-2.331v-10.248c0-.756-.042-1.533-.126-2.331h4.263c-.056.392-.091.787-.105 1.186-.014.4-.022.781-.022 1.145v3.255h4.893v-3.255c0-.756-.042-1.533-.126-2.331h4.263c-.056.392-.094.787-.115 1.186-.021.4-.031.781-.031 1.145v10.248c0 .392.01.78.031 1.165.021.386.06.774.115 1.166h-4.263c.084-.784.126-1.561.126-2.331v-3.591h-4.893v3.591c0 .392.007.78.022 1.165.013.386.048.774.105 1.166h-4.263Zm15.56 0c.085-.784.127-1.561.127-2.331v-10.248c0-.756-.042-1.533-.126-2.331h9.554l.168 3.402a11.76 11.76 0 0 0-1.322-.136 28.257 28.257 0 0 0-1.324-.032h-2.981v2.583h2.351c.392 0 .77-.01 1.135-.032.364-.02.742-.059 1.134-.115v3.108a11.02 11.02 0 0 0-1.135-.105 29.532 29.532 0 0 0-1.134-.021h-2.351v3.024h2.981a25.25 25.25 0 0 0 2.857-.168L265.34 149h-9.766Zm30.682 0h-4.683a9.996 9.996 0 0 0-.158-1.208c-.077-.399-.171-.78-.284-1.144l-.105-.336h-4.871l-.106.336c-.112.392-.206.784-.283 1.176-.077.392-.13.784-.157 1.176h-4.474l4.326-12.579c.14-.406.252-.805.337-1.197.084-.392.154-.77.21-1.134h5.313c.07.364.157.742.262 1.134.105.392.214.791.325 1.197L286.257 149Zm-9.262-5.544h3.192l-1.596-5.334-1.596 5.334Zm10.9 5.544c.055-.392.09-.78.105-1.166.014-.385.02-.773.02-1.165v-10.248c0-.364-.006-.745-.02-1.144a11.148 11.148 0 0 0-.106-1.187h4.264c-.057.392-.091.787-.106 1.186-.014.4-.02.781-.02 1.145v9.345h2.75c.463 0 .921-.007 1.376-.021.455-.014.906-.042 1.354-.084V149h-9.618Zm11.36 0c.084-.784.127-1.561.127-2.331v-10.248c0-.756-.043-1.533-.127-2.331h4.264a22.268 22.268 0 0 0-.127 2.331v10.248c0 .77.043 1.547.127 2.331h-4.264Zm21 0h-4.683a9.996 9.996 0 0 0-.157-1.208c-.077-.399-.172-.78-.284-1.144l-.104-.336h-4.873l-.104.336c-.113.392-.207.784-.284 1.176-.077.392-.13.784-.158 1.176h-4.473l4.327-12.579c.14-.406.252-.805.336-1.197.084-.392.154-.77.21-1.134h5.313c.07.364.157.742.262 1.134.105.392.213.791.325 1.197L320.255 149Zm-9.26-5.544h3.192l-1.596-5.334-1.596 5.334Zm14.72 5.796a21.22 21.22 0 0 1-1.858-.073 16.019 16.019 0 0 1-1.838-.284l-.21-3.591c.756.21 1.4.35 1.932.42.533.07 1.086.105 1.66.105.91 0 1.515-.102 1.816-.305.301-.203.452-.472.452-.808 0-.252-.106-.497-.315-.735-.21-.238-.602-.511-1.176-.819l-1.407-.714c-1.107-.574-1.918-1.222-2.437-1.942-.517-.721-.776-1.565-.776-2.531 0-1.288.486-2.3 1.459-3.035.973-.734 2.411-1.102 4.315-1.102.659 0 1.226.031 1.702.095.476.063 1.057.178 1.743.346l.23 3.633a11.15 11.15 0 0 0-1.89-.494 11.527 11.527 0 0 0-1.805-.136c-.728 0-1.219.091-1.47.273-.252.182-.378.413-.378.693 0 .252.094.49.283.714.189.224.542.476 1.06.756l1.407.756c1.176.616 2.034 1.285 2.573 2.006.539.72.809 1.578.809 2.572 0 1.33-.459 2.363-1.376 3.097-.917.736-2.419 1.103-4.505 1.103Zm-287.311 24c-1.47 0-2.751-.322-3.843-.966-1.092-.644-1.943-1.554-2.551-2.73-.61-1.176-.914-2.548-.914-4.116 0-1.68.336-3.083 1.008-4.21a6.438 6.438 0 0 1 2.74-2.541c1.155-.567 2.468-.851 3.938-.851 1.47 0 2.755.326 3.854.977 1.098.65 1.949 1.56 2.551 2.73.602 1.169.903 2.537.903 4.105 0 1.68-.336 3.083-1.008 4.21a6.438 6.438 0 0 1-2.74 2.541c-1.155.567-2.468.851-3.938.851Zm.231-3.486c.994 0 1.803-.34 2.425-1.018.623-.68.935-1.642.935-2.888 0-1.498-.311-2.629-.934-3.392-.623-.762-1.453-1.144-2.489-1.144-.994 0-1.81.34-2.447 1.018-.636.68-.955 1.642-.955 2.888 0 1.498.319 2.629.956 3.392.637.762 1.473 1.144 2.509 1.144ZM48.022 173c.042-.392.07-.78.084-1.166.014-.385.021-.773.021-1.165v-10.248c0-.364-.007-.745-.021-1.144a16.597 16.597 0 0 0-.084-1.187h9.597v3.444a13.53 13.53 0 0 0-1.281-.105c-.42-.014-.847-.021-1.281-.021h-2.919v3.36h2.226c.392 0 .78-.007 1.166-.021.384-.014.773-.049 1.165-.105v3.192a21.479 21.479 0 0 0-2.331-.126h-2.226v2.961c0 .392.007.78.021 1.165.014.386.049.774.105 1.166h-4.242Zm15.75 0c.042-.392.07-.78.084-1.166.014-.385.021-.773.021-1.165v-10.248c0-.364-.007-.745-.021-1.144a16.597 16.597 0 0 0-.084-1.187h9.597v3.444a13.53 13.53 0 0 0-1.281-.105c-.42-.014-.847-.021-1.281-.021h-2.919v3.36h2.226c.392 0 .78-.007 1.165-.021.386-.014.774-.049 1.166-.105v3.192a21.479 21.479 0 0 0-2.331-.126h-2.226v2.961c0 .392.007.78.021 1.165.014.386.049.774.105 1.166h-4.242Zm11.34 0c.084-.784.126-1.561.126-2.331v-10.248c0-.756-.042-1.533-.126-2.331h9.555l.168 3.402a11.76 11.76 0 0 0-1.323-.136 28.257 28.257 0 0 0-1.323-.032h-2.982v2.583h2.352c.392 0 .77-.01 1.134-.032.364-.02.742-.059 1.134-.115v3.108a11.02 11.02 0 0 0-1.134-.105 29.532 29.532 0 0 0-1.134-.021h-2.352v3.024h2.982a25.25 25.25 0 0 0 2.856-.168L84.877 173h-9.765Zm11.949 0a13.4 13.4 0 0 0 .115-1.166c.022-.385.032-.773.032-1.165v-10.248c0-.364-.01-.745-.031-1.144a9.619 9.619 0 0 0-.137-1.187h5.481c1.988 0 3.423.392 4.305 1.176.882.784 1.323 1.883 1.323 3.297 0 .826-.171 1.547-.514 2.163-.344.616-.963 1.127-1.859 1.533.658.28 1.141.669 1.449 1.166.308.496.588 1.193.84 2.089l.357 1.386c.182.77.434 1.47.756 2.1H95.02l-.651-2.562c-.154-.658-.343-1.148-.567-1.47a1.64 1.64 0 0 0-.861-.651c-.35-.112-.798-.168-1.344-.168h-.441v2.52c0 .392.01.78.031 1.165a9.6 9.6 0 0 0 .137 1.166h-4.263Zm5.019-11.676h-.924v3.906h.966c.868 0 1.47-.178 1.806-.535.336-.357.504-.837.504-1.439 0-.616-.178-1.092-.535-1.428-.358-.336-.963-.504-1.817-.504ZM100.837 173c.056-.392.091-.78.105-1.166.014-.385.021-.773.021-1.165v-10.248c0-.756-.042-1.533-.126-2.331h4.914c2.73 0 4.813.616 6.248 1.848 1.434 1.232 2.152 3.08 2.152 5.544 0 2.45-.69 4.316-2.069 5.596-1.378 1.281-3.405 1.922-6.079 1.922h-5.166Zm5.124-11.697h-.987v8.484h.987c1.372 0 2.408-.333 3.108-.998.7-.664 1.05-1.767 1.05-3.307 0-1.484-.35-2.552-1.05-3.202-.7-.651-1.736-.977-3.108-.977ZM116.083 173c.084-.784.126-1.561.126-2.331v-10.248c0-.756-.042-1.533-.126-2.331h4.263a22.268 22.268 0 0 0-.126 2.331v10.248c0 .77.042 1.547.126 2.331h-4.263Zm6.678 0c.056-.392.091-.78.105-1.166.014-.385.021-.773.021-1.165v-9.849c0-.518-.052-.98-.157-1.386-.106-.406-.305-.854-.599-1.344h4.641l5.271 8.085v-5.754c0-.392-.007-.78-.021-1.165a11.086 11.086 0 0 0-.105-1.166h4.011a13.4 13.4 0 0 0-.115 1.166c-.021.385-.032.773-.032 1.165V173h-3.36l-5.796-8.673v6.342c0 .392.007.78.021 1.165.014.386.049.774.105 1.166h-3.99Zm29.883 0h-4.683a9.996 9.996 0 0 0-.157-1.208c-.078-.399-.172-.78-.284-1.144l-.105-.336h-4.872l-.105.336c-.112.392-.206.784-.283 1.176-.078.392-.13.784-.158 1.176h-4.473l4.326-12.579c.14-.406.252-.805.336-1.197.084-.392.154-.77.21-1.134h5.313c.07.364.157.742.262 1.134.106.392.214.791.326 1.197L152.644 173Zm-9.261-5.544h3.192l-1.596-5.334-1.596 5.334Zm10.92 5.544c.056-.392.091-.78.105-1.166.014-.385.021-.773.021-1.165v-9.849c0-.518-.053-.98-.157-1.386-.105-.406-.305-.854-.599-1.344h4.641l5.271 8.085v-5.754c0-.392-.007-.78-.021-1.165a11.086 11.086 0 0 0-.105-1.166h4.011a13.4 13.4 0 0 0-.115 1.166c-.022.385-.032.773-.032 1.165V173h-3.36l-5.796-8.673v6.342c0 .392.007.78.021 1.165.014.386.049.774.105 1.166h-3.99Zm15.54 0c.056-.392.091-.78.105-1.166.014-.385.021-.773.021-1.165v-10.248c0-.756-.042-1.533-.126-2.331h4.914c2.73 0 4.813.616 6.248 1.848 1.435 1.232 2.152 3.08 2.152 5.544 0 2.45-.69 4.316-2.069 5.596-1.379 1.281-3.405 1.922-6.079 1.922h-5.166Zm5.124-11.697h-.987v8.484h.987c1.372 0 2.408-.333 3.108-.998.7-.664 1.05-1.767 1.05-3.307 0-1.484-.35-2.552-1.05-3.202-.7-.651-1.736-.977-3.108-.977Zm16.968 11.949c-1.47 0-2.751-.322-3.843-.966-1.092-.644-1.943-1.554-2.552-2.73-.608-1.176-.913-2.548-.913-4.116 0-1.68.336-3.083 1.008-4.21a6.438 6.438 0 0 1 2.74-2.541c1.155-.567 2.468-.851 3.938-.851 1.47 0 2.755.326 3.854.977 1.099.65 1.949 1.56 2.551 2.73.602 1.169.903 2.537.903 4.105 0 1.68-.336 3.083-1.008 4.21a6.438 6.438 0 0 1-2.74 2.541c-1.155.567-2.468.851-3.938.851Zm.231-3.486c.994 0 1.803-.34 2.425-1.018.623-.68.935-1.642.935-2.888 0-1.498-.312-2.629-.935-3.392-.623-.762-1.452-1.144-2.488-1.144-.994 0-1.81.34-2.447 1.018-.637.68-.955 1.642-.955 2.888 0 1.498.319 2.629.956 3.392.636.762 1.473 1.144 2.509 1.144ZM205.963 173c.042-.392.07-.78.084-1.166.014-.385.021-.773.021-1.165v-10.248c0-.364-.007-.745-.021-1.144a16.597 16.597 0 0 0-.084-1.187h9.597v3.444a13.53 13.53 0 0 0-1.281-.105c-.42-.014-.847-.021-1.281-.021h-2.919v3.36h2.226c.392 0 .78-.007 1.165-.021.386-.014.774-.049 1.166-.105v3.192a21.479 21.479 0 0 0-2.331-.126h-2.226v2.961c0 .392.007.78.021 1.165.014.386.049.774.105 1.166h-4.242Zm11.34 0c.084-.784.126-1.561.126-2.331v-10.248c0-.756-.042-1.533-.126-2.331h4.263a22.268 22.268 0 0 0-.126 2.331v10.248c0 .77.042 1.547.126 2.331h-4.263Zm6.678 0c.056-.392.091-.78.105-1.166.014-.385.021-.773.021-1.165v-9.849c0-.518-.053-.98-.157-1.386-.105-.406-.305-.854-.599-1.344h4.641l5.271 8.085v-5.754c0-.392-.007-.78-.021-1.165a11.086 11.086 0 0 0-.105-1.166h4.011a13.4 13.4 0 0 0-.115 1.166c-.021.385-.032.773-.032 1.165V173h-3.36l-5.796-8.673v6.342c0 .392.007.78.021 1.165.014.386.049.774.105 1.166h-3.99Zm22.386.252c-1.47 0-2.751-.322-3.843-.966-1.092-.644-1.942-1.554-2.552-2.73-.609-1.176-.913-2.548-.913-4.116 0-1.68.336-3.083 1.008-4.21a6.438 6.438 0 0 1 2.74-2.541c1.156-.567 2.468-.851 3.938-.851 1.47 0 2.755.326 3.853.977 1.1.65 1.95 1.56 2.552 2.73.602 1.169.903 2.537.903 4.105 0 1.68-.336 3.083-1.008 4.21a6.438 6.438 0 0 1-2.74 2.541c-1.156.567-2.468.851-3.938.851Zm.231-3.486c.994 0 1.802-.34 2.425-1.018.624-.68.935-1.642.935-2.888 0-1.498-.311-2.629-.934-3.392-.624-.762-1.453-1.144-2.489-1.144-.994 0-1.81.34-2.446 1.018-.637.68-.956 1.642-.956 2.888 0 1.498.319 2.629.956 3.392.637.762 1.473 1.144 2.509 1.144ZM258.883 173c.056-.392.091-.78.105-1.166.014-.385.021-.773.021-1.165v-9.261h-1.239c-.434 0-.861.007-1.281.021-.42.014-.847.049-1.281.105v-3.444h11.613v3.444a13.53 13.53 0 0 0-1.281-.105c-.42-.014-.847-.021-1.281-.021h-1.239v9.261c0 .392.007.78.021 1.165.014.386.049.774.105 1.166h-4.263Zm12.474 0c.056-.392.091-.78.105-1.166.014-.385.021-.773.021-1.165v-9.261h-1.239c-.434 0-.861.007-1.281.021-.42.014-.847.049-1.281.105v-3.444h11.613v3.444a13.53 13.53 0 0 0-1.281-.105c-.42-.014-.847-.021-1.281-.021h-1.239v9.261c0 .392.007.78.021 1.165.014.386.049.774.105 1.166h-4.263Zm16.422.252c-1.47 0-2.751-.322-3.843-.966-1.092-.644-1.942-1.554-2.551-2.73-.61-1.176-.914-2.548-.914-4.116 0-1.68.336-3.083 1.008-4.21a6.438 6.438 0 0 1 2.74-2.541c1.156-.567 2.468-.851 3.938-.851 1.47 0 2.755.326 3.853.977 1.1.65 1.95 1.56 2.552 2.73.602 1.169.903 2.537.903 4.105 0 1.68-.336 3.083-1.008 4.21a6.438 6.438 0 0 1-2.74 2.541c-1.155.567-2.468.851-3.938.851Zm.231-3.486c.994 0 1.803-.34 2.425-1.018.623-.68.935-1.642.935-2.888 0-1.498-.312-2.629-.935-3.392-.623-.762-1.452-1.144-2.488-1.144-.994 0-1.81.34-2.447 1.018-.637.68-.955 1.642-.955 2.888 0 1.498.318 2.629.955 3.392.637.762 1.474 1.144 2.51 1.144Zm10.92 3.507c-.616 0-1.12-.192-1.512-.577-.392-.386-.588-.879-.588-1.481 0-.574.196-1.057.588-1.449.392-.392.896-.588 1.512-.588s1.116.196 1.502.588c.385.392.577.875.577 1.449 0 .602-.192 1.095-.577 1.48-.386.386-.886.578-1.502.578Z"/><rect width="260" height="60" x="36" fill="#DC6F39" rx="30"/><path fill="#FFF" fill-rule="nonzero" d="M61.187 43c.09-.635.147-1.264.17-1.887.023-.623.034-1.252.034-1.887V24.232h-2.006c-.703 0-1.394.011-2.074.034-.68.023-1.371.08-2.074.17V18.86h18.802v5.576a21.907 21.907 0 0 0-2.074-.17 62.262 62.262 0 0 0-2.074-.034h-2.006v14.994c0 .635.011 1.264.034 1.887.023.623.08 1.252.17 1.887h-6.902Zm14.504 0c.136-1.27.204-2.527.204-3.774V22.634c0-1.224-.068-2.482-.204-3.774h6.902a18.05 18.05 0 0 0-.17 1.921 52.924 52.924 0 0 0-.034 1.853v5.27h7.922v-5.27c0-1.224-.068-2.482-.204-3.774h6.902c-.09.635-.153 1.275-.187 1.921a35.308 35.308 0 0 0-.051 1.853v16.592c0 .635.017 1.264.051 1.887.034.623.096 1.252.187 1.887h-6.902c.136-1.27.204-2.527.204-3.774v-5.814h-7.922v5.814c0 .635.011 1.264.034 1.887.023.623.08 1.252.17 1.887h-6.902Zm24.194 0c.136-1.27.204-2.527.204-3.774V22.634c0-1.224-.068-2.482-.204-3.774h15.47l.272 5.508a19.04 19.04 0 0 0-2.142-.221 45.75 45.75 0 0 0-2.142-.051h-4.828v4.182h3.808a31.9 31.9 0 0 0 1.836-.051c.59-.034 1.201-.096 1.836-.187v5.032a17.842 17.842 0 0 0-1.836-.17 47.814 47.814 0 0 0-1.836-.034h-3.808v4.896h4.828a40.88 40.88 0 0 0 4.624-.272L115.695 43h-15.81Zm24.282 0c.113-.635.193-1.264.238-1.887.045-.623.08-1.252.102-1.887l.612-15.946a14.242 14.242 0 0 0-.476-4.42h7.718l5.576 12.954 5.61-12.954h7.31a11.914 11.914 0 0 0-.391 2.159 16.547 16.547 0 0 0-.017 2.261l.578 15.946c.023.635.062 1.264.119 1.887.057.623.13 1.252.221 1.887h-6.698c.113-.635.17-1.264.17-1.887s-.011-1.252-.034-1.887l-.476-10.54-6.732 14.552h-.068l-6.698-14.484-.476 10.472a33.46 33.46 0 0 0-.017 1.836c.011.59.051 1.235.119 1.938h-6.29Zm40.65.408c-2.38 0-4.454-.521-6.222-1.564-1.768-1.043-3.145-2.516-4.131-4.42-.986-1.904-1.479-4.125-1.479-6.664 0-2.72.544-4.992 1.632-6.817 1.088-1.825 2.567-3.196 4.437-4.114 1.87-.918 3.995-1.377 6.375-1.377s4.46.527 6.239 1.581c1.78 1.054 3.156 2.527 4.131 4.42.975 1.893 1.462 4.108 1.462 6.647 0 2.72-.544 4.992-1.632 6.817-1.088 1.825-2.567 3.196-4.437 4.114-1.87.918-3.995 1.377-6.375 1.377Zm.374-5.644c1.61 0 2.918-.55 3.927-1.649 1.009-1.1 1.513-2.658 1.513-4.675 0-2.425-.504-4.256-1.513-5.491-1.009-1.235-2.352-1.853-4.029-1.853-1.61 0-2.93.55-3.961 1.649-1.031 1.1-1.547 2.658-1.547 4.675 0 2.425.516 4.256 1.547 5.491 1.031 1.235 2.386 1.853 4.063 1.853ZM179.423 43c.09-.635.147-1.264.17-1.887.023-.623.034-1.252.034-1.887V23.28c0-.839-.085-1.587-.255-2.244-.17-.657-.493-1.383-.969-2.176h7.514l8.534 13.09v-9.316c0-.635-.011-1.264-.034-1.887a17.949 17.949 0 0 0-.17-1.887h6.494c-.09.635-.153 1.264-.187 1.887a34.642 34.642 0 0 0-.051 1.887V43h-5.44l-9.384-14.042v10.268c0 .635.011 1.264.034 1.887.023.623.08 1.252.17 1.887h-6.46Zm32.966-24.548c1.065 0 1.983.051 2.754.153.77.102 1.711.289 2.822.561l.374 5.882c-1.11-.385-2.13-.652-3.06-.799a18.663 18.663 0 0 0-2.924-.221c-1.179 0-1.972.147-2.38.442-.408.295-.612.669-.612 1.122 0 .408.153.793.459 1.156.306.363.878.77 1.717 1.224l2.278 1.224c1.904.997 3.292 2.08 4.165 3.247.873 1.167 1.309 2.556 1.309 4.165 0 2.153-.742 3.825-2.227 5.015-1.485 1.19-3.916 1.785-7.293 1.785-1.11 0-2.114-.04-3.009-.119a25.935 25.935 0 0 1-2.975-.459l-.34-5.814c1.224.34 2.267.567 3.128.68.861.113 1.757.17 2.686.17 1.473 0 2.454-.164 2.941-.493.487-.329.731-.765.731-1.309 0-.408-.17-.805-.51-1.19-.34-.385-.975-.827-1.904-1.326l-2.278-1.156c-1.79-.93-3.105-1.978-3.944-3.145s-1.258-2.533-1.258-4.097c0-2.085.788-3.723 2.363-4.913 1.575-1.19 3.904-1.785 6.987-1.785Zm25.69.408v5.576a21.907 21.907 0 0 0-2.074-.17 62.262 62.262 0 0 0-2.074-.034h-2.006v14.994c0 .635.011 1.264.034 1.887.023.623.08 1.252.17 1.887h-6.902c.09-.635.147-1.264.17-1.887.023-.623.034-1.252.034-1.887V24.232h-2.006c-.703 0-1.394.011-2.074.034-.68.023-1.371.08-2.074.17V18.86h18.802ZM239.731 43c.136-1.27.204-2.527.204-3.774V22.634c0-1.224-.068-2.482-.204-3.774h15.47l.272 5.508a19.04 19.04 0 0 0-2.142-.221 45.75 45.75 0 0 0-2.142-.051h-4.828v4.182h3.808a31.9 31.9 0 0 0 1.836-.051c.59-.034 1.201-.096 1.836-.187v5.032a17.842 17.842 0 0 0-1.836-.17 47.814 47.814 0 0 0-1.836-.034h-3.808v4.896h4.828a40.88 40.88 0 0 0 4.624-.272L255.541 43h-15.81Zm18.346 0c.09-.635.153-1.264.187-1.887s.051-1.252.051-1.887V22.634c0-.59-.017-1.207-.051-1.853a15.573 15.573 0 0 0-.221-1.921h8.874c3.219 0 5.542.635 6.97 1.904 1.428 1.27 2.142 3.049 2.142 5.338 0 1.337-.278 2.505-.833 3.502-.555.997-1.558 1.825-3.009 2.482 1.065.453 1.847 1.082 2.346 1.887.499.805.952 1.932 1.36 3.383l.578 2.244a15.05 15.05 0 0 0 1.224 3.4h-6.732l-1.054-4.148c-.25-1.065-.555-1.859-.918-2.38-.363-.521-.827-.873-1.394-1.054-.567-.181-1.292-.272-2.176-.272h-.714v4.08c0 .635.017 1.264.051 1.887.034.623.108 1.252.221 1.887h-6.902Zm8.126-18.904h-1.496v6.324h1.564c1.405 0 2.38-.289 2.924-.867.544-.578.816-1.354.816-2.329 0-.997-.289-1.768-.867-2.312-.578-.544-1.558-.816-2.941-.816Z"/></g></svg>