<svg xmlns="http://www.w3.org/2000/svg" viewBox="0 0 765 475"><g fill="none" fill-rule="evenodd"><path fill="#26282C" d="M600.502 167.645a681.808 681.808 0 0 0-19.352-11.834c-38.45-22.738-78.27-41.499-120.488-56.796l33.37-56.38c1.822-3.11 4.792-4.745 6.165-5.13 47.997 18.247 92.386 40.729 135.593 68.661.031.899-.16 2.47-1.15 4.105L619.6 135.543l-19.097 32.102Zm57.674-91.529-.447-.288C611.36 45.682 563.714 21.501 512.044 2.003l-.542-.193c-17.373-5.997-38.673 3.336-49.531 21.68L405 119.731l22.13 7.28c56.365 18.537 108.13 43.134 157.757 75.044 3.8 2.438 7.6 4.907 11.368 7.44L612.54 220.4l47.52-79.854 6.577-11.064c11.21-18.825 7.505-42.269-8.462-53.366Z"/><path fill="#505255" d="M466.986 38.558c10.872-18.326 32.181-27.652 49.582-21.675l.53.19c51.719 19.52 99.423 43.659 145.841 73.8l.463.31c4.03 2.793 7.275 6.375 9.703 10.468-1.172-10.306-6.16-19.674-14.641-25.55l-.463-.31C611.583 45.65 563.88 21.51 512.16 1.99l-.53-.19c-17.4-5.977-38.71 3.349-49.582 21.675L405 119.688l11.619 3.812 50.367-84.942Z"/><path fill="#15171B" d="M659.842 140.486 612.54 220.4l-16.211-10.912a620.83 620.83 0 0 0-11.318-7.445 42.547 42.547 0 0 1-2.606-4.109c-4.705-8.57-5.85-18.807-4.388-28.5.604-4.108 1.717-8.986 3.275-13.671a674.316 674.316 0 0 1 19.264 11.842l19.01-32.126c4.483-.385 8.965-.579 13.479-.579 9.219-.03 18.915.9 26.798 5.586"/><path fill="#26282C" d="m101.16 239.907-43.926-10.584c-8.557-2.062-13.837-10.735-11.795-19.373 2.042-8.638 10.634-13.969 19.19-11.907l43.927 10.584c8.556 2.062 13.837 10.735 11.795 19.373-2.043 8.638-10.634 13.969-19.191 11.907m575.053-8.55-43.926-10.584c-8.557-2.062-13.838-10.735-11.796-19.373 2.043-8.638 10.634-13.969 19.191-11.907l43.926 10.584c8.557 2.062 13.837 10.735 11.795 19.373-2.042 8.638-10.634 13.969-19.19 11.907"/><path fill="#363639" d="M158.684 346.75h460.421V277.4H158.684z"/><path fill="#2A2A2D" d="M158.684 322.05h460.421V271.7H158.684z"/><path fill="#26282C" d="M541.286 308.1c3.715 3.856 4.669 12.164 4.832 13.78a162.829 162.829 0 0 1-.558 4.218c-.658-.362-11.275-6.065-13.05-.33-1.842 5.901 1.906 6.33 5.226 11.242 3.09 4.582 2.433 13.35 2.334 14.57-.329 1.088-.657 2.209-1.019 3.263-.066.232-.131.43-.198.66-.065-.032-.361-.296-.854-.66-2.498-1.812-9.665-6.493-12-1.977-.36.725-.624 1.384-.787 1.977-1.086 3.923 1.906 5.308 3.977 10.055 2.235 4.977.165 13.284-.197 14.669-.625 1.252-1.25 2.506-1.874 3.725-.329-.362-8.515-9.691-12.197-4.846-2.037 2.704-1.972 4.417-1.216 6.396.56 1.615 1.611 3.362 2.269 5.999 1.347 5.34-2.202 13.285-2.762 14.471-.821 1.089-1.675 2.176-2.498 3.231-.493-.791-6.805-10.878-11.144-6.823-4.536 4.219-1.512 6.428-1.118 12.361.395 5.21-3.977 12-5.062 13.581-1.052.99-2.104 2.011-3.189 3-.197-.56-3.814-9.625-8.185-9.262l-17.358-20.142c.986-1.648 1.579-3.56 1.579-5.604 0-5.307-3.715-9.758-8.679-10.812a10.996 10.996 0 0 0-2.334-.264c-.79 0-1.578.099-2.334.264-4.964 1.054-8.712 5.505-8.712 10.812 0 6.099 4.964 11.043 11.046 11.043 1.479 0 2.893-.296 4.175-.824l17.752 20.603c-.198 1.945.394 4.22.033 7.483-.56 5.472-6.575 11.703-7.463 12.592-1.184.758-2.334 1.516-3.517 2.242-.132-.692-2.597-12.593-8.153-10.252-5.687 2.407-3.616 5.538-5.26 11.241-1.511 5.373-8.744 10.548-9.632 11.208-1.249.528-2.498 1.022-3.747 1.55-.033-.495-.33-12.89-6.247-11.538-6.015 1.35-4.503 4.813-7.133 10.153-2.367 4.879-9.993 8.67-11.341 9.296-1.348.297-2.695.626-4.043.923.065-.396 1.906-12.757-4.143-12.461-6.18.297-5.292 3.956-8.777 8.769-3.156 4.318-11.11 6.725-12.722 7.153-1.38.066-2.793.132-4.207.165.328-.923 3.945-12.197-1.94-12.923-6.147-.79-5.884 2.968-10.158 7.088-3.847 3.725-12.13 4.681-13.773 4.846-1.38-.165-2.795-.33-4.175-.527.361-.693 6.048-11.34.328-13.12-5.884-1.814-6.312 1.912-11.243 5.24-4.569 3.1-13.28 2.44-14.53 2.342-1.282-.396-2.596-.792-3.879-1.22.264-.33 8.021-10.088 2.597-12.857-5.49-2.834-6.542.758-11.966 3.198-4.963 2.208-13.28.132-14.628-.23-1.249-.627-2.5-1.22-3.715-1.88.361-.33 9.632-8.538 4.8-12.23-4.898-3.725-6.575-.362-12.328 1.055-5.326 1.352-13.248-2.208-14.431-2.769-1.086-.79-2.17-1.68-3.222-2.505.789-.495 10.848-6.79 6.805-11.175-4.208-4.549-6.41-1.516-12.328-1.088-5.226.362-11.966-4.022-13.543-5.11a262.486 262.486 0 0 1-2.992-3.164c.559-.23 9.599-3.856 9.237-8.241l20.087-17.373c1.643.957 3.55 1.55 5.587 1.55 5.425 0 9.928-3.923 10.849-9.065a9.608 9.608 0 0 0 .197-1.979c0-6.097-4.93-11.042-11.046-11.042-6.082 0-11.012 4.945-11.012 11.042 0 .66.066 1.32.197 1.979.132.758.33 1.516.625 2.208l-20.547 17.834c-1.972-.23-4.207.363-7.461.033-5.457-.594-11.67-6.626-12.558-7.516a326.172 326.172 0 0 1-2.268-3.527c.723-.132 12.558-2.604 10.256-8.143a5.62 5.62 0 0 0-.427-.89c-2.334-4.615-5.424-2.868-10.815-4.384-5.326-1.549-10.52-8.802-11.145-9.692-.526-1.252-1.052-2.505-1.545-3.757.493 0 12.854-.33 11.506-6.263-1.052-4.748-3.419-4.813-7.001-5.902-.954-.296-2.006-.658-3.123-1.22-4.866-2.406-8.647-10.053-9.271-11.372-.296-1.385-.625-2.736-.921-4.087.395.065 12.722 1.944 12.427-4.154-.296-6.197-3.945-5.307-8.745-8.802-4.339-3.131-6.705-11.141-7.133-12.756a172.788 172.788 0 0 1-.165-4.22c.92.329 12.13 3.956 12.887-1.946.788-6.13-2.96-5.9-7.101-10.186-3.714-3.856-4.635-12.163-4.8-13.78.165-1.416.33-2.833.526-4.218.658.363 11.309 6.098 13.084.363 1.808-5.934-1.907-6.33-5.226-11.274-3.091-4.582-2.433-13.351-2.335-14.57.395-1.32.79-2.638 1.217-3.924.328.264 10.06 8.044 12.82 2.637 2.827-5.537-.756-6.56-3.189-11.999-2.202-5.01-.164-13.317.23-14.702a80.65 80.65 0 0 1 1.874-3.725c.296.362 8.515 9.691 12.196 4.846 3.715-4.945.362-6.593-1.084-12.395-1.316-5.34 2.235-13.284 2.76-14.471.822-1.088 1.678-2.143 2.532-3.23.493.79 6.772 10.877 11.144 6.823 4.537-4.22 1.512-6.429 1.085-12.362-.361-5.208 4.01-11.999 5.095-13.581 1.053-.99 2.104-2.011 3.156-2.967.23.528 3.846 9.625 8.219 9.23l17.324 20.142c-.953 1.648-1.579 3.56-1.579 5.636 0 6.1 4.965 11.044 11.047 11.044 6.08 0 11.012-4.945 11.012-11.044 0-6.13-4.931-11.076-11.012-11.076-1.48 0-2.893.297-4.175.824l-17.785-20.602c.23-1.946-.362-4.22-.032-7.484.591-5.472 6.607-11.669 7.494-12.592 1.151-.758 2.335-1.516 3.518-2.241.131.692 2.596 12.592 8.12 10.251 5.72-2.406 3.616-5.538 5.26-11.241 1.544-5.373 8.743-10.548 9.664-11.208 1.25-.527 2.498-1.022 3.747-1.548 0 .526.329 12.888 6.246 11.537 6.017-1.352 4.504-4.78 7.101-10.153 2.4-4.88 10.026-8.637 11.342-9.264 1.347-.329 2.728-.659 4.075-.955-.065.396-1.939 12.757 4.142 12.46 6.18-.297 5.293-3.956 8.778-8.769 3.123-4.317 11.11-6.692 12.69-7.153 1.412-.065 2.826-.132 4.24-.165-.329.957-3.945 12.198 1.94 12.923 6.114.791 5.884-2.967 10.157-7.088 3.846-3.724 12.098-4.681 13.742-4.845 1.412.164 2.793.362 4.207.526-.362.693-6.081 11.34-.362 13.12 5.918 1.847 6.312-1.91 11.243-5.24 4.57-3.099 13.314-2.44 14.53-2.342 1.315.396 2.63.792 3.912 1.22-.263.33-8.02 10.088-2.63 12.857 5.49 2.834 6.542-.758 11.966-3.165 4.964-2.241 13.28-.165 14.661.198 1.25.626 2.466 1.252 3.716 1.88-.362.329-9.665 8.537-4.833 12.23 4.93 3.757 6.575.362 12.36-1.056 5.326-1.351 13.248 2.208 14.431 2.77 1.085.824 2.137 1.68 3.223 2.504-.823.495-10.849 6.79-6.805 11.176 4.207 4.548 6.41 1.515 12.327 1.087 5.194-.362 11.966 4.022 13.544 5.11.986 1.055 2.005 2.11 2.959 3.197-.526.198-9.6 3.825-9.205 8.209l-20.086 17.405c-1.644-.989-3.55-1.582-5.621-1.582-6.082 0-11.013 4.944-11.013 11.043 0 6.099 4.931 11.043 11.013 11.043a11.035 11.035 0 0 0 11.045-11.043c0-1.483-.296-2.901-.854-4.187l20.578-17.801c1.94.198 4.208-.396 7.43-.033 5.49.56 11.67 6.593 12.59 7.483a130.98 130.98 0 0 1 2.236 3.527c-.69.132-12.558 2.605-10.224 8.175 2.4 5.703 5.49 3.627 11.21 5.242 5.358 1.55 10.52 8.802 11.177 9.692.526 1.252 1.02 2.505 1.544 3.758-.525 0-12.852.33-11.538 6.263 1.38 6.033 4.8 4.516 10.158 7.154 4.866 2.373 8.613 10.02 9.238 11.372.328 1.352.657 2.703.952 4.054-.426-.065-12.72-1.91-12.425 4.155.296 6.196 3.945 5.307 8.744 8.801 4.307 3.165 6.674 11.142 7.134 12.758.066 1.384.131 2.8.164 4.219-.954-.33-12.163-3.956-12.887 1.945-.789 6.164 2.96 5.9 7.068 10.186"/><path fill="#A0A2A5" d="m482.457 213.355-3.699 3.203c.532 1.297.835 2.713.835 4.202 0 6.115-4.944 11.07-11.04 11.07-6.098 0-11.04-4.955-11.04-11.07 0-6.114 4.942-11.07 11.04-11.07 2.056 0 3.957.6 5.605 1.581l3.73-3.229c-25.389-28.009-62.012-45.592-102.73-45.592-33.418 0-64.071 11.849-88.025 31.577l3.193 3.71a10.969 10.969 0 0 1 4.191-.837c6.097 0 11.04 4.956 11.04 11.07s-4.943 11.071-11.04 11.071c-6.097 0-11.04-4.957-11.04-11.07 0-2.062.598-3.968 1.578-5.622l-3.22-3.74c-27.932 25.459-45.467 62.183-45.467 103.016 0 33.51 11.816 64.248 31.49 88.269l3.7-3.202a11.049 11.049 0 0 1-.835-4.203c0-6.114 4.942-11.07 11.04-11.07 6.097 0 11.04 4.956 11.04 11.07s-4.943 11.072-11.04 11.072c-2.056 0-3.957-.601-5.606-1.583l-3.73 3.23c25.389 28.008 62.011 45.592 102.73 45.592 33.417 0 64.071-11.849 88.025-31.578l-3.193-3.709a10.965 10.965 0 0 1-4.191.837c-6.097 0-11.04-4.957-11.04-11.07 0-6.115 4.943-11.071 11.04-11.071 6.097 0 11.04 4.956 11.04 11.07 0 2.062-.599 3.969-1.578 5.621l3.22 3.74c27.932-25.458 45.467-62.183 45.467-103.015 0-33.51-11.816-64.25-31.49-88.27"/><path fill="#B4B5B8" d="M459.947 301.625c0 46.958-37.962 85.025-84.79 85.025-46.827 0-84.789-38.067-84.789-85.025 0-46.958 37.962-85.025 84.79-85.025 46.827 0 84.79 38.067 84.79 85.025"/><path fill="#26282C" d="M375.156 275.023c-14.628 0-26.53 11.932-26.53 26.601 0 14.669 11.902 26.603 26.53 26.603 14.629 0 26.533-11.934 26.533-26.603 0-14.669-11.904-26.601-26.533-26.601m0 90.727c-35.26 0-63.945-28.766-63.945-64.126 0-35.358 28.685-64.124 63.945-64.124 35.263 0 63.95 28.766 63.95 64.124 0 35.36-28.687 64.126-63.95 64.126"/><path fill="#8D8E93" d="M406.895 302.1c0 17.84-14.421 32.3-32.21 32.3-17.79 0-32.211-14.46-32.211-32.3 0-17.839 14.42-32.3 32.21-32.3s32.21 14.461 32.21 32.3"/><path fill="#D7D7D9" d="M374.684 279.37c16.024 0 29.277 11.905 31.757 27.48.274-1.716.454-3.465.454-5.259 0-18.082-14.421-32.74-32.21-32.74-17.79 0-32.211 14.658-32.211 32.74 0 1.794.18 3.543.453 5.26 2.481-15.576 15.733-27.481 31.757-27.481"/><path fill="#434345" d="M547.105 296.131c-.049-1.414-.097-2.827-.18-4.232-.44-1.604-2.808-9.608-7.126-12.755-4.809-3.503-8.442-2.611-8.745-8.807-.297-6.093 12.019-4.221 12.429-4.157-.29-1.37-.618-2.725-.94-4.082-.627-1.34-4.384-9.002-9.254-11.382-5.341-2.612-8.765-1.1-10.135-7.15-1.341-5.925 11.003-6.248 11.512-6.26a173.143 173.143 0 0 0-1.55-3.754c-.637-.917-5.807-8.161-11.154-9.698-5.713-1.642-8.824.444-11.219-5.274-2.325-5.551 9.534-8.027 10.234-8.168a176.264 176.264 0 0 0-2.254-3.528c-.901-.903-7.094-6.935-12.565-7.51-3.233-.34-5.495.252-7.44.032L478.15 217.23a11.05 11.05 0 0 1 .834 4.201c0 6.113-4.936 11.067-11.026 11.067-6.088 0-11.025-4.954-11.025-11.067s4.937-11.067 11.025-11.067c2.054 0 3.952.6 5.598 1.581l20.095-17.414c-.38-4.385 8.665-8.009 9.217-8.224-.97-1.08-1.978-2.124-2.974-3.178-1.588-1.09-8.338-5.476-13.533-5.109-5.927.42-8.14 3.447-12.34-1.105-4.03-4.37 6.004-10.677 6.813-11.174-1.076-.845-2.137-1.707-3.234-2.526-1.188-.554-9.109-4.107-14.431-2.773-5.764 1.446-7.42 4.814-12.342 1.064-4.83-3.68 4.461-11.918 4.812-12.226a168.257 168.257 0 0 0-3.697-1.901c-1.377-.366-9.686-2.427-14.653-.205-5.427 2.429-6.474 6.033-11.97 3.198-5.403-2.786 2.356-12.545 2.627-12.88a167.025 167.025 0 0 0-3.906-1.22c-1.23-.109-9.96-.752-14.533 2.346-4.924 3.337-5.332 7.07-11.235 5.236-5.72-1.776-.02-12.446.343-13.114-1.393-.194-2.79-.375-4.193-.535-1.64.155-9.915 1.104-13.755 4.83-4.272 4.145-4.028 7.892-10.159 7.115-5.872-.744-2.257-11.998-1.94-12.95-1.408.048-2.816.097-4.216.18-1.598.44-9.572 2.818-12.707 7.153-3.49 4.827-2.6 8.474-8.773 8.777-6.07.299-4.205-12.064-4.142-12.475-1.365.29-2.715.62-4.068.943-1.333.63-8.966 4.401-11.338 9.289-2.603 5.362-1.096 8.799-7.122 10.173-5.904 1.347-6.226-11.045-6.237-11.554a168.776 168.776 0 0 0-3.74 1.554c-.912.64-8.131 5.829-9.663 11.198-1.635 5.734.443 8.856-5.254 11.26-5.53 2.334-7.996-9.568-8.136-10.272a175.43 175.43 0 0 0-3.515 2.263c-.899.902-6.91 7.12-7.482 12.612-.339 3.246.25 5.516.032 7.468l17.758 20.646a10.936 10.936 0 0 1 4.185-.837c6.09 0 11.025 4.955 11.025 11.067 0 6.113-4.936 11.068-11.025 11.068s-11.026-4.955-11.026-11.068c0-2.06.598-3.966 1.575-5.618l-17.348-20.171c-4.368.382-7.979-8.699-8.194-9.252-1.075.973-2.114 1.984-3.165 2.984-1.084 1.593-5.456 8.37-5.09 13.586.417 5.949 3.435 8.17-1.1 12.385-4.353 4.047-10.638-6.025-11.134-6.838-.84 1.08-1.7 2.145-2.515 3.245-.552 1.19-4.092 9.144-2.763 14.487 1.44 5.786 4.795 7.447 1.06 12.388-3.667 4.85-11.874-4.48-12.18-4.83a173.887 173.887 0 0 0-1.894 3.712c-.365 1.381-2.418 9.721-.203 14.707 2.418 5.448 6.01 6.499 3.185 12.016-2.776 5.423-12.498-2.366-12.832-2.637-.42 1.3-.826 2.606-1.215 3.92-.108 1.23-.75 9.997 2.337 14.588 3.326 4.943 7.044 5.352 5.217 11.278-1.77 5.74-12.402.02-13.066-.345-.193 1.398-.372 2.8-.532 4.208.154 1.644 1.1 9.953 4.812 13.808 4.13 4.288 7.861 4.043 7.087 10.197-.74 5.895-11.954 2.265-12.902 1.947.05 1.414.098 2.827.18 4.232.44 1.605 2.808 9.609 7.127 12.755 4.808 3.504 8.442 2.61 8.745 8.807.297 6.093-12.02 4.22-12.43 4.157.29 1.37.618 2.724.94 4.082.626 1.336 4.383 9.001 9.254 11.383 1.492.73 2.818 1.132 4.008 1.473h16.418c-.255-3.45-.43-6.925-.43-10.44 0-76.84 62.058-139.131 138.61-139.131 76.55 0 138.608 62.29 138.608 139.13 0 2.24-.065 4.463-.168 6.675l15.231-.252a5.184 5.184 0 0 1 1.805-.03l9.95-.165c.155-2.481.344-9.798-2.39-13.863-3.324-4.943-7.043-5.351-5.216-11.277 1.77-5.741 12.4-.022 13.065.343.194-1.398.374-2.8.533-4.208-.154-1.645-1.1-9.952-4.811-13.806-4.13-4.29-7.863-4.043-7.089-10.198.741-5.894 11.952-2.265 12.902-1.947"/><path fill="#FFBA1B" d="M689.657 307.966H564.618l-50.773.824c.132-2.21.165-4.42.165-6.661 0-76.804-62.092-139.066-138.727-139.066s-138.76 62.262-138.76 139.066c0 3.528.164 6.991.428 10.421H133.563L88.58 247.716s-2.17-117.828 115.17-206.866c11.714 0 23.264.23 34.584.725 53.602 2.144 102.729 9.2 146.986 19.061 169.527 37.628 267.057 116.08 267.057 116.08l6.58 34.759s62.52 19.555 30.701 96.49"/><path fill="#EC8E00" d="m564.61 307.936-50.751.832c.096-2.21.16-4.42.16-6.663 0-76.83-62.129-139.112-138.767-139.112-76.606 0-138.734 62.283-138.734 139.112 0 3.525.16 6.985.415 10.445H133.545L88.58 247.64s14.797-74.972 132.15-164.04c69.448 0 131.033 5.736 184.373 14.386 90.189 14.578 156.792 37.42 197.986 54.722 32.567 13.68 49.282 23.933 49.282 23.933l6.583 34.763s62.512 19.543 30.713 96.532H564.61Z"/><path fill="#FFBA1B" d="M623.087 225.743a3.66 3.66 0 0 1-3.652 3.658 3.66 3.66 0 0 1-3.652-3.658 3.66 3.66 0 0 1 3.652-3.658 3.66 3.66 0 0 1 3.652 3.658m-14.908-6.06a12.734 12.734 0 0 0-1.527 6.06c0 .69.07 1.36.175 2.02a10.974 10.974 0 0 1 8.928 10.235 12.677 12.677 0 0 0 7.36 0 10.974 10.974 0 0 1 8.927-10.234c.106-.66.175-1.332.175-2.021 0-2.19-.553-4.254-1.526-6.06a51.847 51.847 0 0 0-22.512 0"/><path fill="#FFBA1B" d="M619.435 240.374c-8.055 0-14.609-6.564-14.609-14.631 0-8.068 6.554-14.632 14.609-14.632s14.608 6.564 14.608 14.632c0 8.067-6.553 14.631-14.608 14.631m-21.913-14.631c0 12.102 9.83 21.947 21.913 21.947s21.913-9.845 21.913-21.947c0-12.102-9.83-21.948-21.913-21.948s-21.913 9.846-21.913 21.948Z"/><path fill="#9EA0A3" d="M379.421 254.6c0 2.623-2.12 4.75-4.737 4.75a4.744 4.744 0 0 1-4.737-4.75c0-2.623 2.121-4.75 4.737-4.75a4.744 4.744 0 0 1 4.737 4.75m-34.545 10.891a4.76 4.76 0 0 1 0 6.718 4.727 4.727 0 0 1-6.7 0 4.76 4.76 0 0 1 0-6.718 4.727 4.727 0 0 1 6.7 0m-16.613 31.86A4.744 4.744 0 0 1 333 302.1c0 2.622-2.12 4.75-4.737 4.75a4.744 4.744 0 0 1-4.737-4.75c0-2.624 2.121-4.75 4.737-4.75m9.914 34.64a4.727 4.727 0 0 1 6.699 0 4.76 4.76 0 0 1 0 6.718 4.727 4.727 0 0 1-6.7 0 4.76 4.76 0 0 1 0-6.718m31.771 16.66c0-2.624 2.121-4.75 4.737-4.75a4.744 4.744 0 0 1 4.737 4.75c0 2.622-2.12 4.75-4.737 4.75a4.744 4.744 0 0 1-4.737-4.75m34.546-9.942a4.76 4.76 0 0 1 0-6.718 4.727 4.727 0 0 1 6.699 0 4.76 4.76 0 0 1 0 6.718 4.727 4.727 0 0 1-6.7 0m17.56-31.859a4.744 4.744 0 0 1-4.736-4.75c0-2.623 2.12-4.75 4.737-4.75a4.744 4.744 0 0 1 4.736 4.75c0 2.623-2.12 4.75-4.736 4.75m-10.861-34.641a4.727 4.727 0 0 1-6.7 0 4.76 4.76 0 0 1 0-6.718 4.727 4.727 0 0 1 6.7 0 4.76 4.76 0 0 1 0 6.718"/><path fill="#F1DB66" d="m236.559 302.1-.143-4.902c-.01-.8-.062-1.691-.044-2.674l.085-3.225c.039-1.165.047-2.422.117-3.758l.356-4.24.195-2.307c.088-.786.209-1.588.316-2.411.232-1.644.433-3.375.721-5.168l1.058-5.568c.388-1.924.932-3.884 1.42-5.933 2.115-8.137 5.254-17.182 9.928-26.499 4.614-9.338 10.821-18.9 18.615-28.023 3.934-4.522 8.179-9.02 12.91-13.199 2.302-2.165 4.816-4.134 7.322-6.165 1.268-.995 2.596-1.923 3.902-2.894l1.976-1.447 2.047-1.361c10.886-7.356 23.263-13.347 36.482-17.435l4.992-1.45c1.674-.459 3.377-.82 5.069-1.235l2.546-.597 2.575-.477c1.72-.296 3.435-.662 5.17-.893 6.93-1.037 13.956-1.487 20.983-1.589l5.219.139c.86.035 1.674.019 2.574.096l2.668.204c1.768.162 3.58.225 5.308.473l5.214.675c1.736.23 3.449.598 5.17.891l2.576.474 2.546.597c1.693.414 3.395.776 5.07 1.235l4.992 1.45c13.222 4.08 25.595 10.082 36.487 17.432l2.047 1.361 1.975 1.447c1.307.971 2.635 1.9 3.904 2.894 2.504 2.033 5.024 3.995 7.323 6.164 4.733 4.18 8.977 8.68 12.91 13.202 7.792 9.125 14.007 18.683 18.617 28.025 2.288 4.68 4.324 9.235 5.929 13.693a137.694 137.694 0 0 1 3.998 12.81c.486 2.048 1.03 4.009 1.417 5.933.366 1.927.72 3.784 1.058 5.57.288 1.791.488 3.523.72 5.167.107.823.228 1.625.316 2.41l.193 2.307.356 4.242c.071 1.334.078 2.587.116 3.75.03 1.163.057 2.237.084 3.223.018.984-.035 1.88-.045 2.682l-.144 4.904-.392-4.886c-.069-.794-.105-1.684-.222-2.657l-.402-3.179c-.15-1.145-.29-2.377-.478-3.684l-.71-4.147-.383-2.247c-.152-.764-.34-1.542-.513-2.341-.367-1.593-.707-3.268-1.139-4.995l-1.46-5.354c-.51-1.848-1.177-3.724-1.789-5.678-2.63-7.764-6.292-16.27-11.225-24.993-1.247-2.173-2.616-4.335-3.982-6.547l-2.218-3.255c-.738-1.1-1.488-2.203-2.32-3.264l-2.439-3.259c-.808-1.103-1.724-2.136-2.59-3.22-1.714-2.185-3.632-4.252-5.541-6.37-3.914-4.15-8.104-8.254-12.742-12.027-2.259-1.955-4.708-3.724-7.116-5.586-1.223-.905-2.504-1.744-3.76-2.626l-1.9-1.31-1.965-1.227c-5.2-3.363-10.787-6.287-16.549-8.966l-4.376-1.927-4.486-1.724c-1.486-.612-3.019-1.106-4.552-1.61-1.54-.481-3.047-1.076-4.62-1.47-6.204-1.88-12.623-3.137-19.088-4.164l-4.88-.61c-1.633-.23-3.224-.265-4.84-.412l-2.415-.182c-.795-.072-1.685-.055-2.523-.086l-4.983-.12c-6.578.074-13.155.464-19.642 1.408-6.466 1.025-12.886 2.277-19.09 4.16-1.572.394-3.08.989-4.62 1.47-1.533.502-3.063 1.002-4.553 1.606-1.5.576-2.995 1.15-4.486 1.725l-4.377 1.927c-5.76 2.682-11.35 5.6-16.55 8.964l-1.967 1.227-1.898 1.312c-1.257.882-2.538 1.72-3.761 2.626-2.407 1.864-4.863 3.625-7.12 5.584-4.637 3.773-8.828 7.879-12.741 12.029-1.909 2.12-3.827 4.186-5.54 6.37-.867 1.086-1.782 2.12-2.59 3.223l-2.442 3.256c-.831 1.062-1.582 2.166-2.32 3.265l-2.218 3.256c-1.365 2.212-2.733 4.375-3.98 6.548-4.932 8.725-8.598 17.23-11.223 24.996-.612 1.955-1.28 3.831-1.788 5.679l-1.461 5.355c-.431 1.727-.77 3.401-1.137 4.995-.173.8-.36 1.577-.513 2.341a3660.585 3660.585 0 0 1-1.09 6.395c-.19 1.305-.327 2.533-.478 3.676l-.402 3.178c-.116.973-.152 1.868-.222 2.663l-.39 4.89"/><path fill="#BD5F00" d="M229.737 240.825c0 23.873-19.299 43.225-43.105 43.225-23.807 0-43.106-19.352-43.106-43.225s19.299-43.225 43.106-43.225c23.806 0 43.105 19.352 43.105 43.225"/><path fill="#3E3E40" d="M646.578 285c-8.37 0-15.157-6.806-15.157-15.2 0-8.394 6.786-15.2 15.157-15.2 8.373 0 15.159 6.806 15.159 15.2 0 8.394-6.786 15.2-15.159 15.2ZM281.842 144.4c0 8.394-6.786 15.2-15.158 15.2s-15.158-6.806-15.158-15.2c0-8.394 6.786-15.2 15.158-15.2s15.158 6.806 15.158 15.2"/><path fill="#FFCC1B" d="M266.684 154.323c-7.62 0-13.864-5.558-14.936-12.773-.106.712-.222 1.423-.222 2.163 0 8.25 6.787 14.937 15.158 14.937 8.371 0 15.158-6.687 15.158-14.937 0-.74-.116-1.451-.221-2.163-1.072 7.215-7.317 12.773-14.937 12.773"/><path fill="#26282C" d="M385.105 60.042c-3.352 3.719-7.857 6.143-12.458 8.068-30.835 12.983-65.844 7.339-98.75 1.495-9.204-1.627-18.77-3.454-26.166-9.198-5.16-4.017-9.532-12.152-9.468-19.557 53.55 2.158 102.628 9.264 146.842 19.192M744.693 354.35H69.096c-11.215 0-20.307-8.932-20.307-19.95H765c0 11.018-9.092 19.95-20.307 19.95"/><path fill="#545659" d="M762.261 344.85A21.24 21.24 0 0 0 765 334.4H48.79a21.25 21.25 0 0 0 2.738 10.45h710.733Z"/><path fill="#757577" d="M528.832 379.405a395.358 395.358 0 0 1-1.873 3.775c-.33-.368-8.513-9.822-12.194-4.91-2.038 2.74-1.973 4.476-1.217 6.48H292.115a9.86 9.86 0 0 0 .198-2.004c0-6.18-4.93-11.192-11.045-11.192-6.08 0-11.01 5.011-11.01 11.192 0 .668.065 1.336.196 2.004H238.08c-2.335-4.676-5.424-2.906-10.814-4.443-5.325-1.57-10.518-8.92-11.143-9.821a183.342 183.342 0 0 1-1.544-3.808c.493 0 12.85-.335 11.503-6.348-1.052-4.81-3.418-4.878-7-5.98h305.97c-1.084 3.976 1.907 5.379 3.977 10.189 2.236 5.045.165 13.463-.197 14.866"/><path fill="#545659" d="M539.526 354.514c-.06.217-.118.405-.177.622-.06-.031-.326-.28-.77-.622h.947Z"/><path fill="#D37300" d="M565.048 288.9a8.487 8.487 0 0 1-11.34-3.948l-44.595-92.25c-2.043-4.225-.277-9.307 3.944-11.351 4.221-2.045 9.298-.277 11.34 3.948l44.596 92.25c2.042 4.224.276 9.307-3.945 11.35m28.728 1.172a6.264 6.264 0 0 1-8.374-2.917l-32.932-68.185c-1.509-3.122-.205-6.88 2.912-8.39a6.265 6.265 0 0 1 8.375 2.918l32.931 68.185a6.286 6.286 0 0 1-2.912 8.39"/><path fill="#26282C" d="M603 152.858c-2.013 6.635-5.305 12.85-9.844 18.1-14.639 16.876-40.975 22.093-60.855 12.045-12.848-6.506-22.852-18.421-36.627-22.609-19.784-6.022-43.052 5.315-61.014-4.991-9.748-5.572-15.373-16.33-19.017-27.021-3.452-10.113-5.562-20.999-10.643-30.532 90.194 14.655 156.802 37.617 198 55.008"/><path fill="#C29F1B" d="M680.848 251.49s8.042 2.535 16.889 9.302c-2.088-20.247-12.956-32.877-22.758-40.296l5.869 30.994ZM276.1 124.153c206.715 5.602 337.528 61.495 381.561 83.611l-5.898-31.15S499.755 83.6 219.884 83.6C102.449 172.666 87.632 247.632 87.632 247.632l23.996 34.6c5.268-16.925 20.626-71.166 96.872-136.412 17.002-14.548 45.25-22.273 67.6-21.667m255.603 184.29c-4.933-19.836-14.12-37.978-26.53-53.418 5.275 14.698 8.164 30.535 8.164 47.053 0 2.238-.064 4.46-.169 6.672l18.535-.306Z"/><path fill="#F1DB66" d="M652.263 176.002c-8.16-4.45-16.622-8.285-25.082-12.08-8.482-3.75-17.054-7.282-25.689-10.646-4.3-1.718-8.66-3.294-12.988-4.938-4.368-1.544-8.705-3.165-13.092-4.644-8.746-3.04-17.528-5.973-26.375-8.695-4.424-1.357-8.835-2.753-13.29-4.005-4.454-1.259-8.873-2.625-13.342-3.822-4.466-1.21-8.907-2.502-13.39-3.644l-13.44-3.443-13.5-3.202c-2.245-.55-4.505-1.04-6.765-1.528l-6.77-1.51-6.768-1.508-6.797-1.385c-4.534-.902-9.05-1.894-13.6-2.722l-13.64-2.512c-4.542-.853-9.118-1.528-13.675-2.301-9.109-1.587-18.267-2.871-27.406-4.261-4.576-.66-9.167-1.209-13.75-1.82-4.585-.588-9.163-1.23-13.764-1.695l-13.786-1.515c-4.59-.558-9.208-.846-13.805-1.326-4.604-.425-9.204-.904-13.811-1.284l-13.834-1.032-6.917-.517c-2.305-.177-4.616-.265-6.925-.402l-13.853-.751c-4.616-.293-9.24-.4-13.863-.565l-13.866-.528c-9.248-.253-18.501-.363-27.753-.552l2.502-.843-20.929 16.335-10.136 8.564-5.072 4.283c-1.686 1.433-3.409 2.827-5.002 4.36l-9.74 9.015-4.873 4.509-4.665 4.716-9.36 9.419c-3.036 3.215-5.96 6.536-8.948 9.802l-4.459 4.923-4.22 5.123-4.224 5.124-2.117 2.562c-.702.856-1.343 1.759-2.017 2.636-2.657 3.54-5.364 7.05-7.986 10.623l-7.495 10.981-3.488 5.66c-1.152 1.893-2.39 3.742-3.472 5.677l-3.247 5.809c-.535.972-1.099 1.93-1.61 2.916l-1.487 2.978c-.971 1.994-2.03 3.955-2.932 5.983-.905 2.028-1.84 4.047-2.724 6.089-1.645 4.126-3.33 8.264-4.447 12.587.822-4.396 2.223-8.653 3.594-12.913.745-2.108 1.545-4.198 2.318-6.303.368-1.06.825-2.08 1.268-3.11l1.328-3.085 1.33-3.088c.458-1.023.97-2.018 1.453-3.028l2.945-6.047c2.054-3.983 4.27-7.882 6.43-11.818l7.059-11.458c2.479-3.736 5.049-7.412 7.573-11.126.642-.921 1.251-1.867 1.92-2.767l2.04-2.675 4.086-5.348 4.09-5.35 4.33-5.151c2.905-3.42 5.748-6.9 8.708-10.272l9.152-9.873 4.607-4.91 4.814-4.7 9.637-9.401c1.577-1.6 3.282-3.056 4.95-4.554l5.022-4.476 10.05-8.955 20.94-16.893 1.052-.849 1.452.006c9.314.04 18.63.002 27.947.107 9.314.239 18.635.362 27.942.828l13.963.682c2.326.126 4.656.201 6.98.368l6.974.483 13.949.967c4.646.358 9.285.816 13.929 1.22 9.291.767 18.546 1.916 27.808 2.975 4.636.493 9.25 1.165 13.871 1.782 4.618.64 9.243 1.218 13.854 1.908 9.208 1.47 18.445 2.752 27.61 4.487 4.584.852 9.184 1.607 13.754 2.54l13.713 2.753c4.572.907 9.111 1.98 13.669 2.962l6.828 1.506 6.802 1.629c9.087 2.09 18.084 4.556 27.095 6.94l13.452 3.827c4.484 1.27 8.927 2.69 13.39 4.027 4.472 1.315 8.888 2.816 13.317 4.266 4.438 1.424 8.83 2.99 13.231 4.52 4.41 1.501 8.775 3.141 13.15 4.746 4.383 1.576 8.713 3.306 13.058 4.983 4.34 1.694 8.627 3.527 12.94 5.283 4.274 1.855 8.575 3.64 12.816 5.568l6.369 2.867 6.313 2.993c2.11.982 4.185 2.04 6.277 3.063a300.777 300.777 0 0 1 6.235 3.142c4.155 2.096 8.25 4.317 12.306 6.596 4.051 2.287 8.08 4.618 11.994 7.128"/><path fill="#FFBA1B" d="M229.737 224.675c0 23.873-19.299 43.225-43.105 43.225-23.807 0-43.106-19.352-43.106-43.225s19.299-43.225 43.106-43.225c23.806 0 43.105 19.352 43.105 43.225"/><path fill="#26282C" d="M224.053 224.675c0 20.724-16.754 37.525-37.42 37.525-20.668 0-37.422-16.8-37.422-37.525 0-20.725 16.754-37.525 37.421-37.525 20.667 0 37.42 16.8 37.42 37.525"/><path fill="#3E3E40" d="M186.632 203.44c17.869 0 32.788 12.546 36.507 29.31.582-2.624.914-5.344.914-8.144 0-20.687-16.755-37.456-37.421-37.456-20.668 0-37.421 16.77-37.421 37.456 0 2.8.33 5.52.912 8.144 3.72-16.764 18.64-29.31 36.509-29.31"/><circle cx="75" cy="75" r="75" fill="#BA0D37"/><path fill="#FFF" fill-rule="nonzero" d="M35.256 99V55.48h9.152l6.976 28.928V55.48H57.4V99h-9.152l-6.976-28.736V99h-6.016Zm27.264 0V55.48h17.536v6.592h-9.6v11.264h8.512v6.592h-8.512v12.48h10.24V99H62.52Zm24.704 0-4.672-43.52h7.936l2.304 30.592 3.904-30.592h6.976l3.84 30.784 2.304-30.784h6.848L111.928 99h-9.216l-3.136-26.496L96.248 99h-9.024Z"/></g></svg>