<svg xmlns="http://www.w3.org/2000/svg" viewBox="0 0 499 48" id="cards">

<g fill="none" fill-rule="evenodd">

<g transform="translate(255.897)">

<rect width="115.154" height="48" fill="#192833" rx="6.4"/>

<path fill="#FFF" d="M77.63 15.304a3.746 3.746 0 0 0-1.4-1.47c-.62-.382-1.359-.646-2.206-.802-.854-.151-1.852-.232-2.997-.232h-5.311c-.55 0-1.094.428-1.214.953L60.91 29.076c-.128.527.222.956.763.956h2.551c.547 0 1.092-.429 1.22-.956l.87-3.714c.126-.52.667-.95 1.217-.95h.727c3.112 0 5.53-.628 7.263-1.883 1.726-1.26 2.595-2.91 2.595-4.96 0-.905-.16-1.656-.486-2.265m-5.491 5.009c-.766.552-1.833.83-3.214.83H68.3c-.55 0-.894-.431-.771-.957l.766-3.252c.12-.523.667-.951 1.211-.951h.837c.973 0 1.706.162 2.21.487.489.32.735.816.735 1.487 0 1.02-.386 1.804-1.148 2.356m12.47 9.719h3.196c.545 0 1.092-.429 1.217-.956l1.852-7.888c.046-.188.084-.401.115-.651.024-.245.038-.45.038-.598 0-1.12-.484-1.947-1.447-2.475-.97-.536-2.48-.8-4.542-.8-1.026 0-2.051.076-3.082.232-1.034.156-1.791.293-2.286.42l-.43 2.151c-.103.526-.016.96.197.96.413-.152 1.045-.343 1.882-.574.842-.235 1.608-.35 2.297-.35 1.025 0 1.794.107 2.305.323.512.218.771.595.771 1.13 0 .13-.01.248-.035.356-.028.105-.047.183-.058.229a49.115 49.115 0 0 0-4.063.393c-1.247.175-2.325.466-3.233.867-.962.426-1.69.994-2.185 1.71-.49.716-.735 1.584-.735 2.612 0 .972.347 1.764 1.042 2.37.691.606 1.583.91 2.674.91.681 0 1.214-.048 1.597-.143.38-.094.793-.231 1.23-.414.323-.138.67-.331 1.045-.574.375-.242.695-.45.963-.625l-.325 1.385m.798-3.385c-.416.29-.861.533-1.334.724-.465.188-.914.285-1.324.285-.634 0-1.118-.091-1.447-.277-.33-.178-.497-.487-.497-.934 0-.51.123-.916.377-1.226.246-.307.61-.544 1.08-.713.46-.162 1.02-.286 1.677-.372a63.09 63.09 0 0 1 2.105-.22l-.637 2.733m13.753-13.71-3.635 16.141c-.12.528-.667.956-1.214.956H92.04c-.547 0-.897-.428-.772-.956l3.408-15.187c.126-.526.673-.954 1.22-.954h3.265m-66.417 2.397a3.74 3.74 0 0 0-1.403-1.473c-.623-.38-1.353-.644-2.204-.802-.856-.151-1.851-.23-2.994-.23h-5.314c-.552 0-1.094.426-1.22.954l-3.59 15.322c-.123.525.221.956.774.956h2.549c.544 0 1.09-.43 1.214-.953l.87-3.716c.125-.523.67-.95 1.219-.95h.727c3.112 0 5.533-.628 7.26-1.886 1.732-1.257 2.599-2.908 2.599-4.96 0-.902-.164-1.659-.487-2.262m-5.497 5.006c-.763.552-1.83.832-3.205.832h-.631c-.547 0-.897-.43-.774-.959l.765-3.253c.126-.525.673-.953 1.22-.953h.831c.971 0 1.71.164 2.205.49.495.323.743.819.743 1.49 0 1.017-.385 1.804-1.154 2.353m12.476 9.721h3.197c.547 0 1.09-.43 1.214-.953l1.854-7.893c.05-.186.088-.401.107-.652a5.11 5.11 0 0 0 .043-.592c0-1.123-.48-1.95-1.449-2.48-.963-.536-2.478-.8-4.542-.8a20.06 20.06 0 0 0-3.077.234c-1.036.154-1.8.297-2.286.42l-.432 2.15c-.107.527-.014.96.197.96.418-.15 1.045-.347 1.884-.578.842-.23 1.603-.348 2.297-.348 1.018 0 1.791.108 2.306.326.514.218.773.593.773 1.129 0 .129-.019.247-.038.352a1.202 1.202 0 0 0-.055.232c-1.46.086-2.81.213-4.066.393-1.25.178-2.327.471-3.232.87-.963.428-1.69.996-2.185 1.71-.49.713-.739 1.586-.739 2.612 0 .972.345 1.764 1.042 2.367.692.606 1.586.91 2.675.91.683 0 1.214-.048 1.597-.14a8.6 8.6 0 0 0 1.228-.415c.325-.14.675-.33 1.05-.576.372-.242.697-.452.957-.625l-.32 1.387m.793-3.387c-.416.29-.859.535-1.332.724-.47.191-.91.285-1.323.285-.632 0-1.116-.088-1.447-.272-.328-.177-.495-.492-.495-.942 0-.504.12-.913.37-1.223.254-.304.614-.54 1.088-.713a8.683 8.683 0 0 1 1.673-.372c.657-.08 1.362-.153 2.103-.215l-.637 2.728m18.568-10.002c-.544 0-1.266.434-1.594.954l-4.501 7.593-1.234-7.58c-.123-.525-.667-.956-1.217-.956h-2.27c-.549 0-.896.43-.773.956l1.969 12.522c.038.27.076.498.106.692l-2.447 4.034c-.326.525-.15.953.391.953h2.639c.547 0 1.26-.428 1.586-.953l10.974-18.215h-3.629"/></g>

<g transform="translate(383.846)">
<rect width="115.154" height="48" fill="#192833" rx="6.4"/>

<g fill="#FFF" fill-rule="nonzero">

<path d="M44.199 16.404c-.253.233-.51.463-.76.7-.887.836-1.553 1.811-1.788 3.024-.325 1.682.021 3.224 1.042 4.607.511.691 1.12 1.265 1.932 1.596.094.038.19.072.307.117-.106.286-.2.568-.313.843-.66 1.598-1.52 3.076-2.692 4.359a6.474 6.474 0 0 1-.717.66c-.856.69-1.815.958-2.896.643-.54-.157-1.073-.334-1.61-.5-.554-.17-1.114-.308-1.698-.322-.722-.017-1.39.2-2.058.444-.506.187-1.016.38-1.54.504-.825.196-1.57-.058-2.254-.52-.69-.466-1.236-1.077-1.71-1.752-1.185-1.689-2.088-3.516-2.64-5.508-.492-1.772-.63-3.569-.353-5.39.244-1.604.844-3.053 1.976-4.25 1.172-1.24 2.616-1.75 4.308-1.582.842.083 1.647.327 2.455.561.337.098.68.172 1.02.258.486.124.966.067 1.437-.07.662-.194 1.318-.414 1.98-.611.986-.292 1.985-.376 3-.18 1.315.255 2.354.961 3.224 1.948.109.123.216.249.323.375.01.011.014.026.025.046Z"/>

<path d="M39.257 8.321c.014.289.054.56.035.828-.102 1.46-.676 2.716-1.687 3.772-.455.478-.959.897-1.58 1.142-.53.209-1.093.254-1.654.295-.009 0-.019-.008-.027-.014.078-3.26 1.726-5.368 4.912-6.024l.001.001Zm11.962 3.876c1.304-.217 3.01-.402 5.183-.402 2.67 0 4.624.62 5.866 1.735 1.148.991 1.83 2.51 1.83 4.368 0 1.858-.559 3.377-1.614 4.462-1.427 1.518-3.755 2.292-6.393 2.292-.806 0-1.55-.031-2.172-.187v8.366h-2.7V12.197Zm2.7 10.07c.59.156 1.335.217 2.234.217 3.259 0 5.245-1.58 5.245-4.462 0-2.882-1.955-4.09-4.934-4.09-1.18 0-2.08.093-2.545.218v8.117ZM73.84 32.832l-.217-1.89h-.093c-.838 1.178-2.452 2.231-4.593 2.231-3.042 0-4.593-2.138-4.593-4.306 0-3.625 3.227-5.608 9.031-5.577v-.31c0-1.24-.341-3.47-3.414-3.47-1.397 0-2.855.433-3.91 1.115l-.621-1.797c1.242-.806 3.042-1.333 4.934-1.333 4.593 0 5.71 3.13 5.71 6.135v5.608c0 1.302.062 2.572.249 3.594H73.84Zm-.403-7.653c-2.98-.062-6.362.465-6.362 3.378 0 1.766 1.179 2.603 2.576 2.603 1.955 0 3.196-1.24 3.63-2.51.093-.279.156-.589.156-.867V25.18Zm6.265-7.343 3.289 8.86c.341.993.714 2.17.962 3.069h.062c.28-.9.59-2.046.963-3.13l2.98-8.799h2.885l-4.097 10.69c-1.955 5.143-3.289 7.776-5.152 9.388-1.334 1.177-2.668 1.642-3.35 1.766l-.683-2.293a7.232 7.232 0 0 0 2.39-1.333c.744-.589 1.675-1.642 2.296-3.036.124-.28.217-.496.217-.651 0-.156-.062-.372-.186-.713l-5.555-13.82h2.98l-.001.002Z"/></g></g><g transform="translate(127.949)"><rect width="115.154" height="48" fill="#192833" rx="6.4"/>

<path fill="#FFF" d="m42.567 13.208-5.63 15.214-.603-3.091c-1.361-3.692-4.011-7.058-7.964-9.316l5.146 19.482h6.087l9.051-22.29h-6.087M47.388 35.506l3.598-22.316h5.754l-3.6 22.316h-5.752M73.997 13.741c-1.134-.453-2.929-.941-5.147-.941-5.692 0-9.692 3.028-9.727 7.36-.035 3.216 2.86 5.002 5.038 6.071 2.242 1.093 2.993 1.794 2.985 2.772-.02 1.488-1.795 2.17-3.444 2.17-2.3 0-3.522-.333-5.406-1.17l-.749-.351-.803 4.99c1.344.632 3.823 1.163 6.412 1.198 6.036 0 9.96-2.998 10.008-7.629.026-2.542-1.511-4.472-4.836-6.064-2.003-1.033-3.247-1.716-3.226-2.766.002-.926 1.042-1.917 3.302-1.917 1.88-.037 3.23.396 4.301.856l.513.258.78-4.837m7.658 13.852c.479-1.28 2.293-6.236 2.293-6.236-.04.06.465-1.295.764-2.13l.381 1.928 1.336 6.438h-4.774Zm7.088-14.383h-4.442c-1.38 0-2.407.401-3.018 1.852L72.746 35.51h6.044s.987-2.748 1.208-3.353c.665 0 6.525.013 7.36.013.18.779.706 3.34.706 3.34h5.339l-4.66-22.3Z"/>

<path fill="#ED9F2D" d="M31.717 13.201H22.44l-.05.384c7.207 1.844 11.965 6.39 13.943 11.75l-2.013-10.251c-.346-1.419-1.357-1.833-2.604-1.883"/></g><rect width="115.154" height="48" fill="#192833" rx="6.4"/>

<path fill="#BA0D37" d="M64 24.32c0 10.252-8.311 18.56-18.565 18.56-10.253 0-18.565-8.308-18.565-18.56 0-10.25 8.312-18.56 18.565-18.56 10.254 0 18.566 8.31 18.566 18.56"/>

<path fill="#F1AB3D" d="M57.897 10.564a18.806 18.806 0 0 0-1.873 1.964h3.749c.513.622.983 1.28 1.415 1.967h-6.583a19.208 19.208 0 0 0-1.07 1.964h8.724c.298.637.558 1.295.784 1.965h-10.29c-.218.64-.395 1.297-.543 1.968h11.371c.275 1.266.42 2.58.42 3.929 0 2.06-.336 4.044-.958 5.896h-10.29c.223.673.483 1.33.781 1.964h8.725a18.63 18.63 0 0 1-1.073 1.97h-6.58c.43.682.903 1.34 1.418 1.961h3.749c-.578.7-1.204 1.358-1.876 1.967A18.497 18.497 0 0 0 70.36 42.88c10.253 0 18.565-8.308 18.565-18.56 0-10.25-8.312-18.56-18.565-18.56a18.5 18.5 0 0 0-12.463 4.804Z"/>

<path fill="#243A4A" d="M42.565 29.765h-1.671l.04-.796c-.51.628-1.188.927-2.114.927-1.09 0-1.84-.853-1.84-2.09 0-1.866 1.302-2.952 3.539-2.952.228 0 .522.021.823.059.063-.251.075-.36.075-.497 0-.506-.35-.698-1.291-.698a6.777 6.777 0 0 0-2.135.346c.024-.127.284-1.721.284-1.721 1-.294 1.663-.405 2.407-.405 1.733 0 2.651.774 2.648 2.243.003.395-.061.88-.162 1.519-.177 1.106-.554 3.486-.603 4.065ZM41.1 26.353a3.594 3.594 0 0 0-.45-.03c-1.143 0-1.722.39-1.722 1.165 0 .475.283.778.723.778.821 0 1.413-.78 1.449-1.913ZM36.137 29.765H34.12l1.156-7.237-2.578 7.237h-1.371l-.172-7.196-1.214 7.196h-1.887l1.575-9.415h2.899l.175 5.269 1.767-5.269h3.224l-1.557 9.415M74.319 29.765h-1.672l.037-.796c-.509.628-1.187.927-2.11.927-1.095 0-1.843-.853-1.843-2.09 0-1.866 1.306-2.952 3.54-2.952.229 0 .521.021.82.059.063-.251.08-.36.08-.497 0-.506-.352-.698-1.292-.698a6.78 6.78 0 0 0-2.136.346c.025-.127.283-1.721.283-1.721 1.003-.294 1.665-.405 2.407-.405 1.735 0 2.651.774 2.648 2.243.005.395-.06.88-.165 1.519-.17 1.106-.549 3.486-.597 4.065Zm-1.468-3.412a3.594 3.594 0 0 0-.45-.03c-1.143 0-1.72.39-1.72 1.165 0 .475.281.778.72.778.822 0 1.414-.78 1.45-1.913Zm-21.33 3.294c-.55.174-.98.25-1.445.25-1.032 0-1.595-.592-1.595-1.683-.014-.339.15-1.228.276-2.04.117-.716.878-5.225.878-5.225h2.001l-.235 1.157h1.211l-.274 1.842h-1.213c-.233 1.456-.565 3.27-.568 3.511 0 .395.21.567.688.567.23 0 .41-.023.546-.072l-.27 1.693m5.018-4.602c.012-.157.211-1.366-.931-1.366-.64 0-1.096.488-1.28 1.366h2.21Zm1.126 4.541a6.732 6.732 0 0 1-2.054.31c-2.244-.001-3.413-1.172-3.413-3.416 0-2.616 1.487-4.542 3.505-4.542 1.654 0 2.708 1.077 2.708 2.77 0 .562-.073 1.11-.249 1.883h-3.987c-.135 1.109.575 1.573 1.741 1.573.716 0 1.364-.149 2.083-.482l-.334 1.904Zm-13.89-5.057c0 .967.47 1.635 1.533 2.136.818.385.942.5.942.844 0 .48-.357.694-1.157.694-.601 0-1.159-.093-1.807-.303 0 0-.261 1.69-.276 1.77.46.099.868.192 2.099.226 2.127 0 3.109-.808 3.109-2.557 0-1.053-.411-1.671-1.42-2.134-.846-.39-.945-.475-.945-.832 0-.416.338-.628.987-.628.398 0 .936.043 1.451.117l.283-1.776a13.344 13.344 0 0 0-1.772-.148c-2.256 0-3.035 1.176-3.028 2.59m23.696-2.39c.558 0 1.08.146 1.803.51l.324-2.045c-.294-.116-1.332-.796-2.213-.796-1.349 0-2.492.67-3.292 1.774-1.17-.388-1.652.394-2.242 1.174l-.522.122c.04-.256.075-.51.065-.77H59.54c-.253 2.372-.7 4.771-1.051 7.144l-.092.514h2.016c.34-2.187.52-3.586.635-4.537l.76-.418c.11-.423.467-.564 1.178-.548a8.727 8.727 0 0 0-.142 1.569c0 2.507 1.354 4.065 3.523 4.065.558 0 1.038-.073 1.781-.274l.353-2.147c-.669.329-1.216.485-1.713.485-1.171 0-1.878-.868-1.878-2.296 0-2.073 1.051-3.526 2.56-3.526m14.54 5.857c-.685 0-1.033-.507-1.033-1.508 0-1.506.651-2.573 1.564-2.573.693 0 1.07.527 1.07 1.5 0 1.52-.66 2.581-1.6 2.581Zm2.522-7.645-.448 2.72c-.55-.724-1.141-1.249-1.925-1.249-1.015 0-1.94.77-2.547 1.905-.845-.174-1.718-.474-1.718-.474v.007c.068-.633.096-1.02.09-1.153H76.13c-.25 2.373-.701 4.772-1.05 7.145l-.09.514h2.014c.274-1.768.484-3.235.637-4.4.687-.623 1.033-1.164 1.73-1.128a6.483 6.483 0 0 0-.49 2.483c0 1.914.968 3.176 2.433 3.176.74 0 1.304-.254 1.859-.844l-.096.712h1.907l1.536-9.414h-1.988Z"/>

<path fill="#FFFFFE" d="M36.716 29.204h-2.018l1.159-7.236-2.58 7.236h-1.374l-.17-7.193-1.213 7.193h-1.885l1.575-9.413h2.9l.081 5.828 1.952-5.828h3.134l-1.561 9.413M43.145 29.204h-1.668l.037-.79c-.51.625-1.189.923-2.113.923-1.092 0-1.84-.852-1.84-2.091 0-1.863 1.302-2.952 3.537-2.952.23 0 .522.023.822.061.06-.255.08-.36.08-.499 0-.505-.353-.694-1.291-.694a6.692 6.692 0 0 0-2.137.343c.022-.127.28-1.722.28-1.722 1.003-.294 1.667-.405 2.413-.405 1.73 0 2.646.778 2.646 2.245.002.395-.063.88-.165 1.52-.173 1.106-.547 3.484-.601 4.061Zm-1.464-3.409a3.63 3.63 0 0 0-.452-.032c-1.143 0-1.718.392-1.718 1.165 0 .476.28.78.72.78.822 0 1.412-.78 1.45-1.913Zm28.498-5.75-.33 2.043c-.72-.362-1.242-.507-1.8-.507-1.506 0-2.563 1.452-2.563 3.527 0 1.43.712 2.292 1.884 2.292.496 0 1.042-.154 1.71-.482l-.353 2.144c-.742.201-1.225.275-1.78.275-2.171 0-3.524-1.559-3.524-4.062 0-3.368 1.871-5.72 4.54-5.72.881 0 1.92.374 2.216.49m4.719 9.16h-1.67l.038-.792c-.51.626-1.191.924-2.112.924-1.094 0-1.842-.852-1.842-2.091 0-1.863 1.302-2.952 3.54-2.952.227 0 .52.023.819.061.061-.255.079-.36.079-.499 0-.505-.35-.694-1.292-.694a6.678 6.678 0 0 0-2.134.343l.28-1.722c1.006-.294 1.666-.405 2.412-.405 1.731 0 2.648.778 2.646 2.245.004.395-.065.88-.163 1.52-.174 1.106-.55 3.484-.601 4.061Zm-1.467-3.41a3.604 3.604 0 0 0-.45-.032c-1.143 0-1.72.392-1.72 1.165 0 .476.28.78.724.78.821 0 1.412-.78 1.446-1.913ZM52.1 29.089c-.549.173-.98.248-1.446.248-1.03 0-1.593-.59-1.593-1.682-.014-.336.147-1.229.275-2.04.116-.717.875-5.223.875-5.223h2.004l-.235 1.158h1.03l-.275 1.84h-1.031c-.234 1.456-.565 3.27-.57 3.51 0 .396.21.568.693.568.23 0 .406-.025.542-.073l-.269 1.694m5.019-4.601c.009-.158.213-1.367-.931-1.367-.64 0-1.094.488-1.283 1.367h2.214Zm1.125 4.54a6.85 6.85 0 0 1-2.054.309c-2.244 0-3.414-1.171-3.414-3.413 0-2.62 1.487-4.546 3.509-4.546 1.648 0 2.703 1.08 2.703 2.77 0 .562-.072 1.11-.244 1.886h-3.99c-.136 1.11.573 1.572 1.74 1.572.718 0 1.366-.147 2.087-.482l-.337 1.904ZM44.354 23.97c0 .97.468 1.638 1.537 2.14.814.382.942.497.942.844 0 .478-.36.69-1.159.69-.6 0-1.16-.092-1.806-.3 0 0-.266 1.689-.277 1.768.458.1.867.192 2.097.226 2.128 0 3.11-.809 3.11-2.557 0-1.053-.412-1.67-1.42-2.135-.847-.389-.943-.473-.943-.832 0-.412.335-.625.986-.625.397 0 .935.043 1.45.114l.286-1.773a13.746 13.746 0 0 0-1.774-.15c-2.254 0-3.038 1.177-3.03 2.59m38.238 3.469c.938 0 1.597-1.066 1.597-2.583 0-.972-.375-1.499-1.066-1.499-.915 0-1.566 1.065-1.566 2.572 0 1.002.35 1.51 1.035 1.51Zm2.974 1.766H83.66l.093-.71c-.553.59-1.12.843-1.857.843-1.463 0-2.436-1.263-2.436-3.176 0-2.547 1.504-4.693 3.281-4.693.78 0 1.372.319 1.925 1.043l.448-2.72h1.988l-1.536 9.413Zm-8.852-7.654c-.25 2.37-.701 4.77-1.05 7.141l-.092.513h2.016c.72-4.68.893-5.595 2.025-5.48.18-.958.517-1.797.764-2.22-.843-.176-1.317.3-1.932 1.206.047-.392.137-.772.119-1.16h-1.85m-16.592 0c-.253 2.37-.701 4.77-1.053 7.141l-.09.513h2.016c.723-4.68.894-5.595 2.022-5.48.183-.958.52-1.797.766-2.22-.841-.176-1.313.3-1.932 1.206.05-.392.138-.772.122-1.16h-1.851"/></g></svg>