<svg xmlns="http://www.w3.org/2000/svg" viewBox="0 0 682 891"><g fill="none"><path fill="#FFF" d="M280.14 24.28c-.247-8.535.851-14.488 3.294-17.859 2.443-3.37 5.922-5.056 10.437-5.056 4.392 0 7.824 1.485 10.298 4.453 2.474 2.97 3.866 8.721 4.175 17.256l1.948 91.29c.31 10.019-.897 16.745-3.618 20.177-2.721 3.433-6.37 5.15-10.947 5.15-4.453 0-7.917-1.624-10.39-4.871-2.475-3.247-3.866-9.262-4.176-18.045l-1.02-92.495Zm46.433 38.408c-5.443-6.37-8.164-14.503-8.164-24.399 0-7.793 1.933-14.504 5.798-20.132 3.866-5.628 9.309-9.958 16.329-12.988 7.02-3.03 15.23-4.546 24.63-4.546 4.64 0 8.706.263 12.2.789 3.495.525 6.48 1.16 8.953 1.901 4.825 1.423 8.474 3.634 10.948 6.634 2.474 3 3.71 6.386 3.71 10.158 0 4.02-1.206 7.453-3.618 10.298-2.412 2.845-5.937 4.268-10.576 4.268-3.03 0-6.571-.85-10.622-2.551-4.052-1.701-8.675-2.552-13.87-2.552-3.34 0-6.154.835-8.442 2.505-2.289 1.67-3.433 4.175-3.433 7.515 0 3.278 1.082 6.077 3.247 8.396 2.165 2.32 5.968 4.747 11.411 7.283l3.062 1.391c8.35 3.711 14.967 7.623 19.853 11.736 4.886 4.113 8.38 8.674 10.484 13.684 2.102 5.01 3.154 10.762 3.154 17.256 0 7.917-1.948 14.983-5.845 21.199-3.896 6.215-9.494 11.117-16.792 14.704-7.298 3.587-16.05 5.381-26.255 5.381-4.638 0-8.983-.34-13.034-1.02-4.051-.68-7.407-1.423-10.066-2.227-5.134-1.608-8.721-3.757-10.762-6.448-2.041-2.69-3.062-6.2-3.062-10.53 0-3.463 1.237-6.602 3.711-9.416 2.474-2.814 6.247-4.221 11.319-4.221 3.958 0 7.329.263 10.112.788 2.783.526 5.38 1.067 7.793 1.624 2.412.557 4.948.835 7.607.835 8.103 0 12.154-3.556 12.154-10.67 0-3.834-1.129-6.988-3.386-9.462-2.258-2.474-6.139-5.072-11.644-7.793l-3.247-1.67c-10.328-5.504-18.214-11.411-23.657-17.72Zm-90.128 205.757c-.185 14.906-4.855 22.359-14.009 22.359-5.257 0-8.906-1.686-10.947-5.056-2.04-3.371-2.969-8.644-2.783-15.818l2.134-79.322c.124-3.649-.48-6.2-1.81-7.653-1.329-1.454-3.664-2.18-7.004-2.18l-9.648.185c-4.391-.062-7.747-1.423-10.066-4.082-2.32-2.66-3.479-6.123-3.479-10.39 0-4.949 1.624-8.706 4.87-11.273 3.248-2.566 7.84-3.726 13.777-3.479l55.572 1.67c4.638.186 8.287 1.376 10.947 3.572 2.66 2.196 3.99 5.025 3.99 8.489 0 3.587-.99 6.68-2.97 9.277-1.979 2.598-5.288 4.113-9.926 4.546l-9.463.65c-2.845.247-4.886.989-6.123 2.226s-1.887 3.402-1.948 6.494l-1.114 79.785Zm127.238-6.587c-.247 10.453-1.391 17.535-3.432 21.245-2.041 3.711-5.474 5.567-10.298 5.567-4.206 0-7.267-1.608-9.185-4.824-1.917-3.216-3.092-8.597-3.525-16.143l-.557-21.338c-.247-4.391-1.16-7.607-2.737-9.648-1.577-2.041-4.066-3.124-7.468-3.247l-16.514-.65c-3.216-.123-5.442.541-6.68 1.995-1.236 1.453-2.01 4.345-2.319 8.674l-1.484 24.956c-.68 7.67-2.087 13.081-4.221 16.236-2.134 3.154-5.149 4.731-9.046 4.731-2.597 0-4.87-.727-6.818-2.18-1.949-1.454-3.51-4.175-4.685-8.164-1.176-3.99-1.918-9.757-2.227-17.302l-1.299-82.754c-.247-7.237.201-12.819 1.345-16.746 1.145-3.927 2.876-6.664 5.196-8.21 2.32-1.547 4.994-2.32 8.025-2.32 3.649 0 6.68 1.345 9.091 4.036 2.413 2.69 3.928 7.623 4.546 14.797l.928 22.637c.31 3.71 1.005 6.386 2.087 8.025 1.083 1.639 3.047 2.458 5.892 2.458h17.905c4.082 0 6.989-.68 8.72-2.04 1.732-1.361 2.691-4.268 2.877-8.721l-.093-23.38c.433-6.617 1.778-11.256 4.035-13.915 2.258-2.66 5.582-3.99 9.974-3.99 4.267 0 7.607 1.5 10.02 4.5 2.411 3 3.494 8.953 3.246 17.859l-1.299 87.856Zm12.941-87.578c-.247-8.535.85-14.488 3.294-17.859 2.443-3.37 5.922-5.056 10.437-5.056 4.391 0 7.824 1.485 10.298 4.453 2.474 2.97 3.865 8.721 4.175 17.256l1.948 91.29c.31 10.019-.897 16.745-3.618 20.177-2.722 3.433-6.37 5.15-10.948 5.15-4.453 0-7.916-1.624-10.39-4.871-2.474-3.247-3.866-9.262-4.175-18.045l-1.02-92.495Zm46.433 38.408c-5.443-6.37-8.164-14.503-8.164-24.399 0-7.793 1.933-14.504 5.798-20.132 3.866-5.628 9.308-9.958 16.328-12.988 7.02-3.03 15.23-4.546 24.632-4.546 4.638 0 8.705.263 12.2.789 3.494.525 6.478 1.16 8.952 1.901 4.824 1.423 8.473 3.634 10.947 6.634 2.474 3 3.711 6.386 3.711 10.158 0 4.02-1.206 7.453-3.618 10.298-2.412 2.845-5.938 4.268-10.576 4.268-3.03 0-6.572-.85-10.623-2.551-4.05-1.701-8.674-2.552-13.87-2.552-3.34 0-6.153.835-8.442 2.505-2.288 1.67-3.432 4.175-3.432 7.515 0 3.278 1.082 6.077 3.247 8.396 2.164 2.32 5.968 4.747 11.41 7.283l3.062 1.391c8.35 3.711 14.968 7.623 19.854 11.736 4.886 4.113 8.38 8.674 10.483 13.684 2.103 5.01 3.155 10.762 3.155 17.256 0 7.917-1.949 14.983-5.845 21.199-3.897 6.215-9.494 11.117-16.792 14.704-7.298 3.587-16.05 5.381-26.255 5.381-4.639 0-8.984-.34-13.035-1.02-4.05-.68-7.406-1.423-10.066-2.227-5.133-1.608-8.72-3.757-10.761-6.448-2.041-2.69-3.062-6.2-3.062-10.53 0-3.463 1.237-6.602 3.711-9.416 2.474-2.814 6.247-4.221 11.318-4.221 3.959 0 7.33.263 10.113.788 2.783.526 5.38 1.067 7.793 1.624 2.412.557 4.948.835 7.607.835 8.102 0 12.153-3.556 12.153-10.67 0-3.834-1.128-6.988-3.386-9.462-2.257-2.474-6.138-5.072-11.643-7.793l-3.247-1.67c-10.329-5.504-18.214-11.411-23.657-17.72ZM258.084 418.445c-.185 14.906-4.855 22.359-14.008 22.359-5.258 0-8.907-1.686-10.948-5.056-2.04-3.371-2.968-8.644-2.783-15.818l2.134-79.322c.124-3.649-.48-6.2-1.81-7.653-1.329-1.454-3.664-2.18-7.004-2.18l-9.648.185c-4.391-.062-7.747-1.423-10.066-4.082-2.32-2.66-3.479-6.123-3.479-10.39 0-4.949 1.624-8.706 4.87-11.273 3.248-2.566 7.84-3.726 13.777-3.479l55.572 1.67c4.638.186 8.288 1.376 10.947 3.572 2.66 2.196 3.99 5.025 3.99 8.489 0 3.587-.99 6.68-2.97 9.277-1.979 2.598-5.288 4.113-9.926 4.546l-9.463.65c-2.845.247-4.886.989-6.123 2.226s-1.887 3.402-1.948 6.494l-1.114 79.785Zm127.238-6.587c-.247 10.453-1.391 17.535-3.432 21.245-2.041 3.711-5.474 5.567-10.298 5.567-4.206 0-7.267-1.608-9.185-4.824-1.917-3.216-3.092-8.597-3.525-16.143l-.557-21.338c-.247-4.391-1.16-7.607-2.737-9.648-1.577-2.041-4.066-3.124-7.468-3.247l-16.513-.65c-3.217-.123-5.443.541-6.68 1.995-1.237 1.453-2.01 4.345-2.32 8.674l-1.484 24.956c-.68 7.67-2.087 13.081-4.221 16.236-2.134 3.154-5.149 4.731-9.045 4.731-2.598 0-4.871-.727-6.82-2.18-1.948-1.454-3.51-4.175-4.684-8.164-1.176-3.99-1.918-9.757-2.227-17.302l-1.299-82.754c-.247-7.237.201-12.819 1.345-16.746 1.145-3.927 2.876-6.664 5.196-8.21 2.32-1.547 4.994-2.32 8.025-2.32 3.649 0 6.68 1.345 9.091 4.036 2.413 2.69 3.928 7.623 4.546 14.797l.928 22.637c.31 3.71 1.005 6.386 2.087 8.025 1.083 1.639 3.047 2.458 5.892 2.458h17.905c4.082 0 6.989-.68 8.72-2.04 1.732-1.361 2.691-4.268 2.877-8.721l-.093-23.38c.433-6.617 1.778-11.256 4.035-13.915 2.258-2.66 5.582-3.99 9.974-3.99 4.267 0 7.607 1.5 10.02 4.5 2.411 3 3.494 8.953 3.246 17.859l-1.299 87.856Zm13.405-73.662c-.061-10.143.82-17.89 2.644-23.24 1.825-5.35 4.964-8.999 9.417-10.947 4.453-1.948 10.514-2.83 18.184-2.644l28.203 1.299c5.875.062 10.251 1.283 13.127 3.665 2.876 2.38 4.314 5.427 4.314 9.138 0 3.649-1.19 6.54-3.572 8.674-2.38 2.134-6.324 3.386-11.828 3.757l-20.782.743c-3.958.247-6.571.943-7.839 2.087-1.268 1.144-1.964 3.355-2.087 6.633l-.557 9.649c-.124 3.71.526 6.308 1.948 7.793 1.423 1.484 4.113 2.288 8.072 2.412l16.606.742c9.587.371 14.38 3.958 14.38 10.762 0 3.649-1.206 6.34-3.618 8.071-2.412 1.732-5.907 2.752-10.484 3.062l-14.75.463c-4.64.248-7.933 1.315-9.881 3.201-1.948 1.886-2.706 5.18-2.273 9.88l.928 9.185c.309 3.278.804 5.767 1.484 7.468.68 1.701 1.887 2.845 3.618 3.433 1.732.587 4.33.912 7.793.974l14.751.093c6.433.247 11.071 1.33 13.916 3.247 2.845 1.917 4.268 4.7 4.268 8.35 0 4.514-1.562 7.963-4.685 10.344-3.124 2.38-8.458 3.726-16.004 4.035l-21.709-.185c-6.68.247-12.107-.124-16.281-1.113-4.175-.99-7.36-2.938-9.556-5.845-2.196-2.907-3.726-7.051-4.592-12.432-.866-5.38-1.361-12.339-1.485-20.874l-1.67-61.88Z"/><path fill="#E3A230" d="M.083 490.423c-.062-10.39.881-18.261 2.83-23.611 1.948-5.35 5.071-8.968 9.37-10.855 4.298-1.886 9.88-2.83 16.745-2.83h11.133c13.298 0 24.492 2.32 33.584 6.959 9.092 4.639 15.849 11.983 20.271 22.034 4.422 10.05 6.2 23.24 5.334 39.567l-.185 3.99c-1.175 22.203-6.865 38.191-17.07 47.964-10.206 9.772-24.833 14.441-43.882 14.008l-7.886-.092c-7.546-.186-13.452-1.206-17.72-3.062-4.267-1.855-7.282-5.303-9.045-10.344-1.763-5.04-2.675-12.385-2.737-22.034l-.742-61.694Zm42.305 64.385c7.545-.433 13.374-3.263 17.487-8.49 4.113-5.225 6.572-13.529 7.376-24.909l.093-1.02c.804-11.628-.913-20.04-5.15-25.235-4.236-5.195-10.962-8.01-20.178-8.442l-2.504-.186c-5.629-.247-8.505 2.32-8.628 7.7l-1.3 52.789c-.061 3.092.542 5.241 1.81 6.447 1.268 1.206 3.479 1.748 6.633 1.624l4.36-.278Zm157.574-27.554c-1.298 41.748-17.72 62.622-49.262 62.622-10.7 0-19.359-2.15-25.977-6.448-6.618-4.298-11.426-11.117-14.426-20.456-3-9.34-4.5-21.586-4.5-36.739V478.27c0-16.76 4.67-25.141 14.01-25.141 4.576 0 7.916 1.84 10.019 5.52 2.103 3.68 3.37 10.22 3.803 19.621l.743 46.758c.247 10.205 1.685 17.272 4.314 21.199 2.628 3.927 7.159 5.891 13.59 5.891 6.371.062 10.995-2.01 13.87-6.216 2.877-4.205 4.438-11.163 4.686-20.874l1.206-50.376c.494-8.906 1.917-15.044 4.267-18.415 2.35-3.371 6.154-5.056 11.411-5.056 5.381 0 9.17 2.597 11.365 7.793 2.196 5.195 3.139 13.792 2.83 25.79l-1.949 42.49Zm126.682 37.202c.185 7.36-.263 12.834-1.345 16.42-1.083 3.588-2.598 5.954-4.546 7.098-1.948 1.144-4.129 1.716-6.54 1.716-3.712 0-7.005-1.097-9.881-3.293-2.876-2.196-4.314-6.2-4.314-12.014l1.577-39.336c0-2.412-.371-4.113-1.113-5.103-.742-.99-1.732-1.484-2.969-1.484-2.103 0-3.835 1.608-5.195 4.824l-10.67 25.049c-2.102 4.948-3.927 8.566-5.473 10.854-1.546 2.289-2.953 3.742-4.221 4.36-1.268.62-2.551.929-3.85.929-2.289 0-4.206-.835-5.752-2.505-1.546-1.67-3.03-4.299-4.453-7.886l-13.267-34.883c-1.051-2.474-2.412-3.71-4.082-3.71-2.35 0-3.556 1.947-3.618 5.844l1.02 38.594c-.247 7.483-1.747 12.431-4.499 14.843-2.752 2.413-6.046 3.619-9.88 3.619-2.784 0-5.366-.727-7.747-2.18-2.381-1.454-4.206-4.253-5.474-8.397-1.268-4.143-1.685-10.174-1.252-18.09l2.783-78.394c.433-7.979 1.284-14.102 2.551-18.37 1.268-4.267 3.031-7.22 5.288-8.859 2.258-1.639 5.026-2.458 8.304-2.458 8.597 0 14.565 5.35 17.905 16.05l16.514 48.149c.742 2.474 1.639 4.205 2.69 5.195 1.052.99 2.32 1.484 3.804 1.484 1.299 0 2.443-.479 3.432-1.438.99-.958 1.887-2.675 2.69-5.148l17.257-45.367c2.474-7.174 5.102-11.967 7.885-14.38 2.784-2.412 6.062-3.618 9.834-3.618 3.155 0 6.015.696 8.582 2.088 2.567 1.391 4.639 4.082 6.216 8.07 1.577 3.99 2.396 9.881 2.458 17.674l-.65 84.053Zm12.106-74.033c.062-10.205 1.02-17.998 2.876-23.38 1.856-5.38 4.933-9.137 9.231-11.271 4.299-2.134 10.066-3.48 17.302-4.036l10.205-.65c15.896-1.174 27.894 1.624 35.996 8.397 8.103 6.772 12.154 15.88 12.154 27.322 0 9.895-3.711 17.534-11.133 22.915-2.66 1.979-3.99 3.834-3.99 5.566 0 1.546 1.485 3.278 4.454 5.195 4.948 2.845 8.69 6.464 11.225 10.855 2.536 4.391 3.804 10.02 3.804 16.885 0 12.617-4.422 22.374-13.266 29.27-8.845 6.896-20.658 10.344-35.44 10.344h-12.246c-7.917 0-14.179-.804-18.787-2.412-4.607-1.608-7.885-4.948-9.834-10.02-1.948-5.071-2.922-12.833-2.922-23.286l.371-61.694Zm43.418 72.178c4.762 0 8.69-1.531 11.782-4.593 3.093-3.061 4.639-6.788 4.639-11.179 0-5.443-1.7-9.617-5.103-12.524-3.401-2.907-8.256-4.113-14.565-3.619l-3.154.279c-3.464.247-5.969 1.02-7.515 2.32-1.546 1.298-2.32 3.494-2.32 6.586v12.246c0 3.958 1.083 6.695 3.248 8.21 2.164 1.516 4.391 2.274 6.68 2.274h6.308Zm-1.484-57.613c4.205.248 7.653-.804 10.344-3.154 2.69-2.35 4.036-5.968 4.036-10.855 0-5.133-1.408-8.72-4.222-10.761-2.814-2.041-6.757-2.629-11.828-1.763l-.835.093c-3.278.495-5.768 1.623-7.468 3.386-1.701 1.763-2.645 4.438-2.83 8.025l-.278 6.309c-.186 3.154.139 5.288.974 6.4.835 1.114 2.396 1.733 4.685 1.856l7.422.464Zm52.74-16.792c-.061-10.143.82-17.89 2.645-23.24 1.824-5.35 4.963-8.999 9.416-10.947 4.453-1.948 10.515-2.83 18.184-2.644l28.203 1.299c5.876.062 10.251 1.283 13.127 3.665 2.876 2.38 4.314 5.427 4.314 9.138 0 3.649-1.19 6.54-3.571 8.674-2.382 2.134-6.325 3.386-11.83 3.757l-20.78.743c-3.959.247-6.572.943-7.84 2.087-1.268 1.144-1.963 3.355-2.087 6.633l-.557 9.649c-.123 3.71.526 6.308 1.949 7.793 1.422 1.484 4.112 2.288 8.07 2.412l16.607.742c9.587.371 14.38 3.958 14.38 10.762 0 3.649-1.206 6.34-3.618 8.071-2.412 1.732-5.907 2.752-10.483 3.062l-14.751.463c-4.64.248-7.933 1.315-9.88 3.201-1.949 1.886-2.707 5.18-2.274 9.88l.928 9.185c.31 3.278.804 5.767 1.484 7.468.68 1.701 1.887 2.845 3.619 3.433 1.731.587 4.329.912 7.793.974l14.75.093c6.433.247 11.071 1.33 13.917 3.247 2.845 1.917 4.267 4.7 4.267 8.35 0 4.514-1.562 7.963-4.685 10.344-3.123 2.38-8.458 3.726-16.003 4.035l-21.71-.185c-6.68.247-12.106-.124-16.281-1.113-4.175-.99-7.36-2.938-9.556-5.845-2.195-2.907-3.726-7.051-4.592-12.432-.866-5.38-1.36-12.339-1.484-20.874l-1.67-61.88Z"/><path fill="#E3A230" d="M519.75 512.688c-5.443-6.37-8.164-14.503-8.164-24.399 0-7.793 1.932-14.504 5.798-20.132 3.865-5.628 9.308-9.958 16.328-12.988 7.02-3.03 15.23-4.546 24.631-4.546 4.639 0 8.706.263 12.2.789 3.495.525 6.479 1.16 8.953 1.901 4.824 1.423 8.473 3.634 10.947 6.634 2.474 3 3.71 6.386 3.71 10.158 0 4.02-1.205 7.453-3.617 10.298-2.412 2.845-5.938 4.268-10.576 4.268-3.031 0-6.572-.85-10.623-2.551-4.051-1.701-8.674-2.552-13.87-2.552-3.34 0-6.154.835-8.442 2.505-2.288 1.67-3.433 4.175-3.433 7.515 0 3.278 1.083 6.077 3.247 8.396 2.165 2.32 5.969 4.747 11.412 7.283l3.061 1.391c8.35 3.711 14.968 7.623 19.854 11.736 4.886 4.113 8.38 8.674 10.483 13.684 2.103 5.01 3.154 10.762 3.154 17.256 0 7.917-1.948 14.983-5.844 21.199-3.897 6.215-9.494 11.117-16.792 14.704-7.299 3.587-16.05 5.381-26.255 5.381-4.639 0-8.984-.34-13.035-1.02-4.051-.68-7.406-1.423-10.066-2.227-5.133-1.608-8.72-3.757-10.762-6.448-2.04-2.69-3.061-6.2-3.061-10.53 0-3.463 1.237-6.602 3.71-9.416 2.475-2.814 6.248-4.221 11.32-4.221 3.957 0 7.328.263 10.111.788 2.784.526 5.381 1.067 7.793 1.624 2.413.557 4.948.835 7.608.835 8.102 0 12.153-3.556 12.153-10.67 0-3.834-1.129-6.988-3.386-9.462-2.258-2.474-6.139-5.072-11.643-7.793l-3.247-1.67c-10.329-5.504-18.215-11.411-23.657-17.72Z"/><path fill="#E3A230" d="M650.142 568.445c-.186 14.906-4.855 22.359-14.009 22.359-5.257 0-8.906-1.686-10.947-5.056-2.041-3.371-2.969-8.644-2.783-15.818l2.133-79.322c.124-3.649-.479-6.2-1.809-7.653-1.33-1.454-3.664-2.18-7.004-2.18l-9.648.185c-4.392-.062-7.747-1.423-10.066-4.082-2.32-2.66-3.48-6.123-3.48-10.39 0-4.949 1.624-8.706 4.871-11.273 3.247-2.566 7.84-3.726 13.777-3.479l55.571 1.67c4.639.186 8.288 1.376 10.948 3.572s3.989 5.025 3.989 8.489c0 3.587-.99 6.68-2.969 9.277-1.979 2.598-5.288 4.113-9.927 4.546l-9.463.65c-2.845.247-4.886.989-6.123 2.226s-1.886 3.402-1.948 6.494l-1.113 79.785ZM71.262 738.67c-2.782 0-5.256-.758-7.421-2.273-2.165-1.515-3.82-4.36-4.963-8.535-1.145-4.175-1.593-10.283-1.346-18.323l.65-70.879c.31-9.958 1.391-17.503 3.247-22.637 1.855-5.133 4.979-8.69 9.37-10.669 4.391-1.979 10.545-3.154 18.462-3.525l4.639-.185c17.998-.866 31.419 2.659 40.263 10.576 8.845 7.916 13.267 18.616 13.267 32.1 0 5.875-.634 10.73-1.902 14.565-1.268 3.834-2.984 7.081-5.149 9.74-2.165 2.66-4.639 5.196-7.422 7.608-1.299 1.052-2.32 2.165-3.061 3.34-.742 1.175-1.114 2.567-1.114 4.175 0 1.36.186 2.83.557 4.407.371 1.577.99 3.293 1.856 5.149 1.175 2.35 2.752 5.04 4.731 8.071 1.98 3.03 4.855 7.113 8.628 12.246 3.216 4.144 4.824 8.38 4.824 12.71 0 3.587-1.206 6.68-3.618 9.277-2.412 2.598-5.721 3.897-9.927 3.897-5.319 0-9.772-2.165-13.36-6.494-2.72-3.155-5.35-6.835-7.885-11.04-2.536-4.206-4.731-8.164-6.587-11.875a691.092 691.092 0 0 0-4.082-8.072c-1.608-3.216-3.108-5.365-4.5-6.447-1.391-1.083-3.231-1.624-5.52-1.624h-.463c-2.66 0-4.623.758-5.891 2.273-1.268 1.515-1.995 4.19-2.18 8.025l-.65 19.853c-.742 9.71-5.226 14.566-13.452 14.566Zm28.39-110.215h-1.114c-4.886 0-8.056.99-9.509 2.969-1.453 1.979-2.18 5.504-2.18 10.576v2.227c0 7.607 1.113 12.493 3.34 14.658 2.226 2.164 5.133 3.247 8.72 3.247h.743c11.009 0 16.513-5.412 16.513-16.236 0-11.627-5.504-17.441-16.513-17.441ZM203.14 740.896c-8.04 0-15.37-1.19-21.988-3.571-6.618-2.382-12.292-6.309-17.024-11.783-4.731-5.473-8.38-12.864-10.947-22.172-2.567-9.309-3.85-20.92-3.85-34.837v-3.061c0-14.411 2.258-26.456 6.772-36.136 4.515-9.679 10.716-16.977 18.602-21.894 7.885-4.917 16.869-7.376 26.95-7.376 15.834 0 28.482 5.288 37.945 15.865 9.462 10.576 14.194 26.687 14.194 48.335v3.154c0 17.194-2.041 31.203-6.123 42.026-4.082 10.824-9.896 18.771-17.442 23.843-7.545 5.072-16.575 7.607-27.09 7.607Zm19.853-67.631c0-12.308-1.979-21.88-5.937-28.714-3.959-6.834-9-10.251-15.122-10.251-7.67 0-13.128 3.51-16.375 10.53s-4.87 16.065-4.87 27.136v1.577c0 10.39 1.855 18.71 5.566 24.956 3.71 6.247 9.339 9.37 16.885 9.37 7.545 0 12.74-2.551 15.586-7.654 2.845-5.102 4.267-13.53 4.267-25.28v-1.67Zm38.268-32.842c.062-10.205 1.02-17.998 2.876-23.38 1.856-5.38 4.933-9.137 9.231-11.271 4.299-2.134 10.066-3.48 17.303-4.036l10.205-.65c15.895-1.174 27.894 1.624 35.996 8.397 8.102 6.772 12.153 15.88 12.153 27.322 0 9.895-3.71 17.534-11.133 22.915-2.66 1.979-3.989 3.834-3.989 5.566 0 1.546 1.484 3.278 4.453 5.195 4.948 2.845 8.69 6.464 11.226 10.855 2.536 4.391 3.803 10.02 3.803 16.885 0 12.617-4.422 22.374-13.266 29.27-8.845 6.896-20.658 10.344-35.44 10.344h-12.246c-7.916 0-14.179-.804-18.786-2.412-4.608-1.608-7.886-4.948-9.834-10.02-1.949-5.071-2.923-12.833-2.923-23.286l.371-61.694ZM304.68 712.6c4.763 0 8.69-1.531 11.783-4.593 3.092-3.061 4.638-6.788 4.638-11.179 0-5.443-1.7-9.617-5.102-12.524-3.402-2.907-8.257-4.113-14.566-3.619l-3.154.279c-3.464.247-5.968 1.02-7.515 2.32-1.546 1.298-2.319 3.494-2.319 6.586v12.246c0 3.958 1.082 6.695 3.247 8.21 2.165 1.516 4.391 2.274 6.68 2.274h6.308Zm-1.484-57.613c4.206.248 7.654-.804 10.344-3.154 2.69-2.35 4.036-5.968 4.036-10.855 0-5.133-1.407-8.72-4.221-10.761-2.814-2.041-6.757-2.629-11.829-1.763l-.835.093c-3.278.495-5.767 1.623-7.468 3.386-1.701 1.763-2.644 4.438-2.83 8.025l-.278 6.309c-.186 3.154.14 5.288.974 6.4.835 1.114 2.397 1.733 4.685 1.856l7.422.464Zm53.39-14.565c.062-10.205 1.02-17.998 2.876-23.38 1.856-5.38 4.933-9.137 9.231-11.271 4.299-2.134 10.066-3.48 17.303-4.036l10.205-.65c15.895-1.174 27.894 1.624 35.996 8.397 8.102 6.772 12.153 15.88 12.153 27.322 0 9.895-3.71 17.534-11.133 22.915-2.66 1.979-3.989 3.834-3.989 5.566 0 1.546 1.484 3.278 4.453 5.195 4.948 2.845 8.69 6.464 11.226 10.855 2.536 4.391 3.803 10.02 3.803 16.885 0 12.617-4.422 22.374-13.266 29.27-8.845 6.896-20.658 10.344-35.44 10.344h-12.246c-7.916 0-14.179-.804-18.786-2.412-4.608-1.608-7.886-4.948-9.834-10.02-1.949-5.071-2.923-12.833-2.923-23.286l.371-61.694Zm43.418 72.178c4.763 0 8.69-1.531 11.783-4.593 3.092-3.061 4.638-6.788 4.638-11.179 0-5.443-1.7-9.617-5.102-12.524-3.402-2.907-8.257-4.113-14.566-3.619l-3.154.279c-3.464.247-5.968 1.02-7.515 2.32-1.546 1.298-2.319 3.494-2.319 6.586v12.246c0 3.958 1.082 6.695 3.247 8.21 2.165 1.516 4.391 2.274 6.68 2.274h6.308Zm-1.484-57.613c4.206.248 7.654-.804 10.344-3.154 2.69-2.35 4.036-5.968 4.036-10.855 0-5.133-1.407-8.72-4.221-10.761-2.814-2.041-6.757-2.629-11.829-1.763l-.835.093c-3.278.495-5.767 1.623-7.468 3.386-1.701 1.763-2.644 4.438-2.83 8.025l-.278 6.309c-.186 3.154.14 5.288.974 6.4.835 1.114 2.397 1.733 4.685 1.856l7.422.464Zm52.741-16.792c-.062-10.143.82-17.89 2.644-23.24 1.825-5.35 4.963-8.999 9.417-10.947 4.453-1.948 10.514-2.83 18.183-2.644l28.203 1.299c5.876.062 10.252 1.283 13.128 3.665 2.876 2.38 4.314 5.427 4.314 9.138 0 3.649-1.191 6.54-3.572 8.674-2.381 2.134-6.324 3.386-11.829 3.757l-20.781.743c-3.958.247-6.571.943-7.84 2.087-1.267 1.144-1.963 3.355-2.087 6.633l-.556 9.649c-.124 3.71.525 6.308 1.948 7.793 1.422 1.484 4.113 2.288 8.071 2.412l16.607.742c9.586.371 14.38 3.958 14.38 10.762 0 3.649-1.207 6.34-3.619 8.071-2.412 1.732-5.906 2.752-10.483 3.062l-14.751.463c-4.639.248-7.932 1.315-9.88 3.201-1.949 1.886-2.706 5.18-2.273 9.88l.927 9.185c.31 3.278.804 5.767 1.485 7.468.68 1.701 1.886 2.845 3.618 3.433 1.732.587 4.33.912 7.793.974l14.75.093c6.433.247 11.072 1.33 13.917 3.247 2.845 1.917 4.267 4.7 4.267 8.35 0 4.514-1.561 7.963-4.685 10.344-3.123 2.38-8.457 3.726-16.003 4.035l-21.71-.185c-6.679.247-12.106-.124-16.28-1.113-4.176-.99-7.36-2.938-9.556-5.845-2.196-2.907-3.727-7.051-4.593-12.432-.866-5.38-1.36-12.339-1.484-20.874l-1.67-61.88Zm95.138 100.474c-2.783 0-5.257-.758-7.421-2.273-2.165-1.515-3.82-4.36-4.964-8.535-1.144-4.175-1.592-10.283-1.345-18.323l.65-70.879c.309-9.958 1.39-17.503 3.246-22.637 1.856-5.133 4.98-8.69 9.37-10.669 4.392-1.979 10.546-3.154 18.462-3.525l4.64-.185c17.997-.866 31.418 2.659 40.263 10.576 8.844 7.916 13.266 18.616 13.266 32.1 0 5.875-.634 10.73-1.901 14.565-1.268 3.834-2.985 7.081-5.15 9.74-2.164 2.66-4.638 5.196-7.421 7.608-1.3 1.052-2.32 2.165-3.062 3.34-.742 1.175-1.113 2.567-1.113 4.175 0 1.36.185 2.83.557 4.407.37 1.577.99 3.293 1.855 5.149 1.175 2.35 2.752 5.04 4.731 8.071 1.98 3.03 4.856 7.113 8.628 12.246 3.217 4.144 4.825 8.38 4.825 12.71 0 3.587-1.206 6.68-3.619 9.277-2.412 2.598-5.72 3.897-9.926 3.897-5.32 0-9.772-2.165-13.36-6.494-2.721-3.155-5.35-6.835-7.885-11.04-2.536-4.206-4.732-8.164-6.587-11.875a691.096 691.096 0 0 0-4.082-8.072c-1.608-3.216-3.108-5.365-4.5-6.447-1.391-1.083-3.231-1.624-5.52-1.624h-.464c-2.66 0-4.623.758-5.89 2.273-1.269 1.515-1.996 4.19-2.181 8.025l-.65 19.853c-.742 9.71-5.226 14.566-13.452 14.566Zm28.39-110.215h-1.114c-4.886 0-8.056.99-9.51 2.969-1.453 1.979-2.18 5.504-2.18 10.576v2.227c0 7.607 1.114 12.493 3.34 14.658 2.227 2.164 5.134 3.247 8.72 3.247h.743c11.01 0 16.514-5.412 16.514-16.236 0-11.627-5.505-17.441-16.514-17.441ZM127.505 788.196c-.061-10.143.82-17.89 2.644-23.24 1.825-5.35 4.964-8.999 9.417-10.947 4.453-1.948 10.514-2.83 18.184-2.644l28.203 1.299c5.875.062 10.251 1.283 13.127 3.665 2.876 2.38 4.314 5.427 4.314 9.138 0 3.649-1.19 6.54-3.572 8.674-2.38 2.134-6.324 3.386-11.828 3.757l-20.782.743c-3.958.247-6.571.943-7.839 2.087-1.268 1.144-1.964 3.355-2.087 6.633l-.557 9.649c-.124 3.71.526 6.308 1.948 7.793 1.423 1.484 4.113 2.288 8.072 2.412l16.606.742c9.587.371 14.38 3.958 14.38 10.762 0 3.649-1.206 6.34-3.618 8.071-2.412 1.732-5.907 2.752-10.484 3.062l-14.75.463c-4.64.248-7.933 1.315-9.881 3.201-1.948 1.886-2.706 5.18-2.273 9.88l.928 9.185c.309 3.278.804 5.767 1.484 7.468.68 1.701 1.887 2.845 3.618 3.433 1.732.587 4.33.912 7.793.974l14.751.093c6.433.247 11.071 1.33 13.916 3.247 2.845 1.917 4.268 4.7 4.268 8.35 0 4.514-1.562 7.963-4.685 10.344-3.124 2.38-8.458 3.726-16.004 4.035l-21.709-.185c-6.68.247-12.107-.124-16.281-1.113-4.175-.99-7.36-2.938-9.556-5.845-2.196-2.907-3.726-7.051-4.592-12.432-.866-5.38-1.36-12.339-1.485-20.874l-1.67-61.88Zm154.05 69.302c-3.278 11.999-6.85 20.364-10.715 25.095-3.866 4.732-9.015 7.097-15.447 7.097-4.144 0-7.685-.958-10.623-2.876-2.938-1.917-5.582-5.241-7.932-9.973-2.35-4.731-4.793-11.272-7.329-19.621l-20.781-72.827c-3.526-11.814-4.067-20.318-1.624-25.513s6.417-7.793 11.922-7.793c4.082 0 7.39 1.546 9.926 4.639 2.536 3.092 4.732 8.442 6.587 16.05l13.36 52.88c.866 3.773 1.84 6.355 2.922 7.747 1.082 1.391 2.49 2.087 4.221 2.087 1.67 0 3.14-.742 4.407-2.226 1.268-1.485 2.366-4.113 3.293-7.886l12.154-52.51c1.608-6.741 3.804-11.875 6.587-15.4 2.783-3.526 6.401-5.288 10.854-5.288 6.556 0 10.84 2.365 12.85 7.097 2.01 4.731 1.561 12.261-1.346 22.59l-23.286 76.631Zm28.342-69.302c-.062-10.143.819-17.89 2.644-23.24 1.824-5.35 4.963-8.999 9.416-10.947 4.453-1.948 10.514-2.83 18.184-2.644l28.203 1.299c5.875.062 10.251 1.283 13.127 3.665 2.876 2.38 4.314 5.427 4.314 9.138 0 3.649-1.19 6.54-3.572 8.674-2.38 2.134-6.324 3.386-11.828 3.757l-20.781.743c-3.959.247-6.572.943-7.84 2.087-1.268 1.144-1.963 3.355-2.087 6.633l-.557 9.649c-.124 3.71.526 6.308 1.948 7.793 1.423 1.484 4.113 2.288 8.072 2.412l16.606.742c9.587.371 14.38 3.958 14.38 10.762 0 3.649-1.206 6.34-3.618 8.071-2.412 1.732-5.907 2.752-10.484 3.062l-14.75.463c-4.64.248-7.933 1.315-9.88 3.201-1.95 1.886-2.707 5.18-2.274 9.88l.928 9.185c.31 3.278.804 5.767 1.484 7.468.68 1.701 1.887 2.845 3.618 3.433 1.732.587 4.33.912 7.793.974l14.751.093c6.433.247 11.071 1.33 13.916 3.247 2.845 1.917 4.268 4.7 4.268 8.35 0 4.514-1.562 7.963-4.685 10.344-3.123 2.38-8.458 3.726-16.003 4.035l-21.71-.185c-6.68.247-12.106-.124-16.281-1.113-4.175-.99-7.36-2.938-9.556-5.845-2.196-2.907-3.726-7.051-4.592-12.432-.866-5.38-1.36-12.339-1.485-20.874l-1.67-61.88Zm95.138 100.474c-2.783 0-5.257-.758-7.422-2.273-2.165-1.515-3.82-4.36-4.963-8.535-1.144-4.175-1.593-10.283-1.346-18.323l.65-70.879c.31-9.958 1.392-17.503 3.247-22.637 1.855-5.133 4.979-8.69 9.37-10.669 4.391-1.979 10.545-3.154 18.462-3.525l4.639-.185c17.998-.866 31.419 2.659 40.263 10.576 8.845 7.916 13.267 18.616 13.267 32.1 0 5.875-.634 10.73-1.902 14.565-1.268 3.834-2.984 7.081-5.149 9.74-2.165 2.66-4.638 5.196-7.422 7.608-1.299 1.052-2.319 2.165-3.061 3.34-.742 1.175-1.114 2.567-1.114 4.175 0 1.36.186 2.83.557 4.407.371 1.577.99 3.293 1.856 5.149 1.175 2.35 2.752 5.04 4.731 8.071 1.98 3.03 4.855 7.113 8.628 12.246 3.216 4.144 4.824 8.38 4.824 12.71 0 3.587-1.206 6.68-3.618 9.277-2.412 2.598-5.721 3.897-9.927 3.897-5.319 0-9.772-2.165-13.36-6.494-2.72-3.155-5.349-6.835-7.885-11.04-2.536-4.206-4.731-8.164-6.587-11.875a691.096 691.096 0 0 0-4.082-8.072c-1.608-3.216-3.108-5.365-4.5-6.447-1.39-1.083-3.23-1.624-5.52-1.624h-.463c-2.66 0-4.623.758-5.891 2.273-1.268 1.515-1.995 4.19-2.18 8.025l-.65 19.853c-.742 9.71-5.226 14.566-13.452 14.566Zm28.389-110.215h-1.114c-4.886 0-8.055.99-9.509 2.969-1.453 1.979-2.18 5.504-2.18 10.576v2.227c0 7.607 1.113 12.493 3.34 14.658 2.226 2.164 5.133 3.247 8.72 3.247h.743c11.009 0 16.513-5.412 16.513-16.236 0-11.627-5.504-17.441-16.513-17.441Z"/><path fill="#E3A230" d="M543.592 760.086c6.618 7.174 9.927 16.575 9.927 28.203 0 7.917-1.592 14.303-4.778 19.158-3.185 4.855-7.623 9.664-13.313 14.426-4.205 3.464-6.973 6.68-8.303 9.648-1.33 2.97-2.056 6.556-2.18 10.762-.062 4.082-1.175 7.16-3.34 9.231-2.165 2.072-5.072 3.108-8.72 3.108-4.577 0-7.855-1.484-9.835-4.453-1.979-2.969-3-7.36-3.061-13.174 0-4.577.402-8.504 1.206-11.782.804-3.278 2.257-6.293 4.36-9.046 2.103-2.752 5.072-5.581 8.906-8.488 4.206-3.155 7.144-5.845 8.814-8.072 1.67-2.226 2.505-5.04 2.505-8.442 0-4.7-1.206-8.18-3.618-10.437-2.412-2.258-5.721-3.386-9.927-3.386-2.412 0-4.716.464-6.912 1.391-2.195.928-4.484 1.871-6.865 2.83-2.381.959-5.056 1.438-8.025 1.438-4.144 0-7.298-1.144-9.463-3.433-2.164-2.288-3.247-5.319-3.247-9.091 0-4.454 1.407-8.056 4.221-10.809a28.575 28.575 0 0 1 9.695-6.262c3.093-1.175 6.71-2.165 10.855-2.969 4.144-.804 8.659-1.206 13.545-1.206 11.813 0 20.997 3.619 27.553 10.855Zm-42.304 125.151c-2.474-3.216-3.711-6.927-3.711-11.133 0-4.762 1.515-8.488 4.546-11.179 3.03-2.69 6.71-3.88 11.04-3.572 4.576.248 8.148 1.531 10.715 3.85 2.567 2.32 3.85 5.86 3.85 10.623 0 4.639-1.469 8.504-4.407 11.597-2.937 3.092-6.788 4.638-11.55 4.638-4.515 0-8.01-1.608-10.483-4.824Z"/></g></svg>