<svg xmlns="http://www.w3.org/2000/svg" xmlns:xlink="http://www.w3.org/1999/xlink" viewBox="0 0 550 639"><defs><path id="c" d="m849.09 567.64 48.865 75.13-340.933 194.083 16.684 58.43s-377.598 327.643-454.794 321.382L0 1055.982l60.502-58.435-47.148-175.603L363 724.15l116.832-87.64 33.383 64.69 162.715-87.645 173.16-45.915ZM711.374 0s32.623 174.224 34.792 182.863c4.49 17.834 0 128.788 0 128.788s-94.576 82.082-151.592 133.56c-55.633 63.993-240.608 139.128-240.608 139.128s-72.327-100.177-79.277-111.298c-3.343-5.348-24.948-50.761-46.665-97.468l-2.714-5.843c-22.6-48.695-44.503-97.042-45.197-101.215-1.255-7.513-1.38-122.083-1.393-151.004v-2.599l-.001-.732v-2.872c16.693-5.574 294.856 12.52 329.617-6.953C614.866 33.384 711.373 0 711.373 0Z"/><path id="e" d="M25.272 1529.704 0 1478.346c55.164-27.17 140.283-56.516 238.84-90.503 230.463-79.464 546.087-188.295 739.573-358.85 139.31-122.799 245.32-224.063 309.917-319.129 65.2-95.956 84.406-179.334 62.275-270.357-29.236-120.233-34.896-202.903-18.358-268.067 19.92-78.487 73.325-134.565 163.261-171.44l21.704 52.971c-137.136 56.219-165.145 150.343-111.005 373.006 56.173 231.02-126.196 413.45-389.964 645.964-201.97 178.039-523.78 288.998-758.754 370.024-96.735 33.352-180.278 62.156-232.217 87.739"/><path id="a" d="M0 0h550v639H0z"/><filter id="g" width="132.7%" height="298.4%" x="-16.4%" y="-99.2%" filterUnits="objectBoundingBox"><feGaussianBlur in="SourceGraphic" stdDeviation="5"/></filter></defs><g fill="none" fill-rule="evenodd"><mask id="b" fill="#fff"><use xlink:href="#a"/></mask><path fill="#DAE0E6" d="m1371.204 28.69 30.605 761.716L988.732 938.58 818.255 549.9s66.031-19.826 133.355-40.095l8.246-2.483c67.322-20.272 133.295-40.195 133.18-40.383-.218-.396-127.501-219.8-127.501-219.8 8.802-11.965 382.342-204.538 405.669-218.448ZM579.84-188.36c79.532-66.855 322.007-60.402 322.007-60.402l-40.12 157.795L894.914 73.36 674.105 211.275l-231.962 53.56L416.896 12.92 569.337-36.1s-42.7-89.649 10.503-152.258ZM-615.26 579.779l83.454 259.476-60.799 25.239 38.112 228.58L-820 1224.482l43.803-523.817s58.878-91.002 160.936-120.888" mask="url(#b)"/><g mask="url(#b)"><g transform="translate(-440.32 -255.137)"><mask id="d" fill="#fff"><use xlink:href="#c"/></mask><use xlink:href="#c" fill="#6E991F"/><g stroke="#000" stroke-linecap="round" stroke-linejoin="round" stroke-width="3.148" mask="url(#d)" opacity=".25"><path d="M645.87 275.613a10.259 10.259 0 0 1 3.447 6.231h.234a8.76 8.76 0 0 1 6.2 2.574 8.798 8.798 0 0 1 0 12.428 8.76 8.76 0 0 1-6.2 2.574h-20.462a8.76 8.76 0 0 1-6.2-2.574 8.797 8.797 0 0 1 0-12.428 8.76 8.76 0 0 1 6.2-2.574 10.258 10.258 0 0 1 3.447-6.231 10.218 10.218 0 0 1 13.334 0Z"/><path d="m634.702 290.632 4.384 4.394v16.111M639.086 295.026l4.385-4.394M523.87 294.613a10.259 10.259 0 0 1 3.447 6.231h.234a8.76 8.76 0 0 1 6.2 2.574 8.798 8.798 0 0 1 0 12.428 8.76 8.76 0 0 1-6.2 2.574h-20.462a8.76 8.76 0 0 1-6.2-2.574 8.797 8.797 0 0 1 0-12.428 8.76 8.76 0 0 1 6.2-2.574 10.258 10.258 0 0 1 3.447-6.231 10.218 10.218 0 0 1 13.334 0Z"/><path d="m512.702 309.632 4.384 4.394v16.111M517.086 314.026l4.385-4.394M480.87 444.613a10.259 10.259 0 0 1 3.447 6.231h.234a8.76 8.76 0 0 1 6.2 2.574 8.798 8.798 0 0 1 0 12.428 8.76 8.76 0 0 1-6.2 2.574h-20.462a8.76 8.76 0 0 1-6.2-2.574 8.797 8.797 0 0 1 0-12.428 8.76 8.76 0 0 1 6.2-2.574 10.258 10.258 0 0 1 3.447-6.231 10.218 10.218 0 0 1 13.334 0Z"/><path d="m469.702 459.632 4.384 4.394v16.111M474.086 464.026l4.385-4.394M812.87 645.613a10.259 10.259 0 0 1 3.447 6.231h.234a8.76 8.76 0 0 1 6.2 2.574 8.798 8.798 0 0 1 0 12.428 8.76 8.76 0 0 1-6.2 2.574h-20.462a8.76 8.76 0 0 1-6.2-2.574 8.797 8.797 0 0 1 0-12.428 8.76 8.76 0 0 1 6.2-2.574 10.258 10.258 0 0 1 3.447-6.231 10.218 10.218 0 0 1 13.334 0Z"/><path d="m801.702 660.632 4.384 4.394v16.111M806.086 665.026l4.385-4.394M754.87 626.613a10.259 10.259 0 0 1 3.447 6.231h.234a8.76 8.76 0 0 1 6.2 2.574 8.798 8.798 0 0 1 0 12.428 8.76 8.76 0 0 1-6.2 2.574h-20.462a8.76 8.76 0 0 1-6.2-2.574 8.797 8.797 0 0 1 0-12.428 8.76 8.76 0 0 1 6.2-2.574 10.258 10.258 0 0 1 3.447-6.231 10.218 10.218 0 0 1 13.334 0Z"/><path d="m743.702 641.632 4.384 4.394v16.111M748.086 646.026l4.385-4.394M626.87 678.613a10.259 10.259 0 0 1 3.447 6.231h.234a8.76 8.76 0 0 1 6.2 2.574 8.798 8.798 0 0 1 0 12.428 8.76 8.76 0 0 1-6.2 2.574h-20.462a8.76 8.76 0 0 1-6.2-2.574 8.797 8.797 0 0 1 0-12.428 8.76 8.76 0 0 1 6.2-2.574 10.258 10.258 0 0 1 3.447-6.231 10.218 10.218 0 0 1 13.334 0Z"/><path d="m615.702 693.632 4.384 4.394v16.111M620.086 698.026l4.385-4.394M506.87 766.613a10.259 10.259 0 0 1 3.447 6.231h.234a8.76 8.76 0 0 1 6.2 2.574 8.798 8.798 0 0 1 0 12.428 8.76 8.76 0 0 1-6.2 2.574h-20.462a8.76 8.76 0 0 1-6.2-2.574 8.797 8.797 0 0 1 0-12.428 8.76 8.76 0 0 1 6.2-2.574 10.258 10.258 0 0 1 3.447-6.231 10.218 10.218 0 0 1 13.334 0Z"/><path d="m495.702 781.632 4.384 4.394v16.111M500.086 786.026l4.385-4.394M600.87 716.613a10.259 10.259 0 0 1 3.447 6.231h.234a8.76 8.76 0 0 1 6.2 2.574 8.798 8.798 0 0 1 0 12.428 8.76 8.76 0 0 1-6.2 2.574h-20.462a8.76 8.76 0 0 1-6.2-2.574 8.797 8.797 0 0 1 0-12.428 8.76 8.76 0 0 1 6.2-2.574 10.258 10.258 0 0 1 3.447-6.231 10.218 10.218 0 0 1 13.334 0Z"/><path d="m589.702 731.632 4.384 4.394v16.111M594.086 736.026l4.385-4.394M480.87 804.613a10.259 10.259 0 0 1 3.447 6.231h.234a8.76 8.76 0 0 1 6.2 2.574 8.798 8.798 0 0 1 0 12.428 8.76 8.76 0 0 1-6.2 2.574h-20.462a8.76 8.76 0 0 1-6.2-2.574 8.797 8.797 0 0 1 0-12.428 8.76 8.76 0 0 1 6.2-2.574 10.258 10.258 0 0 1 3.447-6.231 10.218 10.218 0 0 1 13.334 0Z"/><path d="m469.702 819.632 4.384 4.394v16.111M474.086 824.026l4.385-4.394M657.87 716.613a10.259 10.259 0 0 1 3.447 6.231h.234a8.76 8.76 0 0 1 6.2 2.574 8.798 8.798 0 0 1 0 12.428 8.76 8.76 0 0 1-6.2 2.574h-20.462a8.76 8.76 0 0 1-6.2-2.574 8.797 8.797 0 0 1 0-12.428 8.76 8.76 0 0 1 6.2-2.574 10.258 10.258 0 0 1 3.447-6.231 10.218 10.218 0 0 1 13.334 0Z"/><path d="m646.702 731.632 4.384 4.394v16.111M651.086 736.026l4.385-4.394M537.87 804.613a10.259 10.259 0 0 1 3.447 6.231h.234a8.76 8.76 0 0 1 6.2 2.574 8.798 8.798 0 0 1 0 12.428 8.76 8.76 0 0 1-6.2 2.574h-20.462a8.76 8.76 0 0 1-6.2-2.574 8.797 8.797 0 0 1 0-12.428 8.76 8.76 0 0 1 6.2-2.574 10.258 10.258 0 0 1 3.447-6.231 10.218 10.218 0 0 1 13.334 0Z"/><path d="m526.702 819.632 4.384 4.394v16.111M531.086 824.026l4.385-4.394M480.87 716.613a10.259 10.259 0 0 1 3.447 6.231h.234a8.76 8.76 0 0 1 6.2 2.574 8.798 8.798 0 0 1 0 12.428 8.76 8.76 0 0 1-6.2 2.574h-20.462a8.76 8.76 0 0 1-6.2-2.574 8.797 8.797 0 0 1 0-12.428 8.76 8.76 0 0 1 6.2-2.574 10.258 10.258 0 0 1 3.447-6.231 10.218 10.218 0 0 1 13.334 0Z"/><path d="m469.702 731.632 4.384 4.394v16.111M474.086 736.026l4.385-4.394"/></g></g></g><g mask="url(#b)"><g transform="translate(-799.946 -891)"><mask id="f" fill="#fff"><use xlink:href="#e"/></mask><use xlink:href="#e" fill="#29ABE2" stroke="#4D4D4D" stroke-width="3"/><g stroke="#000" stroke-linecap="round" stroke-linejoin="round" stroke-width="2.321" mask="url(#f)" opacity=".3"><path d="M1130.946 934.529c.72-.295 1.385-.808 1.943-1.5.56-.692.999-1.547 1.288-2.503.444 1.426 1.203 2.624 2.17 3.422.966.798 2.091 1.157 3.214 1.025 1.124.132 2.248-.227 3.215-1.025.967-.798 1.726-1.996 2.17-3.422.444 1.426 1.203 2.624 2.17 3.422.967.798 2.091 1.157 3.215 1.025 1.123.132 2.248-.227 3.214-1.025.967-.798 1.726-1.996 2.17-3.422.289.956.729 1.81 1.288 2.503.558.692 1.222 1.205 1.943 1.5m-28-12.527c.72-.295 1.385-.807 1.943-1.5.56-.691.999-1.546 1.288-2.502.444 1.426 1.203 2.623 2.17 3.422.966.798 2.091 1.157 3.214 1.025 1.124.132 2.248-.227 3.215-1.025.967-.799 1.726-1.996 2.17-3.422.444 1.426 1.203 2.623 2.17 3.422.967.798 2.091 1.157 3.215 1.025 1.123.132 2.248-.227 3.214-1.025.967-.799 1.726-1.996 2.17-3.422.289.956.729 1.81 1.288 2.503.558.692 1.222 1.204 1.943 1.5M996.946 1051.529c.72-.295 1.385-.808 1.943-1.5.56-.692.999-1.547 1.288-2.503.444 1.426 1.203 2.624 2.17 3.422.966.798 2.091 1.157 3.214 1.025 1.124.132 2.248-.227 3.215-1.025.967-.798 1.726-1.996 2.17-3.422.444 1.426 1.203 2.624 2.17 3.422.967.798 2.091 1.157 3.215 1.025 1.123.132 2.248-.227 3.214-1.025.967-.798 1.726-1.996 2.17-3.422.289.956.729 1.81 1.288 2.503.558.692 1.222 1.205 1.943 1.5m-28-12.527c.72-.295 1.385-.807 1.943-1.5.56-.691.999-1.546 1.288-2.502.444 1.426 1.203 2.623 2.17 3.422.966.798 2.091 1.157 3.214 1.025 1.124.132 2.248-.227 3.215-1.025.967-.799 1.726-1.996 2.17-3.422.444 1.426 1.203 2.623 2.17 3.422.967.798 2.091 1.157 3.215 1.025 1.123.132 2.248-.227 3.214-1.025.967-.799 1.726-1.996 2.17-3.422.289.956.729 1.81 1.288 2.503.558.692 1.222 1.204 1.943 1.5M812.946 1177.579a4.905 4.905 0 0 0 1.943-1.341 6.388 6.388 0 0 0 1.288-2.238c.444 1.275 1.203 2.346 2.17 3.06.966.713 2.091 1.034 3.214.916 1.124.118 2.248-.203 3.215-.917.967-.713 1.726-1.784 2.17-3.059.444 1.275 1.203 2.346 2.17 3.06.967.713 2.091 1.034 3.215.916 1.123.118 2.248-.203 3.214-.917.967-.713 1.726-1.784 2.17-3.059a6.391 6.391 0 0 0 1.288 2.238 4.905 4.905 0 0 0 1.943 1.34m-28-13a4.905 4.905 0 0 0 1.943-1.34 6.385 6.385 0 0 0 1.288-2.238c.444 1.275 1.203 2.346 2.17 3.06.966.713 2.091 1.034 3.214.916 1.124.118 2.248-.203 3.215-.917.967-.713 1.726-1.784 2.17-3.059.444 1.275 1.203 2.346 2.17 3.06.967.713 2.091 1.034 3.215.916 1.123.118 2.248-.203 3.214-.917.967-.713 1.726-1.784 2.17-3.059a6.388 6.388 0 0 0 1.288 2.238 4.905 4.905 0 0 0 1.943 1.34M841.946 1164.579a4.905 4.905 0 0 0 1.943-1.341 6.388 6.388 0 0 0 1.288-2.238c.444 1.275 1.203 2.346 2.17 3.06.966.713 2.091 1.034 3.214.916 1.124.118 2.248-.203 3.215-.917.967-.713 1.726-1.784 2.17-3.059.444 1.275 1.203 2.346 2.17 3.06.967.713 2.091 1.034 3.215.916 1.123.118 2.248-.203 3.214-.917.967-.713 1.726-1.784 2.17-3.059a6.391 6.391 0 0 0 1.288 2.238 4.905 4.905 0 0 0 1.943 1.34m-28-13a4.905 4.905 0 0 0 1.943-1.34 6.385 6.385 0 0 0 1.288-2.238c.444 1.275 1.203 2.346 2.17 3.06.966.713 2.091 1.034 3.214.916 1.124.118 2.248-.203 3.215-.917.967-.713 1.726-1.784 2.17-3.059.444 1.275 1.203 2.346 2.17 3.06.967.713 2.091 1.034 3.215.916 1.123.118 2.248-.203 3.214-.917.967-.713 1.726-1.784 2.17-3.059a6.388 6.388 0 0 0 1.288 2.238 4.905 4.905 0 0 0 1.943 1.34"/></g></g></g><path fill="#DAE0E6" d="M-208.66-710.99c.264 6.332 5.513 156.66-77.54 286.613-74.803 117.038-169.457 115.81-200.582 115.393-1.405-.015-3.007-.062-4.235-.036-24.992 14.275-215.12 151.467-335.282 239.057l-15.742 95.803c5.986.818 12.008 1.635 18.039 2.447l5.524.741c81.04 10.855 162.292 20.593 178.635 20.4 5.357-2.992 20.66-12.317 36.596-22.056l1.65-1.008 1.653-1.01 2.203-1.347c72.935-44.588 107.379-64.956 118.678-67.777 17.443-4.356 178.17 8.977 246.47 14.91 8.59.744 14.942 8.31 14.198 16.902-.744 8.587-8.313 14.94-16.897 14.202a9930.484 9930.484 0 0 0-37.774-3.206l-6.326-.522c-90.644-7.46-179.388-13.518-192.336-11.92-11.107 3.757-75.198 42.937-109.735 64.055-31.973 19.546-43.527 26.54-47.611 28.289-1.43.62-3.236 1.39-10.717 1.39-17.24 0-64.657-4.098-207.313-23.67l-17.502 106.464c-1.26 7.655-7.876 13.082-15.383 13.082-.843 0-1.69-.067-2.55-.208-8.505-1.4-14.264-9.435-12.87-17.938l33.163-201.774c-28.232 20.658-49.238 36.145-58.1 42.853a15.54 15.54 0 0 1-9.405 3.164c-4.724 0-9.39-2.134-12.46-6.193-5.202-6.875-3.844-16.669 3.034-21.873 5.275-3.991 38.824-28.656 85.236-62.544l.012-.009a15.615 15.615 0 0 1 10.327-7.538l-.01.008c124.362-90.737 326.879-237.321 342.852-243.092 3.875-1.405 7.61-1.358 14.389-1.27 26.854.37 108.42 1.421 173.874-100.988 77.612-121.44 72.706-267.052 72.649-268.504-.344-8.613 6.346-15.883 14.956-16.243 8.605-.228 15.872 6.34 16.231 14.952Zm1396.9 174.689c3.772 7.754.536 17.1-7.22 20.863l-97.344 47.309a15.578 15.578 0 0 1-6.82 1.571h-47.7c-11.99 31.256-23.894 63.224-25.818 69.978-.11 1.104-.292 2.103-.463 3.081-2.7 15.284-2.523 50.297.546 104.064.015.297.026.593.026.89-.01 187.515-83.579 251.154-138.873 293.27l-3.564 2.716c-23.086 17.62-52.759 37.28-80.891 54.22 6.413-1.09 12.93-2.214 19.455-3.35l5.274-.921c10.543-1.846 21.043-3.71 31.1-5.495 127.72-22.668 152.207-25.327 163.678-17.672 17.126 11.417 56.75 74.016 68.487 92.927 4.547 7.327 2.294 16.95-5.03 21.498a15.509 15.509 0 0 1-8.215 2.352 15.6 15.6 0 0 1-13.276-7.385c-20.913-33.7-47.902-73.053-57.729-82.129-12.38-.874-55.217 5.938-98.285 13.379l-3.492.604c-13.966 2.423-27.87 4.892-40.68 7.166-80.062 14.215-130.246 22.728-148.613 20.883a15.534 15.534 0 0 1-3.339-.648 15.497 15.497 0 0 1-5.772-3.263l-.049-.044a10.836 10.836 0 0 1-.175-.16l-.06-.057a15.523 15.523 0 0 1-4.357-7.184l-.033-.118a15.41 15.41 0 0 1-.403-1.99 15.522 15.522 0 0 1 .51-6.565 15.46 15.46 0 0 1 2.313-4.686 15.543 15.543 0 0 1 9.173-6.067c17.916-4.09 97.932-49.256 151.473-90.118l3.595-2.737c53.359-40.643 126.43-96.289 126.565-267.984-4.792-84.289-1.379-103.575-.094-110.84l.11-.608c.176-3.534 2.455-12.64 31.629-88.244a15.602 15.602 0 0 1 14.555-9.986h54.832l94.118-45.738c7.736-3.768 17.09-.541 20.856 7.218ZM-644.045 874.628c-5.784 0-11.346-3.232-14.046-8.784a15.56 15.56 0 0 1-1.576-7.093c-2.986-17.918-41.498-162.146-65.595-250.754-2.257-8.321 2.648-16.897 10.967-19.161 8.318-2.269 16.891 2.644 19.16 10.97.171.635 17.448 64.201 34.157 127.123 9.827 36.99 17.537 66.533 22.916 87.812 3.22 12.713 5.64 22.616 7.195 29.438 2.84 12.443 5.296 23.2-6.363 28.872a15.503 15.503 0 0 1-6.815 1.577m886.65 39.265c-5.987 0-11.7-3.466-14.28-9.294-3.49-7.884.073-17.106 7.95-20.598l340.1-150.696c7.881-3.503 17.1.072 20.59 7.951 3.49 7.884-.067 17.106-7.949 20.598l-340.1 150.696a15.554 15.554 0 0 1-6.31 1.343" mask="url(#b)"/><path fill="#EC9C00" stroke="#7A5100" stroke-width="4" d="M170.87-860.238c11.466.734 20.169 10.627 19.44 22.102-8.003 125.459-33.442 777.886-33.423 939.648l.001-.022c3.154-1.207 6.211-2.284 9.237-3.35l1.229-.435c20.098-7.102 41.543-15.38 97.348-71.214 33.944-33.956 62.326-64.306 84.334-88.936a20.777 20.777 0 0 1 5.54-6.23c25.15-28.43 40.977-48.318 46.07-55.989 2.268-58.748 28.394-595.61 171.814-720.095 8.688-7.53 21.823-6.599 29.356 2.082 7.528 8.68 6.596 21.83-2.086 29.366-120.53 104.615-155.708 600.752-157.643 694.1v.207l-.001.413c-.038 6.677-1.316 13.974-43.91 63.317a1408.31 1408.31 0 0 1-2.714 3.133c44.724 48.053 45.803 53.98 46.852 59.734 2.284 12.516 3.939 21.555-114.506 144.41-38.063 39.487-93.066 94.823-117.127 116.523 2.834 6.794 5.74 13.754 8.712 20.856l-.003.01c59.235-24.932 217.466-70.764 340.477-27.934 57.359 19.974 98.833 56.357 123.568 108.302a1573.485 1573.485 0 0 0 29.537-15.584C627.393 154.063 559.445-5.144 539.73-53.14a19.777 19.777 0 0 1-.681-1.93c-14.16-47.206 4.885-124.027 29.975-149.12 25.288-25.302 124.406-55.11 160.494-58.452 15.036-1.394 77.599-3.126 158.33-4.873 56.163-113.389 150.828-233.05 212.748-305.6l3.678-4.324c8.506-11.21 19.914-76.374 27.468-119.499 11.897-67.933 19.8-110.428 31.988-127.497 6.675-9.362 19.675-11.517 29.029-4.84 9.348 6.682 11.517 19.676 4.843 29.033-5.152 7.4-11.842 38.954-17.781 70.865l-.549 2.961-.504 2.74c-2.175 11.865-4.227 23.582-6.038 33.925-13.115 74.921-21.907 121.731-36.68 139.2l-3.804 4.466c-86.674 101.558-154.156 197.13-196.894 277.581 180.483-3.635 415.862-7.079 439.913-7.432l1.206-.017h.307c11.356 0 20.637 9.122 20.805 20.519.16 11.49-9.017 20.946-20.509 21.112-4.008.06-272.654 3.966-462.434 7.877-14.317 31.825-23.968 60.603-28.516 85.63-14.409 79.265 15.438 198.534 85.312 346.583 173.85-96.527 335.71-178.357 393.403-196.893 10.966-3.523 22.666 2.503 26.178 13.447 3.516 10.944-2.503 22.669-13.448 26.187-54.93 17.652-216.33 99.549-387.858 194.8 31.293 62.498 69.236 129.66 113.531 200.713 122.59-42.68 246.082-93.956 272.805-112.46 9.448-6.542 22.411-4.18 28.95 5.271 6.54 9.45 4.183 22.419-5.27 28.96-39.609 27.43-223.528 100.432-364.435 144.655-39.898 12.522-106.657 36.452-182.584 64.581l.018.056c332.525 777.526 349.975 821.79 349.975 831.24 0 11.496-9.317 20.817-20.809 20.817-10.04 0-18.42-7.11-20.377-16.575-8.48-26.265-148.789-355.41-290.583-687.078l-10.375-24.269a823508.573 823508.573 0 0 0-46.899-109.66 19800.7 19800.7 0 0 0-46.788 17.56c45.794 134.155 94.703 278.476 95.537 280.944 3.689 10.892-2.143 22.705-13.026 26.394a20.665 20.665 0 0 1-6.68 1.109c-8.677 0-16.772-5.47-19.706-14.14-.402-1.185-11.932-35.208-28.884-85.123l-352.3 45.416c-.67.083-1.342.124-2.002.124a15.604 15.604 0 0 1-14.135-9.002l-45.848-98.227c-59.727 22.733-176.97 96.063-229.023 128.621-18.948 11.853-25.19 15.732-28.484 17.403l-.271.136c-.618.306-1.132.533-1.617.724l-.207.08-.204.076c-.169.063-.337.122-.508.18l-.207.071-.21.07c-2.726.916-5.254 1.348-7.61 1.348-14.39 0-22.583-16.09-33.347-37.219-6.172-12.12-13.57-27.445-21.123-43.25l-1.133-2.373-1.136-2.379-1.136-2.382-1.136-2.383-2.834-5.95-3.416-7.17-.854-1.792-2.131-4.468-.85-1.78-.848-1.775c-7.447-15.575-14.617-30.402-20.37-41.613-45.828 30.19-89.593 62.413-130.183 97.093-191.426 163.566-321.024 217.745-458.232 275.092-56.476 23.61-114.881 48.023-180.086 81.037a20.664 20.664 0 0 1-9.38 2.253c-7.595 0-14.92-4.179-18.582-11.417-5.191-10.257-1.087-22.783 9.167-27.972 64.313-32.57 121.676-56.738 177.05-79.891l3.86-1.614 1.927-.806c134.108-56.057 260.782-109.008 447.25-268.338a1140.96 1140.96 0 0 1 6.247-5.298c-39.215-51.042-54.137-74.367-60.003-85.768-11.19 1.369-27 3.269-43.053 5.097l-3.143.356c-1.477.168-2.954.334-4.427.498l-1.472.164c-22.546 2.51-43.945 4.652-51.95 4.733-12.777 1.806-68.353 32.337-112.02 70.06-30.756 26.578-145.844 68.402-351.852 127.868-5.54 1.597-9.822 2.836-12.616 3.658a20.912 20.912 0 0 1-5.878.848c-8.995 0-17.287-5.88-19.95-14.945-3.247-11.033 3.063-22.601 14.092-25.848 2.83-.833 7.18-2.087 12.813-3.716 258.748-74.688 321.7-106.848 336.194-119.369 38.756-33.488 110.302-80.188 138.78-80.188 7.614 0 39.954-3.498 71.893-7.239l2.488-.292c8.7-1.023 17.323-2.058 25.357-3.038.476-40.887 3.806-107.467 7.497-120.415 3.558-12.437 17.906-27.924 69.012-78.574l.915-.907 1.833-1.817 1.834-1.818 3.669-3.64c1.527-1.517 3.052-3.032 4.571-4.544l1.82-1.813 2.716-2.709 1.8-1.799c4.404-4.406 8.714-8.747 12.836-12.95-8.245-5.281-17.624-12.012-28.637-20.016-2.59-1.878-5.197-3.772-7.803-5.651-9.655 3.997-22.385 9.341-36.462 15.253-19.911 8.361-42.746 17.95-65.699 27.432l-4.174 1.722c-13.913 5.736-27.808 11.403-41.06 16.703-16.747 6.7-95.06 32.834-174.49 59.088l-6.81 2.25c-31.777 10.498-63.457 20.926-91.17 30.05-32.718 10.771-59.686 19.65-74.289 24.515-49.842 16.622-89.197 44.541-123.849 87.854-4.11 5.136-10.16 7.81-16.262 7.81-4.557 0-9.15-1.487-12.99-4.563-8.974-7.182-10.425-20.28-3.246-29.257 39.344-49.183 86.18-82.327 143.186-101.342 14.634-4.876 41.66-13.77 74.438-24.563 92.501-30.453 247.32-81.416 270.037-90.497 14.042-5.618 28.842-11.663 43.63-17.77l4.224-1.746 3.964-1.642c20.464-8.482 40.63-16.952 58.448-24.434 21.033-8.831 37.649-15.804 47.56-19.786a20.787 20.787 0 0 1 19.684 2.27c5.806 4.064 11.737 8.367 17.589 12.624 3.955 2.873 8.515 6.186 13.138 9.46l1.262.891c8.209 5.785 16.462 11.313 21.74 13.926 13.046-8.956 45.822-34.192 80.76-61.446l2.306-1.8c2.694-2.103 5.399-4.215 8.106-6.332l3.627-2.836c20.55-16.077 41.04-32.194 57.974-45.513 27.608-21.717 48.133-37.847 61.53-48.204-17.874-43.316-31.768-77.95-38.588-96.857l-.584-1.63-1.647.319c-2.767.532-5.618 1.072-8.5 1.605l-1.182.219-1.184.217c-11.317 2.072-20.487 3.693-28.02 4.653-1.97.62-4.068.955-6.244.955-34.236 0-167.6 11.454-186.614 15.221-3.694 3.175-10.43 14.426-14.54 21.29-5.619 9.382-11.43 19.083-18.234 26.857-5.863 6.714-13.615 15.581-82.508 15.581-10.456 0-22.317-.208-35.796-.65-12.291-.407-27.184-1.122-41.94-2.038l-2.601-.164c-27.728-1.769-54.4-4.232-61.75-6.687-4.157-1.384-16.367-5.454-72.54-66.512-8.5 3.07-19.81 7.333-29.263 11.537-16.387 7.291-45.64 2.52-119.812-14.56-17.277-3.976-33.601-7.739-41.78-8.904-15.268-2.186-35.577-10.73-59.097-20.629-4.623-1.946-9.462-3.982-14.369-6.004l-1.551-.639-.777-.318-1.557-.635a757.881 757.881 0 0 0-4.676-1.886l-1.558-.62c-17.645-6.994-34.866-12.89-44.91-12.89-11.49 0-20.808-9.32-20.808-20.815 0-11.496 9.317-20.816 20.809-20.816 21.08 0 49.235 11.05 77.238 22.764l2.768 1.16c1.846.775 3.689 1.55 5.529 2.325l2.702 1.137 2.704 1.136c17.346 7.278 34.417 14.227 43.437 15.514 9.916 1.42 26.282 5.189 45.234 9.55 9.286 2.138 22.038 5.072 35.256 7.895l2.27.483 2.276.48c23.155 4.855 46.684 9.06 54.706 7.815 1.934-.85 3.918-1.698 5.924-2.534l1.206-.5 1.21-.498c17.363-7.107 35.51-13.18 36.405-13.48a20.805 20.805 0 0 1 22 5.766c24.482 27.014 55.513 58.711 64.94 65.269 23.846 4.438 155.915 11.636 181.208 3.7 3.845-4.965 7.98-11.876 11.996-18.584 10.743-17.938 20.893-34.882 37.836-39.722 13.175-3.77 98.862-11.423 155.51-15.043l.001.01C-12.306 38.301-123.073-202.428-128.955-229.9c-4.87-22.705-69.73-132.259-82.351-150.436-18.926-11.142-126.404-45.977-147.65-45.977-10.035 0-54.613-1.973-116.311-4.705-25.725-1.138-54.798-2.425-84.298-3.69l-4.428-.19-4.432-.189-6.968-.296-2.438-.103-4.874-.205c-78.757-3.313-155.134-6.148-173.721-5.25-11.487.556-21.23-8.322-21.777-19.802-.546-11.485 8.313-21.237 19.795-21.784 22.824-1.088 114.118 2.488 207.243 6.507l7.166.31c23.89 1.036 47.79 2.093 70.573 3.102 56.533 2.503 105.356 4.663 114.47 4.663 23.873 0 163.116 40.143 178.977 59.986 8.22 10.278 84.328 134.877 91.715 169.327 6.44 27.867 134.114 303.605 164.058 360.984 9.413-1.252 24.344-3.888 39.93-6.926-2.02-156.809 26.665-856.128 33.052-956.217.728-11.475 10.633-20.228 22.094-19.448Zm132.444 1453.09c-83.82 40.32-167.925 84.107-246.954 133.391 8.127 15.559 18.777 37.883 29.939 61.313l.917 1.926c10.186 21.388 23.056 48.417 31.567 64.675 3.127-1.952 6.513-4.065 9.952-6.22 55.235-34.544 163.59-102.317 229.044-129.307-11.14-25.446-30.895-71.015-54.465-125.778Zm424.602 28.98-1.393.53-8.735 3.31-5.82 2.208c-92.117 34.955-182.532 69.825-244.81 93.844a59088.108 59088.108 0 0 1-42.71 16.456l-1.807.694a8571.383 8571.383 0 0 1-13.334 5.116l39.824 85.298 334.732-43.149a142251.597 142251.597 0 0 0-44.431-130.549l-3.293-9.656-1.647-4.828-1.646-4.825-4.93-14.449ZM176.768 295.125l-.508.402c-11.168 8.707-25.025 19.59-39.329 30.837L134.853 328l-4.169 3.278-3.131 2.464-3.13 2.462C8.847 427.111-24.24 452.21-37.2 459.922c-11.47 12.514-26.444 27.559-41.708 42.721l-1.966 1.952-1.968 1.952-5.898 5.846c-5.126 5.08-10.674 10.58-16.251 16.15l-2.183 2.183-1.455 1.457-1.451 1.457-1.448 1.455c-16.38 16.478-31.67 32.397-35.716 38.798-3.179 16.965-6.753 113.171-5.598 130.547 4.04 8.348 22.102 33.898 42.029 60.56l1.288 1.722c1.075 1.436 2.155 2.874 3.238 4.311l1.626 2.156c.27.36.542.718.814 1.077l1.629 2.152c1.587 2.092 3.174 4.177 4.756 6.247C18.041 692.05 153.027 618.863 286.855 554.557a39542.188 39542.188 0 0 1-46.284-108.26l-4.1-9.636c-20.894-49.126-41.572-98.074-59.703-141.536Zm484.316 132.366-.235.14c-53.276 26.033-111.623 52.363-171.84 79.535-48.243 21.772-98.037 44.243-148.222 67.853 24.256 56.405 44.65 103.427 56.02 129.184 13.313-5.106 32.988-12.693 55.378-21.326 64.886-25.023 160.23-61.793 256.38-98.225l5.887-2.23c-21.618-63.23-41.344-120.62-53.368-154.93Zm68.323-34.885-.522.287a1684.135 1684.135 0 0 1-30.27 15.869c11.8 33.553 32.254 93.04 54.79 158.944 14.751-5.549 29.409-11.05 43.868-16.455l-18.553-43.366c-16.835-39.353-33.335-77.921-49.313-115.279ZM236.725 326.87l-1.355.581c28.278 67.192 60.328 142.456 88.985 209.298 49.974-23.498 99.518-45.857 147.544-67.53 61.286-27.66 120.616-54.431 174.304-80.768-19.928-42.024-53.498-71.474-100.018-87.677C439.932 263.777 290.28 304 236.725 326.87Zm716.55-63.212-4.364 2.454c-58.787 33.066-117.866 67.217-173.426 100.438a999.978 999.978 0 0 1-9.548 5.635c16.513 38.613 33.596 78.546 51.04 119.323l17.45 40.793 1.888 4.416c77.394-28.685 145.677-53.172 186.517-65.99a2505.885 2505.885 0 0 0 39.966-12.927c-37.266-60.19-75.51-126.5-109.522-194.142Zm-84.51-489.12h-.08c-69.804 1.557-122.294 3.063-135.328 4.27-38.257 3.55-122.356 33.888-134.899 46.44-12.693 12.688-29.97 70.977-19.815 106.801 20.01 48.63 86.726 204.962 170.79 401.547 1.58-.926 3.146-1.857 4.702-2.787 58.356-34.891 119.916-70.46 180.803-104.66-64.43-135.677-108.163-273.157-89.76-374.406 4.449-24.487 12.643-50.47 23.588-77.205ZM367.61-20.896l-.428.47c-22.5 24.644-47.533 50.826-73.045 76.35-63.634 63.655-90.487 73.127-114.178 81.48-6.605 2.33-12.522 4.417-19.071 7.795l-.008-.018c5.35 14.905 17.187 44.432 32.917 82.61l-.006.008c48.356-45.68 176.632-177.837 203.827-214.893-6.308-7.629-16.9-19.525-28.225-31.862l-1.216-1.323-.567-.617Z" mask="url(#b)"/><path fill="#C2C2C2" d="M188.627 370.567c0 4.168-20.507 7.556-45.821 7.556-25.294 0-45.806-3.388-45.806-7.556 0-4.184 20.512-7.567 45.806-7.567 25.314 0 45.82 3.383 45.82 7.567" filter="url(#g)" mask="url(#b)"/><g mask="url(#b)"><g transform="translate(71 150)"><circle cx="66.5" cy="70.5" r="64.5" fill="#FFF"/><path fill="#BA0D37" d="M84 71.897c0 6.602-5.382 11.982-12 11.982S60 78.5 60 71.897c0-6.603 5.382-11.983 12-11.983s12 5.38 12 11.983m-48.984-19.85A41.617 41.617 0 0 0 30 71.897c0 2.258.228 4.457.576 6.62 16.14 2.99 28.5 16.758 29.334 33.528A41.769 41.769 0 0 0 72 113.836c4.206 0 8.262-.635 12.09-1.791.834-16.77 13.194-30.538 29.334-33.528.348-2.163.576-4.362.576-6.62a41.617 41.617 0 0 0-5.016-19.85c-24.234-5.404-49.74-5.398-73.968 0"/><path fill="#BA0D37" d="M72 119.828c-26.466 0-48-21.503-48-47.931 0-26.428 21.534-47.931 48-47.931s48 21.503 48 47.93c0 26.429-21.534 47.932-48 47.932M72 0C32.298 0 0 32.252 0 71.897s32.298 71.896 72 71.896 72-32.251 72-71.896S111.702 0 72 0"/><path fill="#BA0D37" d="m78.438 195.642 31.543-62.994a7.2 7.2 0 0 0-6.438-10.424H40.457a7.2 7.2 0 0 0-6.438 10.424l31.543 62.994a7.2 7.2 0 0 0 12.876 0Z"/></g></g></g></svg>