<svg xmlns="http://www.w3.org/2000/svg" viewBox="0 0 297 88"><path fill="#FFF" d="M.854 11.568c.016-2.793.279-4.925.787-6.398.507-1.473 1.35-2.501 2.526-3.085C5.343 1.501 6.922 1.133 8.902.98l2.793-.177c4.35-.322 7.634.444 9.852 2.298 2.217 1.853 3.326 4.346 3.326 7.477 0 2.708-1.016 4.799-3.047 6.272-.728.541-1.092 1.05-1.092 1.523 0 .423.407.897 1.22 1.422 1.353.779 2.377 1.769 3.071 2.97.694 1.202 1.041 2.743 1.041 4.622 0 3.453-1.21 6.123-3.63 8.01-2.421 1.888-5.654 2.832-9.7 2.832H9.385c-2.167 0-3.88-.22-5.142-.66-1.26-.44-2.158-1.355-2.691-2.743-.533-1.388-.8-3.512-.8-6.373l.102-16.885Zm11.882 19.754c1.304 0 2.379-.419 3.225-1.257.846-.837 1.27-1.857 1.27-3.06 0-1.489-.466-2.631-1.397-3.427-.931-.795-2.26-1.126-3.986-.99l-.864.076c-.948.068-1.633.28-2.056.635-.423.355-.635.956-.635 1.803v3.351c0 1.083.296 1.832.889 2.247.592.415 1.201.622 1.828.622h1.726Zm-.406-15.767c1.151.067 2.095-.22 2.831-.864.736-.643 1.105-1.633 1.105-2.97 0-1.405-.385-2.387-1.156-2.946-.77-.558-1.849-.719-3.237-.482l-.228.025c-.898.136-1.579.445-2.044.927-.466.483-.724 1.215-.775 2.196l-.076 1.727c-.05.863.038 1.447.267 1.752.228.305.656.474 1.282.508l2.031.127ZM27.463 7.15c-.068-2.336.233-3.965.901-4.887.669-.923 1.621-1.384 2.857-1.384 1.202 0 2.141.406 2.818 1.219.677.812 1.058 2.386 1.143 4.722l.533 24.985c.084 2.742-.246 4.583-.99 5.522-.745.94-1.744 1.41-2.996 1.41-1.22 0-2.167-.445-2.844-1.334-.677-.888-1.058-2.535-1.143-4.938l-.28-25.315ZM40.03 29.926c-1.235-3.013-1.769-6.805-1.6-11.375l.026-.559c.186-4.3.897-7.731 2.133-10.296 1.236-2.564 2.95-4.413 5.141-5.548 2.193-1.134 4.812-1.7 7.859-1.7 2.522 0 4.646.456 6.373 1.37 1.726.914 3.047 2.12 3.96 3.619a9.492 9.492 0 0 1 1.423 4.836c.034 1.524-.318 2.692-1.054 3.504-.736.813-1.604 1.22-2.603 1.22-.829 0-1.557-.208-2.183-.623-.626-.415-1.134-1.088-1.524-2.019-.829-2.352-2.386-3.529-4.671-3.529-1.118 0-2.159.381-3.123 1.143-.965.761-1.744 1.95-2.336 3.567-.593 1.617-.898 3.728-.914 6.335v.457c-.034 3.69.397 6.373 1.294 8.049.898 1.676 2.556 2.514 4.977 2.514 1.845 0 3.165-.432 3.96-1.295.796-.864 1.245-1.964 1.347-3.301l.025-.229c.068-.88-.068-1.49-.406-1.828-.339-.338-1.033-.524-2.082-.558l-1.041-.026c-1.185-.034-2.057-.309-2.616-.825-.558-.516-.837-1.197-.837-2.044 0-.965.321-1.735.964-2.31.644-.576 1.744-.872 3.301-.89l4.342-.126c2.116-.034 3.601.427 4.456 1.384.855.956 1.24 2.62 1.155 4.989l-.076 1.523c-.152 4.435-1.354 7.804-3.605 10.106-2.252 2.302-5.248 3.445-8.989 3.428-2.911-.017-5.505-.766-7.782-2.247-2.276-1.482-4.041-3.72-5.294-6.716Zm28.92 0c-1.236-3.013-1.769-6.805-1.6-11.375l.026-.559c.186-4.3.897-7.731 2.133-10.296 1.235-2.564 2.95-4.413 5.141-5.548 2.192-1.134 4.812-1.7 7.859-1.7 2.522 0 4.646.456 6.373 1.37 1.726.914 3.047 2.12 3.96 3.619a9.492 9.492 0 0 1 1.423 4.836c.033 1.524-.318 2.692-1.054 3.504-.736.813-1.604 1.22-2.603 1.22-.83 0-1.557-.208-2.183-.623-.627-.415-1.134-1.088-1.524-2.019-.83-2.352-2.386-3.529-4.672-3.529-1.117 0-2.158.381-3.123 1.143-.964.761-1.743 1.95-2.336 3.567-.592 1.617-.897 3.728-.914 6.335v.457c-.033 3.69.398 6.373 1.295 8.049.897 1.676 2.556 2.514 4.977 2.514 1.845 0 3.165-.432 3.96-1.295.796-.864 1.245-1.964 1.347-3.301l.025-.229c.068-.88-.068-1.49-.406-1.828-.339-.338-1.033-.524-2.082-.558l-1.041-.026c-1.185-.034-2.057-.309-2.616-.825-.558-.516-.837-1.197-.837-2.044 0-.965.321-1.735.964-2.31.644-.576 1.744-.872 3.301-.89l4.342-.126c2.116-.034 3.601.427 4.456 1.384.855.956 1.24 2.62 1.155 4.989l-.076 1.523c-.152 4.435-1.354 7.804-3.605 10.106-2.252 2.302-5.248 3.445-8.989 3.428-2.911-.017-5.505-.766-7.782-2.247-2.277-1.482-4.041-3.72-5.294-6.716Zm28.362-18.967c-.017-2.776.224-4.896.723-6.36.5-1.465 1.359-2.463 2.577-2.996 1.219-.534 2.878-.775 4.977-.724l7.719.355c1.608.017 2.805.352 3.592 1.003.787.652 1.181 1.486 1.181 2.501 0 .999-.326 1.79-.978 2.374-.651.584-1.73.927-3.237 1.029l-5.687.203c-1.084.067-1.799.258-2.146.571-.347.313-.537.918-.571 1.815l-.152 2.641c-.034 1.016.143 1.727.533 2.133.39.406 1.125.626 2.209.66l4.545.203c2.623.102 3.935 1.084 3.935 2.945 0 1-.33 1.736-.99 2.21-.66.473-1.617.753-2.87.837l-4.036.127c-1.27.068-2.171.36-2.704.876-.534.517-.74 1.418-.622 2.704l.253 2.514c.085.897.22 1.579.407 2.044.186.466.516.779.99.94.474.16 1.185.25 2.133.266l4.037.025c1.76.068 3.03.364 3.808.89.78.524 1.168 1.286 1.168 2.284 0 1.236-.427 2.18-1.282 2.831-.855.652-2.315 1.02-4.38 1.105l-5.941-.05c-1.828.067-3.314-.035-4.456-.306-1.143-.27-2.014-.804-2.615-1.6-.601-.795-1.02-1.929-1.257-3.402-.237-1.472-.373-3.377-.406-5.712l-.457-16.936Zm24.45 6.703c-1.489-1.743-2.234-3.97-2.234-6.678 0-2.132.53-3.969 1.587-5.51 1.058-1.54 2.548-2.725 4.469-3.554 1.921-.83 4.168-1.244 6.741-1.244 1.27 0 2.383.072 3.339.216.956.143 1.773.317 2.45.52 1.32.39 2.32.995 2.996 1.816.677.82 1.016 1.747 1.016 2.78 0 1.1-.33 2.04-.99 2.818-.66.779-1.625 1.168-2.895 1.168-.83 0-1.798-.233-2.907-.698-1.109-.466-2.374-.698-3.796-.698-.914 0-1.684.228-2.31.685-.627.457-.94 1.143-.94 2.057 0 .897.296 1.663.889 2.298.592.634 1.633 1.299 3.123 1.993l.838.38c2.285 1.016 4.096 2.087 5.433 3.213 1.338 1.125 2.294 2.374 2.87 3.745.575 1.37.863 2.945.863 4.722 0 2.167-.534 4.101-1.6 5.802-1.066 1.701-2.598 3.043-4.596 4.025-1.997.981-4.392 1.472-7.185 1.472-1.27 0-2.459-.093-3.568-.28-1.108-.185-2.027-.388-2.754-.608-1.405-.44-2.387-1.029-2.946-1.765-.558-.736-.838-1.697-.838-2.882 0-.948.339-1.807 1.016-2.577s1.71-1.155 3.098-1.155c1.083 0 2.005.072 2.767.215a54.5 54.5 0 0 1 2.133.445c.66.152 1.354.228 2.082.228 2.218 0 3.326-.973 3.326-2.92 0-1.05-.309-1.912-.927-2.59-.617-.677-1.68-1.387-3.186-2.132l-.889-.457c-2.827-1.507-4.985-3.123-6.474-4.85Zm36.512 15.26c-.05 4.08-1.328 6.119-3.834 6.119-1.438 0-2.437-.461-2.996-1.384-.558-.922-.812-2.365-.761-4.329l.584-21.709c.033-.999-.132-1.697-.496-2.095-.363-.397-1.002-.596-1.917-.596l-2.64.05c-1.202-.016-2.12-.389-2.755-1.117-.635-.728-.952-1.675-.952-2.843 0-1.355.444-2.383 1.333-3.085.888-.703 2.145-1.02 3.77-.953l15.21.458c1.269.05 2.268.376 2.995.977.728.601 1.092 1.375 1.092 2.323 0 .982-.27 1.828-.812 2.54-.542.71-1.448 1.125-2.717 1.243l-2.59.178c-.779.068-1.337.271-1.676.61-.338.338-.516.93-.533 1.777l-.305 21.836Zm51.239-1.092c.05 2.014-.072 3.512-.368 4.494-.297.982-.711 1.63-1.245 1.943-.533.313-1.13.47-1.79.47-1.015 0-1.917-.301-2.704-.902-.787-.601-1.18-1.697-1.18-3.288l.431-10.766c0-.66-.101-1.125-.304-1.396a.965.965 0 0 0-.813-.406c-.576 0-1.05.44-1.422 1.32l-2.92 6.855c-.575 1.354-1.075 2.345-1.498 2.971-.423.626-.808 1.024-1.155 1.193-.347.17-.698.254-1.054.254a2.059 2.059 0 0 1-1.574-.685c-.423-.457-.83-1.177-1.219-2.158l-3.63-9.547c-.288-.677-.66-1.016-1.118-1.016-.643 0-.973.533-.99 1.6l.28 10.562c-.068 2.048-.479 3.402-1.232 4.063-.753.66-1.655.99-2.704.99a3.995 3.995 0 0 1-2.12-.597c-.652-.398-1.151-1.164-1.498-2.298-.347-1.134-.462-2.784-.343-4.95l.761-21.456c.119-2.184.352-3.86.699-5.027.347-1.168.83-1.977 1.447-2.425.618-.449 1.375-.673 2.272-.673 2.353 0 3.987 1.464 4.9 4.393l4.52 13.177c.203.677.449 1.151.737 1.422.287.271.634.407 1.04.407.356 0 .67-.132.94-.394.271-.262.516-.732.736-1.41l4.723-12.415c.677-1.964 1.397-3.276 2.158-3.936.762-.66 1.66-.99 2.692-.99.863 0 1.646.19 2.348.571.703.381 1.27 1.117 1.702 2.21.431 1.091.655 2.703.672 4.836l-.177 23.004Zm30.113-.508c.914 2.827 1.02 4.816.317 5.967-.702 1.151-1.832 1.727-3.39 1.727-2.03 0-3.41-1.27-4.138-3.809l-.66-2.666c-.271-1.016-.677-1.693-1.219-2.031-.542-.339-1.447-.474-2.717-.406l-2.183.126c-1.642.068-2.802.31-3.479.724-.677.415-1.202 1.282-1.574 2.603l-.152.609c-.525 1.811-1.168 3.068-1.93 3.77-.762.703-1.82 1.046-3.174 1.029-1.743-.034-2.894-.796-3.453-2.285-.559-1.49-.245-3.978.94-7.465l6.855-21.15c.982-2.895 1.985-4.854 3.009-5.878 1.024-1.025 2.213-1.537 3.567-1.537 1.066 0 1.96.204 2.679.61.72.406 1.367 1.147 1.942 2.221.576 1.075 1.177 2.603 1.803 4.583l6.957 23.258Zm-13.61-16.783c-.287 0-.537.106-.748.317-.212.212-.386.614-.521 1.207l-1.143 4.722c-.304 1.287-.283 2.125.064 2.514.347.39.91.584 1.688.584h1.194c1.05 0 1.722-.343 2.018-1.029.297-.685.216-1.781-.24-3.288l-1.118-3.656c-.152-.525-.317-.884-.495-1.079a.901.901 0 0 0-.698-.292ZM241.76 7.15c-.068-2.336.233-3.965.901-4.887.669-.923 1.62-1.384 2.857-1.384 1.201 0 2.14.406 2.818 1.219.677.812 1.058 2.386 1.143 4.722l.533 24.985c.084 2.742-.246 4.583-.99 5.522-.745.94-1.744 1.41-2.997 1.41-1.218 0-2.166-.445-2.843-1.334-.677-.888-1.058-2.535-1.143-4.938l-.28-25.315Zm11.832 1.295c0-2.048.186-3.614.558-4.697.373-1.083.872-1.832 1.498-2.247a3.609 3.609 0 0 1 2.032-.622c1.337 0 2.365.487 3.085 1.46.719.973 1.028 2.848.926 5.624l.026 18.89c-.034 1.812.207 3.018.723 3.619.517.6 1.604.85 3.263.749l3.631-.229c2.014-.135 3.42.114 4.215.75.795.634 1.193 1.645 1.193 3.033 0 1.27-.444 2.205-1.333 2.806-.888.601-2.365.901-4.43.901a36.613 36.613 0 0 0-3.047.077c-1.016.067-1.98.135-2.895.203-.542.05-1.058.093-1.549.127-.49.034-.94.059-1.345.076-1.473.034-2.666-.216-3.58-.75-.915-.532-1.583-1.468-2.006-2.805-.424-1.337-.644-3.182-.66-5.535l-.305-21.43ZM4.612 86.457c-.762 0-1.44-.207-2.032-.622-.592-.415-1.045-1.193-1.358-2.336-.313-1.143-.436-2.814-.368-5.015l.177-19.398c.085-2.725.381-4.79.889-6.195.508-1.405 1.363-2.379 2.564-2.92 1.202-.542 2.886-.864 5.053-.965l1.27-.05c4.925-.238 8.599.727 11.02 2.894 2.42 2.166 3.63 5.095 3.63 8.785 0 1.608-.173 2.937-.52 3.986-.347 1.05-.817 1.938-1.41 2.666a16.77 16.77 0 0 1-2.03 2.082 3.809 3.809 0 0 0-.839.914c-.203.322-.304.703-.304 1.143 0 .372.05.774.152 1.206.101.431.27.901.508 1.409.321.643.753 1.38 1.295 2.209.541.83 1.328 1.947 2.36 3.352.881 1.134 1.321 2.293 1.321 3.478 0 .982-.33 1.828-.99 2.54-.66.71-1.566 1.066-2.717 1.066-1.456 0-2.674-.593-3.656-1.778a22.035 22.035 0 0 1-2.158-3.021 47.33 47.33 0 0 1-1.803-3.25 189.14 189.14 0 0 0-1.117-2.21c-.44-.88-.85-1.468-1.232-1.764-.38-.296-.884-.444-1.51-.444h-.127c-.728 0-1.266.207-1.613.622-.347.415-.546 1.147-.596 2.196l-.178 5.434c-.203 2.657-1.43 3.986-3.682 3.986Zm7.769-30.164h-.305c-1.337 0-2.205.27-2.602.812-.398.542-.597 1.507-.597 2.895v.61c0 2.081.305 3.419.914 4.011.61.593 1.405.889 2.387.889h.203c3.013 0 4.52-1.481 4.52-4.444 0-3.182-1.507-4.773-4.52-4.773Zm29.58 30.773c-2.2 0-4.206-.325-6.018-.977-1.81-.652-3.364-1.727-4.659-3.225s-2.293-3.52-2.996-6.068c-.702-2.548-1.054-5.726-1.054-9.534v-.838c0-3.944.618-7.24 1.854-9.89 1.236-2.649 2.933-4.646 5.09-5.992 2.159-1.346 4.618-2.019 7.377-2.019 4.333 0 7.795 1.448 10.384 4.342 2.59 2.895 3.885 7.304 3.885 13.229v.863c0 4.706-.558 8.54-1.676 11.502-1.117 2.962-2.708 5.137-4.773 6.525-2.065 1.388-4.536 2.082-7.414 2.082Zm5.434-18.51c0-3.368-.542-5.987-1.625-7.858-1.084-1.87-2.463-2.805-4.14-2.805-2.098 0-3.592.96-4.48 2.881-.89 1.922-1.334 4.397-1.334 7.427v.432c0 2.844.508 5.12 1.524 6.83 1.015 1.71 2.556 2.564 4.62 2.564 2.066 0 3.488-.698 4.267-2.094.778-1.397 1.168-3.703 1.168-6.92v-.456Zm11.298-8.988c.017-2.793.28-4.925.787-6.398.508-1.473 1.35-2.501 2.527-3.085 1.176-.584 2.755-.952 4.735-1.105l2.793-.177c4.35-.322 7.634.444 9.852 2.298 2.217 1.853 3.326 4.346 3.326 7.477 0 2.708-1.016 4.799-3.047 6.272-.728.541-1.092 1.05-1.092 1.523 0 .423.406.897 1.219 1.422 1.354.779 2.378 1.769 3.072 2.97.694 1.202 1.041 2.743 1.041 4.622 0 3.453-1.21 6.123-3.63 8.01-2.421 1.888-5.654 2.832-9.7 2.832h-3.351c-2.167 0-3.88-.22-5.142-.66-1.261-.44-2.158-1.355-2.691-2.743-.534-1.388-.8-3.512-.8-6.373l.101-16.885Zm11.883 19.754c1.304 0 2.378-.419 3.225-1.257.846-.837 1.27-1.857 1.27-3.06 0-1.489-.466-2.631-1.397-3.427-.931-.795-2.26-1.126-3.987-.99l-.863.076c-.948.068-1.633.28-2.056.635-.424.355-.635.956-.635 1.803v3.351c0 1.083.296 1.832.888 2.247.593.415 1.202.622 1.829.622h1.726Zm-.406-15.767c1.151.067 2.095-.22 2.831-.864.736-.643 1.104-1.633 1.104-2.97 0-1.405-.385-2.387-1.155-2.946-.77-.558-1.85-.719-3.237-.482l-.229.025c-.897.136-1.578.445-2.044.927-.465.483-.723 1.215-.774 2.196l-.076 1.727c-.05.863.038 1.447.266 1.752.229.305.656.474 1.283.508l2.03.127Zm15.437-3.987c.017-2.793.28-4.925.788-6.398.507-1.473 1.35-2.501 2.526-3.085 1.176-.584 2.755-.952 4.735-1.105l2.793-.177c4.35-.322 7.634.444 9.852 2.298 2.217 1.853 3.326 4.346 3.326 7.477 0 2.708-1.016 4.799-3.047 6.272-.728.541-1.092 1.05-1.092 1.523 0 .423.407.897 1.219 1.422 1.354.779 2.378 1.769 3.072 2.97.694 1.202 1.041 2.743 1.041 4.622 0 3.453-1.21 6.123-3.63 8.01-2.421 1.888-5.654 2.832-9.7 2.832H94.14c-2.167 0-3.88-.22-5.142-.66-1.261-.44-2.158-1.355-2.691-2.743-.534-1.388-.8-3.512-.8-6.373l.101-16.885ZM97.49 79.322c1.304 0 2.378-.419 3.225-1.257.846-.837 1.27-1.857 1.27-3.06 0-1.489-.466-2.631-1.397-3.427-.931-.795-2.26-1.126-3.986-.99l-.864.076c-.948.068-1.633.28-2.056.635-.424.355-.635.956-.635 1.803v3.351c0 1.083.296 1.832.889 2.247.592.415 1.201.622 1.828.622h1.726Zm-.406-15.767c1.151.067 2.095-.22 2.831-.864.736-.643 1.105-1.633 1.105-2.97 0-1.405-.386-2.387-1.156-2.946-.77-.558-1.849-.719-3.237-.482l-.229.025c-.897.136-1.578.445-2.044.927-.465.483-.723 1.215-.774 2.196l-.076 1.727c-.05.863.038 1.447.267 1.752.228.305.655.474 1.282.508l2.031.127Zm15.26-4.596c-.017-2.776.224-4.896.723-6.36.5-1.465 1.359-2.463 2.578-2.996 1.218-.534 2.877-.775 4.976-.724l7.719.355c1.608.017 2.806.352 3.593 1.003.787.652 1.18 1.486 1.18 2.501 0 .999-.326 1.79-.977 2.374-.652.584-1.731.927-3.238 1.029l-5.687.203c-1.083.067-1.799.258-2.146.571-.347.313-.537.918-.57 1.815l-.153 2.641c-.034 1.016.144 1.727.533 2.133.39.406 1.126.626 2.209.66l4.545.203c2.624.102 3.935 1.084 3.935 2.945 0 1-.33 1.736-.99 2.21-.66.473-1.616.753-2.869.837l-4.037.127c-1.27.068-2.17.36-2.704.876-.533.517-.74 1.418-.622 2.704l.254 2.514c.084.897.22 1.579.406 2.044.186.466.516.779.99.94.474.16 1.185.25 2.133.266l4.037.025c1.76.068 3.03.364 3.809.89.778.524 1.168 1.286 1.168 2.284 0 1.236-.428 2.18-1.283 2.831-.854.652-2.314 1.02-4.38 1.105l-5.94-.05c-1.829.067-3.314-.035-4.457-.306-1.142-.27-2.014-.804-2.615-1.6-.601-.795-1.02-1.929-1.257-3.402-.237-1.472-.372-3.377-.406-5.712l-.457-16.936Zm26.863 27.498c-.762 0-1.439-.207-2.031-.622-.593-.415-1.045-1.193-1.359-2.336-.313-1.143-.435-2.814-.368-5.015l.178-19.398c.085-2.725.38-4.79.889-6.195.507-1.405 1.362-2.379 2.564-2.92 1.202-.542 2.886-.864 5.053-.965l1.27-.05c4.925-.238 8.598.727 11.019 2.894 2.42 2.166 3.63 5.095 3.63 8.785 0 1.608-.173 2.937-.52 3.986-.347 1.05-.817 1.938-1.409 2.666a16.77 16.77 0 0 1-2.031 2.082 3.809 3.809 0 0 0-.838.914c-.203.322-.305.703-.305 1.143 0 .372.051.774.153 1.206.101.431.27.901.507 1.409.322.643.754 1.38 1.295 2.209.542.83 1.33 1.947 2.362 3.352.88 1.134 1.32 2.293 1.32 3.478 0 .982-.33 1.828-.99 2.54-.66.71-1.566 1.066-2.717 1.066-1.456 0-2.675-.593-3.656-1.778a22.035 22.035 0 0 1-2.159-3.021 47.33 47.33 0 0 1-1.802-3.25 189.15 189.15 0 0 0-1.117-2.21c-.44-.88-.851-1.468-1.232-1.764-.38-.296-.884-.444-1.51-.444h-.128c-.727 0-1.265.207-1.612.622-.347.415-.546 1.147-.597 2.196l-.177 5.434c-.203 2.657-1.43 3.986-3.682 3.986Zm7.77-30.164h-.305c-1.337 0-2.205.27-2.603.812-.397.542-.596 1.507-.596 2.895v.61c0 2.081.304 3.419.914 4.011.61.593 1.405.889 2.386.889h.204c3.013 0 4.52-1.481 4.52-4.444 0-3.182-1.507-4.773-4.52-4.773Zm14.98-.355c-.931-2.116-1.18-3.877-.749-5.282.432-1.405 1.562-2.107 3.39-2.107 1.032 0 1.857.321 2.475.965.618.643 1.232 1.836 1.841 3.58l3.453 8.125c.339.846.622 1.422.85 1.726.23.305.479.457.75.457.304 0 .58-.152.825-.457.245-.304.571-.905.978-1.802l4.341-8.963c.542-1.202 1.113-2.053 1.714-2.552.601-.5 1.359-.75 2.273-.75 1.608 0 2.636.615 3.085 1.842.448 1.227.3 2.678-.445 4.354l-5.636 11.324a80.62 80.62 0 0 1-.838 1.727l-.914 1.828a21.35 21.35 0 0 0-.813 1.79c-.186.483-.322.97-.406 1.46-.085.491-.152 1.134-.203 1.93l-.28 6.754c-.27 3.267-1.498 4.9-3.681 4.9-1.134 0-2.015-.385-2.64-1.155-.627-.77-.983-2.019-1.067-3.745l-.127-5.79c-.034-1.218-.127-2.153-.28-2.805a9.912 9.912 0 0 0-.71-1.993c-.271-.61-.563-1.249-.876-1.917a205.48 205.48 0 0 1-.978-2.12l-5.332-11.325Zm35.775 3.021c-.017-2.776.225-4.896.724-6.36.5-1.465 1.358-2.463 2.577-2.996 1.219-.534 2.878-.775 4.977-.724l7.719.355c1.608.017 2.805.352 3.592 1.003.787.652 1.181 1.486 1.181 2.501 0 .999-.326 1.79-.978 2.374-.651.584-1.73.927-3.237 1.029l-5.687.203c-1.084.067-1.799.258-2.146.571-.347.313-.537.918-.571 1.815l-.153 2.641c-.033 1.016.144 1.727.534 2.133.389.406 1.125.626 2.209.66l4.545.203c2.623.102 3.935 1.084 3.935 2.945 0 1-.33 1.736-.99 2.21-.66.473-1.617.753-2.87.837l-4.036.127c-1.27.068-2.171.36-2.704.876-.534.517-.741 1.418-.623 2.704l.254 2.514c.085.897.22 1.579.407 2.044.186.466.516.779.99.94.474.16 1.185.25 2.133.266l4.037.025c1.76.068 3.03.364 3.808.89.779.524 1.168 1.286 1.168 2.284 0 1.236-.427 2.18-1.282 2.831-.855.652-2.315 1.02-4.38 1.105l-5.941-.05c-1.828.067-3.314-.035-4.456-.306-1.143-.27-2.015-.804-2.615-1.6-.601-.795-1.02-1.929-1.257-3.402-.237-1.472-.373-3.377-.407-5.712l-.457-16.936Zm42.2 18.967c-.897 3.284-1.875 5.573-2.933 6.868-1.058 1.295-2.467 1.942-4.228 1.942-1.134 0-2.103-.262-2.907-.787-.804-.525-1.527-1.434-2.17-2.73-.644-1.294-1.312-3.084-2.006-5.37L220 57.919c-.965-3.233-1.113-5.56-.444-6.982.668-1.422 1.756-2.133 3.262-2.133 1.118 0 2.023.423 2.717 1.27.694.846 1.295 2.31 1.803 4.392l3.656 14.472c.237 1.033.504 1.74.8 2.12.296.381.681.572 1.155.572.457 0 .86-.203 1.206-.61.347-.406.648-1.125.902-2.158l3.326-14.37c.44-1.846 1.04-3.25 1.803-4.216.761-.964 1.751-1.447 2.97-1.447 1.795 0 2.967.648 3.517 1.943.55 1.294.427 3.355-.368 6.182l-6.373 20.973Zm8.582-18.967c-.017-2.776.224-4.896.723-6.36.5-1.465 1.359-2.463 2.577-2.996 1.22-.534 2.878-.775 4.977-.724l7.719.355c1.608.017 2.805.352 3.593 1.003.787.652 1.18 1.486 1.18 2.501 0 .999-.326 1.79-.977 2.374-.652.584-1.731.927-3.238 1.029l-5.687.203c-1.083.067-1.799.258-2.146.571-.347.313-.537.918-.57 1.815l-.153 2.641c-.034 1.016.144 1.727.533 2.133.39.406 1.126.626 2.209.66l4.545.203c2.624.102 3.935 1.084 3.935 2.945 0 1-.33 1.736-.99 2.21-.66.473-1.616.753-2.869.837l-4.037.127c-1.27.068-2.171.36-2.704.876-.533.517-.74 1.418-.622 2.704l.254 2.514c.084.897.22 1.579.406 2.044.186.466.516.779.99.94.474.16 1.185.25 2.133.266l4.037.025c1.76.068 3.03.364 3.809.89.778.524 1.168 1.286 1.168 2.284 0 1.236-.428 2.18-1.283 2.831-.854.652-2.314 1.02-4.38 1.105l-5.94-.05c-1.829.067-3.314-.035-4.457-.306-1.143-.27-2.014-.804-2.615-1.6-.601-.795-1.02-1.929-1.257-3.402-.237-1.472-.372-3.377-.406-5.712l-.457-16.936Zm26.863 27.498c-.762 0-1.439-.207-2.031-.622-.593-.415-1.046-1.193-1.359-2.336-.313-1.143-.436-2.814-.368-5.015l.178-19.398c.085-2.725.38-4.79.889-6.195.507-1.405 1.362-2.379 2.564-2.92 1.202-.542 2.886-.864 5.053-.965l1.27-.05c4.925-.238 8.598.727 11.019 2.894 2.42 2.166 3.63 5.095 3.63 8.785 0 1.608-.173 2.937-.52 3.986-.347 1.05-.817 1.938-1.409 2.666a16.77 16.77 0 0 1-2.031 2.082 3.809 3.809 0 0 0-.838.914c-.203.322-.305.703-.305 1.143 0 .372.05.774.152 1.206.102.431.271.901.508 1.409.322.643.754 1.38 1.295 2.209.542.83 1.329 1.947 2.362 3.352.88 1.134 1.32 2.293 1.32 3.478 0 .982-.33 1.828-.99 2.54-.66.71-1.566 1.066-2.717 1.066-1.456 0-2.675-.593-3.656-1.778a22.035 22.035 0 0 1-2.159-3.021 47.33 47.33 0 0 1-1.802-3.25 189.15 189.15 0 0 0-1.118-2.21c-.44-.88-.85-1.468-1.231-1.764-.38-.296-.884-.444-1.51-.444h-.128c-.728 0-1.265.207-1.612.622-.347.415-.546 1.147-.597 2.196l-.177 5.434c-.204 2.657-1.43 3.986-3.682 3.986Zm7.77-30.164h-.305c-1.337 0-2.205.27-2.603.812-.398.542-.596 1.507-.596 2.895v.61c0 2.081.304 3.419.914 4.011.609.593 1.405.889 2.386.889h.203c3.014 0 4.52-1.481 4.52-4.444 0-3.182-1.506-4.773-4.52-4.773Z"/></svg>