<svg xmlns="http://www.w3.org/2000/svg" viewBox="0 0 422 142">
<path fill="#243A4A" d="M289.848 94.295h.235c2.163 0 3.917-1.742 3.917-3.892v-3.892c0-2.15-1.754-3.892-3.917-3.892h-5.287a5.887 5.887 0 0 0-4.7 2.374.354.354 0 0 1-.392 0 .469.469 0 0 1-.274-.272l-1.88-9.341c-1.1-5.453-5.919-9.377-11.515-9.38h-38.07c-5.633.014-10.464 3.998-11.515 9.497l-1.88 9.34a.469.469 0 0 1-.274.273.354.354 0 0 1-.392 0 5.887 5.887 0 0 0-4.7-2.374h-5.287c-2.163 0-3.917 1.742-3.917 3.892v3.892c0 2.15 1.754 3.892 3.917 3.892h.235c.4.005.756.252.9.623.198.323.198.728 0 1.05A17.15 17.15 0 0 0 200 107.918v15.569a5.796 5.796 0 0 0 3.368 5.254c.33.18.54.521.549.895v5.527c0 3.224 2.63 5.838 5.875 5.838h7.833c3.245 0 5.875-2.614 5.875-5.838v-4.826c0-.544.432-.991.98-1.012h45.04c.548.02.98.468.98 1.012v4.826c0 3.224 2.63 5.838 5.875 5.838h7.833c3.245 0 5.875-2.614 5.875-5.838v-5.527a1.05 1.05 0 0 1 .549-.895 5.796 5.796 0 0 0 3.368-5.254v-15.569a17.147 17.147 0 0 0-4.896-11.948 1.007 1.007 0 0 1 0-1.051.978.978 0 0 1 .744-.623Zm-77.119 31.137h-6.854a1.952 1.952 0 0 1-1.958-1.946v-1.946c0-1.075.876-1.946 1.958-1.946h6.854a2.967 2.967 0 0 1 2.938 2.958 2.929 2.929 0 0 1-2.938 2.88Zm8.303-15.919a.903.903 0 0 1-.744.35h-4.621c-3.92.042-7.266-2.802-7.834-6.655a.969.969 0 0 1 .235-.778 1.1 1.1 0 0 1 .744-.35h8.813a2.66 2.66 0 0 1 2.428 1.907l1.175 4.67c.076.3.003.618-.196.856Zm41.635-.973-2.115 6.383c-1.335 3.964-5.077 6.631-9.283 6.617h-8.42c-4.207.014-7.949-2.653-9.283-6.617l-2.233-6.383a1.858 1.858 0 0 1 .235-1.751 2.04 2.04 0 0 1 1.606-.818h27.417a2.04 2.04 0 0 1 1.606.818 1.86 1.86 0 0 1 .47 1.751Zm9.596-18.487a.982.982 0 0 1-.745.35H222.6a.982.982 0 0 1-.744-.35.813.813 0 0 1 0-.778l2.468-12.26a3.911 3.911 0 0 1 3.916-3.114h38.07a3.911 3.911 0 0 1 3.917 3.114l2.467 12.26a.818.818 0 0 1-.548.778h.118Zm1.566 19.81a.903.903 0 0 1-.744-.35.968.968 0 0 1-.196-.856l1.175-4.67a2.66 2.66 0 0 1 2.428-1.908h8.735a1.1 1.1 0 0 1 .744.35.969.969 0 0 1 .235.78c-.568 3.852-3.915 6.696-7.834 6.655h-4.543Zm16.372 11.677v1.946a1.952 1.952 0 0 1-1.959 1.946h-6.971a2.929 2.929 0 0 1-2.938-2.88 2.967 2.967 0 0 1 2.938-2.958h6.854c1.082 0 1.958.87 1.958 1.946h.118Zm-248.014-5.475c6.904 0 12.5 5.582 12.5 12.468 0 6.885-5.596 12.467-12.5 12.467-6.903 0-12.5-5.582-12.5-12.467 0-6.886 5.597-12.468 12.5-12.468Zm76.5 0c6.904 0 12.5 5.582 12.5 12.468 0 4.454-2.382 8.57-6.25 10.797a12.528 12.528 0 0 1-12.5 0 12.461 12.461 0 0 1-6.25-10.797c0-6.886 5.597-12.468 12.5-12.468ZM8.188 66.196l18.188 4.675a6.248 6.248 0 0 1 3.915 2.94 6.22 6.22 0 0 1 .585 4.852 6.243 6.243 0 0 1-4.688 4.489A1.62 1.62 0 0 0 25 84.897v4.052c-.002.571.31 1.097.812 1.371.495.318 1.13.318 1.625 0L58.25 68.565c.375 0 1.125-.81 4.25-.81h31.25a18.755 18.755 0 0 1 16.75 10.347l6.938 13.714a1.5 1.5 0 0 0 1.374.873h17.063a14.081 14.081 0 0 1 9.984 4.086 14.007 14.007 0 0 1 4.141 9.94v18.7c0 4.304-3.498 7.793-7.813 7.793h-3.437a1.564 1.564 0 0 1-1.25-.561 1.803 1.803 0 0 1 0-1.247c.065-.955.065-1.913 0-2.867 0-10.329-8.395-18.701-18.75-18.701s-18.75 8.372-18.75 18.7a21.263 21.263 0 0 0 0 2.868c.148.403.148.844 0 1.247a1.564 1.564 0 0 1-1.188.56h-36.5a1.564 1.564 0 0 1-1.187-.56 1.803 1.803 0 0 1 0-1.247c.065-.955.065-1.913 0-2.867 0-10.329-8.395-18.701-18.75-18.701s-18.75 8.372-18.75 18.7a21.263 21.263 0 0 0 0 2.868c.052.44-.059.884-.313 1.247a1.564 1.564 0 0 1-1.187.56H6.25c-3.452 0-6.25-2.79-6.25-6.233 0-3.442 2.798-6.233 6.25-6.233a1.56 1.56 0 0 0 1.562-1.559v-18.7a7.726 7.726 0 0 1 3.938-6.733 1.62 1.62 0 0 0 .75-1.371V81.593a1.497 1.497 0 0 0-1.188-1.496l-6.25-1.62c-3.4-.861-5.456-4.308-4.593-7.7.863-3.39 4.318-5.441 7.718-4.58ZM93.75 80.222h-20a1.438 1.438 0 0 0-1.25.686 1.43 1.43 0 0 0-.188 1.433l2.313 6.234a6.25 6.25 0 0 0 6.25 4.114h20.438a1.563 1.563 0 0 0 1.374-.748 1.555 1.555 0 0 0 0-1.496l-3.312-6.732a6.252 6.252 0 0 0-5.625-3.491ZM136 39l14 7-14 7v-6H14v6L0 46l14-7v6h122v-6Zm144 0 14 7-14 7v-6h-66v6l-14-7 14-7v6h66v-6Zm64 27 7 14h-6v47h6l-7 14-7-14h6V80h-6l7-14ZM219.84 22v-2.368h2.816V2.8l-2.816.864V1.296L223.136.24h2.112v19.392h2.784V22h-8.192Zm13.696.16c-1.13 0-2.016-.31-2.656-.928-.64-.619-.96-1.536-.96-2.752V3.76c0-1.237.32-2.16.96-2.768.64-.608 1.536-.912 2.688-.912h1.184c1.13 0 2.016.31 2.656.928.64.619.96 1.536.96 2.752v3.168h-2.56V3.856c0-.576-.133-.992-.4-1.248s-.624-.384-1.072-.384h-.352c-.47 0-.832.128-1.088.384-.256.256-.384.672-.384 1.248v6.592l.768-.448c.704-.427 1.264-.73 1.68-.912a2.999 2.999 0 0 1 1.2-.272c.768 0 1.365.272 1.792.816.427.544.64 1.307.64 2.288v6.56c0 1.216-.32 2.133-.96 2.752-.64.619-1.525.928-2.656.928h-1.44Zm.448-2.144h.576c.981 0 1.472-.544 1.472-1.632v-5.856c0-.853-.32-1.28-.96-1.28-.363 0-.81.117-1.344.352l-1.216.48v6.304c0 .576.128.992.384 1.248s.619.384 1.088.384Zm10.432 2.144c-1.173 0-2.075-.315-2.704-.944-.63-.63-.944-1.541-.944-2.736v-4.096h2.592v3.968c0 1.11.49 1.664 1.472 1.664h.512c.981 0 1.472-.544 1.472-1.632v-6.208c0-.832-.32-1.248-.96-1.248-.363 0-.864.15-1.504.448l-1.28.544h-2.08l.48-11.68h7.712v2.4h-5.408l-.288 7.456.608-.416c.64-.427 1.163-.73 1.568-.912a3.1 3.1 0 0 1 1.28-.272c.79 0 1.392.272 1.808.816.416.544.624 1.328.624 2.352v6.816c0 1.195-.31 2.107-.928 2.736-.619.63-1.515.944-2.688.944h-1.344Zm11.008 0c-1.11 0-1.99-.304-2.64-.912-.65-.608-.976-1.53-.976-2.768V3.76c0-1.237.32-2.16.96-2.768.64-.608 1.525-.912 2.656-.912h1.28c1.13 0 2.016.304 2.656.912.64.608.96 1.53.96 2.768v4.896h-2.624V3.92c0-.576-.133-.992-.4-1.248s-.624-.384-1.072-.384h-.32c-.448 0-.805.128-1.072.384s-.4.672-.4 1.248v14.4c0 .576.133.992.4 1.248s.624.384 1.072.384h.32c.47 0 .832-.128 1.088-.384.256-.256.384-.672.384-1.248v-4.576h2.624v4.736c0 1.237-.32 2.16-.96 2.768-.64.608-1.525.912-2.656.912h-1.28Zm7.232-.16V.24h3.68l2.336 16.992L271.008.24h3.616V22h-2.336V4.528L269.792 22H267.2l-2.528-17.472V22h-2.016ZM52.84 22v-4.896h-5.696v-1.888L52.04.24h3.36v14.688h1.728v2.176H55.4V22h-2.56Zm-3.456-7.072h3.456V4.432l-3.456 10.496Zm13.152 7.232c-1.13 0-2.016-.31-2.656-.928-.64-.619-.96-1.536-.96-2.752V3.76c0-1.237.32-2.16.96-2.768.64-.608 1.536-.912 2.688-.912h1.184c1.13 0 2.016.31 2.656.928.64.619.96 1.536.96 2.752v3.168h-2.56V3.856c0-.576-.133-.992-.4-1.248s-.624-.384-1.072-.384h-.352c-.47 0-.832.128-1.088.384-.256.256-.384.672-.384 1.248v6.592L62.28 10c.704-.427 1.264-.73 1.68-.912a2.999 2.999 0 0 1 1.2-.272c.768 0 1.365.272 1.792.816.427.544.64 1.307.64 2.288v6.56c0 1.216-.32 2.133-.96 2.752-.64.619-1.525.928-2.656.928h-1.44Zm.448-2.144h.576c.981 0 1.472-.544 1.472-1.632v-5.856c0-.853-.32-1.28-.96-1.28-.363 0-.81.117-1.344.352l-1.216.48v6.304c0 .576.128.992.384 1.248s.619.384 1.088.384Zm10.432 2.144c-1.173 0-2.075-.315-2.704-.944-.63-.63-.944-1.541-.944-2.736v-4.096h2.592v3.968c0 1.11.49 1.664 1.472 1.664h.512c.981 0 1.472-.544 1.472-1.632v-6.208c0-.832-.32-1.248-.96-1.248-.363 0-.864.15-1.504.448l-1.28.544h-2.08l.48-11.68h7.712v2.4h-5.408l-.288 7.456.608-.416c.64-.427 1.163-.73 1.568-.912a3.1 3.1 0 0 1 1.28-.272c.79 0 1.392.272 1.808.816.416.544.624 1.328.624 2.352v6.816c0 1.195-.31 2.107-.928 2.736-.619.63-1.515.944-2.688.944h-1.344Zm11.008 0c-1.11 0-1.99-.304-2.64-.912-.65-.608-.976-1.53-.976-2.768V3.76c0-1.237.32-2.16.96-2.768.64-.608 1.525-.912 2.656-.912h1.28c1.13 0 2.016.304 2.656.912.64.608.96 1.53.96 2.768v4.896h-2.624V3.92c0-.576-.133-.992-.4-1.248s-.624-.384-1.072-.384h-.32c-.448 0-.805.128-1.072.384s-.4.672-.4 1.248v14.4c0 .576.133.992.4 1.248s.624.384 1.072.384h.32c.47 0 .832-.128 1.088-.384.256-.256.384-.672.384-1.248v-4.576h2.624v4.736c0 1.237-.32 2.16-.96 2.768-.64.608-1.525.912-2.656.912h-1.28Zm7.232-.16V.24h3.68l2.336 16.992L100.008.24h3.616V22h-2.336V4.528L98.792 22H96.2L93.672 4.528V22h-2.016Zm275.184 94v-2.368h2.816V96.8l-2.816.864v-2.368l3.296-1.056h2.112v19.392h2.784V116h-8.192Zm14.944 0v-4.896h-5.696v-1.888l4.896-14.976h3.36v14.688h1.728v2.176h-1.728V116h-2.56Zm-3.456-7.072h3.456V98.432l-3.456 10.496Zm13.088 7.232c-1.173 0-2.075-.315-2.704-.944-.63-.63-.944-1.541-.944-2.736v-4.096h2.592v3.968c0 1.11.49 1.664 1.472 1.664h.512c.981 0 1.472-.544 1.472-1.632v-6.208c0-.832-.32-1.248-.96-1.248-.363 0-.864.15-1.504.448l-1.28.544h-2.08l.48-11.68h7.712v2.4h-5.408l-.288 7.456.608-.416c.64-.427 1.163-.73 1.568-.912a3.1 3.1 0 0 1 1.28-.272c.79 0 1.392.272 1.808.816.416.544.624 1.328.624 2.352v6.816c0 1.195-.31 2.107-.928 2.736-.619.63-1.515.944-2.688.944h-1.344Zm11.008 0c-1.11 0-1.99-.304-2.64-.912-.65-.608-.976-1.53-.976-2.768V97.76c0-1.237.32-2.16.96-2.768.64-.608 1.525-.912 2.656-.912h1.28c1.13 0 2.016.304 2.656.912.64.608.96 1.53.96 2.768v4.896h-2.624V97.92c0-.576-.133-.992-.4-1.248s-.624-.384-1.072-.384h-.32c-.448 0-.805.128-1.072.384s-.4.672-.4 1.248v14.4c0 .576.133.992.4 1.248s.624.384 1.072.384h.32c.47 0 .832-.128 1.088-.384.256-.256.384-.672.384-1.248v-4.576h2.624v4.736c0 1.237-.32 2.16-.96 2.768-.64.608-1.525.912-2.656.912h-1.28Zm7.232-.16V94.24h3.68l2.336 16.992 2.336-16.992h3.616V116h-2.336V98.528L416.792 116H414.2l-2.528-17.472V116h-2.016Z"/></svg>