<svg xmlns="http://www.w3.org/2000/svg" xmlns:xlink="http://www.w3.org/1999/xlink" viewBox="0 0 2048 858"><defs><path id="a" d="m849.09 567.64 48.865 75.13-340.933 194.083 16.684 58.43s-377.598 327.643-454.794 321.382L0 1055.982l60.502-58.435-47.148-175.603L363 724.15l116.832-87.64 33.383 64.69 162.715-87.645 173.16-45.915ZM711.374 0s32.623 174.224 34.792 182.863c4.49 17.834 0 128.788 0 128.788s-94.576 82.082-151.592 133.56c-55.633 63.993-240.608 139.128-240.608 139.128s-72.327-100.177-79.277-111.298c-3.343-5.348-24.948-50.761-46.665-97.468l-2.714-5.843c-22.6-48.695-44.503-97.042-45.197-101.215-1.255-7.513-1.38-122.083-1.393-151.004v-2.599l-.001-.732v-2.872c16.693-5.574 294.856 12.52 329.617-6.953C614.866 33.384 711.373 0 711.373 0Z"/><path id="c" d="M25.272 1529.704 0 1478.346c55.164-27.17 140.283-56.516 238.84-90.503 230.463-79.464 546.087-188.295 739.573-358.85 139.31-122.799 245.32-224.063 309.917-319.129 65.2-95.956 84.406-179.334 62.275-270.357-29.236-120.233-34.896-202.903-18.358-268.067 19.92-78.487 73.325-134.565 163.261-171.44l21.704 52.971c-137.136 56.219-165.145 150.343-111.005 373.006 56.173 231.02-126.196 413.45-389.964 645.964-201.97 178.039-523.78 288.998-758.754 370.024-96.735 33.352-180.278 62.156-232.217 87.739"/><filter id="e" width="132.7%" height="298.4%" x="-16.4%" y="-99.2%" filterUnits="objectBoundingBox"><feGaussianBlur in="SourceGraphic" stdDeviation="5"/></filter></defs><g fill="none" fill-rule="evenodd"><path fill="#FFF" d="M0 0h2048v858H0z"/><path fill="#DAE0E6" d="m2091.74 151.654 30.605 761.716-413.077 148.173-170.476-388.68s66.03-19.827 133.355-40.095l8.246-2.483c67.322-20.272 133.295-40.195 133.18-40.384-.219-.395-127.501-219.8-127.501-219.8 8.802-11.964 382.342-204.537 405.669-218.447Zm-791.363-217.05c79.532-66.855 322.007-60.402 322.007-60.402l-40.12 157.795 33.185 164.326-220.808 137.916-231.962 53.559-25.246-251.914 152.44-49.022s-42.7-89.648 10.504-152.257ZM105.275 702.743l83.454 259.475-60.798 25.24 38.111 228.579-265.505 131.41 43.802-523.816s58.88-91.002 160.936-120.888"/><g transform="translate(280.217 -132.173)"><mask id="b" fill="#fff"><use xlink:href="#a"/></mask><use xlink:href="#a" fill="#6E991F"/><g stroke="#000" stroke-linecap="round" stroke-linejoin="round" stroke-width="3.148" mask="url(#b)" opacity=".302"><path d="M532.333 762.649a10.259 10.259 0 0 1 3.447 6.231h.234a8.76 8.76 0 0 1 6.2 2.574 8.798 8.798 0 0 1 0 12.428 8.76 8.76 0 0 1-6.2 2.574h-20.462a8.76 8.76 0 0 1-6.2-2.574 8.797 8.797 0 0 1 0-12.428 8.76 8.76 0 0 1 6.2-2.574 10.258 10.258 0 0 1 3.447-6.231 10.218 10.218 0 0 1 13.334 0Z"/><path d="m521.165 777.668 4.384 4.394v16.111M525.549 782.062l4.385-4.394M592.333 722.649a10.259 10.259 0 0 1 3.447 6.231h.234a8.76 8.76 0 0 1 6.2 2.574 8.798 8.798 0 0 1 0 12.428 8.76 8.76 0 0 1-6.2 2.574h-20.462a8.76 8.76 0 0 1-6.2-2.574 8.797 8.797 0 0 1 0-12.428 8.76 8.76 0 0 1 6.2-2.574 10.258 10.258 0 0 1 3.447-6.231 10.218 10.218 0 0 1 13.334 0Z"/><path d="m581.165 737.668 4.384 4.394v16.111M585.549 742.062l4.385-4.394M645.333 722.649a10.259 10.259 0 0 1 3.447 6.231h.234a8.76 8.76 0 0 1 6.2 2.574 8.798 8.798 0 0 1 0 12.428 8.76 8.76 0 0 1-6.2 2.574h-20.462a8.76 8.76 0 0 1-6.2-2.574 8.797 8.797 0 0 1 0-12.428 8.76 8.76 0 0 1 6.2-2.574 10.258 10.258 0 0 1 3.447-6.231 10.218 10.218 0 0 1 13.334 0Z"/><path d="m634.165 737.668 4.384 4.394v16.111M638.549 742.062l4.385-4.394M765.333 642.649a10.259 10.259 0 0 1 3.447 6.231h.234a8.76 8.76 0 0 1 6.2 2.574 8.798 8.798 0 0 1 0 12.428 8.76 8.76 0 0 1-6.2 2.574h-20.462a8.76 8.76 0 0 1-6.2-2.574 8.797 8.797 0 0 1 0-12.428 8.76 8.76 0 0 1 6.2-2.574 10.258 10.258 0 0 1 3.447-6.231 10.218 10.218 0 0 1 13.334 0Z"/><path d="m754.165 657.668 4.384 4.394v16.111M758.549 662.062l4.385-4.394M828.333 612.649a10.259 10.259 0 0 1 3.447 6.231h.234a8.76 8.76 0 0 1 6.2 2.574 8.798 8.798 0 0 1 0 12.428 8.76 8.76 0 0 1-6.2 2.574h-20.462a8.76 8.76 0 0 1-6.2-2.574 8.797 8.797 0 0 1 0-12.428 8.76 8.76 0 0 1 6.2-2.574 10.258 10.258 0 0 1 3.447-6.231 10.218 10.218 0 0 1 13.334 0Z"/><path d="m817.165 627.668 4.384 4.394v16.111M821.549 632.062l4.385-4.394M412.333 850.649a10.259 10.259 0 0 1 3.447 6.231h.234a8.76 8.76 0 0 1 6.2 2.574 8.798 8.798 0 0 1 0 12.428 8.76 8.76 0 0 1-6.2 2.574h-20.462a8.76 8.76 0 0 1-6.2-2.574 8.797 8.797 0 0 1 0-12.428 8.76 8.76 0 0 1 6.2-2.574 10.258 10.258 0 0 1 3.447-6.231 10.218 10.218 0 0 1 13.334 0Z"/><path d="m401.165 865.668 4.384 4.394v16.111M405.549 870.062l4.385-4.394M506.333 800.649a10.259 10.259 0 0 1 3.447 6.231h.234a8.76 8.76 0 0 1 6.2 2.574 8.798 8.798 0 0 1 0 12.428 8.76 8.76 0 0 1-6.2 2.574h-20.462a8.76 8.76 0 0 1-6.2-2.574 8.797 8.797 0 0 1 0-12.428 8.76 8.76 0 0 1 6.2-2.574 10.258 10.258 0 0 1 3.447-6.231 10.218 10.218 0 0 1 13.334 0Z"/><path d="m495.165 815.668 4.384 4.394v16.111M499.549 820.062l4.385-4.394M386.333 888.649a10.259 10.259 0 0 1 3.447 6.231h.234a8.76 8.76 0 0 1 6.2 2.574 8.798 8.798 0 0 1 0 12.428 8.76 8.76 0 0 1-6.2 2.574h-20.462a8.76 8.76 0 0 1-6.2-2.574 8.797 8.797 0 0 1 0-12.428 8.76 8.76 0 0 1 6.2-2.574 10.258 10.258 0 0 1 3.447-6.231 10.218 10.218 0 0 1 13.334 0Z"/><path d="m375.165 903.668 4.384 4.394v16.111M379.549 908.062l4.385-4.394M443.333 888.649a10.259 10.259 0 0 1 3.447 6.231h.234a8.76 8.76 0 0 1 6.2 2.574 8.798 8.798 0 0 1 0 12.428 8.76 8.76 0 0 1-6.2 2.574h-20.462a8.76 8.76 0 0 1-6.2-2.574 8.797 8.797 0 0 1 0-12.428 8.76 8.76 0 0 1 6.2-2.574 10.258 10.258 0 0 1 3.447-6.231 10.218 10.218 0 0 1 13.334 0Z"/><path d="m432.165 903.668 4.384 4.394v16.111M436.549 908.062l4.385-4.394M342.333 260.649a10.259 10.259 0 0 1 3.447 6.231h.234a8.76 8.76 0 0 1 6.2 2.574 8.798 8.798 0 0 1 0 12.428 8.76 8.76 0 0 1-6.2 2.574h-20.462a8.76 8.76 0 0 1-6.2-2.574 8.797 8.797 0 0 1 0-12.428 8.76 8.76 0 0 1 6.2-2.574 10.258 10.258 0 0 1 3.447-6.231 10.218 10.218 0 0 1 13.334 0Z"/><path d="m331.165 275.668 4.384 4.394v16.111M335.549 280.062l4.385-4.394M506.333 170.649a10.259 10.259 0 0 1 3.447 6.231h.234a8.76 8.76 0 0 1 6.2 2.574 8.798 8.798 0 0 1 0 12.428 8.76 8.76 0 0 1-6.2 2.574h-20.462a8.76 8.76 0 0 1-6.2-2.574 8.797 8.797 0 0 1 0-12.428 8.76 8.76 0 0 1 6.2-2.574 10.258 10.258 0 0 1 3.447-6.231 10.218 10.218 0 0 1 13.334 0Z"/><path d="m495.165 185.668 4.384 4.394v16.111M499.549 190.062l4.385-4.394M506.333 228.649a10.259 10.259 0 0 1 3.447 6.231h.234a8.76 8.76 0 0 1 6.2 2.574 8.798 8.798 0 0 1 0 12.428 8.76 8.76 0 0 1-6.2 2.574h-20.462a8.76 8.76 0 0 1-6.2-2.574 8.797 8.797 0 0 1 0-12.428 8.76 8.76 0 0 1 6.2-2.574 10.258 10.258 0 0 1 3.447-6.231 10.218 10.218 0 0 1 13.334 0Z"/><path d="m495.165 243.668 4.384 4.394v16.111M499.549 248.062l4.385-4.394M666.333 228.649a10.259 10.259 0 0 1 3.447 6.231h.234a8.76 8.76 0 0 1 6.2 2.574 8.798 8.798 0 0 1 0 12.428 8.76 8.76 0 0 1-6.2 2.574h-20.462a8.76 8.76 0 0 1-6.2-2.574 8.797 8.797 0 0 1 0-12.428 8.76 8.76 0 0 1 6.2-2.574 10.258 10.258 0 0 1 3.447-6.231 10.218 10.218 0 0 1 13.334 0Z"/><path d="m655.165 243.668 4.384 4.394v16.111M659.549 248.062l4.385-4.394M316.333 298.649a10.259 10.259 0 0 1 3.447 6.231h.234a8.76 8.76 0 0 1 6.2 2.574 8.798 8.798 0 0 1 0 12.428 8.76 8.76 0 0 1-6.2 2.574h-20.462a8.76 8.76 0 0 1-6.2-2.574 8.797 8.797 0 0 1 0-12.428 8.76 8.76 0 0 1 6.2-2.574 10.258 10.258 0 0 1 3.447-6.231 10.218 10.218 0 0 1 13.334 0Z"/><path d="m305.165 313.668 4.384 4.394v16.111M309.549 318.062l4.385-4.394M386.333 478.649a10.259 10.259 0 0 1 3.447 6.231h.234a8.76 8.76 0 0 1 6.2 2.574 8.798 8.798 0 0 1 0 12.428 8.76 8.76 0 0 1-6.2 2.574h-20.462a8.76 8.76 0 0 1-6.2-2.574 8.797 8.797 0 0 1 0-12.428 8.76 8.76 0 0 1 6.2-2.574 10.258 10.258 0 0 1 3.447-6.231 10.218 10.218 0 0 1 13.334 0Z"/><path d="m375.165 493.668 4.384 4.394v16.111M379.549 498.062l4.385-4.394M373.333 298.649a10.259 10.259 0 0 1 3.447 6.231h.234a8.76 8.76 0 0 1 6.2 2.574 8.798 8.798 0 0 1 0 12.428 8.76 8.76 0 0 1-6.2 2.574h-20.462a8.76 8.76 0 0 1-6.2-2.574 8.797 8.797 0 0 1 0-12.428 8.76 8.76 0 0 1 6.2-2.574 10.258 10.258 0 0 1 3.447-6.231 10.218 10.218 0 0 1 13.334 0Z"/><path d="m362.165 313.668 4.384 4.394v16.111M366.549 318.062l4.385-4.394M386.333 800.649a10.259 10.259 0 0 1 3.447 6.231h.234a8.76 8.76 0 0 1 6.2 2.574 8.798 8.798 0 0 1 0 12.428 8.76 8.76 0 0 1-6.2 2.574h-20.462a8.76 8.76 0 0 1-6.2-2.574 8.797 8.797 0 0 1 0-12.428 8.76 8.76 0 0 1 6.2-2.574 10.258 10.258 0 0 1 3.447-6.231 10.218 10.218 0 0 1 13.334 0Z"/><path d="m375.165 815.668 4.384 4.394v16.111M379.549 820.062l4.385-4.394M196.333 831.649a10.259 10.259 0 0 1 3.447 6.231h.234a8.76 8.76 0 0 1 6.2 2.574 8.798 8.798 0 0 1 0 12.428 8.76 8.76 0 0 1-6.2 2.574h-20.462a8.76 8.76 0 0 1-6.2-2.574 8.797 8.797 0 0 1 0-12.428 8.76 8.76 0 0 1 6.2-2.574 10.258 10.258 0 0 1 3.447-6.231 10.218 10.218 0 0 1 13.334 0Z"/><path d="m185.165 846.668 4.384 4.394v16.111M189.549 851.062l4.385-4.394M128.333 831.649a10.259 10.259 0 0 1 3.447 6.231h.234a8.76 8.76 0 0 1 6.2 2.574 8.798 8.798 0 0 1 0 12.428 8.76 8.76 0 0 1-6.2 2.574h-20.462a8.76 8.76 0 0 1-6.2-2.574 8.797 8.797 0 0 1 0-12.428 8.76 8.76 0 0 1 6.2-2.574 10.258 10.258 0 0 1 3.447-6.231 10.218 10.218 0 0 1 13.334 0Z"/><path d="m117.165 846.668 4.384 4.394v16.111M121.549 851.062l4.385-4.394M163.333 871.649a10.259 10.259 0 0 1 3.447 6.231h.234a8.76 8.76 0 0 1 6.2 2.574 8.798 8.798 0 0 1 0 12.428 8.76 8.76 0 0 1-6.2 2.574h-20.462a8.76 8.76 0 0 1-6.2-2.574 8.797 8.797 0 0 1 0-12.428 8.76 8.76 0 0 1 6.2-2.574 10.258 10.258 0 0 1 3.447-6.231 10.218 10.218 0 0 1 13.334 0Z"/><path d="m152.165 886.668 4.384 4.394v16.111M156.549 891.062l4.385-4.394"/></g></g><g transform="translate(-79.41 -768.036)"><mask id="d" fill="#fff"><use xlink:href="#c"/></mask><use xlink:href="#c" fill="#29ABE2"/><g stroke="#000" stroke-linecap="round" stroke-linejoin="round" stroke-width="2.321" mask="url(#d)" opacity=".3"><path d="M1140.41 922.565c.72-.295 1.385-.808 1.943-1.5.56-.692.999-1.547 1.288-2.503.444 1.426 1.203 2.624 2.17 3.422.966.798 2.091 1.157 3.214 1.025 1.124.132 2.248-.227 3.215-1.025.967-.798 1.726-1.996 2.17-3.422.444 1.426 1.203 2.624 2.17 3.422.967.798 2.091 1.157 3.215 1.025 1.123.132 2.248-.227 3.214-1.025.967-.798 1.726-1.996 2.17-3.422.289.956.729 1.81 1.288 2.503.558.692 1.222 1.205 1.943 1.5m-28-12.527c.72-.295 1.385-.807 1.943-1.5.56-.691.999-1.546 1.288-2.502.444 1.426 1.203 2.623 2.17 3.422.966.798 2.091 1.157 3.214 1.025 1.124.132 2.248-.227 3.215-1.025.967-.799 1.726-1.996 2.17-3.422.444 1.426 1.203 2.623 2.17 3.422.967.798 2.091 1.157 3.215 1.025 1.123.132 2.248-.227 3.214-1.025.967-.799 1.726-1.996 2.17-3.422.289.956.729 1.81 1.288 2.503.558.692 1.222 1.204 1.943 1.5M1241.41 812.565c.72-.295 1.385-.808 1.943-1.5.56-.692.999-1.547 1.288-2.503.444 1.426 1.203 2.624 2.17 3.422.966.798 2.091 1.157 3.214 1.025 1.124.132 2.248-.227 3.215-1.025.967-.798 1.726-1.996 2.17-3.422.444 1.426 1.203 2.624 2.17 3.422.967.798 2.091 1.157 3.215 1.025 1.123.132 2.248-.227 3.214-1.025.967-.798 1.726-1.996 2.17-3.422.289.956.729 1.81 1.288 2.503.558.692 1.222 1.205 1.943 1.5m-28-12.527c.72-.295 1.385-.807 1.943-1.5.56-.691.999-1.546 1.288-2.502.444 1.426 1.203 2.623 2.17 3.422.966.798 2.091 1.157 3.214 1.025 1.124.132 2.248-.227 3.215-1.025.967-.799 1.726-1.996 2.17-3.422.444 1.426 1.203 2.623 2.17 3.422.967.798 2.091 1.157 3.215 1.025 1.123.132 2.248-.227 3.214-1.025.967-.799 1.726-1.996 2.17-3.422.289.956.729 1.81 1.288 2.503.558.692 1.222 1.204 1.943 1.5M1018.41 1038.565c.72-.295 1.385-.808 1.943-1.5.56-.692.999-1.547 1.288-2.503.444 1.426 1.203 2.624 2.17 3.422.966.798 2.091 1.157 3.214 1.025 1.124.132 2.248-.227 3.215-1.025.967-.798 1.726-1.996 2.17-3.422.444 1.426 1.203 2.624 2.17 3.422.967.798 2.091 1.157 3.215 1.025 1.123.132 2.248-.227 3.214-1.025.967-.798 1.726-1.996 2.17-3.422.289.956.729 1.81 1.288 2.503.558.692 1.222 1.205 1.943 1.5m-28-12.527c.72-.295 1.385-.807 1.943-1.5.56-.691.999-1.546 1.288-2.502.444 1.426 1.203 2.623 2.17 3.422.966.798 2.091 1.157 3.214 1.025 1.124.132 2.248-.227 3.215-1.025.967-.799 1.726-1.996 2.17-3.422.444 1.426 1.203 2.623 2.17 3.422.967.798 2.091 1.157 3.215 1.025 1.123.132 2.248-.227 3.214-1.025.967-.799 1.726-1.996 2.17-3.422.289.956.729 1.81 1.288 2.503.558.692 1.222 1.204 1.943 1.5M834.41 1164.615a4.905 4.905 0 0 0 1.943-1.341 6.388 6.388 0 0 0 1.288-2.238c.444 1.275 1.203 2.346 2.17 3.06.966.713 2.091 1.034 3.214.916 1.124.118 2.248-.203 3.215-.917.967-.713 1.726-1.784 2.17-3.059.444 1.275 1.203 2.346 2.17 3.06.967.713 2.091 1.034 3.215.916 1.123.118 2.248-.203 3.214-.917.967-.713 1.726-1.784 2.17-3.059a6.391 6.391 0 0 0 1.288 2.238 4.905 4.905 0 0 0 1.943 1.34m-28-13a4.905 4.905 0 0 0 1.943-1.34 6.385 6.385 0 0 0 1.288-2.238c.444 1.275 1.203 2.346 2.17 3.06.966.713 2.091 1.034 3.214.916 1.124.118 2.248-.203 3.215-.917.967-.713 1.726-1.784 2.17-3.059.444 1.275 1.203 2.346 2.17 3.06.967.713 2.091 1.034 3.215.916 1.123.118 2.248-.203 3.214-.917.967-.713 1.726-1.784 2.17-3.059a6.388 6.388 0 0 0 1.288 2.238 4.905 4.905 0 0 0 1.943 1.34M863.41 1151.615a4.905 4.905 0 0 0 1.943-1.341 6.388 6.388 0 0 0 1.288-2.238c.444 1.275 1.203 2.346 2.17 3.06.966.713 2.091 1.034 3.214.916 1.124.118 2.248-.203 3.215-.917.967-.713 1.726-1.784 2.17-3.059.444 1.275 1.203 2.346 2.17 3.06.967.713 2.091 1.034 3.215.916 1.123.118 2.248-.203 3.214-.917.967-.713 1.726-1.784 2.17-3.059a6.391 6.391 0 0 0 1.288 2.238 4.905 4.905 0 0 0 1.943 1.34m-28-13a4.905 4.905 0 0 0 1.943-1.34 6.385 6.385 0 0 0 1.288-2.238c.444 1.275 1.203 2.346 2.17 3.06.966.713 2.091 1.034 3.214.916 1.124.118 2.248-.203 3.215-.917.967-.713 1.726-1.784 2.17-3.059.444 1.275 1.203 2.346 2.17 3.06.967.713 2.091 1.034 3.215.916 1.123.118 2.248-.203 3.214-.917.967-.713 1.726-1.784 2.17-3.059a6.388 6.388 0 0 0 1.288 2.238 4.905 4.905 0 0 0 1.943 1.34M753.41 1212.615a4.905 4.905 0 0 0 1.943-1.341 6.388 6.388 0 0 0 1.288-2.238c.444 1.275 1.203 2.346 2.17 3.06.966.713 2.091 1.034 3.214.916 1.124.118 2.248-.203 3.215-.917.967-.713 1.726-1.784 2.17-3.059.444 1.275 1.203 2.346 2.17 3.06.967.713 2.091 1.034 3.215.916 1.123.118 2.248-.203 3.214-.917.967-.713 1.726-1.784 2.17-3.059a6.391 6.391 0 0 0 1.288 2.238 4.905 4.905 0 0 0 1.943 1.34m-28-13a4.905 4.905 0 0 0 1.943-1.34 6.385 6.385 0 0 0 1.288-2.238c.444 1.275 1.203 2.346 2.17 3.06.966.713 2.091 1.034 3.214.916 1.124.118 2.248-.203 3.215-.917.967-.713 1.726-1.784 2.17-3.059.444 1.275 1.203 2.346 2.17 3.06.967.713 2.091 1.034 3.215.916 1.123.118 2.248-.203 3.214-.917.967-.713 1.726-1.784 2.17-3.059a6.388 6.388 0 0 0 1.288 2.238 4.905 4.905 0 0 0 1.943 1.34M593.41 1282.615a4.905 4.905 0 0 0 1.943-1.341 6.388 6.388 0 0 0 1.288-2.238c.444 1.275 1.203 2.346 2.17 3.06.966.713 2.091 1.034 3.214.916 1.124.118 2.248-.203 3.215-.917.967-.713 1.726-1.784 2.17-3.059.444 1.275 1.203 2.346 2.17 3.06.967.713 2.091 1.034 3.215.916 1.123.118 2.248-.203 3.214-.917.967-.713 1.726-1.784 2.17-3.059a6.391 6.391 0 0 0 1.288 2.238 4.905 4.905 0 0 0 1.943 1.34m-28-13a4.905 4.905 0 0 0 1.943-1.34 6.385 6.385 0 0 0 1.288-2.238c.444 1.275 1.203 2.346 2.17 3.06.966.713 2.091 1.034 3.214.916 1.124.118 2.248-.203 3.215-.917.967-.713 1.726-1.784 2.17-3.059.444 1.275 1.203 2.346 2.17 3.06.967.713 2.091 1.034 3.215.916 1.123.118 2.248-.203 3.214-.917.967-.713 1.726-1.784 2.17-3.059a6.388 6.388 0 0 0 1.288 2.238 4.905 4.905 0 0 0 1.943 1.34M373.41 1367.615a4.905 4.905 0 0 0 1.943-1.341 6.388 6.388 0 0 0 1.288-2.238c.444 1.275 1.203 2.346 2.17 3.06.966.713 2.091 1.034 3.214.916 1.124.118 2.248-.203 3.215-.917.967-.713 1.726-1.784 2.17-3.059.444 1.275 1.203 2.346 2.17 3.06.967.713 2.091 1.034 3.215.916 1.123.118 2.248-.203 3.214-.917.967-.713 1.726-1.784 2.17-3.059a6.391 6.391 0 0 0 1.288 2.238 4.905 4.905 0 0 0 1.943 1.34m-28-13a4.905 4.905 0 0 0 1.943-1.34 6.385 6.385 0 0 0 1.288-2.238c.444 1.275 1.203 2.346 2.17 3.06.966.713 2.091 1.034 3.214.916 1.124.118 2.248-.203 3.215-.917.967-.713 1.726-1.784 2.17-3.059.444 1.275 1.203 2.346 2.17 3.06.967.713 2.091 1.034 3.215.916 1.123.118 2.248-.203 3.214-.917.967-.713 1.726-1.784 2.17-3.059a6.388 6.388 0 0 0 1.288 2.238 4.905 4.905 0 0 0 1.943 1.34M211.41 1421.615a4.905 4.905 0 0 0 1.943-1.341 6.388 6.388 0 0 0 1.288-2.238c.444 1.275 1.203 2.346 2.17 3.06.966.713 2.091 1.034 3.214.916 1.124.118 2.248-.203 3.215-.917.967-.713 1.726-1.784 2.17-3.059.444 1.275 1.203 2.346 2.17 3.06.967.713 2.091 1.034 3.215.916 1.123.118 2.248-.203 3.214-.917.967-.713 1.726-1.784 2.17-3.059a6.391 6.391 0 0 0 1.288 2.238 4.905 4.905 0 0 0 1.943 1.34m-28-13a4.905 4.905 0 0 0 1.943-1.34 6.385 6.385 0 0 0 1.288-2.238c.444 1.275 1.203 2.346 2.17 3.06.966.713 2.091 1.034 3.214.916 1.124.118 2.248-.203 3.215-.917.967-.713 1.726-1.784 2.17-3.059.444 1.275 1.203 2.346 2.17 3.06.967.713 2.091 1.034 3.215.916 1.123.118 2.248-.203 3.214-.917.967-.713 1.726-1.784 2.17-3.059a6.388 6.388 0 0 0 1.288 2.238 4.905 4.905 0 0 0 1.943 1.34"/></g></g><path fill="#DAE0E6" d="M708.876-642.027c.265 6.333 5.514 156.66-77.54 286.614-74.802 117.037-169.456 115.81-200.581 115.393-1.405-.016-3.007-.063-4.235-.037C401.528-225.782 211.4-88.589 91.237-1L75.496 94.804c5.986.818 12.007 1.635 18.039 2.446l5.524.742c81.04 10.855 162.292 20.592 178.635 20.4 5.356-2.992 20.66-12.318 36.596-22.056l1.65-1.009 1.653-1.01 2.203-1.347c72.935-44.587 107.379-64.956 118.678-67.776 17.443-4.356 178.17 8.977 246.47 14.91 8.59.743 14.941 8.31 14.197 16.902-.744 8.586-8.313 14.94-16.896 14.201a9930.469 9930.469 0 0 0-37.774-3.205l-6.326-.523C547.5 60.02 458.756 53.961 445.809 55.56c-11.107 3.757-75.198 42.938-109.736 64.056-31.973 19.546-43.527 26.54-47.61 28.289-1.431.619-3.236 1.389-10.717 1.389-17.241 0-64.657-4.098-207.314-23.67L52.931 232.087c-1.26 7.655-7.877 13.083-15.383 13.083-.843 0-1.691-.068-2.55-.208-8.505-1.4-14.264-9.435-12.87-17.938L55.291 25.249C27.06 45.907 6.053 61.395-2.809 68.102a15.54 15.54 0 0 1-9.405 3.164c-4.724 0-9.39-2.133-12.46-6.193-5.202-6.874-3.844-16.668 3.033-21.872 5.275-3.992 38.825-28.657 85.237-62.544l.012-.009a15.615 15.615 0 0 1 10.327-7.538l-.011.008c124.362-90.738 326.88-237.321 342.852-243.092 3.876-1.405 7.611-1.358 14.39-1.27 26.854.37 108.42 1.42 173.873-100.988 77.612-121.44 72.707-267.053 72.65-268.505-.344-8.612 6.346-15.882 14.956-16.242 8.604-.228 15.872 6.34 16.23 14.952Zm1396.9 174.69c3.772 7.753.537 17.1-7.22 20.862l-97.344 47.31a15.578 15.578 0 0 1-6.82 1.571h-47.699c-11.991 31.255-23.894 63.223-25.819 69.978-.109 1.103-.291 2.102-.463 3.08-2.7 15.285-2.523 50.297.547 104.065.015.296.026.593.026.89-.01 187.514-83.58 251.154-138.874 293.27l-3.563 2.716c-23.086 17.62-52.76 37.28-80.892 54.219 6.413-1.09 12.93-2.213 19.456-3.35l5.273-.92c10.544-1.846 21.044-3.71 31.101-5.495 127.72-22.669 152.207-25.328 163.678-17.673 17.125 11.418 56.75 74.016 68.487 92.928 4.547 7.327 2.294 16.95-5.03 21.497a15.509 15.509 0 0 1-8.215 2.353 15.6 15.6 0 0 1-13.276-7.385c-20.913-33.7-47.902-73.053-57.73-82.13-12.38-.873-55.216 5.938-98.285 13.38l-3.492.604c-13.965 2.423-27.869 4.892-40.68 7.166-80.061 14.215-130.245 22.728-148.612 20.883a15.534 15.534 0 0 1-3.34-.648 15.497 15.497 0 0 1-5.772-3.263l-.048-.045a10.788 10.788 0 0 1-.175-.16l-.061-.056-.118-.112a15.523 15.523 0 0 1-4.24-7.072l-.031-.118a15.41 15.41 0 0 1-.403-1.99 15.522 15.522 0 0 1 .51-6.565 15.46 15.46 0 0 1 2.313-4.687 15.543 15.543 0 0 1 9.173-6.067c17.916-4.09 97.931-49.255 151.473-90.117l3.594-2.737c53.36-40.643 126.43-96.29 126.565-267.984-4.791-84.289-1.378-103.575-.093-110.84l.109-.609c.177-3.533 2.455-12.64 31.63-88.243a15.602 15.602 0 0 1 14.555-9.987h54.832l94.118-45.738c7.736-3.767 17.09-.54 20.856 7.218ZM273.493 943.591c-5.785 0-11.346-3.232-14.046-8.785a15.56 15.56 0 0 1-1.576-7.093c-2.986-17.917-41.498-162.145-65.595-250.753-2.258-8.322 2.648-16.898 10.966-19.161 8.319-2.27 16.892 2.643 19.16 10.97.172.634 17.448 64.201 34.158 127.122 9.827 36.99 17.537 66.533 22.916 87.812 3.22 12.714 5.639 22.617 7.194 29.44 2.84 12.442 5.296 23.198-6.362 28.87a15.503 15.503 0 0 1-6.815 1.578m886.65 39.265c-5.987 0-11.7-3.466-14.28-9.295-3.49-7.884.073-17.105 7.95-20.597l340.1-150.697c7.88-3.502 17.1.073 20.59 7.952 3.49 7.884-.068 17.105-7.95 20.597l-340.1 150.697a15.554 15.554 0 0 1-6.31 1.343"/><path fill="#EC9C00" stroke="#7A5100" stroke-width="4" d="M891.407-737.274c11.465.734 20.169 10.626 19.44 22.101-8.003 125.46-33.442 777.887-33.423 939.648l.001-.022c3.154-1.206 6.21-2.284 9.237-3.35l1.229-.434c20.097-7.102 41.543-15.381 97.347-71.215 33.945-33.955 62.326-64.305 84.335-88.936a20.777 20.777 0 0 1 5.54-6.23c25.15-28.429 40.977-48.317 46.07-55.988 2.268-58.748 28.394-595.611 171.814-720.095 8.687-7.53 21.823-6.6 29.356 2.081 7.527 8.68 6.596 21.83-2.086 29.366-120.53 104.616-155.708 600.752-157.643 694.101v.207l-.001.412c-.039 6.677-1.317 13.975-43.911 63.317-.897 1.04-1.802 2.084-2.714 3.134 44.724 48.052 45.804 53.98 46.853 59.734 2.284 12.515 3.938 21.554-114.506 144.41-38.064 39.486-93.067 94.823-117.128 116.523 2.834 6.793 5.741 13.754 8.713 20.856l-.004.01c59.236-24.932 217.466-70.765 340.478-27.934 57.359 19.974 98.832 56.356 123.568 108.302a1573.48 1573.48 0 0 0 29.536-15.585c-85.578-200.113-153.526-359.319-173.241-407.315a19.78 19.78 0 0 1-.682-1.931c-14.16-47.205 4.885-124.026 29.976-149.12 25.288-25.302 124.405-55.11 160.493-58.451 15.037-1.395 77.6-3.126 158.332-4.874 56.162-113.388 150.826-233.05 212.747-305.599l3.678-4.324c8.505-11.21 19.914-76.374 27.467-119.5 11.898-67.932 19.8-110.428 31.989-127.497 6.674-9.362 19.675-11.516 29.028-4.84 9.349 6.682 11.518 19.677 4.843 29.033-5.151 7.4-11.841 38.955-17.78 70.866l-.55 2.961-.503 2.74c-2.175 11.864-4.227 23.582-6.038 33.924-13.115 74.922-21.907 121.732-36.681 139.201l-3.803 4.465c-86.675 101.558-154.156 197.13-196.895 277.582 180.483-3.636 415.863-7.079 439.913-7.432l1.206-.018h.307c11.357 0 20.638 9.123 20.806 20.52.16 11.49-9.017 20.945-20.51 21.112-4.007.06-272.653 3.966-462.434 7.876-14.317 31.826-23.967 60.604-28.515 85.63-14.409 79.265 15.437 198.535 85.312 346.584 173.85-96.527 335.71-178.357 393.403-196.893 10.966-3.523 22.666 2.503 26.177 13.447 3.517 10.944-2.502 22.668-13.447 26.186-54.93 17.653-216.33 99.55-387.859 194.8 31.294 62.499 69.237 129.66 113.532 200.714 122.589-42.68 246.082-93.957 272.805-112.461 9.447-6.541 22.411-4.179 28.95 5.272 6.54 9.45 4.183 22.418-5.27 28.96-39.61 27.43-223.528 100.431-364.436 144.655-39.898 12.522-106.657 36.451-182.583 64.58l.018.057c332.525 777.525 349.975 821.79 349.975 831.24 0 11.496-9.317 20.816-20.81 20.816-10.04 0-18.42-7.108-20.376-16.575-8.48-26.265-148.79-355.41-290.583-687.078l-10.376-24.268a823112.38 823112.38 0 0 0-46.898-109.66c-15.4 5.756-31.042 11.628-46.788 17.56 45.794 134.155 94.702 278.475 95.537 280.943 3.688 10.892-2.143 22.705-13.026 26.395a20.665 20.665 0 0 1-6.68 1.108c-8.677 0-16.772-5.47-19.706-14.139-.402-1.185-11.932-35.208-28.885-85.123l-352.299 45.415c-.671.083-1.342.125-2.003.125a15.604 15.604 0 0 1-14.134-9.003l-45.848-98.227c-59.728 22.734-176.97 96.064-229.023 128.622-18.949 11.853-25.19 15.731-28.484 17.403l-.271.136c-.619.306-1.133.532-1.618.724l-.206.08-.204.076c-.17.062-.338.122-.509.18l-.206.07-.21.07c-2.726.917-5.254 1.348-7.61 1.348-14.39 0-22.584-16.09-33.347-37.218-6.172-12.12-13.57-27.445-21.123-43.25l-1.134-2.373-1.135-2.38-1.136-2.381-1.136-2.384-2.834-5.949-3.416-7.171-.854-1.792-2.132-4.468-.85-1.78-.848-1.774c-7.446-15.576-14.616-30.403-20.37-41.614-45.827 30.19-89.593 62.414-130.182 97.093-191.427 163.567-321.024 217.745-458.233 275.093-56.475 23.61-114.88 48.022-180.085 81.036a20.664 20.664 0 0 1-9.38 2.254c-7.595 0-14.92-4.18-18.582-11.418-5.192-10.257-1.087-22.783 9.166-27.971 64.314-32.57 121.677-56.739 177.05-79.892l3.86-1.614 1.928-.805c134.108-56.058 260.782-109.008 447.25-268.338 2.075-1.773 4.157-3.539 6.246-5.299-39.214-51.041-54.136-74.366-60.002-85.767-11.19 1.369-27 3.268-43.054 5.097l-3.142.356-4.428.498-1.471.164c-22.546 2.51-43.945 4.651-51.951 4.732-12.777 1.806-68.352 32.338-112.02 70.062-30.755 26.576-145.844 68.4-351.852 127.866-5.54 1.598-9.821 2.837-12.615 3.659a20.912 20.912 0 0 1-5.878.848c-8.995 0-17.287-5.88-19.95-14.946-3.247-11.032 3.063-22.6 14.092-25.848 2.83-.833 7.179-2.087 12.813-3.716C210.035 940.21 272.987 908.05 287.48 895.53c38.757-33.488 110.303-80.188 138.78-80.188 7.614 0 39.955-3.498 71.894-7.24l2.488-.291c8.7-1.023 17.322-2.058 25.357-3.039.476-40.886 3.806-107.467 7.496-120.414 3.559-12.437 17.906-27.924 69.013-78.575l.915-.907 1.833-1.816 1.834-1.819 3.668-3.64c1.528-1.516 3.053-3.032 4.572-4.544l1.82-1.812c.908-.905 1.814-1.808 2.716-2.71l1.8-1.798c4.404-4.407 8.714-8.748 12.836-12.95-8.245-5.282-17.624-12.013-28.637-20.016-2.59-1.879-5.197-3.773-7.803-5.652-9.656 3.997-22.385 9.342-36.463 15.253-19.91 8.362-42.745 17.95-65.698 27.433l-4.174 1.722c-13.914 5.736-27.808 11.402-41.06 16.703-16.747 6.699-95.06 32.834-174.49 59.087l-6.81 2.25c-31.777 10.498-63.458 20.927-91.171 30.05-32.717 10.772-59.685 19.65-74.288 24.516-49.842 16.621-89.197 44.54-123.85 87.853-4.109 5.137-10.16 7.811-16.261 7.811-4.557 0-9.151-1.488-12.99-4.563-8.974-7.182-10.425-20.28-3.246-29.257 39.344-49.183 86.18-82.327 143.185-101.342 14.634-4.877 41.66-13.77 74.439-24.563 92.5-30.454 247.319-81.416 270.037-90.497 14.042-5.618 28.842-11.664 43.63-17.77l4.224-1.746 3.964-1.642c20.464-8.482 40.63-16.952 58.448-24.434 21.033-8.832 37.649-15.805 47.559-19.786a20.787 20.787 0 0 1 19.685 2.269c5.806 4.064 11.736 8.368 17.589 12.625 3.955 2.873 8.515 6.185 13.138 9.46l1.262.89c8.209 5.786 16.461 11.314 21.74 13.926 13.046-8.956 45.821-34.191 80.76-61.445l2.306-1.8c2.694-2.103 5.399-4.216 8.106-6.332l3.626-2.836c20.551-16.077 41.041-32.194 57.975-45.514 27.608-21.716 48.133-37.846 61.53-48.204-17.875-43.316-31.769-77.948-38.589-96.856l-.583-1.63-1.648.319c-2.766.531-5.618 1.071-8.5 1.605l-1.181.218-1.185.218c-11.317 2.071-20.486 3.692-28.019 4.653-1.97.62-4.069.954-6.245.954-34.235 0-167.6 11.454-186.614 15.222-3.693 3.174-10.43 14.425-14.54 21.29-5.618 9.382-11.43 19.082-18.234 26.857-5.863 6.713-13.614 15.58-82.507 15.58-10.456 0-22.317-.207-35.796-.65-12.291-.407-27.184-1.121-41.94-2.038l-2.602-.163c-27.727-1.77-54.399-4.233-61.75-6.687-4.157-1.384-16.366-5.454-72.54-66.512-8.5 3.07-19.81 7.332-29.262 11.537-16.387 7.29-45.64 2.519-119.813-14.56-17.276-3.977-33.6-7.739-41.779-8.905-15.268-2.185-35.578-10.73-59.097-20.628-4.624-1.946-9.463-3.983-14.37-6.005l-1.55-.638a963.55 963.55 0 0 0-.778-.318l-1.556-.636a757.941 757.941 0 0 0-4.677-1.886l-1.557-.62c-17.645-6.993-34.866-12.888-44.91-12.888-11.491 0-20.808-9.32-20.808-20.816 0-11.496 9.317-20.816 20.809-20.816 21.08 0 49.234 11.05 77.237 22.763l2.77 1.16 5.527 2.326 2.703 1.137 2.704 1.136c17.346 7.277 34.417 14.227 43.437 15.514 9.915 1.42 26.282 5.188 45.233 9.55 9.286 2.137 22.038 5.071 35.257 7.894l2.27.483 2.275.48c23.155 4.855 46.685 9.06 54.707 7.816 1.934-.851 3.918-1.699 5.924-2.535l1.206-.5 1.21-.498c17.362-7.106 35.51-13.18 36.404-13.48a20.805 20.805 0 0 1 22 5.767c24.482 27.014 55.513 58.711 64.94 65.268 23.847 4.44 155.916 11.636 181.209 3.7 3.844-4.964 7.98-11.875 11.996-18.583 10.743-17.938 20.892-34.883 37.836-39.722 13.175-3.77 98.862-11.423 155.51-15.044v.01c-43.067-86.812-153.834-327.542-159.717-355.013-4.869-22.705-69.73-132.26-82.35-150.437-18.926-11.141-126.404-45.977-147.65-45.977-10.035 0-54.613-1.972-116.311-4.704-25.726-1.138-54.798-2.425-84.298-3.69l-4.428-.19-4.432-.19-6.968-.295-2.439-.103-4.874-.206c-78.756-3.312-155.134-6.148-173.72-5.25-11.487.557-21.23-8.321-21.777-19.801-.546-11.486 8.313-21.238 19.794-21.784 22.825-1.088 114.119 2.488 207.244 6.507l7.166.31c23.89 1.035 47.79 2.093 70.573 3.102 56.533 2.503 105.356 4.662 114.47 4.662 23.873 0 163.115 40.144 178.977 59.987 8.22 10.277 84.328 134.876 91.715 169.327 6.44 27.867 134.113 303.605 164.057 360.984 9.413-1.253 24.345-3.888 39.93-6.926-2.019-156.81 26.666-856.128 33.053-956.218.728-11.475 10.633-20.228 22.094-19.447Zm132.443 1453.09c-83.82 40.32-167.925 84.107-246.953 133.39 8.126 15.56 18.777 37.884 29.938 61.313l.918 1.926c10.186 21.389 23.056 48.418 31.567 64.675 3.126-1.951 6.513-4.064 9.952-6.218 55.234-34.545 163.59-102.318 229.043-129.309-11.14-25.446-30.894-71.015-54.465-125.778Zm424.603 28.98-1.393.53a26421.39 26421.39 0 0 0-8.735 3.31l-5.82 2.208c-92.118 34.954-182.533 69.825-244.811 93.844a59093.674 59093.674 0 0 1-42.71 16.455l-1.807.695a8577.227 8577.227 0 0 1-13.333 5.116l39.824 85.298 334.731-43.149a142218.47 142218.47 0 0 0-44.43-130.549l-3.293-9.656-1.647-4.828-1.646-4.826-4.93-14.448ZM897.305 418.089l-.508.402c-11.168 8.707-25.025 19.589-39.33 30.837l-2.077 1.634-4.169 3.279-3.132 2.463-3.13 2.463c-115.574 90.908-148.662 116.007-161.622 123.718-11.471 12.515-26.444 27.56-41.709 42.722l-1.966 1.952-1.967 1.952-5.898 5.845c-5.126 5.081-10.674 10.58-16.252 16.151l-2.183 2.183c-.485.485-.97.97-1.454 1.457l-1.452 1.456-1.448 1.456c-16.378 16.478-31.669 32.396-35.716 38.798-3.178 16.965-6.752 113.17-5.597 130.547 4.04 8.347 22.102 33.898 42.028 60.56l1.288 1.722c1.076 1.435 2.156 2.873 3.238 4.31l1.626 2.157.814 1.077 1.63 2.151c1.586 2.093 3.174 4.178 4.756 6.248 115.503-90.615 250.489-163.802 384.316-228.108a39542.687 39542.687 0 0 1-46.283-108.26l-4.1-9.637c-20.894-49.125-41.572-98.073-59.703-141.535Zm484.315 132.366-.234.139c-53.276 26.034-111.624 52.364-171.84 79.536-48.243 21.772-98.037 44.243-148.222 67.853 24.256 56.405 44.65 103.426 56.02 129.183 13.313-5.105 32.987-12.692 55.378-21.326 64.886-25.022 160.23-61.792 256.38-98.224l5.887-2.23c-21.619-63.23-41.344-120.621-53.369-154.931Zm68.323-34.885-.522.286a1684.138 1684.138 0 0 1-30.268 15.87c11.798 33.553 32.252 93.04 54.788 158.944 14.752-5.55 29.41-11.05 43.868-16.455l-18.552-43.366c-16.836-39.354-33.335-77.922-49.314-115.28Zm-492.681-65.737-1.355.582c28.277 67.191 60.327 142.456 88.985 209.298 49.974-23.499 99.518-45.857 147.544-67.53 61.286-27.66 120.616-54.432 174.303-80.769-19.927-42.023-53.497-71.474-100.017-87.676-106.254-36.997-255.906 3.225-309.46 26.095Zm716.55-63.211-4.365 2.453c-58.787 33.067-117.866 67.217-173.425 100.438a999.941 999.941 0 0 1-9.548 5.636c16.513 38.612 33.596 78.546 51.04 119.323l17.45 40.793 1.888 4.415c77.394-28.684 145.677-53.171 186.517-65.99a2505.852 2505.852 0 0 0 39.966-12.927c-37.266-60.19-75.51-126.5-109.523-194.141Zm-84.51-489.12h-.08c-69.805 1.557-122.294 3.063-135.329 4.27-38.257 3.549-122.356 33.888-134.898 46.44-12.694 12.687-29.97 70.977-19.816 106.801 20.01 48.629 86.727 204.962 170.79 401.546 1.58-.926 3.147-1.856 4.703-2.787 58.355-34.89 119.916-70.459 180.803-104.659-64.43-135.678-108.163-273.158-89.76-374.406 4.448-24.487 12.643-50.471 23.587-77.205Zm-501.157 204.566-.428.469c-22.499 24.644-47.533 50.827-73.044 76.351-63.634 63.655-90.488 73.126-114.179 81.479-6.604 2.33-12.522 4.418-19.07 7.795l-.008-.017c5.35 14.904 17.187 44.432 32.917 82.61l-.006.008c48.355-45.681 176.632-177.837 203.827-214.893-6.308-7.629-16.9-19.525-28.225-31.862l-1.216-1.324-.568-.616Z"/><path fill="#C2C2C2" d="M1314.964 471.525c0 4.169-20.507 7.557-45.821 7.557-25.293 0-45.806-3.388-45.806-7.557 0-4.184 20.513-7.566 45.806-7.566 25.314 0 45.821 3.382 45.821 7.566" filter="url(#e)"/><g transform="translate(1198.5 250.5)"><circle cx="66.5" cy="70.5" r="64.5" fill="#FFF"/><path fill="#BA0D37" d="M84 71.897c0 6.602-5.382 11.982-12 11.982S60 78.5 60 71.897c0-6.603 5.382-11.983 12-11.983s12 5.38 12 11.983m-48.984-19.85A41.617 41.617 0 0 0 30 71.897c0 2.258.228 4.457.576 6.62 16.14 2.99 28.5 16.758 29.334 33.528A41.769 41.769 0 0 0 72 113.836c4.206 0 8.262-.635 12.09-1.791.834-16.77 13.194-30.538 29.334-33.528.348-2.163.576-4.362.576-6.62a41.617 41.617 0 0 0-5.016-19.85c-24.234-5.404-49.74-5.398-73.968 0"/><path fill="#BA0D37" d="M72 119.828c-26.466 0-48-21.503-48-47.931 0-26.428 21.534-47.931 48-47.931s48 21.503 48 47.93c0 26.429-21.534 47.932-48 47.932M72 0C32.298 0 0 32.252 0 71.897s32.298 71.896 72 71.896 72-32.251 72-71.896S111.702 0 72 0"/><path fill="#BA0D37" d="m78.438 195.642 31.543-62.994a7.2 7.2 0 0 0-6.438-10.424H40.457a7.2 7.2 0 0 0-6.438 10.424l31.543 62.994a7.2 7.2 0 0 0 12.876 0Z"/></g></g></svg>