<svg xmlns="http://www.w3.org/2000/svg" viewBox="0 0 1086 900"><g fill="none" fill-rule="evenodd"><path fill="#4C4C4E" d="M44.991 490.158c-14.8 6.76-24.453 11.161-30.763 14.046a112.38 112.38 0 0 1-3.053-13.755c-5.582-34.85 6.804-59.765 6.804-59.765s2.5-.874 6.6-2.332l13.812 41.816 6.6 19.99Z"/><path fill="#29292B" d="M44.991 490.158c-14.8 6.76-24.453 11.161-30.763 14.046a112.38 112.38 0 0 1-3.053-13.755c7.85-4.487 18.377-11.393 27.216-20.28l6.6 19.99Z"/><path fill="#3C3C3E" d="m71.669 504.22 4.705 17.465c.78 2.134 2.133 3.906 4.156 4.735.934-2.153 1.246-4.672.466-6.806l-4.704-17.465c-.78-2.134-2.134-3.905-4.157-4.734-.933 2.152-1.246 4.67-.466 6.805m7.568-3.39 4.705 17.465c.78 2.134 2.133 3.906 4.156 4.735.934-2.152 1.246-4.671.467-6.806L83.86 498.76c-.78-2.134-2.134-3.906-4.157-4.735-.933 2.154-1.246 4.672-.466 6.806M64.1 507.61l4.706 17.465c.78 2.134 2.133 3.906 4.156 4.735.934-2.153 1.246-4.672.466-6.806l-4.704-17.465c-.78-2.134-2.134-3.906-4.157-4.735-.933 2.153-1.246 4.672-.467 6.806M56.532 511l4.705 17.465c.78 2.134 2.134 3.906 4.157 4.735.933-2.154 1.246-4.672.466-6.806l-4.704-17.465c-.78-2.134-2.134-3.906-4.157-4.735-.934 2.153-1.246 4.672-.467 6.806"/><path fill="#2F2F31" d="m56.773 526.621-4.418-9.907 31.081-13.921 4.418 9.906z"/><path fill="#606062" d="m82.728 518.839-9.846-15.162c-1.066-2.006-1.48-4.2-.748-6.262 2.224.739 4.304 2.185 5.371 4.19l9.846 15.163c1.067 2.006 1.48 4.199.748 6.262-2.224-.739-4.304-2.185-5.371-4.191m-7.568 3.39-9.846-15.163c-1.067-2.006-1.48-4.199-.748-6.262 2.224.74 4.304 2.186 5.371 4.191l9.846 15.163c1.067 2.006 1.48 4.199.748 6.262-2.224-.739-4.304-2.186-5.371-4.191m-7.568 3.39-9.846-15.163c-1.067-2.006-1.48-4.199-.748-6.262 2.223.74 4.304 2.186 5.371 4.191l9.846 15.162c1.066 2.006 1.48 4.2.747 6.263-2.223-.739-4.303-2.186-5.37-4.192m-7.568 3.39-9.846-15.162c-1.067-2.006-1.48-4.199-.748-6.262 2.224.74 4.304 2.186 5.371 4.191l9.846 15.162c1.066 2.006 1.48 4.2.747 6.263-2.223-.74-4.303-2.186-5.37-4.192"/><path fill="#373739" d="M51.068 503.854c11.427-5.216 20.238-9.237 27.1-12.355l11.281 33.977a12398.16 12398.16 0 0 1-27.07 12.384l-11.31-34.006Zm85.253-60.262c-.059-.145-.117-.29-.175-.407-.698-1.69-1.425-3.176-2.151-4.43-6.368-10.956-28.437-29.984-48.296-37.21a45.144 45.144 0 0 0-4.77-1.545c-1.453.728-2.936 1.398-4.477 2.098l19.801 59.853c-15.381 7.023-27.797 12.676-37.857 17.28-.786.35-41.609 19-56.642 25.847-2.239 1.02-2.355 4.108-.232 5.304 13.637 7.663 49.604 30.363 58.414 60.99a54.839 54.839 0 0 1 1.484 6.818c3.024 20.98 10.35 28.411 16.864 30.567 6.397 2.127 12.037-.786 12.037-.786l3.606-11.015 6.368-19.349s2.268-13.025 8.693-29.84c4.159-10.927 10.061-23.486 18.26-35.084 18.436-26.05 14.888-54.666 9.073-69.09Z"/><path fill="#636365" d="M136.145 443.181c-6.386 3.938-15.985 7.936-23.233 2.61-9.57-7.04-22.504-33.978-27.207-44.255 19.84 7.249 41.926 26.252 48.281 37.215.73 1.253 1.46 2.73 2.159 4.43"/><path fill="#A1A1A1" d="m136.145 443.181-.704.51c-.456.333-1.137.82-2.042 1.381-.905.554-2.014 1.233-3.37 1.86-1.35.632-2.91 1.317-4.73 1.77-1.805.47-3.864.796-6.08.615-2.205-.163-4.58-.851-6.641-2.232l-.395-.246-.024-.015-.084-.066-.04-.033-.084-.067-.166-.134-.666-.538c-.446-.367-.9-.694-1.34-1.16-.442-.44-.888-.881-1.335-1.324-.46-.446-.804-.92-1.214-1.382-.39-.467-.798-.928-1.18-1.406l-1.11-1.458c-.76-.966-1.444-1.976-2.145-2.98-1.368-2.027-2.65-4.1-3.866-6.16-.626-1.02-1.2-2.059-1.758-3.09a117.637 117.637 0 0 1-1.64-3.051c-1.078-2.002-2.025-3.984-2.929-5.859l-1.292-2.742c-.396-.895-.78-1.76-1.146-2.59a161.775 161.775 0 0 1-3.323-8.118c-.386-.985-.649-1.778-.844-2.31l-.292-.82 1.655 2.886 4.285 7.621c1.77 3.149 3.844 6.81 6.108 10.696 1.114 1.953 2.346 3.921 3.561 5.935 1.223 2.01 2.512 4.02 3.862 5.975.668.982 1.32 1.977 2.034 2.91l1.047 1.416c.357.46.734.897 1.097 1.344.728.925 1.476 1.702 2.204 2.499.333.406.804.78 1.227 1.161l.645.566.257.229.319.213a12.475 12.475 0 0 0 5.449 2.192c1.9.273 3.781.177 5.501-.092 1.724-.272 3.287-.732 4.662-1.175a45.08 45.08 0 0 0 3.517-1.347c.957-.425 1.72-.753 2.227-1.007l.783-.377"/><path fill="#1C1C1E" d="M108.989 547.768c-6.426 16.813-8.694 29.839-8.694 29.839l-6.368 19.349-15.643 11.801c-6.513-2.156-13.84-9.587-16.864-30.567a54.87 54.87 0 0 0-1.483-6.82c11.66-2.855 34.223-9.82 49.052-23.602"/><path fill="#26282C" d="M85.69 883.007c-8.44.134-15.375-6.623-15.51-15.08-.118-8.457 6.624-15.408 15.063-15.542 8.439-.12 15.375 6.638 15.509 15.095.12 8.457-6.623 15.408-15.062 15.527Zm27.355-73.282-2.247-89.271-1.786-70.21-.67-26.445-1.056-41.855a5.725 5.725 0 0 0-5.805-5.594l-38.608.568a5.727 5.727 0 0 0-5.64 5.727l-.03 43.092-.015 26.327-.03 70.627-.045 62.468-.044 86.005c0 16.095 13.127 29.072 29.186 28.833 15.925-.239 28.62-13.395 28.338-29.355l-1.548-60.917Z"/><path fill="#6D6D6D" d="M60.246 582.898c17.177-1.743 25.83-1.977 43.035-1.173 1.531.072 2.926.658 4.038 1.539l-.033-1.32a5.724 5.724 0 0 0-5.805-5.593l-38.608.567a5.727 5.727 0 0 0-5.64 5.727l-.001 1.297c.896-.547 1.913-.933 3.014-1.044"/><path fill="#EC9C00" d="M93.608 651.601c.015.254.044.507.044.761 0 5.578-4.51 10.084-10.06 10.084-5.568 0-10.062-4.506-10.062-10.084v-.03a331.292 331.292 0 0 1-16.343-.268l.015-26.327c17.042.731 34.024.09 51.14-1.938l.67 26.445a382.203 382.203 0 0 1-15.404 1.357m19.438 158.124a7.565 7.565 0 0 1-2.233.329c-7.546 0-13.648-10.994-13.648-24.582 0-.343.014-.701.03-1.044a342.538 342.538 0 0 1-40.081.73l.044-62.467c17.86.775 35.676.03 53.64-2.237l2.248 89.271Z"/><path fill="#CC1441" d="M93.608 651.601c.015.254.044.507.044.761 0 5.578-4.51 10.084-10.06 10.084-5.568 0-10.062-4.506-10.062-10.084v-.03a331.292 331.292 0 0 1-16.343-.268l.015-26.327c17.042.731 34.024.09 51.14-1.938l.67 26.445a382.203 382.203 0 0 1-15.404 1.357m19.438 158.124a7.565 7.565 0 0 1-2.233.329c-7.546 0-13.648-10.994-13.648-24.582 0-.343.014-.701.03-1.044a342.538 342.538 0 0 1-40.081.73l.044-62.467c17.86.775 35.676.03 53.64-2.237l2.248 89.271Z"/><path fill="#A61035" d="M99.69 781.83c0-.344.018-.702.034-1.044-14.223.954-28.405 1.198-42.609.806l-.002 3.567c13.366.536 26.702.298 40.082-.731-.015.343-.03.701-.03 1.044 0 13.588 6.102 24.582 13.648 24.582.76 0 1.503-.105 2.233-.329l-.092-3.629c-7.514-1.804-13.264-11.955-13.264-24.266"/><path fill="#FFF" d="m67.438 592.98.718 227.142a4.464 4.464 0 0 0 4.382 4.453l3.923.068a4.464 4.464 0 0 0 4.533-4.56l-4.64-227.209a4.464 4.464 0 0 0-4.381-4.376 4.464 4.464 0 0 0-4.535 4.482" opacity=".25"/><path fill="#4C4C4E" d="M913.048 162.285c-26.66 12.168-44.05 20.09-55.417 25.282a202.149 202.149 0 0 1-5.5-24.758C842.076 100.077 864.389 55.23 864.389 55.23s4.504-1.573 11.89-4.196l24.88 75.269 11.89 35.982Z"/><path fill="#29292B" d="M913.048 162.285c-26.66 12.168-44.05 20.09-55.417 25.282a202.149 202.149 0 0 1-5.5-24.758c14.142-8.077 33.104-20.508 49.027-36.506l11.89 35.982Z"/><path fill="#3C3C3E" d="m961.105 187.596 8.476 31.437c1.404 3.842 3.844 7.031 7.488 8.523 1.682-3.875 2.244-8.41.84-12.251l-8.475-31.437c-1.406-3.841-3.845-7.03-7.49-8.521-1.68 3.874-2.243 8.407-.839 12.25m13.633-6.102 8.476 31.436c1.405 3.842 3.844 7.032 7.488 8.523 1.682-3.874 2.244-8.409.84-12.25l-8.475-31.437c-1.405-3.842-3.845-7.031-7.489-8.523-1.68 3.876-2.244 8.409-.84 12.25m-27.266 12.204 8.476 31.437c1.404 3.842 3.843 7.031 7.488 8.523 1.682-3.876 2.244-8.41.84-12.251L955.8 189.97c-1.406-3.841-3.845-7.03-7.49-8.523-1.68 3.876-2.244 8.41-.84 12.251M933.84 199.8l8.474 31.436c1.406 3.842 3.845 7.032 7.49 8.524 1.68-3.876 2.243-8.41.84-12.251l-8.475-31.437c-1.406-3.842-3.845-7.031-7.49-8.523-1.682 3.876-2.244 8.409-.84 12.25"/><path fill="#2F2F31" d="m934.272 227.918-7.959-17.832 55.99-25.059 7.958 17.832z"/><path fill="#606062" d="m981.028 213.91-17.738-27.292c-1.92-3.61-2.666-7.558-1.346-11.272 4.005 1.33 7.753 3.933 9.675 7.544l17.736 27.292c1.922 3.61 2.668 7.558 1.348 11.272-4.005-1.33-7.754-3.934-9.675-7.544m-13.634 6.101-17.736-27.291c-1.921-3.611-2.667-7.559-1.347-11.272 4.005 1.33 7.753 3.933 9.675 7.544l17.737 27.292c1.92 3.61 2.666 7.558 1.346 11.273-4.005-1.33-7.753-3.935-9.675-7.546m-13.633 6.102-17.736-27.292c-1.922-3.61-2.667-7.558-1.347-11.271 4.005 1.33 7.753 3.934 9.675 7.543l17.737 27.292c1.92 3.611 2.666 7.559 1.346 11.273-4.005-1.33-7.753-3.934-9.675-7.545m-13.633 6.102-17.736-27.292c-1.922-3.61-2.668-7.558-1.347-11.272 4.006 1.33 7.753 3.935 9.674 7.544l17.738 27.292c1.92 3.61 2.666 7.558 1.346 11.273-4.005-1.33-7.753-3.935-9.675-7.545"/><path fill="#373739" d="M923.996 186.937a34708.85 34708.85 0 0 1 48.816-22.24l20.324 61.16a22342.764 22342.764 0 0 1-48.766 22.291l-20.374-61.211Zm153.575-108.47c-.106-.262-.21-.525-.315-.735-1.258-3.042-2.567-5.716-3.875-7.972-11.472-19.722-51.228-53.973-87.002-66.98-2.881-1.102-5.763-2.046-8.591-2.78-2.62 1.31-5.29 2.517-8.065 3.776l35.67 107.736c-27.71 12.64-50.074 22.816-68.198 31.104-1.415.63-74.954 34.199-102.034 46.524-4.034 1.836-4.243 7.395-.42 9.547 24.567 13.794 89.359 54.654 105.23 109.781a98.643 98.643 0 0 1 2.671 12.274c5.448 37.764 18.647 51.14 30.38 55.02 11.524 3.83 21.685-1.414 21.685-1.414l6.495-19.828 11.472-34.827s4.084-23.446 15.66-53.711c7.49-19.67 18.123-42.276 32.894-63.152 33.21-46.891 26.818-98.4 16.343-124.364Z"/><path fill="#636365" d="M1077.254 77.726c-11.503 7.089-28.796 14.284-41.852 4.699-17.24-12.673-40.54-61.162-49.012-79.66 35.74 13.047 75.527 47.254 86.976 66.987 1.314 2.255 2.627 4.913 3.888 7.974"/><path fill="#A1A1A1" d="m1077.254 77.726-1.268.92a57.46 57.46 0 0 1-3.678 2.484c-1.631.998-3.629 2.218-6.07 3.348-2.433 1.137-5.245 2.371-8.52 3.186-3.254.845-6.963 1.432-10.956 1.107-3.97-.293-8.25-1.532-11.962-4.018l-.711-.442-.045-.028-.15-.118-.073-.06-.15-.12-.3-.241-1.2-.97c-.803-.66-1.62-1.249-2.412-2.088-.797-.791-1.6-1.585-2.407-2.383-.827-.803-1.447-1.655-2.185-2.487-.705-.84-1.439-1.67-2.126-2.53l-2-2.626c-1.368-1.737-2.601-3.556-3.864-5.362-2.464-3.65-4.774-7.38-6.965-11.089-1.128-1.837-2.163-3.706-3.166-5.56a211.683 211.683 0 0 1-2.953-5.495c-1.943-3.602-3.65-7.171-5.278-10.545l-2.327-4.937-2.066-4.66c-2.632-5.982-4.645-11.044-5.985-14.614-.696-1.773-1.169-3.199-1.521-4.158-.342-.963-.526-1.475-.526-1.475l2.982 5.194c1.864 3.31 4.526 8.04 7.72 13.718a1429.45 1429.45 0 0 0 11.002 19.253c2.007 3.516 4.227 7.058 6.415 10.683a220.764 220.764 0 0 0 6.958 10.755c1.202 1.768 2.378 3.56 3.664 5.237l1.885 2.55c.644.828 1.323 1.615 1.977 2.42 1.31 1.665 2.658 3.062 3.97 4.497.6.731 1.448 1.405 2.21 2.09l1.161 1.02.464.41.574.385a22.484 22.484 0 0 0 9.816 3.946c3.423.491 6.812.317 9.91-.167 3.106-.488 5.921-1.318 8.398-2.114 2.473-.82 4.596-1.685 6.336-2.425 1.723-.765 3.098-1.355 4.012-1.813l1.41-.678"/><path fill="#1C1C1E" d="M1028.334 265.982c-11.575 30.264-15.661 53.71-15.661 53.71l-11.471 34.829-28.18 21.242c-11.732-3.882-24.933-17.256-30.379-55.022a98.699 98.699 0 0 0-2.672-12.274c21.004-5.14 61.65-17.676 88.363-42.485"/><path fill="#26282C" d="M986.363 869.413c-15.202.242-27.696-11.921-27.938-27.143-.214-15.224 11.932-27.736 27.134-27.977 15.201-.214 27.696 11.948 27.937 27.17.215 15.224-11.93 27.736-27.133 27.95Zm49.279-131.908-4.048-160.688-3.218-126.377-1.206-47.603-1.903-75.338a10.309 10.309 0 0 0-10.458-10.069l-69.548 1.022c-5.63.08-10.16 4.671-10.16 10.31l-.055 77.565-.027 47.388-.054 127.13-.08 112.44-.08 154.81c0 28.97 23.647 52.33 52.576 51.9 28.688-.43 51.558-24.111 51.05-52.84l-2.79-109.65Z"/><path fill="#6D6D6D" d="M940.529 329.217c30.942-3.137 46.531-3.56 77.523-2.112 2.759.13 5.271 1.185 7.274 2.77l-.06-2.376a10.307 10.307 0 0 0-10.456-10.068l-69.55 1.02c-5.63.08-10.16 4.672-10.16 10.31l-.002 2.334c1.616-.983 3.448-1.679 5.43-1.878"/><path fill="#EC9C00" d="M1000.627 452.883c.027.456.08.912.08 1.369 0 10.04-8.124 18.15-18.124 18.15-10.029 0-18.125-8.11-18.125-18.15v-.054c-9.813.08-19.625-.08-29.44-.483l.027-47.388c30.7 1.316 61.292.161 92.124-3.49l1.208 47.603c-9.25.993-18.5 1.826-27.75 2.443m35.015 284.623a13.637 13.637 0 0 1-4.022.59c-13.592 0-24.585-19.787-24.585-44.246 0-.617.026-1.263.053-1.88a617.538 617.538 0 0 1-72.203 1.316l.08-112.443c32.174 1.396 64.267.054 96.628-4.026l4.05 160.689Z"/><path fill="#CC1441" d="M1000.627 452.883c.027.456.08.912.08 1.369 0 10.04-8.124 18.15-18.124 18.15-10.029 0-18.125-8.11-18.125-18.15v-.054c-9.813.08-19.625-.08-29.44-.483l.027-47.388c30.7 1.316 61.292.161 92.124-3.49l1.208 47.603c-9.25.993-18.5 1.826-27.75 2.443m35.015 284.623a13.637 13.637 0 0 1-4.022.59c-13.592 0-24.585-19.787-24.585-44.246 0-.617.026-1.263.053-1.88a617.538 617.538 0 0 1-72.203 1.316l.08-112.443c32.174 1.396 64.267.054 96.628-4.026l4.05 160.689Z"/><path fill="#A61035" d="M1011.584 687.293c0-.618.031-1.262.061-1.879-25.623 1.718-51.169 2.158-76.756 1.45l-.004 6.423c24.077.965 48.1.536 72.204-1.317a43.562 43.562 0 0 0-.055 1.88c0 24.458 10.993 44.246 24.587 44.246 1.367 0 2.707-.188 4.022-.59l-.166-6.532c-13.535-3.248-23.893-21.52-23.893-43.68"/><path fill="#FFF" d="m953.485 347.364 1.293 408.855c.014 4.379 3.523 7.941 7.894 8.017l7.066.12c4.552.078 8.26-3.647 8.166-8.205l-8.359-408.977a8.039 8.039 0 0 0-7.892-7.878c-4.498-.076-8.183 3.562-8.168 8.068" opacity=".25"/><path fill="#4C4C4E" d="M219.926 408.19c-17.74 8.112-29.31 13.393-36.873 16.854a134.994 134.994 0 0 1-3.658-16.505c-6.692-41.82 8.155-71.719 8.155-71.719s2.996-1.049 7.91-2.797l16.554 50.179 7.912 23.988Z"/><path fill="#29292B" d="M219.926 408.19c-17.74 8.112-29.31 13.393-36.873 16.854a134.994 134.994 0 0 1-3.658-16.505c9.409-5.384 22.025-13.671 32.62-24.337l7.91 23.988Z"/><path fill="#3C3C3E" d="m251.9 425.064 5.64 20.958c.934 2.561 2.558 4.687 4.982 5.682 1.12-2.583 1.493-5.606.559-8.167l-5.639-20.958c-.935-2.561-2.558-4.687-4.983-5.681-1.118 2.583-1.493 5.605-.558 8.166m9.07-4.068 5.64 20.958c.934 2.561 2.557 4.688 4.982 5.682 1.12-2.583 1.493-5.606.559-8.167l-5.639-20.958c-.935-2.561-2.558-4.687-4.983-5.682-1.118 2.584-1.493 5.606-.558 8.167m-18.142 8.136 5.64 20.958c.934 2.561 2.557 4.687 4.981 5.682 1.12-2.584 1.493-5.606.559-8.167l-5.639-20.958c-.935-2.561-2.558-4.688-4.983-5.682-1.118 2.584-1.493 5.606-.558 8.167m-9.071 4.068 5.638 20.958c.936 2.56 2.559 4.687 4.983 5.682 1.119-2.584 1.493-5.606.56-8.168l-5.64-20.957c-.935-2.562-2.558-4.688-4.982-5.682-1.12 2.584-1.494 5.606-.56 8.167"/><path fill="#2F2F31" d="m234.047 451.945-5.295-11.888 37.253-16.706 5.295 11.888z"/><path fill="#606062" d="m265.156 442.606-11.801-18.194c-1.278-2.407-1.774-5.039-.896-7.515 2.665.887 5.159 2.623 6.437 5.03l11.801 18.194c1.279 2.407 1.775 5.04.896 7.515-2.664-.886-5.158-2.622-6.437-5.03m-9.07 4.068-11.801-18.194c-1.28-2.407-1.775-5.04-.897-7.515 2.665.887 5.159 2.622 6.437 5.03l11.802 18.194c1.278 2.407 1.774 5.039.895 7.516-2.664-.888-5.158-2.624-6.437-5.03m-9.07 4.067-11.801-18.195c-1.28-2.407-1.775-5.038-.897-7.514 2.665.887 5.159 2.623 6.437 5.03l11.802 18.194c1.278 2.407 1.774 5.039.895 7.515-2.664-.887-5.158-2.623-6.437-5.03m-9.07 4.068-11.801-18.195c-1.28-2.407-1.775-5.039-.897-7.514 2.666.887 5.159 2.623 6.437 5.029l11.802 18.195c1.278 2.407 1.774 5.038.896 7.515-2.665-.887-5.159-2.623-6.438-5.03"/><path fill="#373739" d="M227.21 424.625a23072.296 23072.296 0 0 1 32.48-14.826l13.522 40.772a14852.053 14852.053 0 0 1-32.446 14.861l-13.556-40.807Zm102.182-72.314c-.07-.174-.14-.35-.21-.49-.837-2.028-1.707-3.81-2.578-5.314-7.633-13.148-34.085-35.982-57.887-44.654A54.063 54.063 0 0 0 263 300c-1.743.874-3.52 1.678-5.367 2.518l23.733 71.823c-18.436 8.427-33.316 15.21-45.375 20.736-.941.42-49.871 22.8-67.89 31.016-2.683 1.224-2.822 4.93-.278 6.365 16.345 9.196 59.455 36.436 70.015 73.188a65.874 65.874 0 0 1 1.777 8.182c3.625 25.176 12.407 34.094 20.213 36.68 7.668 2.553 14.429-.943 14.429-.943l4.322-13.218 7.632-23.218s2.718-15.63 10.42-35.808c4.983-13.113 12.058-28.184 21.886-42.1 22.096-31.262 17.843-65.6 10.874-82.91Z"/><path fill="#636365" d="M329.18 351.817c-7.653 4.726-19.158 9.523-27.846 3.133-11.47-8.448-26.972-40.774-32.61-53.107 23.78 8.699 50.252 31.503 57.87 44.659.874 1.502 1.748 3.275 2.587 5.315"/><path fill="#A1A1A1" d="m329.18 351.817-.843.613a38.23 38.23 0 0 1-2.447 1.656c-1.085.666-2.414 1.48-4.04 2.232-1.618.759-3.488 1.581-5.668 2.125-2.165.563-4.632.954-7.29.737-2.641-.195-5.488-1.02-7.958-2.678l-.473-.295-.03-.018-.1-.079-.049-.04-.1-.08-.199-.16-.798-.647c-.534-.44-1.078-.833-1.605-1.393-.53-.527-1.065-1.056-1.602-1.588-.55-.535-.962-1.103-1.454-1.658-.468-.56-.957-1.114-1.414-1.687l-1.33-1.75c-.91-1.158-1.731-2.371-2.572-3.575a145.236 145.236 0 0 1-4.634-7.393 78.324 78.324 0 0 1-2.107-3.707 141.221 141.221 0 0 1-1.964-3.662c-1.293-2.402-2.429-4.781-3.512-7.03l-1.548-3.292-1.375-3.106a194.261 194.261 0 0 1-3.982-9.743c-.463-1.182-.778-2.133-1.012-2.773l-.35-.983 1.984 3.463 5.136 9.146a953.444 953.444 0 0 0 7.32 12.835c1.336 2.344 2.813 4.705 4.27 7.122a147.21 147.21 0 0 0 4.629 7.17c.8 1.178 1.582 2.373 2.437 3.491l1.255 1.7c.428.552.88 1.076 1.315 1.613.872 1.11 1.768 2.042 2.641 2.998.4.488.964.937 1.471 1.394l.773.68.308.274.382.256a14.943 14.943 0 0 0 6.531 2.63c2.278.328 4.533.212 6.594-.111 2.066-.326 3.94-.879 5.587-1.41a53.993 53.993 0 0 0 4.216-1.616c1.147-.51 2.061-.903 2.67-1.209l.938-.452"/><path fill="#1C1C1E" d="M296.632 477.321c-7.702 20.177-10.42 35.807-10.42 35.807l-7.633 23.22-18.75 14.16c-7.805-2.587-16.588-11.503-20.212-36.68a65.91 65.91 0 0 0-1.778-8.183c13.975-3.427 41.019-11.784 58.793-28.324"/><path fill="#26282C" d="M268.706 879.609c-10.115.16-18.427-7.948-18.589-18.096-.142-10.149 7.94-18.49 18.054-18.651 10.114-.143 18.428 7.965 18.588 18.113.143 10.15-7.938 18.491-18.053 18.634Zm32.788-87.939L298.8 684.544l-2.141-84.25-.803-31.736-1.266-50.225a6.865 6.865 0 0 0-6.958-6.713l-46.274.681c-3.746.054-6.76 3.115-6.76 6.873l-.037 51.71-.018 31.593-.036 84.752-.053 74.961-.053 103.207c0 19.313 15.733 34.886 34.982 34.6 19.087-.287 34.304-16.075 33.965-35.227l-1.855-73.1Z"/><path fill="#6D6D6D" d="M238.21 519.478c20.588-2.091 30.96-2.373 51.58-1.408 1.836.087 3.508.79 4.84 1.846l-.04-1.583a6.864 6.864 0 0 0-6.957-6.712l-46.274.68c-3.746.053-6.761 3.114-6.761 6.873l-.001 1.556c1.075-.656 2.294-1.119 3.613-1.252"/><path fill="#EC9C00" d="M278.197 601.922c.018.304.053.608.053.913 0 6.694-5.405 12.1-12.059 12.1-6.672 0-12.06-5.406-12.06-12.1v-.037c-6.529.055-13.057-.053-19.587-.321l.018-31.592c20.426.877 40.78.107 61.295-2.327l.803 31.735a457.573 457.573 0 0 1-18.463 1.629m23.297 189.748a9.057 9.057 0 0 1-2.676.395c-9.044 0-16.358-13.192-16.358-29.499 0-.41.018-.841.036-1.252a410.075 410.075 0 0 1-48.04.876l.052-74.961c21.408.93 42.76.036 64.292-2.684l2.694 107.125Z"/><path fill="#CC1441" d="M278.197 601.922c.018.304.053.608.053.913 0 6.694-5.405 12.1-12.059 12.1-6.672 0-12.06-5.406-12.06-12.1v-.037c-6.529.055-13.057-.053-19.587-.321l.018-31.592c20.426.877 40.78.107 61.295-2.327l.803 31.735a457.573 457.573 0 0 1-18.463 1.629m23.297 189.748a9.057 9.057 0 0 1-2.676.395c-9.044 0-16.358-13.192-16.358-29.499 0-.41.018-.841.036-1.252a410.075 410.075 0 0 1-48.04.876l.052-74.961c21.408.93 42.76.036 64.292-2.684l2.694 107.125Z"/><path fill="#A61035" d="M285.487 758.195c0-.412.02-.841.04-1.252-17.048 1.145-34.045 1.438-51.07.967l-.002 4.281c16.02.644 32.004.358 48.04-.877-.017.412-.035.84-.035 1.252 0 16.306 7.314 29.498 16.359 29.498.91 0 1.801-.125 2.676-.394l-.11-4.354c-9.006-2.166-15.898-14.347-15.898-29.12"/><path fill="#FFF" d="m246.83 531.576.86 272.57c.01 2.92 2.345 5.294 5.253 5.345l4.702.08c3.028.052 5.495-2.431 5.433-5.47l-5.562-272.652a5.354 5.354 0 0 0-5.251-5.252c-2.993-.05-5.444 2.375-5.435 5.379" opacity=".25"/><path fill="#4C4C4E" d="M653.795 244.253c-23.617 10.817-39.021 17.857-49.09 22.473a180.22 180.22 0 0 1-4.872-22.007c-8.909-55.761 10.858-95.625 10.858-95.625s3.99-1.399 10.531-3.73l22.04 66.905 10.533 31.984Z"/><path fill="#29292B" d="M653.795 244.253c-23.617 10.817-39.021 17.857-49.09 22.473a180.22 180.22 0 0 1-4.872-22.007c12.527-7.179 29.324-18.229 43.429-32.45l10.533 31.984Z"/><path fill="#3C3C3E" d="m696.365 266.752 7.508 27.944c1.244 3.415 3.405 6.25 6.633 7.576 1.49-3.444 1.988-7.475.744-10.89l-7.507-27.943c-1.245-3.415-3.406-6.25-6.634-7.575-1.49 3.444-1.988 7.473-.744 10.888m12.076-5.423 7.509 27.943c1.244 3.415 3.404 6.25 6.633 7.576 1.49-3.444 1.987-7.474.743-10.89l-7.506-27.943c-1.246-3.415-3.407-6.25-6.635-7.576-1.489 3.445-1.988 7.475-.744 10.89m-24.153 10.847 7.508 27.944c1.244 3.415 3.405 6.25 6.633 7.576 1.49-3.445 1.988-7.475.744-10.89l-7.507-27.943c-1.245-3.415-3.406-6.25-6.634-7.577-1.49 3.446-1.988 7.475-.744 10.89m-12.077 5.424 7.507 27.943c1.246 3.415 3.406 6.25 6.635 7.577 1.489-3.446 1.987-7.475.743-10.89l-7.506-27.944c-1.246-3.415-3.407-6.25-6.635-7.576-1.49 3.446-1.988 7.475-.744 10.89"/><path fill="#2F2F31" d="m672.595 302.593-7.05-15.85 49.597-22.275 7.05 15.851z"/><path fill="#606062" d="m714.013 290.142-15.713-24.26c-1.7-3.209-2.361-6.718-1.192-10.019 3.548 1.183 6.868 3.497 8.57 6.706l15.711 24.26c1.703 3.209 2.363 6.718 1.194 10.019-3.548-1.182-6.868-3.497-8.57-6.706m-12.077 5.424-15.711-24.26c-1.702-3.21-2.363-6.718-1.193-10.019 3.547 1.183 6.867 3.496 8.57 6.706l15.712 24.26c1.701 3.209 2.362 6.718 1.192 10.02-3.547-1.183-6.868-3.498-8.57-6.707m-12.077 5.423-15.71-24.259c-1.703-3.21-2.364-6.718-1.194-10.02 3.547 1.183 6.868 3.498 8.57 6.706l15.712 24.26c1.701 3.21 2.362 6.718 1.193 10.02-3.548-1.182-6.868-3.497-8.57-6.707m-12.078 5.424-15.71-24.26c-1.703-3.209-2.363-6.718-1.194-10.019 3.549 1.183 6.868 3.498 8.57 6.706l15.713 24.26c1.7 3.209 2.361 6.718 1.192 10.02-3.548-1.183-6.868-3.498-8.57-6.707"/><path fill="#373739" d="M663.492 266.166c18.234-8.345 32.293-14.78 43.243-19.768l18.003 54.363a19759.678 19759.678 0 0 1-43.197 19.815l-18.049-54.41Zm136.041-96.418c-.093-.232-.185-.466-.279-.653-1.114-2.704-2.273-5.08-3.433-7.086-10.161-17.53-45.378-47.976-77.068-59.538-2.552-.98-5.105-1.819-7.61-2.471-2.32 1.165-4.686 2.237-7.145 3.357l31.598 95.765c-24.545 11.236-44.357 20.28-60.412 27.647-1.252.56-66.396 30.4-90.384 41.355-3.573 1.632-3.759 6.574-.372 8.487 21.762 12.261 79.156 48.58 93.215 97.583a87.944 87.944 0 0 1 2.367 10.91c4.826 33.568 16.518 45.458 26.91 48.907 10.21 3.404 19.21-1.257 19.21-1.257l5.754-17.625 10.162-30.957s3.618-20.841 13.872-47.744c6.635-17.484 16.054-37.578 29.138-56.135 29.418-41.68 23.756-87.466 14.477-110.545Z"/><path fill="#636365" d="M799.252 169.09c-10.19 6.3-25.507 12.697-37.073 4.176-15.272-11.264-35.91-54.365-43.416-70.808 31.659 11.598 66.904 42.003 77.045 59.544 1.165 2.004 2.328 4.367 3.444 7.088"/><path fill="#A1A1A1" d="m799.252 169.09-1.122.817a50.893 50.893 0 0 1-3.259 2.208c-1.445.887-3.214 1.972-5.377 2.976-2.155 1.012-4.646 2.108-7.548 2.833-2.882.751-6.167 1.273-9.704.983-3.517-.26-7.308-1.361-10.596-3.57l-.63-.394-.04-.024-.132-.106-.066-.053-.133-.107-.265-.214-1.063-.862c-.711-.587-1.435-1.11-2.137-1.856-.706-.704-1.417-1.41-2.132-2.119-.732-.713-1.282-1.47-1.936-2.21-.624-.746-1.274-1.485-1.883-2.249l-1.77-2.334c-1.213-1.544-2.305-3.161-3.424-4.766-2.183-3.244-4.229-6.56-6.17-9.857-.999-1.634-1.916-3.295-2.805-4.943-.91-1.639-1.78-3.27-2.615-4.884-1.722-3.201-3.234-6.374-4.676-9.373l-2.06-4.388c-.634-1.432-1.245-2.815-1.83-4.143a259.235 259.235 0 0 1-5.303-12.99c-.616-1.576-1.035-2.844-1.347-3.697-.303-.855-.466-1.31-.466-1.31l2.642 4.616 6.837 12.195a1271.74 1271.74 0 0 0 9.746 17.113c1.779 3.126 3.745 6.274 5.684 9.497a196.313 196.313 0 0 0 6.163 9.56c1.064 1.57 2.106 3.163 3.245 4.654l1.67 2.267c.571.736 1.172 1.435 1.752 2.151 1.16 1.48 2.354 2.722 3.516 3.998.532.65 1.283 1.248 1.959 1.857l1.028.907.41.365.51.341a19.878 19.878 0 0 0 8.694 3.508c3.033.437 6.035.282 8.78-.148 2.75-.434 5.244-1.172 7.438-1.88a71.818 71.818 0 0 0 5.612-2.155c1.527-.68 2.745-1.204 3.554-1.611l1.25-.603"/><path fill="#1C1C1E" d="M755.918 336.428c-10.254 26.902-13.873 47.743-13.873 47.743l-10.162 30.958-24.962 18.883c-10.392-3.45-22.086-15.34-26.91-48.909a87.994 87.994 0 0 0-2.367-10.91c18.605-4.568 54.61-15.712 78.274-37.765"/><path fill="#26282C" d="M718.74 872.812c-13.468.214-24.535-10.597-24.75-24.128-.189-13.532 10.57-24.654 24.037-24.868 13.465-.19 24.534 10.62 24.747 24.151.19 13.532-10.568 24.654-24.035 24.845ZM762.39 755.56l-3.585-142.834-2.85-112.335-1.07-42.313-1.685-66.968c-.119-5.035-4.251-9.02-9.264-8.95l-61.607.908c-4.988.071-9.001 4.153-9.001 9.164l-.048 68.947-.024 42.123-.048 113.004-.07 99.948-.072 137.608c0 25.752 20.948 46.515 46.574 46.133 25.413-.382 45.671-21.432 45.22-46.968l-2.47-97.467Z"/><path fill="#6D6D6D" d="M678.138 392.637c27.41-2.788 41.218-3.164 68.672-1.877 2.444.115 4.67 1.053 6.444 2.462l-.054-2.112c-.118-5.035-4.25-9.02-9.262-8.95l-61.609.908c-4.987.071-9 4.153-9 9.164l-.002 2.075c1.431-.874 3.054-1.492 4.81-1.67"/><path fill="#EC9C00" d="M731.374 502.562c.024.406.07.811.07 1.217 0 8.926-7.195 16.134-16.054 16.134-8.883 0-16.055-7.208-16.055-16.134v-.048a527.257 527.257 0 0 1-26.079-.429l.024-42.123c27.195 1.17 54.294.144 81.606-3.101l1.07 42.313a608.313 608.313 0 0 1-24.582 2.171m31.018 252.999a12.041 12.041 0 0 1-3.563.525c-12.04 0-21.778-17.59-21.778-39.33 0-.55.023-1.123.047-1.67a545.153 545.153 0 0 1-63.96 1.168l.071-99.95c28.501 1.242 56.93.05 85.596-3.578l3.587 142.835Z"/><path fill="#CC1441" d="M731.374 502.562c.024.406.07.811.07 1.217 0 8.926-7.195 16.134-16.054 16.134-8.883 0-16.055-7.208-16.055-16.134v-.048a527.257 527.257 0 0 1-26.079-.429l.024-42.123c27.195 1.17 54.294.144 81.606-3.101l1.07 42.313a608.313 608.313 0 0 1-24.582 2.171m31.018 252.999a12.041 12.041 0 0 1-3.563.525c-12.04 0-21.778-17.59-21.778-39.33 0-.55.023-1.123.047-1.67a545.153 545.153 0 0 1-63.96 1.168l.071-99.95c28.501 1.242 56.93.05 85.596-3.578l3.587 142.835Z"/><path fill="#A61035" d="M741.08 710.927c0-.55.028-1.122.054-1.67-22.697 1.527-45.326 1.918-67.992 1.29l-.004 5.708a545.17 545.17 0 0 0 63.96-1.17c-.024.55-.048 1.122-.048 1.67 0 21.741 9.737 39.33 21.78 39.33 1.21 0 2.398-.167 3.562-.525l-.146-5.806c-11.99-2.887-21.166-19.128-21.166-38.827"/><path fill="#FFF" d="m689.614 408.768 1.146 363.427c.013 3.892 3.12 7.058 6.993 7.126l6.259.107c4.033.07 7.316-3.242 7.234-7.294l-7.405-363.535c-.078-3.843-3.166-6.935-6.991-7.003-3.985-.067-7.248 3.167-7.236 7.172" opacity=".25"/><path fill="#4C4C4E" d="M422.86 326.222c-20.678 9.464-34.165 15.625-42.981 19.663a157.607 157.607 0 0 1-4.265-19.256c-7.8-48.791 9.506-83.672 9.506-83.672s3.493-1.224 9.221-3.264l19.297 58.542 9.222 27.987Z"/><path fill="#29292B" d="M422.86 326.222c-20.678 9.464-34.165 15.625-42.981 19.663a157.607 157.607 0 0 1-4.265-19.256c10.968-6.282 25.675-15.95 38.024-28.394l9.222 27.987Z"/><path fill="#3C3C3E" d="m460.133 345.908 6.573 24.45c1.09 2.989 2.982 5.47 5.808 6.63 1.305-3.014 1.74-6.54.651-9.529l-6.572-24.45c-1.09-2.988-2.983-5.468-5.809-6.628-1.304 3.013-1.74 6.539-.651 9.527m10.574-4.745 6.573 24.45c1.09 2.988 2.981 5.469 5.808 6.63 1.305-3.014 1.74-6.541.651-9.53l-6.573-24.45c-1.09-2.988-2.982-5.469-5.808-6.63-1.304 3.016-1.74 6.541-.651 9.53m-21.148 9.491 6.574 24.45c1.089 2.989 2.98 5.47 5.807 6.63 1.305-3.015 1.74-6.54.651-9.529l-6.572-24.45c-1.09-2.988-2.983-5.47-5.809-6.63-1.304 3.015-1.74 6.541-.651 9.53m-10.574 4.745 6.573 24.45c1.09 2.989 2.982 5.47 5.808 6.63 1.304-3.015 1.74-6.54.652-9.529l-6.573-24.45c-1.09-2.989-2.982-5.47-5.809-6.63-1.304 3.015-1.74 6.54-.65 9.529"/><path fill="#2F2F31" d="m439.321 377.269-6.172-13.869 43.424-19.49 6.173 13.869z"/><path fill="#606062" d="m475.584 366.374-13.757-21.227c-1.489-2.808-2.067-5.878-1.043-8.767 3.106 1.035 6.013 3.06 7.503 5.868l13.756 21.227c1.49 2.808 2.07 5.878 1.045 8.767-3.106-1.034-6.013-3.06-7.504-5.868m-10.573 4.746-13.756-21.227c-1.49-2.808-2.07-5.879-1.045-8.767 3.106 1.035 6.013 3.06 7.504 5.868l13.756 21.227c1.49 2.808 2.068 5.878 1.044 8.768-3.106-1.035-6.013-3.06-7.503-5.869m-10.574 4.746-13.756-21.227c-1.49-2.809-2.069-5.879-1.045-8.767 3.106 1.035 6.013 3.06 7.504 5.867l13.757 21.227c1.49 2.809 2.067 5.879 1.043 8.768-3.106-1.035-6.013-3.06-7.503-5.868m-10.574 4.745-13.756-21.227c-1.49-2.808-2.069-5.878-1.045-8.766 3.107 1.034 6.013 3.06 7.504 5.867l13.757 21.227c1.49 2.808 2.068 5.879 1.044 8.768-3.106-1.035-6.014-3.06-7.504-5.869"/><path fill="#373739" d="M431.35 345.395a26882.39 26882.39 0 0 1 37.863-17.297l15.762 47.568a17306.016 17306.016 0 0 1-37.822 17.338l-15.802-47.609Zm119.112-84.366c-.081-.203-.162-.407-.244-.57-.975-2.367-1.99-4.447-3.005-6.201-8.897-15.34-39.732-41.979-67.478-52.096a62.983 62.983 0 0 0-6.663-2.162c-2.032 1.02-4.103 1.958-6.256 2.937l27.666 83.794c-21.491 9.832-38.837 17.746-52.894 24.192-1.097.49-58.134 26.6-79.137 36.186-3.128 1.428-3.29 5.752-.325 7.425 19.054 10.73 69.306 42.509 81.615 85.386a76.909 76.909 0 0 1 2.072 9.546c4.225 29.372 14.463 39.776 23.562 42.794 8.938 2.978 16.819-1.1 16.819-1.1l5.038-15.422 8.897-27.088s3.168-18.235 12.146-41.775c5.81-15.299 14.056-32.881 25.512-49.118 25.757-36.471 20.8-76.533 12.675-96.728Z"/><path fill="#636365" d="M550.216 260.454c-8.921 5.513-22.333 11.11-32.46 3.654-13.37-9.856-31.441-47.57-38.013-61.958 27.72 10.149 58.579 36.753 67.458 52.102 1.02 1.753 2.038 3.82 3.015 6.202"/><path fill="#A1A1A1" d="m550.216 260.454-.983.715a44.561 44.561 0 0 1-2.853 1.932c-1.265.776-2.814 1.725-4.708 2.604-1.886.885-4.067 1.844-6.608 2.478-2.523.658-5.4 1.114-8.497.86-3.08-.227-6.398-1.19-9.277-3.124l-.552-.344-.034-.021-.116-.092-.058-.047-.116-.093-.232-.188-.931-.754c-.623-.514-1.256-.972-1.871-1.625-.618-.615-1.24-1.232-1.867-1.853-.641-.624-1.122-1.287-1.695-1.934-.546-.653-1.116-1.3-1.649-1.968l-1.55-2.042c-1.061-1.351-2.018-2.766-2.998-4.17-1.91-2.839-3.702-5.74-5.401-8.625-.875-1.43-1.678-2.883-2.456-4.326-.796-1.433-1.56-2.86-2.29-4.273-1.507-2.801-2.831-5.577-4.094-8.201l-1.804-3.84-1.603-3.625a226.748 226.748 0 0 1-4.642-11.366c-.54-1.379-.907-2.488-1.18-3.235-.265-.748-.408-1.147-.408-1.147l2.314 4.04c1.445 2.575 3.51 6.254 5.986 10.67 2.473 4.409 5.371 9.534 8.534 14.974 1.556 2.735 3.278 5.49 4.975 8.31a171.762 171.762 0 0 0 5.397 8.365c.932 1.374 1.844 2.768 2.841 4.073l1.462 1.983c.5.644 1.026 1.256 1.534 1.882 1.016 1.295 2.061 2.382 3.078 3.498.466.569 1.124 1.093 1.716 1.626l.9.793.359.32.446.298a17.41 17.41 0 0 0 7.613 3.07c2.655.381 5.283.246 7.686-.13 2.408-.38 4.592-1.026 6.513-1.645a62.905 62.905 0 0 0 4.914-1.886c1.337-.595 2.403-1.054 3.112-1.41l1.093-.527"/><path fill="#1C1C1E" d="M512.275 406.875c-8.978 23.539-12.147 41.774-12.147 41.774l-8.897 27.09-21.856 16.521c-9.099-3.019-19.337-13.421-23.561-42.795a76.953 76.953 0 0 0-2.073-9.546c16.29-3.997 47.815-13.748 68.534-33.044"/><path fill="#26282C" d="M479.723 876.21c-11.791.188-21.481-9.272-21.67-21.111-.165-11.84 9.255-21.573 21.046-21.76 11.79-.167 21.48 9.293 21.668 21.132.167 11.84-9.253 21.573-21.044 21.74Zm38.22-102.595-3.14-124.98-2.495-98.293-.936-37.024-1.476-58.596c-.104-4.407-3.722-7.893-8.111-7.832l-53.94.795c-4.367.062-7.882 3.633-7.882 8.018l-.042 60.329-.02 36.857-.043 98.879-.061 87.454-.062 120.407c0 22.533 18.34 40.701 40.777 40.367 22.25-.334 39.988-18.753 39.593-41.097l-2.162-85.284Z"/><path fill="#6D6D6D" d="M444.174 456.057c23.999-2.44 36.089-2.768 60.126-1.642 2.14.101 4.088.922 5.642 2.154l-.046-1.848c-.104-4.406-3.723-7.892-8.11-7.83l-53.942.794c-4.367.062-7.88 3.633-7.88 8.018l-.002 1.816c1.253-.765 2.674-1.306 4.212-1.462"/><path fill="#EC9C00" d="M490.785 552.242c.021.355.062.71.062 1.065 0 7.81-6.3 14.117-14.056 14.117-7.778 0-14.058-6.307-14.058-14.117v-.042a461.936 461.936 0 0 1-22.833-.376l.02-36.857c23.812 1.024 47.538.125 71.452-2.714l.936 37.024a532.94 532.94 0 0 1-21.523 1.9m27.158 221.374a10.55 10.55 0 0 1-3.12.46c-10.542 0-19.067-15.391-19.067-34.415 0-.48.02-.982.04-1.462a477.614 477.614 0 0 1-55.999 1.023l.062-87.455c24.954 1.086 49.845.042 74.944-3.132l3.14 124.98Z"/><path fill="#CC1441" d="M490.785 552.242c.021.355.062.71.062 1.065 0 7.81-6.3 14.117-14.056 14.117-7.778 0-14.058-6.307-14.058-14.117v-.042a461.936 461.936 0 0 1-22.833-.376l.02-36.857c23.812 1.024 47.538.125 71.452-2.714l.936 37.024a532.94 532.94 0 0 1-21.523 1.9m27.158 221.374a10.55 10.55 0 0 1-3.12.46c-10.542 0-19.067-15.391-19.067-34.415 0-.48.02-.982.04-1.462a477.614 477.614 0 0 1-55.999 1.023l.062-87.455c24.954 1.086 49.845.042 74.944-3.132l3.14 124.98Z"/><path fill="#A61035" d="M499.284 734.561c0-.48.024-.981.047-1.461-19.873 1.336-39.686 1.678-59.531 1.128l-.004 4.995c18.675.75 37.307.417 56.001-1.024-.021.48-.042.982-.042 1.461 0 19.024 8.526 34.415 19.07 34.415 1.06 0 2.099-.147 3.118-.46l-.128-5.08c-10.498-2.526-18.531-16.738-18.531-33.974"/><path fill="#FFF" d="m454.222 470.172 1.003 317.999c.011 3.405 2.733 6.176 6.123 6.235l5.48.094c3.531.06 6.406-2.837 6.334-6.383l-6.483-318.093c-.069-3.362-2.772-6.068-6.122-6.127-3.488-.06-6.346 2.77-6.335 6.275" opacity=".25"/></g></svg>