<svg xmlns="http://www.w3.org/2000/svg" viewBox="0 0 673 487">

<g fill="none"><path fill="#FFF" d="M.4 145V2.2h26.04V145zM38.24 145V2.2h30.03l22.89 94.92V2.2h19.74V145H80.87L57.98 50.71V145zM150.63 146.26c-8.82 0-15.645-2.415-20.475-7.245-4.83-4.83-7.245-11.655-7.245-20.475V92.5h25.83v23.31c0 6.3 2.8 9.45 8.4 9.45h3.15c5.32 0 7.98-3.15 7.98-9.45V99.64c0-3.5-.735-6.3-2.205-8.4-1.47-2.1-3.955-3.85-7.455-5.25l-15.33-6.09c-7.28-2.8-12.495-6.72-15.645-11.76-3.15-5.04-4.725-11.83-4.725-20.37V28.66c0-8.96 2.38-15.82 7.14-20.58 4.76-4.76 11.62-7.14 20.58-7.14h15.75c8.96 0 15.82 2.38 20.58 7.14 4.76 4.76 7.14 11.62 7.14 20.58v24.15h-25.83V31.39c0-6.3-2.8-9.45-8.4-9.45h-2.73c-5.6 0-8.4 3.15-8.4 9.45v13.23c0 3.36.735 6.02 2.205 7.98 1.47 1.96 4.025 3.71 7.665 5.25l14.28 5.67c7.56 3.08 12.985 6.965 16.275 11.655 3.29 4.69 4.935 11.305 4.935 19.845v23.52c0 8.82-2.38 15.645-7.14 20.475-4.76 4.83-11.62 7.245-20.58 7.245h-15.75Zm81.1 0c-8.68 0-15.435-2.415-20.265-7.245s-7.245-11.655-7.245-20.475V2.2h26.04v113.61c0 6.3 2.8 9.45 8.4 9.45h2.94c5.6 0 8.4-3.08 8.4-9.24V2.2h26.04v116.34c0 8.82-2.38 15.645-7.14 20.475-4.76 4.83-11.55 7.245-20.37 7.245h-16.8ZM287 145V2.2h44.1c8.68 0 15.47 2.345 20.37 7.035 4.9 4.69 7.35 11.585 7.35 20.685v32.76c0 11.48-3.92 19.53-11.76 24.15L362.39 145h-27.72l-12.39-54.39h-9.24V145H287Zm37.38-121.8h-11.34v46.41h11.34c2.66 0 4.725-.7 6.195-2.1 1.47-1.4 2.205-3.78 2.205-7.14V32.65c0-6.3-2.8-9.45-8.4-9.45Z"/>

<path fill="#FFF" d="M361.59 145 388.26 2.2h30.03L444.96 145h-27.3l-4.2-26.46h-25.2L384.27 145h-22.68Zm29.82-47.25h18.9l-9.45-60.69-9.45 60.69ZM449.41 145V2.2h30.03l22.89 94.92V2.2h19.74V145h-30.03l-22.89-94.29V145zM560.75 146.26c-8.54 0-15.295-2.345-20.265-7.035-4.97-4.69-7.455-11.585-7.455-20.685V28.66c0-9.1 2.45-15.995 7.35-20.685 4.9-4.69 11.69-7.035 20.37-7.035h14.91c8.68 0 15.47 2.345 20.37 7.035 4.9 4.69 7.35 11.585 7.35 20.685v30.45h-26.04V31.39c0-6.3-2.87-9.45-8.61-9.45h-1.26c-5.6 0-8.4 3.15-8.4 9.45v84.42c0 6.3 2.8 9.45 8.4 9.45h1.47c5.6 0 8.4-3.15 8.4-9.45V88.09h26.04v30.45c0 9.1-2.45 15.995-7.35 20.685-4.9 4.69-11.69 7.035-20.37 7.035h-14.91ZM613.08 145V2.2h57.54v21.63h-31.5v36.96h27.93v21.63h-27.93v40.95h33.6V145zM.4 315V172.2h57.54v21.63h-31.5v36.96H52.9v21.63H26.44V315zM91.16 316.26c-8.54 0-15.295-2.345-20.265-7.035-4.97-4.69-7.455-11.585-7.455-20.685v-89.88c0-9.1 2.485-15.995 7.455-20.685 4.97-4.69 11.725-7.035 20.265-7.035h17.22c8.68 0 15.47 2.345 20.37 7.035 4.9 4.69 7.35 11.585 7.35 20.685v89.88c0 9.1-2.45 15.995-7.35 20.685-4.9 4.69-11.69 7.035-20.37 7.035H91.16Zm6.72-21h3.78c5.6 0 8.4-3.15 8.4-9.45v-84.42c0-6.3-2.8-9.45-8.4-9.45h-3.78c-5.6 0-8.4 3.15-8.4 9.45v84.42c0 6.3 2.8 9.45 8.4 9.45ZM147.06 315V172.2h44.1c8.68 0 15.47 2.345 20.37 7.035 4.9 4.69 7.35 11.585 7.35 20.685v32.76c0 11.48-3.92 19.53-11.76 24.15L222.45 315h-27.72l-12.39-54.39h-9.24V315h-26.04Zm37.38-121.8H173.1v46.41h11.34c2.66 0 4.725-.7 6.195-2.1 1.47-1.4 2.205-3.78 2.205-7.14v-27.72c0-6.3-2.8-9.45-8.4-9.45ZM247.52 315V172.2h44.1c8.68 0 15.47 2.345 20.37 7.035 4.9 4.69 7.35 11.585 7.35 20.685v33.39c0 9.1-2.485 15.995-7.455 20.685-4.97 4.69-11.795 7.035-20.475 7.035h-17.85V315h-26.04Zm37.38-121.8h-11.34v46.83h11.34c5.6 0 8.4-3.08 8.4-9.24v-28.14c0-6.3-2.8-9.45-8.4-9.45ZM327.99 315V172.2h44.1c8.68 0 15.47 2.345 20.37 7.035 4.9 4.69 7.35 11.585 7.35 20.685v32.76c0 11.48-3.92 19.53-11.76 24.15L403.38 315h-27.72l-12.39-54.39h-9.24V315h-26.04Zm37.38-121.8h-11.34v46.41h11.34c2.66 0 4.725-.7 6.195-2.1 1.47-1.4 2.205-3.78 2.205-7.14v-27.72c0-6.3-2.8-9.45-8.4-9.45Zm69.34 123.06c-8.54 0-15.295-2.345-20.265-7.035-4.97-4.69-7.455-11.585-7.455-20.685v-89.88c0-9.1 2.485-15.995 7.455-20.685 4.97-4.69 11.725-7.035 20.265-7.035h17.22c8.68 0 15.47 2.345 20.37 7.035 4.9 4.69 7.35 11.585 7.35 20.685v89.88c0 9.1-2.45 15.995-7.35 20.685-4.9 4.69-11.69 7.035-20.37 7.035h-17.22Zm6.72-21h3.78c5.6 0 8.4-3.15 8.4-9.45v-84.42c0-6.3-2.8-9.45-8.4-9.45h-3.78c-5.6 0-8.4 3.15-8.4 9.45v84.42c0 6.3 2.8 9.45 8.4 9.45Zm77.11 21c-8.82 0-15.645-2.415-20.475-7.245-4.83-4.83-7.245-11.655-7.245-20.475V262.5h25.83v23.31c0 6.3 2.8 9.45 8.4 9.45h3.15c5.32 0 7.98-3.15 7.98-9.45v-16.17c0-3.5-.735-6.3-2.205-8.4-1.47-2.1-3.955-3.85-7.455-5.25l-15.33-6.09c-7.28-2.8-12.495-6.72-15.645-11.76-3.15-5.04-4.725-11.83-4.725-20.37v-19.11c0-8.96 2.38-15.82 7.14-20.58 4.76-4.76 11.62-7.14 20.58-7.14h15.75c8.96 0 15.82 2.38 20.58 7.14 4.76 4.76 7.14 11.62 7.14 20.58v24.15h-25.83v-21.42c0-6.3-2.8-9.45-8.4-9.45h-2.73c-5.6 0-8.4 3.15-8.4 9.45v13.23c0 3.36.735 6.02 2.205 7.98 1.47 1.96 4.025 3.71 7.665 5.25l14.28 5.67c7.56 3.08 12.985 6.965 16.275 11.655 3.29 4.69 4.935 11.305 4.935 19.845v23.52c0 8.82-2.38 15.645-7.14 20.475-4.76 4.83-11.62 7.245-20.58 7.245h-15.75ZM572.13 315v-24.99h25.62V315z"/>

<path fill="#CC1441" d="M.4 485V342.2h30.03l22.89 94.92V342.2h19.74V485H43.03l-22.89-94.29V485zM111.74 486.26c-8.54 0-15.295-2.345-20.265-7.035-4.97-4.69-7.455-11.585-7.455-20.685v-89.88c0-9.1 2.485-15.995 7.455-20.685 4.97-4.69 11.725-7.035 20.265-7.035h17.22c8.68 0 15.47 2.345 20.37 7.035 4.9 4.69 7.35 11.585 7.35 20.685v89.88c0 9.1-2.45 15.995-7.35 20.685-4.9 4.69-11.69 7.035-20.37 7.035h-17.22Zm6.72-21h3.78c5.6 0 8.4-3.15 8.4-9.45v-84.42c0-6.3-2.8-9.45-8.4-9.45h-3.78c-5.6 0-8.4 3.15-8.4 9.45v84.42c0 6.3 2.8 9.45 8.4 9.45Zm94.58 21c-8.54 0-15.295-2.345-20.265-7.035-4.97-4.69-7.455-11.585-7.455-20.685v-89.88c0-9.1 2.45-15.995 7.35-20.685 4.9-4.69 11.69-7.035 20.37-7.035h14.91c8.68 0 15.47 2.345 20.37 7.035 4.9 4.69 7.35 11.585 7.35 20.685v30.45h-26.04v-27.72c0-6.3-2.87-9.45-8.61-9.45h-1.26c-5.6 0-8.4 3.15-8.4 9.45v84.42c0 6.3 2.8 9.45 8.4 9.45h1.47c5.6 0 8.4-3.15 8.4-9.45v-27.72h26.04v30.45c0 9.1-2.45 15.995-7.35 20.685-4.9 4.69-11.69 7.035-20.37 7.035h-14.91Zm79.21 0c-8.54 0-15.295-2.345-20.265-7.035-4.97-4.69-7.455-11.585-7.455-20.685v-89.88c0-9.1 2.485-15.995 7.455-20.685 4.97-4.69 11.725-7.035 20.265-7.035h17.22c8.68 0 15.47 2.345 20.37 7.035 4.9 4.69 7.35 11.585 7.35 20.685v89.88c0 9.1-2.45 15.995-7.35 20.685-4.9 4.69-11.69 7.035-20.37 7.035h-17.22Zm6.72-21h3.78c5.6 0 8.4-3.15 8.4-9.45v-84.42c0-6.3-2.8-9.45-8.4-9.45h-3.78c-5.6 0-8.4 3.15-8.4 9.45v84.42c0 6.3 2.8 9.45 8.4 9.45ZM348.15 485V342.2h30.03l22.89 94.92V342.2h19.74V485h-30.03l-22.89-94.29V485zM460.54 486.26c-8.82 0-15.645-2.415-20.475-7.245-4.83-4.83-7.245-11.655-7.245-20.475V432.5h25.83v23.31c0 6.3 2.8 9.45 8.4 9.45h3.15c5.32 0 7.98-3.15 7.98-9.45v-16.17c0-3.5-.735-6.3-2.205-8.4-1.47-2.1-3.955-3.85-7.455-5.25l-15.33-6.09c-7.28-2.8-12.495-6.72-15.645-11.76-3.15-5.04-4.725-11.83-4.725-20.37v-19.11c0-8.96 2.38-15.82 7.14-20.58 4.76-4.76 11.62-7.14 20.58-7.14h15.75c8.96 0 15.82 2.38 20.58 7.14 4.76 4.76 7.14 11.62 7.14 20.58v24.15h-25.83v-21.42c0-6.3-2.8-9.45-8.4-9.45h-2.73c-5.6 0-8.4 3.15-8.4 9.45v13.23c0 3.36.735 6.02 2.205 7.98 1.47 1.96 4.025 3.71 7.665 5.25l14.28 5.67c7.56 3.08 12.985 6.965 16.275 11.655 3.29 4.69 4.935 11.305 4.935 19.845v23.52c0 8.82-2.38 15.645-7.14 20.475-4.76 4.83-11.62 7.245-20.58 7.245h-15.75Z"/>

</g></svg>