<svg xmlns="http://www.w3.org/2000/svg" viewBox="0 0 1112 627"><g fill="none" fill-rule="evenodd">

<path fill="#EC9C00" d="m963.058 313.111 74.124 13.07 2.131-12.087-74.123-13.07z"/>

<path fill="#2C2C2F" d="m951.093 603.366-2.786-.491c-72.377-13.065-62.614-104.653-46.721-135.84 6.752-13.214 14.88-31.026 22.124-49.597 9.858-25.257 18.077-51.936 18.862-70.325.215-5.292.814-9.76 1.597-13.556 4.054-19.133 13.948-21.019 13.948-21.019l83.388 14.703s8.652 5.156 5.917 24.523c-.561 3.834-1.528 8.238-3.135 13.284-9.638 30.439-6.761 91.93-2.501 126.708 4.261 34.778-17.972 124.433-90.693 111.61"/>

<path fill="#2C2C2F" d="m950.771 603.31-2.058-.364c-53.49-9.734-42.112-101.038-28.848-132.688 5.632-13.412 12.501-31.445 18.74-50.194 8.491-25.498 15.822-52.333 17.228-70.612.397-5.26 1.044-9.721 1.797-13.521 3.883-19.164 11.358-21.476 11.358-21.476l61.643 10.87s6.235 4.729 3.328 24.065c-.59 3.828-1.51 8.241-2.936 13.32-8.557 30.629-9.15 91.507-7.518 125.823 1.633 34.314-18.975 124.255-72.734 114.776"/>

<path fill="#EC9C00" d="M1041.75 491.75c-1.825-14.727-3.373-34.243-3.827-54.173-27.699 8.764-38.97 36.04-34.259 76.835 1.635 14.17-2.393 24.665-8.705 32.399-19.246 23.582-58.217 16.71-68.237-12.032-3.286-9.427-3.482-20.666 2.902-33.423 18.379-36.722 17.116-66.209-5.915-83.918-7.243 18.572-15.372 36.382-22.124 49.597-15.891 31.186-25.654 122.776 46.722 135.84l1.54.271 1.538.271c72.48 12.48 94.633-76.926 90.365-111.667"/>

<path fill="#ECD395" d="m1003.664 514.411.258 1.7c.094.554.181 1.238.255 2.053.1.814.176 1.753.204 2.806.09 2.103.086 4.685-.33 7.62-.387 2.934-1.145 6.239-2.564 9.643a38.44 38.44 0 0 1-6.115 10.206c-.654.787-1.306 1.587-2.116 2.383l-1.173 1.202-1.243 1.115c-1.66 1.512-3.558 2.818-5.539 4.05-4.025 2.348-8.578 4.218-13.433 5.017-4.835.889-9.89.848-14.81.042-4.9-.922-9.664-2.615-13.903-5.104-4.294-2.405-7.93-5.725-10.91-9.306-2.958-3.624-5.07-7.681-6.478-11.683l-.271-.747c-.117-.307-.158-.505-.24-.76-.142-.491-.295-.955-.426-1.457-.261-1.015-.515-2.011-.679-2.99-.357-1.96-.58-3.874-.635-5.716-.169-3.684.25-7.048.89-9.938.614-2.9 1.493-5.329 2.3-7.274.386-.98.778-1.835 1.149-2.564a27.11 27.11 0 0 1 .944-1.843l.825-1.51-.641 1.594a26.78 26.78 0 0 0-.718 1.93 43.718 43.718 0 0 0-.863 2.64c-1.196 3.95-2.474 9.853-1.753 16.816.16 1.734.485 3.523.937 5.339.222.915.483 1.816.762 2.72.14.458.324.942.485 1.417.083.222.169.517.25.68l.284.684a38.85 38.85 0 0 0 6.395 10.56 38.416 38.416 0 0 0 10.179 8.289c3.895 2.244 8.275 3.746 12.764 4.56 4.493.773 9.123.858 13.551.082 4.438-.712 8.653-2.232 12.402-4.305 1.853-1.076 3.612-2.248 5.214-3.56l1.197-.977c.367-.344.733-.685 1.095-1.026.732-.643 1.435-1.424 2.128-2.185 1.323-1.434 2.512-3 3.547-4.55 1.044-1.552 1.96-3.12 2.706-4.697 3.058-6.297 3.875-12.284 4.1-16.403.069-1.038.088-1.965.09-2.773.023-.809.016-1.5-.013-2.061l-.058-1.719"/>

<path fill="#6D6D6F" d="M1047.423 351.764a99.446 99.446 0 0 0-103.254-18.206c4.055-19.134 13.949-21.02 13.949-21.02l83.387 14.704s8.653 5.156 5.918 24.522"/>

<path fill="#FFF" d="M933.377 472.64c4.807-13.557 10.742-31.754 16.24-50.635 7.48-25.675 14.154-52.627 16.02-70.824.53-5.238 1.213-9.692 1.946-13.495 3.755-19.187 9.443-21.813 9.443-21.813l-8.037-1.418s-7.476 2.311-11.357 21.477c-.755 3.798-1.4 8.26-1.798 13.52-1.408 18.278-8.737 45.115-17.228 70.612-6.24 18.75-13.107 36.782-18.741 50.193-13.264 31.65-24.642 122.956 28.848 132.689l.3.052c-39.528-7.27-26.957-98.365-15.636-130.358m90.129 15.892c-1.633-34.314-1.04-95.194 7.519-125.822 1.425-5.08 2.344-9.492 2.934-13.32 2.907-19.337-3.328-24.065-3.328-24.065l-8.038-1.418s4.447 4.413 1.413 23.728c-.612 3.824-1.494 8.243-2.786 13.347-7.76 30.768-10.918 91.195-11.228 125.167-.31 33.972-19.718 124.125-59.458 117.118l.238.042c53.758 9.479 74.366-80.462 72.734-114.777" opacity=".302"/>

<path fill="#40343E" d="m985.901 304.854 32.074 5.656 21.659-122.837-32.073-5.656z"/>

<path fill="#7D757C" d="m1052.748 138.303-13.126 49.37-32.073-5.656 4.544-50.202c.04-.446.043-.673.043-.673s12.483-24.492 22.921-27.112a6.141 6.141 0 0 1 2.83-.181c10.848 1.913 14.861 34.454 14.861 34.454"/>

<path fill="#40343E" d="m1035.057 104.03-3.445 13.533s-5.794 25.513-13.156 41.485c-1.13 2.455-4.764 2.043-5.27-.612-1.725-9.059-1.236-23.345-1.093-26.621.041-.447.043-.672.043-.672s12.483-24.492 22.921-27.113m5.425.957-1.391 13.895s-3.28 25.956-1.826 43.482c.224 2.694 3.778 3.55 5.161 1.227 4.72-7.922 9.147-21.513 10.132-24.641.115-.434.19-.646.19-.646s-3.353-27.285-12.266-33.317"/>

<path fill="#2F222D" d="m985.902 304.855 6.039-34.245s13.511 18.214 32.072 5.655l-6.038 34.245-32.073-5.655Z"/>

<path fill="#AAA5A9" d="m1006.992 185.243 32.073 5.655.569-3.223-32.074-5.656z"/>

<path fill="#FFF" d="M1014.596 183.26h.009l-21.66 122.837 8.711 1.536 21.66-122.836h-.003l7.693-49.647c.069-.442.097-.664.097-.664l-16.507 48.773Z" opacity=".298"/><g fill="#EC9C00">

<path d="M967.248 523.016a2.492 2.492 0 0 1-2.884 2.018 2.492 2.492 0 0 1-2.02-2.883 2.492 2.492 0 0 1 2.884-2.018 2.492 2.492 0 0 1 2.02 2.883m-9.294-5.824a8.646 8.646 0 0 0-1.741 3.878c-.081.462-.114.92-.121 1.375a7.47 7.47 0 0 1 4.786 7.913 8.662 8.662 0 0 0 4.94.871 7.47 7.47 0 0 1 7.204-5.799c.15-.43.275-.871.357-1.333a8.646 8.646 0 0 0-.31-4.24 35.431 35.431 0 0 0-15.115-2.665"/>

<path d="M963.068 532.385c-5.409-.954-9.034-6.127-8.081-11.53.953-5.405 6.129-9.026 11.537-8.072 5.408.953 9.034 6.126 8.08 11.53-.952 5.404-6.128 9.025-11.536 8.072m-12.986-12.396c-1.43 8.107 4.008 15.866 12.122 17.296 8.113 1.431 15.876-4 17.305-12.107 1.43-8.107-4.008-15.865-12.12-17.296-8.114-1.43-15.877 4-17.307 12.107Z"/></g>

<path fill="#C7C0CF" d="m784.656 265.951 74.98 6.56 1.07-12.227-74.98-6.56z"/>

<path fill="#2C2C2F" d="m798.033 556.144-2.818-.246c-73.24-6.707-71.497-98.798-58.382-131.25 5.574-13.754 12.119-32.206 17.717-51.337 7.62-26.02 13.481-53.314 12.661-71.701-.247-5.291-.04-9.795.409-13.644 2.371-19.414 12.064-22.155 12.064-22.155l84.351 7.38s9.07 4.382 8.032 23.913c-.225 3.868-.804 8.34-1.965 13.507-6.948 31.163 1.276 92.168 8.551 126.444 7.277 34.274-7.058 125.525-80.62 119.09"/>

<path fill="#2C2C2F" d="m797.708 556.116-2.083-.182c-54.134-5.036-50.757-96.984-40.302-129.67 4.442-13.85 9.713-32.414 14.294-51.635 6.236-26.142 11.2-53.514 11.008-71.846-.063-5.274.193-9.775.612-13.626 2.198-19.43 9.443-22.384 9.443-22.384l62.356 5.455s6.623 4.169 5.412 23.684c-.254 3.866-.785 8.342-1.763 13.525-5.856 31.259-1.14 91.957 3.477 126 4.616 34.042-8.074 125.437-62.454 120.679"/>

<path fill="#C7C0CF" d="M878.617 437.051c-3.102-14.511-6.344-33.818-8.533-53.633-26.83 11.145-35.682 39.3-27.432 79.529 2.863 13.973-.235 24.78-5.849 33.034-17.117 25.17-56.539 21.721-69.026-6.039-4.095-9.104-5.27-20.284-.022-33.548 15.109-38.185 11.28-67.449-13.206-83.084-5.597 19.134-12.143 37.584-17.717 51.337-13.113 32.453-14.856 124.545 58.383 131.25l1.557.137 1.557.136c73.291 6.114 87.567-84.881 80.288-119.119"/>

<path fill="#FFF" d="m842.651 462.946.406 1.672c.142.542.288 1.217.433 2.022.17.802.328 1.731.447 2.777.273 2.087.494 4.66.335 7.621-.13 2.956-.596 6.314-1.713 9.829a38.44 38.44 0 0 1-5.203 10.7c-.583.842-1.163 1.695-1.9 2.559l-1.063 1.3-1.142 1.219c-1.521 1.65-3.298 3.117-5.165 4.517-3.804 2.69-8.177 4.949-12.944 6.168-4.74 1.307-9.778 1.707-14.75 1.333-4.962-.491-9.855-1.762-14.295-3.872-4.487-2.023-8.4-5.013-11.68-8.321-3.263-3.352-5.72-7.21-7.471-11.073l-.336-.72c-.143-.297-.2-.49-.305-.738-.184-.476-.377-.925-.55-1.414-.35-.988-.69-1.958-.938-2.919-.526-1.92-.915-3.81-1.13-5.639-.49-3.656-.367-7.043.02-9.977.359-2.944 1.023-5.44 1.656-7.447.3-1.01.616-1.896.922-2.655a27.11 27.11 0 0 1 .78-1.919l.69-1.576-.5 1.645a26.78 26.78 0 0 0-.546 1.985 43.718 43.718 0 0 0-.63 2.705c-.847 4.038-1.606 10.031-.281 16.904.311 1.714.79 3.468 1.399 5.237.3.893.64 1.767.996 2.644.18.444.405.91.607 1.369.101.214.213.5.308.656l.343.657a38.85 38.85 0 0 0 7.29 9.962 38.416 38.416 0 0 0 10.863 7.37c4.076 1.896 8.57 3.01 13.113 3.43 4.544.38 9.163.06 13.507-1.098 4.359-1.097 8.425-2.978 11.98-5.37 1.751-1.233 3.402-2.555 4.883-4.001l1.108-1.078c.335-.374.67-.746 1.001-1.117.673-.705 1.306-1.544 1.929-2.363 1.193-1.543 2.241-3.208 3.137-4.84.905-1.638 1.682-3.281 2.286-4.916 2.498-6.54 2.79-12.576 2.655-16.699a43.343 43.343 0 0 0-.151-2.77 26.429 26.429 0 0 0-.193-2.052l-.208-1.707"/>

<path fill="#6D6D6F" d="M872.068 297.104a99.446 99.446 0 0 0-104.448-9.138c2.372-19.414 12.064-22.155 12.064-22.155l84.352 7.38s9.069 4.382 8.032 23.913"/>

<path fill="#FFF" d="M768.992 427.46c3.606-13.925 7.933-32.57 11.764-51.857 5.215-26.23 9.513-53.662 9.786-71.952.072-5.264.364-9.76.763-13.612 2.068-19.442 7.506-22.554 7.506-22.554l-8.13-.712s-7.246 2.954-9.443 22.385c-.42 3.85-.675 8.35-.612 13.626.191 18.33-4.772 45.704-11.008 71.844-4.582 19.222-9.852 37.784-14.295 51.636-10.455 32.686-13.832 124.635 40.302 129.669l.303.026c-40.01-3.798-35.426-95.642-26.936-128.5m91.17 7.977c-4.617-34.041-9.333-94.741-3.476-125.998.977-5.185 1.508-9.66 1.762-13.525 1.211-19.517-5.412-23.684-5.412-23.684l-8.13-.712s4.814 4.01 3.474 23.515c-.276 3.863-.77 8.342-1.612 13.538-5.048 31.328-2.928 91.8-.276 125.67 2.652 33.87-8.825 125.371-49.024 121.854l.24.021c54.38 4.758 67.07-86.637 62.454-120.679" opacity=".302"/>

<path fill="#40343E" d="m806.692 255.735 32.444 2.838 10.871-124.257-32.444-2.838z"/>

<path fill="#7D757C" d="m858.769 83.991-8.774 50.326-32.443-2.839.15-50.406c.003-.449-.015-.675-.015-.675s10.3-25.486 20.471-29.007a6.141 6.141 0 0 1 2.802-.427c10.975.96 17.809 33.028 17.809 33.028"/>

<path fill="#40343E" d="m838.158 51.39-2.252 13.782s-3.55 25.921-9.491 42.474c-.913 2.544-4.568 2.45-5.303-.15-2.508-8.874-3.266-23.149-3.41-26.425.003-.449-.015-.673-.015-.673s10.3-25.487 20.471-29.007m5.488.48-.175 13.963s-1.006 26.144 1.97 43.477c.459 2.664 4.073 3.206 5.25.772 4.01-8.303 7.236-22.23 7.945-25.43.076-.443.133-.661.133-.661s-5.719-26.888-15.123-32.121"/>

<path fill="#2F222D" d="m806.693 255.736 3.031-34.642s15.048 16.968 32.443 2.839l-3.03 34.641-32.444-2.838Z"/>

<path fill="#AAA5A9" d="m817.278 134.74 32.444 2.839.285-3.26-32.444-2.84z"/>

<path fill="#FFF" d="M824.68 132.102h.009L813.818 256.36l8.811.771L833.5 132.873h-.002l3.336-50.128c.03-.446.04-.67.04-.67l-12.194 50.027Z" opacity=".298"/><g fill="#C7C0CF">

<path d="M807.124 474.692a2.492 2.492 0 0 1-2.698 2.262 2.492 2.492 0 0 1-2.263-2.696 2.492 2.492 0 0 1 2.697-2.261 2.492 2.492 0 0 1 2.264 2.695m-9.767-4.991a8.646 8.646 0 0 0-1.396 4.015c-.04.467-.033.926 0 1.38a7.47 7.47 0 0 1 5.456 7.465 8.662 8.662 0 0 0 4.999.437 7.47 7.47 0 0 1 6.67-6.404c.112-.441.198-.892.24-1.36a8.646 8.646 0 0 0-.678-4.196 35.431 35.431 0 0 0-15.29-1.337"/>

<path d="M803.776 484.39c-5.471-.479-9.533-5.316-9.055-10.783.478-5.466 5.319-9.525 10.79-9.046 5.47.478 9.533 5.316 9.055 10.782-.479 5.467-5.32 9.525-10.79 9.047m-14.016-11.217c-.718 8.2 5.375 15.456 13.582 16.174s15.467-5.37 16.185-13.57c.717-8.2-5.376-15.455-13.583-16.173-8.207-.718-15.467 5.369-16.184 13.57Z"/></g>

<path fill="#D9D5D2" d="m253.655 272.465 74.98-6.56-1.069-12.227-74.98 6.56z"/>

<path fill="#2C2C2F" d="m317.22 555.926-2.817.247c-73.292 6.113-87.567-84.882-80.287-119.119 3.102-14.512 6.343-33.82 8.533-53.633 2.986-26.948 4.02-54.845.019-72.81-1.163-5.168-1.74-9.64-1.967-13.508-1.036-19.53 8.033-23.913 8.033-23.913l84.352-7.38s9.692 2.741 12.062 22.155c.45 3.849.656 8.353.41 13.644-1.43 31.895 17.262 90.546 30.379 123.037 13.117 32.49 14.846 124.844-58.716 131.28"/>

<path fill="#2C2C2F" d="m316.896 555.955-2.083.182c-54.186 4.441-66.827-86.696-62.207-120.7 1.97-14.413 3.937-33.61 5.11-53.334 1.603-26.827 1.738-54.646-1.634-72.666-.978-5.183-1.508-9.66-1.764-13.525-1.21-19.516 5.413-23.684 5.413-23.684l62.356-5.456s7.246 2.955 9.442 22.385c.42 3.85.675 8.351.612 13.626-.338 31.8 14.846 90.757 25.304 123.481 10.458 32.723 13.83 124.933-40.55 129.69"/>

<path fill="#D9D5D2" d="M375.9 424.65c-5.574-13.753-12.12-32.204-17.717-51.337-24.486 15.635-28.315 44.9-13.205 83.084 5.247 13.264 4.072 24.444-.023 33.548-12.487 27.76-51.909 31.209-69.026 6.039-5.614-8.255-8.712-19.061-5.847-33.035 8.248-40.228-.604-68.383-27.433-79.528-2.19 19.814-5.432 39.121-8.534 53.633-7.278 34.237 6.997 125.233 80.288 119.119l1.557-.137 1.557-.136c73.24-6.705 71.497-98.798 58.383-131.25"/>

<path fill="#FFF" d="m344.978 456.396.69 1.576c.233.51.494 1.148.777 1.917.306.76.623 1.647.923 2.657.63 2.008 1.295 4.503 1.653 7.446.386 2.934.51 6.322.02 9.977a38.44 38.44 0 0 1-3.266 11.442c-.428.93-.851 1.87-1.427 2.85l-.822 1.464-.912 1.399c-1.212 1.89-2.707 3.642-4.302 5.345-3.28 3.31-7.194 6.294-11.676 8.323-4.441 2.11-9.334 3.379-14.295 3.873-4.972.379-10.011-.024-14.75-1.33-4.77-1.213-9.143-3.478-12.947-6.167-3.796-2.734-6.886-6.107-9.282-9.607l-.455-.652c-.192-.267-.283-.447-.429-.673-.264-.437-.531-.846-.787-1.296-.516-.913-1.018-1.81-1.43-2.712-.852-1.8-1.563-3.593-2.093-5.357-1.117-3.516-1.583-6.873-1.712-9.83-.158-2.961.063-5.534.338-7.621.12-1.047.277-1.974.446-2.774.145-.804.292-1.48.436-2.026l.405-1.671-.207 1.706a26.78 26.78 0 0 0-.193 2.05c-.067.807-.129 1.734-.15 2.773-.133 4.124.16 10.158 2.658 16.696.604 1.634 1.381 3.278 2.287 4.915.452.827.937 1.629 1.44 2.43.255.407.557.826.836 1.243.137.193.297.456.417.593l.452.587a38.85 38.85 0 0 0 8.91 8.545 38.416 38.416 0 0 0 11.977 5.372c4.344 1.16 8.963 1.476 13.509 1.1 4.541-.415 9.035-1.532 13.111-3.427 4.103-1.836 7.78-4.396 10.866-7.368 1.51-1.519 2.907-3.107 4.114-4.789l.904-1.253.792-1.274c.54-.81 1.017-1.748 1.49-2.662.906-1.727 1.65-3.549 2.248-5.312.607-1.77 1.086-3.523 1.398-5.238 1.324-6.875.564-12.869-.286-16.906a43.343 43.343 0 0 0-.63-2.702 26.429 26.429 0 0 0-.545-1.987c-.328-1.072-.501-1.645-.501-1.645"/>

<path fill="#6D6D6F" d="M345.149 287.966a99.446 99.446 0 0 0-104.447 9.138c-1.036-19.531 8.033-23.914 8.033-23.914l84.351-7.38s9.693 2.741 12.063 22.156"/>

<path fill="#FFF" d="M266.275 434.24c1.134-14.34 2.157-33.453 2.58-53.113.581-26.736.051-54.497-2.856-72.557-.843-5.197-1.337-9.676-1.613-13.538-1.339-19.506 3.475-23.515 3.475-23.515l-8.13.711s-6.623 4.167-5.411 23.684c.254 3.865.785 8.34 1.763 13.525 3.37 18.02 3.237 45.839 1.634 72.665-1.174 19.726-3.14 38.92-5.111 53.334-4.62 34.004 8.021 125.143 62.207 120.7l.303-.026c-40.063 3.207-51.496-88.038-48.841-121.87m91.17-7.976c-10.458-32.723-25.642-91.682-25.302-123.481.062-5.276-.193-9.776-.614-13.626-2.196-19.43-9.442-22.384-9.442-22.384l-8.131.711s5.437 3.112 7.506 22.554c.399 3.852.69 8.349.763 13.613.468 31.728 13.057 90.914 21.55 123.808 8.493 32.895 13.08 125-27.12 128.516l.24-.021c54.38-4.758 51.008-96.968 40.55-129.69" opacity=".302"/>

<path fill="#40343E" d="m273.583 258.577 32.444-2.838-10.871-124.258-32.444 2.839z"/>

<path fill="#7D757C" d="m295.046 80.4.098 51.084-32.443 2.838-8.605-49.667a9.247 9.247 0 0 0-.132-.661s5.718-26.888 15.123-32.121a6.141 6.141 0 0 1 2.685-.907c10.975-.96 23.274 29.434 23.274 29.434"/>

<path fill="#40343E" d="m269.087 51.873.175 13.964s1.006 26.143-1.972 43.476c-.456 2.664-4.072 3.206-5.248.773-4.01-8.304-7.236-22.23-7.946-25.431-.076-.442-.132-.66-.132-.66s5.718-26.889 15.123-32.122m5.487-.48 2.253 13.782s3.549 25.921 9.49 42.473c.914 2.545 4.568 2.45 5.303-.15 2.509-8.874 3.267-23.148 3.41-26.424-.003-.45.015-.674.015-.674s-10.3-25.486-20.47-29.007"/>

<path fill="#2F222D" d="m273.584 258.578-3.03-34.642s17.765 14.097 32.443-2.838l3.03 34.641-32.443 2.839Z"/>

<path fill="#AAA5A9" d="m262.997 137.582 32.444-2.838-.285-3.26-32.444 2.838z"/>

<path fill="#FFF" d="M269.829 133.698h.009l10.87 124.257 8.812-.771-10.87-124.257h-.003l-5.42-49.946c-.047-.444-.077-.666-.077-.666l-3.321 51.383Z" opacity=".298"/><g fill="#D9D5D2">

<path d="M312.03 474.133a2.492 2.492 0 0 1-2.264 2.696 2.492 2.492 0 0 1-2.698-2.262 2.492 2.492 0 0 1 2.264-2.696 2.492 2.492 0 0 1 2.698 2.262m-10.485-3.22a8.646 8.646 0 0 0-.678 4.197c.04.467.128.918.239 1.359a7.47 7.47 0 0 1 6.67 6.404 8.662 8.662 0 0 0 4.999-.437 7.47 7.47 0 0 1 5.457-7.466c.033-.453.04-.912 0-1.38a8.646 8.646 0 0 0-1.397-4.015 35.431 35.431 0 0 0-15.29 1.338"/>

<path d="M310.416 484.264c-5.47.48-10.311-3.58-10.79-9.046-.478-5.466 3.585-10.304 9.056-10.782 5.47-.479 10.311 3.58 10.79 9.046.478 5.467-3.585 10.304-9.056 10.782m-15.75-8.612c.717 8.2 7.977 14.288 16.184 13.57s14.3-7.974 13.583-16.174c-.718-8.2-7.978-14.288-16.185-13.57-8.207.718-14.3 7.974-13.583 16.174Z"/></g>

<path fill="#B5C0CE" d="M606.513 229.077h75.267v-12.274h-75.267z"/>

<path fill="#2C2C2F" d="M645.131 517h-2.829c-73.545-.298-79.835-92.19-69.599-125.663 4.355-14.186 9.266-33.138 13.175-52.685 5.323-26.586 8.784-54.286 6.365-72.532-.708-5.249-.894-9.754-.782-13.627.67-19.547 10.086-23.123 10.086-23.123h84.674s9.417 3.576 10.086 23.123c.113 3.873-.075 8.378-.78 13.627-4.207 31.65 9.304 91.706 19.539 125.217C725.3 424.847 718.974 517 645.13 517"/>

<path fill="#2C2C2F" d="M644.805 517h-2.09c-54.367-.298-59.017-92.19-51.451-125.663 3.218-14.186 6.85-33.138 9.739-52.685 3.934-26.586 6.494-54.286 4.705-72.532-.523-5.249-.66-9.754-.578-13.627.496-19.547 7.456-23.123 7.456-23.123h62.594s6.961 3.576 7.456 23.123c.083 3.873-.056 8.378-.578 13.627-3.11 31.65 6.879 91.706 14.445 125.217C704.07 424.847 699.393 517 644.805 517"/>

<path fill="#B5C0CE" d="M715.029 391.337c-4.355-14.186-9.268-33.137-13.175-52.686-25.756 13.442-32.12 42.261-20.396 81.617 4.07 13.671 1.926 24.706-2.948 33.419-14.858 26.566-54.43 26.566-69.29 0-4.873-8.713-7.017-19.748-2.945-33.419 11.723-39.356 5.359-68.175-20.397-81.617-3.908 19.549-8.821 38.5-13.176 52.686-10.234 33.472-3.945 125.366 69.6 125.663H645.429c73.546-.297 79.837-92.19 69.6-125.663"/>

<path fill="#FFF" d="m681.457 420.267.55 1.63c.188.529.393 1.188.607 1.978.239.783.478 1.695.688 2.727.454 2.055.898 4.599.998 7.563.129 2.956-.044 6.342-.85 9.94a38.44 38.44 0 0 1-4.25 11.113c-.508.89-1.011 1.79-1.67 2.715l-.946 1.387-1.031 1.315c-1.372 1.776-3.014 3.392-4.752 4.95-3.556 3.01-7.715 5.643-12.357 7.273-4.608 1.715-9.593 2.552-14.578 2.613-4.986-.057-9.971-.897-14.579-2.612-4.646-1.624-8.804-4.261-12.36-7.27-3.542-3.056-6.326-6.685-8.408-10.38l-.397-.69c-.168-.282-.242-.47-.368-.707-.225-.459-.456-.89-.672-1.36-.434-.955-.856-1.892-1.188-2.827-.692-1.868-1.244-3.715-1.618-5.519-.806-3.6-.978-6.984-.849-9.941.1-2.964.545-5.508 1-7.563.211-1.033.449-1.942.688-2.725.214-.787.42-1.449.61-1.98l.55-1.63-.355 1.682a26.78 26.78 0 0 0-.371 2.026c-.138.798-.28 1.716-.392 2.749-.492 4.097-.725 10.133 1.193 16.865.46 1.68 1.09 3.385 1.85 5.095a46.28 46.28 0 0 0 1.223 2.547c.218.426.483.871.724 1.31.12.205.256.48.364.627l.4.625a38.85 38.85 0 0 0 8.13 9.289 38.416 38.416 0 0 0 11.464 6.395c4.226 1.533 8.8 2.252 13.361 2.273 4.56-.018 9.134-.738 13.36-2.27 4.247-1.473 8.134-3.702 11.467-6.394 1.637-1.381 3.166-2.842 4.516-4.412l1.01-1.17.9-1.2c.608-.76 1.165-1.652 1.715-2.522 1.054-1.641 1.953-3.391 2.703-5.096.76-1.71 1.39-3.414 1.85-5.096 1.918-6.733 1.683-12.77 1.188-16.866a43.343 43.343 0 0 0-.391-2.747c-.118-.8-.245-1.48-.371-2.027l-.356-1.683"/>

<path fill="#6D6D6F" d="M696.307 252.493a99.446 99.446 0 0 0-104.846 0c.67-19.547 10.087-23.122 10.087-23.122h84.674s9.416 3.575 10.085 23.122"/>

<path fill="#FFF" d="M604.985 391.336c2.38-14.186 5.064-33.137 7.2-52.685 2.909-26.584 4.8-54.286 3.477-72.53-.386-5.25-.488-9.756-.426-13.628.366-19.548 5.512-23.122 5.512-23.122h-8.161s-6.961 3.574-7.456 23.122c-.083 3.872.055 8.377.578 13.628 1.788 18.244-.77 45.946-4.705 72.53-2.89 19.548-6.52 38.5-9.74 52.685-7.566 33.473-2.917 125.366 51.45 125.663h.304c-40.19-.297-43.627-92.19-38.033-125.663m91.518 0c-7.566-33.51-17.554-93.567-14.444-125.215.522-5.25.66-9.756.577-13.628-.494-19.548-7.456-23.122-7.456-23.122h-8.162s5.146 3.574 5.512 23.122c.061 3.872-.04 8.377-.427 13.628-2.298 31.648 5.084 91.706 10.678 125.215C688.375 424.846 684.917 517 644.564 517h.241c54.588 0 59.265-92.153 51.698-125.663" opacity=".302"/>

<path fill="#40343E" d="M627.575 216.979h32.568V92.247h-32.568z"/>

<path fill="#7D757C" d="m664.485 41.35-4.354 50.899h-32.567L623.32 42.02c-.037-.447-.075-.67-.075-.67s8.04-26.288 17.865-30.682a6.141 6.141 0 0 1 2.755-.669c11.016 0 20.62 31.35 20.62 31.35"/>

<path fill="#40343E" d="m641.111 10.67-1.042 13.925s-1.277 26.132-5.753 43.14c-.687 2.614-4.337 2.839-5.296.312-3.272-8.621-5.271-22.776-5.699-26.027-.037-.447-.075-.67-.075-.67s8.04-26.287 17.865-30.68m5.509 0 1.043 13.925s1.276 26.132 5.753 43.14c.688 2.614 4.336 2.839 5.295.312 3.272-8.621 5.272-22.776 5.7-26.027.037-.447.074-.67.074-.67s-8.04-26.287-17.865-30.68"/>

<path fill="#2F222D" d="M627.576 216.98v-34.774s16.47 15.591 32.567 0v34.774h-32.567Z"/>

<path fill="#AAA5A9" d="M627.575 95.522h32.568v-3.273h-32.568z"/>

<path fill="#FFF" d="M634.719 92.248h.009V216.98h8.845V92.248h-.002l-1.046-50.228c-.009-.447-.019-.67-.019-.67l-7.787 50.898Z" opacity=".298"/><g fill="#B5C0CE">

<path d="M647.089 435.065a2.492 2.492 0 0 1-2.49 2.489 2.492 2.492 0 0 1-2.49-2.489 2.492 2.492 0 0 1 2.49-2.488 2.492 2.492 0 0 1 2.49 2.488m-10.165-4.121a8.646 8.646 0 0 0-1.04 4.121c0 .47.046.926.119 1.375a7.47 7.47 0 0 1 6.087 6.962 8.662 8.662 0 0 0 5.017 0 7.47 7.47 0 0 1 6.087-6.962c.072-.449.12-.906.12-1.375 0-1.489-.378-2.893-1.041-4.121a35.431 35.431 0 0 0-15.349 0"/>

<path d="M644.598 445.018c-5.491 0-9.96-4.465-9.96-9.953 0-5.487 4.469-9.952 9.96-9.952 5.492 0 9.96 4.465 9.96 9.952 0 5.488-4.468 9.953-9.96 9.953m-14.94-9.953c0 8.232 6.702 14.929 14.94 14.929 8.239 0 14.94-6.697 14.94-14.929 0-8.231-6.701-14.928-14.94-14.928-8.238 0-14.94 6.697-14.94 14.928Z"/></g>

<path fill="#DA2129" d="M431.513 229.077h75.267v-12.274h-75.267z"/>

<path fill="#2C2C2F" d="M470.131 517h-2.829c-73.545-.298-79.835-92.19-69.599-125.663 4.355-14.186 9.266-33.138 13.175-52.685 5.323-26.586 8.784-54.286 6.365-72.532-.708-5.249-.894-9.754-.782-13.627.67-19.547 10.086-23.123 10.086-23.123h84.674s9.417 3.576 10.086 23.123c.113 3.873-.075 8.378-.78 13.627-4.207 31.65 9.304 91.706 19.539 125.217C550.3 424.847 543.974 517 470.13 517"/>

<path fill="#2C2C2F" d="M469.805 517h-2.09c-54.367-.298-59.017-92.19-51.451-125.663 3.218-14.186 6.85-33.138 9.739-52.685 3.934-26.586 6.494-54.286 4.705-72.532-.523-5.249-.66-9.754-.578-13.627.496-19.547 7.456-23.123 7.456-23.123h62.594s6.961 3.576 7.456 23.123c.083 3.873-.056 8.378-.578 13.627-3.11 31.65 6.879 91.706 14.445 125.217C529.07 424.847 524.393 517 469.805 517"/>

<path fill="#DA2129" d="M540.029 391.337c-4.355-14.186-9.268-33.137-13.175-52.686-25.756 13.442-32.12 42.261-20.396 81.617 4.07 13.671 1.926 24.706-2.948 33.419-14.858 26.566-54.43 26.566-69.29 0-4.873-8.713-7.017-19.748-2.945-33.419 11.723-39.356 5.359-68.175-20.397-81.617-3.908 19.549-8.821 38.5-13.176 52.686-10.234 33.472-3.945 125.366 69.6 125.663H470.429c73.546-.297 79.837-92.19 69.6-125.663"/>

<path fill="#CF5673" d="m506.457 420.267.55 1.63c.188.529.393 1.188.607 1.978.239.783.478 1.695.688 2.727.454 2.055.898 4.599.998 7.563.129 2.956-.044 6.342-.85 9.94a38.44 38.44 0 0 1-4.25 11.113c-.508.89-1.011 1.79-1.67 2.715l-.946 1.387-1.031 1.315c-1.372 1.776-3.014 3.392-4.752 4.95-3.556 3.01-7.715 5.643-12.357 7.273-4.608 1.715-9.593 2.552-14.578 2.613-4.986-.057-9.971-.897-14.579-2.612-4.646-1.624-8.804-4.261-12.36-7.27-3.542-3.056-6.326-6.685-8.408-10.38l-.397-.69c-.168-.282-.242-.47-.368-.707-.225-.459-.456-.89-.672-1.36-.434-.955-.856-1.892-1.188-2.827-.692-1.868-1.244-3.715-1.618-5.519-.806-3.6-.978-6.984-.849-9.941.1-2.964.545-5.508 1-7.563.211-1.033.449-1.942.688-2.725.214-.787.42-1.449.61-1.98l.55-1.63-.355 1.682a26.78 26.78 0 0 0-.371 2.026c-.138.798-.28 1.716-.392 2.749-.492 4.097-.725 10.133 1.193 16.865.46 1.68 1.09 3.385 1.85 5.095a46.28 46.28 0 0 0 1.223 2.547c.218.426.483.871.724 1.31.12.205.256.48.364.627l.4.625a38.85 38.85 0 0 0 8.13 9.289 38.416 38.416 0 0 0 11.464 6.395c4.226 1.533 8.8 2.252 13.361 2.273 4.56-.018 9.134-.738 13.36-2.27 4.247-1.473 8.134-3.702 11.467-6.394 1.637-1.381 3.166-2.842 4.516-4.412l1.01-1.17.9-1.2c.608-.76 1.165-1.652 1.715-2.522 1.054-1.641 1.953-3.391 2.703-5.096.76-1.71 1.39-3.414 1.85-5.096 1.918-6.733 1.683-12.77 1.188-16.866a43.343 43.343 0 0 0-.391-2.747c-.118-.8-.245-1.48-.371-2.027l-.356-1.683"/>

<path fill="#6D6D6F" d="M521.307 252.493a99.446 99.446 0 0 0-104.846 0c.67-19.547 10.087-23.122 10.087-23.122h84.674s9.416 3.575 10.085 23.122"/>

<path fill="#FFF" d="M429.985 391.336c2.38-14.186 5.064-33.137 7.2-52.685 2.909-26.584 4.8-54.286 3.477-72.53-.386-5.25-.488-9.756-.426-13.628.366-19.548 5.512-23.122 5.512-23.122h-8.161s-6.961 3.574-7.456 23.122c-.083 3.872.055 8.377.578 13.628 1.788 18.244-.77 45.946-4.705 72.53-2.89 19.548-6.52 38.5-9.74 52.685-7.566 33.473-2.917 125.366 51.45 125.663h.304c-40.19-.297-43.627-92.19-38.033-125.663m91.518 0c-7.566-33.51-17.554-93.567-14.444-125.215.522-5.25.66-9.756.577-13.628-.494-19.548-7.456-23.122-7.456-23.122h-8.162s5.146 3.574 5.512 23.122c.061 3.872-.04 8.377-.427 13.628-2.298 31.648 5.084 91.706 10.678 125.215C513.375 424.846 509.917 517 469.564 517h.241c54.588 0 59.265-92.153 51.698-125.663" opacity=".302"/>

<path fill="#40343E" d="M452.575 216.979h32.568V92.247h-32.568z"/>

<path fill="#7D757C" d="m489.485 41.35-4.354 50.899h-32.567L448.32 42.02c-.037-.447-.075-.67-.075-.67s8.04-26.288 17.865-30.682a6.141 6.141 0 0 1 2.755-.669c11.016 0 20.62 31.35 20.62 31.35"/>

<path fill="#40343E" d="m466.111 10.67-1.042 13.925s-1.277 26.132-5.753 43.14c-.687 2.614-4.337 2.839-5.296.312-3.272-8.621-5.271-22.776-5.699-26.027a9.13 9.13 0 0 0-.075-.67s8.04-26.287 17.865-30.68m5.509 0 1.043 13.925s1.276 26.132 5.753 43.14c.688 2.614 4.336 2.839 5.295.312 3.272-8.621 5.272-22.776 5.7-26.027a9.13 9.13 0 0 1 .074-.67s-8.04-26.287-17.865-30.68"/>

<path fill="#2F222D" d="M452.576 216.98v-34.774s16.47 15.591 32.567 0v34.774h-32.567Z"/>

<path fill="#AAA5A9" d="M452.575 95.522h32.568v-3.273h-32.568z"/>

<path fill="#FFF" d="M459.719 92.248h.009V216.98h8.845V92.248h-.002l-1.046-50.228c-.009-.447-.019-.67-.019-.67l-7.787 50.898Z" opacity=".298"/><g fill="#DA2129">

<path d="M472.089 435.065a2.492 2.492 0 0 1-2.49 2.489 2.492 2.492 0 0 1-2.49-2.489 2.492 2.492 0 0 1 2.49-2.488 2.492 2.492 0 0 1 2.49 2.488m-10.165-4.121a8.646 8.646 0 0 0-1.04 4.121c0 .47.046.926.119 1.375a7.47 7.47 0 0 1 6.087 6.962 8.662 8.662 0 0 0 5.017 0 7.47 7.47 0 0 1 6.087-6.962c.072-.449.12-.906.12-1.375 0-1.489-.378-2.893-1.041-4.121a35.431 35.431 0 0 0-15.349 0"/>

<path d="M469.598 445.018c-5.491 0-9.96-4.465-9.96-9.953 0-5.487 4.469-9.952 9.96-9.952 5.492 0 9.96 4.465 9.96 9.952 0 5.488-4.468 9.953-9.96 9.953m-14.94-9.953c0 8.232 6.702 14.929 14.94 14.929 8.239 0 14.94-6.697 14.94-14.929 0-8.231-6.701-14.928-14.94-14.928-8.238 0-14.94 6.697-14.94 14.928Z"/></g>

<path fill="#2D4654" d="m76.104 326.089 74.123-13.07-2.131-12.088-74.124 13.07z"/>

<path fill="#2C2C2F" d="m164.132 602.932-2.786.49c-72.48 12.478-94.63-76.926-90.362-111.667 1.825-14.727 3.37-34.244 3.826-54.173.625-27.106-.777-54.987-6.328-72.535-1.608-5.046-2.574-9.45-3.136-13.285-2.734-19.366 5.919-24.522 5.919-24.522l83.387-14.703s9.894 1.885 13.947 21.02c.784 3.794 1.382 8.263 1.598 13.555 1.354 31.899 25.088 88.697 40.986 119.922 15.9 31.223 25.67 123.075-47.05 135.898"/>

<path fill="#2C2C2F" d="m163.811 602.988-2.059.363c-53.592 9.147-74.128-80.542-72.49-114.82.706-14.529.993-33.824.443-53.575-.742-26.865-3.032-54.59-7.962-72.247-1.426-5.079-2.344-9.492-2.935-13.32-2.906-19.336 3.327-24.066 3.327-24.066l61.643-10.87s7.477 2.313 11.358 21.477c.755 3.8 1.4 8.26 1.797 13.52 2.434 31.71 22.7 89.12 35.97 120.807 13.27 31.687 24.666 123.252-29.092 132.731"/>

<path fill="#2D4654" d="M211.147 467.04c-6.752-13.215-14.881-31.024-22.124-49.597-23.03 17.71-24.294 47.196-5.913 83.918 6.382 12.757 6.187 23.997 2.9 33.423-10.02 28.743-48.99 35.614-68.237 12.032-6.312-7.734-10.34-18.229-8.704-32.4 4.71-40.793-6.561-68.07-34.26-76.834-.454 19.93-2.001 39.446-3.826 54.173-4.267 34.74 17.884 124.146 90.364 111.667l1.539-.27 1.54-.272c72.376-13.064 62.614-104.654 46.721-135.84"/>

<path fill="#6C7E88" d="m183.109 501.36.824 1.51c.278.488.593 1.101.942 1.842.371.73.765 1.587 1.151 2.567.804 1.945 1.683 4.373 2.296 7.274.64 2.889 1.058 6.254.89 9.937a38.44 38.44 0 0 1-2.257 11.683c-.345.963-.685 1.938-1.173 2.963-.228.507-.46 1.017-.69 1.53l-.788 1.474c-1.042 1.988-2.38 3.864-3.82 5.7-2.979 3.582-6.618 6.897-10.906 9.308-4.24 2.49-9.004 4.18-13.903 5.105-4.92.81-9.975.848-14.81-.04-4.858-.793-9.41-2.668-13.435-5.015-4.02-2.393-7.392-5.484-10.083-8.762l-.51-.609c-.216-.25-.321-.42-.487-.633-.3-.413-.603-.796-.897-1.223-.594-.865-1.172-1.714-1.66-2.577-1.007-1.72-1.871-3.443-2.553-5.154-1.419-3.405-2.176-6.709-2.562-9.644-.416-2.936-.42-5.518-.328-7.621.028-1.054.104-1.99.203-2.803.075-.812.162-1.5.257-2.055.168-1.11.259-1.701.259-1.701l-.057 1.718c-.03.56-.036 1.249-.014 2.06.003.809.022 1.738.091 2.775.228 4.12 1.046 10.105 4.104 16.4.744 1.576 1.661 3.145 2.707 4.697a46.28 46.28 0 0 0 1.646 2.296c.29.382.627.774.941 1.165.153.18.335.429.467.554l.501.546a38.85 38.85 0 0 0 9.621 7.736 38.416 38.416 0 0 0 12.4 4.307c4.428.777 9.058.69 13.553-.08 4.488-.81 8.867-2.314 12.763-4.558 3.927-2.187 7.368-5.057 10.182-8.287 1.372-1.644 2.625-3.348 3.681-5.129l.791-1.328.678-1.338c.468-.854.862-1.829 1.252-2.78.753-1.8 1.335-3.68 1.777-5.489.45-1.816.776-3.604.936-5.34.72-6.963-.56-12.869-1.757-16.816a43.343 43.343 0 0 0-.863-2.637 26.429 26.429 0 0 0-.717-1.932l-.643-1.595"/>

<path fill="#6D6D6F" d="M168.6 333.556a99.446 99.446 0 0 0-103.253 18.207c-2.734-19.367 5.918-24.523 5.918-24.523l83.388-14.703s9.894 1.886 13.947 21.02"/>

<path fill="#FFF" d="M102.775 486.148c-.12-14.384-.767-33.513-2.058-53.135-1.752-26.685-4.7-54.295-9.17-72.032-1.293-5.104-2.175-9.523-2.787-13.347-3.034-19.314 1.413-23.728 1.413-23.728l-8.037 1.418s-6.235 4.728-3.327 24.065c.59 3.828 1.51 8.24 2.935 13.32 4.929 17.657 7.22 45.382 7.962 72.246.549 19.753.263 39.046-.444 53.576-1.639 34.278 18.898 123.968 72.49 114.82l.3-.053c-39.631 6.686-58.974-83.214-59.277-117.15m90.128-15.892c-13.27-31.686-33.535-89.097-35.968-120.805-.398-5.261-1.044-9.722-1.799-13.52-3.881-19.166-11.357-21.477-11.357-21.477l-8.038 1.418s5.688 2.626 9.443 21.813c.733 3.803 1.415 8.257 1.946 13.495 3.232 31.566 20.931 89.43 32.26 121.46 11.327 32.028 23.923 123.382-15.817 130.39l.238-.043c53.758-9.479 42.362-101.044 29.092-132.73" opacity=".302"/>

<path fill="#40343E" d="m94.745 310.517 32.073-5.655-21.66-122.837-32.073 5.655z"/>

<path fill="#7D757C" d="m100.597 131.147 4.55 50.882-32.072 5.655-12.9-48.728a9.247 9.247 0 0 0-.19-.648s3.352-27.284 12.265-33.317a6.141 6.141 0 0 1 2.597-1.137c10.849-1.913 25.75 27.293 25.75 27.293"/>

<path fill="#40343E" d="m72.25 104.992 1.392 13.895s3.28 25.956 1.825 43.483c-.222 2.693-3.777 3.548-5.16 1.227-4.72-7.922-9.147-21.514-10.133-24.642-.114-.434-.19-.646-.19-.646s3.354-27.285 12.266-33.317m5.425-.957 3.445 13.533s5.795 25.513 13.157 41.485c1.132 2.455 4.764 2.043 5.27-.612 1.725-9.059 1.236-23.345 1.092-26.621-.04-.447-.042-.672-.042-.672s-12.483-24.492-22.922-27.113"/>

<path fill="#2F222D" d="m94.746 310.517-6.038-34.245s18.926 12.495 32.072-5.655l6.039 34.245-32.073 5.655Z"/>

<path fill="#AAA5A9" d="m73.654 190.905 32.073-5.655-.568-3.223-32.073 5.655z"/>

<path fill="#FFF" d="M80.121 186.44h.009l21.66 122.836 8.71-1.536-21.66-122.837h-.002l-9.751-49.283c-.087-.438-.136-.657-.136-.657l1.17 51.478Z" opacity=".298"/><g fill="#6C7E88">

<path d="M151.832 521.902a2.492 2.492 0 0 1-2.02 2.883 2.492 2.492 0 0 1-2.884-2.018 2.492 2.492 0 0 1 2.02-2.883 2.492 2.492 0 0 1 2.884 2.018m-10.725-2.294a8.646 8.646 0 0 0-.31 4.24c.082.462.207.903.357 1.333a7.47 7.47 0 0 1 7.203 5.799 8.662 8.662 0 0 0 4.941-.872 7.47 7.47 0 0 1 4.786-7.913 8.629 8.629 0 0 0-.121-1.374 8.646 8.646 0 0 0-1.74-3.878 35.431 35.431 0 0 0-15.116 2.665"/>

<path d="M151.108 532.135c-5.408.954-10.584-2.667-11.537-8.071-.953-5.404 2.672-10.577 8.08-11.53 5.41-.954 10.585 2.667 11.538 8.07.953 5.405-2.672 10.578-8.08 11.531m-16.442-7.206c1.429 8.106 9.192 13.538 17.305 12.107 8.114-1.43 13.55-9.19 12.121-17.296-1.429-8.107-9.192-13.538-17.305-12.107-8.114 1.43-13.55 9.189-12.121 17.296Z"/></g></g></svg>