<svg xmlns="http://www.w3.org/2000/svg" width="420" viewBox="0 0 420 365">
<g fill="none" fill-rule="evenodd"><path fill="#2D3C53" fill-rule="nonzero" d="M2.68 198.112v-62.56H22c3.803 0 6.777 1.027 8.924 3.082 2.147 2.055 3.22 5.075 3.22 9.062v14.628c0 3.987-1.089 7.007-3.266 9.062-2.177 2.055-5.167 3.082-8.97 3.082h-7.82v23.644H2.68Zm16.376-53.36h-4.968v20.516h4.968c2.453 0 3.68-1.35 3.68-4.048v-12.328c0-2.76-1.227-4.14-3.68-4.14Zm20.068 53.36v-62.56h11.408v25.116h8.74v-25.116H70.68v62.56H59.272v-27.968h-8.74v27.968H39.124Zm37.916 0v-62.56h11.408v62.56H77.04Zm17.768 0v-62.56h11.408v53.084h13.34v9.476H94.808Zm28.716 0v-62.56h11.408v53.084h13.34v9.476h-24.748Zm28.716 0v-62.56h11.408v62.56H152.24Zm17.768 0v-62.56h19.32c3.803 0 6.777 1.027 8.924 3.082 2.147 2.055 3.22 5.075 3.22 9.062v14.628c0 3.987-1.089 7.007-3.266 9.062-2.177 2.055-5.167 3.082-8.97 3.082h-7.82v23.644h-11.408Zm16.376-53.36h-4.968v20.516h4.968c2.453 0 3.68-1.35 3.68-4.048v-12.328c0-2.76-1.227-4.14-3.68-4.14Zm32.304 53.912c-3.864 0-6.854-1.058-8.97-3.174-2.116-2.116-3.174-5.106-3.174-8.97v-11.408h11.316v10.212c0 2.76 1.227 4.14 3.68 4.14h1.38c2.33 0 3.496-1.38 3.496-4.14v-7.084c0-1.533-.322-2.76-.966-3.68-.644-.92-1.733-1.687-3.266-2.3l-6.716-2.668c-3.19-1.227-5.474-2.944-6.854-5.152s-2.07-5.183-2.07-8.924v-8.372c0-3.925 1.043-6.93 3.128-9.016 2.085-2.085 5.09-3.128 9.016-3.128h6.9c3.925 0 6.93 1.043 9.016 3.128 2.085 2.085 3.128 5.09 3.128 9.016v10.58h-11.316v-9.384c0-2.76-1.227-4.14-3.68-4.14h-1.196c-2.453 0-3.68 1.38-3.68 4.14v5.796c0 1.472.322 2.637.966 3.496.644.859 1.763 1.625 3.358 2.3l6.256 2.484c3.312 1.35 5.689 3.051 7.13 5.106 1.441 2.055 2.162 4.953 2.162 8.694v10.304c0 3.864-1.043 6.854-3.128 8.97-2.085 2.116-5.09 3.174-9.016 3.174h-6.9Zm40.872-.552v-53.084h-9.476v-9.476h30.36v9.476h-9.476v53.084H259.56Zm24.3 0v-62.56h11.408v62.56H283.86Zm17.768 0v-62.56h19.32c3.803 0 6.777 1.027 8.924 3.082 2.147 2.055 3.22 5.075 3.22 9.062v14.628c0 3.987-1.089 7.007-3.266 9.062-2.177 2.055-5.167 3.082-8.97 3.082h-7.82v23.644h-11.408Zm16.376-53.36h-4.968v20.516h4.968c2.453 0 3.68-1.35 3.68-4.048v-12.328c0-2.76-1.227-4.14-3.68-4.14ZM14.916 283.664c-3.864 0-6.854-1.058-8.97-3.174-2.116-2.116-3.174-5.106-3.174-8.97v-11.408h11.316v10.212c0 2.76 1.227 4.14 3.68 4.14h1.38c2.33 0 3.496-1.38 3.496-4.14v-7.084c0-1.533-.322-2.76-.966-3.68-.644-.92-1.733-1.687-3.266-2.3l-6.716-2.668c-3.19-1.227-5.474-2.944-6.854-5.152s-2.07-5.183-2.07-8.924v-8.372c0-3.925 1.043-6.93 3.128-9.016 2.085-2.085 5.09-3.128 9.016-3.128h6.9c3.925 0 6.93 1.043 9.016 3.128 2.085 2.085 3.128 5.09 3.128 9.016v10.58H22.644v-9.384c0-2.76-1.227-4.14-3.68-4.14h-1.196c-2.453 0-3.68 1.38-3.68 4.14v5.796c0 1.472.322 2.637.966 3.496.644.859 1.763 1.625 3.358 2.3l6.256 2.484c3.312 1.35 5.689 3.051 7.13 5.106 1.441 2.055 2.162 4.953 2.162 8.694v10.304c0 3.864-1.043 6.854-3.128 8.97-2.085 2.116-5.09 3.174-9.016 3.174h-6.9Zm36.812 0c-3.741 0-6.7-1.027-8.878-3.082-2.177-2.055-3.266-5.075-3.266-9.062v-39.376c0-3.987 1.073-7.007 3.22-9.062 2.147-2.055 5.121-3.082 8.924-3.082h6.532c3.803 0 6.777 1.027 8.924 3.082 2.147 2.055 3.22 5.075 3.22 9.062v13.34H58.996V233.34c0-2.76-1.257-4.14-3.772-4.14h-.552c-2.453 0-3.68 1.38-3.68 4.14v36.984c0 2.76 1.227 4.14 3.68 4.14h.644c2.453 0 3.68-1.38 3.68-4.14V258.18h11.408v13.34c0 3.987-1.073 7.007-3.22 9.062-2.147 2.055-5.121 3.082-8.924 3.082h-6.532Zm24.116-.552v-62.56h19.32c3.803 0 6.777 1.027 8.924 3.082 2.147 2.055 3.22 5.075 3.22 9.062v14.352c0 5.03-1.717 8.556-5.152 10.58l6.716 25.484H96.728L91.3 259.284h-4.048v23.828H75.844Zm16.376-53.36h-4.968v20.332h4.968c1.165 0 2.07-.307 2.714-.92.644-.613.966-1.656.966-3.128v-12.144c0-2.76-1.227-4.14-3.68-4.14Zm20.712 53.36v-62.56h25.208v9.476h-13.8v16.192h12.236v9.476H124.34v17.94h14.72v9.476h-26.128Zm34.512 0-6.716-62.56h11.408l3.312 43.976 5.612-43.976h10.028l5.52 44.252 3.312-44.252h9.844l-6.808 62.56h-13.248l-4.508-38.088-4.784 38.088h-12.972Zm45.92 0v-62.56h19.32c3.803 0 6.777 1.027 8.924 3.082 2.147 2.055 3.22 5.075 3.22 9.062v38.272c0 3.987-1.073 7.007-3.22 9.062-2.147 2.055-5.121 3.082-8.924 3.082h-19.32Zm16.376-53.36h-4.968v44.16h4.968c2.453 0 3.68-1.35 3.68-4.048v-35.972c0-2.76-1.227-4.14-3.68-4.14Zm21.08 53.36v-62.56h19.32c3.803 0 6.777 1.027 8.924 3.082 2.147 2.055 3.22 5.075 3.22 9.062v14.352c0 5.03-1.717 8.556-5.152 10.58l6.716 25.484h-12.144l-5.428-23.828h-4.048v23.828H230.82Zm16.376-53.36h-4.968v20.332h4.968c1.165 0 2.07-.307 2.714-.92.644-.613.966-1.656.966-3.128v-12.144c0-2.76-1.227-4.14-3.68-4.14Zm20.712 53.36v-62.56h11.408v62.56h-11.408Zm25.128 0-10.58-62.56h12.236l6.256 45.908 6.256-45.908h10.304l-10.948 62.56h-13.524Zm27.612 0v-62.56h25.208v9.476h-13.8v16.192h12.236v9.476h-12.236v17.94h14.72v9.476h-26.128Zm30.556 0v-62.56h19.32c3.803 0 6.777 1.027 8.924 3.082 2.147 2.055 3.22 5.075 3.22 9.062v14.352c0 5.03-1.717 8.556-5.152 10.58l6.716 25.484h-12.144l-5.428-23.828h-4.048v23.828h-11.408Zm16.376-53.36h-4.968v20.332h4.968c1.165 0 2.07-.307 2.714-.92.644-.613.966-1.656.966-3.128v-12.144c0-2.76-1.227-4.14-3.68-4.14Zm-240.884 90.352v-1.44c.256-.272.428-.592.516-.96.088-.368.132-.808.132-1.32v-3.072h-1.128v-1.632h1.128v-5.328c0-.896.232-1.568.696-2.016.464-.448 1.112-.672 1.944-.672h.888c.832 0 1.48.224 1.944.672.464.448.696 1.12.696 2.016v3.192h-1.92v-3.12c0-.416-.092-.712-.276-.888-.184-.176-.444-.264-.78-.264h-.24c-.32 0-.576.088-.768.264-.192.176-.288.472-.288.888v5.256h2.88v1.632h-2.88v3.168c0 .896-.232 1.56-.696 1.992h5.208v1.632h-7.056Zm12.072 0v-3.672h-4.272v-1.416l3.672-11.232h2.52V314.8h1.296v1.632h-1.296v3.672h-1.92Zm-2.592-5.304h2.592v-7.872l-2.592 7.872Zm7.128 5.304v-2.592h1.992v2.592h-1.992Zm7.44-16.44c.864 0 1.532.232 2.004.696.472.464.708 1.152.708 2.064v11.04c0 .912-.24 1.6-.72 2.064-.48.464-1.144.696-1.992.696h-.888c-.864 0-1.536-.232-2.016-.696-.48-.464-.72-1.152-.72-2.064v-2.376h1.944v2.304c0 .432.096.744.288.936.192.192.464.288.816.288h.264c.336 0 .604-.096.804-.288.2-.192.3-.504.3-.936v-4.944l-.576.336c-.528.32-.948.548-1.26.684a2.25 2.25 0 0 1-.9.204c-.576 0-1.028-.204-1.356-.612-.328-.408-.492-.98-.492-1.716v-4.92c0-.928.24-1.62.72-2.076.48-.456 1.152-.684 2.016-.684h1.056Zm-1.848 7.224c0 .64.232.96.696.96.288 0 .632-.088 1.032-.264l.912-.36v-4.728c0-.432-.1-.744-.3-.936-.2-.192-.468-.288-.804-.288H150c-.736 0-1.104.408-1.104 1.224v4.392Zm10.056-7.224c.864 0 1.532.232 2.004.696.472.464.708 1.152.708 2.064v11.04c0 .912-.24 1.6-.72 2.064-.48.464-1.144.696-1.992.696h-.888c-.864 0-1.536-.232-2.016-.696-.48-.464-.72-1.152-.72-2.064v-2.376h1.944v2.304c0 .432.096.744.288.936.192.192.464.288.816.288h.264c.336 0 .604-.096.804-.288.2-.192.3-.504.3-.936v-4.944l-.576.336c-.528.32-.948.548-1.26.684a2.25 2.25 0 0 1-.9.204c-.576 0-1.028-.204-1.356-.612-.328-.408-.492-.98-.492-1.716v-4.92c0-.928.24-1.62.72-2.076.48-.456 1.152-.684 2.016-.684h1.056Zm-1.848 7.224c0 .64.232.96.696.96.288 0 .632-.088 1.032-.264l.912-.36v-4.728c0-.432-.1-.744-.3-.936-.2-.192-.468-.288-.804-.288h-.432c-.736 0-1.104.408-1.104 1.224v4.392ZM1.032 320.104v-16.32h1.944v6.912h2.592v-6.912h1.944v16.32H5.568V312.4H2.976v7.704H1.032Zm7.704 0 2.592-16.32h2.4l2.592 16.32h-2.064l-.48-3.504H11.04l-.48 3.504H8.736Zm2.52-5.16h2.28l-1.128-8.28-1.152 8.28Zm6.288 5.16v-16.32h2.28l2.832 12.288v-12.288h1.56v16.32h-2.28l-2.832-12.24v12.24h-1.56Zm8.736 0v-16.32h3.744c.848 0 1.512.228 1.992.684.48.456.72 1.156.72 2.1v10.752c0 .944-.24 1.644-.72 2.1-.48.456-1.144.684-1.992.684H26.28Zm3.384-14.664h-1.44v13.008h1.44c.352 0 .624-.096.816-.288.192-.192.288-.504.288-.936v-10.56c0-.432-.096-.744-.288-.936-.192-.192-.464-.288-.816-.288Zm9.168 14.664v-14.616H36.48v-1.704h6.648v1.704h-2.352v14.616h-1.944Zm8.16.12c-.832 0-1.492-.228-1.98-.684-.488-.456-.732-1.148-.732-2.076v-11.04c0-.928.244-1.62.732-2.076.488-.456 1.148-.684 1.98-.684h1.176c.832 0 1.488.228 1.968.684.48.456.72 1.148.72 2.076v11.04c0 .928-.24 1.62-.72 2.076-.48.456-1.136.684-1.968.684h-1.176Zm.36-1.656h.456c.336 0 .604-.096.804-.288.2-.192.3-.504.3-.936v-10.8c0-.432-.1-.744-.3-.936-.2-.192-.468-.288-.804-.288h-.456c-.336 0-.604.096-.804.288-.2.192-.3.504-.3.936v10.8c0 .432.1.744.3.936.2.192.468.288.804.288Zm8.064 1.656c-.832 0-1.492-.228-1.98-.684-.488-.456-.732-1.148-.732-2.076v-11.04c0-.928.244-1.62.732-2.076.488-.456 1.148-.684 1.98-.684h1.176c.832 0 1.488.228 1.968.684.48.456.72 1.148.72 2.076v11.04c0 .928-.24 1.62-.72 2.076-.48.456-1.136.684-1.968.684h-1.176Zm.36-1.656h.456c.336 0 .604-.096.804-.288.2-.192.3-.504.3-.936v-10.8c0-.432-.1-.744-.3-.936-.2-.192-.468-.288-.804-.288h-.456c-.336 0-.604.096-.804.288-.2.192-.3.504-.3.936v10.8c0 .432.1.744.3.936.2.192.468.288.804.288Zm5.472 1.536v-16.32h1.944V318.4h3.12v1.704h-5.064Zm9.12.12c-.848 0-1.512-.232-1.992-.696-.48-.464-.72-1.152-.72-2.064v-3.6H69.6v3.48c0 .432.1.744.3.936.2.192.468.288.804.288h.432c.336 0 .604-.096.804-.288.2-.192.3-.504.3-.936v-2.664c0-.464-.084-.832-.252-1.104-.168-.272-.476-.512-.924-.72l-1.464-.696c-.688-.32-1.184-.732-1.488-1.236-.304-.504-.456-1.172-.456-2.004v-2.496c0-.928.24-1.62.72-2.076.48-.456 1.144-.684 1.992-.684h1.104c.848 0 1.512.228 1.992.684.48.456.72 1.148.72 2.076v3.096H72.24v-2.976c0-.432-.1-.744-.3-.936-.2-.192-.468-.288-.804-.288h-.432c-.304 0-.564.096-.78.288-.216.192-.324.504-.324.936v2.136c0 .48.088.848.264 1.104.176.256.48.488.912.696l1.44.672c.704.336 1.208.748 1.512 1.236.304.488.456 1.148.456 1.98v3.096c0 .912-.24 1.6-.72 2.064-.48.464-1.144.696-1.992.696h-1.104Z"/><path fill="#545659" d="M119.215 110.598v-2.833s-9.124-2.45-22.33 2.833H35.581a7.342 7.342 0 0 1-7.335-7.335v-8.805h-4.402v8.805c0 6.47 5.266 11.737 11.737 11.737h83.634v-4.402Z"/><path fill="#7D757C" d="m395.835 83.083-8.496-2.774h-90.587V69.302h90.587l8.496-2.729 23.286 4.094c.527.133.879.528.879 1.012v6.252c0 .528-.352.925-.88 1.013l-23.285 4.139Z"/><path fill="#EC8E00" d="M239.441 87.662V61.95l8.584.397 50.488 2.421c2.376.044 4.314 1.937 4.314 5.811v8.453c0 3.919-1.938 5.767-4.314 5.855l-50.972 2.378-8.1.397Z"/><path fill="#545659" d="M239.44 74.82V58.908a4.816 4.816 0 0 0-4.816-4.817h-8.915a4.817 4.817 0 0 0-4.815 4.817v31.824a4.817 4.817 0 0 0 4.815 4.817h8.915a4.816 4.816 0 0 0 4.816-4.817V74.82Z"/><path fill="#999A9C" d="M239.44 90.732V58.908a4.815 4.815 0 0 0-4.816-4.816h-5.501a4.816 4.816 0 0 1 4.815 4.816V90.732a4.816 4.816 0 0 1-4.815 4.816h5.501a4.815 4.815 0 0 0 4.816-4.816"/><path fill="#C51D00" d="M25.437 74.82V49.823H13.816c-3.542 0-7.665 3.252-10.48 5.953C1.19 57.837 0 60.69 0 63.666V85.975c0 2.976 1.19 5.828 3.337 7.89 2.814 2.7 6.937 5.953 10.479 5.953h11.621V74.82Z"/><path fill="#26282C" d="M156.645 104.655c-15.098 0-38.252-.704-60.92-1.629-35.742-1.409-70.296-3.214-70.296-3.214v-49.97s34.554-1.803 70.296-3.212c22.668-.881 45.822-1.63 60.92-1.63 14.878 0 27.863 2.201 38.119 4.931 16.507 4.314 26.147 9.994 26.147 9.994v29.806s-9.64 5.679-26.147 10.038a151.055 151.055 0 0 1-38.12 4.886"/><path fill="#545659" d="M313.126 69.302c-2.156 1.277-5.766 4.49-1.409 11.007h-8.89V69.302h10.3Z"/><path fill="#FFBA1B" d="M156.645 104.655c-12.018 0-29.14-.44-47.098-1.101-4.578-.177-9.2-.352-13.822-.528V46.63l14.57-.529c17.694-.66 34.509-1.101 46.35-1.101 14.878 0 27.863 2.201 38.119 4.931V99.77a151.055 151.055 0 0 1-38.12 4.886"/><path fill="#EC8E00" d="M156.645 97.274c-15.098 0-38.252-.53-60.92-1.226V53.607c22.668-.663 45.822-1.226 60.92-1.226 14.878 0 27.863 1.657 38.119 3.71v37.505c-10.256 2.022-23.241 3.678-38.12 3.678"/><path fill="#FFBA1B" d="M239.439 69.303v11.005h63.387V69.303z"/><path fill="#F1B51B" d="M95.725 69.303v11.005h99.039V69.303z"/><path fill="#545659" d="M95.725 83.413h36.787a6.108 6.108 0 0 0 6.108-6.108v-4.953a6.108 6.108 0 0 0-6.108-6.11H95.725v17.17Z"/><path fill="#C36800" d="M239.441 87.662V61.95l8.584.397c-1.584 4.666-2.773 12.546-.484 24.918l-8.1.397Z" opacity=".489"/><path fill="#C36800" d="M1.1 309.705c10.876 2.641 29.146 4.534 57.454.75-.176 4.576-.352 9.198-.528 13.82H1.629l-.528-14.57Z" opacity=".498" style="mix-blend-mode:multiply" transform="rotate(90 187.5 232.5)"/><path fill="#FFF" d="M87.303 52.381 15.04 55.714v8.437l72.263-2.568z" opacity=".303"/></g></svg>