<svg xmlns="http://www.w3.org/2000/svg" xmlns:xlink="http://www.w3.org/1999/xlink" width="420" viewBox="0 0 420 365">
<defs><path id="a" d="M0 0h150v365H0z"/></defs><g fill="none" fill-rule="evenodd"><path fill="#BA0D37" fill-rule="nonzero" d="M2.28 115.4V42.64h22.47c4.423 0 7.882 1.195 10.379 3.584 2.497 2.39 3.745 5.903 3.745 10.54v44.512c0 4.637-1.248 8.15-3.745 10.54-2.497 2.39-5.956 3.584-10.379 3.584H2.28Zm19.046-62.06h-5.778v51.36h5.778c2.853 0 4.28-1.57 4.28-4.708V58.155c0-3.21-1.427-4.815-4.28-4.815Zm24.68 62.06V42.64h13.268v72.76H46.006Zm17.083 0 13.589-72.76h15.301l13.589 72.76h-13.91l-2.14-13.482h-12.84L74.645 115.4H63.089Zm15.194-24.075h9.63l-4.815-30.923-4.815 30.923Zm43.726 24.717c-4.351 0-7.793-1.195-10.326-3.585-2.532-2.39-3.798-5.902-3.798-10.539V56.122c0-4.637 1.266-8.15 3.798-10.54 2.533-2.39 5.975-3.584 10.326-3.584h8.132c4.423 0 7.882 1.195 10.379 3.585 2.497 2.39 3.745 5.902 3.745 10.539v13.375h-13.268V57.513c0-3.21-1.427-4.815-4.28-4.815h-1.284c-2.853 0-4.28 1.605-4.28 4.815v43.014c0 3.21 1.427 4.815 4.28 4.815h1.284c1.427 0 2.586-.392 3.478-1.177.891-.785 1.337-1.997 1.337-3.638V87.045h-5.778v-10.7h18.511v25.573c0 4.637-1.248 8.15-3.745 10.54-2.497 2.39-5.956 3.584-10.379 3.584h-8.132Zm42.977 0c-4.351 0-7.793-1.195-10.325-3.585-2.533-2.39-3.799-5.902-3.799-10.539V56.122c0-4.637 1.266-8.15 3.799-10.54 2.532-2.39 5.974-3.584 10.325-3.584h8.774c4.423 0 7.882 1.195 10.379 3.585 2.497 2.39 3.745 5.902 3.745 10.539v45.796c0 4.637-1.248 8.15-3.745 10.54-2.497 2.39-5.956 3.584-10.379 3.584h-8.774Zm3.424-10.7h1.926c2.853 0 4.28-1.605 4.28-4.815V57.513c0-3.21-1.427-4.815-4.28-4.815h-1.926c-2.853 0-4.28 1.605-4.28 4.815v43.014c0 3.21 1.427 4.815 4.28 4.815Zm26.606 10.058V42.64h15.301l11.663 48.364V42.64h10.058v72.76h-15.301l-11.663-48.043V115.4h-10.058Zm40.837 0 13.589-72.76h15.301l13.589 72.76h-13.91l-2.14-13.482h-12.84l-2.033 13.482h-11.556Zm15.194-24.075h9.63l-4.815-30.923-4.815 30.923Zm31.1 24.075V42.64h13.268v61.739h15.515V115.4h-28.783ZM16.511 201.042c-4.494 0-7.971-1.23-10.432-3.691-2.461-2.462-3.692-5.939-3.692-10.433V173.65h13.161v11.877c0 3.21 1.427 4.815 4.28 4.815h1.605c2.71 0 4.066-1.605 4.066-4.815v-8.239c0-1.783-.374-3.21-1.123-4.28-.75-1.07-2.016-1.962-3.799-2.675l-7.811-3.103c-3.71-1.427-6.367-3.424-7.971-5.992-1.606-2.568-2.408-6.028-2.408-10.379v-9.737c0-4.565 1.213-8.06 3.638-10.486 2.425-2.425 5.92-3.638 10.486-3.638h8.025c4.565 0 8.06 1.213 10.486 3.638 2.425 2.425 3.638 5.92 3.638 10.486v12.305H25.499v-10.914c0-3.21-1.427-4.815-4.28-4.815h-1.391c-2.853 0-4.28 1.605-4.28 4.815v6.741c0 1.712.374 3.067 1.124 4.066.748.999 2.05 1.89 3.905 2.675l7.276 2.889c3.852 1.57 6.616 3.549 8.292 5.939 1.677 2.39 2.515 5.76 2.515 10.111v11.984c0 4.494-1.213 7.971-3.638 10.433-2.425 2.46-5.92 3.691-10.486 3.691h-8.025Zm29.281-.642v-72.76H59.06v72.76H45.792Zm20.828 0v-72.76h22.47c4.423 0 7.882 1.195 10.379 3.585 2.497 2.39 3.745 5.902 3.745 10.539v44.512c0 4.637-1.248 8.15-3.745 10.54-2.497 2.39-5.956 3.584-10.379 3.584H66.62Zm19.046-62.06h-5.778v51.36h5.778c2.853 0 4.28-1.57 4.28-4.708v-41.837c0-3.21-1.427-4.815-4.28-4.815Zm24.68 62.06v-72.76h29.318v11.021h-16.05v18.832h14.231v11.021h-14.231v20.865h17.12V200.4h-30.388Zm-94.37 85.642c-4.351 0-7.793-1.195-10.325-3.584-2.533-2.39-3.799-5.903-3.799-10.54v-45.796c0-4.637 1.248-8.15 3.745-10.54 2.497-2.39 5.956-3.584 10.379-3.584h7.597c4.423 0 7.882 1.195 10.379 3.585 2.497 2.39 3.745 5.902 3.745 10.539v15.515H24.429v-14.124c0-3.21-1.462-4.815-4.387-4.815H19.4c-2.853 0-4.28 1.605-4.28 4.815v43.014c0 3.21 1.427 4.815 4.28 4.815h.749c2.853 0 4.28-1.605 4.28-4.815v-14.124h13.268v15.515c0 4.637-1.248 8.15-3.745 10.54-2.497 2.39-5.956 3.584-10.379 3.584h-7.597Zm41.8 0c-4.423 0-7.865-1.23-10.326-3.691-2.46-2.462-3.691-5.939-3.691-10.433V212.64h13.268v57.887c0 3.21 1.427 4.815 4.28 4.815h1.498c2.853 0 4.28-1.57 4.28-4.708V212.64h13.268v59.278c0 4.494-1.213 7.971-3.638 10.433-2.425 2.46-5.885 3.691-10.379 3.691h-8.56Zm37.306-.642v-61.739H84.061V212.64h35.31v11.021H108.35V285.4H95.082Zm36.022 0v-61.739h-11.021V212.64h35.31v11.021h-11.021V285.4h-13.268Zm28.425 0v-72.76h29.318v11.021h-16.05v18.832h14.231v11.021h-14.231v20.865h17.12V285.4h-30.388Zm35.701 0v-72.76h22.47c4.423 0 7.882 1.195 10.379 3.585 2.497 2.39 3.745 5.902 3.745 10.539v16.692c0 5.85-1.997 9.951-5.992 12.305l7.811 29.639h-14.124l-6.313-27.713h-4.708V285.4H195.23Zm19.046-62.06h-5.778v23.647h5.778c1.355 0 2.407-.357 3.156-1.07.75-.713 1.124-1.926 1.124-3.638v-14.124c0-3.21-1.427-4.815-4.28-4.815Z"/><path fill="#243A4A" fill-rule="nonzero" d="M134.696 322.482v-1.44c.256-.272.428-.592.516-.96.088-.368.132-.808.132-1.32v-3.072h-1.128v-1.632h1.128v-5.328c0-.896.232-1.568.696-2.016.464-.448 1.112-.672 1.944-.672h.888c.832 0 1.48.224 1.944.672.464.448.696 1.12.696 2.016v3.192h-1.92v-3.12c0-.416-.092-.712-.276-.888-.184-.176-.444-.264-.78-.264h-.24c-.32 0-.576.088-.768.264-.192.176-.288.472-.288.888v5.256h2.88v1.632h-2.88v3.168c0 .896-.232 1.56-.696 1.992h5.208v1.632h-7.056Zm12.072-16.44c.864 0 1.532.232 2.004.696.472.464.708 1.152.708 2.064v11.04c0 .912-.24 1.6-.72 2.064-.48.464-1.144.696-1.992.696h-.888c-.864 0-1.536-.232-2.016-.696-.48-.464-.72-1.152-.72-2.064v-2.376h1.944v2.304c0 .432.096.744.288.936.192.192.464.288.816.288h.264c.336 0 .604-.096.804-.288.2-.192.3-.504.3-.936v-4.944l-.576.336c-.528.32-.948.548-1.26.684a2.25 2.25 0 0 1-.9.204c-.576 0-1.028-.204-1.356-.612-.328-.408-.492-.98-.492-1.716v-4.92c0-.928.24-1.62.72-2.076.48-.456 1.152-.684 2.016-.684h1.056Zm-1.848 7.224c0 .64.232.96.696.96.288 0 .632-.088 1.032-.264l.912-.36v-4.728c0-.432-.1-.744-.3-.936-.2-.192-.468-.288-.804-.288h-.432c-.736 0-1.104.408-1.104 1.224v4.392Zm6.384 9.216v-2.592h1.992v2.592h-1.992Zm7.44-16.44c.864 0 1.532.232 2.004.696.472.464.708 1.152.708 2.064v11.04c0 .912-.24 1.6-.72 2.064-.48.464-1.144.696-1.992.696h-.888c-.864 0-1.536-.232-2.016-.696-.48-.464-.72-1.152-.72-2.064v-2.376h1.944v2.304c0 .432.096.744.288.936.192.192.464.288.816.288h.264c.336 0 .604-.096.804-.288.2-.192.3-.504.3-.936v-4.944l-.576.336c-.528.32-.948.548-1.26.684a2.25 2.25 0 0 1-.9.204c-.576 0-1.028-.204-1.356-.612-.328-.408-.492-.98-.492-1.716v-4.92c0-.928.24-1.62.72-2.076.48-.456 1.152-.684 2.016-.684h1.056Zm-1.848 7.224c0 .64.232.96.696.96.288 0 .632-.088 1.032-.264l.912-.36v-4.728c0-.432-.1-.744-.3-.936-.2-.192-.468-.288-.804-.288H158c-.736 0-1.104.408-1.104 1.224v4.392Zm10.056-7.224c.864 0 1.532.232 2.004.696.472.464.708 1.152.708 2.064v11.04c0 .912-.24 1.6-.72 2.064-.48.464-1.144.696-1.992.696h-.888c-.864 0-1.536-.232-2.016-.696-.48-.464-.72-1.152-.72-2.064v-2.376h1.944v2.304c0 .432.096.744.288.936.192.192.464.288.816.288h.264c.336 0 .604-.096.804-.288.2-.192.3-.504.3-.936v-4.944l-.576.336c-.528.32-.948.548-1.26.684a2.25 2.25 0 0 1-.9.204c-.576 0-1.028-.204-1.356-.612-.328-.408-.492-.98-.492-1.716v-4.92c0-.928.24-1.62.72-2.076.48-.456 1.152-.684 2.016-.684h1.056Zm-1.848 7.224c0 .64.232.96.696.96.288 0 .632-.088 1.032-.264l.912-.36v-4.728c0-.432-.1-.744-.3-.936-.2-.192-.468-.288-.804-.288h-.432c-.736 0-1.104.408-1.104 1.224v4.392ZM.032 322.482v-16.32h3.744c.848 0 1.512.228 1.992.684.48.456.72 1.156.72 2.1v3.936c0 .944-.244 1.64-.732 2.088-.488.448-1.148.672-1.98.672h-1.8v6.84H.032Zm3.384-14.664h-1.44v6.168h1.44c.352 0 .624-.088.816-.264.192-.176.288-.48.288-.912v-3.792c0-.432-.096-.74-.288-.924-.192-.184-.464-.276-.816-.276Zm7.368 14.784c-.832 0-1.492-.228-1.98-.684-.488-.456-.732-1.148-.732-2.076v-11.04c0-.928.244-1.62.732-2.076.488-.456 1.148-.684 1.98-.684h1.176c.832 0 1.488.228 1.968.684.48.456.72 1.148.72 2.076v11.04c0 .928-.24 1.62-.72 2.076-.48.456-1.136.684-1.968.684h-1.176Zm.36-1.656h.456c.336 0 .604-.096.804-.288.2-.192.3-.504.3-.936v-10.8c0-.432-.1-.744-.3-.936-.2-.192-.468-.288-.804-.288h-.456c-.336 0-.604.096-.804.288-.2.192-.3.504-.3.936v10.8c0 .432.1.744.3.936.2.192.468.288.804.288Zm6.312 1.536-1.464-16.32h1.968l.96 13.152 1.464-13.152h2.088l1.464 13.176.936-13.176h1.752l-1.488 16.32H22.64l-1.32-12.192-1.392 12.192h-2.472Zm10.584 0v-16.32h5.088v1.704h-3.144v5.256h2.832v1.704h-2.832v5.952h3.384v1.704H28.04Zm6.816 0v-16.32h3.792c.832 0 1.492.228 1.98.684.488.456.732 1.156.732 2.1v3.888c0 1.296-.472 2.144-1.416 2.544l1.752 7.104h-2.112l-1.512-6.84H36.8v6.84h-1.944Zm3.432-14.664H36.8v6.144h1.488c.336 0 .604-.088.804-.264.2-.176.3-.48.3-.912v-3.768c0-.432-.1-.74-.3-.924-.2-.184-.468-.276-.804-.276Zm9.12 14.664v-14.616h-2.352v-1.704h6.648v1.704h-2.352v14.616h-1.944Zm8.16.12c-.832 0-1.492-.228-1.98-.684-.488-.456-.732-1.148-.732-2.076v-11.04c0-.928.244-1.62.732-2.076.488-.456 1.148-.684 1.98-.684h1.176c.832 0 1.488.228 1.968.684.48.456.72 1.148.72 2.076v11.04c0 .928-.24 1.62-.72 2.076-.48.456-1.136.684-1.968.684h-1.176Zm.36-1.656h.456c.336 0 .604-.096.804-.288.2-.192.3-.504.3-.936v-10.8c0-.432-.1-.744-.3-.936-.2-.192-.468-.288-.804-.288h-.456c-.336 0-.604.096-.804.288-.2.192-.3.504-.3.936v10.8c0 .432.1.744.3.936.2.192.468.288.804.288Zm8.064 1.656c-.832 0-1.492-.228-1.98-.684-.488-.456-.732-1.148-.732-2.076v-11.04c0-.928.244-1.62.732-2.076.488-.456 1.148-.684 1.98-.684h1.176c.832 0 1.488.228 1.968.684.48.456.72 1.148.72 2.076v11.04c0 .928-.24 1.62-.72 2.076-.48.456-1.136.684-1.968.684h-1.176Zm.36-1.656h.456c.336 0 .604-.096.804-.288.2-.192.3-.504.3-.936v-10.8c0-.432-.1-.744-.3-.936-.2-.192-.468-.288-.804-.288h-.456c-.336 0-.604.096-.804.288-.2.192-.3.504-.3.936v10.8c0 .432.1.744.3.936.2.192.468.288.804.288Zm5.472 1.536v-16.32h1.944v14.616h3.12v1.704h-5.064Zm9.12.12c-.848 0-1.512-.232-1.992-.696-.48-.464-.72-1.152-.72-2.064v-3.6h1.944v3.48c0 .432.1.744.3.936.2.192.468.288.804.288h.432c.336 0 .604-.096.804-.288.2-.192.3-.504.3-.936v-2.664c0-.464-.084-.832-.252-1.104-.168-.272-.476-.512-.924-.72l-1.464-.696c-.688-.32-1.184-.732-1.488-1.236-.304-.504-.456-1.172-.456-2.004v-2.496c0-.928.24-1.62.72-2.076.48-.456 1.144-.684 1.992-.684h1.104c.848 0 1.512.228 1.992.684.48.456.72 1.148.72 2.076v3.096h-1.944v-2.976c0-.432-.1-.744-.3-.936-.2-.192-.468-.288-.804-.288h-.432c-.304 0-.564.096-.78.288-.216.192-.324.504-.324.936v2.136c0 .48.088.848.264 1.104.176.256.48.488.912.696l1.44.672c.704.336 1.208.748 1.512 1.236.304.488.456 1.148.456 1.98v3.096c0 .912-.24 1.6-.72 2.064-.48.464-1.144.696-1.992.696h-1.104Z"/><g transform="translate(272)"><mask id="b" fill="#fff"><use xlink:href="#a"/></mask><path fill="#6D6D6F" d="m169.388 262.107-35.758 11.804-8.58-26.296-1.18-3.614-7.193-5.46a43.5 43.5 0 0 1-4.08.21c-24.609 0-44.549-19.913-44.549-44.445 0-1.681.126-3.362.294-5l-5.174-2.016-2.355-12.435-3.617-19.324a166.882 166.882 0 0 1 .21-63.14l17.33-88.176L84.203.393l1.052-.38 4.712 60.998c-16.028 20.207 3.7 32.557 3.7 32.557l2.82 47.764.589 10.25c.126.042.715.084 2.608.168a43.702 43.702 0 0 1 12.914-1.933c21.96 0 40.175 15.922 43.792 36.842.252 1.513.252 1.513.42 2.646.17 1.64.296 3.32.296 5a44.63 44.63 0 0 1-2.02 13.232l6.395 6.554.84 3.53 4.964 20.878 2.104 23.608Z" mask="url(#b)"/><path fill="#494A4C" d="M162.32 217.62c-7.108 14.956-20.78 26.17-37.27 29.994l-1.179-3.613-7.193-5.46c-1.347.125-2.692.209-4.081.209-24.609 0-44.549-19.911-44.549-44.445 0-1.68.126-3.361.294-4.999l-5.174-2.016-2.355-12.436c5.974-16.005 19.182-28.523 35.672-33.522l.59 10.25c.126.041.715.085 2.608.169a43.646 43.646 0 0 1 12.914-1.933c21.96 0 40.175 15.922 43.792 36.842.252 1.511.252 1.511.42 2.646.17 1.638.296 3.318.296 5 0 4.578-.716 9.031-2.02 13.232l6.395 6.552.84 3.53Z" mask="url(#b)"/><path fill="#858789" d="m57.713 238.488 5.783-24.418 6.395-6.533a44.373 44.373 0 0 1-2.012-13.245c0-1.682.113-3.335.294-4.968.162-1.136.162-1.136.409-2.673 3.633-20.907 21.844-36.82 43.819-36.82 4.49 0 8.82.68 12.909 1.916 3.112-.075 2.602-.165 2.602-.165l3.419-58.025s19.718-12.34 3.68-32.556L139.743 0l1.027.41 9.49 3.791 17.298 88.172a167.361 167.361 0 0 1 .245 63.155l-5.974 31.762-5.202 2.033c.181 1.633.294 3.287.294 4.969 0 24.553-19.933 44.458-44.52 44.458-1.385 0-2.75-.082-4.1-.207l-7.206 5.458-9.728 29.931-35.758-11.815 2.104-23.63Z" mask="url(#b)"/><path fill="#26282C" d="M97.075 272.357s-1.431 5.377-4.46 15.04c-3.576 11.467-9.464 28.985-17.92 50.705-9.676 24.784-22.673 54.988-39.585 87.924-40.889 79.732-63.185 185.888-62.344 271.796.126 11.132-9.044 20.164-20.193 20.164-5.3 0-10.18-2.058-13.798-5.376-3.617-3.362-6.014-8.025-6.393-13.317-.8-11.469-1.557-27.726-1.346-47.303.462-56.711 8.582-141.527 45.18-220.335C-10.702 403.509.11 379.269 9.028 358.559c11.19-25.92 19.435-46.336 25.451-62.047 4.67-12.182 7.992-21.55 10.348-28.44 3.744-11.132 4.923-15.921 4.923-15.921 1.555.504 47.325 20.206 47.325 20.206" mask="url(#b)"/><path fill="#CC1441" d="M92.615 287.397a580.89 580.89 0 0 0-1.893 5.923c-3.617 11.215-8.918 26.507-16.028 44.781L34.48 296.513s-4.67-19.745-27.596-18.107c-4.25.336-7.866-3.318-7.278-7.56A62.18 62.18 0 0 1 2.55 258.62c1.263-3.654 5.26-5.503 8.835-4.074l10.6 4.285 22.843 9.242 47.788 19.324Z" mask="url(#b)"/><path fill="#26282C" d="M175.238 252.14c-1.578.525-47.325 20.218-47.325 20.218s17.79 67.563 61.96 153.682c40.9 79.74 63.164 185.89 62.341 271.766-.106 11.153 9.039 20.194 20.208 20.194 10.598 0 19.416-8.156 20.16-18.713 3.15-44.644 5.415-161.593-43.815-267.647-62.4-134.428-73.53-179.5-73.53-179.5" mask="url(#b)"/><path fill="#5E5E60" d="M145.368 194.032c0 18.131-14.719 32.831-32.877 32.831-18.157 0-32.875-14.7-32.875-32.831 0-18.132 14.718-32.831 32.875-32.831 18.158 0 32.877 14.7 32.877 32.831" mask="url(#b)"/><path fill="#4C4C4E" d="M112.491 220.281c-17.329 0-31.492-11.715-32.752-28.7-.06.813-.124 1.624-.124 2.451 0 18.132 14.72 32.83 32.876 32.83 18.157 0 32.877-14.698 32.877-32.83 0-.827-.065-1.638-.125-2.451-1.26 16.985-15.422 28.7-32.752 28.7" mask="url(#b)"/><path fill="#858789" d="M132.39 194.032c0 10.974-8.909 19.87-19.9 19.87-10.988 0-19.896-8.896-19.896-19.87s8.908-19.87 19.897-19.87c10.99 0 19.898 8.896 19.898 19.87" mask="url(#b)"/><path fill="#B8B9BA" d="M112.491 177.313c10.449 0 18.921 8.07 19.74 18.294.042-.529.159-1.036.159-1.575 0-10.974-8.91-19.87-19.899-19.87s-19.898 8.896-19.898 19.87c0 .54.117 1.046.16 1.575.817-10.224 9.29-18.294 19.738-18.294" mask="url(#b)"/><path fill="#CC1441" d="M9.996 425.605C-10.407 461.691-24.667 501.18-32.07 541.97c-4.375 24.24-6.478 49.235-16.323 71.794-5.763 13.274-14.05 25.288-20.57 38.227.463-56.712 8.582-141.527 45.18-220.335C-10.701 403.508.109 379.27 9.029 358.56c6.52 4.37 11.82 10.545 14.217 17.98 5.386 16.636-4.67 33.816-13.25 49.066m122.372-138.208c3.576 11.468 9.464 28.985 17.92 50.704l40.216-41.588s4.67-19.745 27.596-18.107c4.25.336 7.866-3.318 7.278-7.56a62.18 62.18 0 0 0-2.945-12.226c-1.262-3.654-5.258-5.503-8.834-4.074l-33.443 13.527-47.788 19.324Z" mask="url(#b)"/><path fill="#DB5B7A" d="M92.615 287.397a580.89 580.89 0 0 0-1.893 5.923c-37.566-10.88-58.557-25.5-68.738-34.489l22.843 9.242 47.788 19.324Zm39.753 0c.588 1.806 1.22 3.78 1.893 5.923 37.565-10.88 58.557-25.5 68.738-34.489l-22.843 9.242-47.788 19.324Z" mask="url(#b)"/><path fill="#5D6163" d="m92.516 270.396-36.261-15.532.502-5.628 37.169 16.823z" mask="url(#b)"/><path fill="#4B5052" d="m132.467 270.396 36.261-15.532-.502-5.628-37.169 16.823z" mask="url(#b)"/></g></g></svg>