<svg xmlns="http://www.w3.org/2000/svg" viewBox="0 0 576 680"><g fill="none"><path fill="#FFF" d="M72.904 132V17.76h46.032v17.304h-25.2v29.568h22.344v17.304H93.736v32.76h26.88V132zM141.168 132l-19.32-114.24h22.344l11.424 83.832L167.04 17.76h18.816L165.864 132zM190.616 132V17.76h46.032v17.304h-25.2v29.568h22.344v17.304h-22.344v32.76h26.88V132zM245.44 132V17.76h24.024l18.312 75.936V17.76h15.792V132h-24.024l-18.312-75.432V132zM351.728 133.008c-6.832 0-12.236-1.876-16.212-5.628-3.976-3.752-5.964-9.268-5.964-16.548V38.928c0-7.28 1.988-12.796 5.964-16.548 3.976-3.752 9.38-5.628 16.212-5.628h13.776c6.944 0 12.376 1.876 16.296 5.628 3.92 3.752 5.88 9.268 5.88 16.548v71.904c0 7.28-1.96 12.796-5.88 16.548-3.92 3.752-9.352 5.628-16.296 5.628h-13.776Zm5.376-16.8h3.024c4.48 0 6.72-2.52 6.72-7.56V41.112c0-5.04-2.24-7.56-6.72-7.56h-3.024c-4.48 0-6.72 2.52-6.72 7.56v67.536c0 5.04 2.24 7.56 6.72 7.56ZM397.648 132V17.76h20.832v96.936h24.36V132zM449.112 132V17.76h35.28c6.944 0 12.376 1.876 16.296 5.628 3.92 3.752 5.88 9.268 5.88 16.548v69.888c0 7.28-1.96 12.796-5.88 16.548-3.92 3.752-9.352 5.628-16.296 5.628h-35.28Zm29.904-97.44h-9.072v80.64h9.072c4.48 0 6.72-2.464 6.72-7.392V42.12c0-5.04-2.24-7.56-6.72-7.56ZM59.268 268V153.76H80.1v96.936h24.36V268zM104.852 268l21.336-114.24h24.024L171.548 268h-21.84l-3.36-21.168h-20.16L122.996 268h-18.144Zm23.856-37.8h15.12l-7.56-48.552-7.56 48.552Zm67.424 38.808c-6.832 0-12.236-1.876-16.212-5.628-3.976-3.752-5.964-9.268-5.964-16.548v-71.904c0-7.28 1.988-12.796 5.964-16.548 3.976-3.752 9.38-5.628 16.212-5.628H208.9c6.944 0 12.376 1.876 16.296 5.628 3.92 3.752 5.88 9.268 5.88 16.548v21h-20.832v-18.816c0-5.04-2.24-7.56-6.72-7.56h-2.016c-4.48 0-6.72 2.52-6.72 7.56v67.536c0 5.04 2.24 7.56 6.72 7.56h2.016c2.24 0 4.06-.616 5.46-1.848 1.4-1.232 2.1-3.136 2.1-5.712V223.48h-9.072v-16.8h29.064v40.152c0 7.28-1.96 12.796-5.88 16.548-3.92 3.752-9.352 5.628-16.296 5.628h-12.768Zm67.088 0c-7.056 0-12.516-1.932-16.38-5.796-3.864-3.864-5.796-9.324-5.796-16.38V226h20.664v18.648c0 5.04 2.24 7.56 6.72 7.56h2.52c4.256 0 6.384-2.52 6.384-7.56v-12.936c0-2.8-.588-5.04-1.764-6.72-1.176-1.68-3.164-3.08-5.964-4.2l-12.264-4.872c-5.824-2.24-9.996-5.376-12.516-9.408-2.52-4.032-3.78-9.464-3.78-16.296v-15.288c0-7.168 1.904-12.656 5.712-16.464 3.808-3.808 9.296-5.712 16.464-5.712h12.6c7.168 0 12.656 1.904 16.464 5.712 3.808 3.808 5.712 9.296 5.712 16.464v19.32h-20.664v-17.136c0-5.04-2.24-7.56-6.72-7.56h-2.184c-4.48 0-6.72 2.52-6.72 7.56v10.584c0 2.688.588 4.816 1.764 6.384 1.176 1.568 3.22 2.968 6.132 4.2l11.424 4.536c6.048 2.464 10.388 5.572 13.02 9.324 2.632 3.752 3.948 9.044 3.948 15.876v18.816c0 7.056-1.904 12.516-5.712 16.38-3.808 3.864-9.296 5.796-16.464 5.796h-12.6ZM323.98 268V153.76h20.832v96.936h24.36V268zM375.444 268V153.76h20.832V268zM406.916 268V153.76h20.832v47.376l19.32-47.376h21.336l-23.184 49.728L469.412 268h-23.184l-18.48-55.272V268zM475.348 268V153.76h46.032v17.304h-25.2v29.568h22.344v17.304H496.18v32.76h26.88V268z"/><path fill="#CC1441" d="M144.892 404V289.76h34.944c7.168 0 12.656 1.904 16.464 5.712 3.808 3.808 5.712 9.24 5.712 16.296v15.792c0 7.952-3.808 13.104-11.424 15.456 7.84 2.352 11.76 7.672 11.76 15.96v23.016c0 6.944-1.904 12.348-5.712 16.212-3.808 3.864-9.296 5.796-16.464 5.796h-35.28Zm29.568-97.944h-8.736v29.736h9.072c2.016 0 3.64-.588 4.872-1.764 1.232-1.176 1.848-3.164 1.848-5.964v-14.448c0-5.04-2.352-7.56-7.056-7.56Zm.336 46.032h-9.072v35.616h8.736c4.704 0 7.056-2.576 7.056-7.728v-20.16c0-5.152-2.24-7.728-6.72-7.728ZM211.98 404V289.76h35.28c6.944 0 12.376 1.876 16.296 5.628 3.92 3.752 5.88 9.268 5.88 16.548v26.208c0 9.184-3.136 15.624-9.408 19.32L272.292 404h-22.176l-9.912-43.512h-7.392V404H211.98Zm29.904-97.44h-9.072v37.128h9.072c2.128 0 3.78-.56 4.956-1.68 1.176-1.12 1.764-3.024 1.764-5.712V314.12c0-5.04-2.24-7.56-6.72-7.56ZM278.732 404V289.76h20.832V404zM304.324 404l21.336-114.24h24.024L371.02 404h-21.84l-3.36-21.168h-20.16L322.468 404h-18.144Zm23.856-37.8h15.12l-7.56-48.552-7.56 48.552ZM375.78 404V289.76h24.024l18.312 75.936V289.76h15.792V404h-24.024l-18.312-75.432V404z"/><path fill="#FFF" d="M40.704 540V425.76h35.28c6.944 0 12.376 1.876 16.296 5.628 3.92 3.752 5.88 9.268 5.88 16.548v69.888c0 7.28-1.96 12.796-5.88 16.548-3.92 3.752-9.352 5.628-16.296 5.628h-35.28Zm29.904-97.44h-9.072v80.64h9.072c4.48 0 6.72-2.464 6.72-7.392V450.12c0-5.04-2.24-7.56-6.72-7.56ZM108.128 540V425.76h46.032v17.304h-25.2v29.568h22.344v17.304H128.96v32.76h26.88V540zM185.296 541.008c-7.056 0-12.516-1.932-16.38-5.796-3.864-3.864-5.796-9.324-5.796-16.38V498h20.664v18.648c0 5.04 2.24 7.56 6.72 7.56h2.52c4.256 0 6.384-2.52 6.384-7.56v-12.936c0-2.8-.588-5.04-1.764-6.72-1.176-1.68-3.164-3.08-5.964-4.2l-12.264-4.872c-5.824-2.24-9.996-5.376-12.516-9.408-2.52-4.032-3.78-9.464-3.78-16.296v-15.288c0-7.168 1.904-12.656 5.712-16.464 3.808-3.808 9.296-5.712 16.464-5.712h12.6c7.168 0 12.656 1.904 16.464 5.712 3.808 3.808 5.712 9.296 5.712 16.464v19.32h-20.664v-17.136c0-5.04-2.24-7.56-6.72-7.56h-2.184c-4.48 0-6.72 2.52-6.72 7.56v10.584c0 2.688.588 4.816 1.764 6.384 1.176 1.568 3.22 2.968 6.132 4.2l11.424 4.536c6.048 2.464 10.388 5.572 13.02 9.324 2.632 3.752 3.948 9.044 3.948 15.876v18.816c0 7.056-1.904 12.516-5.712 16.38-3.808 3.864-9.296 5.796-16.464 5.796h-12.6ZM230.04 540V425.76h46.032v17.304h-25.2v29.568h22.344v17.304h-22.344v32.76h26.88V540zM284.864 540V425.76h35.28c6.944 0 12.376 1.876 16.296 5.628 3.92 3.752 5.88 9.268 5.88 16.548v26.208c0 9.184-3.136 15.624-9.408 19.32L345.176 540H323l-9.912-43.512h-7.392V540h-20.832Zm29.904-97.44h-9.072v37.128h9.072c2.128 0 3.78-.56 4.956-1.68 1.176-1.12 1.764-3.024 1.764-5.712V450.12c0-5.04-2.24-7.56-6.72-7.56ZM362.872 540l-19.32-114.24h22.344l11.424 83.832 11.424-83.832h18.816L387.568 540zM412.32 540V425.76h46.032v17.304h-25.2v29.568h22.344v17.304h-22.344v32.76h26.88V540zM477.28 540l21.336-114.24h24.024L543.976 540h-21.84l-3.36-21.168h-20.16L495.424 540H477.28Zm23.856-37.8h15.12l-7.56-48.552-7.56 48.552ZM33.984 677.008c-6.832 0-12.236-1.876-16.212-5.628-3.976-3.752-5.964-9.268-5.964-16.548v-71.904c0-7.28 1.988-12.796 5.964-16.548 3.976-3.752 9.38-5.628 16.212-5.628h12.768c6.944 0 12.376 1.876 16.296 5.628 3.92 3.752 5.88 9.268 5.88 16.548v21H48.096v-18.816c0-5.04-2.24-7.56-6.72-7.56H39.36c-4.48 0-6.72 2.52-6.72 7.56v67.536c0 5.04 2.24 7.56 6.72 7.56h2.016c2.24 0 4.06-.616 5.46-1.848 1.4-1.232 2.1-3.136 2.1-5.712V631.48h-9.072v-16.8h29.064v40.152c0 7.28-1.96 12.796-5.88 16.548-3.92 3.752-9.352 5.628-16.296 5.628H33.984Zm66.248 0c-6.832 0-12.236-1.876-16.212-5.628-3.976-3.752-5.964-9.268-5.964-16.548v-71.904c0-7.28 1.988-12.796 5.964-16.548 3.976-3.752 9.38-5.628 16.212-5.628h13.776c6.944 0 12.376 1.876 16.296 5.628 3.92 3.752 5.88 9.268 5.88 16.548v71.904c0 7.28-1.96 12.796-5.88 16.548-3.92 3.752-9.352 5.628-16.296 5.628h-13.776Zm5.376-16.8h3.024c4.48 0 6.72-2.52 6.72-7.56v-67.536c0-5.04-2.24-7.56-6.72-7.56h-3.024c-4.48 0-6.72 2.52-6.72 7.56v67.536c0 5.04 2.24 7.56 6.72 7.56Zm62.048 16.8c-6.832 0-12.236-1.876-16.212-5.628-3.976-3.752-5.964-9.268-5.964-16.548v-71.904c0-7.28 1.988-12.796 5.964-16.548 3.976-3.752 9.38-5.628 16.212-5.628h13.776c6.944 0 12.376 1.876 16.296 5.628 3.92 3.752 5.88 9.268 5.88 16.548v71.904c0 7.28-1.96 12.796-5.88 16.548-3.92 3.752-9.352 5.628-16.296 5.628h-13.776Zm5.376-16.8h3.024c4.48 0 6.72-2.52 6.72-7.56v-67.536c0-5.04-2.24-7.56-6.72-7.56h-3.024c-4.48 0-6.72 2.52-6.72 7.56v67.536c0 5.04 2.24 7.56 6.72 7.56ZM213.576 676V561.76h35.28c6.944 0 12.376 1.876 16.296 5.628 3.92 3.752 5.88 9.268 5.88 16.548v69.888c0 7.28-1.96 12.796-5.88 16.548-3.92 3.752-9.352 5.628-16.296 5.628h-35.28Zm29.904-97.44h-9.072v80.64h9.072c4.48 0 6.72-2.464 6.72-7.392V586.12c0-5.04-2.24-7.56-6.72-7.56ZM297.016 676V561.76h20.832v45.864h15.96V561.76h20.832V676h-20.832v-51.072h-15.96V676zM386.784 677.008c-6.832 0-12.236-1.876-16.212-5.628-3.976-3.752-5.964-9.268-5.964-16.548v-71.904c0-7.28 1.988-12.796 5.964-16.548 3.976-3.752 9.38-5.628 16.212-5.628h13.776c6.944 0 12.376 1.876 16.296 5.628 3.92 3.752 5.88 9.268 5.88 16.548v71.904c0 7.28-1.96 12.796-5.88 16.548-3.92 3.752-9.352 5.628-16.296 5.628h-13.776Zm5.376-16.8h3.024c4.48 0 6.72-2.52 6.72-7.56v-67.536c0-5.04-2.24-7.56-6.72-7.56h-3.024c-4.48 0-6.72 2.52-6.72 7.56v67.536c0 5.04 2.24 7.56 6.72 7.56ZM432.704 676V561.76h28.56l10.752 74.088 11.424-74.088h28.056V676H492.68v-80.976L479.576 676h-18.48l-13.104-81.648V676zM522.136 676V561.76h46.032v17.304h-25.2v29.568h22.344v17.304h-22.344v32.76h26.88V676z"/></g></svg>