<svg xmlns="http://www.w3.org/2000/svg" viewBox="0 0 335 175"><g fill="none" fill-rule="evenodd"><rect width="260" height="60" x="37" fill="#AF6A29" rx="30"/><path fill="#33302E" fill-rule="nonzero" d="M12.996 101.252c-1.47 0-2.75-.322-3.843-.966-1.091-.644-1.942-1.554-2.551-2.73-.609-1.176-.913-2.548-.913-4.116 0-1.68.335-3.084 1.008-4.21a6.438 6.438 0 0 1 2.74-2.541c1.155-.567 2.468-.851 3.938-.851 1.47 0 2.754.326 3.853.977 1.099.65 1.95 1.56 2.551 2.73.602 1.168.904 2.537.904 4.105 0 1.68-.337 3.084-1.009 4.21a6.438 6.438 0 0 1-2.74 2.541c-1.155.568-2.468.851-3.938.851Zm.231-3.486c.995 0 1.803-.34 2.426-1.019.623-.678.934-1.641.934-2.887 0-1.498-.311-2.629-.934-3.391-.623-.763-1.453-1.145-2.489-1.145-.993 0-1.809.34-2.446 1.019-.637.678-.956 1.641-.956 2.887 0 1.498.319 2.629.956 3.391.637.764 1.473 1.145 2.51 1.145ZM22.636 101c.056-.392.09-.78.105-1.165.014-.385.02-.774.02-1.166V88.82c0-.518-.052-.98-.157-1.386-.105-.406-.305-.854-.598-1.344h4.64l5.271 8.085v-5.754c0-.392-.007-.78-.02-1.166a11.086 11.086 0 0 0-.105-1.165h4.01a13.4 13.4 0 0 0-.115 1.165c-.021.386-.031.774-.031 1.166V101h-3.36L26.5 92.327v6.342c0 .392.006.78.02 1.166.015.385.05.773.105 1.165h-3.99Zm15.54 0c.084-.784.125-1.561.125-2.331V88.421c0-.756-.041-1.533-.126-2.331h9.556l.167 3.402a11.76 11.76 0 0 0-1.323-.136 28.257 28.257 0 0 0-1.323-.032H42.27v2.583h2.352c.392 0 .77-.01 1.135-.031.364-.022.742-.06 1.134-.116v3.108a11.02 11.02 0 0 0-1.134-.105 29.532 29.532 0 0 0-1.134-.021H42.27v3.024h2.981a25.25 25.25 0 0 0 2.856-.168L47.941 101h-9.766Zm23.183.252c-1.47 0-2.75-.322-3.843-.966-1.091-.644-1.942-1.554-2.551-2.73-.609-1.176-.914-2.548-.914-4.116 0-1.68.337-3.084 1.008-4.21a6.438 6.438 0 0 1 2.741-2.541c1.155-.567 2.468-.851 3.938-.851 1.47 0 2.754.326 3.853.977 1.099.65 1.95 1.56 2.552 2.73.602 1.168.903 2.537.903 4.105 0 1.68-.337 3.084-1.009 4.21a6.438 6.438 0 0 1-2.74 2.541c-1.155.568-2.467.851-3.938.851Zm.231-3.486c.994 0 1.803-.34 2.426-1.019.623-.678.934-1.641.934-2.887 0-1.498-.311-2.629-.934-3.391-.623-.763-1.453-1.145-2.489-1.145-.994 0-1.809.34-2.446 1.019-.637.678-.956 1.641-.956 2.887 0 1.498.319 2.629.956 3.391.637.764 1.473 1.145 2.51 1.145ZM70.978 101c.041-.392.07-.78.084-1.165.014-.385.02-.774.02-1.166V88.421c0-.364-.006-.746-.02-1.145a16.597 16.597 0 0 0-.084-1.186h9.597v3.444a13.53 13.53 0 0 0-1.282-.105c-.42-.014-.847-.021-1.28-.021h-2.92v3.36h2.227c.392 0 .78-.007 1.165-.021.385-.014.773-.049 1.165-.105v3.192a21.479 21.479 0 0 0-2.33-.126h-2.226v2.961c0 .392.007.78.02 1.166.014.385.05.773.105 1.165h-4.241Zm18.648 0c.055-.392.09-.78.105-1.165.014-.385.02-.774.02-1.166v-9.261h-1.239c-.433 0-.86.007-1.28.021-.42.014-.847.049-1.281.105V86.09h11.613v3.444a13.53 13.53 0 0 0-1.281-.105c-.42-.014-.847-.021-1.282-.021h-1.239v9.261c0 .392.007.78.022 1.166.013.385.048.773.104 1.165h-4.263Zm9.575 0c.085-.784.127-1.561.127-2.331V88.421c0-.756-.043-1.533-.127-2.331h4.264c-.056.392-.091.787-.106 1.186-.013.4-.02.781-.02 1.145v3.255h4.892v-3.255c0-.756-.041-1.533-.125-2.331h4.263c-.056.392-.095.787-.116 1.186-.021.4-.031.781-.031 1.145v10.248c0 .392.01.78.031 1.166.021.385.06.773.115 1.165h-4.262c.084-.784.126-1.561.126-2.331v-3.591h-4.894v3.591c0 .392.008.78.022 1.166.014.385.049.773.105 1.165H99.2Zm15.562 0c.084-.784.125-1.561.125-2.331V88.421c0-.756-.041-1.533-.126-2.331h9.555l.169 3.402a11.76 11.76 0 0 0-1.324-.136 28.257 28.257 0 0 0-1.323-.032h-2.981v2.583h2.352c.392 0 .77-.01 1.134-.031.364-.022.742-.06 1.134-.116v3.108a11.02 11.02 0 0 0-1.134-.105 29.532 29.532 0 0 0-1.134-.021h-2.352v3.024h2.981a25.25 25.25 0 0 0 2.856-.168l-.167 3.402h-9.766Zm16.358 0c.042-.392.07-.78.084-1.165.014-.385.021-.774.021-1.166V88.421c0-.364-.006-.746-.02-1.145a11.148 11.148 0 0 0-.105-1.186h5.355c1.344 0 2.407.168 3.192.504.784.336 1.347.791 1.69 1.365.343.574.514 1.225.514 1.953 0 .616-.129 1.176-.388 1.68s-.703.924-1.333 1.26c.91.322 1.575.808 1.994 1.46.42.65.63 1.41.63 2.278 0 .854-.195 1.614-.588 2.278-.392.666-1 1.187-1.827 1.565-.826.378-1.897.567-3.213.567h-6.006Zm5.103-11.886h-1.091l-.022 3.108h1.282c.685 0 1.183-.14 1.49-.42.308-.28.462-.665.462-1.155 0-.546-.16-.938-.482-1.176-.322-.238-.869-.357-1.638-.357Zm.4 5.565h-1.534l-.02 3.297h1.722c.657 0 1.168-.147 1.532-.441.364-.294.546-.714.546-1.26 0-1.064-.749-1.596-2.246-1.596Zm7.833 6.321c.084-.784.126-1.561.126-2.331V88.421c0-.756-.042-1.533-.126-2.331h9.555l.167 3.402a11.76 11.76 0 0 0-1.322-.136 28.257 28.257 0 0 0-1.323-.032h-2.982v2.583h2.352c.392 0 .77-.01 1.133-.031.364-.022.743-.06 1.135-.116v3.108a11.02 11.02 0 0 0-1.135-.105 29.532 29.532 0 0 0-1.133-.021h-2.352v3.024h2.982a25.25 25.25 0 0 0 2.856-.168l-.168 3.402h-9.766Zm15.75.252a21.22 21.22 0 0 1-1.859-.073 16.019 16.019 0 0 1-1.838-.284l-.21-3.591c.756.21 1.4.35 1.932.42s1.085.105 1.66.105c.91 0 1.515-.101 1.816-.304.301-.204.452-.473.452-.809 0-.252-.106-.497-.315-.735-.21-.238-.602-.511-1.177-.819l-1.406-.714c-1.107-.574-1.918-1.221-2.436-1.942-.518-.722-.778-1.565-.778-2.531 0-1.288.487-2.3 1.46-3.034.973-.736 2.411-1.103 4.315-1.103.659 0 1.225.032 1.701.095s1.058.178 1.744.346l.23 3.633a11.15 11.15 0 0 0-1.89-.494 11.527 11.527 0 0 0-1.805-.136c-.728 0-1.219.091-1.47.273-.252.182-.379.413-.379.693 0 .252.095.49.284.714.189.224.542.476 1.06.756l1.407.756c1.176.616 2.034 1.284 2.573 2.005.539.722.809 1.579.809 2.573 0 1.33-.459 2.362-1.376 3.097-.917.736-2.419 1.103-4.505 1.103Zm10.647-.252c.055-.392.09-.78.104-1.165.014-.385.022-.774.022-1.166v-9.261h-1.24c-.434 0-.86.007-1.28.021-.42.014-.847.049-1.281.105V86.09h11.613v3.444a13.53 13.53 0 0 0-1.281-.105c-.42-.014-.847-.021-1.281-.021h-1.24v9.261c0 .392.007.78.022 1.166.013.385.048.773.105 1.165h-4.263Zm13.985 0c.056-.392.091-.78.106-1.165.013-.385.02-.774.02-1.166V88.421c0-.364-.007-.746-.02-1.145a11.148 11.148 0 0 0-.106-1.186h4.263c-.055.392-.09.787-.105 1.186-.014.4-.02.781-.02 1.145v4.683l3.297-5.103a8.676 8.676 0 0 0 .903-1.911h4.662l-4.81 7.056 5.398 7.854h-4.935c-.224-.658-.602-1.379-1.135-2.163l-3.38-4.662v4.494c0 .392.006.78.02 1.166.014.385.05.773.105 1.165h-4.263Zm14.931 0c.084-.784.126-1.561.126-2.331V88.421c0-.756-.041-1.533-.125-2.331h9.555l.168 3.402a11.76 11.76 0 0 0-1.323-.136 28.257 28.257 0 0 0-1.323-.032h-2.983v2.583h2.352c.392 0 .77-.01 1.134-.031.364-.022.743-.06 1.135-.116v3.108a11.02 11.02 0 0 0-1.135-.105 29.532 29.532 0 0 0-1.133-.021h-2.352v3.024h2.981a25.25 25.25 0 0 0 2.856-.168l-.167 3.402h-9.766Zm16.107 0c.056-.392.091-.78.105-1.165.014-.385.022-.774.022-1.166v-2.058L210.88 86.09h4.83c.041.35.101.675.178.977.077.3.172.612.284.934l1.931 4.977 1.911-4.977c.126-.322.228-.633.305-.934.077-.301.137-.627.179-.977h4.64l-5.124 10.563v2.016c0 .392.007.78.022 1.166.013.385.048.773.105 1.165h-4.263Zm15.246 0c.043-.392.07-.78.085-1.165.013-.385.02-.774.02-1.166V88.421c0-.364-.007-.746-.02-1.145a16.597 16.597 0 0 0-.084-1.186h9.596v3.444a13.53 13.53 0 0 0-1.28-.105c-.42-.014-.847-.021-1.281-.021h-2.92v3.36h2.226c.392 0 .781-.007 1.166-.021.385-.014.774-.049 1.166-.105v3.192a21.479 21.479 0 0 0-2.332-.126h-2.226v2.961c0 .392.007.78.022 1.166.013.385.049.773.105 1.165h-4.243Zm18.187.252c-1.47 0-2.751-.322-3.844-.966-1.091-.644-1.942-1.554-2.551-2.73-.609-1.176-.913-2.548-.913-4.116 0-1.68.335-3.084 1.007-4.21a6.438 6.438 0 0 1 2.741-2.541c1.155-.567 2.468-.851 3.938-.851 1.47 0 2.754.326 3.853.977 1.099.65 1.95 1.56 2.551 2.73.603 1.168.904 2.537.904 4.105 0 1.68-.337 3.084-1.008 4.21a6.438 6.438 0 0 1-2.741 2.541c-1.155.568-2.468.851-3.938.851Zm.23-3.486c.995 0 1.803-.34 2.426-1.019.623-.678.934-1.641.934-2.887 0-1.498-.311-2.629-.934-3.391-.623-.763-1.453-1.145-2.489-1.145-.994 0-1.809.34-2.446 1.019-.637.678-.956 1.641-.956 2.887 0 1.498.319 2.629.956 3.391.637.764 1.474 1.145 2.51 1.145ZM258.95 101a13.4 13.4 0 0 0 .115-1.165c.021-.385.031-.774.031-1.166V88.421c0-.364-.01-.746-.031-1.145a9.619 9.619 0 0 0-.137-1.186h5.481c1.988 0 3.423.392 4.305 1.176.882.784 1.323 1.883 1.323 3.297 0 .826-.171 1.547-.514 2.163-.343.616-.962 1.127-1.858 1.533.658.28 1.14.668 1.449 1.165.308.497.587 1.194.84 2.09l.357 1.386c.181.77.433 1.47.755 2.1h-4.157l-.651-2.562c-.154-.658-.344-1.148-.567-1.47a1.64 1.64 0 0 0-.861-.651c-.35-.112-.798-.168-1.344-.168h-.442v2.52c0 .392.011.78.032 1.166a9.6 9.6 0 0 0 .137 1.165h-4.263Zm5.018-11.676h-.923v3.906h.966c.868 0 1.47-.178 1.805-.535.337-.357.505-.837.505-1.439 0-.616-.179-1.092-.536-1.428-.357-.336-.962-.504-1.817-.504Zm16.906 11.928c-2.786 0-4.918-.658-6.395-1.974-1.477-1.316-2.216-3.255-2.216-5.817 0-1.722.361-3.147 1.082-4.273.721-1.127 1.726-1.968 3.014-2.52 1.288-.553 2.793-.83 4.514-.83.743 0 1.439.042 2.09.126.651.084 1.228.21 1.733.378l.189 3.759a11.21 11.21 0 0 0-3.76-.63c-1.498.014-2.653.35-3.465 1.008-.811.658-1.217 1.659-1.217 3.003 0 1.372.367 2.404 1.102 3.097.735.694 1.754 1.04 3.055 1.04.28 0 .54-.028.778-.084v-2.016c0-.364-.014-.721-.043-1.071l-.084-1.05 3.697-.021v7.434c-.63.14-1.274.248-1.933.325-.658.078-1.372.116-2.142.116Zm6.636-.252c.083-.784.125-1.561.125-2.331V88.421c0-.756-.042-1.533-.125-2.331h9.554l.168 3.402a11.76 11.76 0 0 0-1.322-.136 28.257 28.257 0 0 0-1.323-.032h-2.983v2.583h2.352c.393 0 .77-.01 1.135-.031.364-.022.742-.06 1.134-.116v3.108a11.02 11.02 0 0 0-1.135-.105 29.532 29.532 0 0 0-1.134-.021h-2.351v3.024h2.982a25.25 25.25 0 0 0 2.856-.168l-.168 3.402h-9.765Zm11.948 0a13.4 13.4 0 0 0 .116-1.165c.021-.385.031-.774.031-1.166V88.421c0-.364-.01-.746-.031-1.145a9.619 9.619 0 0 0-.136-1.186h5.48c1.989 0 3.424.392 4.306 1.176.881.784 1.322 1.883 1.322 3.297 0 .826-.171 1.547-.514 2.163-.343.616-.963 1.127-1.858 1.533.657.28 1.14.668 1.449 1.165.308.497.587 1.194.84 2.09l.356 1.386c.183.77.435 1.47.757 2.1h-4.159l-.65-2.562c-.155-.658-.344-1.148-.567-1.47a1.64 1.64 0 0 0-.862-.651c-.35-.112-.798-.168-1.344-.168h-.44v2.52c0 .392.01.78.031 1.166a9.6 9.6 0 0 0 .137 1.165h-4.264Zm5.02-11.676h-.924v3.906h.966c.868 0 1.47-.178 1.805-.535.337-.357.505-.837.505-1.439 0-.616-.179-1.092-.536-1.428-.357-.336-.963-.504-1.817-.504Zm12.579 11.928a21.22 21.22 0 0 1-1.859-.073 16.019 16.019 0 0 1-1.837-.284l-.21-3.591c.756.21 1.4.35 1.932.42.531.07 1.084.105 1.659.105.91 0 1.515-.101 1.816-.304.301-.204.452-.473.452-.809 0-.252-.106-.497-.316-.735-.21-.238-.601-.511-1.175-.819l-1.407-.714c-1.106-.574-1.918-1.221-2.436-1.942-.519-.722-.778-1.565-.778-2.531 0-1.288.487-2.3 1.46-3.034.973-.736 2.411-1.103 4.315-1.103.658 0 1.225.032 1.701.095s1.058.178 1.743.346l.232 3.633a11.15 11.15 0 0 0-1.89-.494 11.527 11.527 0 0 0-1.807-.136c-.728 0-1.218.091-1.47.273-.251.182-.377.413-.377.693 0 .252.094.49.283.714.189.224.543.476 1.06.756l1.408.756c1.175.616 2.033 1.284 2.572 2.005.539.722.808 1.579.808 2.573 0 1.33-.458 2.362-1.375 3.097-.917.736-2.418 1.103-4.505 1.103Zm9.281.021c-.615 0-1.12-.192-1.512-.578-.392-.384-.587-.878-.587-1.48 0-.574.195-1.057.587-1.449.392-.392.897-.588 1.512-.588.617 0 1.117.196 1.502.588.385.392.577.875.577 1.449 0 .602-.192 1.096-.577 1.48-.385.386-.885.578-1.502.578ZM2.066 125c.084-.784.126-1.561.126-2.331v-10.248c0-.756-.042-1.533-.126-2.331h4.263c-.056.392-.091.787-.105 1.186-.014.4-.021.781-.021 1.145v3.255h4.893v-3.255c0-.756-.042-1.533-.126-2.331h4.263c-.056.392-.095.787-.116 1.186-.02.4-.031.781-.031 1.145v10.248c0 .392.01.78.031 1.166.021.385.06.773.116 1.165H10.97c.084-.784.126-1.561.126-2.331v-3.591H6.203v3.591c0 .392.007.78.021 1.166.014.385.049.773.105 1.165H2.066Zm15.561 0c.084-.784.126-1.561.126-2.331v-10.248c0-.756-.042-1.533-.126-2.331h4.263a22.268 22.268 0 0 0-.126 2.331v10.248c0 .77.042 1.547.126 2.331h-4.263Zm10.479.252a21.22 21.22 0 0 1-1.859-.073 16.019 16.019 0 0 1-1.837-.284l-.21-3.591c.756.21 1.4.35 1.932.42s1.085.105 1.659.105c.91 0 1.515-.101 1.817-.304.3-.204.451-.473.451-.809 0-.252-.105-.497-.315-.735-.21-.238-.602-.511-1.176-.819l-1.407-.714c-1.106-.574-1.918-1.221-2.436-1.942-.518-.722-.777-1.565-.777-2.531 0-1.288.486-2.3 1.46-3.034.973-.736 2.411-1.103 4.315-1.103.658 0 1.225.032 1.701.095s1.057.178 1.743.346l.231 3.633a11.15 11.15 0 0 0-1.89-.494 11.527 11.527 0 0 0-1.806-.136c-.728 0-1.218.091-1.47.273-.252.182-.378.413-.378.693 0 .252.095.49.284.714.188.224.542.476 1.06.756l1.407.756c1.176.616 2.034 1.284 2.573 2.005.539.722.808 1.579.808 2.573 0 1.33-.458 2.362-1.375 3.097-.917.736-2.419 1.103-4.505 1.103ZM44.675 125c.084-.784.126-1.561.126-2.331v-10.248c0-.756-.042-1.533-.126-2.331h4.263a22.268 22.268 0 0 0-.126 2.331v10.248c0 .77.042 1.547.126 2.331h-4.263Zm6.657 0c.056-.392.091-.78.105-1.165.014-.385.021-.774.021-1.166v-10.248c0-.756-.042-1.533-.126-2.331h4.914c2.73 0 4.813.616 6.247 1.848 1.435 1.232 2.153 3.08 2.153 5.544 0 2.45-.69 4.316-2.069 5.597-1.378 1.28-3.405 1.921-6.079 1.921h-5.166Zm5.124-11.697h-.987v8.484h.987c1.372 0 2.408-.333 3.108-.998.7-.665 1.05-1.767 1.05-3.307 0-1.484-.35-2.552-1.05-3.203-.7-.65-1.736-.976-3.108-.976ZM66.578 125c.084-.784.126-1.561.126-2.331v-10.248c0-.756-.042-1.533-.126-2.331h9.555l.168 3.402a11.76 11.76 0 0 0-1.323-.136 28.257 28.257 0 0 0-1.323-.032h-2.982v2.583h2.352c.392 0 .77-.01 1.134-.031.364-.022.742-.06 1.134-.116v3.108a11.02 11.02 0 0 0-1.134-.105 29.532 29.532 0 0 0-1.134-.021h-2.352v3.024h2.982a25.25 25.25 0 0 0 2.856-.168L76.343 125h-9.765Zm11.949 0c.056-.392.091-.78.105-1.165.014-.385.021-.774.021-1.166v-9.849c0-.518-.053-.98-.157-1.386-.105-.406-.305-.854-.599-1.344h4.641l5.271 8.085v-5.754c0-.392-.007-.78-.021-1.166a11.086 11.086 0 0 0-.105-1.165h4.011a13.4 13.4 0 0 0-.115 1.165c-.021.386-.032.774-.032 1.166V125h-3.36l-5.796-8.673v6.342c0 .392.007.78.021 1.166.014.385.049.773.105 1.165h-3.99Zm18.438 0c.056-.392.091-.78.105-1.165.014-.385.021-.774.021-1.166v-9.261h-1.239c-.434 0-.861.007-1.281.021-.42.014-.847.049-1.281.105v-3.444h11.613v3.444a13.53 13.53 0 0 0-1.281-.105c-.42-.014-.847-.021-1.281-.021h-1.239v9.261c0 .392.007.78.021 1.166.014.385.049.773.105 1.165h-4.263Zm9.576 0c.084-.784.126-1.561.126-2.331v-10.248c0-.756-.042-1.533-.126-2.331h4.263a22.268 22.268 0 0 0-.126 2.331v10.248c0 .77.042 1.547.126 2.331h-4.263Zm9.555 0c.056-.392.091-.78.105-1.165.014-.385.021-.774.021-1.166v-9.261h-1.239c-.434 0-.861.007-1.281.021-.42.014-.847.049-1.281.105v-3.444h11.613v3.444a13.53 13.53 0 0 0-1.281-.105c-.42-.014-.847-.021-1.281-.021h-1.239v9.261c0 .392.007.78.021 1.166.014.385.049.773.105 1.165h-4.263Zm13.755 0c.056-.392.091-.78.105-1.165.014-.385.021-.774.021-1.166v-2.058l-5.124-10.521h4.83c.042.35.102.675.179.977.077.3.171.612.283.934l1.932 4.977 1.911-4.977c.126-.322.227-.633.304-.934.077-.301.137-.627.179-.977h4.641l-5.124 10.563v2.016c0 .392.007.78.021 1.166.014.385.049.773.105 1.165h-4.263Zm15.246 0c.084-.784.126-1.561.126-2.331v-10.248c0-.756-.042-1.533-.126-2.331h4.263a22.268 22.268 0 0 0-.126 2.331v10.248c0 .77.042 1.547.126 2.331h-4.263Zm10.479.252a21.22 21.22 0 0 1-1.858-.073 16.019 16.019 0 0 1-1.838-.284l-.21-3.591c.756.21 1.4.35 1.932.42s1.085.105 1.659.105c.91 0 1.516-.101 1.816-.304.302-.204.452-.473.452-.809 0-.252-.105-.497-.315-.735-.21-.238-.602-.511-1.176-.819l-1.407-.714c-1.106-.574-1.918-1.221-2.436-1.942-.518-.722-.777-1.565-.777-2.531 0-1.288.487-2.3 1.46-3.034.973-.736 2.411-1.103 4.315-1.103.658 0 1.225.032 1.701.095s1.057.178 1.743.346l.231 3.633a11.15 11.15 0 0 0-1.89-.494 11.527 11.527 0 0 0-1.806-.136c-.728 0-1.218.091-1.47.273-.252.182-.378.413-.378.693 0 .252.094.49.283.714.19.224.543.476 1.061.756l1.407.756c1.176.616 2.034 1.284 2.573 2.005.538.722.808 1.579.808 2.573 0 1.33-.458 2.362-1.375 3.097-.917.736-2.419 1.103-4.505 1.103Zm18.585 0c-1.526 0-2.762-.266-3.707-.798a4.75 4.75 0 0 1-2.068-2.268c-.434-.98-.651-2.149-.651-3.507v-6.258c0-.364-.007-.746-.021-1.145a11.148 11.148 0 0 0-.105-1.186h4.284c-.056.392-.095.787-.115 1.186-.022.4-.032.781-.032 1.145v6.174c0 1.05.196 1.838.588 2.362.392.526 1.015.788 1.869.788 1.708 0 2.562-1.05 2.562-3.15v-6.174c0-.756-.042-1.533-.126-2.331h4.095c-.056.392-.091.787-.105 1.186-.014.4-.021.781-.021 1.145v6.258c0 1.358-.22 2.527-.662 3.507a4.806 4.806 0 0 1-2.078 2.268c-.945.532-2.181.798-3.707.798Zm8.862-.252c.056-.392.091-.78.105-1.165.014-.385.021-.774.021-1.166v-9.849c0-.518-.053-.98-.157-1.386-.105-.406-.305-.854-.599-1.344h4.641l5.271 8.085v-5.754c0-.392-.007-.78-.021-1.166a11.086 11.086 0 0 0-.105-1.165h4.011a13.4 13.4 0 0 0-.115 1.165c-.021.386-.032.774-.032 1.166V125h-3.36l-5.796-8.673v6.342c0 .392.007.78.021 1.166.014.385.049.773.105 1.165h-3.99Zm15.54 0c.056-.392.091-.78.105-1.165.014-.385.021-.774.021-1.166v-10.248c0-.364-.007-.746-.021-1.145a11.148 11.148 0 0 0-.105-1.186h4.263c-.056.392-.091.787-.105 1.186-.014.4-.021.781-.021 1.145v4.683l3.297-5.103a8.676 8.676 0 0 0 .903-1.911h4.662l-4.809 7.056L212.15 125h-4.935c-.224-.658-.602-1.379-1.134-2.163l-3.381-4.662v4.494c0 .392.007.78.021 1.166.014.385.049.773.105 1.165h-4.263Zm14.952 0c.056-.392.091-.78.105-1.165.014-.385.021-.774.021-1.166v-9.849c0-.518-.052-.98-.157-1.386-.106-.406-.305-.854-.599-1.344h4.641l5.271 8.085v-5.754c0-.392-.007-.78-.021-1.166a11.086 11.086 0 0 0-.105-1.165h4.011a13.4 13.4 0 0 0-.115 1.165c-.022.386-.032.774-.032 1.166V125h-3.36l-5.796-8.673v6.342c0 .392.007.78.021 1.166.014.385.049.773.105 1.165h-3.99Zm22.386.252c-1.47 0-2.751-.322-3.843-.966-1.092-.644-1.942-1.554-2.552-2.73-.608-1.176-.913-2.548-.913-4.116 0-1.68.336-3.084 1.008-4.21a6.438 6.438 0 0 1 2.74-2.541c1.155-.567 2.468-.851 3.938-.851 1.47 0 2.755.326 3.853.977 1.1.65 1.95 1.56 2.552 2.73.602 1.168.903 2.537.903 4.105 0 1.68-.336 3.084-1.008 4.21a6.438 6.438 0 0 1-2.74 2.541c-1.155.568-2.468.851-3.938.851Zm.231-3.486c.994 0 1.803-.34 2.425-1.019.624-.678.935-1.641.935-2.887 0-1.498-.311-2.629-.934-3.391-.623-.763-1.453-1.145-2.489-1.145-.994 0-1.81.34-2.446 1.019-.637.678-.956 1.641-.956 2.887 0 1.498.319 2.629.956 3.391.637.764 1.473 1.145 2.509 1.145ZM248.585 125a6.8 6.8 0 0 0-.095-.913c-.049-.273-.129-.606-.241-.998l-3.297-12.999h4.536c.028.476.07.906.126 1.291.056.385.133.753.231 1.103l1.701 8.169 2.289-8.568-.525-1.995h3.969l2.457 10.458 1.722-8.064c.07-.364.136-.735.2-1.113.063-.378.101-.805.115-1.281h3.969l-3.297 12.999c-.098.392-.171.721-.22.987a9.214 9.214 0 0 0-.116.924h-4.956a5.804 5.804 0 0 0-.147-.924c-.07-.28-.154-.609-.252-.987l-1.47-5.565-1.449 5.565c-.098.392-.179.725-.242.998a6.468 6.468 0 0 0-.136.913h-4.872Zm19.005 0c.056-.392.091-.78.105-1.165.014-.385.021-.774.021-1.166v-9.849c0-.518-.053-.98-.158-1.386-.104-.406-.304-.854-.598-1.344h4.641l5.271 8.085v-5.754c0-.392-.007-.78-.021-1.166a11.086 11.086 0 0 0-.105-1.165h4.011a13.4 13.4 0 0 0-.115 1.165c-.022.386-.032.774-.032 1.166V125h-3.36l-5.796-8.673v6.342c0 .392.007.78.021 1.166.014.385.049.773.105 1.165h-3.99Zm34.293 0H297.2a9.996 9.996 0 0 0-.157-1.207c-.077-.4-.172-.781-.284-1.145l-.105-.336h-4.872l-.105.336c-.112.392-.207.784-.284 1.176-.076.392-.129.784-.157 1.176h-4.473l4.326-12.579c.14-.406.252-.805.336-1.197.084-.392.154-.77.21-1.134h5.313c.07.364.158.742.263 1.134.104.392.213.791.325 1.197L301.883 125Zm-9.261-5.544h3.192l-1.596-5.334-1.596 5.334Zm10.92 5.544c.056-.392.091-.78.105-1.165.014-.385.021-.774.021-1.166v-9.849c0-.518-.053-.98-.158-1.386-.104-.406-.304-.854-.598-1.344h4.641l5.271 8.085v-5.754c0-.392-.007-.78-.021-1.166a11.086 11.086 0 0 0-.105-1.165h4.011a13.4 13.4 0 0 0-.115 1.165c-.022.386-.032.774-.032 1.166V125h-3.36l-5.796-8.673v6.342c0 .392.007.78.021 1.166.014.385.049.773.105 1.165h-3.99Zm15.54 0c.056-.392.091-.78.105-1.165.014-.385.021-.774.021-1.166v-10.248c0-.756-.042-1.533-.126-2.331h4.914c2.73 0 4.813.616 6.248 1.848 1.434 1.232 2.152 3.08 2.152 5.544 0 2.45-.69 4.316-2.069 5.597-1.378 1.28-3.405 1.921-6.079 1.921h-5.166Zm5.124-11.697h-.987v8.484h.987c1.372 0 2.408-.333 3.108-.998.7-.665 1.05-1.767 1.05-3.307 0-1.484-.35-2.552-1.05-3.203-.7-.65-1.736-.976-3.108-.976ZM4.723 149c.083-.784.125-1.561.125-2.331v-10.248c0-.756-.042-1.533-.125-2.331h4.263c-.056.392-.091.787-.106 1.186-.014.4-.02.781-.02 1.145v3.255h4.893v-3.255c0-.756-.043-1.533-.127-2.331h4.264c-.056.392-.095.787-.116 1.186-.021.4-.032.781-.032 1.145v10.248c0 .392.011.78.032 1.165.021.386.06.774.116 1.166h-4.264c.085-.784.127-1.561.127-2.331v-3.591H8.86v3.591c0 .392.007.78.02 1.165.014.386.05.774.105 1.166H4.724Zm15.56 0c.084-.784.127-1.561.127-2.331v-10.248c0-.756-.043-1.533-.127-2.331h9.555l.168 3.402a11.76 11.76 0 0 0-1.323-.136 28.257 28.257 0 0 0-1.323-.032h-2.982v2.583h2.352c.392 0 .77-.01 1.134-.032.364-.02.742-.059 1.134-.115v3.108a11.02 11.02 0 0 0-1.134-.105 29.532 29.532 0 0 0-1.134-.021h-2.352v3.024h2.982a25.25 25.25 0 0 0 2.857-.168L30.049 149h-9.765Zm16.36 0a13.4 13.4 0 0 0 .115-1.166c.021-.385.031-.773.031-1.165v-10.248c0-.364-.01-.745-.031-1.144a9.619 9.619 0 0 0-.137-1.187h5.481c1.989 0 3.424.392 4.306 1.176.881.784 1.322 1.883 1.322 3.297 0 .826-.171 1.547-.514 2.163-.343.616-.962 1.127-1.858 1.533.658.28 1.14.669 1.449 1.166.307.496.587 1.193.84 2.089l.357 1.386c.181.77.434 1.47.756 2.1h-4.158l-.651-2.562c-.154-.658-.343-1.148-.568-1.47a1.64 1.64 0 0 0-.86-.651c-.35-.112-.799-.168-1.345-.168h-.44v2.52c0 .392.01.78.031 1.165a9.6 9.6 0 0 0 .137 1.166h-4.264Zm5.018-11.676h-.924v3.906h.966c.868 0 1.47-.178 1.806-.535.337-.357.505-.837.505-1.439 0-.616-.179-1.092-.536-1.428-.357-.336-.962-.504-1.817-.504ZM50.42 149c.084-.784.126-1.561.126-2.331v-10.248c0-.756-.043-1.533-.127-2.331h9.556l.168 3.402a11.76 11.76 0 0 0-1.324-.136 28.257 28.257 0 0 0-1.322-.032h-2.983v2.583h2.352c.392 0 .77-.01 1.134-.032.364-.02.742-.059 1.134-.115v3.108a11.02 11.02 0 0 0-1.134-.105 29.532 29.532 0 0 0-1.134-.021h-2.352v3.024h2.983a25.25 25.25 0 0 0 2.855-.168L60.184 149h-9.765Zm11.823 0c.07-.392.119-.78.147-1.166.027-.385.048-.773.063-1.165l.378-9.849a8.797 8.797 0 0 0-.294-2.73h4.766l3.444 8.001 3.466-8.001h4.514a7.358 7.358 0 0 0-.241 1.333 10.22 10.22 0 0 0-.01 1.397l.357 9.849a21.248 21.248 0 0 0 .21 2.331h-4.138c.07-.392.106-.78.106-1.166 0-.385-.008-.773-.022-1.165l-.293-6.51-4.158 8.988h-.043l-4.136-8.946-.294 6.468c-.014.392-.018.77-.011 1.134.007.364.032.763.073 1.197h-3.885Zm33.432 0H90.99a9.996 9.996 0 0 0-.157-1.208c-.077-.399-.171-.78-.284-1.144l-.105-.336h-4.871l-.105.336c-.112.392-.207.784-.284 1.176-.077.392-.13.784-.157 1.176h-4.474l4.326-12.579c.14-.406.252-.805.337-1.197.084-.392.154-.77.21-1.134h5.313c.07.364.157.742.262 1.134.105.392.213.791.325 1.197L95.674 149Zm-9.262-5.544h3.192l-1.596-5.334-1.596 5.334Zm10.9 5.544c.084-.784.126-1.561.126-2.331v-10.248c0-.756-.043-1.533-.127-2.331h4.263a22.268 22.268 0 0 0-.126 2.331v10.248c0 .77.043 1.547.127 2.331H97.31Zm6.678 0c.056-.392.09-.78.105-1.166.014-.385.02-.773.02-1.165v-9.849c0-.518-.052-.98-.157-1.386-.105-.406-.305-.854-.599-1.344h4.642l5.27 8.085v-5.754c0-.392-.007-.78-.02-1.165a11.086 11.086 0 0 0-.106-1.166h4.011a13.4 13.4 0 0 0-.115 1.166c-.021.385-.031.773-.031 1.165V149h-3.36l-5.797-8.673v6.342c0 .392.008.78.022 1.165.013.386.049.774.105 1.166h-3.99Zm19.362.252a21.22 21.22 0 0 1-1.859-.073 16.019 16.019 0 0 1-1.837-.284l-.21-3.591c.755.21 1.4.35 1.931.42.532.07 1.086.105 1.66.105.91 0 1.515-.102 1.816-.305.301-.203.452-.472.452-.808 0-.252-.106-.497-.316-.735-.21-.238-.602-.511-1.175-.819l-1.407-.714c-1.106-.574-1.918-1.222-2.436-1.942-.519-.721-.778-1.565-.778-2.531 0-1.288.487-2.3 1.46-3.035.973-.734 2.411-1.102 4.316-1.102.657 0 1.225.031 1.7.095.477.063 1.058.178 1.743.346l.231 3.633a11.15 11.15 0 0 0-1.89-.494 11.527 11.527 0 0 0-1.805-.136c-.728 0-1.218.091-1.47.273-.252.182-.378.413-.378.693 0 .252.094.49.283.714.189.224.543.476 1.06.756l1.407.756c1.177.616 2.034 1.285 2.573 2.006.539.72.809 1.578.809 2.572 0 1.33-.459 2.363-1.376 3.097-.917.736-2.418 1.103-4.504 1.103Zm15.056-.252c.056-.392.092-.78.106-1.166.013-.385.02-.773.02-1.165v-9.261h-1.238c-.434 0-.861.007-1.281.021-.42.014-.847.049-1.281.105v-3.444h11.612v3.444a13.53 13.53 0 0 0-1.28-.105c-.42-.014-.847-.021-1.281-.021h-1.24v9.261c0 .392.008.78.022 1.165.013.386.048.774.105 1.166h-4.263Zm9.577 0c.083-.784.125-1.561.125-2.331v-10.248c0-.756-.042-1.533-.126-2.331h4.263c-.056.392-.09.787-.105 1.186-.013.4-.02.781-.02 1.145v3.255h4.892v-3.255c0-.756-.042-1.533-.126-2.331h4.263c-.056.392-.094.787-.115 1.186-.021.4-.031.781-.031 1.145v10.248c0 .392.01.78.031 1.165.021.386.06.774.115 1.166h-4.263c.084-.784.126-1.561.126-2.331v-3.591h-4.893v3.591c0 .392.007.78.022 1.165.013.386.048.774.105 1.166h-4.263Zm15.56 0c.085-.784.127-1.561.127-2.331v-10.248c0-.756-.042-1.533-.126-2.331h9.555l.167 3.402a11.76 11.76 0 0 0-1.322-.136 28.257 28.257 0 0 0-1.323-.032h-2.982v2.583h2.352c.392 0 .77-.01 1.133-.032.364-.02.743-.059 1.135-.115v3.108a11.02 11.02 0 0 0-1.135-.105 29.532 29.532 0 0 0-1.133-.021h-2.352v3.024h2.982a25.25 25.25 0 0 0 2.856-.168L173.31 149h-9.764Zm23.185.252c-1.47 0-2.751-.322-3.843-.966-1.093-.644-1.943-1.554-2.552-2.73s-.913-2.548-.913-4.116c0-1.68.335-3.083 1.007-4.21a6.438 6.438 0 0 1 2.741-2.541c1.155-.567 2.468-.851 3.938-.851 1.47 0 2.754.326 3.853.977 1.099.65 1.95 1.56 2.551 2.73.602 1.169.904 2.537.904 4.105 0 1.68-.337 3.083-1.008 4.21a6.438 6.438 0 0 1-2.741 2.541c-1.155.567-2.468.851-3.938.851Zm.23-3.486c.994 0 1.803-.34 2.426-1.018.623-.68.935-1.642.935-2.888 0-1.498-.312-2.629-.935-3.392-.623-.762-1.452-1.144-2.488-1.144-.994 0-1.81.34-2.447 1.018-.637.68-.956 1.642-.956 2.888 0 1.498.319 2.629.956 3.392.637.762 1.474 1.144 2.51 1.144ZM196.37 149c.055-.392.09-.78.105-1.166.014-.385.02-.773.02-1.165v-9.849c0-.518-.052-.98-.157-1.386-.105-.406-.304-.854-.599-1.344h4.642l5.27 8.085v-5.754c0-.392-.007-.78-.02-1.165a11.086 11.086 0 0 0-.106-1.166h4.012a13.4 13.4 0 0 0-.116 1.166c-.021.385-.031.773-.031 1.165V149h-3.36l-5.797-8.673v6.342c0 .392.007.78.022 1.165.014.386.049.774.105 1.166h-3.99Zm15.54 0c.055-.392.09-.78.105-1.166.013-.385.02-.773.02-1.165v-10.248c0-.364-.006-.745-.02-1.144a11.148 11.148 0 0 0-.106-1.187h4.264c-.056.392-.091.787-.106 1.186-.013.4-.02.781-.02 1.145v9.345h2.75c.463 0 .921-.007 1.376-.021.455-.014.906-.042 1.355-.084V149h-9.618Zm15.54 0c.055-.392.09-.78.105-1.166.013-.385.02-.773.02-1.165v-2.058l-5.124-10.521h4.83c.042.35.102.675.179.976.077.302.172.613.284.935l1.931 4.977 1.911-4.977c.126-.322.228-.633.305-.935.077-.3.137-.626.179-.976h4.64l-5.124 10.563v2.016c0 .392.007.78.022 1.165.013.386.048.774.105 1.166h-4.263Zm15.14 0c.07-.392.12-.78.148-1.166.028-.385.049-.773.063-1.165l.377-9.849a8.797 8.797 0 0 0-.293-2.73h4.767l3.444 8.001 3.465-8.001h4.514a7.358 7.358 0 0 0-.241 1.333 10.22 10.22 0 0 0-.01 1.397l.357 9.849a21.248 21.248 0 0 0 .21 2.331h-4.137c.07-.392.105-.78.105-1.166 0-.385-.007-.773-.022-1.165l-.294-6.51-4.157 8.988h-.042l-4.137-8.946-.294 6.468c-.014.392-.018.77-.011 1.134.007.364.031.763.073 1.197h-3.885Zm19.09 0c.084-.784.126-1.561.126-2.331v-10.248c0-.756-.043-1.533-.127-2.331h9.555l.168 3.402a11.76 11.76 0 0 0-1.322-.136 28.257 28.257 0 0 0-1.324-.032h-2.981v2.583h2.351c.392 0 .77-.01 1.135-.032.363-.02.742-.059 1.134-.115v3.108a11.02 11.02 0 0 0-1.135-.105 29.532 29.532 0 0 0-1.134-.021h-2.351v3.024h2.981a25.25 25.25 0 0 0 2.856-.168l-.168 3.402h-9.764Zm11.823 0c.07-.392.118-.78.147-1.166.027-.385.048-.773.063-1.165l.377-9.849a8.797 8.797 0 0 0-.293-2.73h4.767l3.444 8.001 3.464-8.001h4.515a7.358 7.358 0 0 0-.241 1.333 10.22 10.22 0 0 0-.01 1.397l.356 9.849a21.248 21.248 0 0 0 .21 2.331h-4.137c.07-.392.106-.78.106-1.166 0-.385-.007-.773-.022-1.165l-.293-6.51-4.159 8.988h-.041l-4.137-8.946-.294 6.468c-.014.392-.018.77-.011 1.134.007.364.031.763.074 1.197h-3.885Zm19.11 0c.041-.392.07-.78.083-1.166.014-.385.022-.773.022-1.165v-10.248c0-.364-.007-.745-.022-1.144a11.148 11.148 0 0 0-.104-1.187h5.354c1.344 0 2.409.168 3.192.504.784.336 1.348.791 1.691 1.365.343.574.514 1.225.514 1.953 0 .616-.129 1.176-.388 1.68s-.704.924-1.334 1.26c.91.322 1.575.809 1.995 1.46.42.65.63 1.41.63 2.278 0 .854-.195 1.613-.587 2.279-.393.665-1.002 1.186-1.828 1.564-.825.378-1.897.567-3.212.567h-6.007Zm5.102-11.886h-1.091l-.022 3.108h1.281c.686 0 1.183-.14 1.491-.42.309-.28.463-.665.463-1.155 0-.546-.161-.938-.483-1.176-.322-.238-.868-.357-1.639-.357Zm.4 5.565h-1.534l-.02 3.297h1.721c.659 0 1.17-.147 1.534-.441.363-.294.546-.714.546-1.26 0-1.064-.75-1.596-2.248-1.596Zm7.833 6.321c.084-.784.125-1.561.125-2.331v-10.248c0-.756-.041-1.533-.125-2.331h9.555l.168 3.402a11.76 11.76 0 0 0-1.324-.136 28.257 28.257 0 0 0-1.322-.032h-2.983v2.583h2.353c.392 0 .77-.01 1.133-.032.365-.02.743-.059 1.135-.115v3.108a11.02 11.02 0 0 0-1.135-.105 29.532 29.532 0 0 0-1.133-.021h-2.353v3.024h2.983a25.25 25.25 0 0 0 2.856-.168l-.168 3.402h-9.765Zm11.949 0a13.4 13.4 0 0 0 .115-1.166c.021-.385.031-.773.031-1.165v-10.248c0-.364-.01-.745-.031-1.144a9.619 9.619 0 0 0-.137-1.187h5.481c1.988 0 3.423.392 4.305 1.176.882.784 1.323 1.883 1.323 3.297 0 .826-.171 1.547-.514 2.163-.343.616-.962 1.127-1.858 1.533.658.28 1.14.669 1.449 1.166.308.496.587 1.193.84 2.089l.357 1.386c.181.77.433 1.47.755 2.1h-4.158l-.65-2.562c-.154-.658-.344-1.148-.567-1.47a1.64 1.64 0 0 0-.861-.651c-.35-.112-.798-.168-1.344-.168h-.442v2.52c0 .392.011.78.032 1.165a9.6 9.6 0 0 0 .137 1.166h-4.263Zm5.018-11.676h-.923v3.906h.966c.868 0 1.47-.178 1.805-.535.337-.357.505-.837.505-1.439 0-.616-.179-1.092-.536-1.428-.357-.336-.962-.504-1.817-.504ZM113.23 173c.055-.392.09-.78.105-1.166.014-.385.02-.773.02-1.165v-9.261h-1.239c-.433 0-.86.007-1.28.021-.42.014-.847.049-1.281.105v-3.444h11.612v3.444a13.53 13.53 0 0 0-1.28-.105c-.42-.014-.847-.021-1.281-.021h-1.24v9.261c0 .392.008.78.022 1.165.013.386.048.774.105 1.166h-4.263Zm16.421.252c-1.47 0-2.75-.322-3.843-.966-1.092-.644-1.942-1.554-2.551-2.73-.609-1.176-.913-2.548-.913-4.116 0-1.68.336-3.083 1.008-4.21a6.438 6.438 0 0 1 2.74-2.541c1.155-.567 2.468-.851 3.938-.851 1.47 0 2.754.326 3.853.977 1.099.65 1.95 1.56 2.552 2.73.601 1.169.903 2.537.903 4.105 0 1.68-.337 3.083-1.008 4.21a6.438 6.438 0 0 1-2.741 2.541c-1.155.567-2.468.851-3.938.851Zm.231-3.486c.994 0 1.803-.34 2.426-1.018.623-.68.935-1.642.935-2.888 0-1.498-.312-2.629-.935-3.392-.623-.762-1.452-1.144-2.488-1.144-.994 0-1.81.34-2.447 1.018-.637.68-.956 1.642-.956 2.888 0 1.498.319 2.629.956 3.392.637.762 1.473 1.144 2.51 1.144ZM143.68 173c.084-.784.126-1.561.126-2.331v-10.248c0-.756-.042-1.533-.126-2.331h9.555l.168 3.402a11.76 11.76 0 0 0-1.322-.136 28.257 28.257 0 0 0-1.324-.032h-2.982v2.583h2.352c.392 0 .77-.01 1.135-.032.364-.02.742-.059 1.133-.115v3.108a11.02 11.02 0 0 0-1.133-.105 29.532 29.532 0 0 0-1.135-.021h-2.352v3.024h2.982a25.25 25.25 0 0 0 2.857-.168l-.168 3.402h-9.766Zm15.75.252a21.22 21.22 0 0 1-1.858-.073 16.019 16.019 0 0 1-1.838-.284l-.21-3.591c.757.21 1.4.35 1.933.42.532.07 1.085.105 1.659.105.91 0 1.515-.102 1.816-.305.301-.203.451-.472.451-.808 0-.252-.105-.497-.315-.735-.21-.238-.602-.511-1.175-.819l-1.407-.714c-1.107-.574-1.919-1.222-2.437-1.942-.518-.721-.776-1.565-.776-2.531 0-1.288.486-2.3 1.459-3.035.973-.734 2.412-1.102 4.316-1.102.657 0 1.225.031 1.7.095.476.063 1.057.178 1.743.346l.231 3.633a11.15 11.15 0 0 0-1.89-.494 11.527 11.527 0 0 0-1.805-.136c-.728 0-1.219.091-1.47.273-.252.182-.379.413-.379.693 0 .252.095.49.284.714.189.224.542.476 1.06.756l1.408.756c1.175.616 2.033 1.285 2.572 2.006.539.72.809 1.578.809 2.572 0 1.33-.459 2.363-1.376 3.097-.917.736-2.418 1.103-4.505 1.103Zm15.499 0c-1.554 0-2.951-.284-4.19-.85a6.662 6.662 0 0 1-2.94-2.583c-.721-1.155-1.082-2.608-1.082-4.358 0-1.288.21-2.408.63-3.36a6.448 6.448 0 0 1 1.754-2.373 7.592 7.592 0 0 1 2.594-1.418c.98-.315 2.023-.472 3.129-.472.475 0 .927.025 1.354.073.427.05.823.116 1.186.2l.232 3.822a5.355 5.355 0 0 0-1.187-.357 7.35 7.35 0 0 0-1.27-.105c-1.275 0-2.297.333-3.067.998s-1.154 1.662-1.154 2.992c0 1.358.392 2.39 1.175 3.097.784.708 1.876 1.061 3.276 1.061.448 0 .858-.024 1.229-.073.371-.05.738-.13 1.102-.242l-.105 3.675a11.21 11.21 0 0 1-1.333.21c-.441.042-.886.063-1.333.063ZM194.1 173h-4.684a9.996 9.996 0 0 0-.157-1.208c-.077-.399-.171-.78-.284-1.144l-.105-.336H184l-.106.336c-.112.392-.206.784-.283 1.176-.077.392-.13.784-.157 1.176h-4.474l4.327-12.579c.14-.406.252-.805.336-1.197.083-.392.154-.77.21-1.134h5.313c.07.364.157.742.262 1.134.105.392.214.791.326 1.197L194.1 173Zm-9.262-5.544h3.192l-1.596-5.334-1.596 5.334Zm10.9 5.544c.083-.784.125-1.561.125-2.331v-10.248c0-.756-.042-1.533-.126-2.331h5.46c1.918 0 3.36.493 4.326 1.48.966.988 1.45 2.293 1.45 3.917 0 1.694-.518 3.055-1.554 4.084-1.036 1.03-2.597 1.544-4.683 1.544h-.966v1.554c0 .392.007.78.02 1.165.014.386.05.774.106 1.166h-4.159Zm4.871-11.697h-.84v4.851h.798c1.82 0 2.73-.833 2.73-2.499 0-1.568-.895-2.352-2.688-2.352ZM208.696 173c.085-.784.126-1.561.126-2.331v-10.248c0-.756-.041-1.533-.125-2.331h9.554l.168 3.402a11.76 11.76 0 0 0-1.323-.136 28.257 28.257 0 0 0-1.322-.032h-2.982v2.583h2.352c.392 0 .77-.01 1.133-.032.364-.02.742-.059 1.135-.115v3.108a11.02 11.02 0 0 0-1.135-.105 29.532 29.532 0 0 0-1.133-.021h-2.352v3.024h2.982a25.25 25.25 0 0 0 2.856-.168L218.46 173h-9.766Zm13.462.273c-.617 0-1.12-.192-1.513-.577-.392-.386-.588-.879-.588-1.481 0-.574.196-1.057.588-1.449.392-.392.897-.588 1.512-.588.617 0 1.117.196 1.502.588.385.392.578.875.578 1.449 0 .602-.193 1.095-.578 1.48-.385.386-.885.578-1.501.578Z"/><path fill="#FFF" fill-rule="nonzero" d="M60.8 43c.09-.635.147-1.264.17-1.887.023-.623.034-1.252.034-1.887V22.634c0-.59-.011-1.207-.034-1.853a18.05 18.05 0 0 0-.17-1.921h6.902a18.05 18.05 0 0 0-.17 1.921 52.924 52.924 0 0 0-.034 1.853v7.582l5.338-8.262c.657-1.065 1.145-2.097 1.462-3.094h7.548L74.06 30.284 82.798 43h-7.99c-.363-1.065-.975-2.233-1.836-3.502l-5.474-7.548v7.276c0 .635.011 1.264.034 1.887.023.623.08 1.252.17 1.887H60.8Zm23.174 0c.136-1.27.204-2.527.204-3.774V22.634c0-1.224-.068-2.482-.204-3.774h6.902a36.053 36.053 0 0 0-.204 3.774v16.592c0 1.247.068 2.505.204 3.774h-6.902Zm9.812 0c.09-.635.147-1.264.17-1.887.023-.623.034-1.252.034-1.887V23.28c0-.839-.085-1.587-.255-2.244-.17-.657-.493-1.383-.969-2.176h7.514l8.534 13.09v-9.316c0-.635-.011-1.264-.034-1.887a17.949 17.949 0 0 0-.17-1.887h6.494c-.09.635-.153 1.264-.187 1.887a34.642 34.642 0 0 0-.051 1.887V43h-5.44l-9.384-14.042v10.268c0 .635.011 1.264.034 1.887.023.623.08 1.252.17 1.887h-6.46Zm37.352.408c-4.51 0-7.962-1.065-10.353-3.196-2.391-2.13-3.587-5.27-3.587-9.418 0-2.788.584-5.094 1.751-6.919 1.167-1.825 2.794-3.185 4.879-4.08 2.085-.895 4.522-1.343 7.31-1.343 1.201 0 2.329.068 3.383.204 1.054.136 1.989.34 2.805.612l.306 6.086a18.15 18.15 0 0 0-6.086-1.02c-2.425.023-4.295.567-5.61 1.632-1.315 1.065-1.972 2.686-1.972 4.862 0 2.221.595 3.893 1.785 5.015 1.19 1.122 2.839 1.683 4.947 1.683.453 0 .873-.045 1.258-.136v-3.264c0-.59-.023-1.167-.068-1.734l-.136-1.7 5.984-.034v12.036c-1.02.227-2.063.402-3.128.527a29.932 29.932 0 0 1-3.468.187Zm26.968 0c-2.38 0-4.454-.521-6.222-1.564-1.768-1.043-3.145-2.516-4.131-4.42-.986-1.904-1.479-4.125-1.479-6.664 0-2.72.544-4.992 1.632-6.817 1.088-1.825 2.567-3.196 4.437-4.114 1.87-.918 3.995-1.377 6.375-1.377s4.46.527 6.239 1.581c1.78 1.054 3.156 2.527 4.131 4.42.975 1.893 1.462 4.108 1.462 6.647 0 2.72-.544 4.992-1.632 6.817-1.088 1.825-2.567 3.196-4.437 4.114-1.87.918-3.995 1.377-6.375 1.377Zm.374-5.644c1.61 0 2.918-.55 3.927-1.649 1.009-1.1 1.513-2.658 1.513-4.675 0-2.425-.504-4.256-1.513-5.491-1.009-1.235-2.352-1.853-4.029-1.853-1.61 0-2.93.55-3.961 1.649-1.031 1.1-1.547 2.658-1.547 4.675 0 2.425.516 4.256 1.547 5.491 1.031 1.235 2.386 1.853 4.063 1.853ZM172.678 43c.068-.635.113-1.264.136-1.887.023-.623.034-1.252.034-1.887V22.634c0-.59-.011-1.207-.034-1.853a26.871 26.871 0 0 0-.136-1.921h15.538v5.576a21.907 21.907 0 0 0-2.074-.17 62.262 62.262 0 0 0-2.074-.034h-4.726v5.44h3.604c.635 0 1.264-.011 1.887-.034.623-.023 1.252-.08 1.887-.17v5.168a34.775 34.775 0 0 0-3.774-.204h-3.604v4.794c0 .635.011 1.264.034 1.887.023.623.08 1.252.17 1.887h-6.868Zm23.5 0c.09-.635.147-1.264.17-1.887.023-.623.034-1.252.034-1.887V22.634c0-.59-.011-1.207-.034-1.853a18.05 18.05 0 0 0-.17-1.921h6.902a18.05 18.05 0 0 0-.17 1.921 52.924 52.924 0 0 0-.034 1.853v7.582l5.338-8.262c.657-1.065 1.145-2.097 1.462-3.094h7.548l-7.786 11.424L218.176 43h-7.99c-.363-1.065-.975-2.233-1.836-3.502l-5.474-7.548v7.276c0 .635.011 1.264.034 1.887.023.623.08 1.252.17 1.887h-6.902Zm23.174 0c.136-1.27.204-2.527.204-3.774V22.634c0-1.224-.068-2.482-.204-3.774h15.47l.272 5.508a19.04 19.04 0 0 0-2.142-.221 45.75 45.75 0 0 0-2.142-.051h-4.828v4.182h3.808a31.9 31.9 0 0 0 1.836-.051c.59-.034 1.201-.096 1.836-.187v5.032a17.842 17.842 0 0 0-1.836-.17 47.814 47.814 0 0 0-1.836-.034h-3.808v4.896h4.828a40.88 40.88 0 0 0 4.624-.272L235.162 43h-15.81Zm48.796-24.548c1.065 0 1.983.051 2.754.153.77.102 1.711.289 2.822.561l.374 5.882c-1.11-.385-2.13-.652-3.06-.799a18.663 18.663 0 0 0-2.924-.221c-1.179 0-1.972.147-2.38.442-.408.295-.612.669-.612 1.122 0 .408.153.793.459 1.156.306.363.878.77 1.717 1.224l2.278 1.224c1.904.997 3.292 2.08 4.165 3.247.873 1.167 1.309 2.556 1.309 4.165 0 2.153-.742 3.825-2.227 5.015-1.485 1.19-3.916 1.785-7.293 1.785-1.11 0-2.114-.04-3.009-.119a25.935 25.935 0 0 1-2.975-.459l-.34-5.814c1.224.34 2.267.567 3.128.68.861.113 1.757.17 2.686.17 1.473 0 2.454-.164 2.941-.493.487-.329.731-.765.731-1.309 0-.408-.17-.805-.51-1.19-.34-.385-.975-.827-1.904-1.326L264 32.392c-1.79-.93-3.105-1.978-3.944-3.145s-1.258-2.533-1.258-4.097c0-2.085.788-3.723 2.363-4.913 1.575-1.19 3.904-1.785 6.987-1.785Zm-24.466.408a12.3 12.3 0 0 0 .289 1.581c.125.487.278.992.459 1.513l3.128 8.058 3.094-8.058a13.01 13.01 0 0 0 .493-1.513 12.3 12.3 0 0 0 .289-1.581h7.514l-8.296 17.102v3.264c0 .635.011 1.264.034 1.887.023.623.08 1.252.17 1.887h-6.902c.09-.635.147-1.264.17-1.887.023-.623.034-1.252.034-1.887v-3.332l-8.296-17.034h7.82Z"/></g></svg>