<svg xmlns="http://www.w3.org/2000/svg" xmlns:xlink="http://www.w3.org/1999/xlink" viewBox="0 0 340 340"><defs>

<path id="c" d="M0 0h118.753v118.933H0z"/>

<path id="a" d="M0 0h340v340H0z"/></defs><g fill="none" fill-rule="evenodd"><mask id="b" fill="#fff"><use xlink:href="#a"/></mask><g mask="url(#b)">

<path fill="#26282C" d="M215.003 910.186a24.47 24.47 0 0 1-6.385 16.821c-4.56 4.949-11.096 7.993-18.317 7.993h-36.328c-13.757 0-24.776-11.114-24.701-24.814l4.484-552.38 1.444-178.267.152-19.029.305-37.298.075-11.189h72.886l.077 11.189v.382l.303 36.916.23 24.128.38 50.314 5.395 675.234Z"/>

<path fill="#EC9C00" d="M209.607 234.952c-5.852-9.895-11.477-19.867-18.47-28.924-11.17-14.463-27.056-26.87-45.296-27.783-3.573-.153-7.144.305-10.64 1.294l.152-19.03.303-37.297.077-11.189h72.886l.075 11.19v.38l.305 36.916.228 24.13.38 50.313Z"/>

<path fill="#B67400" d="m209.227 184.639-73.874-24.13.303-37.297h73.038v.381l.305 36.916z"/>

<path fill="#1C1C1E" d="M122.761 55.69s-21.534 11.894-32.22-9.515v86.582c10.686-21.406 32.22-9.512 32.22-9.512l4.116-33.778-4.116-33.777Z"/>

<path fill="#373739" d="M20 46.176v86.582h70.541V46.176z"/>

<path fill="#FFF" d="M20 55.849v29.496h70.541V55.849z" opacity=".3"/>

<path fill="#FFF" d="M20 46.176v86.582h9.262V46.176z" opacity=".3"/>

<path fill="#1C1C1E" d="M221.565 65.66s21.534 8.383 32.222-6.707V119.982c-10.688-15.09-32.222-6.707-32.222-6.707l-4.116-23.808 4.116-23.807Z"/>

<path fill="#373739" d="m253.787 58.953 61.93 23.914c7.044 2.721 7.044 10.48 0 13.201l-61.93 23.912V58.953Z"/><g transform="translate(112.786 30)"><mask id="d" fill="#fff"><use xlink:href="#c"/></mask>

<path fill="#26282C" d="M118.753 59.467c0 32.843-26.584 59.466-59.375 59.466C26.584 118.933 0 92.31 0 59.467S26.584 0 59.378 0c32.791 0 59.375 26.624 59.375 59.467" mask="url(#d)"/></g>

<path fill="#4C4C4E" d="M217.448 89.467c0 25.05-20.275 45.354-45.286 45.354-25.01 0-45.284-20.305-45.284-45.354s20.275-45.354 45.284-45.354c25.011 0 45.286 20.305 45.286 45.354"/><g fill="#828283">

<path d="M176.476 91.4a4.096 4.096 0 0 1-4.087 4.093 4.096 4.096 0 0 1-4.087-4.094 4.096 4.096 0 0 1 4.087-4.093 4.096 4.096 0 0 1 4.087 4.093m-16.683-6.78a14.25 14.25 0 0 0-1.708 6.78c0 .772.077 1.523.196 2.262 5.497 1.021 9.707 5.724 9.99 11.453a14.187 14.187 0 0 0 8.236 0c.284-5.729 4.494-10.432 9.991-11.453.119-.739.196-1.49.196-2.262 0-2.45-.619-4.76-1.708-6.78a58.024 58.024 0 0 0-25.193 0"/>

<path d="M172.39 107.772c-9.015 0-16.349-7.345-16.349-16.373 0-9.027 7.334-16.373 16.348-16.373s16.349 7.346 16.349 16.373c0 9.028-7.335 16.373-16.349 16.373M147.867 91.4c0 13.543 11 24.56 24.522 24.56 13.523 0 24.523-11.017 24.523-24.56 0-13.542-11-24.559-24.523-24.559-13.522 0-24.522 11.017-24.522 24.56Z"/></g>

<path fill="#FFF" d="M126.498 89.448s.023-.556.063-1.598l.077-1.921c0-.754.095-1.625.254-2.603.146-.978.279-2.067.475-3.24l.918-3.73c.354-1.324.914-2.677 1.406-4.137.533-1.445 1.323-2.868 2.022-4.406.846-1.46 1.721-2.995 2.74-4.5 1.11-1.445 2.136-3.04 3.495-4.426 2.498-2.972 5.69-5.589 9.17-7.975 3.517-2.363 7.544-4.157 11.762-5.541 4.262-1.295 8.767-1.897 13.282-2.018 4.467.114 9.032.721 13.285 2.016 4.217 1.384 8.244 3.179 11.762 5.543 3.48 2.386 6.671 5.002 9.17 7.973 1.358 1.388 2.385 2.983 3.492 4.428 1.021 1.505 1.897 3.04 2.743 4.5.699 1.538 1.489 2.961 2.021 4.405.492 1.46 1.053 2.814 1.407 4.138l.918 3.73c.196 1.17.327 2.252.473 3.224.159.972.253 1.842.253 2.608l.078 1.937.064 1.612h-.76l-.452-1.572c-.312-1.012-.585-2.503-1.275-4.303-.324-.901-.651-1.896-1.054-2.949-.508-1.031-.955-2.152-1.473-3.324-.535-1.165-1.277-2.33-1.943-3.57-.706-1.226-1.57-2.442-2.377-3.726-1.86-2.442-3.952-4.952-6.462-7.25-2.429-2.384-5.452-4.31-8.502-6.21-3.11-1.88-6.67-3.007-10.198-4.165l-2.732-.644c-.937-.271-1.73-.247-2.6-.407l-1.273-.189c-.385-.082-1.061-.054-1.58-.088l-1.664-.056-.834-.026-.417-.014-.206-.009-.105-.007-.053-.004c.138.004-.378-.01.294.006-3.781.031-7.567.431-11.17 1.433-3.538 1.135-7.092 2.28-10.204 4.158-3.05 1.901-6.084 3.817-8.508 6.21-2.51 2.301-4.608 4.806-6.462 7.253-.809 1.286-1.667 2.505-2.378 3.728-.666 1.242-1.407 2.409-1.94 3.574-.516 1.171-.966 2.292-1.472 3.324-.396 1.033-.72 2.003-1.044 2.894-.689 1.75-.97 3.377-1.277 4.374l-.45 1.579-.759-.04Z" opacity=".3"/></g></g></svg>