<svg xmlns="http://www.w3.org/2000/svg" viewBox="0 0 340 1100"><g fill="none" fill-rule="evenodd"><path fill="#64686D" d="M-7.815 976.542c0-12.9-3.5-25.728-10.645-36.459-5.982-8.986-15.917-15.893-25.31-17.596-5.708-1.034-10.673-.068-14.754 2.877-5.046 3.639-6.73 9.18-7.254 13.188-1.058 8.062 1.492 16.958 6.639 23.247 9.924 12.126 26.83 17.801 42.056 21.751 2.764.717 5.666 1.442 8.68 2.138.391-3.035.588-6.094.588-9.146ZM-277.11 711.197c19.676-15.649 44.591-26 70.153-29.149 26.61-3.277 52.395 1.086 74.566 12.62 47.158 24.536 73.132 82.106 59.128 131.088-7.12 24.905-22.927 45.957-38.213 66.315-18.123 24.135-35.239 46.93-37.65 74.56-2.658 30.354 15.757 61.096 43.776 73.071 27.453 11.733 61.487 4.228 80.927-17.845 5.634-6.397 9.86-13.855 12.639-21.817a346.348 346.348 0 0 1-8.998-2.218c-17.53-4.548-37.151-11.273-49.762-26.681-7.638-9.335-11.411-22.555-9.847-34.501 1.272-9.741 5.977-17.996 13.248-23.238 7.349-5.3 16.34-7.174 26-5.423 13.34 2.42 26.732 11.589 34.949 23.93 10.975 16.485 14.91 37.02 12.175 56.653 12.708 2.094 26.595 3.081 40.373 1.126 22.264-3.159 40.86-13.928 51.021-29.544 10.987-16.885 12.23-39.03 13.325-58.569l14.715.827c-1.14 20.319-2.557 45.607-15.687 65.787-12.484 19.184-34.828 32.341-61.304 36.097-15.87 2.253-31.564 1.077-45.72-1.32-3.351 10.478-8.724 20.301-16.07 28.639-23.521 26.708-64.642 35.817-97.775 21.656-33.707-14.404-55.858-51.377-52.667-87.913 2.778-31.83 21.98-57.403 40.55-82.133 14.479-19.287 29.454-39.23 35.826-61.514 12.142-42.479-10.59-92.531-51.758-113.951-39.119-20.351-92.062-14.187-128.748 14.99l-9.172-11.543Z"/><path fill="#A0A2A5" d="M102.462 457.632c-115.237 0-208.655-93.464-208.655-208.756 0-115.294 93.418-208.759 208.655-208.759 115.238 0 208.655 93.465 208.655 208.759 0 115.292-93.417 208.756-208.655 208.756"/><path fill="#BBBDBF" d="M251.171 248.876c0-82.039-66.71-148.782-148.71-148.782-81.998 0-148.71 66.743-148.71 148.782 0 82.039 66.712 148.782 148.71 148.782 82 0 148.71-66.743 148.71-148.782m-326.894 0c0-98.3 79.933-178.273 178.184-178.273 98.252 0 178.184 79.973 178.184 178.273s-79.932 178.271-178.184 178.271c-98.251 0-178.184-79.972-178.184-178.271"/><path fill="#8E9194" d="M-60.986 248.875c0-90.314 73.178-163.527 163.447-163.527 90.27 0 163.448 73.213 163.448 163.527 0 90.313-73.178 163.527-163.448 163.527-90.269 0-163.447-73.214-163.447-163.527m372.103 0c0-115.294-93.419-208.757-208.656-208.757-115.236 0-208.655 93.463-208.655 208.757 0 115.294 93.419 208.757 208.655 208.757 115.237 0 208.656-93.463 208.656-208.757"/><path fill="#26282C" d="m306.058 341.9-411.92-173.603a223.48 223.48 0 0 0-15.629 82.222c0 123.642 100.07 223.875 223.514 223.875 90.934 0 169.127-54.423 204.035-132.494"/><path fill="#545659" d="M112.322 932.996c-20.003 0-36.22-8.35-36.22-18.65 0-10.3 16.217-18.65 36.22-18.65s36.22 8.35 36.22 18.65c0 10.3-16.217 18.65-36.22 18.65"/><path fill="#2F2F31" d="M208.896 878.325c25.114-41.95 26.847-118.552 26.847-118.552H-11.072s1.73 76.603 26.847 118.552c8.071 13.483 20.93 22.935 34.667 29.552 36.622 17.647 87.162 17.647 123.787 0 13.734-6.617 26.594-16.069 34.667-29.552"/><path fill="#CC1441" d="M235.756 759.79H-11.059s1.403-20.558 2.962-50.535a3165.754 3165.754 0 0 0 1.818-38.2c.313-6.922.624-14.001.832-21.235.52-12.647.883-25.607 1.195-38.461.156-7.079.313-14.158.416-21.08.156-13.374.156-26.385 0-38.512-.26-16.186-.884-30.81-2.027-42.677l-6.963-72.863H237.47l-6.91 72.863c-1.299 13.271-1.87 29.977-2.078 48.454-.105 9.94-.105 20.401.05 31.124.053 5.88.158 11.813.313 17.798.208 10.149.467 20.35.832 30.446 2.078 63.913 6.079 122.878 6.079 122.878"/><path fill="#E68AA0" d="M117.152 680.998c0 3.436-2.794 6.235-6.23 6.235-3.435 0-6.229-2.8-6.229-6.235 0-3.435 2.794-6.235 6.23-6.235 3.435 0 6.23 2.8 6.23 6.235m-25.43-10.328a21.694 21.694 0 0 0-2.604 10.328c0 1.176.119 2.32.3 3.445 8.378 1.556 14.794 8.72 15.227 17.446a21.621 21.621 0 0 0 12.553 0c.433-8.726 6.85-15.89 15.228-17.446.18-1.125.299-2.27.299-3.445 0-3.731-.944-7.251-2.604-10.328a88.495 88.495 0 0 0-38.399 0"/><path fill="#E68AA0" d="M110.923 705.938c-13.74 0-24.919-11.189-24.919-24.94 0-13.751 11.18-24.94 24.919-24.94s24.918 11.189 24.918 24.94c0 13.751-11.18 24.94-24.918 24.94m-37.378-24.94c0 20.629 16.767 37.41 37.378 37.41 20.61 0 37.377-16.781 37.377-37.41 0-20.628-16.767-37.41-37.377-37.41-20.61 0-37.378 16.782-37.378 37.41Z"/><path fill="#4C4C4E" d="m5.382 363.798.19-41.52-29.635 11.594v59.852l29.635 11.594z"/><path fill="#858789" d="M237.47 436.227H-12.826l2.961-23.733L.423 329.535c.416-3.487.52-6.975.313-10.41l-3.585-60.11c-.105-1.303-.105-2.603-.105-3.905 0-27.895 17.927-52.877 44.738-61.517 22.915-7.39 46.765-11.137 70.563-11.137 10.03 0 20.11.677 30.086 2.03 13.665 1.769 27.227 4.84 40.477 9.107 28.008 9.057 46.402 35.964 44.635 65.421l-3.638 60.112c-.207 3.434-.052 6.922.364 10.41l9.873 79.628 3.326 27.063Z"/><path fill="#FFF" d="M173.883 331.136a92.448 92.448 0 0 0 .181 9.863l7.288 101.2-3.821 69.097c-3.82 69.099 2.865 237.73 2.865 237.73s-.955 72.645-14.805 112.427c-4.452 12.786-11.545 21.75-19.12 28.025-10.1 8.367 2.267 8.367 17.561 0 11.472-6.276 22.214-15.239 28.956-28.025 20.978-39.782 22.424-112.426 22.424-112.426s-10.126-168.632-4.34-237.731c5.76-68.79 5.787-69.096 5.787-69.096l-11.037-101.201a61.073 61.073 0 0 1-.275-9.863l3.014-56.99c1.478-27.939-13.863-53.47-37.289-62.057-19.16-7.024-32.672-7.024-20.021 0 15.467 8.586 25.598 34.118 24.622 62.057l-1.99 56.99Z" opacity=".5"/><path fill="#26282C" d="M112.334 297.658c-20.624 0-37.341-16.746-37.341-37.402 0-20.657 16.717-37.403 37.341-37.403 20.624 0 37.341 16.746 37.341 37.403 0 20.656-16.717 37.402-37.34 37.402"/><path fill="#CBCBCC" d="M78.457 260.255c0-20.071 15.796-36.402 35.61-37.314-.579-.027-1.147-.088-1.733-.088-20.622 0-37.341 16.744-37.341 37.402 0 20.657 16.719 37.401 37.341 37.401.586 0 1.154-.06 1.733-.087-19.814-.913-35.61-17.244-35.61-37.314"/><path fill="#858688" d="m93.152 249.162 19.183-11.092 19.181 11.092v22.186l-19.181 11.092-19.183-11.092z"/><path fill="#A9AAAB" d="M112.334 271.635c-6.275 0-11.361-5.094-11.361-11.38 0-6.285 5.086-11.38 11.36-11.38 6.275 0 11.362 5.095 11.362 11.38 0 6.286-5.087 11.38-11.361 11.38"/><path fill="#BFBFC0" d="M120.773 260.255c0 5.784-4.323 10.507-9.9 11.232.484.063.96.148 1.461.148 6.275 0 11.363-5.096 11.363-11.38 0-6.286-5.088-11.38-11.363-11.38-.5 0-.977.085-1.461.147 5.577.726 9.9 5.449 9.9 11.233"/><path fill="#FFF" d="M237.47 436.227H-12.827l2.961-23.733c63.913 6.714 159.053 11.815 244.01-3.33l3.324 27.063Z" opacity=".497"/><path fill="#A61035" d="M30.25 759.79h-41.308s1.403-20.558 2.961-50.535a3165.795 3165.795 0 0 0 1.82-38.2c.31-6.923.623-14.001.83-21.235.52-12.647.883-25.607 1.196-38.461.156-7.079.311-14.158.414-21.08.157-13.374.157-26.386 0-38.512-.258-16.186-.882-30.81-2.025-42.677l-6.963-72.863h93.27s-37.204 75.465-36.372 169.147c.882 93.68-13.823 154.416-13.823 154.416"/><path fill="#5E5E5B" d="M-9.864 412.494.424 329.535c.416-3.486.52-6.975.313-10.41l-3.586-60.111c-.104-1.302-.104-2.602-.104-3.904 0-27.895 17.927-52.877 44.738-61.517 22.915-7.39 46.765-11.138 70.563-11.138 10.03 0 20.11.677 30.086 2.03-28.526 5.464-95.505 23.941-111.768 79.37-20.784 70.885 19.64 92.38-40.53 148.64"/><path fill="#545659" d="M152.499 518.963c-4.341 0-7.861-3.525-7.861-7.874 0-4.347 3.52-7.872 7.86-7.872 4.341 0 7.861 3.525 7.861 7.872 0 4.35-3.52 7.874-7.86 7.874M129.654 518.963c-4.342 0-7.861-3.525-7.861-7.874 0-4.348 3.519-7.872 7.86-7.872s7.861 3.524 7.861 7.872c0 4.35-3.52 7.874-7.86 7.874M106.808 518.963c-4.341 0-7.861-3.524-7.861-7.873 0-4.348 3.52-7.872 7.86-7.872 4.341 0 7.861 3.524 7.861 7.872 0 4.349-3.52 7.873-7.86 7.873M152.499 543.25c-4.34 0-7.861-3.524-7.861-7.873 0-4.347 3.52-7.872 7.86-7.872 4.341 0 7.862 3.525 7.862 7.872 0 4.35-3.52 7.874-7.861 7.874M129.654 543.25c-4.342 0-7.861-3.524-7.861-7.873 0-4.348 3.519-7.872 7.86-7.872s7.862 3.524 7.862 7.872c0 4.35-3.52 7.874-7.861 7.874M106.808 543.251c-4.34 0-7.861-3.524-7.861-7.873 0-4.348 3.52-7.872 7.86-7.872 4.341 0 7.862 3.524 7.862 7.872 0 4.349-3.52 7.873-7.861 7.873M83.963 543.251c-4.34 0-7.861-3.524-7.861-7.873 0-4.348 3.52-7.873 7.86-7.873 4.341 0 7.862 3.525 7.862 7.873 0 4.349-3.52 7.873-7.861 7.873M129.654 567.539c-4.342 0-7.86-3.525-7.86-7.874 0-4.348 3.518-7.872 7.86-7.872 4.34 0 7.861 3.524 7.861 7.872 0 4.35-3.52 7.874-7.86 7.874M106.808 567.54c-4.34 0-7.86-3.525-7.86-7.874 0-4.348 3.52-7.872 7.86-7.872s7.861 3.524 7.861 7.872c0 4.349-3.52 7.873-7.86 7.873M83.963 567.54c-4.34 0-7.86-3.525-7.86-7.874 0-4.348 3.52-7.873 7.86-7.873s7.861 3.525 7.861 7.873c0 4.349-3.52 7.873-7.86 7.873M-5.396 649.822h-.052c.52-12.648.884-25.607 1.195-38.462 10.082.573 18.083 8.952 18.083 19.205 0 5.309-2.13 10.097-5.663 13.635a19.193 19.193 0 0 1-13.563 5.622M-1.862 590.28h-1.975c.156-13.376.156-26.386 0-38.514h1.975c10.65 0 19.225 8.64 19.225 19.258 0 5.308-2.13 10.149-5.611 13.635-3.482 3.488-8.263 5.621-13.614 5.621M-8.098 709.254a3165.754 3165.754 0 0 0 1.82-38.2c9.352 1.249 16.523 9.264 16.523 19.047a19.13 19.13 0 0 1-5.612 13.584c-3.274 3.28-7.742 5.413-12.73 5.57M229.676 636.913a16.368 16.368 0 0 1-7.847-4.268 15.717 15.717 0 0 1-4.572-11.085c0-7.235 4.937-13.323 11.587-15.093.208 10.148.469 20.349.832 30.446M228.532 588.667c-3.74-.313-7.067-1.927-9.56-4.477-2.859-2.809-4.573-6.713-4.573-11.085 0-8.118 6.131-14.833 14.081-15.561-.103 9.94-.103 20.402.052 31.123"/><path fill="#CC1441" d="M108.789 759.774h-56.69c0 15.68 12.691 28.39 28.345 28.39 15.654 0 28.345-12.71 28.345-28.39"/><path fill="#A61035" d="M76.332 787.833c1.346.197 2.713.333 4.113.333 15.655 0 28.345-12.712 28.345-28.392h-8.228c0 14.276-10.53 26.059-24.23 28.059"/></g></svg>