<svg xmlns="http://www.w3.org/2000/svg" viewBox="0 0 335 175"><g fill="none" fill-rule="evenodd"><rect width="189" height="60" x="73" fill="#7E4045" rx="30"/><path fill="#33302E" fill-rule="nonzero" d="M10.529 101a13.4 13.4 0 0 0 .116-1.165c.02-.385.031-.774.031-1.166V88.421c0-.364-.01-.746-.031-1.145a9.619 9.619 0 0 0-.137-1.186h5.481c1.988 0 3.423.392 4.305 1.176.882.784 1.323 1.883 1.323 3.297 0 .826-.172 1.547-.515 2.163-.343.616-.962 1.127-1.858 1.533.658.28 1.141.668 1.449 1.165.308.497.588 1.194.84 2.09l.357 1.386c.182.77.434 1.47.756 2.1h-4.158l-.651-2.562c-.154-.658-.343-1.148-.567-1.47a1.64 1.64 0 0 0-.861-.651c-.35-.112-.798-.168-1.344-.168h-.441v2.52c0 .392.01.78.031 1.166a9.6 9.6 0 0 0 .137 1.165h-4.263Zm5.019-11.676h-.924v3.906h.966c.868 0 1.47-.178 1.806-.535.336-.357.504-.837.504-1.439 0-.616-.178-1.092-.535-1.428-.357-.336-.963-.504-1.817-.504ZM24.305 101c.084-.784.126-1.561.126-2.331V88.421c0-.756-.042-1.533-.126-2.331h9.555l.168 3.402a11.76 11.76 0 0 0-1.323-.136 28.257 28.257 0 0 0-1.323-.032H28.4v2.583h2.352c.392 0 .77-.01 1.134-.031.364-.022.742-.06 1.134-.116v3.108a11.02 11.02 0 0 0-1.134-.105 29.532 29.532 0 0 0-1.134-.021H28.4v3.024h2.982a25.25 25.25 0 0 0 2.856-.168L34.07 101h-9.765Zm15.75.252a21.22 21.22 0 0 1-1.858-.073 16.019 16.019 0 0 1-1.838-.284l-.21-3.591c.756.21 1.4.35 1.932.42s1.085.105 1.659.105c.91 0 1.515-.101 1.816-.304.302-.204.452-.473.452-.809 0-.252-.105-.497-.315-.735-.21-.238-.602-.511-1.176-.819l-1.407-.714c-1.106-.574-1.918-1.221-2.436-1.942-.518-.722-.777-1.565-.777-2.531 0-1.288.486-2.3 1.46-3.034.973-.736 2.411-1.103 4.315-1.103.658 0 1.225.032 1.701.095s1.057.178 1.743.346l.231 3.633a11.15 11.15 0 0 0-1.89-.494 11.527 11.527 0 0 0-1.806-.136c-.728 0-1.218.091-1.47.273-.252.182-.378.413-.378.693 0 .252.095.49.284.714.188.224.542.476 1.06.756l1.407.756c1.176.616 2.033 1.284 2.572 2.005.54.722.809 1.579.809 2.573 0 1.33-.459 2.362-1.376 3.097-.916.736-2.418 1.103-4.504 1.103Zm7.749-.252c.084-.784.126-1.561.126-2.331V88.421c0-.756-.042-1.533-.126-2.331h5.46c1.918 0 3.36.493 4.326 1.48.966.988 1.449 2.293 1.449 3.917 0 1.694-.518 3.056-1.554 4.085-1.036 1.028-2.597 1.543-4.683 1.543h-.966v1.554c0 .392.007.78.021 1.166.014.385.049.773.105 1.165h-4.158Zm4.872-11.697h-.84v4.851h.798c1.82 0 2.73-.833 2.73-2.499 0-1.568-.896-2.352-2.688-2.352Zm14.931 11.949c-1.47 0-2.751-.322-3.843-.966-1.092-.644-1.943-1.554-2.552-2.73s-.913-2.548-.913-4.116c0-1.68.336-3.084 1.008-4.21a6.438 6.438 0 0 1 2.74-2.541c1.156-.567 2.468-.851 3.938-.851 1.47 0 2.755.326 3.853.977 1.1.65 1.95 1.56 2.552 2.73.602 1.168.903 2.537.903 4.105 0 1.68-.336 3.084-1.008 4.21a6.438 6.438 0 0 1-2.74 2.541c-1.156.568-2.468.851-3.938.851Zm.231-3.486c.994 0 1.803-.34 2.425-1.019.623-.678.935-1.641.935-2.887 0-1.498-.311-2.629-.934-3.391-.623-.763-1.453-1.145-2.489-1.145-.994 0-1.81.34-2.447 1.019-.636.678-.955 1.641-.955 2.887 0 1.498.319 2.629.956 3.391.637.764 1.473 1.145 2.509 1.145ZM77.246 101c.056-.392.091-.78.105-1.165.014-.385.021-.774.021-1.166V88.82c0-.518-.052-.98-.157-1.386-.106-.406-.305-.854-.599-1.344h4.641l5.271 8.085v-5.754c0-.392-.007-.78-.021-1.166a11.086 11.086 0 0 0-.105-1.165h4.011a13.4 13.4 0 0 0-.115 1.165c-.022.386-.032.774-.032 1.166V101h-3.36l-5.796-8.673v6.342c0 .392.007.78.021 1.166.014.385.049.773.105 1.165h-3.99Zm19.362.252a21.22 21.22 0 0 1-1.859-.073 16.019 16.019 0 0 1-1.837-.284l-.21-3.591c.756.21 1.4.35 1.932.42s1.085.105 1.659.105c.91 0 1.515-.101 1.816-.304.302-.204.452-.473.452-.809 0-.252-.105-.497-.315-.735-.21-.238-.602-.511-1.176-.819l-1.407-.714c-1.106-.574-1.918-1.221-2.436-1.942-.518-.722-.777-1.565-.777-2.531 0-1.288.486-2.3 1.46-3.034.972-.736 2.411-1.103 4.315-1.103.658 0 1.225.032 1.701.095s1.057.178 1.743.346l.231 3.633a11.15 11.15 0 0 0-1.89-.494 11.527 11.527 0 0 0-1.806-.136c-.728 0-1.218.091-1.47.273-.252.182-.378.413-.378.693 0 .252.095.49.284.714.189.224.542.476 1.06.756l1.407.756c1.176.616 2.034 1.284 2.573 2.005.538.722.808 1.579.808 2.573 0 1.33-.459 2.362-1.376 3.097-.916.736-2.418 1.103-4.504 1.103Zm7.749-.252c.084-.784.126-1.561.126-2.331V88.421c0-.756-.042-1.533-.126-2.331h4.263a22.268 22.268 0 0 0-.126 2.331v10.248c0 .77.042 1.547.126 2.331h-4.263Zm6.678 0c.042-.392.07-.78.084-1.165.014-.385.021-.774.021-1.166V88.421c0-.364-.007-.746-.021-1.145a11.148 11.148 0 0 0-.105-1.186h5.355c1.344 0 2.408.168 3.192.504.784.336 1.347.791 1.69 1.365.343.574.515 1.225.515 1.953 0 .616-.13 1.176-.389 1.68-.258.504-.703.924-1.333 1.26.91.322 1.575.808 1.995 1.46.42.65.63 1.41.63 2.278 0 .854-.196 1.614-.588 2.278-.392.666-1.001 1.187-1.827 1.565-.826.378-1.897.567-3.213.567h-6.006Zm5.103-11.886h-1.092l-.021 3.108h1.281c.686 0 1.183-.14 1.491-.42.308-.28.462-.665.462-1.155 0-.546-.161-.938-.483-1.176-.322-.238-.868-.357-1.638-.357Zm.399 5.565h-1.533l-.021 3.297h1.722c.658 0 1.169-.147 1.533-.441.364-.294.546-.714.546-1.26 0-1.064-.749-1.596-2.247-1.596ZM124.37 101c.056-.392.091-.78.105-1.165.014-.385.021-.774.021-1.166V88.421c0-.364-.007-.746-.021-1.145a11.148 11.148 0 0 0-.105-1.186h4.263c-.056.392-.091.787-.105 1.186-.014.4-.021.781-.021 1.145v9.345h2.751c.462 0 .92-.007 1.375-.021.456-.014.907-.042 1.355-.084V101h-9.618Zm11.361 0c.084-.784.126-1.561.126-2.331V88.421c0-.756-.042-1.533-.126-2.331h9.555l.168 3.402a11.76 11.76 0 0 0-1.323-.136 28.257 28.257 0 0 0-1.323-.032h-2.982v2.583h2.352c.392 0 .77-.01 1.134-.031.364-.022.742-.06 1.134-.116v3.108a11.02 11.02 0 0 0-1.134-.105 29.532 29.532 0 0 0-1.134-.021h-2.352v3.024h2.982a25.25 25.25 0 0 0 2.856-.168l-.168 3.402h-9.765Zm16.338 0c.042-.392.07-.78.084-1.165.014-.385.021-.774.021-1.166V88.421c0-.364-.007-.746-.021-1.145a16.597 16.597 0 0 0-.084-1.186h9.597v3.444a13.53 13.53 0 0 0-1.281-.105c-.42-.014-.847-.021-1.281-.021h-2.919v3.36h2.226c.392 0 .78-.007 1.166-.021.385-.014.773-.049 1.165-.105v3.192a21.479 21.479 0 0 0-2.331-.126h-2.226v2.961c0 .392.007.78.021 1.166.014.385.049.773.105 1.165h-4.242Zm18.186.252c-1.47 0-2.751-.322-3.843-.966-1.092-.644-1.942-1.554-2.552-2.73-.609-1.176-.913-2.548-.913-4.116 0-1.68.336-3.084 1.008-4.21a6.438 6.438 0 0 1 2.74-2.541c1.156-.567 2.468-.851 3.938-.851 1.47 0 2.754.326 3.853.977 1.1.65 1.95 1.56 2.552 2.73.602 1.168.903 2.537.903 4.105 0 1.68-.336 3.084-1.008 4.21a6.438 6.438 0 0 1-2.74 2.541c-1.156.568-2.468.851-3.938.851Zm.231-3.486c.994 0 1.803-.34 2.425-1.019.624-.678.935-1.641.935-2.887 0-1.498-.311-2.629-.935-3.391-.623-.763-1.452-1.145-2.488-1.145-.994 0-1.81.34-2.447 1.019-.637.678-.955 1.641-.955 2.887 0 1.498.319 2.629.956 3.391.636.764 1.473 1.145 2.509 1.145Zm9.408 3.234a13.4 13.4 0 0 0 .115-1.165c.022-.385.032-.774.032-1.166V88.421c0-.364-.01-.746-.031-1.145a9.619 9.619 0 0 0-.137-1.186h5.481c1.988 0 3.423.392 4.305 1.176.882.784 1.323 1.883 1.323 3.297 0 .826-.172 1.547-.514 2.163-.343.616-.963 1.127-1.859 1.533.658.28 1.141.668 1.449 1.165.308.497.588 1.194.84 2.09l.357 1.386c.182.77.434 1.47.756 2.1h-4.158l-.651-2.562c-.154-.658-.343-1.148-.567-1.47a1.64 1.64 0 0 0-.861-.651c-.35-.112-.798-.168-1.344-.168h-.441v2.52c0 .392.01.78.031 1.166a9.6 9.6 0 0 0 .137 1.165h-4.263Zm5.019-11.676h-.924v3.906h.966c.868 0 1.47-.178 1.806-.535.336-.357.504-.837.504-1.439 0-.616-.178-1.092-.535-1.428-.357-.336-.963-.504-1.817-.504Zm16.989 11.928a21.22 21.22 0 0 1-1.858-.073 16.019 16.019 0 0 1-1.838-.284l-.21-3.591c.756.21 1.4.35 1.932.42s1.085.105 1.659.105c.91 0 1.516-.101 1.817-.304.3-.204.451-.473.451-.809 0-.252-.105-.497-.315-.735-.21-.238-.602-.511-1.176-.819l-1.407-.714c-1.106-.574-1.918-1.221-2.436-1.942-.518-.722-.777-1.565-.777-2.531 0-1.288.487-2.3 1.46-3.034.972-.736 2.411-1.103 4.315-1.103.658 0 1.225.032 1.701.095s1.057.178 1.743.346l.231 3.633a11.15 11.15 0 0 0-1.89-.494 11.527 11.527 0 0 0-1.806-.136c-.728 0-1.218.091-1.47.273-.252.182-.378.413-.378.693 0 .252.094.49.284.714.189.224.542.476 1.06.756l1.407.756c1.176.616 2.034 1.284 2.572 2.005.54.722.809 1.579.809 2.573 0 1.33-.459 2.362-1.376 3.097-.917.736-2.418 1.103-4.504 1.103Zm15.498 0c-1.554 0-2.95-.283-4.19-.85a6.662 6.662 0 0 1-2.94-2.584c-.72-1.154-1.081-2.607-1.081-4.357 0-1.288.21-2.408.63-3.36a6.448 6.448 0 0 1 1.754-2.373 7.592 7.592 0 0 1 2.593-1.417c.98-.316 2.023-.473 3.129-.473.476 0 .928.025 1.355.074.427.048.822.115 1.186.199l.231 3.822a5.355 5.355 0 0 0-1.186-.357 7.35 7.35 0 0 0-1.271-.105c-1.274 0-2.296.332-3.066.998-.77.665-1.155 1.662-1.155 2.992 0 1.358.392 2.39 1.176 3.097.784.707 1.876 1.061 3.276 1.061.448 0 .857-.025 1.228-.073.371-.05.739-.13 1.103-.242l-.105 3.675a11.21 11.21 0 0 1-1.334.21c-.44.042-.885.063-1.333.063Zm19.173-.252h-4.683a9.996 9.996 0 0 0-.157-1.207c-.078-.4-.172-.781-.284-1.145l-.105-.336h-4.872l-.105.336c-.112.392-.206.784-.284 1.176-.077.392-.129.784-.157 1.176h-4.473l4.326-12.579c.14-.406.252-.805.336-1.197.084-.392.154-.77.21-1.134h5.313c.07.364.157.742.262 1.134.106.392.214.791.326 1.197L236.573 101Zm-9.261-5.544h3.192l-1.596-5.334-1.596 5.334ZM241.109 101c.056-.392.091-.78.105-1.165.014-.385.021-.774.021-1.166v-9.261h-1.239c-.434 0-.861.007-1.281.021-.42.014-.847.049-1.281.105V86.09h11.613v3.444a13.53 13.53 0 0 0-1.281-.105c-.42-.014-.847-.021-1.281-.021h-1.239v9.261c0 .392.007.78.021 1.166.014.385.049.773.105 1.165h-4.263Zm12.474 0c.056-.392.091-.78.105-1.165.014-.385.021-.774.021-1.166v-9.261h-1.239c-.434 0-.861.007-1.281.021-.42.014-.847.049-1.281.105V86.09h11.613v3.444a13.53 13.53 0 0 0-1.281-.105c-.42-.014-.847-.021-1.281-.021h-1.239v9.261c0 .392.007.78.021 1.166.014.385.049.773.105 1.165h-4.263Zm9.576 0c.084-.784.126-1.561.126-2.331V88.421c0-.756-.042-1.533-.126-2.331h9.555l.168 3.402a11.76 11.76 0 0 0-1.323-.136 28.257 28.257 0 0 0-1.323-.032h-2.982v2.583h2.352c.392 0 .77-.01 1.134-.031.364-.022.742-.06 1.134-.116v3.108a11.02 11.02 0 0 0-1.134-.105 29.532 29.532 0 0 0-1.134-.021h-2.352v3.024h2.982a25.25 25.25 0 0 0 2.856-.168l-.168 3.402h-9.765Zm11.949 0a13.4 13.4 0 0 0 .115-1.165c.022-.385.032-.774.032-1.166V88.421c0-.364-.01-.746-.031-1.145a9.619 9.619 0 0 0-.137-1.186h5.481c1.988 0 3.423.392 4.305 1.176.882.784 1.323 1.883 1.323 3.297 0 .826-.172 1.547-.514 2.163-.344.616-.963 1.127-1.859 1.533.658.28 1.141.668 1.449 1.165.308.497.588 1.194.84 2.09l.357 1.386c.182.77.434 1.47.756 2.1h-4.158l-.651-2.562c-.154-.658-.343-1.148-.567-1.47a1.64 1.64 0 0 0-.861-.651c-.35-.112-.798-.168-1.344-.168h-.441v2.52c0 .392.01.78.032 1.166a9.6 9.6 0 0 0 .136 1.165h-4.263Zm5.019-11.676h-.924v3.906h.966c.868 0 1.47-.178 1.806-.535.336-.357.504-.837.504-1.439 0-.616-.178-1.092-.536-1.428-.356-.336-.962-.504-1.816-.504ZM288.884 101c.084-.784.126-1.561.126-2.331V88.421c0-.756-.042-1.533-.126-2.331h4.263a22.268 22.268 0 0 0-.126 2.331v10.248c0 .77.042 1.547.126 2.331h-4.263Zm6.678 0c.056-.392.091-.78.105-1.165.014-.385.021-.774.021-1.166V88.82c0-.518-.053-.98-.157-1.386-.106-.406-.305-.854-.599-1.344h4.641l5.271 8.085v-5.754c0-.392-.007-.78-.021-1.166a11.086 11.086 0 0 0-.105-1.165h4.011a13.4 13.4 0 0 0-.115 1.165c-.022.386-.032.774-.032 1.166V101h-3.36l-5.796-8.673v6.342c0 .392.007.78.021 1.166.014.385.049.773.105 1.165h-3.99Zm23.688.252c-2.786 0-4.918-.658-6.394-1.974-1.478-1.316-2.216-3.255-2.216-5.817 0-1.722.36-3.147 1.082-4.273.72-1.127 1.725-1.968 3.013-2.52 1.288-.553 2.793-.83 4.515-.83.742 0 1.438.042 2.09.126.65.084 1.228.21 1.732.378l.189 3.759a11.21 11.21 0 0 0-3.759-.63c-1.498.014-2.653.35-3.465 1.008-.812.658-1.218 1.659-1.218 3.003 0 1.372.368 2.404 1.102 3.097.736.694 1.754 1.04 3.056 1.04.28 0 .539-.028.777-.084v-2.016c0-.364-.014-.721-.042-1.071l-.084-1.05 3.696-.021v7.434c-.63.14-1.274.248-1.932.325-.658.078-1.372.116-2.142.116ZM10.161 125a13.4 13.4 0 0 0 .116-1.165c.021-.385.032-.774.032-1.166v-10.248c0-.364-.011-.746-.032-1.145a9.619 9.619 0 0 0-.136-1.186h5.48c1.989 0 3.423.392 4.306 1.176.881.784 1.323 1.883 1.323 3.297 0 .826-.172 1.547-.515 2.163-.343.616-.962 1.127-1.858 1.533.658.28 1.14.668 1.449 1.165.308.497.587 1.194.84 2.09l.357 1.386c.181.77.433 1.47.756 2.1H18.12l-.65-2.562c-.154-.658-.343-1.148-.567-1.47a1.64 1.64 0 0 0-.861-.651c-.35-.112-.799-.168-1.345-.168h-.44v2.52c0 .392.01.78.031 1.166a9.6 9.6 0 0 0 .136 1.165h-4.262Zm5.02-11.676h-.924v3.906h.966c.867 0 1.47-.178 1.806-.535.335-.357.503-.837.503-1.439 0-.616-.178-1.092-.535-1.428-.357-.336-.962-.504-1.816-.504Zm15.182 11.928c-1.526 0-2.761-.266-3.706-.798a4.75 4.75 0 0 1-2.069-2.268c-.434-.98-.65-2.149-.65-3.507v-6.258c0-.364-.008-.746-.021-1.145a11.148 11.148 0 0 0-.106-1.186h4.285c-.056.392-.095.787-.116 1.186-.021.4-.032.781-.032 1.145v6.174c0 1.05.197 1.838.588 2.362.392.526 1.015.788 1.87.788 1.708 0 2.562-1.05 2.562-3.15v-6.174c0-.756-.043-1.533-.127-2.331h4.096c-.056.392-.091.787-.105 1.186-.014.4-.022.781-.022 1.145v6.258c0 1.358-.22 2.527-.661 3.507a4.806 4.806 0 0 1-2.079 2.268c-.945.532-2.18.798-3.707.798Zm8.862-.252c.042-.392.07-.78.084-1.165.015-.385.022-.774.022-1.166v-10.248c0-.364-.008-.746-.022-1.145a11.148 11.148 0 0 0-.104-1.186h5.355c1.343 0 2.407.168 3.191.504.785.336 1.348.791 1.691 1.365.343.574.514 1.225.514 1.953 0 .616-.129 1.176-.388 1.68s-.703.924-1.334 1.26c.91.322 1.575.808 1.995 1.46.42.65.63 1.41.63 2.278 0 .854-.196 1.614-.587 2.278-.392.666-1.002 1.187-1.828 1.565-.826.378-1.897.567-3.213.567h-6.006Zm5.103-11.886h-1.092l-.02 3.108h1.28c.686 0 1.183-.14 1.491-.42.308-.28.462-.665.462-1.155 0-.546-.16-.938-.482-1.176-.322-.238-.868-.357-1.639-.357Zm.4 5.565h-1.534l-.02 3.297h1.721c.658 0 1.17-.147 1.533-.441.364-.294.547-.714.547-1.26 0-1.064-.75-1.596-2.248-1.596ZM52.58 125c.042-.392.07-.78.084-1.165.014-.385.022-.774.022-1.166v-10.248c0-.364-.008-.746-.021-1.145a11.148 11.148 0 0 0-.105-1.186h5.355c1.344 0 2.408.168 3.192.504.784.336 1.347.791 1.69 1.365.343.574.514 1.225.514 1.953 0 .616-.129 1.176-.388 1.68s-.703.924-1.334 1.26c.91.322 1.575.808 1.995 1.46.42.65.63 1.41.63 2.278 0 .854-.196 1.614-.588 2.278-.392.666-1 1.187-1.827 1.565-.825.378-1.896.567-3.212.567H52.58Zm5.103-11.886h-1.091l-.022 3.108h1.282c.685 0 1.182-.14 1.49-.42.308-.28.462-.665.462-1.155 0-.546-.16-.938-.483-1.176-.322-.238-.867-.357-1.638-.357Zm.4 5.565H56.55l-.02 3.297h1.721c.659 0 1.17-.147 1.534-.441.364-.294.546-.714.546-1.26 0-1.064-.75-1.596-2.248-1.596ZM65.915 125c.085-.784.127-1.561.127-2.331v-10.248c0-.756-.043-1.533-.127-2.331h4.264a22.268 22.268 0 0 0-.127 2.331v10.248c0 .77.043 1.547.127 2.331h-4.264Zm10.48.252a21.22 21.22 0 0 1-1.859-.073 16.019 16.019 0 0 1-1.838-.284l-.21-3.591c.757.21 1.4.35 1.932.42s1.085.105 1.66.105c.91 0 1.515-.101 1.816-.304.301-.204.451-.473.451-.809 0-.252-.105-.497-.314-.735-.21-.238-.603-.511-1.177-.819l-1.406-.714c-1.106-.574-1.918-1.221-2.436-1.942-.519-.722-.778-1.565-.778-2.531 0-1.288.487-2.3 1.46-3.034.973-.736 2.412-1.103 4.316-1.103.657 0 1.224.032 1.7.095.477.063 1.058.178 1.744.346l.23 3.633a11.15 11.15 0 0 0-1.89-.494 11.527 11.527 0 0 0-1.805-.136c-.729 0-1.219.091-1.47.273-.253.182-.379.413-.379.693 0 .252.095.49.284.714.189.224.542.476 1.06.756l1.407.756c1.176.616 2.034 1.284 2.573 2.005.539.722.808 1.579.808 2.573 0 1.33-.458 2.362-1.375 3.097-.917.736-2.419 1.103-4.505 1.103Zm7.748-.252c.084-.784.126-1.561.126-2.331v-10.248c0-.756-.041-1.533-.126-2.331h4.263c-.055.392-.09.787-.105 1.186-.014.4-.02.781-.02 1.145v3.255h4.892v-3.255c0-.756-.042-1.533-.126-2.331h4.263c-.056.392-.094.787-.115 1.186-.021.4-.031.781-.031 1.145v10.248c0 .392.01.78.031 1.166.021.385.06.773.115 1.165h-4.263c.084-.784.126-1.561.126-2.331v-3.591h-4.893v3.591c0 .392.007.78.021 1.166.014.385.05.773.105 1.165h-4.263Zm19.971 0c.085-.784.127-1.561.127-2.331v-10.248c0-.756-.043-1.533-.127-2.331h4.264a22.268 22.268 0 0 0-.127 2.331v10.248c0 .77.043 1.547.127 2.331h-4.264Zm6.678 0c.056-.392.091-.78.105-1.165.014-.385.022-.774.022-1.166v-9.849c0-.518-.053-.98-.158-1.386-.105-.406-.305-.854-.599-1.344h4.642l5.27 8.085v-5.754c0-.392-.007-.78-.02-1.166a11.086 11.086 0 0 0-.106-1.165h4.011a13.4 13.4 0 0 0-.115 1.165c-.021.386-.031.774-.031 1.166V125h-3.36l-5.796-8.673v6.342c0 .392.007.78.02 1.166.014.385.05.773.106 1.165h-3.99Zm22.849 0c.055-.392.09-.78.105-1.165.013-.385.02-.774.02-1.166v-9.261h-1.238c-.434 0-.862.007-1.281.021-.42.014-.847.049-1.281.105v-3.444h11.612v3.444a13.53 13.53 0 0 0-1.28-.105c-.42-.014-.847-.021-1.281-.021h-1.24v9.261c0 .392.008.78.022 1.166.013.385.048.773.105 1.165h-4.263Zm9.576 0c.084-.784.126-1.561.126-2.331v-10.248c0-.756-.042-1.533-.126-2.331h4.263c-.056.392-.091.787-.106 1.186-.013.4-.02.781-.02 1.145v3.255h4.893v-3.255c0-.756-.042-1.533-.126-2.331h4.262c-.055.392-.094.787-.115 1.186-.021.4-.031.781-.031 1.145v10.248c0 .392.01.78.031 1.166.021.385.06.773.115 1.165h-4.262c.083-.784.125-1.561.125-2.331v-3.591h-4.893v3.591c0 .392.007.78.021 1.166.014.385.05.773.106 1.165h-4.263Zm15.56 0c.085-.784.127-1.561.127-2.331v-10.248c0-.756-.042-1.533-.126-2.331h9.554l.168 3.402a11.76 11.76 0 0 0-1.322-.136 28.257 28.257 0 0 0-1.323-.032h-2.982v2.583h2.352c.392 0 .77-.01 1.133-.031.364-.022.742-.06 1.135-.116v3.108a11.02 11.02 0 0 0-1.135-.105 29.532 29.532 0 0 0-1.133-.021h-2.352v3.024h2.982a25.25 25.25 0 0 0 2.856-.168l-.168 3.402h-9.766Zm19.405 0a6.8 6.8 0 0 0-.095-.913c-.049-.273-.13-.606-.242-.998l-3.297-12.999h4.536c.028.476.07.906.126 1.291.056.385.133.753.231 1.103l1.701 8.169 2.29-8.568-.525-1.995h3.969l2.456 10.458 1.722-8.064c.07-.364.137-.735.2-1.113s.102-.805.115-1.281h3.97l-3.298 12.999c-.097.392-.171.721-.22.987a9.214 9.214 0 0 0-.115.924h-4.957a5.804 5.804 0 0 0-.147-.924c-.07-.28-.154-.609-.252-.987l-1.47-5.565-1.448 5.565c-.099.392-.179.725-.242.998a6.468 6.468 0 0 0-.137.913h-4.871Zm25.83.252c-1.47 0-2.751-.322-3.844-.966-1.092-.644-1.942-1.554-2.551-2.73-.609-1.176-.913-2.548-.913-4.116 0-1.68.335-3.084 1.007-4.21a6.438 6.438 0 0 1 2.741-2.541c1.155-.567 2.468-.851 3.938-.851 1.47 0 2.754.326 3.853.977 1.099.65 1.95 1.56 2.552 2.73.602 1.168.903 2.537.903 4.105 0 1.68-.337 3.084-1.009 4.21a6.438 6.438 0 0 1-2.74 2.541c-1.155.568-2.468.851-3.938.851Zm.23-3.486c.995 0 1.803-.34 2.426-1.019.623-.678.934-1.641.934-2.887 0-1.498-.311-2.629-.934-3.391-.623-.763-1.453-1.145-2.489-1.145-.994 0-1.809.34-2.446 1.019-.637.678-.956 1.641-.956 2.887 0 1.498.319 2.629.956 3.391.637.764 1.474 1.145 2.51 1.145Zm16.233 3.486c-1.47 0-2.75-.322-3.843-.966-1.091-.644-1.942-1.554-2.551-2.73-.609-1.176-.913-2.548-.913-4.116 0-1.68.335-3.084 1.007-4.21a6.438 6.438 0 0 1 2.741-2.541c1.155-.567 2.468-.851 3.938-.851 1.47 0 2.754.326 3.853.977 1.099.65 1.95 1.56 2.552 2.73.602 1.168.903 2.537.903 4.105 0 1.68-.337 3.084-1.008 4.21a6.438 6.438 0 0 1-2.741 2.541c-1.155.568-2.468.851-3.938.851Zm.232-3.486c.994 0 1.802-.34 2.425-1.019.623-.678.934-1.641.934-2.887 0-1.498-.311-2.629-.934-3.391-.623-.763-1.453-1.145-2.489-1.145-.994 0-1.809.34-2.446 1.019-.637.678-.956 1.641-.956 2.887 0 1.498.319 2.629.956 3.391.637.764 1.474 1.145 2.51 1.145Zm9.387 3.234c.055-.392.09-.78.105-1.165.014-.385.02-.774.02-1.166v-10.248c0-.756-.041-1.533-.125-2.331h4.913c2.73 0 4.813.616 6.248 1.848 1.435 1.232 2.153 3.08 2.153 5.544 0 2.45-.69 4.316-2.069 5.597-1.379 1.28-3.405 1.921-6.08 1.921h-5.165Zm5.124-11.697h-.987v8.484h.987c1.371 0 2.407-.333 3.108-.998.7-.665 1.05-1.767 1.05-3.307 0-1.484-.35-2.552-1.05-3.203-.7-.65-1.737-.976-3.108-.976Zm13.944 11.949a21.22 21.22 0 0 1-1.859-.073 16.019 16.019 0 0 1-1.838-.284l-.21-3.591c.756.21 1.4.35 1.933.42.531.07 1.085.105 1.659.105.91 0 1.515-.101 1.816-.304.301-.204.452-.473.452-.809 0-.252-.106-.497-.316-.735-.21-.238-.602-.511-1.175-.819l-1.407-.714c-1.106-.574-1.918-1.221-2.436-1.942-.519-.722-.778-1.565-.778-2.531 0-1.288.487-2.3 1.46-3.034.973-.736 2.411-1.103 4.316-1.103.657 0 1.225.032 1.7.095.477.063 1.058.178 1.744.346l.23 3.633a11.15 11.15 0 0 0-1.89-.494 11.527 11.527 0 0 0-1.805-.136c-.728 0-1.218.091-1.47.273-.252.182-.378.413-.378.693 0 .252.094.49.283.714.189.224.543.476 1.06.756l1.407.756c1.177.616 2.034 1.284 2.573 2.005.539.722.808 1.579.808 2.573 0 1.33-.458 2.362-1.375 3.097-.917.736-2.418 1.103-4.505 1.103Zm9.281.021c-.615 0-1.12-.192-1.512-.578-.392-.384-.588-.878-.588-1.48 0-.574.197-1.057.589-1.449.392-.392.896-.588 1.512-.588.615 0 1.116.196 1.501.588.385.392.577.875.577 1.449 0 .602-.192 1.096-.577 1.48-.385.386-.886.578-1.502.578Zm8.212-.273c.07-.392.118-.78.147-1.165.027-.385.048-.774.063-1.166l.377-9.849a8.797 8.797 0 0 0-.293-2.73h4.767l3.444 8.001 3.464-8.001h4.515a7.358 7.358 0 0 0-.241 1.334 10.22 10.22 0 0 0-.01 1.396l.356 9.849a21.248 21.248 0 0 0 .21 2.331h-4.137c.07-.392.106-.78.106-1.165s-.007-.774-.022-1.166l-.293-6.51-4.159 8.988h-.041l-4.137-8.946-.294 6.468c-.014.392-.018.77-.011 1.134.007.364.031.763.074 1.197h-3.885Zm25.935.252c-1.47 0-2.752-.322-3.844-.966-1.091-.644-1.942-1.554-2.551-2.73-.609-1.176-.913-2.548-.913-4.116 0-1.68.335-3.084 1.007-4.21a6.438 6.438 0 0 1 2.741-2.541c1.155-.567 2.467-.851 3.938-.851 1.47 0 2.754.326 3.853.977 1.099.65 1.95 1.56 2.551 2.73.603 1.168.904 2.537.904 4.105 0 1.68-.337 3.084-1.008 4.21a6.438 6.438 0 0 1-2.741 2.541c-1.155.568-2.468.851-3.938.851Zm.23-3.486c.994 0 1.803-.34 2.426-1.019.623-.678.935-1.641.935-2.887 0-1.498-.312-2.629-.935-3.391-.623-.763-1.452-1.145-2.488-1.145-.995 0-1.81.34-2.447 1.019-.637.678-.956 1.641-.956 2.887 0 1.498.319 2.629.956 3.391.637.764 1.474 1.145 2.51 1.145Zm13.21 3.486a21.22 21.22 0 0 1-1.859-.073 16.019 16.019 0 0 1-1.838-.284l-.21-3.591c.756.21 1.4.35 1.933.42.531.07 1.084.105 1.659.105.91 0 1.515-.101 1.816-.304.301-.204.452-.473.452-.809 0-.252-.106-.497-.315-.735-.21-.238-.602-.511-1.176-.819l-1.407-.714c-1.107-.574-1.918-1.221-2.437-1.942-.517-.722-.776-1.565-.776-2.531 0-1.288.486-2.3 1.459-3.034.973-.736 2.411-1.103 4.315-1.103.659 0 1.226.032 1.702.095s1.057.178 1.743.346l.23 3.633a11.15 11.15 0 0 0-1.89-.494 11.527 11.527 0 0 0-1.805-.136c-.728 0-1.219.091-1.47.273-.252.182-.378.413-.378.693 0 .252.094.49.283.714.189.224.542.476 1.06.756l1.407.756c1.176.616 2.034 1.284 2.573 2.005.539.722.809 1.579.809 2.573 0 1.33-.459 2.362-1.376 3.097-.917.736-2.419 1.103-4.505 1.103Zm10.647-.252c.055-.392.09-.78.105-1.165.013-.385.02-.774.02-1.166v-9.261h-1.238c-.435 0-.861.007-1.281.021-.42.014-.847.049-1.281.105v-3.444h11.613v3.444a13.53 13.53 0 0 0-1.281-.105c-.42-.014-.847-.021-1.281-.021h-1.24v9.261c0 .392.007.78.022 1.166.013.385.048.773.104 1.165h-4.262ZM65.507 149c.056-.392.091-.78.105-1.166.014-.385.021-.773.021-1.165v-10.248c0-.364-.007-.745-.021-1.144a11.148 11.148 0 0 0-.105-1.187h4.263c-.056.392-.091.787-.105 1.186-.014.4-.021.781-.021 1.145v9.345h2.751c.462 0 .92-.007 1.376-.021.454-.014.906-.042 1.354-.084V149h-9.618Zm11.361 0c.084-.784.126-1.561.126-2.331v-10.248c0-.756-.042-1.533-.126-2.331h4.263a22.268 22.268 0 0 0-.126 2.331v10.248c0 .77.042 1.547.126 2.331h-4.263Zm6.657 0c.056-.392.091-.78.105-1.166.014-.385.021-.773.021-1.165v-10.248c0-.364-.007-.745-.021-1.144a11.148 11.148 0 0 0-.105-1.187h4.263c-.056.392-.091.787-.105 1.186-.014.4-.021.781-.021 1.145v4.683l3.297-5.103a8.676 8.676 0 0 0 .903-1.911h4.662l-4.809 7.056L97.112 149h-4.935c-.224-.658-.602-1.379-1.134-2.163l-3.381-4.662v4.494c0 .392.007.78.021 1.165.014.386.049.774.105 1.166h-4.263Zm14.931 0c.084-.784.126-1.561.126-2.331v-10.248c0-.756-.042-1.533-.126-2.331h9.555l.168 3.402a11.76 11.76 0 0 0-1.323-.136 28.257 28.257 0 0 0-1.323-.032h-2.982v2.583h2.352c.392 0 .77-.01 1.134-.032.364-.02.742-.059 1.134-.115v3.108a11.02 11.02 0 0 0-1.134-.105 29.532 29.532 0 0 0-1.134-.021h-2.352v3.024h2.982a25.25 25.25 0 0 0 2.856-.168l-.168 3.402h-9.765Zm11.928 0c.056-.392.091-.78.105-1.166.014-.385.021-.773.021-1.165v-10.248c0-.364-.007-.745-.021-1.144a11.148 11.148 0 0 0-.105-1.187h4.263c-.056.392-.091.787-.105 1.186-.014.4-.021.781-.021 1.145v9.345h2.751c.462 0 .92-.007 1.375-.021.456-.014.907-.042 1.355-.084V149h-9.618Zm15.54 0c.056-.392.091-.78.105-1.166.014-.385.021-.773.021-1.165v-2.058l-5.124-10.521h4.83c.042.35.102.675.178.976.078.302.172.613.284.935l1.932 4.977 1.911-4.977c.126-.322.227-.633.304-.935.077-.3.137-.626.179-.976h4.641l-5.124 10.563v2.016c0 .392.007.78.021 1.165.014.386.049.774.105 1.166h-4.263Zm29.589 0h-4.683a9.996 9.996 0 0 0-.157-1.208c-.078-.399-.172-.78-.284-1.144l-.105-.336h-4.872l-.105.336c-.112.392-.206.784-.283 1.176-.078.392-.13.784-.158 1.176h-4.473l4.326-12.579c.14-.406.252-.805.336-1.197.084-.392.154-.77.21-1.134h5.313c.07.364.157.742.262 1.134.106.392.214.791.326 1.197L155.513 149Zm-9.261-5.544h3.192l-1.596-5.334-1.596 5.334Zm10.92 5.544c.056-.392.091-.78.105-1.166.014-.385.021-.773.021-1.165v-9.849c0-.518-.053-.98-.157-1.386-.105-.406-.305-.854-.599-1.344h4.641l5.271 8.085v-5.754c0-.392-.007-.78-.021-1.165a11.086 11.086 0 0 0-.105-1.166h4.011a13.4 13.4 0 0 0-.115 1.166c-.022.385-.032.773-.032 1.165V149h-3.36l-5.796-8.673v6.342c0 .392.007.78.021 1.165.014.386.049.774.105 1.166h-3.99Zm34.293 0h-4.683a9.996 9.996 0 0 0-.157-1.208c-.077-.399-.172-.78-.284-1.144l-.105-.336h-4.872l-.105.336c-.112.392-.206.784-.283 1.176-.077.392-.13.784-.158 1.176h-4.473l4.326-12.579c.14-.406.252-.805.336-1.197.084-.392.154-.77.21-1.134h5.313c.07.364.157.742.262 1.134.106.392.214.791.326 1.197L191.465 149Zm-9.261-5.544h3.192l-1.596-5.334-1.596 5.334ZM193.103 149c.056-.392.091-.78.105-1.166.014-.385.021-.773.021-1.165v-10.248c0-.364-.007-.745-.021-1.144a11.148 11.148 0 0 0-.105-1.187h4.263c-.056.392-.091.787-.105 1.186-.014.4-.021.781-.021 1.145v9.345h2.751c.462 0 .92-.007 1.375-.021.455-.014.907-.042 1.355-.084V149h-9.618Zm11.361 0c.084-.784.126-1.561.126-2.331v-10.248c0-.756-.042-1.533-.126-2.331h4.263a22.268 22.268 0 0 0-.126 2.331v10.248c0 .77.042 1.547.126 2.331h-4.263Zm21 0h-4.683a9.996 9.996 0 0 0-.157-1.208c-.077-.399-.172-.78-.284-1.144l-.105-.336h-4.872l-.105.336c-.112.392-.207.784-.284 1.176-.076.392-.129.784-.157 1.176h-4.473l4.326-12.579c.14-.406.252-.805.336-1.197.084-.392.154-.77.21-1.134h5.313c.07.364.157.742.263 1.134.105.392.213.791.325 1.197L225.464 149Zm-9.261-5.544h3.192l-1.596-5.334-1.596 5.334Zm14.721 5.796a21.22 21.22 0 0 1-1.859-.073 16.019 16.019 0 0 1-1.837-.284l-.21-3.591c.756.21 1.4.35 1.932.42s1.085.105 1.659.105c.91 0 1.516-.102 1.816-.305.301-.203.452-.472.452-.808 0-.252-.105-.497-.315-.735-.21-.238-.602-.511-1.176-.819l-1.407-.714c-1.106-.574-1.918-1.222-2.436-1.942-.518-.721-.777-1.565-.777-2.531 0-1.288.487-2.3 1.46-3.035.972-.734 2.411-1.102 4.315-1.102.658 0 1.225.031 1.701.095.476.063 1.057.178 1.743.346l.231 3.633a11.15 11.15 0 0 0-1.89-.494 11.527 11.527 0 0 0-1.806-.136c-.728 0-1.218.091-1.47.273-.252.182-.378.413-.378.693 0 .252.095.49.284.714.189.224.542.476 1.06.756l1.407.756c1.176.616 2.034 1.285 2.572 2.006.54.72.809 1.578.809 2.572 0 1.33-.459 2.363-1.375 3.097-.917.736-2.419 1.103-4.505 1.103Zm19.005 0c-1.47 0-2.751-.322-3.843-.966-1.092-.644-1.943-1.554-2.552-2.73-.608-1.176-.913-2.548-.913-4.116 0-1.68.336-3.083 1.008-4.21a6.438 6.438 0 0 1 2.74-2.541c1.155-.567 2.468-.851 3.938-.851 1.47 0 2.755.326 3.854.977 1.099.65 1.949 1.56 2.551 2.73.602 1.169.903 2.537.903 4.105 0 1.68-.336 3.083-1.008 4.21a6.438 6.438 0 0 1-2.74 2.541c-1.155.567-2.468.851-3.938.851Zm.231-3.486c.994 0 1.803-.34 2.425-1.018.623-.68.935-1.642.935-2.888 0-1.498-.312-2.629-.935-3.392-.623-.762-1.452-1.144-2.488-1.144-.994 0-1.81.34-2.447 1.018-.637.68-.955 1.642-.955 2.888 0 1.498.319 2.629.956 3.392.636.762 1.473 1.144 2.509 1.144Zm9.387 3.234c.042-.392.07-.78.084-1.166.014-.385.021-.773.021-1.165v-10.248c0-.364-.007-.745-.021-1.144a16.597 16.597 0 0 0-.084-1.187h9.597v3.444a13.53 13.53 0 0 0-1.281-.105c-.42-.014-.847-.021-1.281-.021h-2.919v3.36h2.226c.392 0 .78-.007 1.166-.021.385-.014.773-.049 1.165-.105v3.192a21.479 21.479 0 0 0-2.331-.126h-2.226v2.961c0 .392.007.78.021 1.165.014.386.049.774.105 1.166h-4.242ZM80.018 173c.084-.784.126-1.561.126-2.331v-10.248c0-.756-.042-1.533-.126-2.331h5.46c1.918 0 3.36.493 4.326 1.48.966.988 1.449 2.293 1.449 3.917 0 1.694-.518 3.055-1.554 4.084-1.036 1.03-2.597 1.544-4.683 1.544h-.966v1.554c0 .392.007.78.021 1.165.014.386.049.774.105 1.166h-4.158Zm4.872-11.697h-.84v4.851h.798c1.82 0 2.73-.833 2.73-2.499 0-1.568-.896-2.352-2.688-2.352ZM92.975 173c.084-.784.126-1.561.126-2.331v-10.248c0-.756-.042-1.533-.126-2.331h4.263a22.268 22.268 0 0 0-.126 2.331v10.248c0 .77.042 1.547.126 2.331h-4.263Zm6.657 0c.084-.784.126-1.561.126-2.331v-10.248c0-.756-.042-1.533-.126-2.331h9.555l.168 3.402a11.76 11.76 0 0 0-1.323-.136 28.257 28.257 0 0 0-1.323-.032h-2.982v2.583h2.352c.392 0 .77-.01 1.134-.032.364-.02.742-.059 1.134-.115v3.108a11.02 11.02 0 0 0-1.134-.105 29.532 29.532 0 0 0-1.134-.021h-2.352v3.024h2.982a25.25 25.25 0 0 0 2.856-.168l-.168 3.402h-9.765Zm14.826 0c.056-.392.091-.78.105-1.166.014-.385.021-.773.021-1.165v-9.261h-1.239c-.434 0-.861.007-1.281.021-.42.014-.847.049-1.281.105v-3.444h11.613v3.444a13.53 13.53 0 0 0-1.281-.105c-.42-.014-.847-.021-1.281-.021h-1.239v9.261c0 .392.007.78.021 1.165.014.386.049.774.105 1.166h-4.263Zm9.597 0a13.4 13.4 0 0 0 .115-1.166c.022-.385.032-.773.032-1.165v-10.248c0-.364-.01-.745-.031-1.144a9.619 9.619 0 0 0-.137-1.187h5.481c1.988 0 3.423.392 4.305 1.176.882.784 1.323 1.883 1.323 3.297 0 .826-.172 1.547-.514 2.163-.343.616-.963 1.127-1.859 1.533.658.28 1.141.669 1.449 1.166.308.496.588 1.193.84 2.089l.357 1.386c.182.77.434 1.47.756 2.1h-4.158l-.651-2.562c-.154-.658-.343-1.148-.567-1.47a1.64 1.64 0 0 0-.861-.651c-.35-.112-.798-.168-1.344-.168h-.441v2.52c0 .392.01.78.031 1.165a9.6 9.6 0 0 0 .137 1.166h-4.263Zm5.019-11.676h-.924v3.906h.966c.868 0 1.47-.178 1.806-.535.336-.357.504-.837.504-1.439 0-.616-.178-1.092-.535-1.428-.357-.336-.963-.504-1.817-.504Zm15.603 11.928c-1.47 0-2.751-.322-3.843-.966-1.092-.644-1.942-1.554-2.552-2.73-.609-1.176-.913-2.548-.913-4.116 0-1.68.336-3.083 1.008-4.21a6.438 6.438 0 0 1 2.74-2.541c1.156-.567 2.468-.851 3.938-.851 1.47 0 2.755.326 3.853.977 1.1.65 1.95 1.56 2.552 2.73.602 1.169.903 2.537.903 4.105 0 1.68-.336 3.083-1.008 4.21a6.438 6.438 0 0 1-2.74 2.541c-1.156.567-2.468.851-3.938.851Zm.231-3.486c.994 0 1.803-.34 2.425-1.018.624-.68.935-1.642.935-2.888 0-1.498-.311-2.629-.935-3.392-.623-.762-1.452-1.144-2.488-1.144-.994 0-1.81.34-2.446 1.018-.637.68-.956 1.642-.956 2.888 0 1.498.319 2.629.956 3.392.637.762 1.473 1.144 2.509 1.144ZM161.603 173c.056-.392.091-.78.105-1.166.014-.385.021-.773.021-1.165v-9.261h-1.239c-.434 0-.861.007-1.281.021-.42.014-.847.049-1.281.105v-3.444h11.613v3.444a13.53 13.53 0 0 0-1.281-.105c-.42-.014-.847-.021-1.281-.021h-1.239v9.261c0 .392.007.78.021 1.165.014.386.049.774.105 1.166h-4.263Zm23.919 0h-4.683a9.996 9.996 0 0 0-.157-1.208c-.077-.399-.172-.78-.284-1.144l-.105-.336h-4.872l-.105.336c-.112.392-.207.784-.284 1.176-.077.392-.129.784-.157 1.176h-4.473l4.326-12.579c.14-.406.252-.805.336-1.197.084-.392.154-.77.21-1.134h5.313c.07.364.157.742.263 1.134.105.392.213.791.325 1.197L185.522 173Zm-9.261-5.544h3.192l-1.596-5.334-1.596 5.334ZM191.108 173a6.592 6.592 0 0 0-.179-1.05 21.181 21.181 0 0 0-.304-1.092l-4.284-12.768h4.662c.028.392.077.773.147 1.144.07.371.154.739.252 1.103l2.541 8.778 2.562-8.778c.196-.7.329-1.449.399-2.247h4.452l-4.242 12.768a12.91 12.91 0 0 0-.326 1.092c-.09.364-.15.714-.178 1.05h-5.502Zm26.166 0h-4.683a9.996 9.996 0 0 0-.157-1.208c-.077-.399-.172-.78-.284-1.144l-.105-.336h-4.872l-.105.336c-.112.392-.207.784-.284 1.176-.076.392-.129.784-.157 1.176h-4.473l4.326-12.579c.14-.406.252-.805.336-1.197.084-.392.154-.77.21-1.134h5.313c.07.364.157.742.262 1.134.106.392.214.791.326 1.197L217.274 173Zm-9.261-5.544h3.192l-1.596-5.334-1.596 5.334Zm10.92 5.544c.056-.392.091-.78.105-1.166.014-.385.021-.773.021-1.165v-9.849c0-.518-.053-.98-.157-1.386-.105-.406-.305-.854-.599-1.344h4.641l5.271 8.085v-5.754c0-.392-.007-.78-.021-1.165a11.086 11.086 0 0 0-.105-1.166h4.011a13.4 13.4 0 0 0-.115 1.166c-.022.385-.032.773-.032 1.165V173h-3.36l-5.796-8.673v6.342c0 .392.007.78.021 1.165.014.386.049.774.105 1.166h-3.99Zm22.386.252c-1.47 0-2.751-.322-3.843-.966-1.092-.644-1.942-1.554-2.552-2.73-.609-1.176-.913-2.548-.913-4.116 0-1.68.336-3.083 1.008-4.21a6.438 6.438 0 0 1 2.74-2.541c1.156-.567 2.468-.851 3.938-.851 1.47 0 2.755.326 3.853.977 1.1.65 1.95 1.56 2.552 2.73.602 1.169.903 2.537.903 4.105 0 1.68-.336 3.083-1.008 4.21a6.438 6.438 0 0 1-2.74 2.541c-1.156.567-2.468.851-3.938.851Zm.231-3.486c.994 0 1.802-.34 2.425-1.018.624-.68.935-1.642.935-2.888 0-1.498-.311-2.629-.934-3.392-.624-.762-1.453-1.144-2.489-1.144-.994 0-1.81.34-2.446 1.018-.637.68-.956 1.642-.956 2.888 0 1.498.319 2.629.956 3.392.637.762 1.473 1.144 2.509 1.144Zm10.92 3.507c-.616 0-1.12-.192-1.512-.577-.392-.386-.588-.879-.588-1.481 0-.574.196-1.057.588-1.449.392-.392.896-.588 1.512-.588s1.117.196 1.501.588c.386.392.578.875.578 1.449 0 .602-.192 1.095-.578 1.48-.385.386-.885.578-1.501.578Z"/><path fill="#FFF" fill-rule="nonzero" d="M116.1 44.408c-1.11 0-2.114-.04-3.009-.119a25.935 25.935 0 0 1-2.975-.459l-.34-5.814c1.224.34 2.267.567 3.128.68.861.113 1.757.17 2.686.17 1.473 0 2.454-.164 2.941-.493.487-.329.731-.765.731-1.309 0-.408-.17-.805-.51-1.19-.34-.385-.975-.827-1.904-1.326l-2.278-1.156c-1.79-.93-3.105-1.978-3.944-3.145s-1.258-2.533-1.258-4.097c0-2.085.788-3.723 2.363-4.913 1.575-1.19 3.904-1.785 6.987-1.785 1.065 0 1.983.051 2.754.153.77.102 1.711.289 2.822.561l.374 5.882c-1.11-.385-2.13-.652-3.06-.799a18.663 18.663 0 0 0-2.924-.221c-1.179 0-1.972.147-2.38.442-.408.295-.612.669-.612 1.122 0 .408.153.793.459 1.156.306.363.878.77 1.717 1.224l2.278 1.224c1.904.997 3.292 2.08 4.165 3.247.873 1.167 1.309 2.556 1.309 4.165 0 2.153-.742 3.825-2.227 5.015-1.485 1.19-3.916 1.785-7.293 1.785ZM127.646 44c.136-1.27.204-2.527.204-3.774V23.634c0-1.224-.068-2.482-.204-3.774h8.84c3.105 0 5.44.799 7.004 2.397 1.564 1.598 2.346 3.712 2.346 6.341 0 2.743-.839 4.947-2.516 6.613-1.677 1.666-4.205 2.499-7.582 2.499h-1.564v2.516c0 .635.011 1.264.034 1.887.023.623.08 1.252.17 1.887h-6.732Zm7.888-18.938h-1.36v7.854h1.292c2.947 0 4.42-1.349 4.42-4.046 0-2.539-1.45-3.808-4.352-3.808ZM147.624 44c.136-1.27.204-2.527.204-3.774V23.634c0-1.224-.068-2.482-.204-3.774h15.47l.272 5.508a19.04 19.04 0 0 0-2.142-.221 45.75 45.75 0 0 0-2.142-.051h-4.828v4.182h3.808a31.9 31.9 0 0 0 1.836-.051c.59-.034 1.201-.096 1.836-.187v5.032a17.842 17.842 0 0 0-1.836-.17 47.814 47.814 0 0 0-1.836-.034h-3.808v4.896h4.828a40.88 40.88 0 0 0 4.624-.272L163.434 44h-15.81Zm18.312 0c.136-1.27.204-2.527.204-3.774V23.634c0-1.224-.068-2.482-.204-3.774h15.47l.272 5.508a19.04 19.04 0 0 0-2.142-.221 45.75 45.75 0 0 0-2.142-.051h-4.828v4.182h3.808a31.9 31.9 0 0 0 1.836-.051c.59-.034 1.201-.096 1.836-.187v5.032a17.842 17.842 0 0 0-1.836-.17 47.814 47.814 0 0 0-1.836-.034h-3.808v4.896h4.828a40.88 40.88 0 0 0 4.624-.272L181.746 44h-15.81Zm26.268-24.14c4.42 0 7.792.997 10.115 2.992 2.323 1.995 3.485 4.987 3.485 8.976 0 3.967-1.116 6.987-3.349 9.061S196.941 44 192.612 44h-8.364c.09-.635.147-1.264.17-1.887.023-.623.034-1.252.034-1.887V23.634c0-1.224-.068-2.482-.204-3.774h7.956Zm19.944 0a12.3 12.3 0 0 0 .289 1.581c.125.487.278.992.459 1.513l3.128 8.058 3.094-8.058a13.01 13.01 0 0 0 .493-1.513 12.3 12.3 0 0 0 .289-1.581h7.514l-8.296 17.102v3.264c0 .635.011 1.264.034 1.887.023.623.08 1.252.17 1.887h-6.902c.09-.635.147-1.264.17-1.887.023-.623.034-1.252.034-1.887v-3.332l-8.296-17.034h7.82Zm-19.604 5.202h-1.598v13.736h1.598c2.221 0 3.899-.538 5.032-1.615s1.7-2.862 1.7-5.355c0-2.403-.567-4.131-1.7-5.185-1.133-1.054-2.81-1.581-5.032-1.581Z"/></g></svg>