<svg xmlns="http://www.w3.org/2000/svg" width="380" viewBox="0 0 379 427"><path fill="#bf0d3e" d="M94.446 263.079c10.104 0 17.84 2.684 23.207 8.051 5.367 5.368 8.051 13.103 8.051 23.207v27.232H96.578v-24.154c0-7.104-3.158-10.656-9.472-10.656h-3.079c-6.314 0-9.472 3.552-9.472 10.656v14.918c0 3.79.829 6.789 2.487 8.999 1.657 2.21 4.538 4.183 8.643 5.92l16.102 6.393c8.525 3.474 14.642 7.854 18.352 13.143 3.71 5.288 5.565 12.748 5.565 22.377v26.522c0 9.946-2.684 17.642-8.051 23.088-5.368 5.446-13.103 8.17-23.207 8.17h-17.76c-9.945 0-17.641-2.724-23.088-8.17-5.446-5.446-8.17-13.142-8.17-23.088v-29.363h29.127v26.285c0 7.104 3.158 10.656 9.472 10.656h3.552c6 0 8.999-3.552 8.999-10.656v-18.234c0-3.947-.83-7.104-2.487-9.472-1.657-2.368-4.46-4.341-8.406-5.92l-17.287-6.867c-8.209-3.157-14.09-7.578-17.641-13.261-3.552-5.683-5.328-13.34-5.328-22.97v-21.548c0-10.104 2.684-17.84 8.051-23.207 5.367-5.367 13.103-8.051 23.206-8.051h17.76Zm94.37 1.42 30.073 161.025h-30.784l-4.736-29.837h-28.416l-4.5 29.837H124.88L154.953 264.5h33.862Zm46.535 0 8.524 113.191L258.32 264.5h25.811l14.208 113.9 8.525-113.9h25.338l-17.523 161.024h-34.1l-11.603-98.035-12.313 98.035h-33.39L205.988 264.5h29.364Zm-66.19 39.31-10.656 68.435h21.312l-10.656-68.435ZM39.435 59.41V.659h13.479c3.052 0 5.443.82 7.17 2.462 1.729 1.642 2.593 4.162 2.593 7.56v14.17c0 3.398-.879 5.904-2.635 7.517-1.757 1.613-4.133 2.419-7.128 2.419h-6.48v24.624h-6.999Zm12.183-52.79h-5.184v22.204h5.184c1.267 0 2.246-.316 2.937-.95.691-.634 1.037-1.728 1.037-3.283V10.94c0-1.556-.346-2.664-1.037-3.327-.691-.662-1.67-.993-2.937-.993Zm26.524 53.222c-3.052 0-5.443-.835-7.17-2.506-1.729-1.67-2.593-4.147-2.593-7.43V.659h7.085v48.816c0 2.938 1.325 4.406 3.974 4.406h1.296c1.21 0 2.175-.345 2.895-1.036.72-.692 1.08-1.815 1.08-3.37V.659h6.998v49.248c0 3.283-.85 5.76-2.549 7.43-1.699 1.67-4.075 2.506-7.128 2.506h-3.888Zm20.65-.432V.659h13.651c2.995 0 5.371.82 7.128 2.462 1.757 1.642 2.635 4.162 2.635 7.56v13.997c0 4.666-1.699 7.719-5.097 9.159l6.307 25.574h-7.603l-5.443-24.624h-4.58v24.624h-6.998Zm12.355-52.79h-5.357v22.118h5.357c1.21 0 2.175-.317 2.895-.95.72-.634 1.08-1.728 1.08-3.284V10.941c0-1.556-.36-2.664-1.08-3.327-.72-.662-1.685-.993-2.895-.993Zm17.885 52.79V.659h18.317v6.134H136.03v18.922h10.196v6.134H136.03v21.428h12.183v6.134h-19.181Zm43.2.432c-2.995 0-5.371-.82-7.128-2.462-1.757-1.642-2.635-4.133-2.635-7.474V10.163c0-3.34.864-5.832 2.592-7.474 1.728-1.641 4.118-2.462 7.171-2.462h3.456c3.053 0 5.443.82 7.171 2.462 1.728 1.642 2.592 4.133 2.592 7.474v13.22h-7.085V10.594c0-1.555-.36-2.678-1.08-3.37-.72-.69-1.684-1.036-2.894-1.036h-.864c-1.21 0-2.174.345-2.894 1.036-.72.692-1.08 1.815-1.08 3.37v38.88c0 1.555.36 2.678 1.08 3.37.72.69 1.684 1.036 2.894 1.036h.864c1.267 0 2.246-.345 2.938-1.036.69-.692 1.036-1.815 1.036-3.37V37.12h7.085v12.787c0 3.34-.864 5.832-2.592 7.474-1.728 1.641-4.118 2.462-7.171 2.462h-3.456Zm28.858 0c-2.996 0-5.372-.82-7.128-2.462-1.757-1.642-2.636-4.133-2.636-7.474V10.163c0-3.34.879-5.832 2.636-7.474 1.756-1.641 4.132-2.462 7.128-2.462h4.233c2.995 0 5.357.82 7.085 2.462C214.136 4.331 215 6.822 215 10.163v39.744c0 3.34-.864 5.832-2.592 7.474-1.728 1.641-4.09 2.462-7.085 2.462h-4.233Zm1.296-5.962h1.641c1.21 0 2.175-.345 2.895-1.036.72-.692 1.08-1.815 1.08-3.37v-38.88c0-1.555-.36-2.678-1.08-3.37-.72-.69-1.685-1.036-2.895-1.036h-1.641c-1.21 0-2.175.345-2.895 1.036-.72.692-1.08 1.815-1.08 3.37v38.88c0 1.555.36 2.678 1.08 3.37.72.69 1.685 1.036 2.895 1.036Zm19.699 5.53V.659h13.478c3.053 0 5.443.82 7.171 2.462 1.728 1.642 2.592 4.162 2.592 7.56v14.17c0 3.398-.878 5.904-2.635 7.517-1.757 1.613-4.133 2.419-7.128 2.419h-6.48v24.624h-6.998Zm12.182-52.79h-5.184v22.204h5.184c1.267 0 2.247-.316 2.938-.95.691-.634 1.037-1.728 1.037-3.283V10.94c0-1.556-.346-2.664-1.037-3.327-.691-.662-1.67-.993-2.938-.993Zm17.194 52.79V.659h13.478c3.053 0 5.443.82 7.171 2.462 1.728 1.642 2.592 4.162 2.592 7.56v14.17c0 3.398-.878 5.904-2.635 7.517-1.757 1.613-4.133 2.419-7.128 2.419h-6.48v24.624h-6.998Zm12.182-52.79h-5.184v22.204h5.184c1.267 0 2.247-.316 2.938-.95.691-.634 1.037-1.728 1.037-3.283V10.94c0-1.556-.346-2.664-1.037-3.327-.691-.662-1.67-.993-2.938-.993Zm17.194 52.79V.659h18.317v6.134h-11.319v18.922h10.195v6.134h-10.195v21.428h12.183v6.134h-19.181Zm24.537 0V.659h13.652c2.995 0 5.37.82 7.128 2.462 1.756 1.642 2.635 4.162 2.635 7.56v13.997c0 4.666-1.7 7.719-5.098 9.159l6.307 25.574h-7.603l-5.443-24.624h-4.58v24.624h-6.998Zm12.356-52.79h-5.357v22.118h5.357c1.21 0 2.174-.317 2.894-.95.72-.634 1.08-1.728 1.08-3.284V10.941c0-1.556-.36-2.664-1.08-3.327-.72-.662-1.685-.993-2.894-.993ZM209.224 69.896c1.536 1.024 2.304 2.56 2.304 4.608 0 2.304.064 4.608.192 6.912a25.262 25.262 0 0 1-.576 6.912 257.701 257.701 0 0 1-1.728 8.64 170.441 170.441 0 0 1-2.112 8.64c1.024-.256 1.92-.384 2.688-.384.768 0 1.536-.128 2.304-.384h5.76c1.28.256 2.56.448 3.84.576 1.28.128 2.56.192 3.84.192 3.328.256 6.656.384 9.984.384h10.368c3.84-.512 7.424.128 10.752 1.92v1.152c-2.816 1.28-6.656 1.92-11.52 1.92h-10.368c-3.328 0-6.784.128-10.368.384-3.328 0-6.528.064-9.6.192s-6.272.32-9.6.576a405.166 405.166 0 0 1-2.304 6.72 405.166 405.166 0 0 0-2.304 6.72c-1.792 3.84-2.816 7.424-3.072 10.752-.512 3.328-1.024 6.592-1.536 9.792s-1.024 6.464-1.536 9.792a101.807 101.807 0 0 0-.91 9.709l-.05 1.235c-.128 3.712-.448 7.36-.96 10.944a293.787 293.787 0 0 0-.576 11.136c-.068 2.045-.118 4.09-.15 6.136a164.412 164.412 0 0 1 3.6-6.136c.511-1.28 1.151-2.304 1.92-3.072 2.047.512 2.687 1.536 1.92 3.072a465.204 465.204 0 0 1-7.607 15.705c-.083 4.493.024 8.986.317 13.479a119.735 119.735 0 0 0 2.496 17.664c.256 1.28.576 2.496.96 3.648.384 1.152 1.088 2.24 2.112 3.264 1.28-.256 2.944-1.152 4.992-2.688a66.71 66.71 0 0 0 7.68-8.256 553.34 553.34 0 0 0 6.912-9.024c2.56-3.584 4.992-7.36 7.296-11.328a220.57 220.57 0 0 0 3.256-5.807 92.157 92.157 0 0 0-.753-6.289v-.768c0-2.048-.064-5.056-.192-9.024-.128-3.968-.256-7.872-.384-11.712s-.192-7.232-.192-10.176v-4.8c.512-4.352 2.688-5.504 6.528-3.456 1.536.512 2.56 1.408 3.072 2.688.512 1.28.896 2.688 1.152 4.224.256 2.304.448 4.672.576 7.104.128 2.432.192 4.928.192 7.488 0 1.662.018 3.305.056 4.93l.897-2.242c.512-1.28 1.28-2.56 2.304-3.84a29.048 29.048 0 0 1 1.92-1.728c.768-.64 1.408-.704 1.92-.192.256 0 .384.512.384 1.536a14.899 14.899 0 0 0-.768 1.92 14.899 14.899 0 0 1-.768 1.92 32.487 32.487 0 0 0-2.112 4.224 32.487 32.487 0 0 1-2.112 4.224c-.421.926-.85 1.853-1.284 2.78.093 1.489.204 2.995.33 4.516 0 2.048.065 4.224.193 6.528.128 2.304.32 4.608.576 6.912 0 .512.128.896.384 1.152 0-.512.128-.896.384-1.152.256-1.024.448-2.048.576-3.072.128-1.024.32-2.048.576-3.072 1.28-5.12 2.688-9.984 4.224-14.592 1.536-4.608 3.584-9.088 6.144-13.44 2.048-3.84 4.608-7.168 7.68-9.984 3.072-3.072 6.4-3.84 9.984-2.304 2.814.938 4.578 2.45 5.291 4.533 1.195-1.511 3.081-1.87 5.66-1.077.511.256 1.151.448 1.92.576.767.128 1.407.448 1.92.96 1.791 1.28 2.56 2.944 2.303 4.992l-3.072 13.824c-.768 3.84-1.472 7.68-2.112 11.52-.64 3.84-.832 7.68-.576 11.52 0 3.84.768 7.68 2.304 11.52 1.28 3.328 3.136 5.248 5.568 5.76 2.432.512 5.056 0 7.872-1.536a31.53 31.53 0 0 0 2.104-1.643c-1.483-7.96-1.093-15.988 1.167-24.085 1.28-5.12 3.008-9.92 5.184-14.4s5.184-8.512 9.024-12.096c2.816-2.816 6.144-4.672 9.984-5.568 3.84-.896 7.68-.192 11.52 2.112 3.584 2.048 6.208 4.928 7.872 8.64 1.664 3.712 2.112 7.488 1.344 11.328-.512 1.28-.896 2.432-1.152 3.456a15.008 15.008 0 0 1-1.152 3.072c-1.024 2.56-2.944 4.096-5.76 4.608-2.56 0-4.48-1.152-5.76-3.456-.256-.256-.384-.768-.384-1.536.512-.512 1.088-.704 1.728-.576.64.128 1.216.32 1.728.576 1.792.512 3.2 0 4.224-1.536 1.024-2.304 1.664-4.608 1.92-6.912.256-2.304-.256-4.736-1.536-7.296-.256-1.28-1.024-2.432-2.304-3.456-2.048-2.048-4.48-2.304-7.296-.768-2.048 1.024-3.52 2.304-4.416 3.84-.296.507-.612 1.041-.95 1.604l3.247 1.084v.768a95.29 95.29 0 0 0-2.88 6.336 104.118 104.118 0 0 0-2.496 6.72c-2.797 7.691-6.37 14.606-10.718 20.746-.29 1.673-.555 3.269-.795 4.79-.384 2.432-.448 5.056-.192 7.872l1.152 8.064c1.792 6.144 6.144 8.192 13.056 6.144 2.816-.512 5.312-1.536 7.488-3.072a271.745 271.745 0 0 0 6.336-4.608c5.632-4.352 10.368-9.152 14.208-14.4a236.573 236.573 0 0 0 11.136-16.704 100.759 100.759 0 0 0 5.568-9.408c1.664-3.2 3.52-6.464 5.568-9.792.512-1.28 1.152-2.304 1.92-3.072 2.048.512 2.688 1.536 1.92 3.072a462.954 462.954 0 0 1-9.6 19.584c-3.328 6.4-7.424 12.544-12.288 18.432a285.939 285.939 0 0 0-5.952 6.912 103.542 103.542 0 0 1-6.336 6.912c-5.376 5.376-11.392 8.96-18.048 10.752-7.424 1.536-13.568-.128-18.432-4.992-3.328-3.584-5.504-7.296-6.528-11.136a57.582 57.582 0 0 1-1.171-3.656c-3.612 2.323-7.192 3.03-10.74 2.12-4.992-1.28-9.024-4.48-12.096-9.6-2.048-3.072-3.52-6.336-4.416-9.792a96.323 96.323 0 0 1-2.112-10.56c-.512-2.816-.704-5.76-.576-8.832.128-3.072.448-6.016.96-8.832.256-2.56.704-4.992 1.344-7.296.181-.65.357-1.302.527-1.953-1.124-.126-1.685-.628-1.685-1.503 0-1.024-.256-1.856-.768-2.496a30.183 30.183 0 0 1-1.536-2.112c-.512-.512-1.152-.64-1.92-.384a15.5 15.5 0 0 0-4.992 4.992 84.899 84.899 0 0 0-6.144 10.368 96.997 96.997 0 0 0-4.608 10.752 125.042 125.042 0 0 0-2.688 9.216l-2.304 9.216a50.359 50.359 0 0 0-1.152 6.336 1049.02 1049.02 0 0 0-.768 6.72c-.256 2.048-.512 4.16-.768 6.336a54.234 54.234 0 0 0-.384 6.336c-.256 1.28-.128 3.2.384 5.76 0 3.072-1.408 4.224-4.224 3.456-1.28-.256-2.496-.832-3.648-1.728-1.152-.896-1.856-2.368-2.112-4.416l-3.072-16.896a59.884 59.884 0 0 1-.576-4.416 59.884 59.884 0 0 0-.576-4.416 75.916 75.916 0 0 1-.552-3.94 233.99 233.99 0 0 1-8.863 14.692 80.173 80.173 0 0 1-5.76 7.296l-6.144 6.912c-2.304 2.304-4.608 3.584-6.912 3.84-5.12.768-8.96-1.024-11.52-5.376a27.181 27.181 0 0 1-3.456-7.296 74.322 74.322 0 0 1-1.92-8.064 120.126 120.126 0 0 1-1.15-6.03 110.242 110.242 0 0 1-5.193 6.798 285.939 285.939 0 0 0-5.952 6.912 103.542 103.542 0 0 1-6.336 6.912c-5.376 5.376-11.392 8.96-18.048 10.752-7.424 1.536-13.568-.128-18.432-4.992-3.328-3.584-5.504-7.296-6.528-11.136-1.32-3.696-2.231-7.407-2.735-11.133l.233-.195a47.746 47.746 0 0 1-8.064 5.568c-2.304 1.28-4.608 2.112-6.912 2.496-2.304.384-4.736.192-7.296-.576-4.365-1.139-7.815-3.403-10.351-6.792l-2.52 7.56a143.27 143.27 0 0 1-4.224 11.136c-.512 1.024-1.536 2.88-3.072 5.568-1.536 2.688-3.392 4.672-5.568 5.952-2.176 1.28-4.672 1.088-7.488-.576-2.816-1.664-5.76-6.08-8.832-13.248-3.52-8.274-5.74-17.122-6.658-26.546a199.65 199.65 0 0 1-1.988 2.354 76.267 76.267 0 0 1-7.296 7.104 47.746 47.746 0 0 1-8.064 5.568c-2.304 1.28-4.608 2.112-6.912 2.496-2.304.384-4.736.192-7.296-.576-5.888-1.536-10.112-5.12-12.672-10.752-2.816-5.12-3.968-10.624-3.456-16.512v-4.8c0-1.664.256-3.264.768-4.8 1.536-8.96 6.144-16.64 13.824-23.04a31.827 31.827 0 0 1 5.76-3.264c2.048-.896 4.096-1.216 6.144-.96 3.328.512 5.888 1.92 7.68 4.224 1.024 1.536 1.408 3.2 1.152 4.992-1.28 4.864-3.2 9.152-5.76 12.864-2.56 3.712-6.272 6.592-11.136 8.64-1.28.512-2.944 1.024-4.992 1.536-1.28 3.84-2.048 7.68-2.304 11.52-.256 3.84.256 7.808 1.536 11.904 1.28 3.328 3.968 4.864 8.064 4.608 2.816-.512 5.44-1.408 7.872-2.688a34.73 34.73 0 0 0 6.72-4.608 75.411 75.411 0 0 0 11.925-12.516c-.068-2.136-.073-4.3-.015-6.492.384-14.464 1.856-31.296 4.416-50.496a288.296 288.296 0 0 1 2.688-15.168 175.583 175.583 0 0 1 3.84-15.168c2.816-10.24 6.656-19.712 11.52-28.416 2.304-3.584 5.248-6.656 8.832-9.216 3.584-2.304 7.36-3.136 11.328-2.496 3.968.64 7.232 3.008 9.792 7.104 3.072 4.864 4.608 10.112 4.608 15.744.512 9.728-.896 18.816-4.224 27.264-3.328 8.448-7.808 16.512-13.44 24.192-3.328 4.352-6.848 8.32-10.56 11.904-3.712 3.584-7.744 7.04-12.096 10.368a26.173 26.173 0 0 0-1.92 2.112c-.512.64-.768 1.6-.768 2.88a705.982 705.982 0 0 1-.503 4.864c.83-1.316 1.699-2.681 2.609-4.096.256-.512.512-.96.768-1.344.256-.384.512-.832.768-1.344 1.024-1.024 2.176-1.152 3.456-.384 1.024.768 1.152 1.792.384 3.072-1.28 2.048-2.368 3.968-3.264 5.76-.896 1.792-1.984 3.712-3.264 5.76-.844 1.5-1.721 2.973-2.633 4.42-.186 2.857-.33 5.671-.433 8.444a97.501 97.501 0 0 0 .192 10.56c.512 6.4 1.28 12.416 2.304 18.048.768 5.376 3.072 9.984 6.912 13.824 2.048-1.024 3.584-2.944 4.608-5.76a1033.59 1033.59 0 0 1 4.608-11.328 171.254 171.254 0 0 0 4.224-11.328c.253-.76.513-1.518.778-2.274-2.115-4.578-2.949-9.452-2.5-14.622v-4.8c0-1.664.257-3.264.769-4.8 1.536-8.96 6.144-16.64 13.824-23.04a31.827 31.827 0 0 1 5.76-3.264c2.048-.896 4.096-1.216 6.144-.96 3.328.512 5.888 1.92 7.68 4.224 1.024 1.536 1.408 3.2 1.152 4.992-1.28 4.864-3.2 9.152-5.76 12.864-2.56 3.712-6.272 6.592-11.136 8.64a29.39 29.39 0 0 1-2.358.814 112.21 112.21 0 0 0-2.833 6.482l-2.06 5.147c-.017.204-.032.409-.045.613-.256 3.84.256 7.808 1.536 11.904 1.28 3.328 3.968 4.864 8.064 4.608 2.816-.512 5.44-1.408 7.872-2.688a34.73 34.73 0 0 0 6.72-4.608 75.657 75.657 0 0 0 2.386-2.074c-.101-5.168.578-10.365 2.036-15.59 1.28-5.12 3.008-9.92 5.184-14.4s5.184-8.512 9.024-12.096c2.816-2.816 6.144-4.672 9.984-5.568 3.84-.896 7.68-.192 11.52 2.112 3.584 2.048 6.208 4.928 7.872 8.64 1.664 3.712 2.112 7.488 1.344 11.328-.512 1.28-.896 2.432-1.152 3.456a15.008 15.008 0 0 1-1.152 3.072c-1.024 2.56-2.944 4.096-5.76 4.608-2.56 0-4.48-1.152-5.76-3.456-.256-.256-.384-.768-.384-1.536.512-.512 1.088-.704 1.728-.576.64.128 1.216.32 1.728.576 1.792.512 3.2 0 4.224-1.536 1.024-2.304 1.664-4.608 1.92-6.912.256-2.304-.256-4.736-1.536-7.296-.256-1.28-1.024-2.432-2.304-3.456-2.048-2.048-4.48-2.304-7.296-.768-.35.175-.684.358-1 .548.137.062.277.135.418.22 1.024.768 1.152 1.792.384 3.072a72.404 72.404 0 0 0-2.958 5.158l-.306.602c-.896 1.792-1.984 3.712-3.264 5.76-2.304 4.096-4.864 8-7.68 11.712l-.978 1.274a144.328 144.328 0 0 0-2.28 9.67c-.512 2.816-.96 5.44-1.344 7.872-.384 2.432-.448 5.056-.192 7.872l1.152 8.064c1.792 6.144 6.144 8.192 13.056 6.144 2.816-.512 5.312-1.536 7.488-3.072a271.745 271.745 0 0 0 6.336-4.608c5.632-4.352 10.368-9.152 14.208-14.4 2.876-3.93 5.68-8.04 8.412-12.329-.138-1.39-.252-2.785-.341-4.183a881.282 881.282 0 0 1-.96-17.856c-.256-5.888-.128-12.928.384-21.12s1.024-16.256 1.536-24.192 1.088-14.912 1.728-20.928c.64-6.016 1.088-9.664 1.344-10.944-1.097 0-2.1.047-3.01.141l-.446.051a28.069 28.069 0 0 1-3.456.192c-2.048 0-4.096.064-6.144.192a32.888 32.888 0 0 1-6.144-.192 34.434 34.434 0 0 1-4.224-.96c-1.28-.384-2.176-1.344-2.688-2.88 1.024-1.28 2.304-2.048 3.84-2.304 1.536-.256 3.328-.512 5.376-.768 2.458 0 4.915-.041 7.373-.123l1.843-.069c3.072-.128 6.144-.192 9.216-.192l1.152-5.76c1.024-4.352 2.048-8.64 3.072-12.864s2.56-8.384 4.608-12.48c.448-.448.749-.896.903-1.344l.057-.192c.128-.512.448-1.024.96-1.536 2.816-4.608 6.656-5.376 11.52-2.304Zm113.287 116.12-.01.02c-.416.676-.856 1.387-1.321 2.132a66.914 66.914 0 0 0-6.144 13.824c-.252.798-.497 1.599-.735 2.404a61.625 61.625 0 0 0 2.072-5.092 96.205 96.205 0 0 1 3.264-7.296 218.615 218.615 0 0 0 2.874-5.992Zm-293.41-11.288c-3.327 2.304-5.823 5.056-7.487 8.256-1.664 3.2-3.392 6.72-5.184 10.56 4.608-2.048 8.192-4.928 10.752-8.64 2.56-3.712 3.2-7.104 1.92-10.176Zm80.27 0c-3.328 2.304-5.824 5.056-7.488 8.256a250.348 250.348 0 0 0-3.086 6.15 85.546 85.546 0 0 1 1.927-2.502c.768-1.28 1.344-1.984 1.728-2.112.384-.128 1.344-.064 2.88.192l-3.456 5.76-.11.195c2.26-1.624 4.155-3.545 5.685-5.763 2.56-3.712 3.2-7.104 1.92-10.176ZM89.396 84.68c-1.152.128-2.752 1.216-4.8 3.264 0 .256-.128.448-.384.576-.256.128-.384.32-.384.576a314.403 314.403 0 0 1-3.84 6.72c-1.28 2.176-2.432 4.544-3.456 7.104-3.84 11.008-6.528 22.4-8.064 34.176a259.666 259.666 0 0 1-1.728 10.56 259.666 259.666 0 0 0-1.728 10.56c-.512 2.048-.832 4.224-.96 6.528-.128 2.304-.448 4.736-.96 7.296.512-.512.896-.768 1.152-.768.256 0 .512-.128.768-.384a244.851 244.851 0 0 0 11.904-11.136c3.84-3.84 7.424-7.936 10.752-12.288 4.864-6.656 8.512-13.504 10.944-20.544 2.432-7.04 3.392-14.656 2.88-22.848-.256-6.656-2.688-12.16-7.296-16.512-2.048-2.048-3.648-3.008-4.8-2.88Zm193.185 53.568c4.096 1.024 5.76 3.712 4.992 8.064-.512 1.28-.896 2.688-1.152 4.224a30.324 30.324 0 0 1-1.152 4.608c-.512 1.536-1.664 2.176-3.456 1.92-3.84-.768-5.76-3.584-5.76-8.448.256-1.024.448-2.24.576-3.648.128-1.408.448-2.752.96-4.032.768-2.56 2.432-3.456 4.992-2.688Z"/></svg>