<svg xmlns="http://www.w3.org/2000/svg" viewBox="0 0 350 64"><path fill="#33302E" d="m2.128 31.88-1.44-1.92c1.301-1.11 2.187-2.341 2.656-3.696.47-1.355.704-3.003.704-4.944V5.832c0-1.152-.064-2.336-.192-3.552h6.496c-.085.597-.139 1.2-.16 1.808-.021.608-.032 1.19-.032 1.744v14.016c0 2.048-.24 3.824-.72 5.328a8.81 8.81 0 0 1-2.48 3.872c-1.173 1.077-2.784 2.021-4.832 2.832ZM13.84 25c.128-1.195.192-2.379.192-3.552V5.832c0-1.152-.064-2.336-.192-3.552H28.4l.256 5.184a17.92 17.92 0 0 0-2.016-.208 43.058 43.058 0 0 0-2.016-.048H20.08v3.936h3.584c.597 0 1.173-.016 1.728-.048.555-.032 1.13-.09 1.728-.176v4.736a16.793 16.793 0 0 0-1.728-.16 45.002 45.002 0 0 0-1.728-.032H20.08v4.608h4.544a38.475 38.475 0 0 0 4.352-.256L28.72 25H13.84Zm22.848 0c-.021-.512-.07-.976-.144-1.392a15.964 15.964 0 0 0-.368-1.52L31.152 2.28h6.912c.043.725.107 1.381.192 1.968s.203 1.147.352 1.68L41.2 18.376 44.688 5.32l-.8-3.04h6.048l3.744 15.936 2.624-12.288c.107-.555.208-1.12.304-1.696.096-.576.155-1.227.176-1.952h6.048l-5.024 19.808c-.15.597-.261 1.099-.336 1.504A14.04 14.04 0 0 0 57.296 25h-7.552a8.845 8.845 0 0 0-.224-1.408c-.107-.427-.235-.928-.384-1.504l-2.24-8.48-2.208 8.48c-.15.597-.272 1.104-.368 1.52-.096.416-.165.88-.208 1.392h-7.424Zm28.928 0c.128-1.195.192-2.379.192-3.552V5.832c0-1.152-.064-2.336-.192-3.552h14.56l.256 5.184a17.92 17.92 0 0 0-2.016-.208 43.058 43.058 0 0 0-2.016-.048h-4.544v3.936h3.584c.597 0 1.173-.016 1.728-.048.555-.032 1.13-.09 1.728-.176v4.736a16.793 16.793 0 0 0-1.728-.16 45.002 45.002 0 0 0-1.728-.032h-3.584v4.608H76.4a38.475 38.475 0 0 0 4.352-.256L80.496 25h-14.88Zm18.176 0c.085-.597.139-1.19.16-1.776a48.87 48.87 0 0 0 .032-1.776V5.832c0-.555-.01-1.136-.032-1.744a16.987 16.987 0 0 0-.16-1.808h6.496c-.085.597-.139 1.2-.16 1.808-.021.608-.032 1.19-.032 1.744v14.24h4.192c.704 0 1.403-.01 2.096-.032a32.97 32.97 0 0 0 2.064-.128V25H83.792Zm17.312 0c.085-.597.139-1.19.16-1.776.021-.587.032-1.179.032-1.776V5.832c0-.555-.01-1.136-.032-1.744a16.987 16.987 0 0 0-.16-1.808h6.496c-.085.597-.139 1.2-.16 1.808-.021.608-.032 1.19-.032 1.744v14.24h4.192c.704 0 1.403-.01 2.096-.032a32.971 32.971 0 0 0 2.064-.128V25h-14.656Zm17.312 0c.128-1.195.192-2.379.192-3.552V5.832c0-1.152-.064-2.336-.192-3.552h14.56l.256 5.184a17.92 17.92 0 0 0-2.016-.208 43.058 43.058 0 0 0-2.016-.048h-4.544v3.936h3.584c.597 0 1.173-.016 1.728-.048.555-.032 1.13-.09 1.728-.176v4.736a16.793 16.793 0 0 0-1.728-.16 45.002 45.002 0 0 0-1.728-.032h-3.584v4.608h4.544a38.475 38.475 0 0 0 4.352-.256L133.296 25h-14.88Zm18.208 0c.085-.597.144-1.19.176-1.776.032-.587.048-1.179.048-1.776V5.832c0-.555-.016-1.136-.048-1.744a14.657 14.657 0 0 0-.208-1.808h8.352c3.03 0 5.216.597 6.56 1.792 1.344 1.195 2.016 2.87 2.016 5.024 0 1.259-.261 2.357-.784 3.296-.523.939-1.467 1.717-2.832 2.336 1.003.427 1.739 1.019 2.208 1.776.47.757.896 1.819 1.28 3.184l.544 2.112c.277 1.173.661 2.24 1.152 3.2h-6.336l-.992-3.904c-.235-1.003-.523-1.75-.864-2.24-.341-.49-.779-.821-1.312-.992-.533-.17-1.216-.256-2.048-.256h-.672v3.84c0 .597.016 1.19.048 1.776.032.587.101 1.179.208 1.776h-6.496Zm7.648-17.792h-1.408v5.952h1.472c1.323 0 2.24-.272 2.752-.816.512-.544.768-1.275.768-2.192 0-.939-.272-1.664-.816-2.176-.544-.512-1.467-.768-2.768-.768ZM163.984 25c.085-.597.139-1.19.16-1.776.021-.587.032-1.179.032-1.776v-3.136L156.368 2.28h7.36c.064.533.155 1.03.272 1.488.117.459.261.933.432 1.424l2.944 7.584 2.912-7.584c.192-.49.347-.965.464-1.424.117-.459.208-.955.272-1.488h7.072l-7.808 16.096v3.072c0 .597.01 1.19.032 1.776.021.587.075 1.179.16 1.776h-6.496Zm23.264 0c.085-.597.144-1.19.176-1.776.032-.587.048-1.179.048-1.776V5.832c0-.555-.016-1.136-.048-1.744a14.657 14.657 0 0 0-.208-1.808h8.352c3.03 0 5.216.597 6.56 1.792 1.344 1.195 2.016 2.87 2.016 5.024 0 1.259-.261 2.357-.784 3.296-.523.939-1.467 1.717-2.832 2.336 1.003.427 1.739 1.019 2.208 1.776.47.757.896 1.819 1.28 3.184l.544 2.112c.277 1.173.661 2.24 1.152 3.2h-6.336l-.992-3.904c-.235-1.003-.523-1.75-.864-2.24-.341-.49-.779-.821-1.312-.992-.533-.17-1.216-.256-2.048-.256h-.672v3.84c0 .597.016 1.19.048 1.776.032.587.101 1.179.208 1.776h-6.496Zm7.648-17.792h-1.408v5.952h1.472c1.323 0 2.24-.272 2.752-.816.512-.544.768-1.275.768-2.192 0-.939-.272-1.664-.816-2.176-.544-.512-1.467-.768-2.768-.768Zm23.776 18.176c-2.24 0-4.192-.49-5.856-1.472-1.664-.981-2.96-2.368-3.888-4.16-.928-1.792-1.392-3.883-1.392-6.272 0-2.56.512-4.699 1.536-6.416 1.024-1.717 2.416-3.008 4.176-3.872 1.76-.864 3.76-1.296 6-1.296s4.197.496 5.872 1.488c1.675.992 2.97 2.379 3.888 4.16.917 1.781 1.376 3.867 1.376 6.256 0 2.56-.512 4.699-1.536 6.416-1.024 1.717-2.416 3.008-4.176 3.872-1.76.864-3.76 1.296-6 1.296Zm.352-5.312c1.515 0 2.747-.517 3.696-1.552.95-1.035 1.424-2.501 1.424-4.4 0-2.283-.475-4.005-1.424-5.168-.95-1.163-2.213-1.744-3.792-1.744-1.515 0-2.757.517-3.728 1.552-.97 1.035-1.456 2.501-1.456 4.4 0 2.283.485 4.005 1.456 5.168.97 1.163 2.245 1.744 3.824 1.744ZM233.36 25c.064-.597.107-1.19.128-1.776.021-.587.032-1.179.032-1.776V5.832c0-.555-.01-1.136-.032-1.744a16.987 16.987 0 0 0-.16-1.808h8.16c2.048 0 3.67.256 4.864.768 1.195.512 2.053 1.205 2.576 2.08.523.875.784 1.867.784 2.976 0 .939-.197 1.792-.592 2.56-.395.768-1.072 1.408-2.032 1.92 1.387.49 2.4 1.232 3.04 2.224.64.992.96 2.15.96 3.472 0 1.301-.299 2.459-.896 3.472s-1.525 1.808-2.784 2.384c-1.259.576-2.89.864-4.896.864h-9.152Zm7.776-18.112h-1.664l-.032 4.736h1.952c1.045 0 1.803-.213 2.272-.64.47-.427.704-1.013.704-1.76 0-.832-.245-1.43-.736-1.792-.49-.363-1.323-.544-2.496-.544Zm.608 8.48h-2.336l-.032 5.024H242c1.003 0 1.781-.224 2.336-.672.555-.448.832-1.088.832-1.92 0-1.621-1.141-2.432-3.424-2.432ZM253.712 25c.064-.597.107-1.19.128-1.776.021-.587.032-1.179.032-1.776V5.832c0-.555-.01-1.136-.032-1.744a16.987 16.987 0 0 0-.16-1.808h8.16c2.048 0 3.67.256 4.864.768 1.195.512 2.053 1.205 2.576 2.08.523.875.784 1.867.784 2.976 0 .939-.197 1.792-.592 2.56-.395.768-1.072 1.408-2.032 1.92 1.387.49 2.4 1.232 3.04 2.224.64.992.96 2.15.96 3.472 0 1.301-.299 2.459-.896 3.472s-1.525 1.808-2.784 2.384c-1.259.576-2.89.864-4.896.864h-9.152Zm7.776-18.112h-1.664l-.032 4.736h1.952c1.045 0 1.803-.213 2.272-.64.47-.427.704-1.013.704-1.76 0-.832-.245-1.43-.736-1.792-.49-.363-1.323-.544-2.496-.544Zm.608 8.48h-2.336l-.032 5.024h2.624c1.003 0 1.781-.224 2.336-.672.555-.448.832-1.088.832-1.92 0-1.621-1.141-2.432-3.424-2.432ZM274.032 25c.128-1.195.192-2.379.192-3.552V5.832c0-1.152-.064-2.336-.192-3.552h14.56l.256 5.184a17.92 17.92 0 0 0-2.016-.208 43.058 43.058 0 0 0-2.016-.048h-4.544v3.936h3.584c.597 0 1.173-.016 1.728-.048.555-.032 1.13-.09 1.728-.176v4.736a16.793 16.793 0 0 0-1.728-.16 45.002 45.002 0 0 0-1.728-.032h-3.584v4.608h4.544a38.475 38.475 0 0 0 4.352-.256L288.912 25h-14.88Zm18.208 0c.085-.597.144-1.19.176-1.776.032-.587.048-1.179.048-1.776V5.832c0-.555-.016-1.136-.048-1.744a14.657 14.657 0 0 0-.208-1.808h8.352c3.03 0 5.216.597 6.56 1.792 1.344 1.195 2.016 2.87 2.016 5.024 0 1.259-.261 2.357-.784 3.296-.523.939-1.467 1.717-2.832 2.336 1.003.427 1.739 1.019 2.208 1.776.47.757.896 1.819 1.28 3.184l.544 2.112c.277 1.173.661 2.24 1.152 3.2h-6.336l-.992-3.904c-.235-1.003-.523-1.75-.864-2.24-.341-.49-.779-.821-1.312-.992-.533-.17-1.216-.256-2.048-.256h-.672v3.84c0 .597.016 1.19.048 1.776.032.587.101 1.179.208 1.776h-6.496Zm7.648-17.792h-1.408v5.952h1.472c1.323 0 2.24-.272 2.752-.816.512-.544.768-1.275.768-2.192 0-.939-.272-1.664-.816-2.176-.544-.512-1.467-.768-2.768-.768Zm19.168 18.176c-1.045 0-1.99-.037-2.832-.112a24.41 24.41 0 0 1-2.8-.432l-.32-5.472c1.152.32 2.133.533 2.944.64.81.107 1.653.16 2.528.16 1.387 0 2.31-.155 2.768-.464.459-.31.688-.72.688-1.232 0-.384-.16-.757-.48-1.12-.32-.363-.917-.779-1.792-1.248l-2.144-1.088c-1.685-.875-2.923-1.861-3.712-2.96-.79-1.099-1.184-2.384-1.184-3.856 0-1.963.741-3.504 2.224-4.624 1.483-1.12 3.675-1.68 6.576-1.68 1.003 0 1.867.048 2.592.144.725.096 1.61.272 2.656.528l.352 5.536c-1.045-.363-2.005-.613-2.88-.752a17.566 17.566 0 0 0-2.752-.208c-1.11 0-1.856.139-2.24.416-.384.277-.576.63-.576 1.056 0 .384.144.747.432 1.088.288.341.827.725 1.616 1.152l2.144 1.152c1.792.939 3.099 1.957 3.92 3.056.821 1.099 1.232 2.405 1.232 3.92 0 2.027-.699 3.6-2.096 4.72-1.397 1.12-3.685 1.68-6.864 1.68Zm11.904-14.656-1.088-1.344c.683-.704 1.152-1.328 1.408-1.872s.384-1.072.384-1.584c0-.49-.15-.912-.448-1.264-.299-.352-.757-.581-1.376-.688 0-1.28.325-2.23.976-2.848.65-.619 1.435-.928 2.352-.928.917 0 1.67.315 2.256.944.587.63.88 1.445.88 2.448 0 1.301-.432 2.517-1.296 3.648-.864 1.13-2.213 2.293-4.048 3.488ZM9.84 63a10.044 10.044 0 0 0-.272-1.6 32.277 32.277 0 0 0-.464-1.664L2.576 40.28H9.68c.043.597.117 1.179.224 1.744s.235 1.125.384 1.68L14.16 57.08l3.904-13.376c.299-1.067.501-2.208.608-3.424h6.784l-6.464 19.456c-.192.555-.357 1.11-.496 1.664-.139.555-.23 1.088-.272 1.6H9.84Zm18.016 0c.128-1.195.192-2.379.192-3.552V43.832c0-1.152-.064-2.336-.192-3.552h14.56l.256 5.184a17.92 17.92 0 0 0-2.016-.208 43.058 43.058 0 0 0-2.016-.048h-4.544v3.936h3.584c.597 0 1.173-.016 1.728-.048.555-.032 1.13-.09 1.728-.176v4.736a16.793 16.793 0 0 0-1.728-.16 45.002 45.002 0 0 0-1.728-.032h-3.584v4.608h4.544a38.475 38.475 0 0 0 4.352-.256L42.736 63h-14.88Zm18.208 0c.085-.597.144-1.19.176-1.776.032-.587.048-1.179.048-1.776V43.832c0-.555-.016-1.136-.048-1.744a14.657 14.657 0 0 0-.208-1.808h8.352c3.03 0 5.216.597 6.56 1.792 1.344 1.195 2.016 2.87 2.016 5.024 0 1.259-.261 2.357-.784 3.296-.523.939-1.467 1.717-2.832 2.336 1.003.427 1.739 1.019 2.208 1.776.47.757.896 1.819 1.28 3.184l.544 2.112c.277 1.173.661 2.24 1.152 3.2h-6.336l-.992-3.904c-.235-1.003-.523-1.75-.864-2.24-.341-.49-.779-.821-1.312-.992-.533-.17-1.216-.256-2.048-.256h-.672v3.84c0 .597.016 1.19.048 1.776.032.587.101 1.179.208 1.776h-6.496Zm7.648-17.792h-1.408v5.952h1.472c1.323 0 2.24-.272 2.752-.816.512-.544.768-1.275.768-2.192 0-.939-.272-1.664-.816-2.176-.544-.512-1.467-.768-2.768-.768ZM67.056 63c.085-.597.139-1.19.16-1.776a48.87 48.87 0 0 0 .032-1.776V43.832c0-1.152-.064-2.336-.192-3.552h7.488c4.16 0 7.333.939 9.52 2.816 2.187 1.877 3.28 4.693 3.28 8.448 0 3.733-1.05 6.576-3.152 8.528C82.091 62.024 79.002 63 74.928 63h-7.872Zm7.808-17.824H73.36v12.928h1.504c2.09 0 3.67-.507 4.736-1.52 1.067-1.013 1.6-2.693 1.6-5.04 0-2.261-.533-3.888-1.6-4.88-1.067-.992-2.645-1.488-4.736-1.488ZM90.288 63c.128-1.195.192-2.379.192-3.552V43.832c0-1.152-.064-2.336-.192-3.552h6.496a33.933 33.933 0 0 0-.192 3.552v15.616c0 1.173.064 2.357.192 3.552h-6.496Zm21.952.384c-2.368 0-4.496-.432-6.384-1.296a10.151 10.151 0 0 1-4.48-3.936c-1.099-1.76-1.648-3.973-1.648-6.64 0-1.963.32-3.67.96-5.12.64-1.45 1.53-2.656 2.672-3.616 1.141-.96 2.459-1.68 3.952-2.16 1.493-.48 3.083-.72 4.768-.72.725 0 1.413.037 2.064.112.65.075 1.253.176 1.808.304l.352 5.824a8.16 8.16 0 0 0-1.808-.544 11.2 11.2 0 0 0-1.936-.16c-1.941 0-3.499.507-4.672 1.52-1.173 1.013-1.76 2.533-1.76 4.56 0 2.07.597 3.643 1.792 4.72s2.859 1.616 4.992 1.616c.683 0 1.307-.037 1.872-.112a10.282 10.282 0 0 0 1.68-.368l-.16 5.6c-.683.15-1.36.256-2.032.32a21.42 21.42 0 0 1-2.032.096ZM124.016 63c.085-.597.139-1.19.16-1.776.021-.587.032-1.179.032-1.776V45.336h-1.888a58.6 58.6 0 0 0-1.952.032c-.64.021-1.29.075-1.952.16V40.28h17.696v5.248a20.618 20.618 0 0 0-1.952-.16 58.6 58.6 0 0 0-1.952-.032h-1.888v14.112c0 .597.01 1.19.032 1.776.021.587.075 1.179.16 1.776h-6.496Zm20.416.384c-1.045 0-1.99-.037-2.832-.112a24.41 24.41 0 0 1-2.8-.432l-.32-5.472c1.152.32 2.133.533 2.944.64.81.107 1.653.16 2.528.16 1.387 0 2.31-.155 2.768-.464.459-.31.688-.72.688-1.232 0-.384-.16-.757-.48-1.12-.32-.363-.917-.779-1.792-1.248l-2.144-1.088c-1.685-.875-2.923-1.861-3.712-2.96-.79-1.099-1.184-2.384-1.184-3.856 0-1.963.741-3.504 2.224-4.624 1.483-1.12 3.675-1.68 6.576-1.68 1.003 0 1.867.048 2.592.144.725.096 1.61.272 2.656.528l.352 5.536c-1.045-.363-2.005-.613-2.88-.752a17.566 17.566 0 0 0-2.752-.208c-1.11 0-1.856.139-2.24.416-.384.277-.576.63-.576 1.056 0 .384.144.747.432 1.088.288.341.827.725 1.616 1.152l2.144 1.152c1.792.939 3.099 1.957 3.92 3.056.821 1.099 1.232 2.405 1.232 3.92 0 2.027-.699 3.6-2.096 4.72-1.397 1.12-3.685 1.68-6.864 1.68Z"/></svg>