<svg xmlns="http://www.w3.org/2000/svg" viewBox="0 0 950 756"><g fill="none" fill-rule="evenodd"><path fill="#26282C" d="M579.784 353.724c-.394 8.081-2.156 16.058-2.44 24.144-.28 8.085 1.113 16.632 6.244 22.943 4.102 5.046 10.288 8.2 16.724 9.439 17.161 3.306 35.325-7.277 42.932-22.804 7.61-15.528 5.508-34.634-3.057-49.668-8.567-15.034-22.928-26.266-38.687-33.74-8.295-3.934-17.103-6.923-26.19-8.446-5.98-1.002-22.44-3.507-14.243 6.223 12.344 14.654 19.659 32.644 18.717 51.91"/><path fill="#3D3D40" d="m1.389 140.763 17.528 5.755h171.385v-16.615H18.917L1.39 135.659c-1.852 1.19-1.852 3.913 0 5.104"/><path fill="#828284" d="m33.644 146.518-9.479-16.615H31.3l9.479 16.615zM48.747 146.518l-9.478-16.615h7.134l9.479 16.615zM63.851 146.518l-9.479-16.615h7.135l9.479 16.615zM78.954 146.518l-9.479-16.615h7.135l9.479 16.615zM94.057 146.518l-9.478-16.615h7.134l9.479 16.615zM1.44 140.763l18.194 5.755v-16.615l-18.193 5.756a2.98 2.98 0 0 0 0 5.104"/><path fill="#6D6D6F" d="M215.978 54.524v165.863c0 9.283 7.488 16.762 16.784 16.762h57.222V37.762h-57.222c-9.296 0-16.784 7.479-16.784 16.762"/><path fill="#8E8E90" d="M231.48 52.867h58.504v170.687h-58.503c-8.563 0-15.503-6.953-15.503-15.529V68.397c0-8.577 6.94-15.53 15.503-15.53"/><path fill="#C6C6C7" d="M229.87 69.483h60.114v37.468h-64.658c-5.164 0-9.348 4.189-9.348 9.358V83.386c0-7.68 6.219-13.904 13.891-13.904"/><path fill="#4C4C4E" d="M215.978 206.939h-51.352V69.483h51.352z"/><path fill="#777779" d="M108.744 100.686v73.54c0 8.752 6.348 16.003 14.642 17.349.922.207 1.844.258 2.817.258h36.913V83.078h-36.913c-9.626 0-17.46 7.871-17.46 17.608"/><path fill="#909092" d="M124.546 93.651h38.57v89.12h-38.57c-8.727 0-15.802-7.137-15.802-15.94V109.59c0-8.804 7.075-15.939 15.802-15.939"/><path fill="#C1C1C2" d="M122.593 104.225h40.523v22.21h-46.301c-4.457 0-8.071 3.582-8.071 8V117.95c0-7.581 6.2-13.726 13.85-13.726"/><path fill="#B4B5B8" d="M265.819 47.459v177.828c0 4.126.574 8.097 1.775 11.862h22.39V37.762h-23.173c-.627 3.147-.992 6.395-.992 9.697"/><path fill="#6D6D6F" d="M215.978 131.413h-51.352V96.672h51.352z"/><path fill="#26282C" d="M842.766 268.414s-3.28.469-7.985 2.568c-16.337 7.29-49.868 34.244-23.072 129.547 34.514 122.755-124.507-95.038-124.507-95.038l15.556-119.7 140.008 82.623Z"/><path fill="#3D3D40" d="m468.204 207.568 71.835 69.411h.052l70.644 68.274 43.163 77.895 90.26 162.926s57.6-35.532 112.202-35.532c0-31.655-7.401-63.775-18.941-94.499-3.054-8.172-6.367-16.24-9.99-24.154-17.596-39.102-40.73-75.153-61.949-104.118-31.157-42.464-27.016-99.928 10.505-137.427l4.555-4.552-312.336 21.776Z"/><path fill="#EC9C00" d="M283.943 64.65v147.137c0 31.522 25.502 57.082 56.955 57.082H828.55c55.403 0 100.304-45.002 100.304-100.529 0-18.923-3.104-37.07-8.846-54.023-7.14-21.152-18.364-40.387-32.797-56.821-2.38-2.8-4.914-5.547-7.553-8.192C849.243 18.87 807.29 0 760.89 0h-412.44c-35.59 0-64.506 28.98-64.506 64.65"/><g fill="#FFBA1B"><path d="M333.877 96.985a4.823 4.823 0 0 0 4.819 4.815 4.823 4.823 0 0 0 4.819-4.815 4.823 4.823 0 0 0-4.819-4.815 4.823 4.823 0 0 0-4.819 4.815m19.67-7.976a16.73 16.73 0 0 1 2.015 7.976c0 .908-.092 1.791-.231 2.66-6.482 1.202-11.445 6.734-11.78 13.473a16.751 16.751 0 0 1-9.71 0c-.335-6.739-5.298-12.271-11.78-13.472-.14-.87-.231-1.753-.231-2.66 0-2.882.73-5.6 2.014-7.977a68.568 68.568 0 0 1 29.704 0"/><path d="M338.696 116.245c10.628 0 19.275-8.64 19.275-19.26 0-10.619-8.647-19.26-19.275-19.26-10.628 0-19.275 8.641-19.275 19.26 0 10.62 8.647 19.26 19.275 19.26m28.913-19.26c0 15.93-12.97 28.89-28.913 28.89s-28.913-12.96-28.913-28.89 12.97-28.889 28.913-28.889 28.913 12.96 28.913 28.89Z"/></g><path fill="#FFD85C" d="M348.449 0h412.44c46.402 0 88.354 18.824 118.772 49.178a140.792 140.792 0 0 1 7.552 8.171c14.432 16.393 25.658 35.579 32.796 56.678 5.742 16.91 8.846 35.01 8.846 53.884 0 2.977-.19 5.908-.445 8.817-.955-12.314-3.77-24.193-8.4-35.414-7.139-17.364-18.365-33.152-32.797-46.644a128.193 128.193 0 0 0-7.552-6.724c-30.418-24.983-72.37-40.474-118.772-40.474h-412.44c-35.59 0-64.506 23.79-64.506 53.07V64.485C283.943 28.907 312.859 0 348.449 0"/><path fill="#C36800" d="M340.898 235.003H828.55c50.37 0 91.937-37.125 99.097-85.463.712 6.277 1.207 12.623 1.207 19.1 0 55.361-44.901 100.229-100.304 100.229H340.898c-31.453 0-56.955-25.483-56.955-56.912V178.09c0 31.429 25.502 56.912 56.955 56.912" opacity=".489"/><path fill="#3D3D40" d="M364.247 38.105c0 .415.052.882.103 1.297 2.742 23.018 18.414 42.253 34.292 59.155 48.62 51.637 106.083 94.824 169.132 127.227-4.397 15.244-10.758 29.656-18.672 43.085h89.22c7.915-13.429 14.276-27.841 18.674-43.085-62.998-32.403-120.514-75.59-169.133-127.227-15.878-16.902-31.55-36.137-34.24-59.155a10.942 10.942 0 0 1-.103-1.297c-.776-7.569.052-15.242 2.171-22.552 1.655-5.496 4.087-10.732 7.139-15.553h-89.221c-3.052 4.82-5.482 10.109-7.086 15.553-2.173 7.31-3 14.983-2.276 22.552"/><path fill="#26282C" d="m848.808 491.24-118.059-.327-28.444 17.839 11.457 20.925 24.285 15.613z"/><path fill="#FFF" d="M315.66 43.127c5.431-3.346 11.898-5.28 18.778-5.28h434.986c27.002 0 52.246 7.11 73.816 19.552h16.14c-24.883-26.035-59.8-42.294-98.388-42.294H348.56c-16.451 0-30.159 12.13-32.901 28.022" opacity=".25"/><path fill="#8E8E90" d="M364.248 37.763h89.691c-.78-7.605.052-15.314 2.182-22.658h-89.587c-2.183 7.344-3.014 15.053-2.286 22.658"/><path fill="#777779" d="m619.675 612.752 3.048 14.856 16.111 78.871 6.455 31.517c2.376 11.658 13.787 19.19 25.459 16.817l256.91-52.408c14.1-2.89 23.187-16.662 20.296-30.693l-4.337-21.149-4.752-23.316-2.684-13.153-4.804-23.369-2.685-13.153-3.046-14.959a25.156 25.156 0 0 0-3.1-8.098c-5.524-9.234-16.472-14.444-27.575-12.174l-15.08 3.095-8.985-43.846-22.879-9.167-110.095 22.269a21.964 21.964 0 0 0-8.261 3.611l-101.423 72.63c-6.92 4.951-10.277 13.514-8.573 21.82"/><path fill="#3D3D40" d="m641.892 719.197 3.783 18.664c2.385 11.749 13.84 19.34 25.553 16.949l257.864-52.821c14.15-2.912 23.272-16.793 20.37-30.933l-2.54-12.478c-3.888 5.562-9.797 9.774-17.001 11.23l-268.28 54.951c-7.36 1.508-14.618-.78-19.749-5.562M746.015 652.536c-5.595 0-10.566-3.925-11.758-9.556-1.293-6.456 2.901-12.757 9.375-14.1l187.958-38.274 4.818 23.399-188.01 38.273c-.829.155-1.606.258-2.383.258M734.497 668.382l204.716-41.524 4.746 23.17-204.715 41.525c-.774.205-1.6.256-2.373.256-5.52 0-10.524-3.844-11.66-9.483-1.34-6.409 2.838-12.663 9.286-13.944"/><path fill="#26282C" d="m880.525 545.512-186.418 45.094-6.905-25.924 184.342-63.196z"/><path fill="#B4B5B8" d="M199.502 69.483h16.476v137.456h-25.676s30.756-82.344 9.2-137.456M123.848 191.575c.946.207 1.892.258 2.89.258h37.889V83.078h-25.801c32.265 42.258-11.825 104.25-14.978 108.497"/><path fill="#26282C" d="M942.449 161.624H804.735a87.279 87.279 0 0 0-54.385 19.02l-12.201 9.72a76.252 76.252 0 0 1-47.513 16.619H547.728a87.294 87.294 0 0 0-61.775 25.626l-44.935 45.004h400.928s82.386 12.311 100.503-115.99"/><path fill="#4C4C4E" d="M805.07 192.225c-16.178 0-32.068 5.538-44.732 15.589l-12.195 9.682c-16.193 12.852-36.501 19.93-57.195 19.93H548.013c-19.19 0-37.235 7.456-50.804 20.996l-2.903 2.894h-15.53l18.433-18.393c13.57-13.54 31.614-20.995 50.804-20.995h142.935c20.694 0 41.002-7.077 57.195-19.929l12.195-9.684c12.664-10.05 28.554-15.587 44.733-15.587h119.253a206.492 206.492 0 0 1-3.926 15.497H805.07Z"/><path fill="#C36800" d="M360.97 268.869H494.57l56.703-61.93s-130.162 1.038-190.302 61.93" opacity=".489"/><path fill="#3D3D40" d="M428.934 81.567H639.97c10.095 0 13.172-13.716 4.046-18.04l-12.928-6.128H428.934v24.168Zm31.717 33.231h147.6c10.095 0 13.174-13.729 4.047-18.058l-.145-.068H460.651v18.126ZM421.071 163.134h-86.28c-8.898 0-16.11 7.107-16.11 15.874 0 6.35 3.84 12.09 9.764 14.591l17.818 7.524a16.304 16.304 0 0 0 6.347 1.284h78.308c15.35 0 22.003-19.149 9.873-28.418l-9.846-7.525a16.27 16.27 0 0 0-9.874-3.33"/><path fill="#FFF498" d="m328.447 189.448 17.821 7.723a15.94 15.94 0 0 0 6.347 1.318h78.32c9.125 0 15.136-6.95 15.996-14.58 1.132 8.991-5.316 18.498-15.996 18.498h-78.32c-2.181 0-4.342-.45-6.347-1.318l-17.821-7.723c-5.925-2.569-9.766-8.46-9.766-14.978 0-.568.11-1.106.165-1.66.774 5.592 4.37 10.452 9.6 12.72"/><path fill="#FFDB66" d="M691.732 82.322c0 9.595 7.777 17.371 17.37 17.371 9.591 0 17.368-7.776 17.368-17.37 0-9.595-7.777-17.371-17.368-17.371-9.593 0-17.37 7.776-17.37 17.37"/><path fill="#3D3D40" d="M696.264 83.078c0 6.674 5.41 12.084 12.083 12.084 6.672 0 12.082-5.41 12.082-12.085 0-6.674-5.41-12.084-12.082-12.084-6.674 0-12.083 5.41-12.083 12.085"/><path fill="#2F2F31" d="M641.892 333.82c0 10.012 8.115 18.127 18.123 18.127 10.01 0 18.125-8.115 18.125-18.127 0-10.011-8.115-18.125-18.125-18.125-10.008 0-18.123 8.114-18.123 18.125M702.305 385.933c0 17.935 14.539 32.476 32.472 32.476 17.935 0 32.473-14.54 32.473-32.476s-14.538-32.476-32.473-32.476c-17.933 0-32.472 14.54-32.472 32.476"/><path fill="#3D3D40" d="M658.308 170.884a4.479 4.479 0 0 0 6.335 0l42.391-42.395a4.48 4.48 0 1 0-6.335-6.336l-42.391 42.395a4.48 4.48 0 0 0 0 6.336M647.735 160.31a4.479 4.479 0 0 0 6.336 0l42.39-42.395a4.48 4.48 0 1 0-6.335-6.336l-42.39 42.396a4.48 4.48 0 0 0 0 6.336M638.673 151.248a4.479 4.479 0 0 0 6.336 0l42.39-42.396a4.48 4.48 0 1 0-6.335-6.336l-42.39 42.396a4.48 4.48 0 0 0 0 6.336M628.1 140.674a4.479 4.479 0 0 0 6.336 0l42.391-42.395a4.48 4.48 0 1 0-6.336-6.336l-42.39 42.395a4.48 4.48 0 0 0 0 6.336"/><path fill="#C36800" d="M753.657 86.099c0 15.85 12.722 28.699 28.415 28.699h137.721a169.054 169.054 0 0 0-32.874-57.399H782.072c-15.693 0-28.415 12.85-28.415 28.7" opacity=".489"/><path fill="#E8D0A9" d="M778.385 67.892c-8.378 0-15.982 2.908-21.708 7.633 4.196-10.623 14.353-18.126 26.237-18.126h104.443c2.902 3.375 5.637 6.894 8.27 10.493H778.386Z"/><path fill="#FFAC1B" d="m540.7 276.421 70.45 68.438 43.043 78.081 23.947-63.822-37.934-53.558z"/><path fill="#B67400" d="M755.167 444.112c0 3.365 1.339 6.365 3.5 8.54a11.91 11.91 0 0 0 8.497 3.519h69.561c-3.038-8.177-6.334-16.252-9.939-24.168h-59.622c-6.643 0-11.997 5.433-11.997 12.11"/><path fill="#A3A3A4" d="M910.731 568.706s-4.3-17.973-26.665-13.694c-22.365 4.28-233.112 52.209-233.112 52.209l259.777-38.515Z"/><path fill="#26282C" d="m622.258 627.687 16.11 79.227c18.383-3.731 32.22-20.105 32.22-39.639 0-22.282-18.02-40.418-40.275-40.418-2.736 0-5.473.26-8.055.83M678.139 359.499l-24.165 63.903 14.846 26.727z"/></g></svg>