<svg xmlns="http://www.w3.org/2000/svg" viewBox="0 0 640 510"><g fill="none" fill-rule="evenodd">

<path fill="#26282C" d="M249.409 238.392c.265 5.446 1.452 10.822 1.643 16.272.19 5.449-.75 11.209-4.206 15.462-2.763 3.4-6.93 5.526-11.266 6.361-11.562 2.229-23.798-4.903-28.923-15.368-5.126-10.465-3.71-23.342 2.06-33.474 5.77-10.132 15.446-17.702 26.062-22.74 5.589-2.65 11.522-4.665 17.644-5.691 4.028-.675 15.117-2.364 9.595 4.194-8.316 9.876-13.244 22-12.61 34.984"/>

<path fill="#3D3D40" d="m639.065 94.867-11.809 3.879H511.797V87.548h115.46l11.808 3.88c1.247.802 1.247 2.636 0 3.439"/>

<path fill="#828284" d="m617.334 98.746 6.386-11.198h-4.806l-6.386 11.198zM607.159 98.746l6.386-11.198h-4.807l-6.385 11.198zM596.984 98.746l6.386-11.198h-4.807l-6.385 11.198zM586.81 98.746l6.386-11.198h-4.807l-6.386 11.198zM576.635 98.746l6.386-11.198h-4.807l-6.386 11.198zM639.03 94.867l-12.257 3.879V87.548l12.256 3.88a2.009 2.009 0 0 1 0 3.439"/>

<path fill="#6D6D6F" d="M494.499 36.746V148.53a11.28 11.28 0 0 1-11.308 11.296h-38.55V25.45h38.55A11.28 11.28 0 0 1 494.5 36.746"/>

<path fill="#8E8E90" d="M484.055 35.63h-39.413v115.034h39.413c5.768 0 10.444-4.686 10.444-10.465V46.096c0-5.78-4.676-10.466-10.444-10.466"/>

<path fill="#C6C6C7" d="M485.14 46.828h-40.498V72.08H488.2a6.301 6.301 0 0 1 6.298 6.306V56.199c0-5.176-4.19-9.371-9.359-9.371"/>

<path fill="#4C4C4E" d="M494.499 139.466h34.595V46.828h-34.595z"/>

<path fill="#777779" d="M566.74 67.857v49.562c0 5.899-4.276 10.786-9.864 11.692-.62.14-1.242.175-1.897.175h-24.868V55.99h24.868c6.485 0 11.762 5.305 11.762 11.867"/>

<path fill="#909092" d="M556.095 63.116h-25.984v60.062h25.984c5.88 0 10.646-4.81 10.646-10.742V73.858c0-5.933-4.767-10.742-10.646-10.742"/>

<path fill="#C1C1C2" d="M557.41 70.242h-27.299v14.969h31.193c3.002 0 5.437 2.414 5.437 5.391V79.493c0-5.11-4.177-9.251-9.33-9.251"/>

<path fill="#B4B5B8" d="M460.922 31.985v119.847c0 2.78-.387 5.457-1.196 7.994h-15.084V25.45h15.612c.422 2.12.668 4.31.668 6.535"/>

<path fill="#6D6D6F" d="M494.499 88.566h34.595V65.152h-34.595z"/>

<path fill="#26282C" d="M72.242 180.898s2.21.315 5.38 1.73c11.006 4.913 33.595 23.079 15.543 87.308-23.252 82.73 83.878-64.05 83.878-64.05l-10.48-80.672-94.32 55.684Z"/>

<path fill="#3D3D40" d="m324.579 139.89-48.394 46.78h-.035l-47.593 46.013-29.078 52.497-60.806 109.804s-38.805-23.947-75.589-23.947c0-21.334 4.986-42.98 12.76-63.687a245.704 245.704 0 0 1 6.73-16.279c11.854-26.352 27.439-50.649 41.734-70.17 20.99-28.619 18.2-67.346-7.077-92.619l-3.068-3.068 210.416 14.676Z"/>

<path fill="#EC9C00" d="M448.712 43.57v99.163c0 21.245-17.18 38.471-38.37 38.471H81.818c-37.324 0-67.573-30.329-67.573-67.751 0-12.754 2.091-24.983 5.959-36.409A112.57 112.57 0 0 1 42.299 38.75a94.351 94.351 0 0 1 5.088-5.52C67.878 12.718 96.142 0 127.401 0h277.855c23.976 0 43.456 19.531 43.456 43.57"/><g fill="#FFBA1B">

<path d="M415.073 65.363a3.25 3.25 0 0 1-3.247 3.245 3.25 3.25 0 0 1-3.246-3.245 3.25 3.25 0 0 1 3.246-3.245 3.25 3.25 0 0 1 3.247 3.245m-13.252-5.375a11.28 11.28 0 0 0-1.357 5.375c0 .612.062 1.207.156 1.793 4.366.81 7.71 4.538 7.936 9.08a11.29 11.29 0 0 0 6.541 0c.226-4.542 3.57-8.27 7.936-9.08.094-.586.156-1.181.156-1.793a11.28 11.28 0 0 0-1.357-5.375 46.176 46.176 0 0 0-20.011 0"/>

<path d="M411.826 78.343c-7.16 0-12.985-5.823-12.985-12.98s5.825-12.98 12.985-12.98c7.16 0 12.986 5.823 12.986 12.98s-5.826 12.98-12.986 12.98m-19.478-12.98c0 10.736 8.738 19.47 19.478 19.47 10.74 0 19.479-8.734 19.479-19.47 0-10.736-8.738-19.47-19.479-19.47-10.74 0-19.478 8.734-19.478 19.47Z"/></g>

<path fill="#FFD85C" d="M405.255 0H127.401c-31.26 0-59.523 12.686-80.015 33.144a94.873 94.873 0 0 0-5.088 5.506 112.208 112.208 0 0 0-22.094 38.198c-3.868 11.397-5.96 23.595-5.96 36.315 0 2.007.13 3.982.3 5.943.644-8.3 2.541-16.305 5.66-23.868 4.81-11.702 12.372-22.342 22.094-31.435a86.373 86.373 0 0 1 5.088-4.532c20.492-16.837 48.755-27.278 80.015-27.278h277.854c23.977 0 43.457 16.034 43.457 35.768V43.46c0-23.978-19.48-43.46-43.457-43.46"/>

<path fill="#C36800" d="M410.342 158.38H81.818c-33.933 0-61.937-25.02-66.76-57.598-.48 4.23-.813 8.508-.813 12.873 0 37.31 30.25 67.549 67.573 67.549h328.524c21.19 0 38.37-17.174 38.37-38.356v-22.824c0 21.182-17.18 38.356-38.37 38.356" opacity=".489"/>

<path fill="#3D3D40" d="M394.613 25.681c0 .28-.035.594-.07.874-1.847 15.513-12.405 28.476-23.102 39.867-32.754 34.801-71.466 63.907-113.941 85.745 2.962 10.273 7.247 19.987 12.579 29.037h-60.106c-5.332-9.05-9.618-18.764-12.58-29.037 42.44-21.838 81.188-50.944 113.941-85.745 10.697-11.39 21.255-24.354 23.067-39.867.035-.28.07-.594.07-.874.523-5.101-.035-10.272-1.463-15.199A42.617 42.617 0 0 0 328.198 0h60.108c2.056 3.25 3.693 6.813 4.773 10.482 1.464 4.927 2.022 10.098 1.534 15.199"/>

<path fill="#26282C" d="m68.172 331.071 79.534-.221 19.162 12.023-7.718 14.102-16.36 10.523z"/>

<path fill="#FFF" d="M427.345 29.066a24.085 24.085 0 0 0-12.65-3.559H121.65c-18.19 0-35.197 4.792-49.728 13.177H61.049c16.763-17.546 40.286-28.504 66.283-28.504H405.18c11.083 0 20.317 8.175 22.165 18.886" opacity=".25"/>

<path fill="#8E8E90" d="M394.612 25.45h-60.424c.525-5.125-.035-10.32-1.47-15.27h60.353c1.471 4.95 2.031 10.145 1.541 15.27"/>

<path fill="#777779" d="m222.535 412.964-2.053 10.012-10.855 53.155-4.348 21.24c-1.6 7.858-9.288 12.933-17.151 11.335L15.05 473.385c-9.498-1.947-15.62-11.229-13.673-20.686L4.3 438.447l3.201-15.715 1.809-8.864 3.236-15.75 1.809-8.864 2.052-10.081a16.958 16.958 0 0 1 2.088-5.458c3.722-6.223 11.097-9.735 18.577-8.205l10.159 2.086 6.053-29.55 15.413-6.178 74.17 15.008a14.794 14.794 0 0 1 5.565 2.434l68.327 48.949a14.514 14.514 0 0 1 5.776 14.705"/>

<path fill="#3D3D40" d="m207.568 484.702-2.548 12.579c-1.607 7.918-9.324 13.034-17.215 11.422L14.086 473.105C4.554 471.142-1.592 461.787.363 452.258l1.711-8.41c2.62 3.749 6.6 6.587 11.453 7.568l180.737 37.035c4.958 1.016 9.848-.526 13.304-3.749M137.422 439.776a8.116 8.116 0 0 0 7.92-6.44c.872-4.351-1.953-8.598-6.315-9.503L12.403 398.038l-3.246 15.77 126.66 25.794a8.7 8.7 0 0 0 1.605.174M145.181 450.455 7.267 422.47 4.07 438.086l137.913 27.985c.522.138 1.078.173 1.6.173 3.718 0 7.089-2.59 7.854-6.39.903-4.32-1.911-8.535-6.256-9.399"/>

<path fill="#26282C" d="m46.804 367.647 125.587 30.391 4.652-17.471-124.189-42.591z"/>

<path fill="#B4B5B8" d="M505.6 46.828h-11.1v92.638h17.297s-20.72-55.495-6.198-92.638M556.566 129.111c-.637.14-1.275.175-1.947.175h-25.525V55.99h17.382c-21.737 28.48 7.966 70.259 10.09 73.121"/>

<path fill="#26282C" d="M5.088 108.926h92.775a58.784 58.784 0 0 1 36.638 12.819l8.22 6.551a51.357 51.357 0 0 0 32.008 11.2h96.276a58.797 58.797 0 0 1 41.616 17.27l30.273 30.33h-270.1s-55.502 8.298-67.706-78.17"/>

<path fill="#4C4C4E" d="M97.637 129.55c10.9 0 21.604 3.732 30.136 10.506l8.215 6.525c10.91 8.662 24.59 13.432 38.532 13.432h96.292c12.929 0 25.085 5.025 34.226 14.15l1.956 1.951h10.463l-12.419-12.396c-9.14-9.125-21.297-14.15-34.226-14.15H174.52c-13.941 0-27.623-4.77-38.532-13.43l-8.215-6.527c-8.532-6.774-19.237-10.505-30.136-10.505h-80.34a139.21 139.21 0 0 0 2.646 10.444h77.694Z"/>

<path fill="#C36800" d="M396.82 181.204h-90.003l-38.2-41.738s87.688.7 128.203 41.738" opacity=".489"/>

<path fill="#3D3D40" d="M351.034 54.972h-142.17c-6.802 0-8.874-9.244-2.727-12.158l8.71-4.13h136.187v16.288Zm-21.367 22.396h-99.435c-6.802 0-8.876-9.253-2.727-12.17l.097-.046h102.065v12.216ZM356.332 109.944h58.125c5.995 0 10.853 4.79 10.853 10.698 0 4.28-2.587 8.148-6.577 9.834l-12.004 5.07a10.98 10.98 0 0 1-4.276.866h-52.755c-10.34 0-14.823-12.905-6.651-19.152l6.633-5.072a10.958 10.958 0 0 1 6.652-2.244"/>

<path fill="#FFF498" d="m418.732 127.678-12.007 5.205c-1.35.586-2.806.888-4.275.888h-52.763c-6.148 0-10.197-4.684-10.777-9.826-.762 6.06 3.582 12.467 10.777 12.467h52.763c1.47 0 2.925-.303 4.275-.888l12.007-5.205c3.991-1.732 6.578-5.701 6.578-10.094 0-.384-.073-.746-.11-1.119-.522 3.768-2.944 7.044-6.468 8.572"/>

<path fill="#FFDB66" d="M173.99 55.481c0 6.466-5.238 11.707-11.7 11.707-6.462 0-11.701-5.24-11.701-11.707 0-6.466 5.239-11.707 11.7-11.707 6.463 0 11.702 5.24 11.702 11.707"/>

<path fill="#3D3D40" d="M170.938 55.99a8.142 8.142 0 0 1-8.14 8.144 8.142 8.142 0 0 1-8.14-8.144 8.142 8.142 0 0 1 8.14-8.144 8.142 8.142 0 0 1 8.14 8.144"/>

<path fill="#2F2F31" d="M207.567 224.978c0 6.747-5.467 12.216-12.21 12.216-6.743 0-12.21-5.469-12.21-12.216 0-6.747 5.467-12.216 12.21-12.216 6.743 0 12.21 5.469 12.21 12.216M166.868 260.099c0 12.088-9.794 21.887-21.876 21.887s-21.876-9.8-21.876-21.887c0-12.088 9.794-21.887 21.876-21.887s21.876 9.8 21.876 21.887"/>

<path fill="#3D3D40" d="M196.508 115.167a3.016 3.016 0 0 1-4.268 0L163.68 86.595a3.02 3.02 0 0 1 0-4.27 3.016 3.016 0 0 1 4.269 0l28.558 28.572a3.02 3.02 0 0 1 0 4.27M203.631 108.041a3.016 3.016 0 0 1-4.268 0L170.805 79.47a3.02 3.02 0 0 1 0-4.27 3.016 3.016 0 0 1 4.268 0l28.558 28.572a3.02 3.02 0 0 1 0 4.27M209.735 101.933a3.016 3.016 0 0 1-4.268 0L176.91 73.361a3.02 3.02 0 0 1 0-4.27 3.016 3.016 0 0 1 4.268 0l28.558 28.572a3.02 3.02 0 0 1 0 4.27M216.858 94.807a3.016 3.016 0 0 1-4.268 0l-28.558-28.572a3.02 3.02 0 0 1 0-4.27 3.016 3.016 0 0 1 4.268 0l28.558 28.572a3.02 3.02 0 0 1 0 4.27"/>

<path fill="#C36800" d="M132.273 58.026c0 10.682-8.57 19.342-19.143 19.342H20.35a113.945 113.945 0 0 1 22.147-38.684h70.633c10.572 0 19.143 8.66 19.143 19.342" opacity=".489"/>

<path fill="#E8D0A9" d="M115.614 45.756c5.644 0 10.767 1.96 14.624 5.144-2.827-7.16-9.67-12.216-17.675-12.216H42.201c-1.955 2.274-3.797 4.647-5.571 7.072h78.984Z"/>

<path fill="#FFAC1B" d="m275.739 186.294-47.461 46.123-28.997 52.623-16.133-43.013 25.556-36.095z"/>

<path fill="#B67400" d="M131.256 299.309c0 2.267-.902 4.29-2.358 5.755a8.022 8.022 0 0 1-5.724 2.372H76.312a246.416 246.416 0 0 1 6.696-16.288h40.166c4.475 0 8.082 3.662 8.082 8.16"/>

<path fill="#A3A3A4" d="M26.454 383.28s2.898-12.114 17.964-9.23c15.067 2.885 157.044 35.186 157.044 35.186L26.454 383.279Z"/>

<path fill="#26282C" d="m220.795 423.029-10.854 53.395c-12.384-2.515-21.706-13.55-21.706-26.715 0-15.016 12.14-27.239 27.133-27.239 1.843 0 3.687.175 5.427.559M183.148 242.284l16.28 43.067-10.001 18.013z"/></g></svg>