<svg xmlns="http://www.w3.org/2000/svg" viewBox="0 0 680 53">
<g fill="none" fill-rule="evenodd">
<path stroke="#2D3C53" stroke-linecap="square" stroke-width="2" d="M2 12h542M2 22h542M2 32h542M2 42h542"/>
<path fill="#2D3C53" fill-rule="nonzero" d="M603.531 34.712c4.833 0 8.75 3.87 8.75 8.644S608.364 52 603.531 52c-4.832 0-8.75-3.87-8.75-8.644s3.918-8.644 8.75-8.644Zm53.55 0c4.833 0 8.75 3.87 8.75 8.644a8.625 8.625 0 0 1-4.375 7.486 8.843 8.843 0 0 1-8.75 0 8.625 8.625 0 0 1-4.375-7.486c0-4.774 3.918-8.644 8.75-8.644ZM579.731.136l12.731 3.242a4.37 4.37 0 0 1 2.74 2.038 4.276 4.276 0 0 1 .41 3.364 4.352 4.352 0 0 1-3.28 3.112c-.542.146-.895.66-.832 1.21v2.81c-.001.395.217.76.569.95.346.22.79.22 1.137 0l21.569-15.084c.263 0 .788-.561 2.975-.561h21.875c4.968.006 9.506 2.783 11.725 7.174l4.856 9.508c.173.372.55.609.963.606h11.943a9.906 9.906 0 0 1 6.99 2.832A9.666 9.666 0 0 1 679 28.23v12.966c0 2.984-2.448 5.403-5.469 5.403h-2.406a1.1 1.1 0 0 1-.875-.39 1.24 1.24 0 0 1 0-.864c.045-.662.045-1.326 0-1.988 0-7.16-5.876-12.966-13.125-12.966S644 36.195 644 43.356a14.602 14.602 0 0 0 0 1.988 1.24 1.24 0 0 1 0 .865 1.1 1.1 0 0 1-.831.389h-25.55a1.1 1.1 0 0 1-.832-.39 1.24 1.24 0 0 1 0-.864c.046-.662.046-1.326 0-1.988 0-7.16-5.876-12.966-13.125-12.966-7.248 0-13.125 5.805-13.125 12.966a14.602 14.602 0 0 0 0 1.988c.037.305-.04.613-.218.865a1.1 1.1 0 0 1-.832.389h-11.112c-2.416 0-4.375-1.936-4.375-4.322 0-2.387 1.959-4.322 4.375-4.322.604 0 1.094-.484 1.094-1.081V23.907a5.349 5.349 0 0 1 2.756-4.668 1.12 1.12 0 0 0 .525-.95V10.81a1.04 1.04 0 0 0-.831-1.037l-4.375-1.124c-2.38-.596-3.82-2.986-3.216-5.337.604-2.351 3.023-3.774 5.403-3.177Zm59.894 9.725h-14a1.01 1.01 0 0 0-.875.475.984.984 0 0 0-.131.994l1.618 4.322c.657 1.804 2.438 2.966 4.375 2.853h14.307c.391.01.759-.188.962-.52a1.069 1.069 0 0 0 0-1.036l-2.318-4.668a4.38 4.38 0 0 0-3.938-2.42Z"/>
</g></svg>