<svg xmlns="http://www.w3.org/2000/svg" viewBox="0 0 673 320">
<g fill="#FFF">
<path d="M1.4 145V2.2h35.7l13.44 92.61L64.82 2.2h35.07V145H76.37V43.78L59.99 145h-23.1L20.51 42.94V145zM138.36 146.26c-8.68 0-15.435-2.415-20.265-7.245s-7.245-11.655-7.245-20.475V2.2h26.04v113.61c0 6.3 2.8 9.45 8.4 9.45h2.94c5.6 0 8.4-3.08 8.4-9.24V2.2h26.04v116.34c0 8.82-2.38 15.645-7.14 20.475-4.76 4.83-11.55 7.245-20.37 7.245h-16.8ZM193.63 145V2.2h26.04v121.17h30.45V145zM259.19 145V23.83h-21.63V2.2h69.3v21.63h-21.63V145zM311.94 145V2.2h26.04V145zM349.78 96.91v-21h55.44v21zM441.59 146.26c-8.54 0-15.295-2.345-20.265-7.035-4.97-4.69-7.455-11.585-7.455-20.685V69.19h26.04v46.62c0 6.3 2.73 9.45 8.19 9.45h1.05c5.46 0 8.19-3.08 8.19-9.24V2.2h26.04v116.34c0 9.1-2.45 15.995-7.35 20.685-4.9 4.69-11.69 7.035-20.37 7.035h-14.07Zm79.63 0c-8.54 0-15.295-2.345-20.265-7.035-4.97-4.69-7.455-11.585-7.455-20.685V28.66c0-9.1 2.485-15.995 7.455-20.685C505.925 3.285 512.68.94 521.22.94h17.22c8.68 0 15.47 2.345 20.37 7.035 4.9 4.69 7.35 11.585 7.35 20.685v89.88c0 9.1-2.45 15.995-7.35 20.685-4.9 4.69-11.69 7.035-20.37 7.035h-17.22Zm6.72-21h3.78c5.6 0 8.4-3.15 8.4-9.45V31.39c0-6.3-2.8-9.45-8.4-9.45h-3.78c-5.6 0-8.4 3.15-8.4 9.45v84.42c0 6.3 2.8 9.45 8.4 9.45ZM577.12 145V2.2h43.68c8.96 0 15.82 2.38 20.58 7.14 4.76 4.76 7.14 11.55 7.14 20.37v19.74c0 9.94-4.76 16.38-14.28 19.32 9.8 2.94 14.7 9.59 14.7 19.95v28.77c0 8.68-2.38 15.435-7.14 20.265S630.18 145 621.22 145h-44.1Zm36.96-122.43h-10.92v37.17h11.34c2.52 0 4.55-.735 6.09-2.205 1.54-1.47 2.31-3.955 2.31-7.455V32.02c0-6.3-2.94-9.45-8.82-9.45Zm.42 57.54h-11.34v44.52h10.92c5.88 0 8.82-3.22 8.82-9.66v-25.2c0-6.44-2.8-9.66-8.4-9.66ZM1.4 315V172.2h26.04V315zM39.24 315V172.2h30.03l22.89 94.92V172.2h19.74V315H81.87l-22.89-94.29V315zM151.63 316.26c-8.82 0-15.645-2.415-20.475-7.245-4.83-4.83-7.245-11.655-7.245-20.475V262.5h25.83v23.31c0 6.3 2.8 9.45 8.4 9.45h3.15c5.32 0 7.98-3.15 7.98-9.45v-16.17c0-3.5-.735-6.3-2.205-8.4-1.47-2.1-3.955-3.85-7.455-5.25l-15.33-6.09c-7.28-2.8-12.495-6.72-15.645-11.76-3.15-5.04-4.725-11.83-4.725-20.37v-19.11c0-8.96 2.38-15.82 7.14-20.58 4.76-4.76 11.62-7.14 20.58-7.14h15.75c8.96 0 15.82 2.38 20.58 7.14 4.76 4.76 7.14 11.62 7.14 20.58v24.15h-25.83v-21.42c0-6.3-2.8-9.45-8.4-9.45h-2.73c-5.6 0-8.4 3.15-8.4 9.45v13.23c0 3.36.735 6.02 2.205 7.98 1.47 1.96 4.025 3.71 7.665 5.25l14.28 5.67c7.56 3.08 12.985 6.965 16.275 11.655 3.29 4.69 4.935 11.305 4.935 19.845v23.52c0 8.82-2.38 15.645-7.14 20.475-4.76 4.83-11.62 7.245-20.58 7.245h-15.75Zm81.1 0c-8.68 0-15.435-2.415-20.265-7.245s-7.245-11.655-7.245-20.475V172.2h26.04v113.61c0 6.3 2.8 9.45 8.4 9.45h2.94c5.6 0 8.4-3.08 8.4-9.24V172.2h26.04v116.34c0 8.82-2.38 15.645-7.14 20.475-4.76 4.83-11.55 7.245-20.37 7.245h-16.8ZM288 315V172.2h44.1c8.68 0 15.47 2.345 20.37 7.035 4.9 4.69 7.35 11.585 7.35 20.685v32.76c0 11.48-3.92 19.53-11.76 24.15L363.39 315h-27.72l-12.39-54.39h-9.24V315H288Zm37.38-121.8h-11.34v46.41h11.34c2.66 0 4.725-.7 6.195-2.1 1.47-1.4 2.205-3.78 2.205-7.14v-27.72c0-6.3-2.8-9.45-8.4-9.45Z"/>
<path d="m362.59 315 26.67-142.8h30.03L445.96 315h-27.3l-4.2-26.46h-25.2L385.27 315h-22.68Zm29.82-47.25h18.9l-9.45-60.69-9.45 60.69ZM450.41 315V172.2h30.03l22.89 94.92V172.2h19.74V315h-30.03l-22.89-94.29V315zM561.75 316.26c-8.54 0-15.295-2.345-20.265-7.035-4.97-4.69-7.455-11.585-7.455-20.685v-89.88c0-9.1 2.45-15.995 7.35-20.685 4.9-4.69 11.69-7.035 20.37-7.035h14.91c8.68 0 15.47 2.345 20.37 7.035 4.9 4.69 7.35 11.585 7.35 20.685v30.45h-26.04v-27.72c0-6.3-2.87-9.45-8.61-9.45h-1.26c-5.6 0-8.4 3.15-8.4 9.45v84.42c0 6.3 2.8 9.45 8.4 9.45h1.47c5.6 0 8.4-3.15 8.4-9.45v-27.72h26.04v30.45c0 9.1-2.45 15.995-7.35 20.685-4.9 4.69-11.69 7.035-20.37 7.035h-14.91ZM614.08 315V172.2h57.54v21.63h-31.5v36.96h27.93v21.63h-27.93v40.95h33.6V315z"/></g></svg>