<svg xmlns="http://www.w3.org/2000/svg" viewBox="0 0 470 29"><path fill="#FFF" d="M11.522 28.78c-1.608 0-3.073-.239-4.397-.715a8.037 8.037 0 0 1-3.405-2.357c-.946-1.094-1.676-2.572-2.19-4.434-.513-1.862-.77-4.184-.77-6.967v-.613c0-2.882.452-5.29 1.355-7.227.903-1.936 2.143-3.395 3.72-4.379C7.413 1.105 9.21.613 11.225.613c3.167 0 5.697 1.058 7.59 3.173 1.892 2.115 2.838 5.338 2.838 9.667v.631c0 3.439-.408 6.24-1.224 8.405-.817 2.165-1.98 3.754-3.489 4.769-1.509 1.014-3.315 1.521-5.418 1.521Zm3.971-13.527c0-2.462-.396-4.376-1.187-5.743-.792-1.367-1.8-2.05-3.025-2.05-1.534 0-2.625.702-3.275 2.106-.65 1.404-.974 3.213-.974 5.427v.316c0 2.078.371 3.741 1.114 4.99.742 1.25 1.867 1.875 3.376 1.875 1.51 0 2.549-.51 3.118-1.53.569-1.021.853-2.707.853-5.057v-.334Zm26.7 9.76c-.037 1.274-.315 2.19-.835 2.746s-1.206.835-2.06.835c-.816 0-1.53-.294-2.142-.882-.613-.587-1.19-1.586-1.735-2.996l-4.62-9.908c-.285-.705-.637-1.058-1.058-1.058-.235 0-.424.108-.566.325-.142.216-.213.603-.213 1.16 0 1.508.018 3.03.056 4.564.037 1.534.055 3.043.055 4.527v.26c0 1.521-.256 2.564-.77 3.126-.513.563-1.184.845-2.013.845-.606 0-1.123-.136-1.55-.409-.426-.272-.745-.77-.955-1.493-.21-.724-.297-1.747-.26-3.071l.594-18.202c.062-1.806.387-3.003.974-3.59.588-.588 1.315-.882 2.18-.882.916 0 1.655.322 2.218.965s1.178 1.775 1.846 3.396l3.97 8.386c.21.458.406.776.585.956.18.18.38.269.603.269a.59.59 0 0 0 .52-.278c.123-.186.185-.526.185-1.021 0-.854-.025-1.658-.074-2.412-.05-.755-.108-1.58-.176-2.477-.068-.897-.133-1.97-.195-3.22v-.463c-.05-1.522.207-2.607.77-3.257.563-.649 1.296-.974 2.199-.974.977 0 1.713.371 2.208 1.114.494.742.71 2.152.649 4.23l-.39 18.889Zm3.192-16.774c-.013-2.028.164-3.578.529-4.648.364-1.07.992-1.8 1.883-2.19.89-.389 2.103-.565 3.637-.528l5.64.26c1.175.012 2.05.256 2.626.733.575.476.862 1.085.862 1.827 0 .73-.238 1.308-.714 1.735-.476.427-1.265.677-2.366.752l-4.156.148c-.791.05-1.314.189-1.568.418-.253.228-.392.67-.417 1.326l-.112 1.93c-.024.742.106 1.262.39 1.559.285.296.823.457 1.614.482l3.322.148c1.917.075 2.876.792 2.876 2.153 0 .73-.242 1.268-.724 1.614-.482.346-1.181.55-2.097.612l-2.95.093c-.928.05-1.586.263-1.976.64-.39.378-.541 1.036-.455 1.976l.186 1.837c.062.656.16 1.154.297 1.494.136.34.377.569.724.686.346.118.865.183 1.558.195l2.95.019c1.287.05 2.215.266 2.784.65.569.383.853.94.853 1.67 0 .902-.312 1.592-.937 2.068s-1.692.745-3.2.807l-4.342-.037c-1.336.05-2.422-.025-3.257-.223s-1.472-.587-1.91-1.169c-.44-.581-.746-1.41-.92-2.486-.173-1.076-.272-2.468-.296-4.175L45.385 8.24ZM68.56 7.237c-.025-1.744.083-3.07.324-3.98.241-.909.594-1.524 1.058-1.846.464-.321 1.011-.482 1.642-.482.841 0 1.494.297 1.958.89.463.594.701 1.658.714 3.192l-.149 3.933c-.024.767.034 1.271.177 1.513.142.24.343.361.603.361.482 0 1.051-.426 1.707-1.28 1.002-1.25 2.109-3.191 3.321-5.826.433-1.027.915-1.738 1.447-2.134.532-.396 1.194-.6 1.986-.612.717-.013 1.323.2 1.818.64.495.44.742 1.08.742 1.92 0 .743-.173 1.485-.52 2.227-.742 1.497-1.524 2.833-2.346 4.008-.823 1.175-1.58 2.146-2.273 2.913-.458.52-.774.955-.947 1.308-.173.352-.26.727-.26 1.122 0 .347.062.693.186 1.04.124.346.365.797.724 1.354.507.792 1.16 1.614 1.957 2.468.798.853 1.785 1.775 2.96 2.764.742.693 1.243 1.271 1.503 1.735.26.464.39.987.39 1.568 0 .643-.23 1.21-.687 1.698-.458.489-1.101.733-1.93.733-.63 0-1.178-.12-1.642-.362a5.934 5.934 0 0 1-1.382-1.03c-1.237-1.064-2.227-2.062-2.97-2.996a35.058 35.058 0 0 1-2.022-2.811c-.358-.582-.63-.962-.816-1.141-.186-.18-.383-.27-.594-.27-.26 0-.47.121-.63.362-.161.242-.254.702-.279 1.383l-.13 3.377c-.025 1.385-.25 2.344-.677 2.876-.427.531-1.024.797-1.79.797a2.376 2.376 0 0 1-1.466-.473c-.421-.315-.755-.909-1.002-1.781-.248-.872-.39-2.137-.427-3.794L68.56 7.237Zm19.278-1.78c-.05-1.708.17-2.899.659-3.573.488-.674 1.184-1.011 2.087-1.011.878 0 1.565.297 2.06.89.494.594.773 1.745.835 3.452l.39 18.258c.061 2.004-.18 3.349-.724 4.035-.545.687-1.275 1.03-2.19 1.03-.89 0-1.583-.325-2.078-.974-.495-.65-.773-1.852-.835-3.609l-.204-18.499Zm27.35 19.556c-.038 1.274-.316 2.19-.835 2.746-.52.556-1.207.835-2.06.835-.816 0-1.53-.294-2.143-.882-.612-.587-1.19-1.586-1.735-2.996l-4.62-9.908c-.285-.705-.637-1.058-1.058-1.058-.235 0-.423.108-.566.325-.142.216-.213.603-.213 1.16 0 1.508.019 3.03.056 4.564.037 1.534.055 3.043.055 4.527v.26c0 1.521-.256 2.564-.77 3.126-.513.563-1.184.845-2.013.845-.606 0-1.122-.136-1.55-.409-.426-.272-.744-.77-.955-1.493-.21-.724-.297-1.747-.26-3.071l.594-18.202c.062-1.806.387-3.003.974-3.59.588-.588 1.315-.882 2.18-.882.916 0 1.655.322 2.218.965s1.178 1.775 1.846 3.396l3.97 8.386c.211.458.406.776.585.956.18.18.38.269.603.269a.59.59 0 0 0 .52-.278c.123-.186.185-.526.185-1.021 0-.854-.024-1.658-.074-2.412-.05-.755-.108-1.58-.176-2.477-.068-.897-.133-1.97-.195-3.22v-.463c-.05-1.522.207-2.607.77-3.257.563-.649 1.296-.974 2.199-.974.977 0 1.713.371 2.208 1.114.495.742.711 2.152.65 4.23l-.39 18.889Zm3.32-17.776c-.024-1.744.084-3.07.325-3.98.242-.909.594-1.524 1.058-1.846.464-.321 1.011-.482 1.642-.482.841 0 1.494.297 1.958.89.464.594.702 1.658.714 3.192l-.148 3.933c-.025.767.034 1.271.176 1.513.142.24.343.361.603.361.482 0 1.051-.426 1.707-1.28 1.002-1.25 2.109-3.191 3.321-5.826.433-1.027.916-1.738 1.448-2.134.531-.396 1.193-.6 1.985-.612.717-.013 1.323.2 1.818.64.495.44.742 1.08.742 1.92 0 .743-.173 1.485-.52 2.227-.741 1.497-1.524 2.833-2.346 4.008-.823 1.175-1.58 2.146-2.273 2.913-.458.52-.773.955-.947 1.308-.173.352-.26.727-.26 1.122 0 .347.063.693.186 1.04.124.346.365.797.724 1.354.507.792 1.16 1.614 1.957 2.468.798.853 1.785 1.775 2.96 2.764.742.693 1.243 1.271 1.503 1.735.26.464.39.987.39 1.568 0 .643-.23 1.21-.687 1.698-.458.489-1.101.733-1.93.733-.63 0-1.178-.12-1.642-.362a5.934 5.934 0 0 1-1.382-1.03c-1.237-1.064-2.227-2.062-2.969-2.996a35.058 35.058 0 0 1-2.022-2.811c-.36-.582-.631-.962-.817-1.141-.185-.18-.383-.27-.594-.27-.26 0-.47.121-.63.362-.161.242-.254.702-.279 1.383l-.13 3.377c-.024 1.385-.25 2.344-.677 2.876-.427.531-1.023.797-1.79.797a2.376 2.376 0 0 1-1.466-.473c-.42-.315-.755-.909-1.002-1.781-.248-.872-.39-2.137-.427-3.794l-.278-15.364Zm25.57-1.78c-.05-1.708.17-2.899.658-3.573.488-.674 1.184-1.011 2.087-1.011.878 0 1.565.297 2.06.89.495.594.773 1.745.835 3.452l.39 18.258c.061 2.004-.18 3.349-.724 4.035-.544.687-1.274 1.03-2.19 1.03-.89 0-1.583-.325-2.078-.974-.495-.65-.773-1.852-.835-3.609l-.204-18.499Zm27.349 19.556c-.037 1.274-.316 2.19-.835 2.746-.52.556-1.206.835-2.06.835-.816 0-1.53-.294-2.143-.882-.612-.587-1.19-1.586-1.735-2.996l-4.62-9.908c-.284-.705-.637-1.058-1.057-1.058-.235 0-.424.108-.566.325-.143.216-.214.603-.214 1.16 0 1.508.019 3.03.056 4.564.037 1.534.056 3.043.056 4.527v.26c0 1.521-.257 2.564-.77 3.126-.514.563-1.185.845-2.014.845-.606 0-1.122-.136-1.549-.409-.427-.272-.745-.77-.955-1.493-.21-.724-.297-1.747-.26-3.071l.593-18.202c.062-1.806.387-3.003.975-3.59.587-.588 1.314-.882 2.18-.882.915 0 1.654.322 2.217.965.563.643 1.178 1.775 1.846 3.396l3.971 8.386c.21.458.405.776.584.956.18.18.38.269.603.269a.59.59 0 0 0 .52-.278c.124-.186.186-.526.186-1.021 0-.854-.025-1.658-.075-2.412-.05-.755-.108-1.58-.176-2.477-.068-.897-.133-1.97-.195-3.22v-.463c-.05-1.522.207-2.607.77-3.257.563-.649 1.296-.974 2.199-.974.977 0 1.713.371 2.208 1.114.495.742.711 2.152.65 4.23l-.39 18.889Zm19.946-.724c-.037 2.981-.971 4.472-2.802 4.472-1.051 0-1.781-.337-2.19-1.011-.407-.675-.593-1.73-.556-3.164l.427-15.864c.025-.73-.096-1.24-.362-1.531-.266-.29-.733-.436-1.4-.436l-1.93.037c-.879-.012-1.55-.285-2.014-.816-.463-.532-.695-1.225-.695-2.079 0-.99.324-1.74.974-2.254.65-.513 1.568-.745 2.755-.696l11.114.334c.928.037 1.658.275 2.19.715.532.439.798 1.005.798 1.697 0 .718-.198 1.336-.594 1.856-.396.52-1.058.822-1.985.909l-1.893.13c-.569.05-.977.198-1.225.445-.247.248-.377.68-.39 1.299l-.222 15.957Zm26.05-1.317c-.049 2.09-.277 3.507-.686 4.249-.408.742-1.094 1.113-2.06 1.113-.84 0-1.453-.322-1.836-.965-.384-.643-.619-1.72-.705-3.228l-.112-4.268c-.05-.878-.232-1.521-.547-1.93-.315-.408-.813-.624-1.494-.65l-3.302-.129c-.644-.025-1.089.108-1.336.399-.248.29-.402.869-.464 1.735l-.297 4.991c-.136 1.534-.417 2.616-.844 3.247-.427.631-1.03.946-1.81.946-.519 0-.973-.145-1.363-.436-.39-.29-.702-.835-.937-1.632-.235-.798-.384-1.952-.445-3.46l-.26-16.552c-.05-1.447.04-2.563.269-3.349.229-.785.575-1.333 1.039-1.642.464-.31.999-.464 1.605-.464.73 0 1.336.27 1.818.807.483.538.786 1.525.91 2.96l.185 4.527c.062.742.201 1.277.417 1.605.217.328.61.492 1.179.492h3.58c.817 0 1.399-.136 1.745-.408.346-.272.538-.854.575-1.744l-.018-4.676c.086-1.324.355-2.252.807-2.783.451-.532 1.116-.798 1.994-.798.854 0 1.522.3 2.004.9.483.6.7 1.79.65 3.571l-.26 17.572Zm3.285-14.733c-.012-2.028.164-3.578.529-4.648.365-1.07.992-1.8 1.883-2.19.89-.389 2.103-.565 3.637-.528l5.64.26c1.176.012 2.05.256 2.626.733.575.476.863 1.085.863 1.827 0 .73-.238 1.308-.715 1.735-.476.427-1.264.677-2.365.752l-4.157.148c-.791.05-1.314.189-1.567.418-.254.228-.393.67-.418 1.326l-.111 1.93c-.025.742.105 1.262.39 1.559.284.296.822.457 1.614.482l3.32.148c1.918.075 2.877.792 2.877 2.153 0 .73-.241 1.268-.724 1.614-.482.346-1.181.55-2.096.612l-2.95.093c-.928.05-1.587.263-1.977.64-.39.378-.54 1.036-.454 1.976l.185 1.837c.062.656.161 1.154.297 1.494.136.34.377.569.724.686.346.118.866.183 1.558.195l2.95.019c1.287.05 2.215.266 2.784.65.569.383.853.94.853 1.67 0 .902-.312 1.592-.937 2.068-.624.476-1.691.745-3.2.807l-4.342-.037c-1.336.05-2.422-.025-3.257-.223s-1.472-.587-1.91-1.169c-.44-.581-.746-1.41-.92-2.486-.172-1.076-.271-2.468-.296-4.175l-.334-12.376Zm26.348 20.206c-.594 0-1.11-.16-1.55-.482-.439-.322-.785-.974-1.039-1.958-.253-.983-.411-2.452-.473-4.406l-.352-13.323c-.062-2.065.11-3.64.52-4.722.407-1.082 1.057-1.821 1.947-2.217.891-.396 2.035-.594 3.433-.594l1.8.074c3.327.025 5.845.795 7.552 2.31 1.707 1.516 2.56 3.566 2.56 6.151 0 2.87-.751 5.053-2.254 6.55-1.503 1.497-3.603 2.344-6.3 2.542l-.315.037c-1.113.074-1.877.319-2.292.733-.414.415-.627 1.222-.64 2.422l.112 2.764c-.013 1.645-.272 2.743-.78 3.294-.507.55-1.15.825-1.93.825Zm7.347-21.412c-.618-.594-1.54-.835-2.764-.723l-.186.018c-.792.062-1.323.275-1.596.64-.272.365-.408 1.061-.408 2.088v.798c0 1.162.155 1.932.464 2.31.31.377.773.59 1.392.64l.204.018c1.286.087 2.248-.173 2.885-.779.637-.606.956-1.435.956-2.486 0-1.101-.316-1.942-.947-2.524ZM288.878.706c.78 0 1.432.148 1.957.445.526.297 1 .838 1.42 1.624.42.785.86 1.902 1.317 3.349l5.084 16.996c.668 2.066.746 3.52.232 4.36-.513.842-1.339 1.262-2.477 1.262-1.484 0-2.492-.928-3.024-2.783l-.483-1.948c-.198-.742-.494-1.237-.89-1.485-.396-.247-1.058-.346-1.986-.297l-1.595.093c-1.2.05-2.048.226-2.542.53-.495.302-.879.936-1.15 1.9l-.112.446c-.384 1.324-.854 2.242-1.41 2.756-.557.513-1.33.763-2.32.751-1.274-.025-2.115-.581-2.523-1.67a3.16 3.16 0 0 1-.177-.822c-.109.643-.418 1.137-.927 1.48-.65.44-1.729.66-3.238.66a26.755 26.755 0 0 0-2.226.055c-.743.05-1.448.1-2.116.149a46.213 46.213 0 0 1-2.115.148c-1.076.025-1.948-.158-2.616-.547-.668-.39-1.157-1.073-1.466-2.05-.31-.978-.47-2.326-.482-4.046l-.223-15.66c0-1.496.136-2.64.408-3.432.272-.792.637-1.34 1.095-1.642a2.637 2.637 0 0 1 1.484-.455c.978 0 1.729.356 2.255 1.067.525.711.751 2.081.677 4.11l.019 13.804c-.025 1.324.151 2.205.528 2.645.378.439 1.172.621 2.385.547l2.653-.167c1.472-.1 2.499.083 3.08.547.472.377.753.936.841 1.676.091-.955.374-2.13.848-3.522l5.01-15.456c.717-2.115 1.45-3.547 2.198-4.295.748-.749 1.617-1.123 2.607-1.123Zm-.167 10.15a.749.749 0 0 0-.547.231c-.155.155-.282.449-.38.882l-.836 3.45c-.222.941-.207 1.553.047 1.838.253.284.665.427 1.234.427h.872c.767 0 1.258-.25 1.475-.752.216-.5.157-1.302-.177-2.403l-.816-2.672c-.111-.383-.232-.646-.362-.788a.658.658 0 0 0-.51-.214Zm30.17 14.157c-.037 1.274-.316 2.19-.835 2.746-.52.556-1.206.835-2.06.835-.816 0-1.53-.294-2.143-.882-.612-.587-1.19-1.586-1.735-2.996l-4.62-9.908c-.284-.705-.637-1.058-1.057-1.058-.235 0-.424.108-.566.325-.143.216-.214.603-.214 1.16 0 1.508.019 3.03.056 4.564.037 1.534.056 3.043.056 4.527v.26c0 1.521-.257 2.564-.77 3.126-.514.563-1.185.845-2.014.845-.606 0-1.122-.136-1.549-.409-.427-.272-.745-.77-.955-1.493-.21-.724-.297-1.747-.26-3.071l.594-18.202c.061-1.806.386-3.003.974-3.59.587-.588 1.314-.882 2.18-.882.915 0 1.654.322 2.217.965.563.643 1.178 1.775 1.846 3.396l3.971 8.386c.21.458.405.776.585.956.179.18.38.269.603.269a.59.59 0 0 0 .52-.278c.123-.186.185-.526.185-1.021 0-.854-.025-1.658-.075-2.412-.049-.755-.108-1.58-.176-2.477-.068-.897-.133-1.97-.195-3.22v-.463c-.05-1.522.208-2.607.77-3.257.563-.649 1.296-.974 2.2-.974.976 0 1.712.371 2.207 1.114.495.742.711 2.152.65 4.23l-.39 18.889Z"/></svg>