<svg xmlns="http://www.w3.org/2000/svg" viewBox="0 0 568 317">
  <path fill="#FFF" d="M34.28 146.26c-8.54 0-15.295-2.345-20.265-7.035-4.97-4.69-7.455-11.585-7.455-20.685V28.66c0-9.1 2.485-15.995 7.455-20.685C18.985 3.285 25.74.94 34.28.94H51.5c8.68 0 15.47 2.345 20.37 7.035 4.9 4.69 7.35 11.585 7.35 20.685v89.88c0 9.1-2.45 15.995-7.35 20.685-4.9 4.69-11.69 7.035-20.37 7.035H34.28Zm6.72-21h3.78c5.6 0 8.4-3.15 8.4-9.45V31.39c0-6.3-2.8-9.45-8.4-9.45H41c-5.6 0-8.4 3.15-8.4 9.45v84.42c0 6.3 2.8 9.45 8.4 9.45ZM91.68 145V2.2h30.03l22.89 94.92V2.2h19.74V145h-30.03l-22.89-94.29V145H91.68Zm85.96 0V2.2h57.54v21.63h-31.5v36.96h27.93v21.63h-27.93v40.95h33.6V145h-59.64Zm88.55 0V2.2h57.54v21.63h-31.5v36.96h26.46v21.63h-26.46V145h-26.04Zm92.26 1.26c-8.54 0-15.295-2.345-20.265-7.035-4.97-4.69-7.455-11.585-7.455-20.685V28.66c0-9.1 2.485-15.995 7.455-20.685C343.155 3.285 349.91.94 358.45.94h17.22c8.68 0 15.47 2.345 20.37 7.035 4.9 4.69 7.35 11.585 7.35 20.685v89.88c0 9.1-2.45 15.995-7.35 20.685-4.9 4.69-11.69 7.035-20.37 7.035h-17.22Zm6.72-21h3.78c5.6 0 8.4-3.15 8.4-9.45V31.39c0-6.3-2.8-9.45-8.4-9.45h-3.78c-5.6 0-8.4 3.15-8.4 9.45v84.42c0 6.3 2.8 9.45 8.4 9.45ZM415.85 145V2.2h44.1c8.68 0 15.47 2.345 20.37 7.035 4.9 4.69 7.35 11.585 7.35 20.685v32.76c0 11.48-3.92 19.53-11.76 24.15L491.24 145h-27.72l-12.39-54.39h-9.24V145h-26.04Zm37.38-121.8h-11.34v46.41h11.34c2.66 0 4.725-.7 6.195-2.1 1.47-1.4 2.205-3.78 2.205-7.14V32.65c0-6.3-2.8-9.45-8.4-9.45ZM22.31 315V193.83H.68V172.2h69.3v21.63H48.35V315H22.31Zm54.25 0V172.2h26.04v57.33h19.95V172.2h26.04V315h-26.04v-63.84H102.6V315H76.56Zm85.33 0V172.2h57.54v21.63h-31.5v36.96h27.93v21.63h-27.93v40.95h33.6V315h-59.64Zm88.55 0V172.2h44.1c8.68 0 15.47 2.345 20.37 7.035 4.9 4.69 7.35 11.585 7.35 20.685v32.76c0 11.48-3.92 19.53-11.76 24.15L325.83 315h-27.72l-12.39-54.39h-9.24V315h-26.04Zm37.38-121.8h-11.34v46.41h11.34c2.66 0 4.725-.7 6.195-2.1 1.47-1.4 2.205-3.78 2.205-7.14v-27.72c0-6.3-2.8-9.45-8.4-9.45Zm70.84 123.06c-8.54 0-15.295-2.345-20.265-7.035-4.97-4.69-7.455-11.585-7.455-20.685v-89.88c0-9.1 2.485-15.995 7.455-20.685 4.97-4.69 11.725-7.035 20.265-7.035h17.22c8.68 0 15.47 2.345 20.37 7.035 4.9 4.69 7.35 11.585 7.35 20.685v89.88c0 9.1-2.45 15.995-7.35 20.685-4.9 4.69-11.69 7.035-20.37 7.035h-17.22Zm6.72-21h3.78c5.6 0 8.4-3.15 8.4-9.45v-84.42c0-6.3-2.8-9.45-8.4-9.45h-3.78c-5.6 0-8.4 3.15-8.4 9.45v84.42c0 6.3 2.8 9.45 8.4 9.45ZM406.61 315l26.67-142.8h30.03L489.98 315h-27.3l-4.2-26.46h-25.2L429.29 315h-22.68Zm29.82-47.25h18.9l-9.45-60.69-9.45 60.69Zm59.5 47.25V172.2h44.1c8.68 0 15.47 2.345 20.37 7.035 4.9 4.69 7.35 11.585 7.35 20.685v87.36c0 9.1-2.45 15.995-7.35 20.685-4.9 4.69-11.69 7.035-20.37 7.035h-44.1Zm37.38-121.8h-11.34V294h11.34c5.6 0 8.4-3.08 8.4-9.24v-82.11c0-6.3-2.8-9.45-8.4-9.45Z"/>
</svg>