<svg xmlns="http://www.w3.org/2000/svg" viewBox="0 0 517 299"><g fill="#192833"><path d="M58.585 233.896c3.889 0 6.93 1.05 9.126 3.152 2.195 2.101 3.293 5.19 3.293 9.267v13.641H59.338v-12.418c0-2.823-1.286-4.234-3.857-4.234h-.565c-2.509 0-3.763 1.411-3.763 4.234v37.82c0 2.822 1.254 4.234 3.763 4.234h.659c2.509 0 3.763-1.412 3.763-4.234v-12.419h11.666v13.642c0 4.077-1.098 7.166-3.293 9.267-2.195 2.101-5.237 3.152-9.126 3.152h-6.68c-3.825 0-6.852-1.051-9.078-3.152-2.227-2.101-3.34-5.19-3.34-9.267v-40.266c0-4.077 1.098-7.166 3.293-9.267 2.195-2.101 5.237-3.152 9.126-3.152h6.68Zm-38.29 0c4.014 0 7.087 1.066 9.22 3.199 2.132 2.132 3.198 5.206 3.198 9.22v10.819H21.141v-9.596c0-2.823-1.254-4.234-3.763-4.234h-1.223c-2.509 0-3.763 1.411-3.763 4.234v5.927c0 1.505.33 2.697.988 3.575.658.878 1.803 1.662 3.434 2.352l6.397 2.54c3.387 1.38 5.817 3.12 7.291 5.221 1.474 2.102 2.211 5.065 2.211 8.891v10.537c0 3.951-1.066 7.009-3.198 9.173-2.133 2.164-5.206 3.246-9.22 3.246h-7.056c-3.952 0-7.01-1.082-9.173-3.246C1.902 293.59.82 290.532.82 286.58v-11.666h11.572v10.443c0 2.822 1.254 4.234 3.763 4.234h1.411c2.384 0 3.575-1.412 3.575-4.234v-7.244c0-1.568-.329-2.823-.987-3.763-.659-.941-1.772-1.725-3.34-2.352l-6.868-2.729c-3.262-1.254-5.598-3.01-7.009-5.268-1.411-2.258-2.117-5.3-2.117-9.126v-8.561c0-4.014 1.066-7.088 3.199-9.22 2.132-2.133 5.206-3.199 9.22-3.199h7.056Zm416.116 0c4.014 0 7.087 1.066 9.22 3.199 2.132 2.132 3.198 5.206 3.198 9.22v10.819h-11.572v-9.596c0-2.823-1.254-4.234-3.763-4.234h-1.223c-2.509 0-3.763 1.411-3.763 4.234v5.927c0 1.505.33 2.697.988 3.575.658.878 1.803 1.662 3.434 2.352l6.397 2.54c3.387 1.38 5.817 3.12 7.291 5.221 1.474 2.102 2.211 5.065 2.211 8.891v10.537c0 3.951-1.066 7.009-3.199 9.173-2.132 2.164-5.205 3.246-9.22 3.246h-7.055c-3.952 0-7.01-1.082-9.173-3.246-2.164-2.164-3.246-5.222-3.246-9.173v-11.666h11.572v10.443c0 2.822 1.254 4.234 3.763 4.234h1.411c2.384 0 3.575-1.412 3.575-4.234v-7.244c0-1.568-.329-2.823-.988-3.763-.658-.941-1.771-1.725-3.34-2.352l-6.867-2.729c-3.262-1.254-5.598-3.01-7.01-5.268-1.41-2.258-2.116-5.3-2.116-9.126v-8.561c0-4.014 1.066-7.088 3.199-9.22 2.132-2.133 5.205-3.199 9.22-3.199h7.056Zm-294.095.565v9.69h-14.112v16.558h12.513v9.69h-12.513v18.346h15.053v9.69H116.54v-63.974h25.777Zm15.336 0 3.386 44.97 5.74-44.97h10.254l5.645 45.252 3.387-45.252h10.066l-6.962 63.974h-13.547l-4.61-38.949-4.892 38.95h-13.266l-6.867-63.975h11.666Zm358.632 0v9.69h-9.69v54.284h-11.666v-54.284h-9.69v-9.69h31.046Zm-34.527 0v9.69h-14.112v16.558h12.513v9.69h-12.513v18.346h15.053v9.69h-26.719v-63.974h25.778Zm-94.644 0c3.888 0 6.93 1.05 9.125 3.151 2.196 2.101 3.293 5.19 3.293 9.267v14.677c0 5.143-1.756 8.75-5.268 10.819l6.868 26.06h-12.419l-5.55-24.367h-4.14v24.367h-11.666v-63.974h19.757Zm-289.767 0c3.889 0 6.93 1.05 9.126 3.151 2.195 2.101 3.293 5.19 3.293 9.267v14.677c0 5.143-1.756 8.75-5.269 10.819l6.868 26.06H98.946l-5.551-24.367h-4.14v24.367H77.59v-63.974h19.757Zm263.518 0v9.69h-14.112v16.558h12.513v9.69h-12.513v18.346h15.053v9.69h-26.719v-63.974h25.778Zm-53.343 0 6.397 46.946 6.398-46.946h10.537l-11.196 63.974h-13.83l-10.819-63.974h12.513Zm-100.91 0a40.324 40.324 0 0 0-1.916 7.193 4.35 4.35 0 0 1-.21.526l-.422.844v9.988c.273.47.563.886.618 1.322a9.741 9.741 0 0 0 .923 3.06c1.709 3.871 4.01 6.91 6.895 9.127l.001 22.506h5.08c2.51 0 3.764-1.38 3.764-4.14v-14.444a29.6 29.6 0 0 0 4.832.557h1.137c.795 0 1.41-.119 1.905-.301 1.296-.21 2.56-.493 3.792-.851v16.169c0 4.076-1.098 7.165-3.293 9.266-2.195 2.102-5.237 3.152-9.126 3.152h-19.757v-63.974Zm84.164 0v63.974h-11.666v-63.974h11.666Zm-30.859 0c3.89 0 6.931 1.05 9.126 3.151 2.195 2.101 3.293 5.19 3.293 9.267v14.677c0 5.143-1.756 8.75-5.268 10.819l6.867 26.06h-12.418l-5.55-24.367h-4.14v24.367H240.16v-31.732c2.41-1.461 4.676-3.29 6.804-5.499a48.692 48.692 0 0 0 4.862-6.425v9.881h5.08c1.192 0 2.117-.313 2.775-.94.659-.628.988-1.694.988-3.2v-12.418c0-2.787-1.223-4.198-3.67-4.233a56.844 56.844 0 0 0 1.411-4.745c.43-1.555.816-3.109 1.155-4.663h.351Zm-165.58 9.408h-5.08v20.791h5.08c1.191 0 2.116-.313 2.775-.94.659-.628.988-1.694.988-3.2v-12.418c0-2.822-1.255-4.233-3.763-4.233Zm289.766 0h-5.08v20.791h5.08c1.192 0 2.117-.313 2.775-.94.659-.628.988-1.694.988-3.2v-12.418c0-2.822-1.254-4.233-3.763-4.233Zm-163.511-9.408c3.889 0 6.93 1.05 9.126 3.151 2.195 2.101 3.293 5.19 3.293 9.267v8.707a18.836 18.836 0 0 1-3.083 2.358c-2.789 1.823-5.391 2.318-7.926 1.101a9.317 9.317 0 0 1-.658-.348v-10.595c0-2.822-1.254-4.233-3.763-4.233h-1.19c.26-1.817.76-3.638 1.491-5.469a40.92 40.92 0 0 1 1.819-3.94h.891Zm21.944 0a102.154 102.154 0 0 1-1.026 4.541 60.987 60.987 0 0 1-1.558 5.582l.208-.642v-9.481Z"/><path d="M354.682 100.128c.939.627 1.408 1.567 1.408 2.82 0 1.41.04 2.82.118 4.231.078 1.41-.04 2.82-.353 4.23a157.89 157.89 0 0 1-1.056 5.289 104.42 104.42 0 0 1-1.291 5.288c.626-.157 1.174-.235 1.643-.235.47 0 .94-.078 1.409-.235h3.521a24.26 24.26 0 0 0 2.348.352c.782.079 1.565.118 2.347.118a79.33 79.33 0 0 0 6.104.235h6.338c2.348-.313 4.54.078 6.574 1.175v.705c-1.722.784-4.07 1.175-7.043 1.175h-6.339a89.34 89.34 0 0 0-6.338.235c-2.035 0-3.99.04-5.869.118-1.878.078-3.834.196-5.869.353a248.19 248.19 0 0 1-1.408 4.113 234.43 234.43 0 0 0-1.409 4.113c-1.096 2.35-1.722 4.544-1.878 6.58a938.574 938.574 0 0 1-.94 5.994c-.312 1.958-.625 3.956-.938 5.993a62.49 62.49 0 0 0-.546 5.727l-.041.971a62.655 62.655 0 0 1-.587 6.699 180.024 180.024 0 0 0-.352 6.816c-.026.776-.047 1.553-.065 2.33l.06-.098c1.096-1.801 2.348-3.8 3.757-5.993.157-.313.313-.587.47-.822.156-.235.313-.51.47-.823.625-.627 1.33-.705 2.112-.235.626.47.704 1.097.235 1.88a44.726 44.726 0 0 0-1.754 3.05l-.242.476a42.962 42.962 0 0 1-1.995 3.525 62.98 62.98 0 0 1-3.213 5.128 98.872 98.872 0 0 0 .165 9.444 73.365 73.365 0 0 0 1.526 10.811c.156.784.352 1.528.587 2.233.235.705.665 1.371 1.29 1.998.783-.157 1.8-.705 3.053-1.645a40.813 40.813 0 0 0 4.695-5.053 338.633 338.633 0 0 0 4.226-5.524 87.175 87.175 0 0 0 4.139-6.383 58.33 58.33 0 0 1-.966-5.133 24.484 24.484 0 0 1-.352-5.406c.078-1.88.274-3.682.587-5.406a26.53 26.53 0 0 1 .821-4.465c.392-1.41.744-2.82 1.057-4.23.626-1.724 1.956-2.273 3.99-1.646.314.157.705.274 1.174.353a2.1 2.1 0 0 1 1.174.587c1.096.784 1.565 1.802 1.409 3.056l-.94 4.23-.938 4.23-.117.594a37.39 37.39 0 0 1 1.169-2.003l.94-2.35c.312-.784.782-1.568 1.408-2.351.313-.313.704-.666 1.173-1.058.47-.391.861-.43 1.174-.117.157 0 .235.313.235.94a9.125 9.125 0 0 0-.47 1.175c-.156.47-.313.862-.47 1.175a19.913 19.913 0 0 0-1.29 2.586c-.392.94-.822 1.801-1.291 2.585a154.848 154.848 0 0 1-2.465 5.17 156.328 156.328 0 0 0-1.61 3.322 30.393 30.393 0 0 0-.03 4.435c0 2.35.47 4.7 1.409 7.05.782 2.037 1.917 3.213 3.404 3.526 1.487.313 3.09 0 4.812-.94.439-.313.867-.649 1.287-1.006-.907-4.872-.669-9.785.713-14.741.782-3.134 1.839-6.072 3.17-8.814 1.33-2.742 3.168-5.21 5.516-7.403 1.722-1.724 3.756-2.86 6.104-3.408 2.347-.549 4.695-.118 7.042 1.292 2.191 1.254 3.796 3.017 4.813 5.289s1.291 4.583.822 6.933a16.68 16.68 0 0 0-.705 2.115 9.192 9.192 0 0 1-.704 1.88c-.626 1.567-1.8 2.508-3.521 2.82-1.565 0-2.74-.704-3.522-2.114-.156-.157-.234-.47-.234-.94.313-.314.665-.431 1.056-.353a4.2 4.2 0 0 1 1.056.352c1.096.314 1.957 0 2.583-.94.626-1.41 1.017-2.82 1.174-4.23.156-1.41-.157-2.899-.94-4.466-.156-.783-.626-1.488-1.408-2.115-1.252-1.254-2.739-1.41-4.46-.47-1.253.627-2.152 1.41-2.7 2.35-.18.31-.374.637-.58.981l1.984.664v.47a58.356 58.356 0 0 0-1.76 3.878 63.773 63.773 0 0 0-1.526 4.114c-1.71 4.706-3.894 8.938-6.551 12.696a180.66 180.66 0 0 0-.488 2.933c-.235 1.489-.274 3.095-.117 4.818l.704 4.936c1.095 3.76 3.756 5.014 7.982 3.76 1.721-.313 3.247-.94 4.577-1.88s2.622-1.88 3.874-2.82c3.443-2.664 6.338-5.602 8.686-8.814a144.81 144.81 0 0 0 6.808-10.224 61.686 61.686 0 0 0 3.404-5.758 95.71 95.71 0 0 1 3.404-5.993c.313-.784.704-1.41 1.174-1.88 1.252.313 1.643.94 1.174 1.88a283.492 283.492 0 0 1-5.87 11.986c-2.034 3.917-4.538 7.678-7.512 11.282a174.955 174.955 0 0 0-3.638 4.23 63.347 63.347 0 0 1-3.874 4.23c-3.287 3.291-6.964 5.485-11.034 6.582-4.538.94-8.294-.079-11.268-3.056-2.034-2.193-3.365-4.465-3.99-6.816a35.274 35.274 0 0 1-.717-2.238c-2.208 1.423-4.397 1.855-6.565 1.298-3.052-.783-5.517-2.742-7.395-5.875a20.09 20.09 0 0 1-1.864-3.489 141.674 141.674 0 0 1-3.892 6.309 49.062 49.062 0 0 1-3.521 4.465l-3.756 4.231c-1.409 1.41-2.817 2.194-4.226 2.35-3.13.47-5.478-.626-7.043-3.29a16.645 16.645 0 0 1-2.113-4.466 45.534 45.534 0 0 1-1.173-4.935 73.465 73.465 0 0 1-1.13-6.67l-.87 1.029a46.65 46.65 0 0 1-4.46 4.348 29.188 29.188 0 0 1-4.93 3.408c-1.409.783-2.817 1.293-4.226 1.528-1.408.235-2.895.117-4.46-.353-2.091-.546-3.84-1.515-5.244-2.907l.192-.148c-1.565 1.253-3.208 1.84-4.93 1.762-1.721-.078-3.208-.9-4.46-2.467-1.252-1.254-2.191-2.664-2.817-4.23a45.588 45.588 0 0 1-1.643-4.937c-.313-.94-.509-1.88-.587-2.82-.078-.94-.196-1.88-.352-2.82a92.324 92.324 0 0 0-.705-5.641 15.37 15.37 0 0 0-.939 1.645 105.436 105.436 0 0 0-5.869 14.925 3777.957 3777.957 0 0 0-4.695 15.394c-.156.784-.547 1.802-1.174 3.056-.939 1.723-2.269 2.115-3.99 1.175a9.33 9.33 0 0 1-1.409-1.175c-.47-.47-.86-.94-1.174-1.41-.939-2.194-1.643-4.31-2.113-6.346a39.827 39.827 0 0 1-1.408-8.462c-.06-1.072-.108-2.157-.145-3.252a37.02 37.02 0 0 1-1.855 1.372 812.824 812.824 0 0 1-6.455 4.113 175.963 175.963 0 0 1-6.456 3.878c-1.409.94-2.113 2.115-2.113 3.526a55.05 55.05 0 0 1-.235 8.813 3154.97 3154.97 0 0 0-.939 8.814 145.8 145.8 0 0 1-1.174 8.696 81.996 81.996 0 0 1-1.878 8.461 52.697 52.697 0 0 1-3.99 10.812c-1.722 3.447-3.913 6.659-6.574 9.636-4.382 4.544-9.547 7.286-15.494 8.226-.268 0-.45.029-.546.086l-.04.031c-.08.079-.275.118-.588.118h-2.817c-.156 0-.274-.04-.352-.118-.078-.078-.274-.117-.587-.117-6.73-.94-11.503-4.622-14.32-11.046a5.809 5.809 0 0 1-.587-1.88 5.809 5.809 0 0 0-.587-1.881v-7.991c.157-.313.313-.705.47-1.175.156-.47.234-.862.234-1.175.783-4.074 2.152-7.756 4.109-11.047a60.499 60.499 0 0 1 6.925-9.401 47.007 47.007 0 0 1 7.278-6.346 89.969 89.969 0 0 1 8.216-5.17 92.844 92.844 0 0 1 6.808-3.526 147.59 147.59 0 0 0 7.043-3.525c.313-.314.626-.549.939-.706.25-3.635.45-7.245.6-10.83l.104-2.684c.157-4.465.391-8.97.704-13.514a134.862 134.862 0 0 1-2.112 3.29c-.626.94-1.33 1.959-2.113 3.056a1125.49 1125.49 0 0 0-4.578 6.463c-1.487 2.115-3.248 4.113-5.282 5.993a18.452 18.452 0 0 1-3.287 2.586c-3.286 2.193-6.495 2.428-9.625.705a9.654 9.654 0 0 1-1.251-.927l-.278-.257c-.94.927-1.879 1.83-2.818 2.712-1.252 1.175-2.739 2.154-4.46 2.937-3.13 1.41-5.87 1.646-8.217.706-2.347-.94-4.304-2.586-5.869-4.936a17.061 17.061 0 0 1-2.7-5.64 56.653 56.653 0 0 1-1.29-6.112v-2.232c0-.706-.079-1.45-.235-2.233 0-.47-.079-.94-.235-1.41a104.47 104.47 0 0 0-2.113 3.995 45.47 45.47 0 0 1-2.113 3.76 35.791 35.791 0 0 1-3.052 4.349c-1.095 1.331-2.425 2.546-3.99 3.643-2.035 1.41-4.187 1.919-6.456 1.527-2.27-.391-4.03-1.606-5.282-3.643a17.125 17.125 0 0 1-1.449-2.431l-.081.081c-1.878 1.41-3.913 1.489-6.104.235-1.722-.783-3.052-1.959-3.991-3.525a18.4 18.4 0 0 1-2.348-4.231 26.821 26.821 0 0 1-1.408-4.7 21.726 21.726 0 0 1-.552-3.021l-.035-.388c-.078-1.018-.274-2.154-.587-3.407 0-.314-.078-.706-.235-1.176-1.095 1.254-1.8 2.272-2.113 3.056-4.851 7.99-8.138 16.609-9.86 25.853a162.078 162.078 0 0 0-.821 4.936 162.075 162.075 0 0 1-.822 4.935c-.313 1.88-1.33 2.507-3.052 1.88-1.095-.47-1.8-1.41-2.112-2.82-.313-.783-.509-1.527-.587-2.232a26.154 26.154 0 0 0-.352-2.233 115.6 115.6 0 0 1-1.174-12.574c-.157-4.153-.313-8.344-.47-12.575 0-2.193.04-4.465.118-6.815.078-2.35.195-4.623.352-6.816 0-.157-.04-.314-.118-.47a1.044 1.044 0 0 1-.117-.47 96.395 96.395 0 0 0-1.878 2.937 24.352 24.352 0 0 0-1.643 3.173 63.868 63.868 0 0 0-4.343 9.754 135.991 135.991 0 0 0-3.17 10.459 615.108 615.108 0 0 1-.939 5.053 66.596 66.596 0 0 1-1.173 5.053 95.521 95.521 0 0 0-.822 3.056 9.45 9.45 0 0 1-1.056 2.585c-1.096 2.194-2.74 2.585-4.93 1.175-.783-.47-1.409-1.136-1.878-1.998a69.286 69.286 0 0 0-1.409-2.467c-1.409-3.29-2.387-6.62-2.934-9.99a89.27 89.27 0 0 1-1.057-10.458 59.745 59.745 0 0 1-.117-6.463 61.9 61.9 0 0 1 .587-6.464c.313-1.567.626-2.742.939-3.525.47-1.097 1.33-1.645 2.582-1.645 2.974 0 4.46 1.41 4.46 4.23.157.784.196 1.645.118 2.585-.078.94-.118 1.88-.118 2.82 0 4.075.04 8.188.118 12.34.078 4.152.274 8.265.587 12.34 0 .47.078 1.018.234 1.644.313-.47.51-.861.587-1.175.079-.313.196-.627.353-.94a337.062 337.062 0 0 0 3.403-13.397 94.374 94.374 0 0 1 4.109-13.161 66.16 66.16 0 0 1 2.817-7.051 57.785 57.785 0 0 1 3.756-6.816 56.262 56.262 0 0 1 1.878-2.233c.626-.705 1.565-.901 2.817-.588 1.252.314 2.426.705 3.522 1.176 1.095.47 1.878 1.41 2.347 2.82.157.627.313 1.214.47 1.763.156.548.234 1.136.234 1.762v4.701a47.39 47.39 0 0 1-.234 4.7v3.526a251.18 251.18 0 0 0-.353 7.286c-.078 2.35-.117 4.779-.117 7.286a64 64 0 0 1 1.526-4.113 25.081 25.081 0 0 0 1.291-4.113 49.733 49.733 0 0 1 2.935-7.639 204.718 204.718 0 0 1 3.638-7.168c0-.157.157-.392.47-.705l1.878-2.35c.626-.784 1.565-1.019 2.817-.706 1.252.314 2.426.784 3.521 1.41 1.096.627 1.8 1.803 2.113 3.526.157 1.097.313 2.155.47 3.173.156 1.018.313 2.076.47 3.173l.469 6.11a18.98 18.98 0 0 0 1.408 5.876c.13.262.207.468.229.62l.006.086c0 .156.078.391.235.705.782 1.096 1.721 1.332 2.817.705a10.8 10.8 0 0 0 1.287-.983 19.05 19.05 0 0 1-.461-2.073c-1.252-5.64-.392-11.046 2.582-16.217 2.035-3.76 5.165-6.189 9.39-7.286 2.348-.626 4.617-.783 6.808-.47 2.191.314 4.382.862 6.574 1.645.313.157.626.275.939.353.313.078.626.196.939.353.156 0 .313-.079.47-.236.312-.47.586-1.018.82-1.645.236-.626.744-1.097 1.527-1.41h.704c.47.313 1.174.627 2.113.94 1.408.47 2.034 1.41 1.878 2.82 0 .627-.04 1.176-.117 1.646a10.04 10.04 0 0 0-.118 1.645c-.235 1.645-.47 3.312-.704 5.002l-.235 1.696c-.313 2.272-.626 4.505-.939 6.699-.313 3.917-.235 7.286.235 10.106a39.504 39.504 0 0 0 1.408 5.406c.157.627.705 1.41 1.644 2.35 1.252 1.567 2.895 2.037 4.93 1.41 2.817-.626 5.399-2.272 7.747-4.935.389-.402.77-.809 1.144-1.222l.554-.623-.11-.19a22.16 22.16 0 0 1-1.467-3.136c-1.252-3.76-1.252-7.521 0-11.282 1.252-3.76 3.13-7.05 5.634-9.87 2.504-2.821 5.79-4.78 9.86-5.877 4.695-1.096 9.39-.313 14.086 2.35.313.314.626.51.939.588.313.079.626.275.939.588.313-.313.508-.588.587-.823.078-.235.273-.509.586-.822.626-1.254 1.878-1.802 3.757-1.646 1.408.157 2.347 1.019 2.817 2.586.156.47.234.98.234 1.527v18.45c0 1.41-.039 2.82-.117 4.231a80.742 80.742 0 0 0-.117 4.466c0 .313.156 1.096.47 2.35a154.511 154.511 0 0 0 5.164-2.468 38.981 38.981 0 0 0 4.93-2.938c2.252-1.435 4.254-3.055 6.004-4.859-.01-.648-.014-1.3-.014-1.957v-3.878c0-1.332.078-2.624.235-3.878.313-3.134.782-6.032 1.408-8.696.47-2.194 1.565-3.134 3.287-2.82 2.191.313 3.287 1.567 3.287 3.76a28.543 28.543 0 0 0-.235 3.526c0 .744-.036 1.525-.108 2.341.235-.461.465-.929.69-1.401.47-.94.94-1.841 1.41-2.703.469-.862.938-1.763 1.408-2.703.313-.783 1.095-1.018 2.347-.705 0 .783-.078 1.332-.234 1.645-.94 1.88-1.84 3.8-2.7 5.758a348.63 348.63 0 0 1-2.7 5.994c-.357.626-.73 1.232-1.12 1.82l.003-.03-.038.438a67.452 67.452 0 0 1-.601 4.588 65.526 65.526 0 0 0-.47 7.638c0 2.429.157 4.975.47 7.639.156.783.273 1.488.352 2.115.078.627.195 1.253.352 1.88h.47l2.112-7.756a525.822 525.822 0 0 0 2.23-9.284 536.29 536.29 0 0 1 2.23-9.283 54.475 54.475 0 0 1 2.935-7.756 330.334 330.334 0 0 1 3.639-7.521c.47-1.567 1.487-2.586 3.052-3.056h.939c.313.157.704.314 1.174.47.469.157.86.314 1.173.47 2.191.47 3.443 1.959 3.756 4.466a114.696 114.696 0 0 1 .47 10.341 160.4 160.4 0 0 1 .352 6.111 160.4 160.4 0 0 0 .352 6.111c.157.94.274 1.841.352 2.703.079.862.509 1.684 1.292 2.468 1.095-.157 1.956-.47 2.582-.94a8.06 8.06 0 0 0 .643-.539 13.437 13.437 0 0 1-.991-1.812c-1.722-3.133-2.426-6.502-2.113-10.106v-2.938c0-1.018.156-1.998.47-2.938.939-5.484 3.756-10.185 8.45-14.102a19.451 19.451 0 0 1 3.522-1.997c1.252-.549 2.504-.745 3.756-.588 2.035.313 3.6 1.175 4.695 2.585.626.94.861 1.959.705 3.056-.783 2.977-1.957 5.601-3.522 7.873-.971 1.41-2.215 2.625-3.73 3.643a50.853 50.853 0 0 0-1.321 4.936c-.47 2.193-1.33 4.309-2.582 6.346a49.368 49.368 0 0 1-2.465 3.995c-.16.234-.328.467-.501.7.08.314.171.63.27.945.782 2.037 2.426 2.977 4.93 2.82a16.654 16.654 0 0 0 4.812-1.644 21.231 21.231 0 0 0 4.109-2.82 46.09 46.09 0 0 0 6.836-7.07 12.01 12.01 0 0 1-.024-.334c-.235-3.682-.43-7.325-.587-10.93-.157-3.603-.078-7.912.235-12.926s.626-9.95.939-14.807c.313-4.857.665-9.127 1.056-12.809.391-3.682.665-5.915.822-6.698-.783 0-1.487.039-2.113.117a17.14 17.14 0 0 1-2.113.118c-1.252 0-2.504.039-3.756.117a20 20 0 0 1-3.756-.117 21.03 21.03 0 0 1-2.583-.588c-.782-.235-1.33-.823-1.643-1.763.626-.783 1.409-1.253 2.348-1.41a82.513 82.513 0 0 1 3.286-.47c1.878 0 3.756-.04 5.635-.117 1.878-.079 3.756-.118 5.634-.118l.704-3.525a1191.69 1191.69 0 0 1 1.878-7.874 36.066 36.066 0 0 1 2.817-7.638c.268-.269.45-.538.546-.806l.041-.135c.078-.313.274-.626.587-.94 1.722-2.82 4.07-3.29 7.043-1.41ZM249.85 205.657c-.47.313-.939.51-1.408.588a2.1 2.1 0 0 0-1.174.587c-1.722.94-3.443 1.841-5.165 2.703a57.631 57.631 0 0 0-5.165 2.938 61.914 61.914 0 0 0-13.498 10.224c-3.991 3.995-7.082 8.735-9.273 14.22-2.191 5.483-2.582 10.889-1.174 16.216 1.096 4.544 3.521 7.717 7.278 9.519 3.756 1.802 7.668 1.37 11.737-1.293 3.6-2.193 6.652-5.484 9.156-9.871 1.096-1.88 1.956-3.76 2.582-5.64a64.342 64.342 0 0 0 1.644-5.877 102.715 102.715 0 0 0 1.878-9.283c.47-3.056.86-6.15 1.174-9.284.156-1.253.273-2.468.352-3.643.078-1.175.195-2.39.352-3.643.313-2.664.548-5.484.704-8.461Zm-12.207-39.485c-2.191.627-3.991 1.723-5.4 3.29-4.585 4.974-6.527 10.725-5.826 17.255 1.978-3.349 3.566-6.986 4.766-10.909l2.113-5.64c.313-.784.626-1.215.939-1.293.313-.079.86.117 1.643.587v1.175c-.157.314-.274.705-.352 1.176-.078.47-.196.861-.352 1.175a45.388 45.388 0 0 1-4.343 11.516 66.814 66.814 0 0 1-3.718 6.052c.062.253.13.508.2.764.313.627.626 1.175.94 1.645.312.47.625 1.097.938 1.88 4.539-3.29 8.452-6.933 11.738-10.928a78.748 78.748 0 0 0 8.686-13.045c-.782-1.096-1.643-1.88-2.582-2.35l-2.817-1.41c-2.191-1.254-4.382-1.567-6.573-.94Zm-53.412.94c-2.504 1.253-4.382 3.212-5.634 5.876-1.15 2.48-1.9 5.009-2.25 7.588l-.051.095.412-.75a109.2 109.2 0 0 0 1.65-3.173c.704-1.41 1.448-2.82 2.23-4.23.626-1.254 1.487-1.332 2.583-.235a313.488 313.488 0 0 1-2.348 5.053 313.492 313.492 0 0 0-2.347 5.053 28.034 28.034 0 0 1-.94 2.115 31.945 31.945 0 0 1-1.173 2.115l-.098.121.055.41c.322 2.277.846 4.215 1.573 5.815 1.095 1.567 2.504 1.959 4.225 1.175.47-.313.94-.587 1.409-.822.47-.235.86-.51 1.174-.823a11.015 11.015 0 0 0 2.347-2.703 25.292 25.292 0 0 1 2.113-2.937 103.657 103.657 0 0 0 4.578-9.402 274.366 274.366 0 0 0 3.873-9.636c-.782-.783-1.565-1.253-2.347-1.41a81.782 81.782 0 0 0-2.583-.47c-3.13-.47-5.947-.079-8.45 1.175Zm136.075 11.599.214-.083c-.782.314-1.8.627-3.052.94a28.183 28.183 0 0 0-1.408 7.051c-.055.826-.052 1.66.009 2.506.205-.398.396-.803.574-1.213a351.019 351.019 0 0 1 2.347-5.288c.439-1.317.877-2.621 1.316-3.913Zm74.4-7.507-.247.403c-.18.294-.369.597-.565.91a40.98 40.98 0 0 0-3.756 8.462 84.96 84.96 0 0 0-.447 1.463c.46-.997.882-2.034 1.265-3.108a58.917 58.917 0 0 1 1.995-4.466c.56-1.122 1.146-2.343 1.756-3.664Zm-68.317-6.912c-2.034 1.41-3.56 3.094-4.577 5.053a168.76 168.76 0 0 0-3.17 6.463 17.244 17.244 0 0 0 3.324-1.927c.572-1.651 1.146-3.28 1.72-4.889.156-.157.234-.274.234-.352 0-.079.079-.196.235-.353 1.048.131 1.548.647 1.5 1.547 1.193-2.005 1.438-3.853.734-5.542Zm43.908-22.328c2.504.626 3.522 2.272 3.052 4.935a12.477 12.477 0 0 0-.704 2.586c-.157.94-.392 1.88-.705 2.82-.313.94-1.017 1.332-2.112 1.175-2.348-.47-3.522-2.193-3.522-5.17.157-.627.274-1.372.352-2.233a8.747 8.747 0 0 1 .587-2.468c.47-1.567 1.487-2.115 3.052-1.645Z"/><path d="M210.144 137.6V87.552h11.482c2.6 0 4.637.7 6.109 2.098 1.472 1.398 2.208 3.545 2.208 6.44v12.07c0 2.895-.749 5.03-2.245 6.403-1.497 1.374-3.52 2.061-6.072 2.061h-5.52V137.6h-5.962Zm10.378-44.97h-4.416v18.916h4.416c1.08 0 1.913-.27 2.502-.81.589-.54.883-1.472.883-2.797V96.31c0-1.324-.294-2.269-.883-2.833-.589-.564-1.423-.847-2.502-.847Zm14.646 44.97V87.552h5.962V137.6h-5.962Zm12.291 0V87.552h15.604v5.226h-9.642v16.118h8.685v5.226h-8.685v18.252h10.378v5.226h-16.34Zm28.852.368c-2.552 0-4.576-.7-6.072-2.098-1.497-1.398-2.245-3.52-2.245-6.366V95.648c0-2.846.736-4.968 2.208-6.366 1.472-1.399 3.508-2.098 6.109-2.098h2.944c2.6 0 4.636.7 6.108 2.098 1.472 1.398 2.208 3.52 2.208 6.366v11.26h-6.035V96.017c0-1.325-.306-2.282-.92-2.87-.613-.59-1.435-.884-2.465-.884h-.736c-1.03 0-1.853.295-2.466.884-.613.588-.92 1.545-.92 2.87v33.12c0 1.325.307 2.282.92 2.87.613.59 1.435.884 2.466.884h.736c1.08 0 1.913-.295 2.502-.884.589-.588.883-1.545.883-2.87v-10.525h6.035v10.893c0 2.846-.736 4.968-2.208 6.366-1.472 1.399-3.508 2.098-6.108 2.098h-2.944Zm16.633-.368V87.552h15.603v5.226h-9.641v16.118h8.685v5.226h-8.685v18.252h10.377v5.226h-16.339ZM244.72 73.545c-7 0-12.442-1.802-16.327-5.407-3.886-3.606-5.828-8.803-5.828-15.593V21.36c0-7.07 1.995-12.355 5.985-15.855s9.38-5.25 16.17-5.25h28.035c6.93 0 12.355 1.803 16.275 5.407 3.92 3.606 5.88 8.838 5.88 15.698v1.575h-33.075V20.52c0-1.75-.735-2.625-2.205-2.625H259c-1.47 0-2.205.875-2.205 2.625v13.02l3.78-1.995c3.5-1.89 6.65-3.343 9.45-4.358 2.8-1.015 5.985-1.522 9.555-1.522 4.76 0 8.627 1.435 11.603 4.305 2.975 2.87 4.462 7.105 4.462 12.705v9.87c0 6.79-1.942 11.987-5.827 15.593-3.885 3.605-9.328 5.407-16.328 5.407h-28.77ZM259 55.905h.63c1.47 0 2.205-.875 2.205-2.625v-6.195c0-1.61-.192-2.695-.577-3.255-.385-.56-.893-.84-1.523-.84-.42 0-.875.087-1.365.262-.49.175-1.015.368-1.575.578v9.45c0 1.75.735 2.625 2.205 2.625Z"/></g></svg>