<svg xmlns="http://www.w3.org/2000/svg" viewBox="0 0 359 33" style="max-width:320px;">

<path fill="#FFF" d="m.738 17.362-.061-1.62c-.164-3.637.205-6.58 1.107-8.828.903-2.25 2.287-3.89 4.153-4.922C7.803.959 10.09.443 12.797.443c1.9 0 3.558.441 4.973 1.323 1.415.882 2.516 2.12 3.302 3.712.786 1.593 1.179 3.456 1.179 5.588 0 1.327-.26 2.376-.78 3.148-.519.773-1.367 1.159-2.542 1.159-1.04 0-1.822-.311-2.348-.933-.527-.622-.865-1.61-1.016-2.963-.082-1.094-.396-2.003-.943-2.728-.547-.725-1.353-1.094-2.42-1.107-1.558-.028-2.751.625-3.578 1.958-.828 1.333-1.248 3.387-1.262 6.163v1.271c-.013 2.68.356 4.659 1.108 5.937.752 1.279 1.873 1.972 3.363 2.082.984.054 1.822-.257 2.512-.933.69-.677 1.145-1.57 1.364-2.677.246-1.19.625-2.006 1.138-2.45.513-.445 1.138-.667 1.877-.667 1.162 0 2.01.37 2.543 1.108.533.738.827 1.73.881 2.973.15 2.953-.66 5.291-2.43 7.014-1.77 1.723-4.228 2.584-7.372 2.584-3.664-.014-6.453-1.159-8.367-3.435C2.064 26.293.984 22.558.739 17.362Zm44.605 8.244c.738 2.284.824 3.89.256 4.82-.567.93-1.48 1.394-2.738 1.394-1.64 0-2.755-1.025-3.342-3.076l-.534-2.153c-.218-.82-.547-1.367-.984-1.64-.438-.274-1.169-.384-2.194-.329l-1.764.103c-1.326.054-2.263.25-2.81.584-.546.335-.97 1.036-1.271 2.102l-.123.492c-.424 1.463-.943 2.478-1.559 3.046-.615.567-1.47.844-2.563.83-1.408-.027-2.338-.642-2.79-1.845-.45-1.204-.198-3.213.76-6.03l5.537-17.083c.793-2.338 1.603-3.92 2.43-4.747.827-.827 1.787-1.241 2.881-1.241.861 0 1.583.164 2.164.492.58.328 1.104.926 1.569 1.795.464.868.95 2.102 1.456 3.701l5.619 18.785ZM34.35 12.051a.827.827 0 0 0-.605.256c-.171.171-.311.496-.42.974l-.924 3.815c-.246 1.039-.229 1.716.052 2.03.28.314.734.472 1.363.472h.964c.848 0 1.391-.277 1.63-.83.24-.555.175-1.44-.194-2.657l-.903-2.953c-.123-.424-.256-.714-.4-.871a.728.728 0 0 0-.563-.236Zm33.653 5.742c-.287 9.228-3.917 13.843-10.89 13.843-2.365 0-4.279-.475-5.742-1.426-1.463-.95-2.526-2.457-3.189-4.522-.663-2.064-.995-4.771-.995-8.12V6.964c0-3.705 1.033-5.558 3.097-5.558 1.012 0 1.75.407 2.215 1.22.465.814.745 2.26.84 4.338l.165 10.336c.055 2.256.372 3.818.953 4.686.582.868 1.583 1.302 3.005 1.302 1.408.014 2.43-.444 3.066-1.374.636-.93.98-2.468 1.035-4.614l.267-11.136c.11-1.969.424-3.326.943-4.07.52-.746 1.36-1.118 2.523-1.118 1.19 0 2.027.574 2.512 1.722.485 1.149.694 3.049.626 5.701l-.431 9.393Zm3.138 6.686c-.998-2.434-1.43-5.497-1.292-9.188l.02-.451c.15-3.473.725-6.245 1.723-8.316.998-2.071 2.382-3.565 4.153-4.481 1.77-.916 3.886-1.374 6.347-1.374 2.037 0 3.753.37 5.147 1.107 1.395.739 2.461 1.713 3.2 2.923a7.666 7.666 0 0 1 1.148 3.906c.027 1.23-.256 2.174-.851 2.83-.595.657-1.296.985-2.102.985-.67 0-1.258-.168-1.764-.503-.506-.334-.916-.878-1.23-1.63-.67-1.9-1.928-2.85-3.774-2.85-.902 0-1.743.307-2.522.922-.78.616-1.408 1.576-1.887 2.882-.479 1.305-.725 3.011-.738 5.116v.37c-.028 2.98.321 5.147 1.046 6.5.724 1.354 2.064 2.03 4.02 2.03 1.49 0 2.556-.348 3.198-1.045.643-.697 1.005-1.586 1.087-2.666l.02-.185c.055-.71-.054-1.203-.327-1.476-.274-.274-.834-.424-1.682-.451l-.84-.02c-.958-.028-1.662-.25-2.113-.667-.451-.417-.677-.968-.677-1.651 0-.78.26-1.402.78-1.867.519-.464 1.408-.704 2.665-.717l3.507-.103c1.71-.027 2.909.345 3.6 1.118.69.772 1 2.116.933 4.03l-.062 1.23c-.123 3.582-1.094 6.303-2.912 8.162-1.818 1.86-4.238 2.782-7.26 2.769-2.351-.014-4.447-.619-6.286-1.815-1.838-1.196-3.264-3.005-4.275-5.424Zm43.25.963c-.054 2.31-.307 3.876-.758 4.697-.451.82-1.21 1.23-2.277 1.23-.93 0-1.606-.355-2.03-1.066-.424-.711-.683-1.9-.78-3.569l-.122-4.716c-.055-.971-.257-1.682-.605-2.133-.349-.451-.9-.69-1.651-.718l-3.65-.144c-.711-.027-1.204.12-1.477.441-.273.322-.444.96-.513 1.918l-.328 5.516c-.15 1.696-.461 2.892-.933 3.59-.472.697-1.138 1.045-2 1.045-.574 0-1.076-.16-1.507-.482-.43-.321-.776-.923-1.035-1.804-.26-.882-.424-2.157-.493-3.825l-.287-18.293c-.054-1.6.045-2.834.298-3.702.253-.868.635-1.473 1.148-1.815.513-.341 1.104-.512 1.774-.512.807 0 1.477.297 2.01.892.533.594.868 1.685 1.005 3.27l.205 5.005c.068.82.222 1.411.461 1.774.24.362.674.543 1.302.543h3.958c.903 0 1.545-.15 1.928-.451.383-.301.595-.944.636-1.928l-.02-5.168c.095-1.463.392-2.488.891-3.076.5-.588 1.234-.882 2.205-.882.943 0 1.682.332 2.215.995.533.663.772 1.979.718 3.947l-.287 19.421Zm15.197 1.456c-.041 3.295-1.073 4.943-3.097 4.943-1.162 0-1.969-.373-2.42-1.118-.45-.745-.656-1.91-.615-3.496l.472-17.535c.027-.806-.106-1.37-.4-1.692-.294-.32-.81-.481-1.549-.481l-2.132.04c-.971-.013-1.713-.314-2.225-.902-.513-.588-.77-1.353-.77-2.297 0-1.093.36-1.924 1.077-2.491.718-.568 1.733-.824 3.046-.77l12.284.37c1.025.04 1.832.304 2.42.79.588.485.882 1.11.882 1.876 0 .793-.22 1.476-.657 2.05-.437.575-1.169.91-2.194 1.005l-2.092.144c-.629.055-1.08.219-1.353.492-.274.274-.417.752-.431 1.436l-.246 17.636Zm18.58 4.471a2.79 2.79 0 0 1-1.64-.502c-.48-.335-.845-.964-1.098-1.887-.253-.923-.352-2.273-.297-4.05l.143-15.668c.069-2.201.308-3.87.718-5.004.41-1.135 1.1-1.921 2.071-2.359.971-.437 2.331-.697 4.081-.779l1.026-.04c3.978-.192 6.945.587 8.9 2.337 1.955 1.75 2.933 4.115 2.933 7.096 0 1.299-.14 2.372-.42 3.22-.28.847-.66 1.565-1.139 2.153a13.545 13.545 0 0 1-1.64 1.681 3.076 3.076 0 0 0-.677.739c-.164.26-.246.567-.246.923 0 .3.04.625.123.974.082.348.219.728.41 1.138.26.52.608 1.114 1.046 1.784a63.6 63.6 0 0 0 1.907 2.707c.711.916 1.067 1.853 1.067 2.81a2.91 2.91 0 0 1-.8 2.05c-.533.575-1.265.862-2.195.862-1.175 0-2.16-.479-2.953-1.436a17.798 17.798 0 0 1-1.743-2.44 38.228 38.228 0 0 1-1.456-2.625c-.41-.82-.71-1.415-.902-1.784-.356-.711-.687-1.186-.995-1.426-.308-.239-.714-.359-1.22-.359h-.103c-.588 0-1.022.168-1.302.503-.28.335-.44.926-.482 1.774l-.143 4.388c-.164 2.147-1.156 3.22-2.974 3.22Zm6.275-24.363h-.246c-1.08 0-1.78.219-2.102.656-.321.438-.482 1.217-.482 2.338v.492c0 1.682.246 2.762.739 3.24.492.479 1.134.718 1.927.718h.164c2.434 0 3.65-1.196 3.65-3.589 0-2.57-1.216-3.855-3.65-3.855Zm12.51 2.153c-.014-2.242.181-3.954.585-5.137.403-1.183 1.097-1.99 2.081-2.42.984-.43 2.324-.625 4.02-.584l6.234.287c1.299.013 2.266.283 2.902.81.636.526.953 1.2.953 2.02 0 .806-.263 1.446-.79 1.917-.525.472-1.397.749-2.614.83l-4.594.165c-.875.055-1.452.208-1.732.461s-.435.742-.462 1.467l-.123 2.132c-.027.82.116 1.395.43 1.723.315.328.91.506 1.785.533l3.67.164c2.12.082 3.18.875 3.18 2.38 0 .806-.267 1.4-.8 1.783s-1.306.609-2.318.677l-3.26.103c-1.026.054-1.754.29-2.184.707-.431.417-.599 1.145-.503 2.184l.205 2.03c.069.725.178 1.276.328 1.651.15.376.417.63.8.76.383.13.957.2 1.723.215l3.26.02c1.422.055 2.448.294 3.077.718s.943 1.039.943 1.846c0 .998-.345 1.76-1.036 2.286-.69.527-1.87.824-3.537.892l-4.8-.04c-1.476.054-2.675-.028-3.598-.247s-1.627-.65-2.112-1.292c-.486-.642-.824-1.558-1.016-2.748-.191-1.19-.3-2.727-.328-4.614l-.369-13.679Zm18.56.492c-.014-2.297.194-4.036.625-5.219.43-1.182 1.121-1.982 2.071-2.4.95-.416 2.185-.625 3.702-.625h2.461c2.94 0 5.414.513 7.424 1.538 2.01 1.026 3.503 2.65 4.48 4.87.978 2.223 1.371 5.138 1.18 8.747l-.041.882c-.26 4.909-1.518 8.443-3.773 10.603-2.256 2.16-5.49 3.192-9.7 3.097l-1.744-.021c-1.668-.041-2.973-.267-3.917-.677-.943-.41-1.61-1.172-2-2.286-.389-1.115-.59-2.738-.604-4.87l-.164-13.639Zm9.351 14.233c1.668-.096 2.957-.721 3.866-1.877.91-1.155 1.453-2.99 1.63-5.506l.02-.226c.179-2.57-.2-4.43-1.137-5.578-.937-1.148-2.424-1.77-4.46-1.866l-.555-.041c-1.244-.055-1.88.513-1.907 1.702l-.287 11.67c-.014.683.12 1.158.4 1.424.28.267.77.387 1.466.36l.964-.062Zm25.697-4.881c0 1.435-.944 2.187-2.83 2.256l-5.702.143c-1.176.041-2.01-.16-2.502-.605-.492-.444-.738-1.042-.738-1.794s.246-1.384.738-1.897c.493-.513 1.326-.742 2.502-.687l5.701.246c1.887.082 2.83.861 2.83 2.338Zm22.558 6.44c-.055 2.31-.308 3.875-.759 4.696-.45.82-1.21 1.23-2.276 1.23-.93 0-1.606-.355-2.03-1.066-.424-.711-.684-1.9-.78-3.569l-.123-4.716c-.054-.971-.256-1.682-.605-2.133-.348-.451-.899-.69-1.65-.718l-3.65-.144c-.712-.027-1.204.12-1.477.441-.274.322-.445.96-.513 1.918l-.328 5.516c-.15 1.696-.462 2.892-.933 3.59-.472.697-1.139 1.045-2 1.045-.574 0-1.077-.16-1.507-.482-.43-.321-.776-.923-1.036-1.804-.26-.882-.424-2.157-.492-3.825l-.287-18.293c-.055-1.6.044-2.834.297-3.702.253-.868.636-1.473 1.149-1.815.512-.341 1.104-.512 1.774-.512.806 0 1.476.297 2.01.892.533.594.867 1.685 1.004 3.27l.205 5.005c.069.82.222 1.411.462 1.774.239.362.673.543 1.302.543h3.958c.902 0 1.545-.15 1.928-.451.383-.301.594-.944.635-1.928l-.02-5.168c.096-1.463.393-2.488.892-3.076.499-.588 1.234-.882 2.205-.882.943 0 1.681.332 2.214.995.534.663.773 1.979.718 3.947l-.287 19.421Zm24.753.163c.738 2.284.824 3.89.256 4.82-.567.93-1.48 1.394-2.737 1.394-1.641 0-2.755-1.025-3.343-3.076l-.533-2.153c-.22-.82-.547-1.367-.985-1.64-.437-.274-1.169-.384-2.194-.329l-1.764.103c-1.326.054-2.262.25-2.81.584-.546.335-.97 1.036-1.27 2.102l-.124.492c-.424 1.463-.943 2.478-1.558 3.046-.616.567-1.47.844-2.564.83-1.408-.027-2.338-.642-2.789-1.845-.451-1.204-.198-3.213.759-6.03l5.537-17.083c.793-2.338 1.603-3.92 2.43-4.747.827-.827 1.788-1.241 2.881-1.241.862 0 1.583.164 2.164.492.581.328 1.104.926 1.569 1.795.465.868.95 2.102 1.456 3.701l5.619 18.785Zm-10.992-13.555a.827.827 0 0 0-.605.256c-.171.171-.311.496-.42.974l-.923 3.815c-.246 1.039-.23 1.716.05 2.03.281.314.736.472 1.365.472h.964c.847 0 1.39-.277 1.63-.83.24-.555.174-1.44-.195-2.657l-.902-2.953c-.123-.424-.257-.714-.4-.871a.728.728 0 0 0-.564-.236Zm33.346 15.647c-.041 1.408-.35 2.42-.923 3.035-.575.616-1.333.923-2.277.923-.902 0-1.692-.324-2.368-.974-.677-.65-1.316-1.753-1.918-3.312l-5.106-10.951c-.315-.78-.704-1.169-1.17-1.169-.259 0-.467.12-.625.359-.157.24-.236.666-.236 1.282 0 1.668.021 3.35.062 5.045.041 1.695.062 3.363.062 5.003v.288c0 1.681-.284 2.833-.852 3.455-.567.622-1.309.933-2.225.933-.67 0-1.24-.15-1.712-.45-.472-.302-.824-.852-1.056-1.652-.233-.8-.328-1.931-.287-3.394l.656-20.118c.068-1.996.427-3.319 1.077-3.968.649-.65 1.452-.974 2.41-.974 1.011 0 1.828.355 2.45 1.066.622.71 1.302 1.962 2.04 3.753l4.39 9.27c.232.505.447.857.645 1.056.198.198.42.297.667.297a.652.652 0 0 0 .574-.308c.137-.205.205-.58.205-1.128 0-.943-.027-1.832-.082-2.666-.055-.834-.12-1.746-.195-2.737a138.58 138.58 0 0 1-.215-3.558V5.59c-.055-1.682.229-2.882.85-3.6.623-.717 1.433-1.076 2.431-1.076 1.08 0 1.894.41 2.44 1.23.547.82.787 2.38.718 4.676l-.43 20.877Zm3.568-18.047c-.014-2.297.195-4.036.625-5.219.431-1.182 1.122-1.982 2.072-2.4.95-.416 2.184-.625 3.701-.625h2.461c2.94 0 5.414.513 7.424 1.538 2.01 1.026 3.504 2.65 4.481 4.87.978 2.223 1.37 5.138 1.18 8.747l-.042.882c-.26 4.909-1.517 8.443-3.773 10.603-2.256 2.16-5.49 3.192-9.7 3.097l-1.744-.021c-1.668-.041-2.973-.267-3.917-.677-.943-.41-1.61-1.172-1.999-2.286-.39-1.115-.591-2.738-.605-4.87l-.164-13.639Zm9.351 14.233c1.668-.096 2.957-.721 3.866-1.877.91-1.155 1.453-2.99 1.63-5.506l.021-.226c.178-2.57-.202-4.43-1.138-5.578-.937-1.148-2.423-1.77-4.46-1.866l-.554-.041c-1.244-.055-1.88.513-1.907 1.702l-.288 11.67c-.013.683.12 1.158.4 1.424.28.267.77.387 1.467.36l.963-.062ZM317.81 9.159c-.014-2.242.18-3.954.584-5.137.403-1.183 1.097-1.99 2.082-2.42.984-.43 2.324-.625 4.02-.584l6.233.287c1.3.013 2.267.283 2.902.81.636.526.954 1.2.954 2.02 0 .806-.263 1.446-.79 1.917-.526.472-1.398.749-2.614.83l-4.594.165c-.875.055-1.453.208-1.733.461s-.434.742-.461 1.467l-.123 2.132c-.028.82.116 1.395.43 1.723.315.328.91.506 1.784.533l3.671.164c2.12.082 3.179.875 3.179 2.38 0 .806-.267 1.4-.8 1.783s-1.305.609-2.317.677l-3.26.103c-1.026.054-1.754.29-2.185.707-.43.417-.598 1.145-.502 2.184l.205 2.03c.068.725.177 1.276.328 1.651.15.376.417.63.8.76.382.13.957.2 1.722.215l3.26.02c1.423.055 2.448.294 3.077.718s.943 1.039.943 1.846c0 .998-.345 1.76-1.035 2.286-.69.527-1.87.824-3.538.892l-4.799-.04c-1.476.054-2.676-.028-3.599-.247s-1.627-.65-2.112-1.292c-.485-.642-.824-1.558-1.015-2.748-.192-1.19-.3-2.727-.328-4.614l-.37-13.679Zm18.56.492c-.015-2.297.194-4.036.625-5.219.43-1.182 1.12-1.982 2.07-2.4.951-.416 2.185-.625 3.703-.625h2.46c2.94 0 5.415.513 7.424 1.538 2.01 1.026 3.504 2.65 4.481 4.87.978 2.223 1.37 5.138 1.18 8.747l-.042.882c-.26 4.909-1.517 8.443-3.773 10.603-2.256 2.16-5.49 3.192-9.7 3.097l-1.743-.021c-1.668-.041-2.974-.267-3.917-.677-.944-.41-1.61-1.172-2-2.286-.39-1.115-.591-2.738-.605-4.87L336.37 9.65Zm9.35 14.233c1.669-.096 2.957-.721 3.866-1.877.91-1.155 1.453-2.99 1.63-5.506l.021-.226c.178-2.57-.201-4.43-1.138-5.578-.936-1.148-2.423-1.77-4.46-1.866l-.554-.041c-1.244-.055-1.88.513-1.907 1.702l-.287 11.67c-.014.683.12 1.158.4 1.424.28.267.769.387 1.466.36l.964-.062Z"/></svg>