<svg xmlns="http://www.w3.org/2000/svg" viewBox="0 0 285 475"><g fill="none" fill-rule="evenodd"><path fill="#545659" d="M46.704 389.997h-2.017s-1.745 6.498 2.017 15.903v43.66a5.228 5.228 0 0 1-5.223 5.225h-6.268v3.135h6.268c4.608 0 8.357-3.75 8.357-8.36v-59.563h-3.134Z"/><path fill="#7D757C" d="m27.114 192.99-1.975 6.05v64.516h-7.837V199.04l-1.943-6.05 2.915-16.584c.095-.376.376-.627.72-.627h4.452c.376 0 .659.251.72.627l2.948 16.584Z"/><path fill="#EC8E00" d="M30.374 304.373H12.068l.282-6.113 1.724-35.958c.031-1.692 1.38-3.072 4.138-3.072h6.018c2.79 0 4.106 1.38 4.169 3.072l1.692 36.302.283 5.769Z"/><path fill="#545659" d="M21.231 304.374H9.901a3.43 3.43 0 0 0-3.428 3.43v6.349a3.43 3.43 0 0 0 3.429 3.429H32.56a3.43 3.43 0 0 0 3.43-3.43v-6.349a3.43 3.43 0 0 0-3.43-3.43H21.23Z"/><path fill="#999A9C" d="M32.56 304.374H9.901a3.429 3.429 0 0 0-3.428 3.43v3.917a3.43 3.43 0 0 1 3.429-3.429H32.56a3.43 3.43 0 0 1 3.43 3.43v-3.919a3.429 3.429 0 0 0-3.43-3.43"/><path fill="#C51D00" d="M21.231 456.785H3.434v8.277c0 2.523 2.315 5.459 4.238 7.463a7.772 7.772 0 0 0 5.618 2.377h15.883c2.119 0 4.15-.848 5.617-2.377 1.923-2.004 4.239-4.94 4.239-7.463v-8.277H21.23Z"/><path fill="#26282C" d="M42.473 363.34c0 10.752-.501 27.242-1.16 43.387-1.003 25.455-2.288 50.064-2.288 50.064H3.448s-1.285-24.609-2.288-50.064C.533 390.582 0 374.092 0 363.34c0-10.596 1.567-19.844 3.51-27.148 3.072-11.756 7.116-18.622 7.116-18.622h21.22s4.044 6.866 7.148 18.622a107.612 107.612 0 0 1 3.479 27.148"/><path fill="#545659" d="M17.303 251.894c.908 1.536 3.196 4.107 7.836 1.004v6.332h-7.836v-7.336Z"/><path fill="#FFBA1B" d="M42.473 363.34c0 8.559-.313 20.753-.784 33.543-.126 3.26-.25 6.553-.376 9.844H1.16L.784 396.35C.314 383.748 0 371.773 0 363.34c0-10.596 1.567-19.844 3.51-27.148h35.484a107.612 107.612 0 0 1 3.479 27.148"/><path fill="#EC8E00" d="M37.218 363.34c0 10.752-.377 27.242-.873 43.387H6.127c-.471-16.145-.872-32.635-.872-43.387 0-10.596 1.18-19.844 2.642-27.148h26.702c1.44 7.304 2.619 16.552 2.619 27.148"/><path fill="#FFBA1B" d="M17.303 304.374h7.836V259.23h-7.836z"/><path fill="#F1B51B" d="M17.303 406.727h7.836v-70.535h-7.836z"/><path fill="#545659" d="M27.349 406.727v-26.2a4.35 4.35 0 0 0-4.349-4.35h-3.526a4.35 4.35 0 0 0-4.35 4.35v26.2H27.35Z"/><path fill="#C36800" d="M30.374 304.373H12.068l.282-6.113c3.322 1.128 8.933 1.974 17.741.344l.283 5.769Z" opacity=".489"/><path fill="#C36800" d="M.784 396.35c7.742 1.881 20.75 3.23 40.905.534l-.376 9.843H1.16L.784 396.35Z" opacity=".498" style="mix-blend-mode:multiply"/><path fill="#FFF" d="m5.255 412.725 2.373 51.465h6.007l-1.828-51.465z" opacity=".303"/><path fill="#6E656D" d="M117.595 0s-5.76 51.017-5.76 85.99V238.63h11.52V85.99c0-34.973-5.76-85.99-5.76-85.99"/><path fill="#AFAAAE" d="M117.595 0s-2.458 51.017-2.458 85.99V238.63h4.916V85.99c0-34.973-2.458-85.99-2.458-85.99"/><path fill="#4C4C4E" d="M142.68 391.281v64.258c0 2.74-.642 5.48-1.976 7.85-2.763 4.84-9.083 11.405-23.103 11.405-14.044 0-20.363-6.566-23.103-11.405-1.358-2.37-2-5.11-2-7.85V391.28c0-38.683 8.837-100.2 9.454-120.146a64.14 64.14 0 0 0 0-3.087c-.296-12.738-5.208-17.551-7.775-19.205-.888-.568-1.481-1.555-1.481-2.642V234.57h49.785V246.2a3.11 3.11 0 0 1-1.48 2.642c-2.543 1.654-7.48 6.467-7.776 19.23-.024.964-.024 2 0 3.062.618 19.946 9.454 81.463 9.454 120.146"/><path fill="#2F3034" d="M142.482 246.202a3.107 3.107 0 0 1-1.48 2.64c-2.543 1.655-7.48 6.469-7.777 19.231-12.218-8.516-19.055-8.516-31.273-.024-.296-12.738-5.208-17.552-7.775-19.206-.889-.568-1.481-1.555-1.481-2.641h49.786Z"/><path fill="#FFCC1B" d="M108.881 298.514c-13.225 51.753-9.016 129.283-7.127 154.941.356 4.83 5.266 8.585 11.198 8.585h9.273c5.932 0 10.842-3.755 11.198-8.585 1.89-25.658 6.099-103.188-7.127-154.94-1.98-7.751-15.435-7.751-17.415 0"/><path fill="#EC9C00" d="M123.19 294.281c-3.205-2.09-7.998-2.09-11.202 0a9.06 9.06 0 0 0-.367 1.396c-9.063 50.926-6.178 127.216-4.884 152.464.243 4.752 3.608 8.447 7.674 8.447h6.355c4.066 0 7.43-3.695 7.674-8.447 1.294-25.248 4.18-101.538-4.884-152.464a8.965 8.965 0 0 0-.367-1.396"/><path fill="#A0A2A5" d="M92.696 238.623h49.786v-4.054H92.696z"/><path fill="#2F3034" d="M111.836 226.7v7.868h11.519V226.7c-5.955 7.097-11.52 0-11.52 0" opacity=".499"/><path fill="#5C5C5E" d="M123.76 428.508a6.17 6.17 0 1 1-12.342 0 6.172 6.172 0 1 1 12.341 0"/><path fill="#EC9C00" d="M210.132 283.944h50.076v-8.228h-50.076z"/><path fill="#2C2C2F" d="M236 475h-1.879c-48.864-.198-53.043-61.236-46.242-83.47 2.893-9.422 6.156-22.011 8.754-34.995 3.536-17.659 5.835-36.058 4.228-48.178-.47-3.486-.594-6.479-.52-9.051.446-12.984 6.702-15.359 6.702-15.359h56.258s6.257 2.375 6.701 15.359c.075 2.572-.05 5.565-.519 9.051-2.794 21.023 6.183 60.915 12.983 83.174C289.266 413.789 285.063 475 236 475"/><path fill="#2C2C2F" d="M235.784 475h-1.39c-36.12-.198-39.21-61.236-34.183-83.47 2.138-9.422 4.552-22.011 6.47-34.995 2.615-17.659 4.315-36.058 3.126-48.178-.347-3.486-.438-6.479-.383-9.051.329-12.984 4.953-15.359 4.953-15.359h41.588s4.625 2.375 4.954 15.359c.055 2.572-.037 5.565-.384 9.051-2.066 21.023 4.57 60.915 9.598 83.174 5.027 22.258 1.92 83.469-34.35 83.469"/><path fill="#EC9C00" d="M282.441 391.53c-2.893-9.423-6.157-22.01-8.754-34.995-17.112 8.928-21.34 28.07-13.55 54.212 2.704 9.081 1.279 16.411-1.959 22.198-9.872 17.646-36.164 17.646-46.037 0-3.237-5.787-4.662-13.117-1.957-22.198 7.789-26.141 3.56-45.284-13.552-54.212-2.596 12.985-5.86 25.572-8.754 34.995-6.8 22.234-2.62 83.273 46.243 83.47h2.077c48.864-.197 53.044-61.236 46.243-83.47"/><path fill="#ECD395" d="m260.136 410.747.365 1.083c.125.35.261.788.404 1.313.158.52.317 1.126.457 1.812.301 1.365.596 3.054.663 5.023a25.167 25.167 0 0 1-.565 6.603 25.529 25.529 0 0 1-2.824 7.382c-.337.59-.672 1.188-1.11 1.803l-.628.921-.685.873c-.911 1.18-2.003 2.254-3.157 3.288-2.362 2-5.126 3.748-8.21 4.831-3.062 1.14-6.374 1.696-9.686 1.736-3.313-.038-6.625-.596-9.686-1.735-3.087-1.078-5.85-2.83-8.212-4.83-2.354-2.029-4.204-4.44-5.587-6.894l-.263-.458c-.112-.187-.162-.312-.245-.47-.15-.304-.303-.59-.447-.903-.288-.634-.569-1.256-.789-1.878a25.49 25.49 0 0 1-1.075-3.665c-.536-2.391-.65-4.64-.564-6.604.067-1.969.362-3.658.665-5.023.14-.686.298-1.29.456-1.81.143-.523.28-.963.406-1.315l.365-1.083-.236 1.117c-.083.363-.167.813-.246 1.346a29.03 29.03 0 0 0-.26 1.826c-.327 2.72-.482 6.73.792 11.202a23.908 23.908 0 0 0 1.23 3.384c.25.573.525 1.132.812 1.692.145.283.32.579.481.87.08.136.17.32.242.417l.265.415a25.807 25.807 0 0 0 5.402 6.17 25.526 25.526 0 0 0 7.617 4.247c2.808 1.02 5.847 1.496 8.877 1.51 3.03-.011 6.069-.49 8.877-1.508a25.445 25.445 0 0 0 7.618-4.247c1.088-.917 2.104-1.887 3-2.93l.671-.777.598-.797c.405-.505.775-1.098 1.14-1.675.7-1.09 1.298-2.253 1.796-3.385a23.98 23.98 0 0 0 1.229-3.385c1.275-4.472 1.118-8.483.79-11.203a28.783 28.783 0 0 0-.26-1.825 17.55 17.55 0 0 0-.247-1.346l-.236-1.118"/><path fill="#6D6D6F" d="M270.003 299.306a66.088 66.088 0 0 0-69.661 0c.445-12.984 6.702-15.359 6.702-15.359h56.258s6.256 2.375 6.7 15.359"/><path fill="#FFF" d="M209.327 391.53c1.58-9.423 3.365-22.01 4.784-34.995 1.932-17.658 3.189-36.059 2.31-48.177-.257-3.487-.324-6.48-.283-9.052.243-12.984 3.662-15.358 3.662-15.358h-5.422s-4.626 2.374-4.954 15.358c-.055 2.572.037 5.565.384 9.052 1.188 12.118-.512 30.519-3.126 48.177-1.92 12.985-4.333 25.572-6.472 34.995-5.027 22.234-1.937 83.273 34.184 83.47h.203c-26.703-.197-28.987-61.236-25.27-83.47m60.805 0c-5.027-22.258-11.663-62.15-9.596-83.172.346-3.487.438-6.48.383-9.052-.329-12.984-4.954-15.358-4.954-15.358h-5.423s3.419 2.374 3.662 15.358c.041 2.572-.026 5.565-.283 9.052-1.527 21.022 3.378 60.914 7.094 83.172 3.717 22.259 1.42 83.47-25.392 83.47h.16c36.27 0 39.376-61.211 34.35-83.47" opacity=".302"/><path fill="#40343E" d="M224.336 275.716h21.638v-82.851h-21.638z"/><path fill="#7D757C" d="m248.86 159.058-2.894 33.808H224.33l-2.82-33.363a6.14 6.14 0 0 0-.049-.445s5.342-17.461 11.87-20.38a4.081 4.081 0 0 1 1.83-.444c7.32 0 13.7 20.824 13.7 20.824"/><path fill="#40343E" d="m233.33 138.679-.693 9.25s-.848 17.357-3.822 28.654c-.457 1.737-2.881 1.886-3.519.207-2.174-5.726-3.502-15.128-3.786-17.287a6.064 6.064 0 0 0-.05-.445s5.342-17.46 11.87-20.38m3.66 0 .693 9.25s.848 17.358 3.822 28.655c.457 1.737 2.881 1.886 3.518.207 2.174-5.726 3.503-15.128 3.787-17.287.025-.297.05-.445.05-.445s-5.342-17.46-11.87-20.38"/><path fill="#2F222D" d="M224.337 275.717v-23.098s10.942 10.356 21.638 0v23.098h-21.638Z"/><path fill="#AAA5A9" d="M224.336 195.04h21.638v-2.174h-21.638z"/><path fill="#FFF" d="M229.083 192.866h.006v82.85h5.876v-82.85h-.001l-.695-33.363a19.403 19.403 0 0 0-.013-.445l-5.173 33.808Z" opacity=".298"/><path fill="#FFBA1B" d="M237.301 420.576c0 .911-.742 1.653-1.654 1.653a1.656 1.656 0 0 1-1.655-1.653 1.656 1.656 0 0 1 3.309 0m-6.753-2.737a5.742 5.742 0 0 0-.692 2.737c0 .312.032.615.08.913a4.962 4.962 0 0 1 4.044 4.625 5.757 5.757 0 0 0 3.334 0 4.962 4.962 0 0 1 4.044-4.625 5.73 5.73 0 0 0 .08-.913c0-.989-.251-1.922-.692-2.737a23.547 23.547 0 0 0-10.198 0"/><path fill="#FFBA1B" d="M235.647 427.187c-3.65 0-6.618-2.966-6.618-6.61 0-3.646 2.969-6.611 6.618-6.611 3.649 0 6.617 2.965 6.617 6.61 0 3.645-2.968 6.611-6.617 6.611m-9.927-6.61c0 5.467 4.453 9.915 9.927 9.915 5.473 0 9.926-4.448 9.926-9.916 0-5.467-4.453-9.916-9.926-9.916-5.474 0-9.927 4.449-9.927 9.916Z"/></g></svg>