<svg xmlns="http://www.w3.org/2000/svg" viewBox="0 0 83 110"><g fill="none" fill-rule="evenodd"><path fill="#E3A330" fill-rule="nonzero" d="m13.92 63 10.51.013c7.77.014 10.682.067 11.194.187 2.113.519 4.173 2.142 5.118 4.018.184.373.761 2.156 1.286 3.993a764.364 764.364 0 0 0 2.204 7.439c.683 2.275 1.247 4.205 1.247 4.298 0 .106.053.173.105.173.328-.04.997-1.251 1.942-3.513 2.297-5.456 4.042-9.196 4.436-9.475.21-.16 2.388-1.051 4.842-2.01 8.681-3.37 10.143-3.943 10.582-3.961h.035c.034 0 .06.006.086.013l.036.012a.96.96 0 0 1 .023.009l.025.01.012.005c.184.067 1.326 1.091 2.546 2.276 1.457 1.41 2.31 2.142 2.507 2.142.17.013.721-.066 1.207-.146 1.784-.32 3.254.186 4.619 1.57 1.85 1.863 2.178 3.979 1.023 6.507-.288.64-.406 1.038-.314 1.092.905.598 3.753 2.9 3.805 3.074.026.133-.079.865-.25 1.636-.17.759-.472 2.21-.682 3.207-.21.999-.498 2.036-.643 2.29-.433.771-7.82 7.93-8.45 8.183-.63.253-7.152.027-7.585-.252-.315-.213-.46-.905-.512-2.356-.013-.639.079-.758 1.614-1.956.682-.532 1.312-1.118 1.404-1.29.144-.254.131-1.465-.04-5.723-.087-2.202-.146-4.228-.149-5.24v-.242c.003-.216.008-.36.019-.413.052-.28.236-.652.42-.825l.314-.333-1.377-1.544c-.932-1.051-1.47-1.543-1.667-1.543-.433 0-6.863 2.501-7.152 2.768-.109.11-1.16 2.395-2.203 4.73l-.26.584c-.993 2.233-1.906 4.349-1.906 4.48-.014.066.17.173.393.226.8.173.827.253.866 3.913l.04 3.353.459.665c2.795 4.086 2.283 9.515-1.22 13.082-1.181 1.21-2.336 1.956-3.924 2.501l-1.102.373H8.343l-1.09-.32c-1.797-.518-2.886-1.184-4.212-2.528-3.477-3.54-4.028-8.676-1.364-12.828l.603-.932.066-11.191.078-11.179 1.89-.04 1.89-.04V66.78h3.45v5.164h4.266V63Zm25.916 30.637h-2.99c-2.332.001-5.098.006-8.387.01l-19.84.027-.998.372c-2.94 1.092-4.75 3.713-4.764 6.894-.013 3.326 2.244 6.267 5.42 7.08.499.126 2.864.169 11.908.181h.728l1.145.002 1.21.001h.42l1.749.001h23.139l1.01-.332c4.265-1.41 6.26-6.068 4.357-10.154-.525-1.131-1.916-2.568-3.07-3.18-.11-.059-.207-.113-.298-.164l-.09-.05-.088-.048a6.305 6.305 0 0 0-.044-.023l-.086-.045c-.937-.47-1.998-.564-10.43-.572Zm-15.47 4.388c1.272.639 1.98 1.823 1.98 3.327 0 1.131-.393 1.983-1.233 2.741-.617.546-1.64.972-2.375.972-1.286 0-2.808-1.011-3.346-2.236-.617-1.37-.197-3.327.905-4.271 1.142-.985 2.769-1.198 4.068-.533Zm-12.021-.106c1.378.639 2.165 1.85 2.178 3.38.013 1.144-.367 2.01-1.246 2.781-.63.559-1.654.985-2.389.985-.721 0-1.745-.426-2.362-.972-1.968-1.743-1.574-4.897.748-6.068.88-.452 2.218-.492 3.071-.106Zm23.87.106c1.286.639 1.955 1.77 1.955 3.26.013 4.006-5.262 5.177-6.929 1.544-.354-.772-.38-2.196-.04-2.967.828-1.917 3.163-2.782 5.014-1.837Zm11.377-.226c.97.306 2.007 1.37 2.296 2.382.893 3.127-2.086 5.802-5.013 4.485-2.782-1.238-2.795-5.363-.026-6.68.735-.347 1.955-.427 2.743-.187ZM30.169 66.945h-1.194c-.853.001-1.823.004-2.93.007l-8.189.04-.039 3.088c-.005.443-.008.83-.009 1.166v.38c.004 1.186.046 1.608.153 1.687.158.147 2.56 1.065 18.083 6.92 2.73 1.038 4.973 1.823 5 1.757a.89.89 0 0 0-.037-.197l-.042-.164a53.219 53.219 0 0 0-.294-1.07l-.155-.546c-.222-.773-.498-1.715-.798-2.72a832.28 832.28 0 0 1-1.876-6.295c-.538-1.943-.827-2.475-1.627-3.127-.977-.784-1.05-.918-6.046-.926Zm44.337 4.904c-.368.04-.827.187-1.037.333-1.246.945-1.312 2.356-.17 3.46.328.32.577.413 1.18.466.657.053.84.013 1.287-.293 1.837-1.224.905-4.139-1.26-3.966Z"/><path stroke="#773E19" stroke-linecap="round" stroke-width="2" d="M42 0v50"/></g></svg>