<svg xmlns="http://www.w3.org/2000/svg" viewBox="0 0 340 340"><g fill="none" fill-rule="evenodd"><path fill="#3D3D40" d="m-52.055 177.561 24.559 8.079h240.119v-23.32h-240.12l-24.558 8.079c-2.594 1.671-2.594 5.49 0 7.162"/><path fill="#828284" d="m-6.863 185.64-13.281-23.32h9.997l13.28 23.32zM14.298 185.64l-13.28-23.32h9.996l13.281 23.32zM35.459 185.64l-13.281-23.32h9.997l13.28 23.32zM56.619 185.64l-13.28-23.32h9.996l13.28 23.32zM77.78 185.64l-13.281-23.32h9.996l13.281 23.32z"/><path fill="#6D6D6F" d="M248.597 56.525v232.79c0 13.03 10.491 23.525 23.515 23.525h80.172V33h-80.172c-13.024 0-23.515 10.496-23.515 23.525"/><path fill="#8E8E90" d="M270.317 54.2h81.967v239.56h-81.967c-11.996 0-21.72-9.758-21.72-21.794V75.996c0-12.038 9.724-21.796 21.72-21.796"/><path fill="#C6C6C7" d="M268.06 77.52h84.224v52.587h-90.59c-7.234 0-13.097 5.878-13.097 13.133V97.035c0-10.778 8.713-19.515 19.463-19.515"/><path fill="#4C4C4E" d="M248.596 270.44H176.65V77.52h71.946z"/><path fill="#777779" d="M98.356 121.313v103.214c0 12.284 8.894 22.461 20.515 24.35 1.291.29 2.582.363 3.946.363h51.717V96.6h-51.717c-13.486 0-24.461 11.048-24.461 24.713"/><path fill="#909092" d="M120.495 111.44h54.039v125.08h-54.04c-12.225 0-22.138-10.016-22.138-22.37v-80.34c0-12.356 9.913-22.37 22.139-22.37"/><path fill="#C1C1C2" d="M117.76 126.28h56.774v31.173h-64.87c-6.245 0-11.308 5.027-11.308 11.227v-23.134c0-10.641 8.686-19.266 19.403-19.266"/><path fill="#B4B5B8" d="M318.426 46.609v249.584c0 5.79.805 11.364 2.487 16.647h31.37V33h-32.467c-.878 4.416-1.39 8.975-1.39 13.609"/><path fill="#6D6D6F" d="M248.596 164.44H176.65v-48.76h71.946z"/><path fill="#B4B5B8" d="M225.513 77.52h23.084v192.92h-35.973s43.09-115.57 12.889-192.92M119.517 248.877c1.325.29 2.65.363 4.05.363h53.083V96.6h-36.148c45.206 59.31-16.567 146.315-20.985 152.277"/></g></svg>