<svg xmlns="http://www.w3.org/2000/svg" width="480" viewBox="0 0 588 32"><path fill="#33302E" d="M.394 31c.112-.784.182-1.561.21-2.331.028-.77.042-1.547.042-2.331V5.842c0-.728-.014-1.491-.042-2.289a22.296 22.296 0 0 0-.21-2.373H8.92a22.296 22.296 0 0 0-.21 2.373 65.377 65.377 0 0 0-.042 2.289v18.69h5.502c.924 0 1.841-.014 2.751-.042.91-.028 1.813-.084 2.709-.168V31H.394Zm22.722 0c.168-1.568.252-3.122.252-4.662V5.842c0-1.512-.084-3.066-.252-4.662h19.11l.336 6.804a23.52 23.52 0 0 0-2.646-.273 56.514 56.514 0 0 0-2.646-.063h-5.964v5.166h4.704c.784 0 1.54-.021 2.268-.063a27.084 27.084 0 0 0 2.268-.231v6.216a22.04 22.04 0 0 0-2.268-.21 59.065 59.065 0 0 0-2.268-.042h-4.704v6.048h5.964c.896 0 1.841-.028 2.835-.084.994-.056 1.953-.14 2.877-.252L42.646 31h-19.53Zm37.548.504c-2.94 0-5.502-.644-7.686-1.932-2.184-1.288-3.885-3.108-5.103-5.46s-1.827-5.096-1.827-8.232c0-3.36.672-6.167 2.016-8.421 1.344-2.254 3.171-3.948 5.481-5.082S58.48.676 61.42.676c2.94 0 5.509.651 7.707 1.953 2.198 1.302 3.899 3.122 5.103 5.46 1.204 2.338 1.806 5.075 1.806 8.211 0 3.36-.672 6.167-2.016 8.421-1.344 2.254-3.171 3.948-5.481 5.082s-4.935 1.701-7.875 1.701Zm.462-6.972c1.988 0 3.605-.679 4.851-2.037 1.246-1.358 1.869-3.283 1.869-5.775 0-2.996-.623-5.257-1.869-6.783C64.731 8.411 63.072 7.648 61 7.648c-1.988 0-3.619.679-4.893 2.037-1.274 1.358-1.911 3.283-1.911 5.775 0 2.996.637 5.257 1.911 6.783 1.274 1.526 2.947 2.289 5.019 2.289ZM79.942 31c.112-.784.182-1.561.21-2.331.028-.77.042-1.547.042-2.331V6.64c0-1.036-.105-1.96-.315-2.772-.21-.812-.609-1.708-1.197-2.688h9.282l10.542 16.17V5.842c0-.784-.014-1.561-.042-2.331a22.172 22.172 0 0 0-.21-2.331h8.022a26.799 26.799 0 0 0-.231 2.331c-.042.77-.063 1.547-.063 2.331V31h-6.72L87.67 13.654v12.684c0 .784.014 1.561.042 2.331.028.77.098 1.547.21 2.331h-7.98Zm59.766 0h-9.366a19.992 19.992 0 0 0-.315-2.415 21.875 21.875 0 0 0-.567-2.289l-.21-.672h-9.744l-.21.672a28.684 28.684 0 0 0-.567 2.352 19.342 19.342 0 0 0-.315 2.352h-8.946l8.652-25.158c.28-.812.504-1.61.672-2.394.168-.784.308-1.54.42-2.268h10.626c.14.728.315 1.484.525 2.268.21.784.427 1.582.651 2.394L139.708 31Zm-18.522-11.088h6.384l-3.192-10.668-3.192 10.668ZM143.026 31c.112-.784.189-1.561.231-2.331.042-.77.063-1.547.063-2.331V5.842c0-.728-.021-1.491-.063-2.289a19.238 19.238 0 0 0-.273-2.373h10.962c3.976 0 6.846.784 8.61 2.352 1.764 1.568 2.646 3.766 2.646 6.594 0 1.652-.343 3.094-1.029 4.326-.686 1.232-1.925 2.254-3.717 3.066 1.316.56 2.282 1.337 2.898 2.331.616.994 1.176 2.387 1.68 4.179l.714 2.772c.364 1.54.868 2.94 1.512 4.2h-8.316l-1.302-5.124c-.308-1.316-.686-2.296-1.134-2.94-.448-.644-1.022-1.078-1.722-1.302-.7-.224-1.596-.336-2.688-.336h-.882v5.04c0 .784.021 1.561.063 2.331a19.2 19.2 0 0 0 .273 2.331h-8.526Zm10.038-23.352h-1.848v7.812h1.932c1.736 0 2.94-.357 3.612-1.071.672-.714 1.008-1.673 1.008-2.877 0-1.232-.357-2.184-1.071-2.856-.714-.672-1.925-1.008-3.633-1.008ZM170.578 31c.112-.784.182-1.561.21-2.331.028-.77.042-1.547.042-2.331V5.842c0-1.512-.084-3.066-.252-4.662h9.828c5.46 0 9.625 1.232 12.495 3.696 2.87 2.464 4.305 6.16 4.305 11.088 0 4.9-1.379 8.631-4.137 11.193C190.311 29.719 186.258 31 180.91 31h-10.332Zm10.248-23.394h-1.974v16.968h1.974c2.744 0 4.816-.665 6.216-1.995 1.4-1.33 2.1-3.535 2.1-6.615 0-2.968-.7-5.103-2.1-6.405-1.4-1.302-3.472-1.953-6.216-1.953Zm33.936 23.898c-2.94 0-5.502-.644-7.686-1.932-2.184-1.288-3.885-3.108-5.103-5.46s-1.827-5.096-1.827-8.232c0-3.36.672-6.167 2.016-8.421 1.344-2.254 3.171-3.948 5.481-5.082s4.935-1.701 7.875-1.701c2.94 0 5.509.651 7.707 1.953 2.198 1.302 3.899 3.122 5.103 5.46 1.204 2.338 1.806 5.075 1.806 8.211 0 3.36-.672 6.167-2.016 8.421-1.344 2.254-3.171 3.948-5.481 5.082s-4.935 1.701-7.875 1.701Zm.462-6.972c1.988 0 3.605-.679 4.851-2.037 1.246-1.358 1.869-3.283 1.869-5.775 0-2.996-.623-5.257-1.869-6.783-1.246-1.526-2.905-2.289-4.977-2.289-1.988 0-3.619.679-4.893 2.037-1.274 1.358-1.911 3.283-1.911 5.775 0 2.996.637 5.257 1.911 6.783 1.274 1.526 2.947 2.289 5.019 2.289ZM242.86 31c.112-.784.182-1.561.21-2.331.028-.77.042-1.547.042-2.331V6.64c0-1.036-.105-1.96-.315-2.772-.21-.812-.609-1.708-1.197-2.688h9.282l10.542 16.17V5.842c0-.784-.014-1.561-.042-2.331a22.172 22.172 0 0 0-.21-2.331h8.022a26.799 26.799 0 0 0-.231 2.331c-.042.77-.063 1.547-.063 2.331V31h-6.72l-11.592-17.346v12.684c0 .784.014 1.561.042 2.331.028.77.098 1.547.21 2.331h-7.98Zm44.772.504c-2.94 0-5.502-.644-7.686-1.932-2.184-1.288-3.885-3.108-5.103-5.46s-1.827-5.096-1.827-8.232c0-3.36.672-6.167 2.016-8.421 1.344-2.254 3.171-3.948 5.481-5.082s4.935-1.701 7.875-1.701c2.94 0 5.509.651 7.707 1.953 2.198 1.302 3.899 3.122 5.103 5.46 1.204 2.338 1.806 5.075 1.806 8.211 0 3.36-.672 6.167-2.016 8.421-1.344 2.254-3.171 3.948-5.481 5.082s-4.935 1.701-7.875 1.701Zm.462-6.972c1.988 0 3.605-.679 4.851-2.037 1.246-1.358 1.869-3.283 1.869-5.775 0-2.996-.623-5.257-1.869-6.783-1.246-1.526-2.905-2.289-4.977-2.289-1.988 0-3.619.679-4.893 2.037-1.274 1.358-1.911 3.283-1.911 5.775 0 2.996.637 5.257 1.911 6.783 1.274 1.526 2.947 2.289 5.019 2.289ZM312.664 31c.112-.784.182-1.561.21-2.331.028-.77.042-1.547.042-2.331V7.816h-2.478c-.868 0-1.722.014-2.562.042-.84.028-1.694.098-2.562.21V1.18h23.226v6.888a27.061 27.061 0 0 0-2.562-.21 76.912 76.912 0 0 0-2.562-.042h-2.478v18.522c0 .784.014 1.561.042 2.331.028.77.098 1.547.21 2.331h-8.526Zm47.838 0h-9.366a19.992 19.992 0 0 0-.315-2.415 21.875 21.875 0 0 0-.567-2.289l-.21-.672H340.3l-.21.672a28.684 28.684 0 0 0-.567 2.352 19.342 19.342 0 0 0-.315 2.352h-8.946l8.652-25.158c.28-.812.504-1.61.672-2.394.168-.784.308-1.54.42-2.268h10.626c.14.728.315 1.484.525 2.268.21.784.427 1.582.651 2.394L360.502 31ZM341.98 19.912h6.384l-3.192-10.668-3.192 10.668ZM363.82 31c.112-.784.189-1.561.231-2.331.042-.77.063-1.547.063-2.331V5.842c0-.728-.021-1.491-.063-2.289a19.238 19.238 0 0 0-.273-2.373h10.962c3.976 0 6.846.784 8.61 2.352 1.764 1.568 2.646 3.766 2.646 6.594 0 1.652-.343 3.094-1.029 4.326-.686 1.232-1.925 2.254-3.717 3.066 1.316.56 2.282 1.337 2.898 2.331.616.994 1.176 2.387 1.68 4.179l.714 2.772c.364 1.54.868 2.94 1.512 4.2h-8.316l-1.302-5.124c-.308-1.316-.686-2.296-1.134-2.94-.448-.644-1.022-1.078-1.722-1.302-.7-.224-1.596-.336-2.688-.336h-.882v5.04c0 .784.021 1.561.063 2.331a19.2 19.2 0 0 0 .273 2.331h-8.526Zm10.038-23.352h-1.848v7.812h1.932c1.736 0 2.94-.357 3.612-1.071.672-.714 1.008-1.673 1.008-2.877 0-1.232-.357-2.184-1.071-2.856-.714-.672-1.925-1.008-3.633-1.008ZM391.414 31c.084-.784.14-1.561.168-2.331.028-.77.042-1.547.042-2.331V5.842c0-.728-.014-1.491-.042-2.289a22.296 22.296 0 0 0-.21-2.373h10.71c2.688 0 4.816.336 6.384 1.008 1.568.672 2.695 1.582 3.381 2.73.686 1.148 1.029 2.45 1.029 3.906 0 1.232-.259 2.352-.777 3.36s-1.407 1.848-2.667 2.52c1.82.644 3.15 1.617 3.99 2.919.84 1.302 1.26 2.821 1.26 4.557 0 1.708-.392 3.227-1.176 4.557-.784 1.33-2.002 2.373-3.654 3.129-1.652.756-3.794 1.134-6.426 1.134h-12.012ZM401.62 7.228h-2.184l-.042 6.216h2.562c1.372 0 2.366-.28 2.982-.84.616-.56.924-1.33.924-2.31 0-1.092-.322-1.876-.966-2.352-.644-.476-1.736-.714-3.276-.714Zm.798 11.13h-3.066l-.042 6.594h3.444c1.316 0 2.338-.294 3.066-.882.728-.588 1.092-1.428 1.092-2.52 0-2.128-1.498-3.192-4.494-3.192ZM446.77 31h-9.366a19.992 19.992 0 0 0-.315-2.415 21.875 21.875 0 0 0-.567-2.289l-.21-.672h-9.744l-.21.672a28.684 28.684 0 0 0-.567 2.352 19.342 19.342 0 0 0-.315 2.352h-8.946l8.652-25.158c.28-.812.504-1.61.672-2.394.168-.784.308-1.54.42-2.268H436.9c.14.728.315 1.484.525 2.268.21.784.427 1.582.651 2.394L446.77 31Zm-18.522-11.088h6.384L431.44 9.244l-3.192 10.668ZM450.088 31c.112-.784.189-1.561.231-2.331.042-.77.063-1.547.063-2.331V5.842c0-.728-.021-1.491-.063-2.289a19.238 19.238 0 0 0-.273-2.373h10.962c3.976 0 6.846.784 8.61 2.352 1.764 1.568 2.646 3.766 2.646 6.594 0 1.652-.343 3.094-1.029 4.326-.686 1.232-1.925 2.254-3.717 3.066 1.316.56 2.282 1.337 2.898 2.331.616.994 1.176 2.387 1.68 4.179l.714 2.772c.364 1.54.868 2.94 1.512 4.2h-8.316l-1.302-5.124c-.308-1.316-.686-2.296-1.134-2.94-.448-.644-1.022-1.078-1.722-1.302-.7-.224-1.596-.336-2.688-.336h-.882v5.04c0 .784.021 1.561.063 2.331a19.2 19.2 0 0 0 .273 2.331h-8.526Zm10.038-23.352h-1.848v7.812h1.932c1.736 0 2.94-.357 3.612-1.071.672-.714 1.008-1.673 1.008-2.877 0-1.232-.357-2.184-1.071-2.856-.714-.672-1.925-1.008-3.633-1.008ZM483.436 31c.112-.784.182-1.561.21-2.331.028-.77.042-1.547.042-2.331V7.816h-2.478c-.868 0-1.722.014-2.562.042-.84.028-1.694.098-2.562.21V1.18h23.226v6.888a27.061 27.061 0 0 0-2.562-.21 76.912 76.912 0 0 0-2.562-.042h-2.478v18.522c0 .784.014 1.561.042 2.331.028.77.098 1.547.21 2.331h-8.526Zm32.844.504c-2.94 0-5.502-.644-7.686-1.932-2.184-1.288-3.885-3.108-5.103-5.46s-1.827-5.096-1.827-8.232c0-3.36.672-6.167 2.016-8.421 1.344-2.254 3.171-3.948 5.481-5.082s4.935-1.701 7.875-1.701c2.94 0 5.509.651 7.707 1.953 2.198 1.302 3.899 3.122 5.103 5.46 1.204 2.338 1.806 5.075 1.806 8.211 0 3.36-.672 6.167-2.016 8.421-1.344 2.254-3.171 3.948-5.481 5.082s-4.935 1.701-7.875 1.701Zm.462-6.972c1.988 0 3.605-.679 4.851-2.037 1.246-1.358 1.869-3.283 1.869-5.775 0-2.996-.623-5.257-1.869-6.783-1.246-1.526-2.905-2.289-4.977-2.289-1.988 0-3.619.679-4.893 2.037-1.274 1.358-1.911 3.283-1.911 5.775 0 2.996.637 5.257 1.911 6.783 1.274 1.526 2.947 2.289 5.019 2.289ZM535.516 31c.112-.784.182-1.561.21-2.331.028-.77.042-1.547.042-2.331V5.842c0-.728-.014-1.491-.042-2.289a22.296 22.296 0 0 0-.21-2.373h8.526a22.296 22.296 0 0 0-.21 2.373 65.377 65.377 0 0 0-.042 2.289v18.69h5.502c.924 0 1.841-.014 2.751-.042.91-.028 1.813-.084 2.709-.168V31h-19.236Zm36.414.504c-2.94 0-5.502-.644-7.686-1.932-2.184-1.288-3.885-3.108-5.103-5.46s-1.827-5.096-1.827-8.232c0-3.36.672-6.167 2.016-8.421 1.344-2.254 3.171-3.948 5.481-5.082s4.935-1.701 7.875-1.701c2.94 0 5.509.651 7.707 1.953 2.198 1.302 3.899 3.122 5.103 5.46 1.204 2.338 1.806 5.075 1.806 8.211 0 3.36-.672 6.167-2.016 8.421-1.344 2.254-3.171 3.948-5.481 5.082s-4.935 1.701-7.875 1.701Zm.462-6.972c1.988 0 3.605-.679 4.851-2.037 1.246-1.358 1.869-3.283 1.869-5.775 0-2.996-.623-5.257-1.869-6.783-1.246-1.526-2.905-2.289-4.977-2.289-1.988 0-3.619.679-4.893 2.037-1.274 1.358-1.911 3.283-1.911 5.775 0 2.996.637 5.257 1.911 6.783 1.274 1.526 2.947 2.289 5.019 2.289Z"/></svg>