<svg xmlns="http://www.w3.org/2000/svg" viewBox="0 0 350 25"><path fill="#33302E" d="M11.256 24.384c-2.24 0-4.192-.49-5.856-1.472-1.664-.981-2.96-2.368-3.888-4.16C.584 16.96.12 14.869.12 12.48c0-2.56.512-4.699 1.536-6.416C2.68 4.347 4.072 3.056 5.832 2.192c1.76-.864 3.76-1.296 6-1.296s4.197.496 5.872 1.488c1.675.992 2.97 2.379 3.888 4.16.917 1.781 1.376 3.867 1.376 6.256 0 2.56-.512 4.699-1.536 6.416-1.024 1.717-2.416 3.008-4.176 3.872-1.76.864-3.76 1.296-6 1.296Zm.352-5.312c1.515 0 2.747-.517 3.696-1.552.95-1.035 1.424-2.501 1.424-4.4 0-2.283-.475-4.005-1.424-5.168-.95-1.163-2.213-1.744-3.792-1.744-1.515 0-2.757.517-3.728 1.552-.97 1.035-1.456 2.501-1.456 4.4 0 2.283.485 4.005 1.456 5.168.97 1.163 2.245 1.744 3.824 1.744ZM25.944 24c.085-.597.139-1.19.16-1.776a48.87 48.87 0 0 0 .032-1.776V5.44c0-.79-.08-1.493-.24-2.112-.16-.619-.464-1.301-.912-2.048h7.072l8.032 12.32V4.832c0-.597-.01-1.19-.032-1.776a16.893 16.893 0 0 0-.16-1.776h6.112c-.085.597-.144 1.19-.176 1.776a32.604 32.604 0 0 0-.048 1.776V24h-5.12l-8.832-13.216v9.664c0 .597.01 1.19.032 1.776.021.587.075 1.179.16 1.776h-6.08Zm23.68 0c.128-1.195.192-2.379.192-3.552V4.832c0-1.152-.064-2.336-.192-3.552h14.56l.256 5.184a17.92 17.92 0 0 0-2.016-.208 43.058 43.058 0 0 0-2.016-.048h-4.544v3.936h3.584c.597 0 1.173-.016 1.728-.048.555-.032 1.13-.09 1.728-.176v4.736a16.793 16.793 0 0 0-1.728-.16 45.002 45.002 0 0 0-1.728-.032h-3.584v4.608h4.544a38.475 38.475 0 0 0 4.352-.256L64.504 24h-14.88Zm24.896 0c.085-.597.139-1.19.16-1.776a48.87 48.87 0 0 0 .032-1.776V4.832c0-.555-.01-1.136-.032-1.744a16.987 16.987 0 0 0-.16-1.808h6.496c-.085.597-.139 1.2-.16 1.808-.021.608-.032 1.19-.032 1.744v7.136l5.024-7.776c.619-1.003 1.077-1.973 1.376-2.912h7.104L87 12.032 95.224 24h-7.52c-.341-1.003-.917-2.101-1.728-3.296L80.824 13.6v6.848c0 .597.01 1.19.032 1.776.021.587.075 1.179.16 1.776H74.52Zm22.752 0c.128-1.195.192-2.379.192-3.552V4.832c0-1.152-.064-2.336-.192-3.552h6.496a33.933 33.933 0 0 0-.192 3.552v15.616c0 1.173.064 2.357.192 3.552h-6.496Zm10.176 0c.085-.597.139-1.19.16-1.776.021-.587.032-1.179.032-1.776V5.44c0-.79-.08-1.493-.24-2.112-.16-.619-.464-1.301-.912-2.048h7.072l8.032 12.32V4.832c0-.597-.01-1.19-.032-1.776a16.893 16.893 0 0 0-.16-1.776h6.112c-.085.597-.144 1.19-.176 1.776a32.604 32.604 0 0 0-.048 1.776V24h-5.12l-8.832-13.216v9.664c0 .597.01 1.19.032 1.776.021.587.075 1.179.16 1.776h-6.08Zm23.68 0c.085-.597.139-1.19.16-1.776.021-.587.032-1.179.032-1.776V4.832c0-.555-.01-1.136-.032-1.744a16.987 16.987 0 0 0-.16-1.808h6.496c-.085.597-.139 1.2-.16 1.808-.021.608-.032 1.19-.032 1.744v7.136l5.024-7.776c.619-1.003 1.077-1.973 1.376-2.912h7.104l-7.328 10.752L151.832 24h-7.52c-.341-1.003-.917-2.101-1.728-3.296l-5.152-7.104v6.848c0 .597.01 1.19.032 1.776.021.587.075 1.179.16 1.776h-6.496Zm29.472 0c.128-1.195.192-2.379.192-3.552V4.832c0-1.152-.064-2.336-.192-3.552h6.496a33.933 33.933 0 0 0-.192 3.552v15.616c0 1.173.064 2.357.192 3.552H160.6Zm10.176 0c.085-.597.139-1.19.16-1.776.021-.587.032-1.179.032-1.776V5.44c0-.79-.08-1.493-.24-2.112-.16-.619-.464-1.301-.912-2.048h7.072l8.032 12.32V4.832c0-.597-.01-1.19-.032-1.776a16.893 16.893 0 0 0-.16-1.776h6.112c-.085.597-.144 1.19-.176 1.776a32.604 32.604 0 0 0-.048 1.776V24h-5.12l-8.832-13.216v9.664c0 .597.01 1.19.032 1.776.021.587.075 1.179.16 1.776h-6.08Zm34.816 0c.085-.597.139-1.19.16-1.776.021-.587.032-1.179.032-1.776V6.336h-1.888a58.6 58.6 0 0 0-1.952.032c-.64.021-1.29.075-1.952.16V1.28h17.696v5.248a20.618 20.618 0 0 0-1.952-.16 58.6 58.6 0 0 0-1.952-.032h-1.888v14.112c0 .597.01 1.19.032 1.776.021.587.075 1.179.16 1.776h-6.496Zm14.592 0c.128-1.195.192-2.379.192-3.552V4.832c0-1.152-.064-2.336-.192-3.552h6.496c-.085.597-.139 1.2-.16 1.808-.021.608-.032 1.19-.032 1.744v4.96h7.456v-4.96c0-1.152-.064-2.336-.192-3.552h6.496c-.085.597-.144 1.2-.176 1.808-.032.608-.048 1.19-.048 1.744v15.616c0 .597.016 1.19.048 1.776.032.587.09 1.179.176 1.776h-6.496c.128-1.195.192-2.379.192-3.552v-5.472h-7.456v5.472c0 .597.01 1.19.032 1.776.021.587.075 1.179.16 1.776h-6.496Zm23.712 0c.128-1.195.192-2.379.192-3.552V4.832c0-1.152-.064-2.336-.192-3.552h14.56l.256 5.184a17.92 17.92 0 0 0-2.016-.208 43.058 43.058 0 0 0-2.016-.048h-4.544v3.936h3.584c.597 0 1.173-.016 1.728-.048.555-.032 1.13-.09 1.728-.176v4.736a16.793 16.793 0 0 0-1.728-.16 45.002 45.002 0 0 0-1.728-.032h-3.584v4.608h4.544a38.475 38.475 0 0 0 4.352-.256L258.776 24h-14.88Zm24.896 0c.128-1.195.192-2.379.192-3.552V4.832c0-1.152-.064-2.336-.192-3.552h8.32c2.923 0 5.12.752 6.592 2.256 1.472 1.504 2.208 3.493 2.208 5.968 0 2.581-.79 4.656-2.368 6.224-1.579 1.568-3.957 2.352-7.136 2.352h-1.472v2.368c0 .597.01 1.19.032 1.776.021.587.075 1.179.16 1.776h-6.336Zm7.424-17.824h-1.28v7.392h1.216c2.773 0 4.16-1.27 4.16-3.808 0-2.39-1.365-3.584-4.096-3.584ZM288.536 24c.085-.597.139-1.19.16-1.776.021-.587.032-1.179.032-1.776V4.832c0-.555-.01-1.136-.032-1.744a16.987 16.987 0 0 0-.16-1.808h6.496c-.085.597-.139 1.2-.16 1.808-.021.608-.032 1.19-.032 1.744v14.24h4.192c.704 0 1.403-.01 2.096-.032a32.971 32.971 0 0 0 2.064-.128V24h-14.656Zm39.168 0h-7.136a15.232 15.232 0 0 0-.24-1.84 16.667 16.667 0 0 0-.432-1.744l-.16-.512h-7.424l-.16.512c-.17.597-.315 1.195-.432 1.792a14.737 14.737 0 0 0-.24 1.792h-6.816l6.592-19.168a15.67 15.67 0 0 0 .512-1.824c.128-.597.235-1.173.32-1.728h8.096c.107.555.24 1.13.4 1.728.16.597.325 1.205.496 1.824L327.704 24Zm-14.112-8.448h4.864l-2.432-8.128-2.432 8.128ZM330.232 24c.085-.597.139-1.19.16-1.776.021-.587.032-1.179.032-1.776V5.44c0-.79-.08-1.493-.24-2.112-.16-.619-.464-1.301-.912-2.048h7.072l8.032 12.32V4.832c0-.597-.01-1.19-.032-1.776a16.893 16.893 0 0 0-.16-1.776h6.112c-.085.597-.144 1.19-.176 1.776a32.604 32.604 0 0 0-.048 1.776V24h-5.12l-8.832-13.216v9.664c0 .597.01 1.19.032 1.776.021.587.075 1.179.16 1.776h-6.08Z"/></svg>