<svg xmlns="http://www.w3.org/2000/svg" viewBox="0 0 366 96">

<g fill="none" fill-rule="evenodd">

<path fill="#FCBD0E" d="m309.396 9.031 1.854 2.433h-12.638z"/>

<path fill="#969698" d="M349.075 58.728H1l12.962-26.132c6.473 0 12.39-3.631 15.238-9.378h290.799l16.855 8.744 12.22 26.766Z"/>

<path fill="#89898B" d="M43.224 23.218 25.593 58.729h-2.646l17.614-35.511zM66.522 23.218 48.891 58.729h-2.646l17.614-35.511zM89.82 23.218 72.189 58.729h-2.646l17.614-35.511zM113.118 23.218 95.487 58.729h-2.646l17.614-35.511zM136.416 23.218l-17.631 35.511h-2.646l17.614-35.511zM159.714 23.218l-17.631 35.511h-2.646l17.614-35.511zM183.012 23.218l-17.631 35.511h-2.646l17.614-35.511zM206.31 23.218l-17.631 35.511h-2.646l17.614-35.511zM229.608 23.218l-17.631 35.511h-2.646l17.614-35.511zM252.906 23.218l-17.631 35.511h-2.646l17.614-35.511zM276.204 23.218l-17.631 35.511h-2.646l17.614-35.511zM299.502 23.218l-17.631 35.511h-2.646l17.614-35.511zM322.8 23.218l-17.631 35.511h-2.646l17.614-35.511z"/>

<path fill="#A0A2A5" d="M40.578 23.218 22.947 58.729H20.3l17.614-35.511zM63.876 23.218 46.245 58.729h-2.647l17.614-35.511zM87.174 23.218 69.543 58.729h-2.647L84.51 23.218zM110.472 23.218 92.841 58.729h-2.647l17.614-35.511zM133.77 23.218l-17.631 35.511h-2.647l17.614-35.511zM157.068 23.218l-17.631 35.511h-2.647l17.614-35.511zM180.366 23.218l-17.631 35.511h-2.647l17.614-35.511zM203.664 23.218l-17.631 35.511h-2.647L201 23.218zM226.962 23.218l-17.631 35.511h-2.647l17.614-35.511zM250.26 23.218l-17.631 35.511h-2.647l17.614-35.511zM273.558 23.218l-17.632 35.511h-2.646l17.614-35.511zM296.856 23.218l-17.631 35.511h-2.647l17.614-35.511zM320.154 23.218l-17.631 35.511h-2.647l17.614-35.511z"/>

<path fill="#747477" d="m66.755 23.54-3.037 6.33c-1.46 3.043.785 6.55 4.193 6.55h277.81l-13.766-12.88h-265.2Z"/>

<path fill="#C4C5C7" d="M341.49 32.246H63.687c-3.22 0-5.394-3.098-4.416-6.013.05-.183.135-.366.218-.55l3.035-6.329h265.194l13.772 12.892Z"/>

<path fill="#C36800" d="m324.959 41.273 3.095 7.212a7.278 7.278 0 0 1-.305 6.38h19.561L336.98 32.24h4.51l-10.102-9.45a83.732 83.732 0 0 0-7.462-3.43H99.025l-11.85 1.66 3.13 8.628h216.997a19.22 19.22 0 0 1 17.657 11.625" opacity=".489"/>

<path fill="#DCDDDE" d="M227.712 19.354v6.88H59.271c.05-.184.134-.367.22-.55l3.033-6.33h165.188Z"/>

<path fill="#C4C5C7" d="m62.524 63.026-3.037-6.33c-1.46-3.043.786-6.551 4.193-6.551h277.81l-13.766 12.88h-265.2Z"/>

<path fill="#FCBD0E" d="M313.256 87.76c-49.338-19.571-125.678-9.894-150.962-5.896-5.393.849-8.461 1.448-8.461 1.448l-50.012-10.96-7.163-17.488H320.74c5.327 0 8.916-5.38 6.826-10.226l-3.134-7.213c-3.069-7.044-10.097-11.625-17.885-11.625H86.763l-3.17-8.628 13.486-1.865s2.596-.4 7.248-1.033c26.649-3.714 120.57-15.64 176.902-8.544 11.008 1.382 20.295 3.165 28.167 5.23 15.27 4.047 25.267 9.21 32.246 14.84 11.074 8.928 14.495 19.088 19.232 27.815.219.4.438.816.64 1.249 1.922 3.898 3.506 8.811 4.163 13.841 2.293 17.805-6.877 37.126-52.421 19.055"/>

<path fill="#C36800" d="M365.678 68.705c-.657-5.03-2.242-9.943-4.163-13.84-.203-.433-.422-.85-.641-1.25-4.737-8.728-8.159-18.887-19.233-27.815a54.829 54.829 0 0 0-2.127-1.624c5.566 6.907 8.32 14.098 11.765 20.515.218.4.434.817.634 1.25 1.902 3.897 3.47 8.81 4.12 13.84 2.268 17.806-6.805 37.126-51.87 19.055-48.817-19.57-124.353-9.894-149.37-5.896-5.338.85-8.374 1.448-8.374 1.448l-45.93-10.172 3.332 8.137 50.01 10.96s3.07-.6 8.463-1.45c25.284-3.996 101.625-13.674 150.962 5.897 45.545 18.07 54.714-1.25 52.422-19.055" opacity=".489"/>

<path fill="#26282C" d="M241.936 47.976c1.123 3.38-.408 5.605-3.97 5.82-.219 3.522-2.47 5.035-5.892 3.925-1.579 3.2-4.328 3.777-7.213 1.439-2.885 2.338-5.634 1.76-7.214-1.439-3.421 1.11-5.672-.403-5.89-3.924-3.564-.216-5.094-2.44-3.971-5.821-3.238-1.56-3.822-4.276-1.457-7.128-2.365-2.85-1.781-5.567 1.457-7.127-1.123-3.38.407-5.606 3.971-5.821.218-3.522 2.469-5.033 5.89-3.925 1.58-3.198 4.329-3.776 7.214-1.438 2.885-2.338 5.634-1.76 7.213 1.438 3.422-1.108 5.673.403 5.891 3.925 3.563.215 5.094 2.44 3.971 5.82 3.238 1.561 3.823 4.278 1.457 7.128 2.366 2.852 1.78 5.568-1.457 7.128Z"/>

<path fill="#FFBA1B" d="M224.67 39.475c.824 0 1.496.68 1.496 1.515 0 .835-.672 1.515-1.496 1.515s-1.495-.68-1.495-1.515c0-.835.671-1.515 1.495-1.515m-2.477 6.184a5.147 5.147 0 0 0 2.477.633c.282 0 .556-.029.826-.073.373-2.037 2.092-3.597 4.184-3.703a5.33 5.33 0 0 0 0-3.052c-2.092-.106-3.81-1.666-4.184-3.703a5.125 5.125 0 0 0-.826-.073c-.895 0-1.739.23-2.477.633a21.813 21.813 0 0 0 0 9.338"/>

<path fill="#FFBA1B" d="M230.652 40.99c0 3.342-2.683 6.06-5.981 6.06s-5.982-2.718-5.982-6.06c0-3.34 2.684-6.059 5.982-6.059s5.981 2.718 5.981 6.06m-5.981 9.089c4.947 0 8.972-4.077 8.972-9.09 0-5.011-4.025-9.089-8.972-9.089-4.948 0-8.972 4.078-8.972 9.09s4.024 9.089 8.972 9.089Z"/>

<path fill="#26282C" d="m327.566 44.638-3.134-7.213c-3.069-7.044-10.097-11.625-17.885-11.625h34.336c1.436 0 2.809.55 3.879 1.495 9.685 8.554 13.116 18.009 17.46 26.32.744 1.422-1.086 1.25-1.086 1.25H320.74c5.327 0 8.916-5.38 6.826-10.227M309.396 9.03c-9.44 4.973-22.655 9.117-38.28 6.407-32.026-5.558-165.188 4.55-165.188 4.55l-1.6-6.934c26.648-4.508 120.569-18.982 176.901-10.37 11.007 1.678 20.296 3.84 28.167 6.347m-116.52 33.025c0 2.3-1.886 4.164-4.213 4.164-2.328 0-4.214-1.864-4.214-4.164s1.886-4.164 4.214-4.164c2.327 0 4.213 1.864 4.213 4.164"/></g></svg>