<svg xmlns="http://www.w3.org/2000/svg" viewBox="0 0 682 129"><path fill="#FFF" d="M1.497 9.651c.014-2.255.226-3.978.636-5.168.41-1.19 1.09-2.02 2.04-2.491.95-.472 2.225-.77 3.825-.892l2.256-.144c3.514-.26 6.166.359 7.957 1.856 1.791 1.497 2.686 3.51 2.686 6.04 0 2.187-.82 3.876-2.46 5.065-.588.437-.882.848-.882 1.23 0 .342.328.725.984 1.149 1.094.629 1.921 1.429 2.482 2.4.56.97.84 2.214.84 3.732 0 2.789-.977 4.946-2.932 6.47s-4.567 2.287-7.834 2.287H8.388c-1.75 0-3.135-.178-4.153-.534-1.019-.355-1.743-1.093-2.174-2.214-.43-1.122-.646-2.837-.646-5.148l.082-13.638Zm9.598 15.955c1.052 0 1.92-.338 2.604-1.015.684-.676 1.026-1.5 1.026-2.47 0-1.204-.376-2.127-1.128-2.77-.752-.642-1.826-.909-3.22-.8l-.697.062c-.766.055-1.32.226-1.661.513-.342.287-.513.772-.513 1.456v2.707c0 .875.24 1.48.718 1.815.478.335.97.502 1.476.502h1.395Zm-.328-12.735c.93.055 1.691-.178 2.286-.697.595-.52.892-1.32.892-2.4 0-1.134-.31-1.927-.933-2.378-.622-.452-1.493-.582-2.615-.39l-.184.02c-.725.11-1.275.36-1.651.749-.376.39-.584.98-.625 1.774l-.062 1.394c-.041.698.03 1.17.215 1.415.185.246.53.383 1.036.41l1.64.103Zm33.16 4.922c-.286 9.228-3.916 13.843-10.889 13.843-2.365 0-4.28-.475-5.742-1.426-1.463-.95-2.526-2.457-3.19-4.522-.662-2.064-.994-4.771-.994-8.12V6.964c0-3.705 1.033-5.558 3.097-5.558 1.012 0 1.75.407 2.215 1.22.465.814.745 2.26.84 4.338L29.43 17.3c.054 2.256.372 3.818.953 4.686.581.868 1.583 1.302 3.005 1.302 1.408.014 2.43-.444 3.066-1.374.635-.93.98-2.468 1.035-4.614l.267-11.136c.11-1.969.424-3.326.943-4.07.52-.746 1.36-1.118 2.523-1.118 1.19 0 2.027.574 2.512 1.722.485 1.149.694 3.049.625 5.701l-.43 9.393Zm23.216 9.905c-.041 1.408-.35 2.42-.923 3.035-.574.616-1.333.923-2.277.923-.902 0-1.692-.324-2.368-.974-.677-.65-1.316-1.753-1.918-3.312L54.551 16.42c-.315-.78-.704-1.169-1.17-1.169-.259 0-.467.12-.625.359-.157.24-.235.666-.235 1.282 0 1.668.02 3.35.061 5.045.041 1.695.062 3.363.062 5.003v.288c0 1.681-.284 2.833-.852 3.455-.567.622-1.309.933-2.225.933-.67 0-1.24-.15-1.712-.45-.472-.302-.824-.852-1.056-1.652-.233-.8-.328-1.931-.287-3.394l.656-20.118c.068-1.996.427-3.319 1.077-3.968.649-.65 1.452-.974 2.41-.974 1.011 0 1.828.355 2.45 1.066.622.71 1.302 1.962 2.04 3.753l4.39 9.27c.232.505.447.857.645 1.056.198.198.42.297.667.297a.652.652 0 0 0 .574-.308c.137-.205.205-.58.205-1.128 0-.943-.027-1.832-.082-2.666-.055-.834-.12-1.746-.195-2.737-.075-.992-.147-2.178-.215-3.558V5.59c-.055-1.682.229-2.882.85-3.6.623-.717 1.433-1.076 2.431-1.076 1.08 0 1.894.41 2.44 1.23.547.82.787 2.38.718 4.676l-.43 20.877Zm3.978-3.22c-.998-2.433-1.429-5.496-1.292-9.187l.02-.451c.151-3.473.725-6.245 1.723-8.316.998-2.071 2.383-3.565 4.153-4.481 1.77-.916 3.886-1.374 6.347-1.374 2.037 0 3.753.37 5.148 1.107 1.394.739 2.46 1.713 3.199 2.923a7.666 7.666 0 0 1 1.148 3.906c.028 1.23-.256 2.174-.85 2.83-.595.657-1.296.985-2.103.985-.67 0-1.258-.168-1.763-.503-.506-.334-.916-.878-1.23-1.63-.67-1.9-1.929-2.85-3.774-2.85-.903 0-1.743.307-2.523.922-.78.616-1.408 1.576-1.886 2.882-.479 1.305-.725 3.011-.739 5.116v.37c-.027 2.98.322 5.147 1.046 6.5.725 1.354 2.065 2.03 4.02 2.03 1.49 0 2.556-.348 3.199-1.045.642-.697 1.005-1.586 1.087-2.666l.02-.185c.055-.71-.054-1.203-.328-1.476-.273-.274-.834-.424-1.681-.451l-.841-.02c-.957-.028-1.661-.25-2.113-.667-.45-.417-.676-.968-.676-1.651 0-.78.26-1.402.779-1.867.52-.464 1.408-.704 2.666-.717l3.507-.103c1.709-.027 2.908.345 3.599 1.118.69.772 1.001 2.116.933 4.03l-.062 1.23c-.123 3.582-1.093 6.303-2.912 8.162-1.818 1.86-4.238 2.782-7.26 2.769-2.35-.014-4.446-.619-6.285-1.815-1.839-1.196-3.264-3.005-4.276-5.424Zm22.764-17.35c0-1.653.15-2.918.45-3.793.302-.875.705-1.48 1.21-1.815a2.915 2.915 0 0 1 1.642-.502c1.08 0 1.91.393 2.491 1.179.581.786.83 2.3.749 4.542l.02 15.258c-.027 1.463.168 2.437.585 2.922.417.486 1.295.687 2.635.605l2.933-.184c1.627-.11 2.761.092 3.404.605.642.513.964 1.33.964 2.45 0 1.026-.36 1.781-1.077 2.267-.718.485-1.91.728-3.579.728-.82-.014-1.64.006-2.46.061-.82.055-1.6.11-2.338.164a51.077 51.077 0 0 1-2.338.164c-1.19.028-2.154-.174-2.892-.605-.738-.43-1.278-1.186-1.62-2.266-.342-1.08-.52-2.57-.533-4.47l-.246-17.31ZM112.3 6.084c-.055-1.887.188-3.203.728-3.948.54-.745 1.309-1.117 2.307-1.117.97 0 1.73.328 2.276.984.547.656.855 1.928.923 3.814l.43 20.18c.07 2.215-.197 3.702-.799 4.46-.602.76-1.408 1.139-2.42 1.139-.984 0-1.75-.36-2.297-1.077-.547-.718-.854-2.047-.923-3.989l-.225-20.446Zm30.228 21.615c-.04 1.408-.348 2.42-.923 3.035-.574.616-1.333.923-2.276.923-.902 0-1.692-.324-2.369-.974-.676-.65-1.315-1.753-1.917-3.312l-5.107-10.951c-.314-.78-.704-1.169-1.168-1.169-.26 0-.469.12-.626.359-.157.24-.236.666-.236 1.282 0 1.668.02 3.35.062 5.045.04 1.695.061 3.363.061 5.003v.288c0 1.681-.283 2.833-.85 3.455-.568.622-1.31.933-2.226.933-.67 0-1.24-.15-1.712-.45-.472-.302-.824-.852-1.056-1.652-.233-.8-.329-1.931-.288-3.394l.657-20.118c.068-1.996.427-3.319 1.076-3.968.65-.65 1.453-.974 2.41-.974 1.012 0 1.829.355 2.45 1.066.623.71 1.303 1.962 2.041 3.753l4.389 9.27c.232.505.448.857.646 1.056.198.198.42.297.666.297a.652.652 0 0 0 .575-.308c.136-.205.205-.58.205-1.128 0-.943-.028-1.832-.082-2.666-.055-.834-.12-1.746-.195-2.737-.075-.992-.147-2.178-.215-3.558V5.59c-.055-1.682.229-2.882.85-3.6.623-.717 1.433-1.076 2.43-1.076 1.08 0 1.894.41 2.441 1.23.547.82.786 2.38.718 4.676l-.43 20.877Zm3.979-3.22c-.998-2.433-1.429-5.496-1.292-9.187l.02-.451c.15-3.473.725-6.245 1.723-8.316.998-2.071 2.382-3.565 4.153-4.481 1.77-.916 3.886-1.374 6.347-1.374 2.037 0 3.753.37 5.147 1.107 1.395.739 2.461 1.713 3.2 2.923a7.666 7.666 0 0 1 1.148 3.906c.027 1.23-.256 2.174-.851 2.83-.595.657-1.295.985-2.102.985-.67 0-1.258-.168-1.764-.503-.506-.334-.916-.878-1.23-1.63-.67-1.9-1.928-2.85-3.774-2.85-.902 0-1.743.307-2.522.922-.78.616-1.408 1.576-1.887 2.882-.478 1.305-.724 3.011-.738 5.116v.37c-.027 2.98.321 5.147 1.046 6.5.724 1.354 2.064 2.03 4.02 2.03 1.49 0 2.556-.348 3.199-1.045.642-.697 1.004-1.586 1.087-2.666l.02-.185c.055-.71-.055-1.203-.328-1.476-.274-.274-.834-.424-1.682-.451l-.84-.02c-.958-.028-1.662-.25-2.113-.667-.451-.417-.677-.968-.677-1.651 0-.78.26-1.402.78-1.867.52-.464 1.408-.704 2.666-.717l3.507-.103c1.708-.027 2.908.345 3.599 1.118.69.772 1.001 2.116.933 4.03l-.062 1.23c-.123 3.582-1.094 6.303-2.912 8.162-1.818 1.86-4.238 2.782-7.26 2.769-2.351-.014-4.446-.619-6.285-1.815-1.84-1.196-3.264-3.005-4.276-5.424Zm33.038 6.891a2.79 2.79 0 0 1-1.64-.502c-.48-.335-.845-.964-1.098-1.887-.253-.923-.352-2.273-.297-4.05l.143-15.668c.069-2.201.308-3.87.718-5.004.41-1.135 1.1-1.921 2.071-2.359.971-.437 2.331-.697 4.081-.779l1.026-.04c3.978-.192 6.945.587 8.9 2.337 1.955 1.75 2.933 4.115 2.933 7.096 0 1.299-.14 2.372-.42 3.22-.28.847-.66 1.565-1.139 2.153a13.545 13.545 0 0 1-1.64 1.681 3.076 3.076 0 0 0-.677.739c-.164.26-.246.567-.246.923 0 .3.04.625.123.974.082.348.219.728.41 1.138.26.52.608 1.114 1.046 1.784a63.6 63.6 0 0 0 1.907 2.707c.711.916 1.066 1.853 1.066 2.81a2.91 2.91 0 0 1-.8 2.05c-.533.575-1.264.862-2.194.862-1.175 0-2.16-.479-2.953-1.436a17.798 17.798 0 0 1-1.743-2.44 38.228 38.228 0 0 1-1.456-2.625c-.41-.82-.71-1.415-.902-1.784-.356-.711-.687-1.186-.995-1.426-.308-.239-.714-.359-1.22-.359h-.103c-.588 0-1.022.168-1.302.503-.28.335-.44.926-.482 1.774l-.143 4.388c-.165 2.147-1.156 3.22-2.974 3.22Zm6.275-24.363h-.246c-1.08 0-1.78.219-2.102.656-.321.438-.482 1.217-.482 2.338v.492c0 1.682.246 2.762.738 3.24.493.479 1.135.718 1.928.718h.164c2.434 0 3.65-1.196 3.65-3.589 0-2.57-1.216-3.855-3.65-3.855Zm33.633 18.6c.738 2.284.824 3.89.256 4.82-.567.93-1.48 1.394-2.737 1.394-1.641 0-2.755-1.025-3.343-3.076l-.533-2.153c-.22-.82-.547-1.367-.985-1.64-.437-.274-1.169-.384-2.194-.329l-1.764.103c-1.326.054-2.262.25-2.81.584-.546.335-.97 1.036-1.27 2.102l-.124.492c-.424 1.463-.943 2.478-1.558 3.046-.616.567-1.47.844-2.564.83-1.408-.027-2.338-.642-2.789-1.845-.451-1.204-.198-3.213.759-6.03l5.537-17.083c.793-2.338 1.603-3.92 2.43-4.747.827-.827 1.788-1.241 2.881-1.241.862 0 1.583.164 2.164.492.581.328 1.104.926 1.569 1.795.465.868.95 2.102 1.456 3.701l5.62 18.785Zm-10.992-13.555a.827.827 0 0 0-.605.256c-.171.171-.311.496-.42.974l-.923 3.815c-.246 1.039-.23 1.716.05 2.03.281.314.736.472 1.365.472h.964c.847 0 1.39-.277 1.63-.83.24-.555.174-1.44-.195-2.657l-.902-2.953c-.123-.424-.257-.714-.4-.871a.728.728 0 0 0-.564-.236Zm12.715-5.968c-.055-1.887.188-3.203.728-3.948.54-.745 1.309-1.117 2.307-1.117.97 0 1.73.328 2.276.984.547.656.855 1.928.923 3.814l.43 20.18c.07 2.215-.197 3.702-.799 4.46-.602.76-1.408 1.139-2.42 1.139-.984 0-1.75-.36-2.297-1.077-.547-.718-.854-2.047-.923-3.989l-.225-20.446Zm9.741 3.568c-.014-2.297.195-4.036.625-5.219.431-1.182 1.122-1.982 2.072-2.4.95-.416 2.184-.625 3.701-.625h2.461c2.94 0 5.414.513 7.424 1.538 2.01 1.026 3.504 2.65 4.481 4.87.978 2.223 1.37 5.138 1.18 8.747l-.042.882c-.26 4.909-1.517 8.443-3.773 10.603-2.256 2.16-5.49 3.192-9.7 3.097l-1.743-.021c-1.668-.041-2.974-.267-3.917-.677-.944-.41-1.61-1.172-2-2.286-.39-1.115-.591-2.738-.605-4.87l-.164-13.639Zm9.352 14.233c1.667-.096 2.956-.721 3.865-1.877.91-1.155 1.453-2.99 1.63-5.506l.021-.226c.178-2.57-.202-4.43-1.138-5.578-.937-1.148-2.423-1.77-4.46-1.866l-.554-.041c-1.244-.055-1.88.513-1.907 1.702l-.288 11.67c-.013.683.12 1.158.4 1.424.28.267.77.387 1.467.36l.964-.062Zm14.663-14.725c-.014-2.242.18-3.954.584-5.137.403-1.183 1.097-1.99 2.082-2.42.984-.43 2.324-.625 4.02-.584l6.234.287c1.298.013 2.266.283 2.901.81.636.526.954 1.2.954 2.02 0 .806-.263 1.446-.79 1.917-.526.472-1.397.749-2.614.83l-4.594.165c-.875.055-1.453.208-1.733.461s-.434.742-.461 1.467l-.123 2.132c-.028.82.116 1.395.43 1.723.315.328.91.506 1.784.533l3.671.164c2.12.082 3.179.875 3.179 2.38 0 .806-.267 1.4-.8 1.783s-1.305.609-2.317.677l-3.26.103c-1.026.054-1.754.29-2.185.707-.43.417-.598 1.145-.502 2.184l.205 2.03c.068.725.177 1.276.328 1.651.15.376.417.63.8.76.382.13.957.2 1.722.215l3.261.02c1.422.055 2.447.294 3.076.718.63.424.944 1.039.944 1.846 0 .998-.346 1.76-1.036 2.286-.69.527-1.87.824-3.538.892l-4.799-.04c-1.476.054-2.676-.028-3.599-.247s-1.627-.65-2.112-1.292c-.485-.642-.824-1.558-1.015-2.748-.192-1.19-.3-2.727-.328-4.614l-.37-13.679Zm21.697 22.21a2.79 2.79 0 0 1-1.64-.502c-.48-.335-.845-.964-1.098-1.887-.253-.923-.352-2.273-.297-4.05l.143-15.668c.069-2.201.308-3.87.718-5.004.41-1.135 1.1-1.921 2.071-2.359.971-.437 2.331-.697 4.081-.779l1.026-.04c3.978-.192 6.945.587 8.9 2.337 1.955 1.75 2.933 4.115 2.933 7.096 0 1.299-.14 2.372-.42 3.22-.28.847-.66 1.565-1.139 2.153a13.545 13.545 0 0 1-1.64 1.681 3.076 3.076 0 0 0-.677.739c-.164.26-.246.567-.246.923 0 .3.04.625.123.974.082.348.219.728.41 1.138.26.52.608 1.114 1.046 1.784.437.67 1.073 1.572 1.907 2.707.711.916 1.066 1.853 1.066 2.81a2.91 2.91 0 0 1-.8 2.05c-.533.575-1.264.862-2.194.862-1.175 0-2.16-.479-2.953-1.436a17.798 17.798 0 0 1-1.743-2.44 38.228 38.228 0 0 1-1.456-2.625c-.41-.82-.711-1.415-.902-1.784-.356-.711-.687-1.186-.995-1.426-.308-.239-.714-.359-1.22-.359h-.103c-.588 0-1.022.168-1.302.503-.28.335-.44.926-.482 1.774l-.143 4.388c-.165 2.147-1.156 3.22-2.974 3.22Zm6.275-24.363h-.246c-1.08 0-1.78.219-2.102.656-.321.438-.482 1.217-.482 2.338v.492c0 1.682.246 2.762.738 3.24.493.479 1.135.718 1.928.718h.164c2.434 0 3.65-1.196 3.65-3.589 0-2.57-1.216-3.855-3.65-3.855Zm19.606 1.046c-.028-1.928.092-3.394.359-4.4.266-1.004.656-1.684 1.169-2.04.512-.355 1.117-.533 1.815-.533.93 0 1.65.328 2.163.984.513.657.776 1.833.79 3.528l-.164 4.347c-.028.848.037 1.405.194 1.672.158.266.38.4.667.4.533 0 1.162-.472 1.887-1.415 1.107-1.381 2.33-3.528 3.67-6.44.479-1.134 1.012-1.92 1.6-2.358.588-.438 1.32-.663 2.194-.677.793-.014 1.463.222 2.01.708.547.485.82 1.193.82 2.122 0 .82-.19 1.64-.574 2.461-.82 1.654-1.685 3.131-2.594 4.43-.91 1.299-1.746 2.372-2.512 3.22-.506.574-.855 1.056-1.046 1.445-.191.39-.287.804-.287 1.241 0 .383.068.766.205 1.149.137.382.403.881.8 1.497.56.875 1.281 1.784 2.163 2.727.882.943 1.973 1.962 3.271 3.056.82.765 1.374 1.405 1.661 1.917.288.513.431 1.09.431 1.733 0 .711-.253 1.337-.759 1.877s-1.216.81-2.132.81c-.698 0-1.303-.134-1.815-.4-.513-.267-1.022-.646-1.528-1.138-1.367-1.176-2.461-2.28-3.281-3.312a38.748 38.748 0 0 1-2.236-3.107c-.396-.643-.697-1.063-.902-1.262-.205-.198-.424-.297-.656-.297-.288 0-.52.133-.698.4-.177.267-.28.776-.307 1.528l-.144 3.732c-.027 1.531-.277 2.591-.748 3.179-.472.588-1.132.882-1.98.882a2.626 2.626 0 0 1-1.62-.523c-.464-.349-.834-1.005-1.107-1.969-.273-.964-.43-2.362-.472-4.194l-.307-16.98Zm41.938 19.646c-.04 1.408-.348 2.42-.923 3.035-.574.616-1.333.923-2.276.923-.902 0-1.692-.324-2.369-.974-.676-.65-1.316-1.753-1.917-3.312l-5.107-10.951c-.314-.78-.704-1.169-1.169-1.169-.26 0-.468.12-.625.359-.157.24-.236.666-.236 1.282 0 1.668.02 3.35.062 5.045.04 1.695.061 3.363.061 5.003v.288c0 1.681-.283 2.833-.85 3.455-.568.622-1.31.933-2.226.933-.67 0-1.24-.15-1.712-.45-.472-.302-.824-.852-1.057-1.652-.232-.8-.328-1.931-.287-3.394l.657-20.118c.068-1.996.427-3.319 1.076-3.968.65-.65 1.453-.974 2.41-.974 1.012 0 1.829.355 2.45 1.066.623.71 1.303 1.962 2.041 3.753l4.389 9.27c.232.505.448.857.646 1.056.198.198.42.297.666.297a.652.652 0 0 0 .575-.308c.136-.205.205-.58.205-1.128 0-.943-.028-1.832-.082-2.666-.055-.834-.12-1.746-.195-2.737-.075-.992-.147-2.178-.216-3.558V5.59c-.054-1.682.23-2.882.852-3.6.622-.717 1.432-1.076 2.43-1.076 1.08 0 1.893.41 2.44 1.23.547.82.786 2.38.718 4.676l-.43 20.877Zm14.91 4.163c-1.778 0-3.398-.263-4.861-.79-1.463-.526-2.717-1.394-3.763-2.604-1.046-1.21-1.853-2.843-2.42-4.901s-.851-4.625-.851-7.7v-.678c0-3.185.499-5.848 1.497-7.987.998-2.14 2.369-3.753 4.112-4.84 1.743-1.087 3.729-1.63 5.957-1.63 3.5 0 6.296 1.168 8.388 3.506 2.092 2.338 3.138 5.9 3.138 10.685v.697c0 3.8-.452 6.898-1.354 9.29-.902 2.393-2.187 4.15-3.855 5.27-1.668 1.122-3.664 1.682-5.989 1.682Zm4.388-14.95c0-2.72-.437-4.836-1.312-6.347-.875-1.51-1.99-2.266-3.343-2.266-1.696 0-2.902.776-3.62 2.327-.718 1.552-1.076 3.552-1.076 5.999v.349c0 2.297.41 4.135 1.23 5.516.82 1.381 2.064 2.072 3.732 2.072 1.668 0 2.817-.564 3.446-1.692.629-1.128.943-2.991.943-5.589v-.369Zm8.367.451-.061-1.62c-.164-3.637.205-6.58 1.107-8.828.902-2.25 2.287-3.89 4.153-4.922 1.866-1.033 4.153-1.549 6.86-1.549 1.9 0 3.558.441 4.973 1.323 1.415.882 2.516 2.12 3.302 3.712.786 1.593 1.179 3.456 1.179 5.588 0 1.327-.26 2.376-.78 3.148-.519.773-1.367 1.159-2.542 1.159-1.04 0-1.822-.311-2.348-.933-.527-.622-.865-1.61-1.016-2.963-.082-1.094-.396-2.003-.943-2.728-.547-.725-1.353-1.094-2.42-1.107-1.558-.028-2.751.625-3.578 1.958-.828 1.333-1.248 3.387-1.262 6.163v1.271c-.013 2.68.356 4.659 1.108 5.937.752 1.279 1.873 1.972 3.363 2.082.984.054 1.822-.257 2.512-.933.69-.677 1.145-1.57 1.364-2.677.246-1.19.625-2.006 1.138-2.45.513-.445 1.138-.667 1.877-.667 1.162 0 2.01.37 2.543 1.108.533.738.827 1.73.881 2.973.15 2.953-.66 5.291-2.43 7.014-1.77 1.723-4.228 2.584-7.372 2.584-3.664-.014-6.453-1.159-8.368-3.435-1.914-2.277-2.994-6.012-3.24-11.208ZM426.911.854c1.026 0 1.924.058 2.697.174.772.116 1.432.256 1.979.42 1.066.315 1.873.803 2.42 1.467.547.663.82 1.411.82 2.245 0 .889-.266 1.648-.8 2.277-.533.628-1.312.943-2.338.943-.67 0-1.452-.188-2.348-.564-.895-.376-1.917-.564-3.066-.564-.738 0-1.36.185-1.866.554-.506.369-.759.923-.759 1.66 0 .725.24 1.344.718 1.857.479.512 1.32 1.05 2.523 1.61l.676.307c1.846.82 3.309 1.685 4.39 2.594 1.08.91 1.852 1.918 2.316 3.025.465 1.108.698 2.38.698 3.815 0 1.75-.431 3.312-1.292 4.686-.862 1.374-2.099 2.457-3.712 3.25-1.613.793-3.548 1.19-5.804 1.19-1.025 0-1.986-.075-2.881-.226-.896-.15-1.637-.314-2.225-.492-1.135-.355-1.928-.83-2.38-1.425a2.952 2.952 0 0 1-.275-.439c-.074.55-.318 1.046-.73 1.485-.505.54-1.216.81-2.132.81-.697 0-1.302-.134-1.815-.4-.513-.267-1.022-.646-1.528-1.138-1.367-1.176-2.46-2.28-3.281-3.312a38.748 38.748 0 0 1-2.235-3.107c-.397-.643-.698-1.063-.903-1.262-.205-.198-.424-.297-.656-.297-.287 0-.52.133-.697.4-.178.267-.28.776-.308 1.528l-.143 3.732c-.028 1.531-.277 2.591-.749 3.179-.472.588-1.131.882-1.979.882a2.626 2.626 0 0 1-1.62-.523c-.465-.349-.834-1.005-1.107-1.969-.274-.964-.431-2.362-.472-4.194l-.308-16.98c-.027-1.928.093-3.394.36-4.4.266-1.004.655-1.684 1.168-2.04.513-.355 1.118-.533 1.815-.533.93 0 1.65.328 2.164.984.512.657.775 1.833.79 3.528l-.165 4.347c-.027.848.038 1.405.195 1.672.157.266.38.4.666.4.534 0 1.163-.472 1.887-1.415 1.108-1.381 2.331-3.528 3.671-6.44.479-1.134 1.012-1.92 1.6-2.358.588-.438 1.319-.663 2.194-.677.793-.014 1.463.222 2.01.708.547.485.82 1.193.82 2.122 0 .82-.191 1.64-.574 2.461-.82 1.654-1.685 3.131-2.594 4.43-.91 1.299-1.747 2.372-2.513 3.22-.505.574-.854 1.056-1.046 1.445-.19.39-.287.804-.287 1.241 0 .383.069.766.205 1.149.137.382.404.881.8 1.497.56.875 1.282 1.784 2.164 2.727.882.943 1.972 1.962 3.27 3.056.821.765 1.375 1.405 1.662 1.917l.008.014c.05-.682.32-1.3.812-1.86.547-.622 1.381-.933 2.502-.933.875 0 1.62.059 2.236.175.615.116 1.189.236 1.722.359a7.458 7.458 0 0 0 1.682.184c1.79 0 2.686-.786 2.686-2.358 0-.848-.25-1.545-.748-2.092-.5-.547-1.357-1.121-2.574-1.723l-.718-.369c-2.283-1.217-4.026-2.522-5.23-3.917-1.202-1.408-1.804-3.206-1.804-5.393 0-1.723.427-3.206 1.282-4.45.854-1.245 2.058-2.202 3.61-2.872 1.551-.67 3.366-1.004 5.444-1.004Zm16.386 8.797c-.014-2.297.195-4.036.625-5.219.431-1.182 1.121-1.982 2.072-2.4.95-.416 2.184-.625 3.701-.625h2.461c2.94 0 5.414.513 7.424 1.538 2.01 1.026 3.503 2.65 4.481 4.87.978 2.223 1.37 5.138 1.18 8.747l-.042.882c-.26 4.909-1.517 8.443-3.773 10.603-2.256 2.16-5.49 3.192-9.7 3.097l-1.744-.021c-1.668-.041-2.973-.267-3.917-.677-.943-.41-1.61-1.172-2-2.286-.389-1.115-.59-2.738-.604-4.87l-.164-13.639Zm9.351 14.233c1.668-.096 2.957-.721 3.866-1.877.91-1.155 1.453-2.99 1.63-5.506l.021-.226c.178-2.57-.202-4.43-1.138-5.578-.937-1.148-2.423-1.77-4.46-1.866l-.554-.041c-1.244-.055-1.88.513-1.908 1.702l-.287 11.67c-.013.683.12 1.158.4 1.424.28.267.77.387 1.467.36l.963-.062Zm26.045 7.977c-1.777 0-3.397-.263-4.86-.79-1.463-.526-2.717-1.394-3.763-2.604-1.046-1.21-1.853-2.843-2.42-4.901s-.851-4.625-.851-7.7v-.678c0-3.185.499-5.848 1.497-7.987.998-2.14 2.369-3.753 4.112-4.84 1.743-1.087 3.729-1.63 5.957-1.63 3.5 0 6.296 1.168 8.388 3.506 2.092 2.338 3.138 5.9 3.138 10.685v.697c0 3.8-.452 6.898-1.354 9.29-.902 2.393-2.187 4.15-3.855 5.27-1.668 1.122-3.664 1.682-5.989 1.682Zm4.389-14.95c0-2.72-.437-4.836-1.312-6.347-.875-1.51-1.99-2.266-3.343-2.266-1.696 0-2.902.776-3.62 2.327-.718 1.552-1.077 3.552-1.077 5.999v.349c0 2.297.41 4.135 1.23 5.516.821 1.381 2.065 2.072 3.733 2.072 1.668 0 2.817-.564 3.446-1.692.629-1.128.943-2.991.943-5.589v-.369Zm36.135 8.552c-.37 1.64-.77 2.905-1.2 3.794-.43.889-.913 1.5-1.446 1.835-.533.335-1.148.503-1.845.503-.93 0-1.788-.335-2.574-1.005-.786-.67-1.391-1.955-1.815-3.856l-1.723-8.08c-.123-.601-.28-1.015-.471-1.24a.883.883 0 0 0-.698-.339c-.26 0-.495.116-.707.349-.212.232-.386.67-.523 1.312l-1.846 8.203c-.355 1.764-.871 3.019-1.548 3.764-.677.745-1.603 1.117-2.779 1.117-.793 0-1.507-.17-2.143-.512-.636-.342-1.196-.981-1.682-1.918-.485-.936-.899-2.293-1.24-4.07l-3.569-17.453c-.355-1.846-.44-3.274-.256-4.286.184-1.012.547-1.72 1.087-2.123.54-.403 1.172-.604 1.897-.604.67 0 1.247.146 1.733.44.485.294.899.824 1.24 1.59.342.765.616 1.866.82 3.302l1.477 9.556c.123.848.29 1.405.503 1.672.212.266.454.4.728.4.273 0 .512-.124.717-.37.206-.246.404-.779.595-1.6l2.195-10.007c.273-1.121.68-1.914 1.22-2.379.54-.465 1.193-.697 1.958-.697.793 0 1.484.242 2.072.728.587.485 1.011 1.275 1.271 2.368l2.153 10.582c.15.643.322 1.077.513 1.303.191.225.41.338.656.338.287 0 .537-.123.749-.37.212-.245.386-.73.523-1.455l1.887-10.644c.341-1.709.782-2.905 1.322-3.589.54-.683 1.296-1.025 2.266-1.025 1.272 0 2.15.55 2.636 1.65.485 1.102.475 2.793-.031 5.077l-4.122 17.739Zm26.598 2.235c-.04 1.408-.348 2.42-.922 3.035-.575.616-1.333.923-2.277.923-.902 0-1.692-.324-2.368-.974-.677-.65-1.316-1.753-1.918-3.312l-5.106-10.951c-.315-.78-.704-1.169-1.17-1.169-.26 0-.468.12-.625.359-.157.24-.236.666-.236 1.282 0 1.668.02 3.35.062 5.045.04 1.695.061 3.363.061 5.003v.288c0 1.681-.283 2.833-.85 3.455-.568.622-1.31.933-2.226.933-.67 0-1.24-.15-1.712-.45-.472-.302-.824-.852-1.056-1.652-.233-.8-.328-1.931-.287-3.394l.656-20.118c.068-1.996.427-3.319 1.076-3.968.65-.65 1.453-.974 2.41-.974 1.012 0 1.829.355 2.45 1.066.623.71 1.303 1.962 2.041 3.753l4.389 9.27c.232.505.448.857.646 1.056.198.198.42.297.667.297a.652.652 0 0 0 .574-.308c.136-.205.205-.58.205-1.128 0-.943-.028-1.832-.082-2.666-.055-.834-.12-1.746-.195-2.737-.075-.992-.147-2.178-.215-3.558V5.59c-.055-1.682.229-2.882.85-3.6.623-.717 1.433-1.076 2.43-1.076 1.081 0 1.894.41 2.441 1.23.547.82.786 2.38.718 4.676l-.43 20.877Zm37.632-2.235c-.369 1.64-.769 2.905-1.2 3.794-.43.889-.912 1.5-1.445 1.835-.533.335-1.149.503-1.846.503-.93 0-1.788-.335-2.574-1.005-.786-.67-1.39-1.955-1.815-3.856l-1.722-8.08c-.123-.601-.28-1.015-.472-1.24a.883.883 0 0 0-.697-.339c-.26 0-.496.116-.708.349-.212.232-.386.67-.523 1.312L568.6 26.94c-.356 1.764-.872 3.019-1.549 3.764-.676.745-1.603 1.117-2.779 1.117-.793 0-1.507-.17-2.143-.512-.635-.342-1.196-.981-1.681-1.918-.486-.936-.9-2.293-1.241-4.07l-3.568-17.453c-.356-1.846-.441-3.274-.257-4.286.185-1.012.547-1.72 1.087-2.123.54-.403 1.173-.604 1.897-.604.67 0 1.248.146 1.733.44.485.294.899.824 1.24 1.59.343.765.616 1.866.821 3.302l1.477 9.556c.123.848.29 1.405.502 1.672.212.266.455.4.728.4.274 0 .513-.124.718-.37.205-.246.403-.779.595-1.6l2.194-10.007c.273-1.121.68-1.914 1.22-2.379.54-.465 1.193-.697 1.959-.697.793 0 1.483.242 2.071.728.588.485 1.012 1.275 1.272 2.368l2.153 10.582c.15.643.321 1.077.513 1.303.19.225.41.338.656.338.287 0 .536-.123.748-.37.212-.245.387-.73.523-1.455l1.887-10.644c.342-1.709.783-2.905 1.323-3.589.54-.683 1.295-1.025 2.266-1.025 1.271 0 2.15.55 2.635 1.65.485 1.102.475 2.793-.03 5.077l-4.123 17.739Zm9.25 5.906a2.79 2.79 0 0 1-1.641-.502c-.479-.335-.845-.964-1.098-1.887-.252-.923-.352-2.273-.297-4.05l.144-15.668c.068-2.201.307-3.87.717-5.004.41-1.135 1.101-1.921 2.072-2.359.97-.437 2.33-.697 4.08-.779l1.026-.04c3.979-.192 6.946.587 8.9 2.337 1.956 1.75 2.933 4.115 2.933 7.096 0 1.299-.14 2.372-.42 3.22-.28.847-.66 1.565-1.138 2.153a13.544 13.544 0 0 1-1.641 1.681 3.076 3.076 0 0 0-.677.739c-.164.26-.246.567-.246.923 0 .3.041.625.123.974.082.348.219.728.41 1.138.26.52.609 1.114 1.046 1.784a63.6 63.6 0 0 0 1.907 2.707c.711.916 1.067 1.853 1.067 2.81a2.91 2.91 0 0 1-.8 2.05c-.533.575-1.265.862-2.194.862-1.176 0-2.16-.479-2.953-1.436a17.798 17.798 0 0 1-1.744-2.44 38.229 38.229 0 0 1-1.456-2.625c-.41-.82-.71-1.415-.902-1.784-.355-.711-.687-1.186-.995-1.426-.307-.239-.714-.359-1.22-.359h-.102c-.588 0-1.022.168-1.303.503-.28.335-.44.926-.482 1.774l-.143 4.388c-.164 2.147-1.155 3.22-2.974 3.22Zm6.275-24.363h-.246c-1.08 0-1.781.219-2.102.656-.322.438-.482 1.217-.482 2.338v.492c0 1.682.246 2.762.738 3.24.492.479 1.135.718 1.928.718h.164c2.433 0 3.65-1.196 3.65-3.589 0-2.57-1.217-3.855-3.65-3.855Zm23.891 24.855c-1.777 0-3.397-.263-4.86-.79-1.463-.526-2.717-1.394-3.763-2.604-1.046-1.21-1.853-2.843-2.42-4.901-.568-2.058-.851-4.625-.851-7.7v-.678c0-3.185.499-5.848 1.497-7.987.998-2.14 2.368-3.753 4.112-4.84 1.743-1.087 3.729-1.63 5.957-1.63 3.5 0 6.296 1.168 8.388 3.506 2.092 2.338 3.138 5.9 3.138 10.685v.697c0 3.8-.452 6.898-1.354 9.29-.902 2.393-2.187 4.15-3.855 5.27-1.668 1.122-3.664 1.682-5.989 1.682Zm4.389-14.95c0-2.72-.438-4.836-1.313-6.347-.875-1.51-1.989-2.266-3.342-2.266-1.696 0-2.902.776-3.62 2.327-.718 1.552-1.077 3.552-1.077 5.999v.349c0 2.297.41 4.135 1.23 5.516.821 1.381 2.065 2.072 3.733 2.072 1.668 0 2.817-.564 3.446-1.692.629-1.128.943-2.991.943-5.589v-.369Zm29.51 10.787c-.04 1.408-.348 2.42-.922 3.035-.574.616-1.333.923-2.277.923-.902 0-1.691-.324-2.368-.974-.677-.65-1.316-1.753-1.918-3.312l-5.106-10.951c-.315-.78-.704-1.169-1.169-1.169-.26 0-.468.12-.626.359-.157.24-.235.666-.235 1.282 0 1.668.02 3.35.061 5.045.041 1.695.062 3.363.062 5.003v.288c0 1.681-.284 2.833-.851 3.455-.568.622-1.31.933-2.226.933-.67 0-1.24-.15-1.712-.45-.472-.302-.824-.852-1.056-1.652-.232-.8-.328-1.931-.287-3.394l.656-20.118c.068-1.996.427-3.319 1.077-3.968.65-.65 1.452-.974 2.41-.974 1.011 0 1.828.355 2.45 1.066.622.71 1.302 1.962 2.04 3.753l4.39 9.27c.232.505.447.857.645 1.056.199.198.42.297.667.297a.652.652 0 0 0 .574-.308c.137-.205.205-.58.205-1.128 0-.943-.027-1.832-.082-2.666-.055-.834-.12-1.746-.195-2.737a138.58 138.58 0 0 1-.215-3.558V5.59c-.055-1.682.229-2.882.851-3.6.622-.717 1.432-1.076 2.43-1.076 1.08 0 1.894.41 2.44 1.23.547.82.787 2.38.718 4.676l-.43 20.877Zm3.98-3.22c-.999-2.433-1.43-5.496-1.293-9.187l.02-.451c.151-3.473.725-6.245 1.723-8.316.998-2.071 2.383-3.565 4.153-4.481 1.77-.916 3.886-1.374 6.347-1.374 2.037 0 3.753.37 5.148 1.107 1.394.739 2.46 1.713 3.2 2.923a7.666 7.666 0 0 1 1.148 3.906c.027 1.23-.257 2.174-.852 2.83-.594.657-1.295.985-2.102.985-.67 0-1.257-.168-1.763-.503-.506-.334-.916-.878-1.23-1.63-.67-1.9-1.928-2.85-3.774-2.85-.903 0-1.743.307-2.523.922-.779.616-1.408 1.576-1.886 2.882-.479 1.305-.725 3.011-.739 5.116v.37c-.027 2.98.322 5.147 1.046 6.5.725 1.354 2.065 2.03 4.02 2.03 1.49 0 2.556-.348 3.199-1.045.643-.697 1.005-1.586 1.087-2.666l.02-.185c.055-.71-.054-1.203-.328-1.476-.273-.274-.834-.424-1.681-.451l-.841-.02c-.957-.028-1.661-.25-2.112-.667-.452-.417-.677-.968-.677-1.651 0-.78.26-1.402.78-1.867.519-.464 1.407-.704 2.665-.717l3.507-.103c1.709-.027 2.909.345 3.599 1.118.69.772 1.001 2.116.933 4.03l-.061 1.23c-.123 3.582-1.094 6.303-2.913 8.162-1.818 1.86-4.238 2.782-7.26 2.769-2.35-.014-4.446-.619-6.285-1.815-1.839-1.196-3.264-3.005-4.276-5.424ZM28.505 73.464c-.37 1.64-.77 2.905-1.2 3.794-.43.889-.912 1.5-1.446 1.835-.533.335-1.148.503-1.845.503-.93 0-1.788-.335-2.574-1.005-.786-.67-1.391-1.955-1.815-3.856l-1.723-8.08c-.123-.601-.28-1.015-.471-1.24a.883.883 0 0 0-.698-.339c-.26 0-.495.116-.707.349-.212.232-.386.67-.523 1.312l-1.846 8.203c-.355 1.764-.871 3.019-1.548 3.764-.677.745-1.603 1.117-2.779 1.117-.793 0-1.507-.17-2.143-.512-.636-.342-1.196-.981-1.682-1.918-.485-.936-.899-2.293-1.24-4.07L.697 55.866c-.355-1.846-.44-3.274-.256-4.286.184-1.012.547-1.72 1.087-2.123.54-.403 1.172-.604 1.897-.604.67 0 1.247.146 1.733.44.485.294.899.824 1.24 1.59.342.765.616 1.866.82 3.302l1.477 9.556c.123.848.29 1.405.503 1.672.212.266.454.4.728.4.273 0 .512-.124.718-.37.205-.246.403-.779.594-1.6l2.195-10.007c.273-1.121.68-1.914 1.22-2.379.54-.465 1.193-.697 1.958-.697.793 0 1.484.242 2.072.728.588.485 1.011 1.275 1.271 2.368l2.153 10.582c.15.643.322 1.077.513 1.303.192.225.41.338.656.338.287 0 .537-.123.749-.37.212-.245.386-.73.523-1.455l1.887-10.644c.341-1.709.782-2.905 1.322-3.589.54-.683 1.296-1.025 2.266-1.025 1.272 0 2.15.55 2.636 1.65.485 1.102.475 2.793-.031 5.077l-4.122 17.739Zm27.193.143c.739 2.284.824 3.89.257 4.82-.568.93-1.48 1.394-2.738 1.394-1.64 0-2.755-1.025-3.343-3.076l-.533-2.153c-.219-.82-.547-1.367-.985-1.64-.437-.274-1.169-.384-2.194-.329l-1.764.103c-1.326.054-2.262.25-2.81.584-.546.335-.97 1.036-1.27 2.102l-.124.492c-.424 1.463-.943 2.478-1.558 3.046-.616.567-1.47.844-2.564.83-1.408-.027-2.338-.642-2.789-1.845-.451-1.204-.198-3.213.759-6.03l5.537-17.083c.793-2.338 1.603-3.92 2.43-4.747.827-.827 1.788-1.241 2.882-1.241.86 0 1.582.164 2.163.492.581.328 1.104.926 1.569 1.795.465.868.95 2.102 1.456 3.701l5.62 18.785ZM44.707 60.051a.827.827 0 0 0-.605.256c-.17.171-.311.496-.42.974l-.923 3.815c-.246 1.039-.23 1.716.051 2.03.28.314.735.472 1.364.472h.964c.847 0 1.39-.277 1.63-.83.24-.555.174-1.44-.195-2.657l-.902-2.953c-.123-.424-.256-.714-.4-.871a.728.728 0 0 0-.564-.236Zm12.674-4.922c0-1.654.15-2.919.451-3.794.3-.875.704-1.48 1.21-1.815a2.915 2.915 0 0 1 1.64-.502c1.08 0 1.911.393 2.492 1.179s.83 2.3.749 4.542l.02 15.258c-.027 1.463.168 2.437.585 2.922.417.486 1.295.687 2.635.605l2.933-.184c1.627-.11 2.761.092 3.404.605.643.513.964 1.33.964 2.45 0 1.026-.359 1.781-1.077 2.267-.718.485-1.91.728-3.578.728-.82-.014-1.641.006-2.461.061-.82.055-1.6.11-2.338.164a51.077 51.077 0 0 1-2.338.164c-1.19.028-2.153-.174-2.892-.605-.738-.43-1.278-1.186-1.62-2.266-.342-1.08-.52-2.57-.533-4.47l-.246-17.31Zm18.375 0c0-1.654.15-2.919.451-3.794.3-.875.704-1.48 1.21-1.815a2.915 2.915 0 0 1 1.64-.502c1.08 0 1.911.393 2.492 1.179s.83 2.3.749 4.542l.02 15.258c-.027 1.463.168 2.437.585 2.922.417.486 1.295.687 2.635.605l2.933-.184c1.627-.11 2.761.092 3.404.605.643.513.964 1.33.964 2.45 0 1.026-.359 1.781-1.077 2.267-.718.485-1.91.728-3.578.728-.82-.014-1.641.006-2.461.061-.82.055-1.6.11-2.338.164a51.077 51.077 0 0 1-2.338.164c-1.19.028-2.153-.174-2.892-.605-.738-.43-1.278-1.186-1.62-2.266-.342-1.08-.52-2.57-.533-4.47l-.246-17.31Zm24.917 25.142c-.3 1.026-.762 1.846-1.384 2.461-.622.616-1.405.923-2.349.923-1.558 0-2.337-.52-2.337-1.558 0-.287.075-.571.225-.851.15-.28.41-.523.78-.728.587-.329.881-.677.881-1.046 0-.397-.253-.65-.759-.76-1.08-.232-1.62-1.086-1.62-2.563 0-1.08.36-1.934 1.077-2.563.718-.629 1.569-.943 2.553-.943.93 0 1.73.345 2.4 1.035.67.69 1.005 1.795 1.005 3.312 0 1.176-.158 2.27-.472 3.281Zm9.905-22.62c.014-2.255.226-3.978.636-5.168.41-1.19 1.09-2.02 2.04-2.491.95-.472 2.225-.77 3.825-.892l2.256-.144c3.514-.26 6.166.359 7.957 1.856 1.791 1.497 2.687 3.51 2.687 6.04 0 2.187-.82 3.876-2.461 5.065-.588.437-.882.848-.882 1.23 0 .342.328.725.984 1.149 1.094.629 1.921 1.429 2.482 2.4.56.97.84 2.214.84 3.732 0 2.789-.977 4.946-2.932 6.47s-4.567 2.287-7.834 2.287h-2.707c-1.75 0-3.135-.178-4.153-.534-1.019-.355-1.743-1.093-2.174-2.214-.43-1.122-.646-2.837-.646-5.148l.082-13.638Zm9.598 15.955c1.053 0 1.92-.338 2.604-1.015.684-.676 1.026-1.5 1.026-2.47 0-1.204-.376-2.127-1.128-2.77-.752-.642-1.825-.909-3.22-.8l-.697.062c-.766.055-1.32.226-1.661.513-.342.287-.513.772-.513 1.456v2.707c0 .875.24 1.48.718 1.815.478.335.97.502 1.476.502h1.395Zm-.328-12.735c.93.055 1.692-.178 2.286-.697.595-.52.892-1.32.892-2.4 0-1.134-.31-1.927-.933-2.378-.622-.452-1.493-.582-2.614-.39l-.185.02c-.725.11-1.275.36-1.65.749-.377.39-.585.98-.626 1.774l-.062 1.394c-.041.698.03 1.17.215 1.415.185.246.53.383 1.036.41l1.64.103Zm15.504 18.498a2.79 2.79 0 0 1-1.641-.502c-.479-.335-.844-.964-1.097-1.887s-.352-2.273-.298-4.05l.144-15.668c.068-2.201.308-3.87.718-5.004.41-1.135 1.1-1.921 2.071-2.359.97-.437 2.331-.697 4.081-.779l1.025-.04c3.979-.192 6.946.587 8.9 2.337 1.956 1.75 2.933 4.115 2.933 7.096 0 1.299-.14 2.372-.42 3.22-.28.847-.66 1.565-1.138 2.153a13.545 13.545 0 0 1-1.64 1.681 3.076 3.076 0 0 0-.678.739c-.164.26-.246.567-.246.923 0 .3.041.625.123.974.082.348.22.728.41 1.138.26.52.609 1.114 1.047 1.784a63.6 63.6 0 0 0 1.907 2.707c.71.916 1.066 1.853 1.066 2.81a2.91 2.91 0 0 1-.8 2.05c-.533.575-1.264.862-2.194.862-1.176 0-2.16-.479-2.953-1.436a17.798 17.798 0 0 1-1.743-2.44 38.228 38.228 0 0 1-1.456-2.625c-.41-.82-.711-1.415-.903-1.784-.355-.711-.687-1.186-.994-1.426-.308-.239-.715-.359-1.22-.359h-.103c-.588 0-1.022.168-1.302.503-.28.335-.441.926-.482 1.774l-.144 4.388c-.164 2.147-1.155 3.22-2.973 3.22Zm6.275-24.363h-.246c-1.08 0-1.78.219-2.102.656-.321.438-.482 1.217-.482 2.338v.492c0 1.682.246 2.762.738 3.24.492.479 1.135.718 1.928.718h.164c2.434 0 3.65-1.196 3.65-3.589 0-2.57-1.216-3.855-3.65-3.855Zm12.51 2.153c-.014-2.242.18-3.954.584-5.137.404-1.183 1.097-1.99 2.082-2.42.984-.43 2.324-.625 4.02-.584l6.234.287c1.298.013 2.266.283 2.901.81.636.526.954 1.2.954 2.02 0 .806-.263 1.446-.79 1.917-.526.472-1.397.749-2.614.83l-4.594.165c-.875.055-1.453.208-1.733.461s-.434.742-.461 1.467l-.123 2.132c-.028.82.116 1.395.43 1.723.315.328.91.506 1.785.533l3.67.164c2.12.082 3.18.875 3.18 2.38 0 .806-.267 1.4-.8 1.783-.534.383-1.306.609-2.318.677l-3.26.103c-1.026.054-1.754.29-2.185.707-.43.417-.598 1.145-.502 2.184l.205 2.03c.068.725.177 1.276.328 1.651.15.376.417.63.8.76.382.13.957.2 1.722.215l3.261.02c1.422.055 2.447.294 3.076.718.63.424.944 1.039.944 1.846 0 .998-.346 1.76-1.036 2.286-.69.527-1.87.824-3.538.892l-4.798-.04c-1.477.054-2.677-.028-3.6-.247-.922-.219-1.627-.65-2.112-1.292-.485-.642-.824-1.558-1.015-2.748-.191-1.19-.3-2.727-.328-4.614l-.37-13.679Zm39.641 16.447c.739 2.284.824 3.89.257 4.82-.568.93-1.48 1.394-2.738 1.394-1.64 0-2.755-1.025-3.343-3.076l-.533-2.153c-.219-.82-.547-1.367-.984-1.64-.438-.274-1.17-.384-2.195-.329l-1.763.103c-1.327.054-2.263.25-2.81.584-.547.335-.97 1.036-1.272 2.102l-.123.492c-.423 1.463-.943 2.478-1.558 3.046-.615.567-1.47.844-2.564.83-1.408-.027-2.338-.642-2.789-1.845-.45-1.204-.198-3.213.76-6.03l5.536-17.083c.793-2.338 1.603-3.92 2.43-4.747.828-.827 1.788-1.241 2.882-1.241.861 0 1.582.164 2.163.492.581.328 1.104.926 1.57 1.795.464.868.95 2.102 1.455 3.701l5.62 18.785Zm-10.992-13.555a.827.827 0 0 0-.605.256c-.17.171-.31.496-.42.974l-.923 3.815c-.246 1.039-.23 1.716.051 2.03.28.314.735.472 1.364.472h.964c.847 0 1.39-.277 1.63-.83.24-.555.174-1.44-.195-2.657l-.902-2.953c-.123-.424-.256-.714-.4-.871a.728.728 0 0 0-.564-.236Zm44.133-11.197c1.025 0 1.924.058 2.697.174.772.116 1.432.256 1.979.42 1.066.315 1.873.803 2.42 1.467.547.663.82 1.411.82 2.245 0 .889-.267 1.648-.8 2.277-.533.628-1.312.943-2.338.943-.67 0-1.452-.188-2.348-.564-.895-.376-1.917-.564-3.066-.564-.738 0-1.36.185-1.866.554-.506.369-.759.923-.759 1.66 0 .725.24 1.344.718 1.857.478.512 1.32 1.05 2.522 1.61l.677.307c1.846.82 3.309 1.685 4.389 2.594 1.08.91 1.852 1.918 2.317 3.025.465 1.108.698 2.38.698 3.815 0 1.75-.431 3.312-1.292 4.686-.862 1.374-2.1 2.457-3.712 3.25-1.614.793-3.548 1.19-5.804 1.19-1.025 0-1.986-.075-2.881-.226-.896-.15-1.638-.314-2.226-.492-1.134-.355-1.927-.83-2.378-1.425a2.952 2.952 0 0 1-.276-.439c-.074.55-.318 1.046-.73 1.485-.505.54-1.216.81-2.132.81-.697 0-1.302-.134-1.815-.4-.513-.267-1.022-.646-1.528-1.138-1.367-1.176-2.46-2.28-3.281-3.312a38.748 38.748 0 0 1-2.236-3.107c-.396-.643-.697-1.063-.902-1.262-.205-.198-.424-.297-.656-.297-.287 0-.52.133-.697.4-.178.267-.28.776-.308 1.528l-.144 3.732c-.027 1.531-.276 2.591-.748 3.179-.472.588-1.131.882-1.98.882a2.626 2.626 0 0 1-1.62-.523c-.464-.349-.833-1.005-1.107-1.969-.273-.964-.43-2.362-.471-4.194l-.308-16.98c-.027-1.928.092-3.394.359-4.4.267-1.004.656-1.684 1.169-2.04.513-.355 1.118-.533 1.815-.533.93 0 1.65.328 2.163.984.513.657.776 1.833.79 3.528l-.164 4.347c-.027.848.038 1.405.195 1.672.157.266.38.4.666.4.533 0 1.162-.472 1.887-1.415 1.107-1.381 2.331-3.528 3.67-6.44.48-1.134 1.013-1.92 1.6-2.358.588-.438 1.32-.663 2.195-.677.793-.014 1.463.222 2.01.708.546.485.82 1.193.82 2.122 0 .82-.192 1.64-.574 2.461-.82 1.654-1.685 3.131-2.595 4.43-.909 1.299-1.746 2.372-2.512 3.22-.506.574-.854 1.056-1.046 1.445-.191.39-.287.804-.287 1.241 0 .383.069.766.205 1.149.137.382.404.881.8 1.497.56.875 1.282 1.784 2.164 2.727.881.943 1.972 1.962 3.27 3.056.821.765 1.375 1.405 1.662 1.917l.008.014c.05-.682.32-1.3.812-1.86.547-.622 1.381-.933 2.502-.933.875 0 1.62.059 2.235.175.616.116 1.19.236 1.723.359a7.459 7.459 0 0 0 1.682.184c1.79 0 2.686-.786 2.686-2.358 0-.848-.25-1.545-.748-2.092-.5-.547-1.357-1.121-2.574-1.723l-.718-.369c-2.283-1.217-4.026-2.522-5.23-3.917-1.202-1.408-1.804-3.206-1.804-5.393 0-1.723.427-3.206 1.282-4.45.854-1.245 2.057-2.202 3.61-2.872 1.55-.67 3.366-1.004 5.444-1.004Zm16.242 5.229c-.055-1.887.188-3.203.728-3.948.54-.745 1.31-1.117 2.307-1.117.971 0 1.73.328 2.277.984.547.656.854 1.928.923 3.814l.43 20.18c.069 2.215-.198 3.702-.8 4.46-.601.76-1.408 1.139-2.42 1.139-.984 0-1.75-.36-2.296-1.077-.547-.718-.855-2.047-.923-3.989l-.226-20.446Zm30.229 21.615c-.041 1.408-.349 2.42-.923 3.035-.574.616-1.333.923-2.277.923-.902 0-1.691-.324-2.368-.974-.677-.65-1.316-1.753-1.918-3.312l-5.106-10.951c-.315-.78-.704-1.169-1.17-1.169-.259 0-.467.12-.625.359-.157.24-.235.666-.235 1.282 0 1.668.02 3.35.061 5.045.041 1.695.062 3.363.062 5.003v.288c0 1.681-.284 2.833-.851 3.455-.568.622-1.31.933-2.226.933-.67 0-1.24-.15-1.712-.45-.472-.302-.824-.852-1.056-1.652-.233-.8-.328-1.931-.287-3.394l.656-20.118c.068-1.996.427-3.319 1.077-3.968.65-.65 1.452-.974 2.41-.974 1.011 0 1.828.355 2.45 1.066.622.71 1.302 1.962 2.04 3.753l4.39 9.27c.232.505.447.857.645 1.056.198.198.42.297.667.297a.652.652 0 0 0 .574-.308c.137-.205.205-.58.205-1.128 0-.943-.027-1.832-.082-2.666-.055-.834-.12-1.746-.195-2.737a138.58 138.58 0 0 1-.215-3.558v-.513c-.055-1.682.229-2.882.85-3.6.623-.717 1.433-1.076 2.431-1.076 1.08 0 1.894.41 2.44 1.23.547.82.787 2.38.718 4.676l-.43 20.877Zm15.093-.8c-.04 3.295-1.073 4.943-3.096 4.943-1.162 0-1.969-.373-2.42-1.118-.451-.745-.656-1.91-.615-3.496l.471-17.535c.028-.806-.106-1.37-.4-1.692-.294-.32-.81-.481-1.548-.481l-2.133.04c-.97-.013-1.712-.314-2.225-.902-.513-.588-.769-1.353-.769-2.297 0-1.093.359-1.924 1.077-2.491.717-.568 1.733-.824 3.045-.77l12.284.37c1.026.04 1.832.304 2.42.79.588.485.882 1.11.882 1.876 0 .793-.219 1.476-.656 2.05-.438.575-1.17.91-2.195 1.005l-2.091.144c-.63.055-1.08.219-1.354.492-.273.274-.417.752-.43 1.436l-.247 17.636Zm19.831 4.963c-1.777 0-3.397-.263-4.86-.79-1.463-.526-2.717-1.394-3.763-2.604-1.046-1.21-1.853-2.843-2.42-4.901s-.851-4.625-.851-7.7v-.678c0-3.185.499-5.848 1.497-7.987.998-2.14 2.369-3.753 4.112-4.84 1.743-1.087 3.729-1.63 5.957-1.63 3.5 0 6.296 1.168 8.388 3.506 2.092 2.338 3.138 5.9 3.138 10.685v.697c0 3.8-.451 6.898-1.354 9.29-.902 2.393-2.187 4.15-3.855 5.27-1.668 1.122-3.664 1.682-5.989 1.682Zm4.39-14.95c0-2.72-.438-4.836-1.313-6.347-.875-1.51-1.99-2.266-3.343-2.266-1.695 0-2.902.776-3.62 2.327-.718 1.552-1.076 3.552-1.076 5.999v.349c0 2.297.41 4.135 1.23 5.516.82 1.381 2.064 2.072 3.732 2.072 1.668 0 2.817-.564 3.446-1.692.629-1.128.943-2.991.943-5.589v-.369Zm15.934-7.752c-.014-2.242.18-3.954.584-5.137.403-1.183 1.097-1.99 2.082-2.42.984-.43 2.324-.625 4.02-.584l6.234.287c1.298.013 2.266.283 2.901.81.636.526.954 1.2.954 2.02 0 .806-.263 1.446-.79 1.917-.526.472-1.397.749-2.614.83l-4.594.165c-.875.055-1.453.208-1.733.461s-.434.742-.461 1.467l-.123 2.132c-.028.82.116 1.395.43 1.723.315.328.91.506 1.784.533l3.671.164c2.12.082 3.18.875 3.18 2.38 0 .806-.267 1.4-.8 1.783-.534.383-1.306.609-2.318.677l-3.26.103c-1.026.054-1.754.29-2.185.707-.43.417-.598 1.145-.502 2.184l.205 2.03c.068.725.177 1.276.328 1.651.15.376.417.63.8.76.382.13.957.2 1.722.215l3.261.02c1.422.055 2.447.294 3.076.718.63.424.944 1.039.944 1.846 0 .998-.346 1.76-1.036 2.286-.69.527-1.87.824-3.538.892l-4.798-.04c-1.477.054-2.677-.028-3.6-.247-.922-.219-1.627-.65-2.112-1.292-.485-.642-.824-1.558-1.015-2.748-.191-1.19-.3-2.727-.328-4.614l-.37-13.679Zm44.502 16.858c.04 1.627-.058 2.837-.298 3.63-.239.792-.574 1.315-1.005 1.568-.43.253-.912.38-1.445.38-.82 0-1.549-.243-2.184-.728-.636-.486-.954-1.37-.954-2.656l.349-8.695c0-.534-.082-.91-.247-1.128a.78.78 0 0 0-.656-.328c-.465 0-.847.355-1.148 1.066l-2.359 5.537c-.464 1.094-.868 1.894-1.21 2.4-.341.505-.652.827-.933.963-.28.137-.564.205-.85.205-.507 0-.93-.184-1.272-.553-.342-.37-.67-.95-.985-1.743l-2.932-7.711c-.233-.547-.533-.82-.903-.82-.52 0-.786.43-.8 1.291l.226 8.532c-.055 1.654-.386 2.748-.994 3.28-.609.534-1.337.8-2.185.8-.615 0-1.186-.16-1.712-.481-.526-.322-.93-.94-1.21-1.856-.28-.916-.372-2.25-.277-4l.615-17.328c.096-1.764.284-3.118.564-4.06.28-.944.67-1.597 1.17-1.96.498-.362 1.11-.543 1.835-.543 1.9 0 3.22 1.183 3.958 3.548l3.65 10.644c.164.546.363.93.595 1.148.232.219.513.328.84.328.288 0 .54-.106.76-.318.218-.212.417-.591.594-1.138l3.815-10.028c.547-1.586 1.128-2.646 1.743-3.179.615-.533 1.34-.8 2.174-.8.697 0 1.33.154 1.897.462.567.307 1.025.902 1.374 1.784.348.882.53 2.184.543 3.907l-.143 18.58Zm6.85 5.475c-.657 0-1.228-.178-1.713-.533-.485-.355-.868-1.077-1.149-2.164-.28-1.087-.454-2.71-.523-4.87l-.39-14.725c-.068-2.283.124-4.023.575-5.219.451-1.196 1.169-2.013 2.153-2.45.985-.438 2.25-.657 3.794-.657l1.99.082c3.677.027 6.46.878 8.346 2.553 1.887 1.675 2.83 3.941 2.83 6.799 0 3.171-.83 5.585-2.491 7.239-1.662 1.654-3.982 2.59-6.963 2.81l-.348.04c-1.23.082-2.075.353-2.533.81-.458.459-.694 1.35-.708 2.677l.123 3.055c-.013 1.819-.3 3.032-.86 3.64-.561.609-1.272.913-2.134.913Zm8.12-23.666c-.683-.656-1.702-.923-3.055-.8l-.205.02c-.875.07-1.463.305-1.764.708-.3.404-.451 1.173-.451 2.308v.881c0 1.286.17 2.137.512 2.554.342.417.855.652 1.539.707l.225.02c1.422.096 2.485-.19 3.19-.86.703-.67 1.055-1.587 1.055-2.749 0-1.217-.348-2.146-1.046-2.789Zm20.98 19.072c-.041 3.295-1.073 4.943-3.097 4.943-1.162 0-1.969-.373-2.42-1.118-.45-.745-.656-1.91-.615-3.496l.472-17.535c.027-.806-.106-1.37-.4-1.692-.294-.32-.81-.481-1.549-.481l-2.132.04c-.971-.013-1.713-.314-2.225-.902-.513-.588-.77-1.353-.77-2.297 0-1.093.36-1.924 1.077-2.491.718-.568 1.733-.824 3.046-.77l12.284.37c1.025.04 1.832.304 2.42.79.588.485.882 1.11.882 1.876 0 .793-.22 1.476-.657 2.05-.437.575-1.169.91-2.194 1.005l-2.092.144c-.629.055-1.08.219-1.353.492-.274.274-.417.752-.431 1.436l-.246 17.636Zm8.039-20.18c-.752-1.708-.954-3.13-.605-4.265.349-1.135 1.261-1.702 2.738-1.702.834 0 1.5.26 2 .78.498.519.994 1.483 1.486 2.89l2.79 6.563c.273.684.502 1.149.686 1.395.185.246.386.369.605.369.246 0 .468-.123.667-.37.198-.245.461-.73.79-1.455l3.506-7.24c.437-.97.899-1.657 1.384-2.06.486-.404 1.097-.605 1.836-.605 1.299 0 2.13.495 2.491 1.486.363.992.243 2.164-.358 3.517l-4.553 9.147c-.219.465-.445.93-.677 1.395l-.738 1.476a17.244 17.244 0 0 0-.656 1.446c-.15.39-.26.783-.329 1.18-.068.396-.123.915-.164 1.558l-.225 5.455c-.219 2.638-1.21 3.958-2.974 3.958-.916 0-1.627-.311-2.133-.933-.506-.622-.793-1.63-.861-3.025l-.103-4.676c-.027-.984-.102-1.74-.225-2.266a8.006 8.006 0 0 0-.574-1.61 86.2 86.2 0 0 0-.708-1.548c-.253-.54-.516-1.111-.79-1.713l-4.306-9.146Zm56.048 18.745c-.37 1.64-.77 2.905-1.2 3.794-.43.889-.913 1.5-1.446 1.835-.533.335-1.148.503-1.845.503-.93 0-1.788-.335-2.574-1.005-.786-.67-1.391-1.955-1.815-3.856l-1.723-8.08c-.123-.601-.28-1.015-.471-1.24a.883.883 0 0 0-.698-.339c-.26 0-.495.116-.707.349-.212.232-.386.67-.523 1.312l-1.846 8.203c-.355 1.764-.871 3.019-1.548 3.764-.677.745-1.603 1.117-2.779 1.117-.793 0-1.507-.17-2.143-.512-.636-.342-1.196-.981-1.682-1.918-.485-.936-.899-2.293-1.24-4.07l-3.569-17.453c-.355-1.846-.44-3.274-.256-4.286.184-1.012.547-1.72 1.087-2.123.54-.403 1.172-.604 1.897-.604.67 0 1.247.146 1.733.44.485.294.899.824 1.24 1.59.342.765.616 1.866.82 3.302l1.477 9.556c.123.848.29 1.405.503 1.672.212.266.454.4.728.4.273 0 .512-.124.717-.37.206-.246.404-.779.595-1.6l2.195-10.007c.273-1.121.68-1.914 1.22-2.379.54-.465 1.193-.697 1.958-.697.793 0 1.484.242 2.072.728.587.485 1.011 1.275 1.271 2.368l2.153 10.582c.15.643.322 1.077.513 1.303.191.225.41.338.656.338.287 0 .537-.123.749-.37.212-.245.386-.73.523-1.455l1.886-10.644c.342-1.709.783-2.905 1.323-3.589.54-.683 1.296-1.025 2.266-1.025 1.272 0 2.15.55 2.636 1.65.485 1.102.475 2.793-.031 5.077l-4.122 17.739Zm27.193.143c.738 2.284.824 3.89.256 4.82-.567.93-1.48 1.394-2.737 1.394-1.641 0-2.755-1.025-3.343-3.076l-.533-2.153c-.22-.82-.547-1.367-.985-1.64-.437-.274-1.169-.384-2.194-.329l-1.764.103c-1.326.054-2.262.25-2.81.584-.546.335-.97 1.036-1.27 2.102l-.124.492c-.424 1.463-.943 2.478-1.558 3.046-.616.567-1.47.844-2.564.83-1.408-.027-2.338-.642-2.789-1.845-.451-1.204-.198-3.213.759-6.03l5.537-17.083c.793-2.338 1.603-3.92 2.43-4.747.827-.827 1.788-1.241 2.882-1.241.86 0 1.582.164 2.163.492.581.328 1.104.926 1.569 1.795.465.868.95 2.102 1.456 3.701l5.62 18.785Zm-10.992-13.555a.827.827 0 0 0-.605.256c-.17.171-.311.496-.42.974l-.923 3.815c-.246 1.039-.23 1.716.051 2.03.28.314.735.472 1.364.472h.964c.847 0 1.39-.277 1.63-.83.24-.555.174-1.44-.195-2.657l-.902-2.953c-.123-.424-.257-.714-.4-.871a.728.728 0 0 0-.564-.236Zm15.996 19.318a2.79 2.79 0 0 1-1.64-.502c-.48-.335-.845-.964-1.098-1.887-.253-.923-.352-2.273-.297-4.05l.143-15.668c.069-2.201.308-3.87.718-5.004.41-1.135 1.1-1.921 2.071-2.359.971-.437 2.332-.697 4.082-.779l1.025-.04c3.978-.192 6.945.587 8.9 2.337 1.955 1.75 2.933 4.115 2.933 7.096 0 1.299-.14 2.372-.42 3.22-.28.847-.66 1.565-1.139 2.153a13.545 13.545 0 0 1-1.64 1.681 3.076 3.076 0 0 0-.677.739c-.164.26-.246.567-.246.923 0 .3.04.625.123.974.082.348.219.728.41 1.138.26.52.608 1.114 1.046 1.784a63.6 63.6 0 0 0 1.907 2.707c.711.916 1.067 1.853 1.067 2.81a2.91 2.91 0 0 1-.8 2.05c-.533.575-1.265.862-2.195.862-1.175 0-2.16-.479-2.953-1.436a17.798 17.798 0 0 1-1.743-2.44 38.228 38.228 0 0 1-1.456-2.625c-.41-.82-.71-1.415-.902-1.784-.356-.711-.687-1.186-.995-1.426-.307-.239-.714-.359-1.22-.359h-.103c-.587 0-1.022.168-1.302.503-.28.335-.44.926-.482 1.774l-.143 4.388c-.164 2.147-1.156 3.22-2.974 3.22Zm6.275-24.363h-.246c-1.08 0-1.78.219-2.102.656-.321.438-.482 1.217-.482 2.338v.492c0 1.682.246 2.762.739 3.24.492.479 1.134.718 1.927.718h.164c2.434 0 3.65-1.196 3.65-3.589 0-2.57-1.216-3.855-3.65-3.855Zm12.51 2.153c-.013-2.242.181-3.954.585-5.137.403-1.183 1.097-1.99 2.081-2.42.985-.43 2.324-.625 4.02-.584l6.234.287c1.299.013 2.266.283 2.902.81.636.526.954 1.2.954 2.02 0 .806-.264 1.446-.79 1.917-.526.472-1.398.749-2.615.83l-4.593.165c-.875.055-1.453.208-1.733.461s-.434.742-.462 1.467l-.123 2.132c-.027.82.116 1.395.43 1.723.315.328.91.506 1.785.533l3.67.164c2.12.082 3.18.875 3.18 2.38 0 .806-.267 1.4-.8 1.783s-1.306.609-2.318.677l-3.26.103c-1.026.054-1.754.29-2.184.707-.431.417-.599 1.145-.503 2.184l.205 2.03c.069.725.178 1.276.328 1.651.15.376.417.63.8.76.383.13.957.2 1.723.215l3.26.02c1.422.055 2.448.294 3.077.718s.943 1.039.943 1.846c0 .998-.345 1.76-1.036 2.286-.69.527-1.87.824-3.537.892l-4.799-.04c-1.477.054-2.676-.028-3.6-.247-.922-.219-1.626-.65-2.111-1.292-.486-.642-.824-1.558-1.016-2.748-.191-1.19-.3-2.727-.328-4.614l-.369-13.679Zm38.862 16.283c-.054 2.31-.307 3.876-.758 4.697-.451.82-1.21 1.23-2.277 1.23-.93 0-1.606-.355-2.03-1.066-.424-.711-.684-1.9-.78-3.569l-.122-4.716c-.055-.971-.257-1.682-.605-2.133-.349-.451-.9-.69-1.651-.718l-3.65-.144c-.711-.027-1.204.12-1.477.441-.274.322-.444.96-.513 1.918l-.328 5.516c-.15 1.696-.461 2.892-.933 3.59-.472.697-1.138 1.045-2 1.045-.574 0-1.076-.16-1.507-.482-.43-.321-.776-.923-1.036-1.804-.26-.882-.423-2.157-.492-3.825l-.287-18.293c-.054-1.6.045-2.834.298-3.702.252-.868.635-1.473 1.148-1.815.513-.341 1.104-.512 1.774-.512.807 0 1.476.297 2.01.892.533.594.868 1.685 1.005 3.27l.205 5.005c.068.82.222 1.411.461 1.774.24.362.673.543 1.302.543h3.958c.903 0 1.545-.15 1.928-.451.383-.301.595-.944.636-1.928l-.02-5.168c.095-1.463.392-2.488.891-3.076.5-.588 1.234-.882 2.205-.882.943 0 1.682.332 2.215.995.533.663.772 1.979.718 3.947l-.288 19.421Zm15.012 6.42c-1.777 0-3.397-.264-4.86-.79-1.463-.527-2.717-1.395-3.763-2.605-1.046-1.21-1.853-2.843-2.42-4.901-.568-2.058-.851-4.625-.851-7.7v-.678c0-3.185.499-5.848 1.497-7.987.998-2.14 2.368-3.753 4.112-4.84 1.743-1.087 3.729-1.63 5.957-1.63 3.5 0 6.296 1.168 8.388 3.506 2.092 2.338 3.137 5.9 3.137 10.685v.697c0 3.8-.45 6.898-1.353 9.29-.902 2.393-2.188 4.15-3.856 5.27-1.667 1.122-3.664 1.682-5.988 1.682Zm4.389-14.95c0-2.722-.438-4.837-1.313-6.348-.875-1.51-1.989-2.266-3.342-2.266-1.696 0-2.902.776-3.62 2.327-.718 1.552-1.077 3.552-1.077 5.999v.349c0 2.297.41 4.135 1.23 5.516.821 1.381 2.065 2.072 3.733 2.072 1.668 0 2.817-.564 3.446-1.692.628-1.128.943-2.991.943-5.589v-.369Zm29.818.881c-.287 9.228-3.917 13.843-10.89 13.843-2.365 0-4.279-.475-5.742-1.426-1.462-.95-2.525-2.457-3.189-4.522-.663-2.064-.994-4.771-.994-8.12V54.964c0-3.705 1.032-5.558 3.096-5.558 1.012 0 1.75.407 2.215 1.22.465.814.745 2.26.841 4.338l.164 10.336c.055 2.256.373 3.818.954 4.686.58.868 1.582 1.302 3.004 1.302 1.408.014 2.43-.444 3.066-1.374.636-.93.981-2.468 1.036-4.614l.266-11.136c.11-1.969.424-3.326.944-4.07.52-.746 1.36-1.118 2.522-1.118 1.19 0 2.027.574 2.512 1.722.486 1.149.694 3.049.626 5.701l-.43 9.393Zm3.917-3.22c-1.203-1.408-1.804-3.206-1.804-5.393 0-1.723.427-3.206 1.281-4.45.855-1.245 2.058-2.202 3.61-2.872 1.551-.67 3.366-1.004 5.444-1.004 1.026 0 1.925.058 2.697.174.773.116 1.432.256 1.98.42 1.066.315 1.872.803 2.42 1.467.546.663.82 1.411.82 2.245 0 .889-.267 1.648-.8 2.277-.534.628-1.313.943-2.338.943-.67 0-1.453-.188-2.348-.564-.896-.376-1.918-.564-3.066-.564-.739 0-1.36.185-1.866.554-.506.369-.76.923-.76 1.66 0 .725.24 1.344.719 1.857.478.512 1.319 1.05 2.522 1.61l.677.307c1.845.82 3.308 1.685 4.388 2.594 1.08.91 1.853 1.918 2.318 3.025.465 1.108.697 2.38.697 3.815 0 1.75-.43 3.312-1.292 4.686-.861 1.374-2.099 2.457-3.712 3.25-1.613.793-3.548 1.19-5.804 1.19-1.025 0-1.985-.075-2.88-.226-.896-.15-1.638-.314-2.226-.492-1.135-.355-1.928-.83-2.379-1.425-.451-.595-.677-1.37-.677-2.328 0-.766.274-1.46.82-2.081.548-.623 1.381-.934 2.503-.934.875 0 1.62.059 2.235.175.615.116 1.19.236 1.723.359a7.458 7.458 0 0 0 1.681.184c1.791 0 2.687-.786 2.687-2.358 0-.848-.25-1.545-.749-2.092-.499-.547-1.357-1.121-2.574-1.723l-.717-.369c-2.283-1.217-4.027-2.522-5.23-3.917Zm17.924-5.414c-.014-2.242.181-3.954.585-5.137.403-1.183 1.097-1.99 2.081-2.42.984-.43 2.324-.625 4.02-.584l6.234.287c1.299.013 2.266.283 2.902.81.636.526.953 1.2.953 2.02 0 .806-.263 1.446-.79 1.917-.525.472-1.397.749-2.614.83l-4.594.165c-.875.055-1.452.208-1.733.461-.28.253-.434.742-.46 1.467l-.124 2.132c-.027.82.116 1.395.43 1.723.315.328.91.506 1.785.533l3.67.164c2.12.082 3.18.875 3.18 2.38 0 .806-.267 1.4-.8 1.783-.534.383-1.306.609-2.318.677l-3.26.103c-1.026.054-1.754.29-2.185.707-.43.417-.598 1.145-.502 2.184l.205 2.03c.068.725.178 1.276.328 1.651.15.376.417.63.8.76.383.13.957.2 1.723.215l3.26.02c1.422.055 2.448.294 3.077.718s.943 1.039.943 1.846c0 .998-.345 1.76-1.036 2.286-.69.527-1.87.824-3.537.892l-4.8-.04c-1.476.054-2.675-.028-3.598-.247s-1.627-.65-2.113-1.292c-.485-.642-.823-1.558-1.015-2.748-.191-1.19-.3-2.727-.328-4.614l-.369-13.679Zm24.917 23.112c-.3 1.026-.762 1.846-1.384 2.461-.622.616-1.405.923-2.348.923-1.559 0-2.338-.52-2.338-1.558 0-.287.075-.571.225-.851.15-.28.41-.523.78-.728.588-.329.881-.677.881-1.046 0-.397-.252-.65-.758-.76-1.08-.232-1.62-1.086-1.62-2.563 0-1.08.358-1.934 1.076-2.563.718-.629 1.57-.943 2.553-.943.93 0 1.73.345 2.4 1.035.67.69 1.005 1.795 1.005 3.312 0 1.176-.158 2.27-.472 3.281ZM12.92 122.898c-.041 3.295-1.073 4.943-3.097 4.943-1.162 0-1.969-.373-2.42-1.118-.45-.745-.656-1.91-.615-3.496l.472-17.535c.027-.806-.106-1.37-.4-1.692-.294-.32-.81-.481-1.548-.481l-2.133.04c-.971-.013-1.713-.314-2.225-.902-.513-.588-.77-1.353-.77-2.297 0-1.093.36-1.924 1.077-2.491.718-.568 1.733-.824 3.046-.77l12.284.37c1.025.04 1.832.304 2.42.79.588.485.882 1.11.882 1.876 0 .793-.22 1.476-.657 2.05-.437.575-1.169.91-2.194 1.005l-2.092.144c-.629.055-1.08.219-1.353.492-.274.274-.417.752-.431 1.436l-.246 17.636Zm28.793-1.456c-.055 2.31-.308 3.876-.759 4.697-.451.82-1.21 1.23-2.276 1.23-.93 0-1.607-.355-2.03-1.066-.424-.711-.684-1.9-.78-3.569l-.123-4.716c-.055-.971-.256-1.682-.605-2.133-.348-.451-.899-.69-1.65-.718l-3.651-.144c-.711-.027-1.203.12-1.477.441-.273.322-.444.96-.512 1.918l-.329 5.516c-.15 1.696-.46 2.892-.933 3.59-.471.697-1.138 1.045-2 1.045-.573 0-1.076-.16-1.506-.482-.431-.321-.776-.923-1.036-1.804-.26-.882-.424-2.157-.492-3.825l-.287-18.293c-.055-1.6.044-2.834.297-3.702.253-.868.636-1.473 1.148-1.815.513-.341 1.104-.512 1.774-.512.807 0 1.477.297 2.01.892.533.594.868 1.685 1.005 3.27l.205 5.005c.068.82.222 1.411.461 1.774.24.362.674.543 1.303.543h3.958c.902 0 1.545-.15 1.927-.451.383-.301.595-.944.636-1.928l-.02-5.168c.095-1.463.393-2.488.892-3.076.499-.588 1.234-.882 2.204-.882.944 0 1.682.332 2.215.995.533.663.773 1.979.718 3.947l-.287 19.421Zm3.63-16.283c-.014-2.242.18-3.954.584-5.137.404-1.183 1.097-1.99 2.082-2.42.984-.43 2.324-.625 4.02-.584l6.234.287c1.299.013 2.266.283 2.902.81.635.526.953 1.2.953 2.02 0 .806-.263 1.446-.79 1.917-.526.472-1.397.749-2.614.83l-4.594.165c-.875.055-1.453.208-1.733.461s-.434.742-.461 1.467l-.123 2.132c-.028.82.116 1.395.43 1.723.315.328.91.506 1.785.533l3.67.164c2.12.082 3.18.875 3.18 2.38 0 .806-.267 1.4-.8 1.783-.534.383-1.306.609-2.318.677l-3.26.103c-1.026.054-1.754.29-2.185.707-.43.417-.598 1.145-.502 2.184l.205 2.03c.068.725.178 1.276.328 1.651.15.376.417.63.8.76.383.13.957.2 1.722.215l3.261.02c1.422.055 2.447.294 3.076.718.63.424.944 1.039.944 1.846 0 .998-.346 1.76-1.036 2.286-.69.527-1.87.824-3.538.892l-4.798-.04c-1.477.054-2.677-.028-3.6-.247-.922-.219-1.626-.65-2.112-1.292-.485-.642-.824-1.558-1.015-2.748-.191-1.19-.3-2.727-.328-4.614l-.37-13.679ZM84.39 123.7c-.041 1.407-.349 2.42-.923 3.034-.574.616-1.333.923-2.277.923-.902 0-1.691-.324-2.368-.974-.677-.65-1.316-1.753-1.918-3.312l-5.106-10.951c-.315-.78-.704-1.169-1.17-1.169-.259 0-.467.12-.625.359-.157.24-.235.666-.235 1.282 0 1.668.02 3.35.061 5.045.041 1.695.062 3.363.062 5.003v.288c0 1.681-.284 2.833-.851 3.455-.568.622-1.31.933-2.226.933-.67 0-1.24-.15-1.712-.45-.472-.302-.824-.852-1.056-1.652-.233-.8-.328-1.931-.287-3.394l.656-20.118c.068-1.996.427-3.319 1.077-3.968.65-.65 1.452-.974 2.41-.974 1.011 0 1.828.355 2.45 1.066.622.71 1.302 1.962 2.04 3.753l4.39 9.27c.232.505.447.857.645 1.056.198.198.42.297.667.297a.652.652 0 0 0 .574-.308c.137-.205.205-.58.205-1.128 0-.943-.027-1.832-.082-2.666-.055-.834-.12-1.746-.195-2.737-.075-.992-.147-2.178-.215-3.558v-.513c-.055-1.682.229-2.882.85-3.6.623-.717 1.433-1.076 2.431-1.076 1.08 0 1.894.41 2.44 1.23.547.82.787 2.38.718 4.676l-.43 20.877Zm9.864-10.337-.062-1.62c-.164-3.637.205-6.58 1.108-8.828.902-2.25 2.286-3.89 4.153-4.922 1.866-1.033 4.152-1.549 6.86-1.549 1.9 0 3.558.441 4.973 1.323 1.415.882 2.515 2.12 3.301 3.712.787 1.593 1.18 3.456 1.18 5.588 0 1.327-.26 2.376-.78 3.148-.52.773-1.367 1.159-2.543 1.159-1.039 0-1.821-.311-2.348-.933-.526-.622-.865-1.61-1.015-2.963-.082-1.094-.396-2.003-.943-2.728-.547-.725-1.354-1.094-2.42-1.107-1.559-.028-2.752.625-3.579 1.958-.827 1.333-1.247 3.387-1.261 6.163v1.271c-.014 2.68.355 4.659 1.107 5.937.752 1.279 1.873 1.972 3.364 2.082.984.054 1.821-.257 2.512-.933.69-.677 1.145-1.57 1.364-2.677.246-1.19.625-2.006 1.138-2.45.512-.445 1.138-.667 1.876-.667 1.162 0 2.01.37 2.543 1.108.533.738.827 1.73.882 2.973.15 2.953-.66 5.291-2.43 7.014-1.77 1.723-4.228 2.584-7.373 2.584-3.664-.014-6.453-1.159-8.367-3.435-1.914-2.277-2.994-6.012-3.24-11.208Zm26.66 14.007a2.79 2.79 0 0 1-1.64-.502c-.48-.335-.845-.964-1.098-1.887-.253-.923-.352-2.273-.297-4.05l.143-15.668c.069-2.201.308-3.87.718-5.004.41-1.135 1.1-1.921 2.072-2.359.97-.437 2.33-.697 4.08-.779l1.026-.04c3.978-.192 6.945.587 8.9 2.337 1.955 1.75 2.933 4.115 2.933 7.096 0 1.299-.14 2.372-.42 3.22-.28.847-.66 1.565-1.139 2.153a13.545 13.545 0 0 1-1.64 1.681 3.076 3.076 0 0 0-.677.739c-.164.26-.246.567-.246.923 0 .3.04.625.123.974.082.348.219.728.41 1.138.26.52.609 1.114 1.046 1.784a63.6 63.6 0 0 0 1.907 2.707c.711.916 1.067 1.853 1.067 2.81a2.91 2.91 0 0 1-.8 2.05c-.533.575-1.265.862-2.195.862-1.175 0-2.16-.479-2.953-1.436a17.798 17.798 0 0 1-1.743-2.44 38.228 38.228 0 0 1-1.456-2.625c-.41-.82-.71-1.415-.902-1.784-.356-.711-.687-1.186-.995-1.426-.307-.239-.714-.359-1.22-.359h-.103c-.587 0-1.022.168-1.302.503-.28.335-.44.926-.482 1.774l-.143 4.388c-.164 2.147-1.156 3.22-2.974 3.22Zm6.275-24.363h-.246c-1.08 0-1.78.219-2.102.656-.321.438-.482 1.217-.482 2.338v.492c0 1.682.246 2.762.739 3.24.492.479 1.134.718 1.927.718h.164c2.434 0 3.65-1.196 3.65-3.589 0-2.57-1.216-3.855-3.65-3.855Zm33.633 18.6c.739 2.284.824 3.89.257 4.82-.568.93-1.48 1.394-2.738 1.394-1.64 0-2.755-1.025-3.343-3.076l-.533-2.153c-.219-.82-.547-1.367-.985-1.64-.437-.274-1.168-.384-2.194-.329l-1.764.103c-1.326.054-2.262.25-2.81.584-.546.335-.97 1.036-1.27 2.102l-.124.492c-.423 1.463-.943 2.478-1.558 3.046-.615.567-1.47.844-2.564.83-1.408-.027-2.338-.642-2.789-1.845-.45-1.204-.198-3.213.759-6.03l5.537-17.083c.793-2.338 1.603-3.92 2.43-4.747.827-.827 1.788-1.241 2.882-1.241.861 0 1.582.164 2.163.492.581.328 1.104.926 1.57 1.795.464.868.95 2.102 1.455 3.701l5.62 18.785Zm-10.992-13.555a.827.827 0 0 0-.605.256c-.17.171-.31.496-.42.974l-.923 3.815c-.246 1.039-.23 1.716.051 2.03.28.314.735.472 1.364.472h.964c.847 0 1.39-.277 1.63-.83.24-.555.174-1.44-.195-2.657l-.902-2.953c-.123-.424-.256-.714-.4-.871a.728.728 0 0 0-.564-.236Zm14.048 2.522c-1.203-1.408-1.805-3.206-1.805-5.393 0-1.723.427-3.206 1.282-4.45.854-1.245 2.058-2.202 3.61-2.872 1.551-.67 3.366-1.004 5.444-1.004 1.026 0 1.924.058 2.697.174.772.116 1.432.256 1.979.42 1.066.315 1.873.803 2.42 1.467.547.663.82 1.411.82 2.245 0 .889-.266 1.648-.8 2.277-.533.628-1.312.943-2.338.943-.67 0-1.452-.188-2.348-.564-.895-.376-1.917-.564-3.066-.564-.738 0-1.36.185-1.866.554-.506.369-.759.923-.759 1.66 0 .725.24 1.344.718 1.857.479.512 1.32 1.05 2.523 1.61l.676.307c1.846.82 3.309 1.685 4.39 2.594 1.08.91 1.852 1.918 2.316 3.025.465 1.108.698 2.38.698 3.815 0 1.75-.43 3.312-1.292 4.686-.862 1.374-2.099 2.457-3.712 3.25-1.613.793-3.548 1.19-5.804 1.19-1.025 0-1.986-.075-2.881-.226-.896-.15-1.637-.314-2.225-.492-1.135-.355-1.928-.83-2.38-1.425-.45-.595-.676-1.37-.676-2.328 0-.766.273-1.46.82-2.081.547-.623 1.381-.934 2.502-.934.875 0 1.62.059 2.236.175.615.116 1.19.236 1.722.359a7.458 7.458 0 0 0 1.682.184c1.791 0 2.686-.786 2.686-2.358 0-.848-.25-1.545-.748-2.092-.5-.547-1.357-1.121-2.574-1.723l-.718-.369c-2.283-1.217-4.026-2.522-5.23-3.917Zm38.268 10.87c-.055 2.31-.308 3.875-.76 4.696-.45.82-1.21 1.23-2.276 1.23-.93 0-1.606-.355-2.03-1.066-.424-.711-.684-1.9-.78-3.569l-.122-4.716c-.055-.971-.257-1.682-.605-2.133-.349-.451-.9-.69-1.651-.718l-3.65-.144c-.711-.027-1.204.12-1.477.441-.274.322-.444.96-.513 1.918l-.328 5.516c-.15 1.696-.461 2.892-.933 3.59-.472.697-1.138 1.045-2 1.045-.574 0-1.076-.16-1.507-.482-.43-.321-.776-.923-1.035-1.804-.26-.882-.424-2.157-.493-3.825l-.287-18.293c-.054-1.6.045-2.834.298-3.702.253-.868.635-1.473 1.148-1.815.513-.341 1.104-.512 1.774-.512.807 0 1.477.297 2.01.892.533.594.868 1.685 1.005 3.27l.205 5.005c.068.82.222 1.411.461 1.774.24.362.673.543 1.302.543h3.958c.903 0 1.545-.15 1.928-.451.383-.301.595-.944.636-1.928l-.02-5.168c.095-1.463.392-2.488.891-3.076.5-.588 1.234-.882 2.205-.882.943 0 1.682.332 2.215.995.533.663.772 1.979.718 3.947l-.287 19.421Zm3.63-16.284c-.014-2.242.18-3.954.584-5.137.403-1.183 1.097-1.99 2.081-2.42.985-.43 2.325-.625 4.02-.584l6.234.287c1.3.013 2.266.283 2.902.81.636.526.954 1.2.954 2.02 0 .806-.263 1.446-.79 1.917-.526.472-1.398.749-2.615.83l-4.593.165c-.875.055-1.453.208-1.733.461s-.434.742-.462 1.467l-.123 2.132c-.027.82.117 1.395.431 1.723.314.328.91.506 1.784.533l3.671.164c2.12.082 3.179.875 3.179 2.38 0 .806-.267 1.4-.8 1.783s-1.306.609-2.317.677l-3.261.103c-1.026.054-1.754.29-2.184.707-.43.417-.598 1.145-.503 2.184l.205 2.03c.069.725.178 1.276.329 1.651.15.376.417.63.8.76.382.13.956.2 1.722.215l3.26.02c1.423.055 2.448.294 3.077.718s.943 1.039.943 1.846c0 .998-.345 1.76-1.035 2.286-.69.527-1.87.824-3.538.892l-4.799-.04c-1.476.054-2.676-.028-3.599-.247s-1.627-.65-2.112-1.292c-.486-.642-.824-1.558-1.015-2.748-.192-1.19-.301-2.727-.328-4.614l-.37-13.679Zm19.748 5.414c-1.203-1.408-1.804-3.206-1.804-5.393 0-1.723.427-3.206 1.281-4.45.855-1.245 2.058-2.202 3.61-2.872 1.552-.67 3.367-1.004 5.445-1.004 1.025 0 1.924.058 2.696.174.773.116 1.433.256 1.98.42 1.066.315 1.872.803 2.42 1.467.546.663.82 1.411.82 2.245 0 .889-.267 1.648-.8 2.277-.533.628-1.313.943-2.338.943-.67 0-1.453-.188-2.348-.564-.896-.376-1.918-.564-3.066-.564-.738 0-1.36.185-1.866.554-.506.369-.76.923-.76 1.66 0 .725.24 1.344.719 1.857.478.512 1.319 1.05 2.522 1.61l.677.307c1.846.82 3.309 1.685 4.389 2.594 1.08.91 1.852 1.918 2.317 3.025.465 1.108.697 2.38.697 3.815 0 1.75-.43 3.312-1.292 4.686-.861 1.374-2.098 2.457-3.712 3.25-1.613.793-3.548 1.19-5.803 1.19-1.026 0-1.986-.075-2.882-.226-.895-.15-1.637-.314-2.225-.492-1.135-.355-1.928-.83-2.379-1.425-.45-.595-.676-1.37-.676-2.328 0-.766.273-1.46.82-2.081.547-.623 1.38-.934 2.502-.934.875 0 1.62.059 2.235.175.615.116 1.19.236 1.723.359a7.458 7.458 0 0 0 1.681.184c1.791 0 2.687-.786 2.687-2.358 0-.848-.25-1.545-.749-2.092-.499-.547-1.357-1.121-2.573-1.723l-.718-.369c-2.283-1.217-4.026-2.522-5.23-3.917Zm25.328 9.906c-.998-2.434-1.43-5.497-1.292-9.188l.02-.451c.15-3.473.725-6.245 1.723-8.316.998-2.071 2.382-3.565 4.153-4.481 1.77-.916 3.886-1.374 6.347-1.374 2.037 0 3.753.37 5.147 1.107 1.395.739 2.461 1.713 3.2 2.923a7.666 7.666 0 0 1 1.148 3.906c.027 1.23-.256 2.174-.851 2.83-.595.657-1.296.985-2.102.985-.67 0-1.258-.168-1.764-.503-.506-.334-.916-.878-1.23-1.63-.67-1.9-1.928-2.85-3.774-2.85-.902 0-1.743.307-2.522.922-.78.616-1.409 1.576-1.887 2.882-.479 1.305-.725 3.011-.738 5.116v.37c-.028 2.98.321 5.147 1.046 6.5.724 1.354 2.064 2.03 4.02 2.03 1.49 0 2.556-.348 3.198-1.045.643-.697 1.005-1.586 1.087-2.666l.02-.185c.055-.71-.054-1.203-.327-1.476-.274-.274-.834-.424-1.682-.451l-.84-.02c-.958-.028-1.662-.25-2.113-.667-.451-.417-.677-.968-.677-1.651 0-.78.26-1.402.78-1.867.519-.464 1.408-.704 2.665-.717l3.507-.103c1.71-.027 2.909.345 3.6 1.118.69.772 1 2.116.932 4.03l-.061 1.23c-.123 3.582-1.094 6.303-2.912 8.162-1.819 1.86-4.238 2.782-7.26 2.769-2.351-.014-4.447-.619-6.286-1.815-1.838-1.196-3.264-3.005-4.275-5.424Zm22.907-15.32c-.014-2.242.18-3.954.584-5.137.404-1.183 1.097-1.99 2.082-2.42.984-.43 2.324-.625 4.02-.584l6.234.287c1.299.013 2.266.283 2.902.81.635.526.953 1.2.953 2.02 0 .806-.263 1.446-.79 1.917-.526.472-1.397.749-2.614.83l-4.594.165c-.875.055-1.453.208-1.733.461s-.434.742-.461 1.467l-.123 2.132c-.028.82.116 1.395.43 1.723.315.328.91.506 1.785.533l3.67.164c2.12.082 3.18.875 3.18 2.38 0 .806-.267 1.4-.8 1.783-.534.383-1.306.609-2.318.677l-3.26.103c-1.026.054-1.754.29-2.185.707-.43.417-.598 1.145-.502 2.184l.205 2.03c.068.725.178 1.276.328 1.651.15.376.417.63.8.76.383.13.957.2 1.722.215l3.261.02c1.422.055 2.447.294 3.076.718.63.424.944 1.039.944 1.846 0 .998-.346 1.76-1.036 2.286-.69.527-1.87.824-3.538.892l-4.798-.04c-1.477.054-2.677-.028-3.6-.247-.922-.219-1.626-.65-2.112-1.292-.485-.642-.824-1.558-1.015-2.748-.191-1.19-.3-2.727-.328-4.614l-.37-13.679Zm21.471-8.06 12.285.37c1.025.04 1.832.304 2.42.79.587.485.881 1.11.881 1.876 0 .793-.218 1.476-.656 2.05-.437.575-1.169.91-2.194 1.005l-2.092.144c-.629.055-1.08.219-1.353.492-.274.274-.417.752-.431 1.436l-.246 17.636c-.041 3.295-1.073 4.943-3.097 4.943-1.162 0-1.969-.373-2.42-1.118-.451-.745-.656-1.91-.615-3.496l.472-17.535c.027-.806-.106-1.37-.4-1.692-.294-.32-.81-.481-1.549-.481l-2.132.04c-.971-.013-1.713-.314-2.226-.902-.512-.588-.769-1.353-.769-2.297 0-1.093.36-1.924 1.077-2.491.718-.568 1.733-.824 3.045-.77Zm27.378-.266c.862 0 1.583.164 2.164.492.581.328 1.104.926 1.569 1.795.465.868.95 2.102 1.456 3.701l5.619 18.785c.738 2.284.824 3.89.256 4.82-.567.93-1.48 1.394-2.737 1.394-1.641 0-2.755-1.025-3.343-3.076l-.533-2.153c-.22-.82-.547-1.367-.985-1.64-.437-.274-1.169-.384-2.194-.329l-1.764.103c-1.326.054-2.262.25-2.81.584-.546.335-.97 1.036-1.27 2.102l-.124.492c-.424 1.463-.943 2.478-1.558 3.046-.616.567-1.47.844-2.564.83-1.408-.027-2.338-.642-2.789-1.845-.451-1.204-.198-3.213.759-6.03l5.537-17.083c.793-2.338 1.603-3.92 2.43-4.747.827-.827 1.788-1.241 2.881-1.241Zm-.184 11.218a.827.827 0 0 0-.605.256c-.171.171-.311.496-.42.974l-.923 3.815c-.247 1.039-.23 1.716.05 2.03.281.314.736.472 1.365.472h.963c.848 0 1.392-.277 1.63-.83.24-.555.175-1.44-.194-2.657l-.902-2.953c-.123-.424-.257-.714-.4-.871a.728.728 0 0 0-.564-.236Zm39.97 13.412c-.37 1.64-.77 2.905-1.2 3.794-.43.889-.913 1.5-1.446 1.835-.533.335-1.148.503-1.846.503-.93 0-1.787-.335-2.573-1.005-.787-.67-1.392-1.955-1.815-3.856l-1.723-8.08c-.123-.601-.28-1.015-.472-1.24a.883.883 0 0 0-.697-.339c-.26 0-.496.116-.707.349-.212.232-.387.67-.523 1.312l-1.846 8.203c-.356 1.764-.872 3.019-1.548 3.764-.677.745-1.603 1.117-2.78 1.117-.792 0-1.507-.17-2.142-.512-.636-.342-1.197-.981-1.682-1.918-.485-.936-.899-2.293-1.24-4.07l-3.569-17.453c-.356-1.846-.441-3.274-.256-4.286.184-1.012.546-1.72 1.087-2.123.54-.403 1.172-.604 1.897-.604.67 0 1.247.146 1.732.44.486.294.9.824 1.241 1.59.342.765.615 1.866.82 3.302l1.477 9.556c.123.848.29 1.405.502 1.672.212.266.455.4.728.4.274 0 .513-.124.718-.37.205-.246.404-.779.595-1.6l2.194-10.007c.274-1.121.68-1.914 1.22-2.379.54-.465 1.193-.697 1.959-.697.793 0 1.483.242 2.071.728.588.485 1.012 1.275 1.272 2.368l2.153 10.582c.15.643.321 1.077.513 1.303.191.225.41.338.656.338.287 0 .537-.123.749-.37.212-.245.386-.73.523-1.455l1.886-10.644c.342-1.709.783-2.905 1.323-3.589.54-.683 1.295-1.025 2.266-1.025 1.272 0 2.15.55 2.635 1.65.486 1.102.475 2.793-.03 5.077l-4.122 17.739Zm27.193.143c.738 2.284.824 3.89.256 4.82-.567.93-1.48 1.394-2.738 1.394-1.64 0-2.754-1.025-3.342-3.076l-.534-2.153c-.218-.82-.546-1.367-.984-1.64-.437-.274-1.169-.384-2.194-.329l-1.764.103c-1.326.054-2.263.25-2.81.584-.546.335-.97 1.036-1.27 2.102l-.124.492c-.424 1.463-.943 2.478-1.559 3.046-.615.567-1.47.844-2.563.83-1.408-.027-2.338-.642-2.79-1.845-.45-1.204-.197-3.213.76-6.03l5.537-17.083c.793-2.338 1.603-3.92 2.43-4.747.827-.827 1.788-1.241 2.881-1.241.862 0 1.583.164 2.164.492.58.328 1.104.926 1.569 1.795.465.868.95 2.102 1.456 3.701l5.619 18.785Zm-10.992-13.555a.827.827 0 0 0-.605.256c-.171.171-.311.496-.42.974l-.924 3.815c-.246 1.039-.229 1.716.052 2.03.28.314.735.472 1.364.472h.963c.848 0 1.392-.277 1.63-.83.24-.555.175-1.44-.194-2.657l-.902-2.953c-.123-.424-.257-.714-.4-.871a.728.728 0 0 0-.564-.236Zm12.407-5.332c-.752-1.71-.954-3.131-.605-4.266.349-1.135 1.261-1.702 2.738-1.702.834 0 1.5.26 2 .78.498.519.994 1.483 1.486 2.89l2.79 6.563c.273.684.502 1.149.686 1.395.185.246.386.369.605.369.246 0 .468-.123.667-.37.198-.245.461-.73.79-1.455l3.506-7.24c.438-.97.899-1.657 1.384-2.06.486-.404 1.097-.605 1.836-.605 1.299 0 2.13.495 2.491 1.486.363.992.243 2.164-.358 3.517l-4.553 9.147c-.219.465-.444.93-.677 1.394l-.738 1.477a17.244 17.244 0 0 0-.656 1.446c-.15.39-.26.783-.329 1.18-.068.396-.123.915-.164 1.558l-.225 5.455c-.219 2.638-1.21 3.958-2.974 3.958-.916 0-1.627-.311-2.133-.933-.506-.622-.793-1.63-.861-3.025l-.103-4.676c-.027-.984-.102-1.74-.225-2.266a8.006 8.006 0 0 0-.574-1.61 86.199 86.199 0 0 0-.708-1.548c-.253-.54-.516-1.111-.79-1.713l-4.306-9.146Zm28.28 10.643-.061-1.62c-.164-3.637.205-6.58 1.107-8.828.902-2.25 2.287-3.89 4.153-4.922 1.866-1.033 4.153-1.549 6.86-1.549 1.9 0 3.558.441 4.973 1.323 1.415.882 2.516 2.12 3.302 3.712.786 1.593 1.179 3.456 1.179 5.588 0 1.327-.26 2.376-.78 3.148-.519.773-1.367 1.159-2.542 1.159-1.04 0-1.822-.311-2.348-.933-.527-.622-.865-1.61-1.016-2.963-.082-1.094-.396-2.003-.943-2.728-.547-.725-1.353-1.094-2.42-1.107-1.558-.028-2.751.625-3.579 1.958-.827 1.333-1.247 3.387-1.26 6.163v1.271c-.014 2.68.355 4.659 1.107 5.937.752 1.279 1.873 1.972 3.363 2.082.984.054 1.822-.257 2.512-.933.69-.677 1.145-1.57 1.364-2.677.246-1.19.625-2.006 1.138-2.45.513-.445 1.138-.667 1.877-.667 1.162 0 2.01.37 2.543 1.108.533.738.827 1.73.881 2.973.15 2.953-.66 5.291-2.43 7.014-1.77 1.723-4.228 2.584-7.372 2.584-3.664-.014-6.453-1.159-8.368-3.435-1.914-2.277-2.994-6.012-3.24-11.208Zm44.605 8.244c.738 2.284.823 3.89.256 4.82-.567.93-1.48 1.394-2.738 1.394-1.64 0-2.755-1.025-3.342-3.076l-.534-2.153c-.218-.82-.547-1.367-.984-1.64-.438-.274-1.169-.384-2.194-.329l-1.764.103c-1.326.054-2.263.25-2.81.584-.547.335-.97 1.036-1.271 2.102l-.123.492c-.424 1.463-.944 2.478-1.559 3.046-.615.567-1.47.844-2.563.83-1.408-.027-2.338-.642-2.79-1.845-.45-1.204-.198-3.213.76-6.03l5.537-17.083c.793-2.338 1.603-3.92 2.43-4.747.827-.827 1.787-1.241 2.881-1.241.861 0 1.583.164 2.164.492.58.328 1.104.926 1.569 1.795.464.868.95 2.102 1.456 3.701l5.619 18.785Zm-10.992-13.555a.827.827 0 0 0-.605.256c-.171.171-.311.496-.42.974l-.924 3.815c-.246 1.039-.229 1.716.052 2.03.28.314.734.472 1.363.472h.964c.848 0 1.391-.277 1.63-.83.24-.555.175-1.44-.194-2.657l-.903-2.953c-.123-.424-.256-.714-.4-.871a.728.728 0 0 0-.563-.236Zm15.996 19.318a2.79 2.79 0 0 1-1.641-.502c-.479-.335-.844-.964-1.097-1.887s-.352-2.273-.298-4.05l.144-15.668c.068-2.201.308-3.87.718-5.004.41-1.135 1.1-1.921 2.071-2.359.97-.437 2.331-.697 4.081-.779l1.026-.04c3.978-.192 6.945.587 8.9 2.337 1.955 1.75 2.933 4.115 2.933 7.096 0 1.299-.14 2.372-.42 3.22-.281.847-.66 1.565-1.14 2.153a13.544 13.544 0 0 1-1.64 1.681 3.076 3.076 0 0 0-.676.739c-.164.26-.247.567-.247.923 0 .3.041.625.124.974.082.348.218.728.41 1.138.26.52.608 1.114 1.046 1.784.437.67 1.073 1.572 1.907 2.707.71.916 1.066 1.853 1.066 2.81a2.91 2.91 0 0 1-.8 2.05c-.533.575-1.264.862-2.194.862-1.176 0-2.16-.479-2.953-1.436a17.798 17.798 0 0 1-1.743-2.44 38.229 38.229 0 0 1-1.456-2.625c-.41-.82-.711-1.415-.903-1.784-.355-.711-.687-1.186-.994-1.426-.308-.239-.715-.359-1.22-.359h-.103c-.588 0-1.022.168-1.302.503-.28.335-.441.926-.482 1.774l-.144 4.388c-.164 2.147-1.155 3.22-2.973 3.22Zm6.275-24.363h-.246c-1.08 0-1.78.219-2.102.656-.321.438-.482 1.217-.482 2.338v.492c0 1.682.246 2.762.738 3.24.492.479 1.135.718 1.928.718h.164c2.434 0 3.65-1.196 3.65-3.589 0-2.57-1.216-3.855-3.65-3.855Zm13.474 23.645c-.684-.683-1.026-1.504-1.026-2.46 0-1.012.318-1.85.954-2.513.636-.663 1.398-.994 2.286-.994.561 0 1.115.157 1.662.471a4.248 4.248 0 0 1 1.374 1.262c.369.526.553 1.104.553 1.732 0 1.026-.365 1.867-1.097 2.523-.731.656-1.541.984-2.43.984-.834 0-1.593-.335-2.276-1.005Z"/></svg>