<svg xmlns="http://www.w3.org/2000/svg" viewBox="0 0 350 63"><path fill="#33302E" d="M12.632 24.384c-2.368 0-4.496-.432-6.384-1.296a10.151 10.151 0 0 1-4.48-3.936C.669 17.392.12 15.179.12 12.512c0-1.963.32-3.67.96-5.12.64-1.45 1.53-2.656 2.672-3.616 1.141-.96 2.459-1.68 3.952-2.16 1.493-.48 3.083-.72 4.768-.72.725 0 1.413.037 2.064.112.65.075 1.253.176 1.808.304l.352 5.824a8.16 8.16 0 0 0-1.808-.544 11.2 11.2 0 0 0-1.936-.16c-1.941 0-3.499.507-4.672 1.52-1.173 1.013-1.76 2.533-1.76 4.56 0 2.07.597 3.643 1.792 4.72s2.859 1.616 4.992 1.616c.683 0 1.307-.037 1.872-.112a10.282 10.282 0 0 0 1.68-.368l-.16 5.6c-.683.15-1.36.256-2.032.32a21.42 21.42 0 0 1-2.032.096Zm7.36-.384c.128-1.195.192-2.379.192-3.552V4.832c0-1.152-.064-2.336-.192-3.552h6.496c-.085.597-.139 1.2-.16 1.808-.021.608-.032 1.19-.032 1.744v4.96h7.456v-4.96c0-1.152-.064-2.336-.192-3.552h6.496c-.085.597-.144 1.2-.176 1.808-.032.608-.048 1.19-.048 1.744v15.616c0 .597.016 1.19.048 1.776.032.587.09 1.179.176 1.776H33.56c.128-1.195.192-2.379.192-3.552v-5.472h-7.456v5.472c0 .597.01 1.19.032 1.776.021.587.075 1.179.16 1.776h-6.496Zm23.744 0c.085-.597.144-1.19.176-1.776.032-.587.048-1.179.048-1.776V4.832c0-.555-.016-1.136-.048-1.744a14.657 14.657 0 0 0-.208-1.808h8.352c3.03 0 5.216.597 6.56 1.792 1.344 1.195 2.016 2.87 2.016 5.024 0 1.259-.261 2.357-.784 3.296-.523.939-1.467 1.717-2.832 2.336 1.003.427 1.739 1.019 2.208 1.776.47.757.896 1.819 1.28 3.184l.544 2.112c.277 1.173.661 2.24 1.152 3.2h-6.336l-.992-3.904c-.235-1.003-.523-1.75-.864-2.24-.341-.49-.779-.821-1.312-.992-.533-.17-1.216-.256-2.048-.256h-.672v3.84c0 .597.016 1.19.048 1.776.032.587.101 1.179.208 1.776h-6.496Zm7.648-17.792h-1.408v5.952h1.472c1.323 0 2.24-.272 2.752-.816.512-.544.768-1.275.768-2.192 0-.939-.272-1.664-.816-2.176-.544-.512-1.467-.768-2.768-.768ZM64.728 24c.128-1.195.192-2.379.192-3.552V4.832c0-1.152-.064-2.336-.192-3.552h6.496a33.933 33.933 0 0 0-.192 3.552v15.616c0 1.173.064 2.357.192 3.552h-6.496Zm15.968.384c-1.045 0-1.99-.037-2.832-.112a24.41 24.41 0 0 1-2.8-.432l-.32-5.472c1.152.32 2.133.533 2.944.64.81.107 1.653.16 2.528.16 1.387 0 2.31-.155 2.768-.464.459-.31.688-.72.688-1.232 0-.384-.16-.757-.48-1.12-.32-.363-.917-.779-1.792-1.248l-2.144-1.088c-1.685-.875-2.923-1.861-3.712-2.96-.79-1.099-1.184-2.384-1.184-3.856 0-1.963.741-3.504 2.224-4.624 1.483-1.12 3.675-1.68 6.576-1.68 1.003 0 1.867.048 2.592.144.725.096 1.61.272 2.656.528l.352 5.536c-1.045-.363-2.005-.613-2.88-.752a17.566 17.566 0 0 0-2.752-.208c-1.11 0-1.856.139-2.24.416-.384.277-.576.63-.576 1.056 0 .384.144.747.432 1.088.288.341.827.725 1.616 1.152l2.144 1.152c1.792.939 3.099 1.957 3.92 3.056.821 1.099 1.232 2.405 1.232 3.92 0 2.027-.699 3.6-2.096 4.72-1.397 1.12-3.685 1.68-6.864 1.68ZM96.92 24c.085-.597.139-1.19.16-1.776a48.87 48.87 0 0 0 .032-1.776V6.336h-1.888a58.6 58.6 0 0 0-1.952.032c-.64.021-1.29.075-1.952.16V1.28h17.696v5.248a20.618 20.618 0 0 0-1.952-.16 58.6 58.6 0 0 0-1.952-.032h-1.888v14.112c0 .597.01 1.19.032 1.776.021.587.075 1.179.16 1.776H96.92Zm33.12.384c-2.368 0-4.496-.432-6.384-1.296a10.151 10.151 0 0 1-4.48-3.936c-1.099-1.76-1.648-3.973-1.648-6.64 0-1.963.32-3.67.96-5.12.64-1.45 1.53-2.656 2.672-3.616 1.141-.96 2.459-1.68 3.952-2.16 1.493-.48 3.083-.72 4.768-.72.725 0 1.413.037 2.064.112.65.075 1.253.176 1.808.304l.352 5.824a8.16 8.16 0 0 0-1.808-.544 11.2 11.2 0 0 0-1.936-.16c-1.941 0-3.499.507-4.672 1.52-1.173 1.013-1.76 2.533-1.76 4.56 0 2.07.597 3.643 1.792 4.72s2.859 1.616 4.992 1.616c.683 0 1.307-.037 1.872-.112a10.282 10.282 0 0 0 1.68-.368l-.16 5.6c-.683.15-1.36.256-2.032.32a21.42 21.42 0 0 1-2.032.096ZM137.4 24c.128-1.195.192-2.379.192-3.552V4.832c0-1.152-.064-2.336-.192-3.552h6.496c-.085.597-.139 1.2-.16 1.808-.021.608-.032 1.19-.032 1.744v4.96h7.456v-4.96c0-1.152-.064-2.336-.192-3.552h6.496c-.085.597-.144 1.2-.176 1.808-.032.608-.048 1.19-.048 1.744v15.616c0 .597.016 1.19.048 1.776.032.587.09 1.179.176 1.776h-6.496c.128-1.195.192-2.379.192-3.552v-5.472h-7.456v5.472c0 .597.01 1.19.032 1.776.021.587.075 1.179.16 1.776H137.4Zm33.504.384c-2.325 0-4.208-.405-5.648-1.216-1.44-.81-2.49-1.963-3.152-3.456-.661-1.493-.992-3.275-.992-5.344V4.832c0-.555-.01-1.136-.032-1.744a16.987 16.987 0 0 0-.16-1.808h6.528c-.085.597-.144 1.2-.176 1.808-.032.608-.048 1.19-.048 1.744v9.408c0 1.6.299 2.8.896 3.6.597.8 1.547 1.2 2.848 1.2 2.603 0 3.904-1.6 3.904-4.8V4.832c0-1.152-.064-2.336-.192-3.552h6.24c-.085.597-.139 1.2-.16 1.808-.021.608-.032 1.19-.032 1.744v9.536c0 2.07-.336 3.85-1.008 5.344-.672 1.493-1.728 2.645-3.168 3.456-1.44.81-3.323 1.216-5.648 1.216ZM184.408 24c.085-.597.144-1.19.176-1.776.032-.587.048-1.179.048-1.776V4.832c0-.555-.016-1.136-.048-1.744a14.657 14.657 0 0 0-.208-1.808h8.352c3.03 0 5.216.597 6.56 1.792 1.344 1.195 2.016 2.87 2.016 5.024 0 1.259-.261 2.357-.784 3.296-.523.939-1.467 1.717-2.832 2.336 1.003.427 1.739 1.019 2.208 1.776.47.757.896 1.819 1.28 3.184l.544 2.112c.277 1.173.661 2.24 1.152 3.2h-6.336l-.992-3.904c-.235-1.003-.523-1.75-.864-2.24-.341-.49-.779-.821-1.312-.992-.533-.17-1.216-.256-2.048-.256h-.672v3.84c0 .597.016 1.19.048 1.776.032.587.101 1.179.208 1.776h-6.496Zm7.648-17.792h-1.408v5.952h1.472c1.323 0 2.24-.272 2.752-.816.512-.544.768-1.275.768-2.192 0-.939-.272-1.664-.816-2.176-.544-.512-1.467-.768-2.768-.768Zm25.152 18.176c-2.368 0-4.496-.432-6.384-1.296a10.151 10.151 0 0 1-4.48-3.936c-1.099-1.76-1.648-3.973-1.648-6.64 0-1.963.32-3.67.96-5.12.64-1.45 1.53-2.656 2.672-3.616 1.141-.96 2.459-1.68 3.952-2.16 1.493-.48 3.083-.72 4.768-.72.725 0 1.413.037 2.064.112.65.075 1.253.176 1.808.304l.352 5.824a8.16 8.16 0 0 0-1.808-.544 11.2 11.2 0 0 0-1.936-.16c-1.941 0-3.499.507-4.672 1.52-1.173 1.013-1.76 2.533-1.76 4.56 0 2.07.597 3.643 1.792 4.72s2.859 1.616 4.992 1.616c.683 0 1.307-.037 1.872-.112a10.282 10.282 0 0 0 1.68-.368l-.16 5.6c-.683.15-1.36.256-2.032.32a21.42 21.42 0 0 1-2.032.096Zm7.36-.384c.128-1.195.192-2.379.192-3.552V4.832c0-1.152-.064-2.336-.192-3.552h6.496c-.085.597-.139 1.2-.16 1.808-.021.608-.032 1.19-.032 1.744v4.96h7.456v-4.96c0-1.152-.064-2.336-.192-3.552h6.496c-.085.597-.144 1.2-.176 1.808-.032.608-.048 1.19-.048 1.744v15.616c0 .597.016 1.19.048 1.776.032.587.09 1.179.176 1.776h-6.496c.128-1.195.192-2.379.192-3.552v-5.472h-7.456v5.472c0 .597.01 1.19.032 1.776.021.587.075 1.179.16 1.776h-6.496ZM13.24 62.384c-4.245 0-7.493-1.003-9.744-3.008C1.246 57.371.12 54.416.12 50.512c0-2.624.55-4.795 1.648-6.512 1.099-1.717 2.63-2.997 4.592-3.84 1.963-.843 4.256-1.264 6.88-1.264 1.13 0 2.192.064 3.184.192s1.872.32 2.64.576l.288 5.728a17.083 17.083 0 0 0-5.728-.96c-2.283.021-4.043.533-5.28 1.536-1.237 1.003-1.856 2.528-1.856 4.576 0 2.09.56 3.664 1.68 4.72 1.12 1.056 2.672 1.584 4.656 1.584.427 0 .821-.043 1.184-.128v-3.072c0-.555-.021-1.099-.064-1.632l-.128-1.6 5.632-.032v11.328c-.96.213-1.941.379-2.944.496-1.003.117-2.09.176-3.264.176ZM45.208 62h-7.136a15.232 15.232 0 0 0-.24-1.84 16.667 16.667 0 0 0-.432-1.744l-.16-.512h-7.424l-.16.512c-.17.597-.315 1.195-.432 1.792a14.737 14.737 0 0 0-.24 1.792h-6.816l6.592-19.168a15.67 15.67 0 0 0 .512-1.824c.128-.597.235-1.173.32-1.728h8.096c.107.555.24 1.13.4 1.728.16.597.325 1.205.496 1.824L45.208 62Zm-14.112-8.448h4.864l-2.432-8.128-2.432 8.128ZM47.704 62c.085-.597.139-1.19.16-1.776a48.87 48.87 0 0 0 .032-1.776V42.832c0-.555-.01-1.136-.032-1.744a16.987 16.987 0 0 0-.16-1.808H54.2c-.085.597-.139 1.2-.16 1.808-.021.608-.032 1.19-.032 1.744v14.24H58.2c.704 0 1.403-.01 2.096-.032a32.97 32.97 0 0 0 2.064-.128V62H47.704Zm17.312 0c.085-.597.139-1.19.16-1.776a48.87 48.87 0 0 0 .032-1.776V42.832c0-.555-.01-1.136-.032-1.744a16.987 16.987 0 0 0-.16-1.808h6.496c-.085.597-.139 1.2-.16 1.808-.021.608-.032 1.19-.032 1.744v14.24h4.192c.704 0 1.403-.01 2.096-.032a32.97 32.97 0 0 0 2.064-.128V62H65.016Zm17.312 0c.128-1.195.192-2.379.192-3.552V42.832c0-1.152-.064-2.336-.192-3.552h14.56l.256 5.184a17.92 17.92 0 0 0-2.016-.208 43.058 43.058 0 0 0-2.016-.048h-4.544v3.936h3.584c.597 0 1.173-.016 1.728-.048.555-.032 1.13-.09 1.728-.176v4.736a16.793 16.793 0 0 0-1.728-.16 45.002 45.002 0 0 0-1.728-.032h-3.584v4.608h4.544a38.475 38.475 0 0 0 4.352-.256L97.208 62h-14.88Zm18.208 0c.085-.597.144-1.19.176-1.776.032-.587.048-1.179.048-1.776V42.832c0-.555-.016-1.136-.048-1.744a14.657 14.657 0 0 0-.208-1.808h8.352c3.03 0 5.216.597 6.56 1.792 1.344 1.195 2.016 2.87 2.016 5.024 0 1.259-.261 2.357-.784 3.296-.523.939-1.467 1.717-2.832 2.336 1.003.427 1.739 1.019 2.208 1.776.47.757.896 1.819 1.28 3.184l.544 2.112c.277 1.173.661 2.24 1.152 3.2h-6.336l-.992-3.904c-.235-1.003-.523-1.75-.864-2.24-.341-.49-.779-.821-1.312-.992-.533-.17-1.216-.256-2.048-.256h-.672v3.84c0 .597.016 1.19.048 1.776.032.587.101 1.179.208 1.776h-6.496Zm7.648-17.792h-1.408v5.952h1.472c1.323 0 2.24-.272 2.752-.816.512-.544.768-1.275.768-2.192 0-.939-.272-1.664-.816-2.176-.544-.512-1.467-.768-2.768-.768ZM127.896 62c.085-.597.139-1.19.16-1.776.021-.587.032-1.179.032-1.776v-3.136L120.28 39.28h7.36c.064.533.155 1.03.272 1.488.117.459.261.933.432 1.424l2.944 7.584 2.912-7.584c.192-.49.347-.965.464-1.424.117-.459.208-.955.272-1.488h7.072L134.2 55.376v3.072c0 .597.01 1.19.032 1.776.021.587.075 1.179.16 1.776h-6.496Zm23.232 0c.128-1.195.192-2.379.192-3.552V42.832c0-1.152-.064-2.336-.192-3.552h6.496c-.085.597-.139 1.2-.16 1.808-.021.608-.032 1.19-.032 1.744v4.96h7.456v-4.96c0-1.152-.064-2.336-.192-3.552h6.496c-.085.597-.144 1.2-.176 1.808-.032.608-.048 1.19-.048 1.744v15.616c0 .597.016 1.19.048 1.776.032.587.09 1.179.176 1.776h-6.496c.128-1.195.192-2.379.192-3.552v-5.472h-7.456v5.472c0 .597.01 1.19.032 1.776.021.587.075 1.179.16 1.776h-6.496Zm23.712 0c.128-1.195.192-2.379.192-3.552V42.832c0-1.152-.064-2.336-.192-3.552h14.56l.256 5.184a17.92 17.92 0 0 0-2.016-.208 43.058 43.058 0 0 0-2.016-.048h-4.544v3.936h3.584c.597 0 1.173-.016 1.728-.048.555-.032 1.13-.09 1.728-.176v4.736a16.793 16.793 0 0 0-1.728-.16 45.002 45.002 0 0 0-1.728-.032h-3.584v4.608h4.544a38.475 38.475 0 0 0 4.352-.256L189.72 62h-14.88Zm18.176 0c.128-1.195.192-2.379.192-3.552V42.832c0-1.152-.064-2.336-.192-3.552h6.496a33.933 33.933 0 0 0-.192 3.552v15.616c0 1.173.064 2.357.192 3.552h-6.496Zm15.968.384c-1.045 0-1.99-.037-2.832-.112a24.41 24.41 0 0 1-2.8-.432l-.32-5.472c1.152.32 2.133.533 2.944.64.81.107 1.653.16 2.528.16 1.387 0 2.31-.155 2.768-.464.459-.31.688-.72.688-1.232 0-.384-.16-.757-.48-1.12-.32-.363-.917-.779-1.792-1.248l-2.144-1.088c-1.685-.875-2.923-1.861-3.712-2.96-.79-1.099-1.184-2.384-1.184-3.856 0-1.963.741-3.504 2.224-4.624 1.483-1.12 3.675-1.68 6.576-1.68 1.003 0 1.867.048 2.592.144.725.096 1.61.272 2.656.528l.352 5.536c-1.045-.363-2.005-.613-2.88-.752a17.566 17.566 0 0 0-2.752-.208c-1.11 0-1.856.139-2.24.416-.384.277-.576.63-.576 1.056 0 .384.144.747.432 1.088.288.341.827.725 1.616 1.152l2.144 1.152c1.792.939 3.099 1.957 3.92 3.056.821 1.099 1.232 2.405 1.232 3.92 0 2.027-.699 3.6-2.096 4.72-1.397 1.12-3.685 1.68-6.864 1.68ZM225.208 62c.085-.597.139-1.19.16-1.776.021-.587.032-1.179.032-1.776V44.336h-1.888a58.6 58.6 0 0 0-1.952.032c-.64.021-1.29.075-1.952.16V39.28h17.696v5.248a20.618 20.618 0 0 0-1.952-.16 58.6 58.6 0 0 0-1.952-.032h-1.888v14.112c0 .597.01 1.19.032 1.776.021.587.075 1.179.16 1.776h-6.496Z"/></svg>