<svg xmlns="http://www.w3.org/2000/svg" viewBox="0 0 414 139"><path fill="#33302E" d="M1.824 24c.085-.597.139-1.19.16-1.776a48.87 48.87 0 0 0 .032-1.776V4.832c0-1.152-.064-2.336-.192-3.552h7.488c4.16 0 7.333.939 9.52 2.816 2.187 1.877 3.28 4.693 3.28 8.448 0 3.733-1.05 6.576-3.152 8.528C16.859 23.024 13.77 24 9.696 24H1.824ZM9.632 6.176H8.128v12.928h1.504c2.09 0 3.67-.507 4.736-1.52 1.067-1.013 1.6-2.693 1.6-5.04 0-2.261-.533-3.888-1.6-4.88-1.067-.992-2.645-1.488-4.736-1.488ZM25.088 24c.085-.597.139-1.19.16-1.776a48.87 48.87 0 0 0 .032-1.776V5.44c0-.79-.08-1.493-.24-2.112-.16-.619-.464-1.301-.912-2.048H31.2l8.032 12.32V4.832c0-.597-.01-1.19-.032-1.776a16.893 16.893 0 0 0-.16-1.776h6.112c-.085.597-.144 1.19-.176 1.776a32.604 32.604 0 0 0-.048 1.776V24h-5.12l-8.832-13.216v9.664c0 .597.01 1.19.032 1.776.021.587.075 1.179.16 1.776h-6.08Zm45.536 0h-7.136a15.232 15.232 0 0 0-.24-1.84 16.667 16.667 0 0 0-.432-1.744l-.16-.512h-7.424l-.16.512c-.17.597-.315 1.195-.432 1.792A14.737 14.737 0 0 0 54.4 24h-6.816l6.592-19.168a15.67 15.67 0 0 0 .512-1.824c.128-.597.235-1.173.32-1.728h8.096c.107.555.24 1.13.4 1.728.16.597.325 1.205.496 1.824L70.624 24Zm-14.112-8.448h4.864l-2.432-8.128-2.432 8.128ZM79.84 24c.128-1.195.192-2.379.192-3.552V4.832c0-1.152-.064-2.336-.192-3.552H94.4l.256 5.184a17.92 17.92 0 0 0-2.016-.208 43.058 43.058 0 0 0-2.016-.048H86.08v3.936h3.584c.597 0 1.173-.016 1.728-.048.555-.032 1.13-.09 1.728-.176v4.736a16.793 16.793 0 0 0-1.728-.16 45.002 45.002 0 0 0-1.728-.032H86.08v4.608h4.544a38.475 38.475 0 0 0 4.352-.256L94.72 24H79.84Zm24.192 0a10.044 10.044 0 0 0-.272-1.6 32.277 32.277 0 0 0-.464-1.664L96.768 1.28h7.104c.043.597.117 1.179.224 1.744s.235 1.125.384 1.68l3.872 13.376 3.904-13.376c.299-1.067.501-2.208.608-3.424h6.784l-6.464 19.456c-.192.555-.357 1.11-.496 1.664-.139.555-.23 1.088-.272 1.6h-8.384Zm18.016 0c.128-1.195.192-2.379.192-3.552V4.832c0-1.152-.064-2.336-.192-3.552h6.496a33.933 33.933 0 0 0-.192 3.552v15.616c0 1.173.064 2.357.192 3.552h-6.496Zm10.144 0c.085-.597.139-1.19.16-1.776.021-.587.032-1.179.032-1.776V4.832c0-1.152-.064-2.336-.192-3.552h7.488c4.16 0 7.333.939 9.52 2.816 2.187 1.877 3.28 4.693 3.28 8.448 0 3.733-1.05 6.576-3.152 8.528-2.101 1.952-5.19 2.928-9.264 2.928h-7.872ZM140 6.176h-1.504v12.928H140c2.09 0 3.67-.507 4.736-1.52 1.067-1.013 1.6-2.693 1.6-5.04 0-2.261-.533-3.888-1.6-4.88-1.067-.992-2.645-1.488-4.736-1.488ZM155.424 24c.128-1.195.192-2.379.192-3.552V4.832c0-1.152-.064-2.336-.192-3.552h14.56l.256 5.184a17.92 17.92 0 0 0-2.016-.208 43.058 43.058 0 0 0-2.016-.048h-4.544v3.936h3.584c.597 0 1.173-.016 1.728-.048.555-.032 1.13-.09 1.728-.176v4.736a16.793 16.793 0 0 0-1.728-.16 45.002 45.002 0 0 0-1.728-.032h-3.584v4.608h4.544a38.475 38.475 0 0 0 4.352-.256L170.304 24h-14.88Zm18.208 0c.085-.597.139-1.19.16-1.776.021-.587.032-1.179.032-1.776V5.44c0-.79-.08-1.493-.24-2.112-.16-.619-.464-1.301-.912-2.048h7.072l8.032 12.32V4.832c0-.597-.01-1.19-.032-1.776a16.893 16.893 0 0 0-.16-1.776h6.112c-.085.597-.144 1.19-.176 1.776a32.604 32.604 0 0 0-.048 1.776V24h-5.12l-8.832-13.216v9.664c0 .597.01 1.19.032 1.776.021.587.075 1.179.16 1.776h-6.08Zm35.488.384c-2.368 0-4.496-.432-6.384-1.296a10.151 10.151 0 0 1-4.48-3.936c-1.099-1.76-1.648-3.973-1.648-6.64 0-1.963.32-3.67.96-5.12.64-1.45 1.53-2.656 2.672-3.616 1.141-.96 2.459-1.68 3.952-2.16 1.493-.48 3.083-.72 4.768-.72.725 0 1.413.037 2.064.112.65.075 1.253.176 1.808.304l.352 5.824a8.16 8.16 0 0 0-1.808-.544 11.2 11.2 0 0 0-1.936-.16c-1.941 0-3.499.507-4.672 1.52-1.173 1.013-1.76 2.533-1.76 4.56 0 2.07.597 3.643 1.792 4.72s2.859 1.616 4.992 1.616c.683 0 1.307-.037 1.872-.112a10.282 10.282 0 0 0 1.68-.368l-.16 5.6c-.683.15-1.36.256-2.032.32a21.42 21.42 0 0 1-2.032.096Zm7.36-.384c.128-1.195.192-2.379.192-3.552V4.832c0-1.152-.064-2.336-.192-3.552h14.56l.256 5.184a17.92 17.92 0 0 0-2.016-.208 43.058 43.058 0 0 0-2.016-.048h-4.544v3.936h3.584c.597 0 1.173-.016 1.728-.048.555-.032 1.13-.09 1.728-.176v4.736a16.793 16.793 0 0 0-1.728-.16 45.002 45.002 0 0 0-1.728-.032h-3.584v4.608h4.544a38.475 38.475 0 0 0 4.352-.256L231.36 24h-14.88Zm24.896 0c.064-.597.107-1.19.128-1.776.021-.587.032-1.179.032-1.776V4.832c0-.555-.01-1.136-.032-1.744a25.29 25.29 0 0 0-.128-1.808H256v5.248a20.618 20.618 0 0 0-1.952-.16 58.6 58.6 0 0 0-1.952-.032h-4.448v5.12h3.392c.597 0 1.19-.01 1.776-.032a16.893 16.893 0 0 0 1.776-.16v4.864a32.73 32.73 0 0 0-3.552-.192h-3.392v4.512c0 .597.01 1.19.032 1.776.021.587.075 1.179.16 1.776h-6.464Zm17.312 0c.085-.597.144-1.19.176-1.776.032-.587.048-1.179.048-1.776V4.832c0-.555-.016-1.136-.048-1.744a14.657 14.657 0 0 0-.208-1.808h8.352c3.03 0 5.216.597 6.56 1.792 1.344 1.195 2.016 2.87 2.016 5.024 0 1.259-.261 2.357-.784 3.296-.523.939-1.467 1.717-2.832 2.336 1.003.427 1.739 1.019 2.208 1.776.47.757.896 1.819 1.28 3.184L276 20.8c.277 1.173.661 2.24 1.152 3.2h-6.336l-.992-3.904c-.235-1.003-.523-1.75-.864-2.24-.341-.49-.779-.821-1.312-.992-.533-.17-1.216-.256-2.048-.256h-.672v3.84c0 .597.016 1.19.048 1.776.032.587.101 1.179.208 1.776h-6.496Zm7.648-17.792h-1.408v5.952h1.472c1.323 0 2.24-.272 2.752-.816.512-.544.768-1.275.768-2.192 0-.939-.272-1.664-.816-2.176-.544-.512-1.467-.768-2.768-.768Zm23.776 18.176c-2.24 0-4.192-.49-5.856-1.472-1.664-.981-2.96-2.368-3.888-4.16-.928-1.792-1.392-3.883-1.392-6.272 0-2.56.512-4.699 1.536-6.416 1.024-1.717 2.416-3.008 4.176-3.872 1.76-.864 3.76-1.296 6-1.296s4.197.496 5.872 1.488c1.675.992 2.97 2.379 3.888 4.16.917 1.781 1.376 3.867 1.376 6.256 0 2.56-.512 4.699-1.536 6.416-1.024 1.717-2.416 3.008-4.176 3.872-1.76.864-3.76 1.296-6 1.296Zm.352-5.312c1.515 0 2.747-.517 3.696-1.552.95-1.035 1.424-2.501 1.424-4.4 0-2.283-.475-4.005-1.424-5.168-.95-1.163-2.213-1.744-3.792-1.744-1.515 0-2.757.517-3.728 1.552-.97 1.035-1.456 2.501-1.456 4.4 0 2.283.485 4.005 1.456 5.168.97 1.163 2.245 1.744 3.824 1.744ZM304.608 24c.107-.597.181-1.19.224-1.776a48.2 48.2 0 0 0 .096-1.776l.576-15.008a13.405 13.405 0 0 0-.448-4.16h7.264l5.248 12.192 5.28-12.192h6.88a11.213 11.213 0 0 0-.368 2.032c-.053.65-.059 1.36-.016 2.128l.544 15.008c.021.597.059 1.19.112 1.776.053.587.123 1.179.208 1.776h-6.304c.107-.597.16-1.19.16-1.776 0-.587-.01-1.179-.032-1.776l-.448-9.92-6.336 13.696h-.064l-6.304-13.632-.448 9.856a31.492 31.492 0 0 0-.016 1.728 23.8 23.8 0 0 0 .112 1.824h-5.92Zm57.664 0h-7.136a15.232 15.232 0 0 0-.24-1.84 16.667 16.667 0 0 0-.432-1.744l-.16-.512h-7.424l-.16.512c-.17.597-.315 1.195-.432 1.792a14.737 14.737 0 0 0-.24 1.792h-6.816l6.592-19.168a15.67 15.67 0 0 0 .512-1.824c.128-.597.235-1.173.32-1.728h8.096c.107.555.24 1.13.4 1.728.16.597.325 1.205.496 1.824L362.272 24Zm-14.112-8.448h4.864l-2.432-8.128-2.432 8.128ZM1.824 62c.128-1.195.192-2.379.192-3.552V42.832c0-1.152-.064-2.336-.192-3.552h8.32c2.923 0 5.12.752 6.592 2.256 1.472 1.504 2.208 3.493 2.208 5.968 0 2.581-.79 4.656-2.368 6.224-1.579 1.568-3.957 2.352-7.136 2.352H7.968v2.368c0 .597.01 1.19.032 1.776.021.587.075 1.179.16 1.776H1.824Zm7.424-17.824h-1.28v7.392h1.216c2.773 0 4.16-1.27 4.16-3.808 0-2.39-1.365-3.584-4.096-3.584ZM43.424 62h-7.136a15.232 15.232 0 0 0-.24-1.84 16.667 16.667 0 0 0-.432-1.744l-.16-.512h-7.424l-.16.512c-.17.597-.315 1.195-.432 1.792A14.737 14.737 0 0 0 27.2 62h-6.816l6.592-19.168a15.67 15.67 0 0 0 .512-1.824c.128-.597.235-1.173.32-1.728h8.096c.107.555.24 1.13.4 1.728.16.597.325 1.205.496 1.824L43.424 62Zm-14.112-8.448h4.864l-2.432-8.128-2.432 8.128ZM45.952 62c.085-.597.144-1.19.176-1.776.032-.587.048-1.179.048-1.776V42.832c0-.555-.016-1.136-.048-1.744a14.657 14.657 0 0 0-.208-1.808h8.352c3.03 0 5.216.597 6.56 1.792 1.344 1.195 2.016 2.87 2.016 5.024 0 1.259-.261 2.357-.784 3.296-.523.939-1.467 1.717-2.832 2.336 1.003.427 1.739 1.019 2.208 1.776.47.757.896 1.819 1.28 3.184l.544 2.112c.277 1.173.661 2.24 1.152 3.2H58.08l-.992-3.904c-.235-1.003-.523-1.75-.864-2.24-.341-.49-.779-.821-1.312-.992-.533-.17-1.216-.256-2.048-.256h-.672v3.84c0 .597.016 1.19.048 1.776.032.587.101 1.179.208 1.776h-6.496ZM53.6 44.208h-1.408v5.952h1.472c1.323 0 2.24-.272 2.752-.816.512-.544.768-1.275.768-2.192 0-.939-.272-1.664-.816-2.176-.544-.512-1.467-.768-2.768-.768ZM71.36 62c.085-.597.139-1.19.16-1.776a48.87 48.87 0 0 0 .032-1.776V44.336h-1.888a58.6 58.6 0 0 0-1.952.032c-.64.021-1.29.075-1.952.16V39.28h17.696v5.248a20.618 20.618 0 0 0-1.952-.16 58.6 58.6 0 0 0-1.952-.032h-1.888v14.112c0 .597.01 1.19.032 1.776.021.587.075 1.179.16 1.776H71.36Zm14.592 0c.128-1.195.192-2.379.192-3.552V42.832c0-1.152-.064-2.336-.192-3.552h6.496a33.933 33.933 0 0 0-.192 3.552v15.616c0 1.173.064 2.357.192 3.552h-6.496Zm32 0h-7.136a15.232 15.232 0 0 0-.24-1.84 16.667 16.667 0 0 0-.432-1.744l-.16-.512h-7.424l-.16.512c-.17.597-.315 1.195-.432 1.792a14.737 14.737 0 0 0-.24 1.792h-6.816l6.592-19.168a15.67 15.67 0 0 0 .512-1.824c.128-.597.235-1.173.32-1.728h8.096c.107.555.24 1.13.4 1.728.16.597.325 1.205.496 1.824L117.952 62Zm-14.112-8.448h4.864l-2.432-8.128-2.432 8.128ZM120.448 62c.085-.597.139-1.19.16-1.776.021-.587.032-1.179.032-1.776V42.832c0-.555-.01-1.136-.032-1.744a16.987 16.987 0 0 0-.16-1.808h6.496c-.085.597-.139 1.2-.16 1.808-.021.608-.032 1.19-.032 1.744v14.24h4.192c.704 0 1.403-.01 2.096-.032a32.971 32.971 0 0 0 2.064-.128V62h-14.656Zm17.312 0c.085-.597.139-1.19.16-1.776.021-.587.032-1.179.032-1.776V42.832c0-.555-.01-1.136-.032-1.744a16.987 16.987 0 0 0-.16-1.808h6.496c-.085.597-.139 1.2-.16 1.808-.021.608-.032 1.19-.032 1.744v14.24h4.192c.704 0 1.403-.01 2.096-.032a32.971 32.971 0 0 0 2.064-.128V62H137.76Zm23.68 0c.085-.597.139-1.19.16-1.776.021-.587.032-1.179.032-1.776v-3.136l-7.808-16.032h7.36c.064.533.155 1.03.272 1.488.117.459.261.933.432 1.424l2.944 7.584 2.912-7.584c.192-.49.347-.965.464-1.424.117-.459.208-.955.272-1.488h7.072l-7.808 16.096v3.072c0 .597.01 1.19.032 1.776.021.587.075 1.179.16 1.776h-6.496Zm23.232 0c.128-1.195.192-2.379.192-3.552V42.832c0-1.152-.064-2.336-.192-3.552h14.56l.256 5.184a17.92 17.92 0 0 0-2.016-.208 43.058 43.058 0 0 0-2.016-.048h-4.544v3.936h3.584c.597 0 1.173-.016 1.728-.048.555-.032 1.13-.09 1.728-.176v4.736a16.793 16.793 0 0 0-1.728-.16 45.002 45.002 0 0 0-1.728-.032h-3.584v4.608h4.544a38.475 38.475 0 0 0 4.352-.256L199.552 62h-14.88Zm40.032 0h-7.136a15.232 15.232 0 0 0-.24-1.84 16.667 16.667 0 0 0-.432-1.744l-.16-.512h-7.424l-.16.512c-.17.597-.315 1.195-.432 1.792a14.737 14.737 0 0 0-.24 1.792h-6.816l6.592-19.168a15.67 15.67 0 0 0 .512-1.824c.128-.597.235-1.173.32-1.728h8.096c.107.555.24 1.13.4 1.728.16.597.325 1.205.496 1.824L224.704 62Zm-14.112-8.448h4.864l-2.432-8.128-2.432 8.128ZM231.616 62c.085-.597.139-1.19.16-1.776.021-.587.032-1.179.032-1.776V44.336h-1.888a58.6 58.6 0 0 0-1.952.032c-.64.021-1.29.075-1.952.16V39.28h17.696v5.248a20.618 20.618 0 0 0-1.952-.16 58.6 58.6 0 0 0-1.952-.032h-1.888v14.112c0 .597.01 1.19.032 1.776.021.587.075 1.179.16 1.776h-6.496Zm14.592 0c.128-1.195.192-2.379.192-3.552V42.832c0-1.152-.064-2.336-.192-3.552h14.56l.256 5.184a17.92 17.92 0 0 0-2.016-.208 43.058 43.058 0 0 0-2.016-.048h-4.544v3.936h3.584c.597 0 1.173-.016 1.728-.048.555-.032 1.13-.09 1.728-.176v4.736a16.793 16.793 0 0 0-1.728-.16 45.002 45.002 0 0 0-1.728-.032h-3.584v4.608h4.544a38.475 38.475 0 0 0 4.352-.256L261.088 62h-14.88Zm18.208 0c.085-.597.139-1.19.16-1.776.021-.587.032-1.179.032-1.776V43.44c0-.79-.08-1.493-.24-2.112-.16-.619-.464-1.301-.912-2.048h7.072l8.032 12.32v-8.768c0-.597-.01-1.19-.032-1.776a16.893 16.893 0 0 0-.16-1.776h6.112c-.085.597-.144 1.19-.176 1.776a32.604 32.604 0 0 0-.048 1.776V62h-5.12l-8.832-13.216v9.664c0 .597.01 1.19.032 1.776.021.587.075 1.179.16 1.776h-6.08Zm36.224.384c-1.045 0-1.99-.037-2.832-.112a24.41 24.41 0 0 1-2.8-.432l-.32-5.472c1.152.32 2.133.533 2.944.64.81.107 1.653.16 2.528.16 1.387 0 2.31-.155 2.768-.464.459-.31.688-.72.688-1.232 0-.384-.16-.757-.48-1.12-.32-.363-.917-.779-1.792-1.248l-2.144-1.088c-1.685-.875-2.923-1.861-3.712-2.96-.79-1.099-1.184-2.384-1.184-3.856 0-1.963.741-3.504 2.224-4.624 1.483-1.12 3.675-1.68 6.576-1.68 1.003 0 1.867.048 2.592.144.725.096 1.61.272 2.656.528l.352 5.536c-1.045-.363-2.005-.613-2.88-.752a17.566 17.566 0 0 0-2.752-.208c-1.11 0-1.856.139-2.24.416-.384.277-.576.63-.576 1.056 0 .384.144.747.432 1.088.288.341.827.725 1.616 1.152l2.144 1.152c1.792.939 3.099 1.957 3.92 3.056.821 1.099 1.232 2.405 1.232 3.92 0 2.027-.699 3.6-2.096 4.72-1.397 1.12-3.685 1.68-6.864 1.68ZM334.304 62h-7.136a15.232 15.232 0 0 0-.24-1.84 16.667 16.667 0 0 0-.432-1.744l-.16-.512h-7.424l-.16.512c-.17.597-.315 1.195-.432 1.792a14.737 14.737 0 0 0-.24 1.792h-6.816l6.592-19.168a15.67 15.67 0 0 0 .512-1.824c.128-.597.235-1.173.32-1.728h8.096c.107.555.24 1.13.4 1.728.16.597.325 1.205.496 1.824L334.304 62Zm-14.112-8.448h4.864l-2.432-8.128-2.432 8.128ZM336.8 62c.085-.597.139-1.19.16-1.776.021-.587.032-1.179.032-1.776V42.832c0-.555-.01-1.136-.032-1.744a16.987 16.987 0 0 0-.16-1.808h6.496c-.085.597-.139 1.2-.16 1.808-.021.608-.032 1.19-.032 1.744v14.24h4.192c.704 0 1.403-.01 2.096-.032a32.971 32.971 0 0 0 2.064-.128V62H336.8Zm39.168 0h-7.136a15.232 15.232 0 0 0-.24-1.84 16.667 16.667 0 0 0-.432-1.744l-.16-.512h-7.424l-.16.512c-.17.597-.315 1.195-.432 1.792a14.737 14.737 0 0 0-.24 1.792h-6.816l6.592-19.168a15.67 15.67 0 0 0 .512-1.824c.128-.597.235-1.173.32-1.728h8.096c.107.555.24 1.13.4 1.728.16.597.325 1.205.496 1.824L375.968 62Zm-14.112-8.448h4.864l-2.432-8.128-2.432 8.128ZM378.304 62c.107-.597.181-1.19.224-1.776a48.2 48.2 0 0 0 .096-1.776l.576-15.008a13.405 13.405 0 0 0-.448-4.16h7.264l5.248 12.192 5.28-12.192h6.88a11.213 11.213 0 0 0-.368 2.032c-.053.65-.059 1.36-.016 2.128l.544 15.008c.021.597.059 1.19.112 1.776.053.587.123 1.179.208 1.776H397.6c.107-.597.16-1.19.16-1.776 0-.587-.01-1.179-.032-1.776l-.448-9.92-6.336 13.696h-.064l-6.304-13.632-.448 9.856a31.492 31.492 0 0 0-.016 1.728 23.8 23.8 0 0 0 .112 1.824h-5.92Zm29.088 0c.128-1.195.192-2.379.192-3.552V42.832c0-1.152-.064-2.336-.192-3.552h6.496a33.933 33.933 0 0 0-.192 3.552v15.616c0 1.173.064 2.357.192 3.552h-6.496ZM7.648 100.384c-1.045 0-1.99-.037-2.832-.112a24.41 24.41 0 0 1-2.8-.432l-.32-5.472c1.152.32 2.133.533 2.944.64.81.107 1.653.16 2.528.16 1.387 0 2.31-.155 2.768-.464.459-.31.688-.72.688-1.232 0-.384-.16-.757-.48-1.12-.32-.363-.917-.779-1.792-1.248l-2.144-1.088c-1.685-.875-2.923-1.861-3.712-2.96-.79-1.099-1.184-2.384-1.184-3.856 0-1.963.741-3.504 2.224-4.624 1.483-1.12 3.675-1.68 6.576-1.68 1.003 0 1.867.048 2.592.144.725.096 1.61.272 2.656.528l.352 5.536c-1.045-.363-2.005-.613-2.88-.752a17.566 17.566 0 0 0-2.752-.208c-1.11 0-1.856.139-2.24.416-.384.277-.576.63-.576 1.056 0 .384.144.747.432 1.088.288.341.827.725 1.616 1.152l2.144 1.152c1.792.939 3.099 1.957 3.92 3.056.821 1.099 1.232 2.405 1.232 3.92 0 2.027-.699 3.6-2.096 4.72-1.397 1.12-3.685 1.68-6.864 1.68ZM41.312 100h-7.136a15.232 15.232 0 0 0-.24-1.84 16.667 16.667 0 0 0-.432-1.744l-.16-.512H25.92l-.16.512c-.17.597-.315 1.195-.432 1.792a14.737 14.737 0 0 0-.24 1.792h-6.816l6.592-19.168a15.67 15.67 0 0 0 .512-1.824c.128-.597.235-1.173.32-1.728h8.096c.107.555.24 1.13.4 1.728.16.597.325 1.205.496 1.824L41.312 100ZM27.2 91.552h4.864l-2.432-8.128-2.432 8.128ZM43.84 100c.085-.597.139-1.19.16-1.776a48.87 48.87 0 0 0 .032-1.776V81.44c0-.79-.08-1.493-.24-2.112-.16-.619-.464-1.301-.912-2.048h7.072l8.032 12.32v-8.768c0-.597-.01-1.19-.032-1.776a16.893 16.893 0 0 0-.16-1.776h6.112c-.085.597-.144 1.19-.176 1.776a32.604 32.604 0 0 0-.048 1.776V100h-5.12l-8.832-13.216v9.664c0 .597.01 1.19.032 1.776.021.587.075 1.179.16 1.776h-6.08Zm23.68 0c.085-.597.139-1.19.16-1.776a48.87 48.87 0 0 0 .032-1.776V80.832c0-1.152-.064-2.336-.192-3.552h7.488c4.16 0 7.333.939 9.52 2.816 2.187 1.877 3.28 4.693 3.28 8.448 0 3.733-1.05 6.576-3.152 8.528-2.101 1.952-5.19 2.928-9.264 2.928H67.52Zm7.808-17.824h-1.504v12.928h1.504c2.09 0 3.67-.507 4.736-1.52 1.067-1.013 1.6-2.693 1.6-5.04 0-2.261-.533-3.888-1.6-4.88-1.067-.992-2.645-1.488-4.736-1.488ZM95.424 100c-.021-.512-.07-.976-.144-1.392a15.964 15.964 0 0 0-.368-1.52L89.888 77.28H96.8c.043.725.107 1.381.192 1.968s.203 1.147.352 1.68l2.592 12.448 3.488-13.056-.8-3.04h6.048l3.744 15.936 2.624-12.288c.107-.555.208-1.12.304-1.696.096-.576.155-1.227.176-1.952h6.048l-5.024 19.808c-.15.597-.261 1.099-.336 1.504a14.04 14.04 0 0 0-.176 1.408h-7.552a8.845 8.845 0 0 0-.224-1.408c-.107-.427-.235-.928-.384-1.504l-2.24-8.48-2.208 8.48c-.15.597-.272 1.104-.368 1.52-.096.416-.165.88-.208 1.392h-7.424Zm28.928 0c.128-1.195.192-2.379.192-3.552V80.832c0-1.152-.064-2.336-.192-3.552h6.496a33.933 33.933 0 0 0-.192 3.552v15.616c0 1.173.064 2.357.192 3.552h-6.496Zm21.952.384c-2.368 0-4.496-.432-6.384-1.296a10.151 10.151 0 0 1-4.48-3.936c-1.099-1.76-1.648-3.973-1.648-6.64 0-1.963.32-3.67.96-5.12.64-1.45 1.53-2.656 2.672-3.616 1.141-.96 2.459-1.68 3.952-2.16 1.493-.48 3.083-.72 4.768-.72.725 0 1.413.037 2.064.112.65.075 1.253.176 1.808.304l.352 5.824a8.16 8.16 0 0 0-1.808-.544 11.2 11.2 0 0 0-1.936-.16c-1.941 0-3.499.507-4.672 1.52-1.173 1.013-1.76 2.533-1.76 4.56 0 2.07.597 3.643 1.792 4.72s2.859 1.616 4.992 1.616c.683 0 1.307-.037 1.872-.112a10.282 10.282 0 0 0 1.68-.368l-.16 5.6c-.683.15-1.36.256-2.032.32a21.42 21.42 0 0 1-2.032.096Zm7.36-.384c.128-1.195.192-2.379.192-3.552V80.832c0-1.152-.064-2.336-.192-3.552h6.496c-.085.597-.139 1.2-.16 1.808-.021.608-.032 1.19-.032 1.744v4.96h7.456v-4.96c0-1.152-.064-2.336-.192-3.552h6.496c-.085.597-.144 1.2-.176 1.808-.032.608-.048 1.19-.048 1.744v15.616c0 .597.016 1.19.048 1.776.032.587.09 1.179.176 1.776h-6.496c.128-1.195.192-2.379.192-3.552v-5.472h-7.456v5.472c0 .597.01 1.19.032 1.776.021.587.075 1.179.16 1.776h-6.496Zm30.432 0c.064-.597.107-1.19.128-1.776.021-.587.032-1.179.032-1.776V80.832c0-.555-.01-1.136-.032-1.744a25.29 25.29 0 0 0-.128-1.808h14.624v5.248a20.618 20.618 0 0 0-1.952-.16 58.6 58.6 0 0 0-1.952-.032h-4.448v5.12h3.392c.597 0 1.19-.01 1.776-.032a16.893 16.893 0 0 0 1.776-.16v4.864a32.73 32.73 0 0 0-3.552-.192h-3.392v4.512c0 .597.01 1.19.032 1.776.021.587.075 1.179.16 1.776h-6.464Zm27.712.384c-2.24 0-4.192-.49-5.856-1.472-1.664-.981-2.96-2.368-3.888-4.16-.928-1.792-1.392-3.883-1.392-6.272 0-2.56.512-4.699 1.536-6.416 1.024-1.717 2.416-3.008 4.176-3.872 1.76-.864 3.76-1.296 6-1.296s4.197.496 5.872 1.488c1.675.992 2.97 2.379 3.888 4.16.917 1.781 1.376 3.867 1.376 6.256 0 2.56-.512 4.699-1.536 6.416-1.024 1.717-2.416 3.008-4.176 3.872-1.76.864-3.76 1.296-6 1.296Zm.352-5.312c1.515 0 2.747-.517 3.696-1.552.95-1.035 1.424-2.501 1.424-4.4 0-2.283-.475-4.005-1.424-5.168-.95-1.163-2.213-1.744-3.792-1.744-1.515 0-2.757.517-3.728 1.552-.97 1.035-1.456 2.501-1.456 4.4 0 2.283.485 4.005 1.456 5.168.97 1.163 2.245 1.744 3.824 1.744Zm24.096 5.312c-2.325 0-4.208-.405-5.648-1.216-1.44-.81-2.49-1.963-3.152-3.456-.661-1.493-.992-3.275-.992-5.344v-9.536c0-.555-.01-1.136-.032-1.744a16.987 16.987 0 0 0-.16-1.808h6.528c-.085.597-.144 1.2-.176 1.808-.032.608-.048 1.19-.048 1.744v9.408c0 1.6.299 2.8.896 3.6.597.8 1.547 1.2 2.848 1.2 2.603 0 3.904-1.6 3.904-4.8v-9.408c0-1.152-.064-2.336-.192-3.552h6.24c-.085.597-.139 1.2-.16 1.808-.021.608-.032 1.19-.032 1.744v9.536c0 2.07-.336 3.85-1.008 5.344-.672 1.493-1.728 2.645-3.168 3.456-1.44.81-3.323 1.216-5.648 1.216ZM249.76 100c.085-.597.139-1.19.16-1.776.021-.587.032-1.179.032-1.776V81.44c0-.79-.08-1.493-.24-2.112-.16-.619-.464-1.301-.912-2.048h7.072l8.032 12.32v-8.768c0-.597-.01-1.19-.032-1.776a16.893 16.893 0 0 0-.16-1.776h6.112c-.085.597-.144 1.19-.176 1.776a32.604 32.604 0 0 0-.048 1.776V100h-5.12l-8.832-13.216v9.664c0 .597.01 1.19.032 1.776.021.587.075 1.179.16 1.776h-6.08Zm23.68 0c.085-.597.139-1.19.16-1.776.021-.587.032-1.179.032-1.776V80.832c0-1.152-.064-2.336-.192-3.552h7.488c4.16 0 7.333.939 9.52 2.816 2.187 1.877 3.28 4.693 3.28 8.448 0 3.733-1.05 6.576-3.152 8.528-2.101 1.952-5.19 2.928-9.264 2.928h-7.872Zm7.808-17.824h-1.504v12.928h1.504c2.09 0 3.67-.507 4.736-1.52 1.067-1.013 1.6-2.693 1.6-5.04 0-2.261-.533-3.888-1.6-4.88-1.067-.992-2.645-1.488-4.736-1.488ZM303.424 100c.085-.597.139-1.19.16-1.776.021-.587.032-1.179.032-1.776V81.44c0-.79-.08-1.493-.24-2.112-.16-.619-.464-1.301-.912-2.048h7.072l8.032 12.32v-8.768c0-.597-.01-1.19-.032-1.776a16.893 16.893 0 0 0-.16-1.776h6.112c-.085.597-.144 1.19-.176 1.776a32.604 32.604 0 0 0-.048 1.776V100h-5.12l-8.832-13.216v9.664c0 .597.01 1.19.032 1.776.021.587.075 1.179.16 1.776h-6.08Zm23.68 0c.128-1.195.192-2.379.192-3.552V80.832c0-1.152-.064-2.336-.192-3.552h14.56l.256 5.184a17.92 17.92 0 0 0-2.016-.208 43.058 43.058 0 0 0-2.016-.048h-4.544v3.936h3.584c.597 0 1.173-.016 1.728-.048.555-.032 1.13-.09 1.728-.176v4.736a16.793 16.793 0 0 0-1.728-.16 45.002 45.002 0 0 0-1.728-.032h-3.584v4.608h4.544a38.475 38.475 0 0 0 4.352-.256l-.256 5.184h-14.88Zm40.032 0H360a15.232 15.232 0 0 0-.24-1.84 16.667 16.667 0 0 0-.432-1.744l-.16-.512h-7.424l-.16.512c-.17.597-.315 1.195-.432 1.792a14.737 14.737 0 0 0-.24 1.792h-6.816l6.592-19.168a15.67 15.67 0 0 0 .512-1.824c.128-.597.235-1.173.32-1.728h8.096c.107.555.24 1.13.4 1.728.16.597.325 1.205.496 1.824L367.136 100Zm-14.112-8.448h4.864l-2.432-8.128-2.432 8.128Zm16.64 8.448c.085-.597.144-1.19.176-1.776.032-.587.048-1.179.048-1.776V80.832c0-.555-.016-1.136-.048-1.744a14.657 14.657 0 0 0-.208-1.808h8.352c3.03 0 5.216.597 6.56 1.792 1.344 1.195 2.016 2.87 2.016 5.024 0 1.259-.261 2.357-.784 3.296-.523.939-1.467 1.717-2.832 2.336 1.003.427 1.739 1.019 2.208 1.776.47.757.896 1.819 1.28 3.184l.544 2.112c.277 1.173.661 2.24 1.152 3.2h-6.336l-.992-3.904c-.235-1.003-.523-1.75-.864-2.24-.341-.49-.779-.821-1.312-.992-.533-.17-1.216-.256-2.048-.256h-.672v3.84c0 .597.016 1.19.048 1.776.032.587.101 1.179.208 1.776h-6.496Zm7.648-17.792h-1.408v5.952h1.472c1.323 0 2.24-.272 2.752-.816.512-.544.768-1.275.768-2.192 0-.939-.272-1.664-.816-2.176-.544-.512-1.467-.768-2.768-.768ZM6.24 138c.085-.597.139-1.19.16-1.776a48.87 48.87 0 0 0 .032-1.776v-14.112H4.544a58.6 58.6 0 0 0-1.952.032c-.64.021-1.29.075-1.952.16v-5.248h17.696v5.248a20.618 20.618 0 0 0-1.952-.16 58.6 58.6 0 0 0-1.952-.032h-1.888v14.112c0 .597.01 1.19.032 1.776.021.587.075 1.179.16 1.776H6.24Zm14.592 0c.128-1.195.192-2.379.192-3.552v-15.616c0-1.152-.064-2.336-.192-3.552h6.496c-.085.597-.139 1.2-.16 1.808-.021.608-.032 1.19-.032 1.744v4.96h7.456v-4.96c0-1.152-.064-2.336-.192-3.552h6.496c-.085.597-.144 1.2-.176 1.808-.032.608-.048 1.19-.048 1.744v15.616c0 .597.016 1.19.048 1.776.032.587.09 1.179.176 1.776H34.4c.128-1.195.192-2.379.192-3.552v-5.472h-7.456v5.472c0 .597.01 1.19.032 1.776.021.587.075 1.179.16 1.776h-6.496Zm23.712 0c.128-1.195.192-2.379.192-3.552v-15.616c0-1.152-.064-2.336-.192-3.552h14.56l.256 5.184a17.92 17.92 0 0 0-2.016-.208 43.058 43.058 0 0 0-2.016-.048h-4.544v3.936h3.584c.597 0 1.173-.016 1.728-.048.555-.032 1.13-.09 1.728-.176v4.736a16.793 16.793 0 0 0-1.728-.16 45.003 45.003 0 0 0-1.728-.032h-3.584v4.608h4.544a38.475 38.475 0 0 0 4.352-.256L59.424 138h-14.88Zm36.704.384c-2.368 0-4.496-.432-6.384-1.296a10.151 10.151 0 0 1-4.48-3.936c-1.099-1.76-1.648-3.973-1.648-6.64 0-1.963.32-3.67.96-5.12.64-1.45 1.53-2.656 2.672-3.616 1.141-.96 2.459-1.68 3.952-2.16 1.493-.48 3.083-.72 4.768-.72.725 0 1.413.037 2.064.112.65.075 1.253.176 1.808.304l.352 5.824a8.16 8.16 0 0 0-1.808-.544 11.2 11.2 0 0 0-1.936-.16c-1.941 0-3.499.507-4.672 1.52-1.173 1.013-1.76 2.533-1.76 4.56 0 2.07.597 3.643 1.792 4.72s2.859 1.616 4.992 1.616c.683 0 1.307-.037 1.872-.112a10.282 10.282 0 0 0 1.68-.368l-.16 5.6c-.683.15-1.36.256-2.032.32a21.42 21.42 0 0 1-2.032.096ZM88.64 138c.085-.597.144-1.19.176-1.776.032-.587.048-1.179.048-1.776v-15.616c0-.555-.016-1.136-.048-1.744a14.657 14.657 0 0 0-.208-1.808h8.352c3.03 0 5.216.597 6.56 1.792 1.344 1.195 2.016 2.87 2.016 5.024 0 1.259-.261 2.357-.784 3.296-.523.939-1.467 1.717-2.832 2.336 1.003.427 1.739 1.019 2.208 1.776.47.757.896 1.819 1.28 3.184l.544 2.112c.277 1.173.661 2.24 1.152 3.2h-6.336l-.992-3.904c-.235-1.003-.523-1.75-.864-2.24-.341-.49-.779-.821-1.312-.992-.533-.17-1.216-.256-2.048-.256h-.672v3.84c0 .597.016 1.19.048 1.776.032.587.101 1.179.208 1.776H88.64Zm7.648-17.792H94.88v5.952h1.472c1.323 0 2.24-.272 2.752-.816.512-.544.768-1.275.768-2.192 0-.939-.272-1.664-.816-2.176-.544-.512-1.467-.768-2.768-.768ZM109.632 138c.128-1.195.192-2.379.192-3.552v-15.616c0-1.152-.064-2.336-.192-3.552h6.496a33.933 33.933 0 0 0-.192 3.552v15.616c0 1.173.064 2.357.192 3.552h-6.496Zm9.984 0c.107-.597.181-1.19.224-1.776a48.2 48.2 0 0 0 .096-1.776l.576-15.008a13.405 13.405 0 0 0-.448-4.16h7.264l5.248 12.192 5.28-12.192h6.88a11.213 11.213 0 0 0-.368 2.032c-.053.65-.059 1.36-.016 2.128l.544 15.008c.021.597.059 1.19.112 1.776.053.587.123 1.179.208 1.776h-6.304c.107-.597.16-1.19.16-1.776 0-.587-.01-1.179-.032-1.776l-.448-9.92-6.336 13.696h-.064l-6.304-13.632-.448 9.856a31.492 31.492 0 0 0-.016 1.728 23.8 23.8 0 0 0 .112 1.824h-5.92Zm29.088 0c.128-1.195.192-2.379.192-3.552v-15.616c0-1.152-.064-2.336-.192-3.552h14.56l.256 5.184a17.92 17.92 0 0 0-2.016-.208 43.058 43.058 0 0 0-2.016-.048h-4.544v3.936h3.584c.597 0 1.173-.016 1.728-.048.555-.032 1.13-.09 1.728-.176v4.736a16.793 16.793 0 0 0-1.728-.16 45.003 45.003 0 0 0-1.728-.032h-3.584v4.608h4.544a38.475 38.475 0 0 0 4.352-.256l-.256 5.184h-14.88Zm30.72.384c-1.045 0-1.99-.037-2.832-.112a24.41 24.41 0 0 1-2.8-.432l-.32-5.472c1.152.32 2.133.533 2.944.64.81.107 1.653.16 2.528.16 1.387 0 2.31-.155 2.768-.464.459-.31.688-.72.688-1.232 0-.384-.16-.757-.48-1.12-.32-.363-.917-.779-1.792-1.248l-2.144-1.088c-1.685-.875-2.923-1.861-3.712-2.96-.79-1.099-1.184-2.384-1.184-3.856 0-1.963.741-3.504 2.224-4.624 1.483-1.12 3.675-1.68 6.576-1.68 1.003 0 1.867.048 2.592.144.725.096 1.61.272 2.656.528l.352 5.536c-1.045-.363-2.005-.613-2.88-.752a17.566 17.566 0 0 0-2.752-.208c-1.11 0-1.856.139-2.24.416-.384.277-.576.63-.576 1.056 0 .384.144.747.432 1.088.288.341.827.725 1.616 1.152l2.144 1.152c1.792.939 3.099 1.957 3.92 3.056.821 1.099 1.232 2.405 1.232 3.92 0 2.027-.699 3.6-2.096 4.72-1.397 1.12-3.685 1.68-6.864 1.68Zm23.616 0c-2.368 0-4.496-.432-6.384-1.296a10.151 10.151 0 0 1-4.48-3.936c-1.099-1.76-1.648-3.973-1.648-6.64 0-1.963.32-3.67.96-5.12.64-1.45 1.53-2.656 2.672-3.616 1.141-.96 2.459-1.68 3.952-2.16 1.493-.48 3.083-.72 4.768-.72.725 0 1.413.037 2.064.112.65.075 1.253.176 1.808.304l.352 5.824a8.16 8.16 0 0 0-1.808-.544 11.2 11.2 0 0 0-1.936-.16c-1.941 0-3.499.507-4.672 1.52-1.173 1.013-1.76 2.533-1.76 4.56 0 2.07.597 3.643 1.792 4.72s2.859 1.616 4.992 1.616c.683 0 1.307-.037 1.872-.112a10.282 10.282 0 0 0 1.68-.368l-.16 5.6c-.683.15-1.36.256-2.032.32a21.42 21.42 0 0 1-2.032.096Zm7.36-.384c.128-1.195.192-2.379.192-3.552v-15.616c0-1.152-.064-2.336-.192-3.552h14.56l.256 5.184a17.92 17.92 0 0 0-2.016-.208 43.058 43.058 0 0 0-2.016-.048h-4.544v3.936h3.584c.597 0 1.173-.016 1.728-.048.555-.032 1.13-.09 1.728-.176v4.736a16.793 16.793 0 0 0-1.728-.16 45.003 45.003 0 0 0-1.728-.032h-3.584v4.608h4.544a38.475 38.475 0 0 0 4.352-.256L225.28 138H210.4Zm18.208 0c.085-.597.139-1.19.16-1.776.021-.587.032-1.179.032-1.776V119.44c0-.79-.08-1.493-.24-2.112-.16-.619-.464-1.301-.912-2.048h7.072l8.032 12.32v-8.768c0-.597-.01-1.19-.032-1.776a16.893 16.893 0 0 0-.16-1.776h6.112c-.085.597-.144 1.19-.176 1.776a32.604 32.604 0 0 0-.048 1.776V138h-5.12l-8.832-13.216v9.664c0 .597.01 1.19.032 1.776.021.587.075 1.179.16 1.776h-6.08Zm23.68 0c.128-1.195.192-2.379.192-3.552v-15.616c0-1.152-.064-2.336-.192-3.552h14.56l.256 5.184a17.92 17.92 0 0 0-2.016-.208 43.058 43.058 0 0 0-2.016-.048h-4.544v3.936h3.584c.597 0 1.173-.016 1.728-.048.555-.032 1.13-.09 1.728-.176v4.736a16.793 16.793 0 0 0-1.728-.16 45.003 45.003 0 0 0-1.728-.032h-3.584v4.608h4.544a38.475 38.475 0 0 0 4.352-.256l-.256 5.184h-14.88Z"/></svg>