<svg xmlns="http://www.w3.org/2000/svg" viewBox="0 0 180 510" style="max-width:180px;">

<g fill="none" fill-rule="evenodd">

<path fill="#EC9C00" d="M46.537 296.143h87.929V281.68H46.537z"/>

<path fill="#2C2C2F" d="M91.96 632h-3.3c-85.804-.348-93.142-107.646-81.2-146.73 5.08-16.565 10.811-38.695 15.371-61.519 6.21-31.043 10.248-63.387 7.425-84.692-.825-6.129-1.042-11.39-.912-15.912.782-22.824 11.768-26.998 11.768-26.998h98.786s10.986 4.174 11.766 26.998c.132 4.523-.087 9.783-.91 15.912-4.907 36.956 10.855 107.081 22.795 146.21C185.491 524.397 178.11 632 91.96 632"/>

<path fill="#2C2C2F" d="M91.579 632h-2.44c-63.427-.348-68.852-107.646-60.024-146.73 3.754-16.565 7.992-38.695 11.362-61.519 4.59-31.043 7.576-63.387 5.489-84.692-.61-6.129-.77-11.39-.674-15.912.578-22.824 8.698-26.998 8.698-26.998h73.026s8.122 4.174 8.699 26.998c.097 4.523-.065 9.783-.675 15.912-3.627 36.956 8.026 107.081 16.853 146.21C160.72 524.397 155.264 632 91.58 632"/>

<path fill="#EC9C00" d="M173.506 485.27c-5.08-16.565-10.812-38.694-15.37-61.52-30.05 15.695-37.474 49.347-23.796 95.3 4.75 15.964 2.247 28.849-3.438 39.022-17.335 31.02-63.503 31.02-80.838 0-5.685-10.173-8.187-23.058-3.437-39.021 13.677-45.954 6.252-79.606-23.796-95.3-4.56 22.825-10.291 44.954-15.372 61.518C-4.48 524.353 2.857 631.653 88.66 632H92.307c85.803-.346 93.142-107.646 81.2-146.73"/>

<path fill="#6D6D6F" d="M151.665 323.148a115.936 115.936 0 0 0-122.32 0c.782-22.824 11.768-26.999 11.768-26.999h98.785s10.986 4.175 11.767 26.999"/>

<path fill="#FFF" d="M45.122 485.27c2.776-16.565 5.908-38.694 8.4-61.52 3.393-31.04 5.6-63.386 4.057-84.69-.451-6.13-.57-11.39-.498-15.912.427-22.825 6.43-26.998 6.43-26.998h-9.52s-8.122 4.173-8.699 26.998c-.097 4.521.065 9.782.675 15.912 2.085 21.304-.9 53.65-5.49 84.69-3.37 22.826-7.607 44.955-11.363 61.52C20.287 524.352 25.71 631.652 89.139 632h.355c-46.888-.347-50.898-107.647-44.372-146.73m106.77 0c-8.826-39.129-20.479-109.255-16.85-146.21.608-6.13.77-11.39.672-15.912-.576-22.825-8.698-26.998-8.698-26.998h-9.522s6.003 4.173 6.43 26.998c.072 4.521-.047 9.782-.498 15.912-2.681 36.955 5.932 107.081 12.458 146.21C142.41 524.396 138.375 632 91.297 632h.282c63.685 0 69.141-107.603 60.314-146.73" opacity=".302"/>

<path fill="#40343E" d="M71.478 281.68h37.995V136.036H71.478z"/>

<path fill="#7D757C" d="m114.54 76.606-5.081 59.432H71.464l-4.95-58.649c-.043-.522-.087-.783-.087-.783s9.38-30.694 20.843-35.824c1.042-.521 2.127-.782 3.213-.782 12.853 0 24.056 36.606 24.056 36.606"/>

<path fill="#40343E" d="m87.27 40.782-1.217 16.26s-1.489 30.513-6.711 50.372c-.802 3.052-5.06 3.315-6.179.364-3.817-10.066-6.15-26.593-6.649-30.39a10.67 10.67 0 0 0-.087-.781s9.38-30.695 20.843-35.825m6.426 0 1.217 16.26s1.489 30.513 6.712 50.372c.803 3.052 5.059 3.315 6.178.364 3.817-10.066 6.15-26.593 6.649-30.39.043-.522.087-.781.087-.781s-9.38-30.695-20.843-35.825"/>

<path fill="#2F222D" d="M71.479 281.68v-40.603s19.214 18.205 37.995 0v40.603H71.479Z"/>

<path fill="#AAA5A9" d="M71.478 139.86h37.995v-3.822H71.478z"/>

<path fill="#FFF" d="M79.812 136.037h.01v145.644h10.32V136.037h-.003l-1.22-58.648c-.01-.522-.022-.783-.022-.783l-9.085 59.431Z" opacity=".298"/>

<path fill="#FFBA1B" d="M93.099 387.55a2.44 2.44 0 0 1-2.433 2.44 2.44 2.44 0 0 1-2.432-2.44 2.44 2.44 0 0 1 2.432-2.44 2.44 2.44 0 0 1 2.433 2.44m-9.928-4.041a8.505 8.505 0 0 0-1.017 4.042c0 .46.046.907.117 1.348a7.316 7.316 0 0 1 5.945 6.826 8.43 8.43 0 0 0 4.9 0 7.316 7.316 0 0 1 5.946-6.826c.07-.44.117-.889.117-1.348 0-1.46-.369-2.838-1.017-4.042a34.473 34.473 0 0 0-14.991 0"/>

<path fill="#FFBA1B" d="M90.666 397.31c-5.364 0-9.728-4.378-9.728-9.76 0-5.38 4.364-9.759 9.728-9.759 5.365 0 9.729 4.379 9.729 9.76 0 5.38-4.364 9.759-9.729 9.759m-14.592-9.76c0 8.073 6.546 14.64 14.592 14.64 8.047 0 14.593-6.567 14.593-14.64 0-8.072-6.546-14.638-14.593-14.638-8.046 0-14.592 6.566-14.592 14.639Z"/></g></svg>