<svg xmlns="http://www.w3.org/2000/svg" xmlns:xlink="http://www.w3.org/1999/xlink" width="420" viewBox="0 0 360 255"><defs><path id="a" d="M0 0h192v254H0z"/></defs><g fill="none" fill-rule="evenodd"><path fill="#243A4A" fill-rule="nonzero" d="M17.02 155.968c-4.416 0-7.866-1.18-10.35-3.542-2.484-2.361-3.726-5.811-3.726-10.35v-36.064c0-4.539 1.242-7.989 3.726-10.35 2.484-2.361 5.934-3.542 10.35-3.542h11.868c4.416 0 7.881 1.18 10.396 3.542 2.515 2.361 3.772 5.811 3.772 10.35v12.88H26.588v-11.684c0-2.453-1.104-3.68-3.312-3.68h-.46c-2.147 0-3.22 1.227-3.22 3.68v33.672c0 2.453 1.073 3.68 3.22 3.68h.552c2.147 0 3.22-1.227 3.22-3.68v-11.684h16.468v12.88c0 4.539-1.257 7.989-3.772 10.35-2.515 2.361-5.98 3.542-10.396 3.542H17.02Zm46.484-63.204v50.232h14.904l-.001 10.195L90.76 92.764h19.228l12.788 62.56H105.48l-1.656-10.304H92.6l-1.564 10.304H46.852v-62.56h16.652Zm71.532 0 3.128 37.26 5.52-37.26h14.444l5.612 37.444 3.036-37.444h13.248l-8.004 62.56h-18.86l-4.692-32.844-4.784 32.844h-18.032l-8.096-62.56h17.48Zm-36.824 17.112-3.864 24.38h7.728l-3.864-24.38Zm-94.9 115.448v-62.56h16.652v24.104h7.544v-24.104H44.16v62.56H27.508V198.92h-7.544v26.404H3.312Zm42.436 0 12.788-62.56h19.228l12.788 62.56H73.256L71.6 215.02H60.376l-1.564 10.304H45.748Zm16.376-21.068h7.728l-3.864-24.38-3.864 24.38Zm30.108 21.068v-62.56h21.62l5.796 32.568 6.072-32.568h20.792v62.56h-15.088v-37.26l-7.268 37.26H110.54l-7.176-37.628v37.628H92.232Zm58.904 0v-62.56h21.62l5.796 32.568 6.072-32.568h20.792v62.56h-15.088v-37.26l-7.268 37.26h-13.616l-7.176-37.628v37.628h-11.132Zm58.904 0v-62.56h33.12v11.868h-16.468v12.88h14.72v11.776h-14.72v14.076h17.388v11.96h-34.04Zm37.008 0v-62.56h26.68c4.416 0 7.866 1.165 10.35 3.496 2.484 2.33 3.726 5.735 3.726 10.212v12.788c0 5.213-1.717 9.016-5.152 11.408l7.084 24.656H272.44l-5.06-22.264h-3.68v22.264h-16.652Zm20.884-51.152H263.7v17.664h4.232c2.147 0 3.22-1.196 3.22-3.588V177.76c0-2.392-1.073-3.588-3.22-3.588ZM126.696 72v-1.44c.256-.272.428-.592.516-.96.088-.368.132-.808.132-1.32v-3.072h-1.128v-1.632h1.128v-5.328c0-.896.232-1.568.696-2.016.464-.448 1.112-.672 1.944-.672h.888c.832 0 1.48.224 1.944.672.464.448.696 1.12.696 2.016v3.192h-1.92v-3.12c0-.416-.092-.712-.276-.888-.184-.176-.444-.264-.78-.264h-.24c-.32 0-.576.088-.768.264-.192.176-.288.472-.288.888v5.256h2.88v1.632h-2.88v3.168c0 .896-.232 1.56-.696 1.992h5.208V72h-7.056Zm12.072-16.44c.864 0 1.532.232 2.004.696.472.464.708 1.152.708 2.064v11.04c0 .912-.24 1.6-.72 2.064-.48.464-1.144.696-1.992.696h-.888c-.864 0-1.536-.232-2.016-.696-.48-.464-.72-1.152-.72-2.064v-2.376h1.944v2.304c0 .432.096.744.288.936.192.192.464.288.816.288h.264c.336 0 .604-.096.804-.288.2-.192.3-.504.3-.936v-4.944l-.576.336c-.528.32-.948.548-1.26.684a2.25 2.25 0 0 1-.9.204c-.576 0-1.028-.204-1.356-.612-.328-.408-.492-.98-.492-1.716v-4.92c0-.928.24-1.62.72-2.076.48-.456 1.152-.684 2.016-.684h1.056Zm-1.848 7.224c0 .64.232.96.696.96.288 0 .632-.088 1.032-.264l.912-.36v-4.728c0-.432-.1-.744-.3-.936-.2-.192-.468-.288-.804-.288h-.432c-.736 0-1.104.408-1.104 1.224v4.392ZM143.304 72v-2.592h1.992V72h-1.992Zm7.44-16.44c.864 0 1.532.232 2.004.696.472.464.708 1.152.708 2.064v11.04c0 .912-.24 1.6-.72 2.064-.48.464-1.144.696-1.992.696h-.888c-.864 0-1.536-.232-2.016-.696-.48-.464-.72-1.152-.72-2.064v-2.376h1.944v2.304c0 .432.096.744.288.936.192.192.464.288.816.288h.264c.336 0 .604-.096.804-.288.2-.192.3-.504.3-.936v-4.944l-.576.336c-.528.32-.948.548-1.26.684a2.25 2.25 0 0 1-.9.204c-.576 0-1.028-.204-1.356-.612-.328-.408-.492-.98-.492-1.716v-4.92c0-.928.24-1.62.72-2.076.48-.456 1.152-.684 2.016-.684h1.056Zm-1.848 7.224c0 .64.232.96.696.96.288 0 .632-.088 1.032-.264l.912-.36v-4.728c0-.432-.1-.744-.3-.936-.2-.192-.468-.288-.804-.288H150c-.736 0-1.104.408-1.104 1.224v4.392Zm10.056-7.224c.864 0 1.532.232 2.004.696.472.464.708 1.152.708 2.064v11.04c0 .912-.24 1.6-.72 2.064-.48.464-1.144.696-1.992.696h-.888c-.864 0-1.536-.232-2.016-.696-.48-.464-.72-1.152-.72-2.064v-2.376h1.944v2.304c0 .432.096.744.288.936.192.192.464.288.816.288h.264c.336 0 .604-.096.804-.288.2-.192.3-.504.3-.936v-4.944l-.576.336c-.528.32-.948.548-1.26.684a2.25 2.25 0 0 1-.9.204c-.576 0-1.028-.204-1.356-.612-.328-.408-.492-.98-.492-1.716v-4.92c0-.928.24-1.62.72-2.076.48-.456 1.152-.684 2.016-.684h1.056Zm-1.848 7.224c0 .64.232.96.696.96.288 0 .632-.088 1.032-.264l.912-.36v-4.728c0-.432-.1-.744-.3-.936-.2-.192-.468-.288-.804-.288h-.432c-.736 0-1.104.408-1.104 1.224v4.392ZM1.032 72V55.68h1.944v6.912h2.592V55.68h1.944V72H5.568v-7.704H2.976V72H1.032Zm7.704 0 2.592-16.32h2.4L16.32 72h-2.064l-.48-3.504H11.04L10.56 72H8.736Zm2.52-5.16h2.28l-1.128-8.28-1.152 8.28ZM17.544 72V55.68h2.28l2.832 12.288V55.68h1.56V72h-2.28l-2.832-12.24V72h-1.56Zm8.736 0V55.68h3.744c.848 0 1.512.228 1.992.684.48.456.72 1.156.72 2.1v10.752c0 .944-.24 1.644-.72 2.1-.48.456-1.144.684-1.992.684H26.28Zm3.384-14.664h-1.44v13.008h1.44c.352 0 .624-.096.816-.288.192-.192.288-.504.288-.936V58.56c0-.432-.096-.744-.288-.936-.192-.192-.464-.288-.816-.288ZM38.832 72V57.384H36.48V55.68h6.648v1.704h-2.352V72h-1.944Zm8.16.12c-.832 0-1.492-.228-1.98-.684-.488-.456-.732-1.148-.732-2.076V58.32c0-.928.244-1.62.732-2.076.488-.456 1.148-.684 1.98-.684h1.176c.832 0 1.488.228 1.968.684.48.456.72 1.148.72 2.076v11.04c0 .928-.24 1.62-.72 2.076-.48.456-1.136.684-1.968.684h-1.176Zm.36-1.656h.456c.336 0 .604-.096.804-.288.2-.192.3-.504.3-.936v-10.8c0-.432-.1-.744-.3-.936-.2-.192-.468-.288-.804-.288h-.456c-.336 0-.604.096-.804.288-.2.192-.3.504-.3.936v10.8c0 .432.1.744.3.936.2.192.468.288.804.288Zm8.064 1.656c-.832 0-1.492-.228-1.98-.684-.488-.456-.732-1.148-.732-2.076V58.32c0-.928.244-1.62.732-2.076.488-.456 1.148-.684 1.98-.684h1.176c.832 0 1.488.228 1.968.684.48.456.72 1.148.72 2.076v11.04c0 .928-.24 1.62-.72 2.076-.48.456-1.136.684-1.968.684h-1.176Zm.36-1.656h.456c.336 0 .604-.096.804-.288.2-.192.3-.504.3-.936v-10.8c0-.432-.1-.744-.3-.936-.2-.192-.468-.288-.804-.288h-.456c-.336 0-.604.096-.804.288-.2.192-.3.504-.3.936v10.8c0 .432.1.744.3.936.2.192.468.288.804.288ZM61.248 72V55.68h1.944v14.616h3.12V72h-5.064Zm9.12.12c-.848 0-1.512-.232-1.992-.696-.48-.464-.72-1.152-.72-2.064v-3.6H69.6v3.48c0 .432.1.744.3.936.2.192.468.288.804.288h.432c.336 0 .604-.096.804-.288.2-.192.3-.504.3-.936v-2.664c0-.464-.084-.832-.252-1.104-.168-.272-.476-.512-.924-.72l-1.464-.696c-.688-.32-1.184-.732-1.488-1.236-.304-.504-.456-1.172-.456-2.004V58.32c0-.928.24-1.62.72-2.076.48-.456 1.144-.684 1.992-.684h1.104c.848 0 1.512.228 1.992.684.48.456.72 1.148.72 2.076v3.096H72.24V58.44c0-.432-.1-.744-.3-.936-.2-.192-.468-.288-.804-.288h-.432c-.304 0-.564.096-.78.288-.216.192-.324.504-.324.936v2.136c0 .48.088.848.264 1.104.176.256.48.488.912.696l1.44.672c.704.336 1.208.748 1.512 1.236.304.488.456 1.148.456 1.98v3.096c0 .912-.24 1.6-.72 2.064-.48.464-1.144.696-1.992.696h-1.104Z"/><g transform="translate(228 1)"><mask id="b" fill="#fff"><use xlink:href="#a"/></mask><g mask="url(#b)"><path fill="#CC1441" d="M317.32 374.057c.498 1.19.934 2.337 1.398 3.468 7.953 20.19 15.307 36.79 21.813 50.285.506 1.071 1.021 2.096 1.494 3.11a682.916 682.916 0 0 0 6.13 12.125c3.332 6.36 6.31 11.715 8.911 16.154l.082.142c5.938 10.154 1.141 23.97-10.708 30.812-5.896 3.404-12.449 4.425-18.25 3.348-5.788-1.123-10.851-4.328-13.783-9.407L157.678 212.633a314.133 314.133 0 0 1-7.071-12.905c-1.013-1.95-1.997-3.916-2.982-5.883a284.5 284.5 0 0 1-3.947-8.277l-4.588-9.91-29.08-63.002-7.695-16.667-5.133-24.996-.661-3.174 4.572.916 36.003 7.173 25.08 39.772 20.761 32.884a365.078 365.078 0 0 0 13.457 19.773c.4.563.834 1.183 1.329 1.843 1.157 1.678 2.535 3.606 4.064 5.863 10.63 15.466 29.46 44.281 49.276 76.575 4.425 7.207 8.92 14.6 13.33 22.04 21.426 35.868 42.07 73.132 52.928 99.4"/><path fill="#A61035" d="M162.175 115.68c-35.627-32.774-52.164-3.024-52.164-3.024l-7.696-16.667-5.133-24.996 3.912-2.258 36.002 7.173 25.08 39.772Z"/><path fill="#26282C" d="M314.814 442.772c-10.616-5.032-16.118-16.723-20.375-27.696-18.612-48.275-29.811-102.304-66.747-138.522-8.22-9.329-34.863-30.796-50.486-30.099l137.2 237.638c2.934 5.08 7.996 8.285 13.785 9.408 5.8 1.078 12.353.056 18.249-3.348 11.849-6.84 16.646-20.658 10.708-30.812-2.616-4.467-5.628-9.88-8.993-16.297-11.492 1.83-23.132 4.579-33.341-.272"/><path fill="#373739" d="m73.245 108.72-36.6 33.943L-.038 79.125l47.694-14.726z"/><path fill="#1C1C1E" d="M87.583 92.832c-8.01 2.314-10.464 6.413-16.47 12.195L49.789 68.093c8.007-2.315 12.787-2.387 18.796-8.167l18.998 32.906Z"/><path fill="#26282C" d="M262.537 24.52c-2.02-.423-34.618-7.329-70.73-2.256-15.576 2.22-29.675 12.1-37.97 25.1-3.51 5.507-10.387 9.175-10.387 9.175l-5.267 19.157-36.765 21.226-13.842-4.076-19.004-32.915L72.81 42.92s107.56-81.509 189.634-18.497c.061.04.078.069.094.097"/><path fill="#373739" d="m87.583 92.832 13.835 4.1.965-.557-.068-.386s-.91-26.338-29.494-53.058l-4.236 16.995 18.998 32.906Z"/><path fill="#2E2E31" d="M262.443 24.422c-4.118-2.616-75.492-45.851-182.194 26.08-3.243 10.159-8.024 15.757-8.024 15.757l-3.653-6.328 4.237-17.012S180.37-38.59 262.443 24.422"/><path fill="#FFF" d="M251.673 18.913c-25.545-11.381-55.534-12.184-83.488-7.806-23.16 5.089-12.072 2.582-23.585 5.935-6.905 2.15-5.03 1.566-8.72 2.717-3.643 1.472-.855.342-14.102 5.72-3.832 1.385-7.397 3.327-11.039 5.12-13.743 6.859-6.776 2.787-32.324 17.932-.092.253-3.21 12.552-6.19 17.728 4.046-3.928 7.136-8.553 9.745-13.762 19.683-12.84 24.954-16.99 52.174-28.783 3.389-1.462 2.11-.972 5.604-2.147 17.162-5.773 10.3-3.785 28.846-8.305 13.404-2.409 28.257-4.047 41.891-3.064 6.493.619 24.25 1.92 41.082 8.968 3.74 1.49 7.398 3.211 10.876 5.256-3.43-2.122-7.057-3.93-10.77-5.509" opacity=".25"/><path fill="#3D3D40" d="m17.29 109.14 42.48-23.758-9.254-16.03L4.06 86.224z"/><path fill="#FFF" d="M13.103 101.886 57.33 81.154l-4.135-7.162-45.71 18.163z" opacity=".25"/><path fill="#1C1C1E" d="m143.45 56.538-5.266 19.158-36.086 20.834c.077-.195.14-.347.218-.541 13.368-33.143 41.134-39.45 41.134-39.45"/></g></g></g></svg>