<svg xmlns="http://www.w3.org/2000/svg" xmlns:xlink="http://www.w3.org/1999/xlink" width="420" viewBox="0 0 420 255"><defs><path id="c" d="M0 0h68.824v321.094H0z"/><path id="a" d="M0 0h73v250H0z"/></defs><g fill="none" fill-rule="evenodd"><path fill="#243A4A" fill-rule="nonzero" d="M305.696 213v-1.44c.256-.272.428-.592.516-.96.088-.368.132-.808.132-1.32v-3.072h-1.128v-1.632h1.128v-5.328c0-.896.232-1.568.696-2.016.464-.448 1.112-.672 1.944-.672h.888c.832 0 1.48.224 1.944.672.464.448.696 1.12.696 2.016v3.192h-1.92v-3.12c0-.416-.092-.712-.276-.888-.184-.176-.444-.264-.78-.264h-.24c-.32 0-.576.088-.768.264-.192.176-.288.472-.288.888v5.256h2.88v1.632h-2.88v3.168c0 .896-.232 1.56-.696 1.992h5.208V213h-7.056Zm8.448 0v-1.776h2.112V198.6l-2.112.648v-1.776l2.472-.792h1.584v14.544h2.088V213h-6.144Zm11.208-16.44c.864 0 1.532.232 2.004.696.472.464.708 1.152.708 2.064v11.04c0 .912-.24 1.6-.72 2.064-.48.464-1.144.696-1.992.696h-.888c-.864 0-1.536-.232-2.016-.696-.48-.464-.72-1.152-.72-2.064v-2.376h1.944v2.304c0 .432.096.744.288.936.192.192.464.288.816.288h.264c.336 0 .604-.096.804-.288.2-.192.3-.504.3-.936v-4.944l-.576.336c-.528.32-.948.548-1.26.684a2.25 2.25 0 0 1-.9.204c-.576 0-1.028-.204-1.356-.612-.328-.408-.492-.98-.492-1.716v-4.92c0-.928.24-1.62.72-2.076.48-.456 1.152-.684 2.016-.684h1.056Zm-1.848 7.224c0 .64.232.96.696.96.288 0 .632-.088 1.032-.264l.912-.36v-4.728c0-.432-.1-.744-.3-.936-.2-.192-.468-.288-.804-.288h-.432c-.736 0-1.104.408-1.104 1.224v4.392Zm6.384 9.216v-2.592h1.992V213h-1.992Zm7.44-16.44c.864 0 1.532.232 2.004.696.472.464.708 1.152.708 2.064v11.04c0 .912-.24 1.6-.72 2.064-.48.464-1.144.696-1.992.696h-.888c-.864 0-1.536-.232-2.016-.696-.48-.464-.72-1.152-.72-2.064v-2.376h1.944v2.304c0 .432.096.744.288.936.192.192.464.288.816.288h.264c.336 0 .604-.096.804-.288.2-.192.3-.504.3-.936v-4.944l-.576.336c-.528.32-.948.548-1.26.684a2.25 2.25 0 0 1-.9.204c-.576 0-1.028-.204-1.356-.612-.328-.408-.492-.98-.492-1.716v-4.92c0-.928.24-1.62.72-2.076.48-.456 1.152-.684 2.016-.684h1.056Zm-1.848 7.224c0 .64.232.96.696.96.288 0 .632-.088 1.032-.264l.912-.36v-4.728c0-.432-.1-.744-.3-.936-.2-.192-.468-.288-.804-.288h-.432c-.736 0-1.104.408-1.104 1.224v4.392Zm10.056-7.224c.864 0 1.532.232 2.004.696.472.464.708 1.152.708 2.064v11.04c0 .912-.24 1.6-.72 2.064-.48.464-1.144.696-1.992.696h-.888c-.864 0-1.536-.232-2.016-.696-.48-.464-.72-1.152-.72-2.064v-2.376h1.944v2.304c0 .432.096.744.288.936.192.192.464.288.816.288h.264c.336 0 .604-.096.804-.288.2-.192.3-.504.3-.936v-4.944l-.576.336c-.528.32-.948.548-1.26.684a2.25 2.25 0 0 1-.9.204c-.576 0-1.028-.204-1.356-.612-.328-.408-.492-.98-.492-1.716v-4.92c0-.928.24-1.62.72-2.076.48-.456 1.152-.684 2.016-.684h1.056Zm-1.848 7.224c0 .64.232.96.696.96.288 0 .632-.088 1.032-.264l.912-.36v-4.728c0-.432-.1-.744-.3-.936-.2-.192-.468-.288-.804-.288h-.432c-.736 0-1.104.408-1.104 1.224v4.392ZM45.032 213v-16.32h1.944v6.912h2.592v-6.912h1.944V213h-1.944v-7.704h-2.592V213h-1.944Zm7.704 0 2.592-16.32h2.4L60.32 213h-2.064l-.48-3.504H55.04L54.56 213h-1.824Zm2.52-5.16h2.28l-1.128-8.28-1.152 8.28Zm6.288 5.16v-16.32h2.28l2.832 12.288V196.68h1.56V213h-2.28l-2.832-12.24V213h-1.56Zm8.736 0v-16.32h3.744c.848 0 1.512.228 1.992.684.48.456.72 1.156.72 2.1v10.752c0 .944-.24 1.644-.72 2.1-.48.456-1.144.684-1.992.684H70.28Zm3.384-14.664h-1.44v13.008h1.44c.352 0 .624-.096.816-.288.192-.192.288-.504.288-.936v-10.56c0-.432-.096-.744-.288-.936-.192-.192-.464-.288-.816-.288ZM82.832 213v-14.616H80.48v-1.704h6.648v1.704h-2.352V213h-1.944Zm8.16.12c-.832 0-1.492-.228-1.98-.684-.488-.456-.732-1.148-.732-2.076v-11.04c0-.928.244-1.62.732-2.076.488-.456 1.148-.684 1.98-.684h1.176c.832 0 1.488.228 1.968.684.48.456.72 1.148.72 2.076v11.04c0 .928-.24 1.62-.72 2.076-.48.456-1.136.684-1.968.684h-1.176Zm.36-1.656h.456c.336 0 .604-.096.804-.288.2-.192.3-.504.3-.936v-10.8c0-.432-.1-.744-.3-.936-.2-.192-.468-.288-.804-.288h-.456c-.336 0-.604.096-.804.288-.2.192-.3.504-.3.936v10.8c0 .432.1.744.3.936.2.192.468.288.804.288Zm8.064 1.656c-.832 0-1.492-.228-1.98-.684-.488-.456-.732-1.148-.732-2.076v-11.04c0-.928.244-1.62.732-2.076.488-.456 1.148-.684 1.98-.684h1.176c.832 0 1.488.228 1.968.684.48.456.72 1.148.72 2.076v11.04c0 .928-.24 1.62-.72 2.076-.48.456-1.136.684-1.968.684h-1.176Zm.36-1.656h.456c.336 0 .604-.096.804-.288.2-.192.3-.504.3-.936v-10.8c0-.432-.1-.744-.3-.936-.2-.192-.468-.288-.804-.288h-.456c-.336 0-.604.096-.804.288-.2.192-.3.504-.3.936v10.8c0 .432.1.744.3.936.2.192.468.288.804.288Zm5.472 1.536v-16.32h1.944v14.616h3.12V213h-5.064Zm9.12.12c-.848 0-1.512-.232-1.992-.696-.48-.464-.72-1.152-.72-2.064v-3.6h1.944v3.48c0 .432.1.744.3.936.2.192.468.288.804.288h.432c.336 0 .604-.096.804-.288.2-.192.3-.504.3-.936v-2.664c0-.464-.084-.832-.252-1.104-.168-.272-.476-.512-.924-.72l-1.464-.696c-.688-.32-1.184-.732-1.488-1.236-.304-.504-.456-1.172-.456-2.004v-2.496c0-.928.24-1.62.72-2.076.48-.456 1.144-.684 1.992-.684h1.104c.848 0 1.512.228 1.992.684.48.456.72 1.148.72 2.076v3.096h-1.944v-2.976c0-.432-.1-.744-.3-.936-.2-.192-.468-.288-.804-.288h-.432c-.304 0-.564.096-.78.288-.216.192-.324.504-.324.936v2.136c0 .48.088.848.264 1.104.176.256.48.488.912.696l1.44.672c.704.336 1.208.748 1.512 1.236.304.488.456 1.148.456 1.98v3.096c0 .912-.24 1.6-.72 2.064-.48.464-1.144.696-1.992.696h-1.104Z"/><path fill="#BA0D37" fill-rule="nonzero" d="M33.718 125.046v-11.602l19.494-30.737c1.595-2.551 2.771-4.844 3.529-6.877.757-2.033 1.136-4.604 1.136-7.714v-8.372c0-3.508-1.595-5.262-4.784-5.262h-.718c-3.19 0-4.784 1.754-4.784 5.262v15.19H33V58.786c0-5.103 1.395-9.01 4.186-11.72C39.976 44.354 43.844 43 48.787 43h7.655c5.182 0 9.149 1.355 11.9 4.066 2.75 2.711 4.126 6.618 4.126 11.721v9.329c0 3.349-.319 6.24-.957 8.671a31.218 31.218 0 0 1-2.69 6.877 110.671 110.671 0 0 1-4.007 6.817L50.94 112.368h22.246v12.678H33.718Zm63.746.717c-5.023 0-8.95-1.335-11.78-4.006-2.83-2.671-4.246-6.598-4.246-11.781V96.94h14.591v11.84c0 3.668 1.595 5.502 4.784 5.502h1.196c3.19 0 4.784-1.794 4.784-5.382V91.677c0-3.428-1.196-5.143-3.588-5.143-.957 0-1.854.18-2.69.539-.838.358-2.014.936-3.529 1.734l-3.11 1.555h-11.72l1.913-46.644h36.359v12.677H97.225l-.957 23.92 1.675-1.196c2.79-1.993 5.083-3.488 6.877-4.485 1.794-.996 3.847-1.495 6.16-1.495 3.428 0 6.02 1.156 7.773 3.469 1.754 2.312 2.631 5.66 2.631 10.046v23.322c0 5.183-1.415 9.11-4.245 11.78-2.83 2.672-6.758 4.007-11.781 4.007h-7.894Zm-36.38 31.76v-21.76h5.44l2.048 14.112 2.176-14.112h5.344v21.76h-3.584V142.1l-2.496 15.424h-3.52l-2.496-15.552v15.552h-2.912Zm17.568 0v-21.76h5.44l2.048 14.112 2.176-14.112h5.344v21.76h-3.584V142.1l-2.496 15.424h-3.52l-2.496-15.552v15.552h-2.912Zm183.606-84.598V29h13.43c2.754 0 4.863.732 6.327 2.196 1.463 1.464 2.195 3.553 2.195 6.266v6.072c0 3.057-1.464 5.038-4.39 5.943 3.012.904 4.519 2.95 4.519 6.136v8.85c0 2.67-.732 4.748-2.195 6.233-1.464 1.486-3.573 2.229-6.327 2.229h-13.559Zm11.363-37.66h-3.357V46.7h3.486c.775 0 1.4-.226 1.873-.678.473-.452.71-1.217.71-2.293v-5.555c0-1.938-.904-2.907-2.712-2.907Zm.13 17.7h-3.487v13.694h3.357c1.808 0 2.712-.99 2.712-2.971v-7.752c0-1.98-.86-2.971-2.583-2.971Zm15.366 19.96V29h17.69v6.653h-9.685v11.37h8.587v6.652h-8.587v12.597h10.33v6.653h-18.335Zm27.31 0L309.002 29h8.587l4.39 32.233L326.37 29h7.231l-7.683 43.925h-9.49Zm20.079 0V29h17.69v6.653h-9.684v11.37h8.587v6.652h-8.587v12.597h10.33v6.653h-18.336Zm22.145 0V29h8.006v37.272h9.361v6.653h-17.367Zm-96.393 49.344V78.344h17.69v6.653h-9.684v11.369h8.587v6.653h-8.587v12.596h10.33v6.654h-18.336Zm22.145 0V78.344h13.559c2.668 0 4.756.721 6.262 2.164 1.507 1.442 2.26 3.563 2.26 6.362v26.872c0 2.8-.753 4.92-2.26 6.363-1.506 1.442-3.594 2.164-6.262 2.164h-13.559Zm11.493-37.466h-3.487v31.006h3.487c1.721 0 2.582-.947 2.582-2.842V87.71c0-1.938-.86-2.907-2.582-2.907Zm23.759 37.853c-2.626 0-4.702-.721-6.23-2.164-1.528-1.442-2.292-3.563-2.292-6.362V86.483c0-2.8.764-4.92 2.292-6.363 1.528-1.443 3.604-2.164 6.23-2.164h4.907c2.668 0 4.756.721 6.262 2.164 1.507 1.443 2.26 3.564 2.26 6.363v8.074h-8.006v-7.234c0-1.938-.86-2.907-2.582-2.907h-.775c-1.722 0-2.583.969-2.583 2.907v25.967c0 1.938.861 2.907 2.583 2.907h.775c.86 0 1.56-.237 2.098-.71.538-.475.807-1.207.807-2.197v-8.14h-3.486v-6.459h11.169v15.439c0 2.799-.753 4.92-2.26 6.362-1.506 1.443-3.594 2.164-6.262 2.164h-4.907Zm18.271-.387V78.344h17.69v6.653h-9.684v11.369h8.587v6.653h-8.587v12.596h10.33v6.654h-18.336Zm22.145 0V78.344h13.559c2.668 0 4.756.721 6.262 2.164 1.507 1.442 2.26 3.563 2.26 6.362v26.872c0 2.8-.753 4.92-2.26 6.363-1.506 1.442-3.594 2.164-6.262 2.164H360.07Zm11.493-37.466h-3.487v31.006h3.487c1.721 0 2.582-.947 2.582-2.842V87.71c0-1.938-.86-2.907-2.582-2.907ZM270.522 172c-2.625 0-4.702-.721-6.23-2.164-1.528-1.443-2.292-3.563-2.292-6.363v-27.646c0-2.8.753-4.92 2.26-6.363 1.506-1.443 3.594-2.164 6.262-2.164h4.584c2.669 0 4.756.721 6.263 2.164 1.506 1.443 2.26 3.563 2.26 6.363v9.366h-8.006v-8.527c0-1.938-.883-2.907-2.647-2.907h-.388c-1.721 0-2.582.97-2.582 2.907v25.968c0 1.938.86 2.906 2.582 2.906h.452c1.722 0 2.583-.968 2.583-2.906v-8.527h8.006v9.366c0 2.8-.754 4.92-2.26 6.363-1.507 1.443-3.594 2.164-6.263 2.164h-4.584Zm17.626-.388v-43.924h8.006v17.634h6.133v-17.634h8.006v43.924h-8.006v-19.637h-6.133v19.637h-8.006Zm27.31 0v-43.924h8.006v43.924h-8.006Zm21.758.388c-2.712 0-4.81-.743-6.295-2.229-1.485-1.485-2.227-3.585-2.227-6.298v-8.01h7.941v7.17c0 1.939.86 2.907 2.582 2.907h.969c1.636 0 2.453-.968 2.453-2.906v-4.974c0-1.077-.226-1.938-.678-2.584-.452-.646-1.216-1.184-2.292-1.615l-4.713-1.873c-2.238-.861-3.841-2.067-4.81-3.618-.968-1.55-1.452-3.638-1.452-6.265v-5.878c0-2.757.731-4.867 2.195-6.33 1.463-1.465 3.572-2.197 6.327-2.197h4.842c2.755 0 4.864.732 6.327 2.196 1.464 1.464 2.196 3.574 2.196 6.33v7.429h-7.942v-6.589c0-1.938-.86-2.907-2.582-2.907h-.84c-1.721 0-2.582.97-2.582 2.907v4.07c0 1.033.226 1.852.678 2.454.452.603 1.237 1.142 2.356 1.615l4.39 1.744c2.325.948 3.993 2.143 5.004 3.585 1.012 1.443 1.518 3.478 1.518 6.105v7.234c0 2.713-.732 4.813-2.196 6.298-1.463 1.486-3.572 2.229-6.327 2.229h-4.842Zm18.271-.388v-43.924h17.69v6.653h-9.684v11.369h8.587v6.653h-8.587v12.596h10.33v6.653h-18.336Zm22.146 0v-43.924h8.005v37.271H395v6.653h-17.367Z"/><g transform="translate(155 10)"><mask id="b" fill="#fff"><use xlink:href="#a"/></mask><g mask="url(#b)"><g transform="translate(1.588 -.384)"><mask id="d" fill="#fff"><use xlink:href="#c"/></mask><path fill="#7E8185" d="M68.824 0v204.528L56.866 216.43c-8.635 8.626-12.792 20.608-11.308 32.59l5.048 39.93 4.048 32.143-20.243-2.517-20.241 2.517 4.048-32.144 5.047-39.93c1.484-11.981-2.672-23.963-11.309-32.59l-3.832-3.827-1.35-1.337L0 204.528V0h68.824Z" mask="url(#d)"/></g><path fill="#BFBFC2" d="M9.529 14.064v198.18l-1.319-1.338-6.622-6.738V-.384z"/><path fill="#545659" d="M9.772 14.25h27.992V-.384H1.588z"/><path fill="#BFBFC2" d="M62.47 14.064v198.18l1.32-1.338 6.621-6.738V-.384z"/><path fill="#545659" d="M62.227 14.25H34.235V-.384h36.176z"/><path fill="#DBDBDD" d="M9.875 113.25c-.219-8.283-.346-16.567-.495-24.852l-.207-12.426-.134-12.425-.27-24.853-.073-12.426-.045-12.425-.004-1.178 1.228-.003 26.52-.09 13.259-.043 13.26.044 1.321.004-.004 1.266-.113 31.091-.058 15.547-.17 15.546-.17 15.547c-.067 5.182-.087 10.364-.197 15.546-.2 10.364-.331 20.729-.608 31.092-.28-10.363-.41-20.728-.61-31.092-.11-5.182-.13-10.364-.197-15.546l-.17-15.547-.169-15.546-.058-15.547-.112-31.091 1.316 1.269-13.261.044-13.26-.044-26.52-.09 1.224-1.18-.044 12.426-.074 12.426-.27 24.853-.133 12.425-.207 12.426c-.15 8.285-.277 16.57-.495 24.853"/></g></g></g></svg>