<svg xmlns="http://www.w3.org/2000/svg" xmlns:xlink="http://www.w3.org/1999/xlink" viewBox="0 0 1097 313">
<defs>
<filter id="b" width="111.1%" height="147.5%" x="-5.5%" y="-23.8%" filterUnits="objectBoundingBox">
<feMorphology in="SourceAlpha" operator="dilate" radius=".73" result="shadowSpreadOuter1"/>
<feOffset in="shadowSpreadOuter1" result="shadowOffsetOuter1"/>
<feGaussianBlur in="shadowOffsetOuter1" result="shadowBlurOuter1" stdDeviation="18.5"/>
<feComposite in="shadowBlurOuter1" in2="SourceAlpha" operator="out" result="shadowBlurOuter1"/>
<feColorMatrix in="shadowBlurOuter1" values="0 0 0 0 0.68627451 0 0 0 0 0.415686275 0 0 0 0 0.160784314 0 0 0 1 0"/>
</filter>

<path id="a" d="M62.842 149.165c.409-2.863.664-5.7.767-8.512.102-2.812.153-5.65.153-8.513V72.475h-6.595c-3.17 0-6.29.077-9.357.23-3.067.153-6.186.435-9.356.844V40.265h90.035v33.284c-3.17-.41-6.289-.69-9.357-.844-3.067-.153-6.186-.23-9.356-.23h-6.749v59.665c0 2.863.052 5.7.154 8.513a80.97 80.97 0 0 0 .767 8.512H62.842Zm71.68 0c.409-2.863.69-5.7.843-8.512.154-2.812.23-5.65.23-8.513V57.29c0-2.658-.076-5.445-.23-8.359a97.473 97.473 0 0 0-.843-8.666h41.412a97.473 97.473 0 0 0-.843 8.666c-.153 2.914-.23 5.7-.23 8.36v20.552h24.694V57.29c0-2.658-.077-5.445-.23-8.359a97.473 97.473 0 0 0-.844-8.666h41.413a97.473 97.473 0 0 0-.843 8.666c-.154 2.914-.23 5.7-.23 8.36v74.85c0 2.862.076 5.7.23 8.512.153 2.812.434 5.65.843 8.512h-41.413c.41-2.863.69-5.7.844-8.512.153-2.812.23-5.65.23-8.513v-21.32h-24.694v21.32c0 2.863.077 5.7.23 8.513.153 2.812.434 5.65.843 8.512h-41.412Zm115.086 0c.41-2.863.69-5.7.844-8.512.153-2.812.23-5.65.23-8.513V57.29c0-2.658-.077-5.445-.23-8.359a97.473 97.473 0 0 0-.844-8.666h76.23l1.535 31.75a75.739 75.739 0 0 0-9.74-.92c-3.323-.103-6.57-.154-9.74-.154h-19.172v11.35h14.417c2.863 0 5.497-.076 7.9-.23 2.402-.153 5.087-.434 8.052-.843v24.847c-2.965-.51-5.65-.818-8.053-.92a186.83 186.83 0 0 0-7.899-.153h-14.417v13.497h19.019c3.374 0 6.902-.076 10.583-.23a134.57 134.57 0 0 0 10.583-.843l-1.533 31.75h-77.765Zm117.44 0c.408-2.863.69-5.7.843-8.512.153-2.812.23-5.65.23-8.513V57.29c0-2.658-.077-5.445-.23-8.359a97.473 97.473 0 0 0-.844-8.666h41.413a97.473 97.473 0 0 0-.844 8.666c-.153 2.914-.23 5.7-.23 8.36v20.552h24.695V57.29c0-2.658-.077-5.445-.23-8.359a97.473 97.473 0 0 0-.844-8.666h41.413a97.473 97.473 0 0 0-.844 8.666c-.153 2.914-.23 5.7-.23 8.36v74.85c0 2.862.077 5.7.23 8.512.154 2.812.435 5.65.844 8.512h-41.413c.409-2.863.69-5.7.843-8.512.154-2.812.23-5.65.23-8.513v-21.32h-24.694v21.32c0 2.863.077 5.7.23 8.513.154 2.812.435 5.65.844 8.512h-41.413Zm115.086 0c.409-2.863.69-5.7.843-8.512.154-2.812.23-5.65.23-8.513V57.29c0-2.658-.076-5.445-.23-8.359a97.473 97.473 0 0 0-.843-8.666h76.23l1.534 31.75a75.739 75.739 0 0 0-9.74-.92c-3.323-.103-6.57-.154-9.74-.154h-19.172v11.35h14.418c2.863 0 5.496-.076 7.899-.23 2.403-.153 5.087-.434 8.052-.843v24.847c-2.965-.51-5.65-.818-8.052-.92a186.83 186.83 0 0 0-7.9-.153h-14.417v13.497h19.02c3.374 0 6.901-.076 10.583-.23a134.57 134.57 0 0 0 10.583-.843l-1.534 31.75h-77.764Zm87.785 0c.409-2.863.69-5.7.843-8.512.154-2.812.23-5.65.23-8.513V57.29c0-2.658-.076-5.445-.23-8.359a97.473 97.473 0 0 0-.843-8.666h41.413a97.473 97.473 0 0 0-.844 8.666c-.153 2.914-.23 5.7-.23 8.36v74.85c0 2.862.077 5.7.23 8.512.153 2.812.435 5.65.844 8.512h-41.413Zm86.558 1.841c-4.908 0-10.251-.179-16.028-.537a232.625 232.625 0 0 1-16.642-1.61l-1.38-34.664c5.93 1.227 11.605 2.173 17.025 2.837 5.419.665 10.174.997 14.264.997 2.556 0 4.295-.255 5.215-.767.92-.511 1.38-1.176 1.38-1.994 0-.818-.409-1.636-1.227-2.454-.818-.818-2.76-2.045-5.828-3.68l-3.221-1.688c-9.919-5.215-17.486-10.635-22.7-16.258-5.216-5.624-7.823-12.475-7.823-20.554 0-10.123 3.783-18.022 11.35-23.697 7.567-5.675 19.377-8.513 35.431-8.513 4.09 0 8.666.18 13.728.537 5.061.358 10.097 1.1 15.108 2.224l2.147 34.664c-5.01-1.329-10.2-2.403-15.568-3.22-5.368-.819-9.995-1.228-13.881-1.228-2.76 0-4.525.23-5.292.69-.767.46-1.15 1.049-1.15 1.764 0 .716.409 1.458 1.227 2.224.818.767 2.659 1.918 5.522 3.452l3.834 1.994c10.021 5.112 17.511 10.608 22.47 16.488 4.96 5.88 7.44 12.756 7.44 20.63 0 10.43-3.758 18.431-11.274 24.004-7.516 5.573-18.891 8.359-34.127 8.359Zm69.993-1.84c.409-2.864.664-5.701.767-8.513.102-2.812.153-5.65.153-8.513V72.475h-6.595c-3.17 0-6.29.077-9.357.23-3.067.153-6.186.435-9.356.844V40.265h90.035v33.284c-3.17-.41-6.289-.69-9.357-.844-3.067-.153-6.186-.23-9.356-.23h-6.749v59.665c0 2.863.052 5.7.154 8.513a80.97 80.97 0 0 0 .767 8.512H726.47Zm153.636 1.84c-11.248 0-21.013-2.377-29.296-7.132-8.282-4.755-14.647-11.478-19.096-20.17-4.448-8.691-6.672-18.917-6.672-30.676 0-11.76 2.48-21.703 7.44-29.833 4.959-8.129 11.81-14.29 20.552-18.482 8.743-4.192 18.738-6.289 29.986-6.289 11.35 0 21.141 2.378 29.373 7.133 8.231 4.754 14.571 11.478 19.019 20.17 4.448 8.69 6.672 18.916 6.672 30.675 0 11.76-2.48 21.704-7.439 29.833-4.96 8.13-11.785 14.29-20.476 18.482-8.692 4.193-18.713 6.289-30.063 6.289Zm1.84-33.744c5.113 0 9.127-1.79 12.041-5.368 2.914-3.579 4.371-8.538 4.371-14.878 0-8.59-1.584-14.878-4.754-18.866-3.17-3.988-7.312-5.982-12.424-5.982-5.01 0-8.999 1.79-11.964 5.369-2.965 3.578-4.448 8.538-4.448 14.878 0 8.589 1.585 14.877 4.755 18.865 3.17 3.988 7.311 5.982 12.424 5.982Zm63.091 31.903c.41-2.863.69-5.7.844-8.512.153-2.812.23-5.65.23-8.513V57.29c0-2.658-.077-5.445-.23-8.359a97.473 97.473 0 0 0-.844-8.666h76.384v33.284a74.269 74.269 0 0 0-9.356-.92 280.877 280.877 0 0 0-9.356-.154h-17.332v16.412h12.884c5.214 0 10.48-.358 15.798-1.074v29.756a118.31 118.31 0 0 0-15.798-1.074h-12.884v15.645c0 2.863.076 5.7.23 8.513.153 2.812.434 5.65.843 8.512h-41.413ZM62.842 273.331c.409-2.863.664-5.7.767-8.513.102-2.812.153-5.65.153-8.512V196.64h-6.595c-3.17 0-6.29.076-9.357.23-3.067.153-6.186.434-9.356.843v-33.283h90.035v33.283c-3.17-.409-6.289-.69-9.357-.843-3.067-.154-6.186-.23-9.356-.23h-6.749v59.665c0 2.863.052 5.7.154 8.512a80.97 80.97 0 0 0 .767 8.513H62.842Zm71.68 0c.409-2.863.69-5.7.843-8.513.154-2.812.23-5.65.23-8.512v-74.85c0-2.659-.076-5.445-.23-8.36a97.473 97.473 0 0 0-.843-8.665h41.412a97.473 97.473 0 0 0-.843 8.666c-.153 2.914-.23 5.7-.23 8.359v20.553h24.694v-20.553c0-2.659-.077-5.445-.23-8.36a97.473 97.473 0 0 0-.844-8.665h41.413a97.473 97.473 0 0 0-.843 8.666c-.154 2.914-.23 5.7-.23 8.359v74.85c0 2.863.076 5.7.23 8.512.153 2.812.434 5.65.843 8.513h-41.413c.41-2.863.69-5.7.844-8.513.153-2.812.23-5.65.23-8.512v-21.32h-24.694v21.32c0 2.863.077 5.7.23 8.512.153 2.812.434 5.65.843 8.513h-41.412Zm115.086 0c.41-2.863.69-5.7.844-8.513.153-2.812.23-5.65.23-8.512v-74.85c0-2.659-.077-5.445-.23-8.36a97.473 97.473 0 0 0-.844-8.665h76.23l1.535 31.75a75.739 75.739 0 0 0-9.74-.92c-3.323-.103-6.57-.154-9.74-.154h-19.172v11.35h14.417c2.863 0 5.497-.077 7.9-.23 2.402-.154 5.087-.435 8.052-.844v24.848c-2.965-.511-5.65-.818-8.053-.92a186.83 186.83 0 0 0-7.899-.154h-14.417v13.498h19.019c3.374 0 6.902-.077 10.583-.23a134.57 134.57 0 0 0 10.583-.844l-1.533 31.75h-77.765Zm176.03 1.84c-11.656 0-22.112-2.07-31.366-6.211-9.254-4.142-16.565-10.456-21.933-18.943-5.369-8.487-8.053-19.173-8.053-32.057 0-9.305 1.56-17.434 4.678-24.387 3.12-6.953 7.465-12.705 13.038-17.255 5.573-4.55 12.04-7.976 19.402-10.277 7.363-2.3 15.236-3.451 23.621-3.451 6.135 0 12.015.562 17.639 1.687l2.3 37.272c-5.521-2.25-11.094-3.375-16.718-3.375-15.134 0-22.7 6.698-22.7 20.093 0 6.544 1.968 11.734 5.905 15.568 3.937 3.835 9.893 5.752 17.869 5.752 3.067 0 5.88-.128 8.436-.383a45.015 45.015 0 0 0 7.669-1.457l-.767 35.584c-3.375.613-6.57 1.074-9.587 1.38-3.016.307-6.16.46-9.432.46Zm29.347-1.84c.41-2.863.69-5.7.844-8.513.153-2.812.23-5.65.23-8.512v-74.85c0-2.659-.077-5.445-.23-8.36a97.473 97.473 0 0 0-.844-8.665h76.23l1.535 31.75a75.739 75.739 0 0 0-9.74-.92c-3.323-.103-6.57-.154-9.74-.154h-19.172v11.35h14.417c2.863 0 5.497-.077 7.9-.23 2.402-.154 5.087-.435 8.052-.844v24.848c-2.965-.511-5.65-.818-8.053-.92a186.83 186.83 0 0 0-7.899-.154h-14.417v13.498h19.019c3.374 0 6.902-.077 10.583-.23a134.57 134.57 0 0 0 10.583-.844l-1.533 31.75h-77.765Zm89.012 0c.41-2.863.69-5.7.844-8.513.153-2.812.23-5.65.23-8.512V187.13c0-4.193-.486-8.027-1.457-11.504-.971-3.476-2.786-7.209-5.445-11.196h44.634l25 41.259v-24.234c0-2.863-.05-5.7-.152-8.513a60.989 60.989 0 0 0-.92-8.512h38.651c-.409 2.863-.69 5.7-.843 8.512-.154 2.812-.23 5.65-.23 8.513v91.875h-32.057l-30.676-48.008v30.983c0 2.863.076 5.7.23 8.512.153 2.812.434 5.65.843 8.513h-38.652Zm131.806 0c.409-2.863.664-5.7.767-8.513.102-2.812.153-5.65.153-8.512V196.64h-6.595c-3.17 0-6.289.076-9.357.23-3.067.153-6.186.434-9.356.843v-33.283h90.035v33.283c-3.17-.409-6.289-.69-9.356-.843-3.068-.154-6.187-.23-9.357-.23h-6.748v59.665c0 2.863.05 5.7.153 8.512a80.97 80.97 0 0 0 .767 8.513h-41.106Zm122.142 1.84c-12.27 0-22.036-1.917-29.296-5.751-7.26-3.835-12.5-9.433-15.721-16.795-3.221-7.363-4.832-16.208-4.832-26.535v-44.634c0-2.659-.076-5.445-.23-8.36a97.473 97.473 0 0 0-.843-8.665h41.412a97.473 97.473 0 0 0-.843 8.666c-.153 2.914-.23 5.7-.23 8.359v44.48c0 5.113.843 8.922 2.53 11.427 1.688 2.505 4.576 3.758 8.667 3.758 8.078 0 12.117-5.062 12.117-15.185v-44.48c0-2.659-.077-5.445-.23-8.36a97.473 97.473 0 0 0-.844-8.665h39.88a97.473 97.473 0 0 0-.845 8.666c-.153 2.914-.23 5.7-.23 8.359v44.634c0 10.327-1.661 19.172-4.984 26.535-3.324 7.362-8.666 12.96-16.029 16.795-7.362 3.834-17.178 5.752-29.449 5.752Zm99.902-110.74v.153h7.21c14.52.102 25.18 3.093 31.979 8.973 6.8 5.88 10.2 14.136 10.2 24.77 0 5.522-1.176 10.584-3.528 15.185-2.352 4.602-6.698 8.283-13.037 11.044 5.624 2.147 9.637 5.394 12.04 9.74a53.005 53.005 0 0 1 5.292 13.88l2.3 9.817a107.781 107.781 0 0 0 5.062 15.338h-41.72l-3.067-17.485c-.818-4.806-2.045-8.079-3.681-9.817-1.636-1.738-3.784-2.607-6.442-2.607h-2.608v12.884c0 2.863.077 5.7.23 8.512.154 2.812.435 5.65.844 8.513h-40.186c.41-2.863.69-5.7.844-8.513.153-2.812.23-5.65.23-8.512v-74.85c0-2.659-.077-5.445-.23-8.36a97.473 97.473 0 0 0-.844-8.665h39.112Zm93.46 0c.103 2.76.358 5.214.767 7.362a65.033 65.033 0 0 0 1.687 6.749l8.283 28.068 8.13-28.068a82.882 82.882 0 0 0 1.763-6.75c.46-2.147.741-4.6.844-7.361h45.4l-37.425 79.911v11.964c0 2.863.077 5.7.23 8.512.154 2.812.435 5.65.844 8.513h-41.413c.512-2.863.818-5.7.92-8.513.103-2.812.154-5.65.154-8.512v-11.964l-37.425-79.911h47.241Zm-89.319 30.676h-4.14v21.32h3.527c7.464 0 11.197-3.477 11.197-10.43 0-3.784-.946-6.545-2.838-8.283-1.891-1.738-4.473-2.607-7.746-2.607Z"/>
</defs>

<g fill="none">
<use xlink:href="#a" fill="#000" filter="url(#b)"/>

<use xlink:href="#a" fill="#33302E"/><path fill="#FDFBEF" fill-rule="evenodd" stroke="#AF6A29" stroke-opacity=".25" stroke-width=".73" d="M788.857 164.065a97.049 97.049 0 0 0-.9 9.05c-.153 2.908-.23 5.688-.23 8.34v44.481c0 5.017.811 8.763 2.469 11.223 1.628 2.418 4.428 3.597 8.363 3.597 3.905 0 6.846-1.208 8.802-3.659 1.98-2.48 2.95-6.206 2.95-11.16v-44.481c0-2.653-.077-5.433-.23-8.34a97.049 97.049 0 0 0-.9-9.05h40.722a97.049 97.049 0 0 0-.9 9.05c-.154 2.907-.23 5.687-.23 8.34v44.634c0 10.386-1.676 19.28-5.018 26.685-3.357 7.438-8.754 13.095-16.192 16.969-7.405 3.856-17.275 5.793-29.618 5.793-12.344 0-22.164-1.937-29.466-5.794-7.336-3.875-12.631-9.533-15.886-16.972-3.239-7.403-4.862-16.296-4.862-26.681v-44.634c0-2.653-.076-5.433-.23-8.34a97.049 97.049 0 0 0-.9-9.05Zm-363.832-1.84c6.26 0 12.256.583 17.986 1.75l2.354 38.135c-5.652-2.38-11.358-3.57-17.119-3.57-7.453 0-13.054 1.63-16.783 4.931-3.715 3.288-5.552 8.227-5.552 14.796 0 6.431 1.924 11.537 5.795 15.307 3.88 3.78 9.759 5.648 17.614 5.648 3.054 0 5.854-.127 8.4-.382a44.802 44.802 0 0 0 8.08-1.58l-.784 36.377a124.724 124.724 0 0 1-9.908 1.438 93.633 93.633 0 0 1-9.47.462c-11.712 0-22.217-2.083-31.515-6.244-9.321-4.172-16.686-10.532-22.093-19.08-5.4-8.54-8.109-19.288-8.109-32.253 0-9.362 1.572-17.54 4.71-24.537 3.143-7.007 7.524-12.803 13.14-17.388 5.608-4.58 12.116-8.027 19.524-10.343 7.397-2.31 15.306-3.467 23.73-3.467Zm566.635 1.84c.092 2.884.35 5.437.773 7.66a64.689 64.689 0 0 0 1.679 6.713l7.929 26.87 7.783-26.873a82.518 82.518 0 0 0 1.756-6.719c.476-2.22.758-4.77.848-7.65h46.328l-37.634 80.357v11.883c0 2.856.076 5.687.23 8.492.16 2.938.46 5.904.9 8.898H979.98c.555-2.992.886-5.955.993-8.891.102-2.808.153-5.64.153-8.5v-11.882l-37.634-80.358Zm-93.805 0 7.204.154c14.634.103 25.366 3.138 32.216 9.061 6.876 5.946 10.326 14.29 10.326 25.048 0 5.582-1.19 10.699-3.568 15.35-2.286 4.473-6.42 8.098-12.422 10.858 5.293 2.18 9.095 5.379 11.42 9.583a53.365 53.365 0 0 1 5.327 13.974l2.3 9.811a107.258 107.258 0 0 0 5.256 15.792H913.34l-3.121-17.79c-.801-4.705-1.983-7.922-3.587-9.627-1.569-1.666-3.63-2.492-6.176-2.492h-2.243v12.519c0 2.856.077 5.687.23 8.492.16 2.938.46 5.904.9 8.898h-41.029c.44-2.994.74-5.96.901-8.898.153-2.805.23-5.636.23-8.492v-74.85c0-2.653-.077-5.433-.23-8.34a97.049 97.049 0 0 0-.9-9.05h39.541Zm4.133 31.407h-3.776v20.59h3.163c3.615 0 6.338-.823 8.149-2.51 1.802-1.679 2.683-4.205 2.683-7.555 0-3.651-.89-6.332-2.72-8.014-1.831-1.683-4.335-2.511-7.499-2.511Zm-160.173-31.407v34.065a119.847 119.847 0 0 0-9.74-.895c-3.061-.153-6.174-.23-9.338-.23h-6.383v59.3c0 2.86.05 5.692.153 8.5.107 2.936.381 5.9.824 8.891h-41.95c.442-2.992.717-5.955.824-8.891.102-2.808.153-5.64.153-8.5v-59.3h-6.23c-3.164 0-6.277.077-9.338.23-3.191.16-6.438.458-9.74.895v-34.065h90.765Zm-158.806 0 24.43 40.318v-22.927c0-2.859-.051-5.692-.153-8.5a60.785 60.785 0 0 0-.993-8.89h39.511c-.44 2.993-.74 5.96-.9 8.897a155.91 155.91 0 0 0-.23 8.493v92.24h-32.622l-30.111-47.123v29.733c0 2.856.077 5.687.23 8.492.16 2.938.46 5.904.9 8.898h-39.495c.44-2.994.74-5.96.9-8.898.153-2.805.23-5.636.23-8.492V187.13c0-4.157-.48-7.958-1.444-11.405-1.008-3.61-2.937-7.496-5.78-11.66h45.527Zm-51.445 0 1.572 32.55a75.195 75.195 0 0 0-10.137-.99c-3.32-.102-6.563-.153-9.729-.153h-18.807v10.62h14.052c2.855 0 5.48-.077 7.876-.23 2.507-.16 5.32-.46 8.441-.898v25.702c-3.118-.554-5.929-.884-8.433-.99a186.466 186.466 0 0 0-7.884-.154h-14.052v12.768h18.654c3.37 0 6.892-.077 10.568-.23 3.828-.16 7.489-.458 10.984-.894l-1.571 32.53h-78.535c.44-2.994.741-5.96.901-8.898.153-2.805.23-5.636.23-8.492v-74.85c0-2.653-.077-5.433-.23-8.34a97.049 97.049 0 0 0-.9-9.05h77Zm-205.377 0 1.572 32.55a75.195 75.195 0 0 0-10.137-.99c-3.32-.102-6.563-.153-9.729-.153h-18.807v10.62h14.052c2.855 0 5.48-.077 7.876-.23 2.507-.16 5.32-.46 8.441-.898v25.702c-3.118-.554-5.93-.884-8.433-.99a186.466 186.466 0 0 0-7.884-.154h-14.052v12.768h18.654c3.37 0 6.892-.077 10.568-.23 3.828-.16 7.489-.458 10.984-.894l-1.571 32.53h-78.535c.44-2.994.741-5.96.901-8.898.153-2.805.23-5.636.23-8.492v-74.85c0-2.653-.077-5.433-.23-8.34a97.049 97.049 0 0 0-.9-9.05h77Zm-149.83 0a97.049 97.049 0 0 0-.901 9.05c-.153 2.908-.23 5.688-.23 8.34v20.189h23.964v-20.188c0-2.653-.077-5.433-.23-8.34a97.05 97.05 0 0 0-.9-9.05h42.256a97.05 97.05 0 0 0-.9 9.05c-.154 2.907-.23 5.687-.23 8.34v74.85c0 2.856.076 5.687.23 8.492.16 2.938.46 5.904.9 8.898H198.06c.44-2.994.74-5.96.9-8.898.153-2.805.23-5.636.23-8.492V235.35h-23.964v20.955c0 2.856.077 5.687.23 8.492.16 2.938.46 5.904.9 8.898H134.1c.44-2.994.74-5.96.9-8.898.154-2.805.23-5.636.23-8.492v-74.85c0-2.653-.076-5.433-.23-8.34a97.049 97.049 0 0 0-.9-9.05Zm-47.503 0v34.065a119.848 119.848 0 0 0-9.74-.895c-3.061-.153-6.174-.23-9.338-.23h-6.383v59.3c0 2.86.05 5.692.153 8.5.107 2.936.381 5.9.824 8.891H62.42c.442-2.992.717-5.955.824-8.891.102-2.808.153-5.64.153-8.5v-59.3h-6.23c-3.164 0-6.277.077-9.338.23-3.191.16-6.438.458-9.74.895v-34.065h90.765ZM883.02 38.06c11.422 0 21.273 2.397 29.555 7.181 8.293 4.79 14.68 11.563 19.162 20.32 4.472 8.739 6.712 19.019 6.712 30.842 0 11.836-2.501 21.842-7.492 30.023-4.997 8.19-11.873 14.398-20.63 18.621-8.737 4.215-18.81 6.325-30.22 6.325-11.32 0-21.144-2.396-29.478-7.18-8.345-4.79-14.758-11.564-19.24-20.32-4.472-8.74-6.712-19.02-6.712-30.843 0-11.835 2.502-21.842 7.493-30.023 4.996-8.19 11.898-14.397 20.707-18.621 8.788-4.215 18.836-6.325 30.143-6.325Zm-1.84 34.474c-4.89 0-8.787 1.742-11.683 5.237-2.919 3.522-4.364 8.408-4.364 14.645 0 8.479 1.544 14.698 4.676 18.638 3.097 3.896 7.143 5.844 12.138 5.844 4.99 0 8.911-1.739 11.757-5.234 2.869-3.523 4.29-8.41 4.29-14.647 0-8.48-1.545-14.699-4.676-18.639-3.097-3.896-7.143-5.844-12.138-5.844ZM666.293 38.06c4.098 0 8.682.18 13.754.538 5.17.366 10.313 1.13 15.43 2.292l2.195 35.444a146.378 146.378 0 0 0-16.02-3.344c-5.346-.814-9.955-1.222-13.825-1.222-2.655 0-4.364.194-5.104.638-.63.378-.973.853-.973 1.45 0 .637.392 1.283 1.112 1.958.806.756 2.623 1.884 5.44 3.394l3.832 1.992c10.074 5.14 17.599 10.669 22.584 16.578 5.016 5.947 7.525 12.902 7.525 20.866 0 10.56-3.814 18.656-11.421 24.297-7.564 5.608-19.007 8.431-34.345 8.431-4.915 0-10.266-.179-16.051-.537a232.487 232.487 0 0 1-16.972-1.655l-1.411-35.437c6.086 1.271 11.904 2.247 17.453 2.928 5.403.662 10.143.994 14.22.994 2.464 0 4.149-.227 5.038-.721.403-.224.71-.478.912-.77.187-.27.28-.572.28-.905 0-.737-.388-1.464-1.12-2.196-.805-.805-2.723-2.007-5.74-3.615l-3.221-1.688c-9.963-5.238-17.56-10.685-22.798-16.333-5.278-5.692-7.92-12.625-7.92-20.802 0-10.25 3.836-18.244 11.496-23.989 7.614-5.71 19.491-8.586 35.65-8.586Zm-537.44 1.84v34.066a119.848 119.848 0 0 0-9.739-.895c-3.061-.153-6.174-.23-9.338-.23h-6.383v59.3c0 2.859.05 5.692.153 8.5.107 2.935.381 5.899.824 8.89H62.42c.442-2.991.717-5.955.824-8.89.102-2.808.153-5.641.153-8.5v-59.3h-6.23c-3.164 0-6.277.077-9.338.23-3.191.16-6.438.458-9.74.895V39.9h90.765Zm892.933 0v34.08c-3.3-.55-6.544-.88-9.733-.986a280.512 280.512 0 0 0-9.344-.153h-16.967v15.682h12.519c5.334 0 10.721-.376 16.163-1.127v30.592a118.084 118.084 0 0 0-16.163-1.126h-12.52v15.28c0 2.856.077 5.687.23 8.492.16 2.938.46 5.904.901 8.898h-42.257c.44-2.994.741-5.96.901-8.898.153-2.805.23-5.636.23-8.493V57.29c0-2.652-.077-5.432-.23-8.34a97.049 97.049 0 0 0-.9-9.05h77.17Zm-229.304 0v34.066a119.848 119.848 0 0 0-9.74-.895c-3.061-.153-6.174-.23-9.338-.23h-6.383v59.3c0 2.859.05 5.692.153 8.5.106 2.935.381 5.899.824 8.89h-41.95c.442-2.991.717-5.955.824-8.89.102-2.808.153-5.641.153-8.5v-59.3h-6.23c-3.164 0-6.277.077-9.338.23-3.192.16-6.438.458-9.74.895V39.9h90.765Zm-616.126 0a97.049 97.049 0 0 0-.9 9.051c-.153 2.908-.23 5.688-.23 8.34v20.188h23.964V57.29c0-2.652-.077-5.432-.23-8.34a97.05 97.05 0 0 0-.9-9.05h42.256a97.05 97.05 0 0 0-.9 9.05c-.154 2.908-.23 5.688-.23 8.34v74.85c0 2.857.076 5.688.23 8.493.16 2.938.46 5.904.9 8.898H198.06c.44-2.994.74-5.96.9-8.898.153-2.805.23-5.636.23-8.493v-20.955h-23.964v20.955c0 2.857.077 5.688.23 8.493.16 2.938.46 5.904.9 8.898H134.1c.44-2.994.74-5.96.9-8.898.154-2.805.23-5.636.23-8.493V57.29c0-2.652-.076-5.432-.23-8.34a97.049 97.049 0 0 0-.9-9.05Zm435.398 0a97.049 97.049 0 0 0-.901 9.051c-.153 2.908-.23 5.688-.23 8.34v74.85c0 2.857.077 5.688.23 8.493.16 2.938.46 5.904.9 8.898h-42.256c.44-2.994.74-5.96.9-8.898.154-2.805.23-5.636.23-8.493V57.29c0-2.652-.076-5.432-.23-8.34a97.049 97.049 0 0 0-.9-9.05Zm-53.042 0 1.573 32.55a75.195 75.195 0 0 0-10.138-.99c-3.32-.102-6.562-.153-9.728-.153H521.61v10.62h14.053c2.854 0 5.48-.076 7.876-.23 2.506-.16 5.32-.459 8.44-.898V106.5c-3.118-.553-5.929-.883-8.433-.99a186.467 186.467 0 0 0-7.883-.153H521.61v12.767h18.654c3.37 0 6.892-.076 10.568-.23 3.828-.16 7.49-.457 10.984-.894l-1.571 32.53h-78.534c.44-2.993.74-5.96.9-8.897.154-2.805.23-5.636.23-8.493V57.29c0-2.652-.076-5.432-.23-8.34a97.049 97.049 0 0 0-.9-9.05h77Zm-149.83 0a97.05 97.05 0 0 0-.901 9.051c-.153 2.908-.23 5.688-.23 8.34v20.188h23.964V57.29c0-2.652-.076-5.432-.23-8.34a97.049 97.049 0 0 0-.9-9.05h42.257a97.049 97.049 0 0 0-.901 9.05c-.153 2.908-.23 5.688-.23 8.34v74.85c0 2.857.077 5.688.23 8.493.16 2.938.46 5.904.9 8.898h-42.256c.44-2.994.74-5.96.9-8.898.154-2.805.23-5.636.23-8.493v-20.955h-23.964v20.955c0 2.857.077 5.688.23 8.493.16 2.938.46 5.904.9 8.898h-42.256c.44-2.994.74-5.96.901-8.898.153-2.805.23-5.636.23-8.493V57.29c0-2.652-.077-5.432-.23-8.34a97.05 97.05 0 0 0-.9-9.05Zm-82.695 0 1.572 32.55a75.195 75.195 0 0 0-10.137-.99c-3.32-.102-6.563-.153-9.729-.153h-18.807v10.62h14.052c2.855 0 5.48-.076 7.876-.23 2.507-.16 5.32-.459 8.441-.898V106.5c-3.118-.553-5.93-.883-8.433-.99a186.467 186.467 0 0 0-7.884-.153h-14.052v12.767h18.654c3.37 0 6.892-.076 10.568-.23 3.828-.16 7.489-.457 10.984-.894l-1.571 32.53h-78.535c.44-2.993.741-5.96.901-8.897.153-2.805.23-5.636.23-8.493V57.29c0-2.652-.077-5.432-.23-8.34a97.049 97.049 0 0 0-.9-9.05h77Z"/>
</g></svg>