<svg xmlns="http://www.w3.org/2000/svg" viewBox="0 0 396 94"><path fill="#33302E" d="M.132 39c.108-1.008.18-2.007.216-2.997.036-.99.054-1.989.054-2.997V6.654c0-.936-.018-1.917-.054-2.943A28.666 28.666 0 0 0 .078.66h13.77c3.456 0 6.192.432 8.208 1.296 2.016.864 3.465 2.034 4.347 3.51.882 1.476 1.323 3.15 1.323 5.022 0 1.584-.333 3.024-.999 4.32-.666 1.296-1.809 2.376-3.429 3.24 2.34.828 4.05 2.079 5.13 3.753s1.62 3.627 1.62 5.859c0 2.196-.504 4.149-1.512 5.859s-2.574 3.051-4.698 4.023C21.714 38.514 18.96 39 15.576 39H.132ZM13.254 8.436h-2.808l-.054 7.992h3.294c1.764 0 3.042-.36 3.834-1.08.792-.72 1.188-1.71 1.188-2.97 0-1.404-.414-2.412-1.242-3.024-.828-.612-2.232-.918-4.212-.918Zm1.026 14.31h-3.942l-.054 8.478h4.428c1.692 0 3.006-.378 3.942-1.134.936-.756 1.404-1.836 1.404-3.24 0-2.736-1.926-4.104-5.778-4.104ZM34.422 39c.216-2.016.324-4.014.324-5.994V6.654c0-1.944-.108-3.942-.324-5.994h10.962a57.261 57.261 0 0 0-.324 5.994v26.352c0 1.98.108 3.978.324 5.994H34.422Zm38.07.648c-7.164 0-12.645-1.692-16.443-5.076-3.798-3.384-5.697-8.37-5.697-14.958 0-4.428.927-8.091 2.781-10.989 1.854-2.898 4.437-5.058 7.749-6.48C64.194.723 68.064.012 72.492.012c1.908 0 3.699.108 5.373.324 1.674.216 3.159.54 4.455.972l.486 9.666c-3.06-1.08-6.282-1.62-9.666-1.62-3.852.036-6.822.9-8.91 2.592-2.088 1.692-3.132 4.266-3.132 7.722 0 3.528.945 6.183 2.835 7.965 1.89 1.782 4.509 2.673 7.857 2.673.72 0 1.386-.072 1.998-.216v-5.184c0-.936-.036-1.854-.108-2.754l-.216-2.7 9.504-.054v19.116c-1.62.36-3.276.639-4.968.837a47.54 47.54 0 0 1-5.508.297Zm38.016 0c-7.164 0-12.645-1.692-16.443-5.076-3.798-3.384-5.697-8.37-5.697-14.958 0-4.428.927-8.091 2.781-10.989 1.854-2.898 4.437-5.058 7.749-6.48C102.21.723 106.08.012 110.508.012c1.908 0 3.699.108 5.373.324 1.674.216 3.159.54 4.455.972l.486 9.666c-3.06-1.08-6.282-1.62-9.666-1.62-3.852.036-6.822.9-8.91 2.592-2.088 1.692-3.132 4.266-3.132 7.722 0 3.528.945 6.183 2.835 7.965 1.89 1.782 4.509 2.673 7.857 2.673.72 0 1.386-.072 1.998-.216v-5.184c0-.936-.036-1.854-.108-2.754l-.216-2.7 9.504-.054v19.116c-1.62.36-3.276.639-4.968.837a47.54 47.54 0 0 1-5.508.297ZM127.572 39c.216-2.016.324-4.014.324-5.994V6.654c0-1.944-.108-3.942-.324-5.994h24.57l.432 8.748a30.24 30.24 0 0 0-3.402-.351 72.661 72.661 0 0 0-3.402-.081h-7.668v6.642h6.048c1.008 0 1.98-.027 2.916-.081a34.822 34.822 0 0 0 2.916-.297v7.992a28.338 28.338 0 0 0-2.916-.27 75.94 75.94 0 0 0-2.916-.054h-6.048v7.776h7.668c1.152 0 2.367-.036 3.645-.108a57.751 57.751 0 0 0 3.699-.324L152.682 39h-25.11Zm40.5.648c-1.764 0-3.357-.063-4.779-.189-1.422-.126-2.997-.369-4.725-.729l-.54-9.234c1.944.54 3.6.9 4.968 1.08 1.368.18 2.79.27 4.266.27 2.34 0 3.897-.261 4.671-.783.774-.522 1.161-1.215 1.161-2.079 0-.648-.27-1.278-.81-1.89-.54-.612-1.548-1.314-3.024-2.106l-3.618-1.836c-2.844-1.476-4.932-3.141-6.264-4.995-1.332-1.854-1.998-4.023-1.998-6.507 0-3.312 1.251-5.913 3.753-7.803C163.635.957 167.334.012 172.23.012c1.692 0 3.15.081 4.374.243 1.224.162 2.718.459 4.482.891l.594 9.342c-1.764-.612-3.384-1.035-4.86-1.269a29.642 29.642 0 0 0-4.644-.351c-1.872 0-3.132.234-3.78.702-.648.468-.972 1.062-.972 1.782 0 .648.243 1.26.729 1.836.486.576 1.395 1.224 2.727 1.944l3.618 1.944c3.024 1.584 5.229 3.303 6.615 5.157 1.386 1.854 2.079 4.059 2.079 6.615 0 3.42-1.179 6.075-3.537 7.965-2.358 1.89-6.219 2.835-11.583 2.835ZM195.45 39c.144-1.008.234-2.007.27-2.997.036-.99.054-1.989.054-2.997V9.192h-3.186c-1.116 0-2.214.018-3.294.054-1.08.036-2.178.126-3.294.27V.66h29.862v8.856a34.793 34.793 0 0 0-3.294-.27 98.887 98.887 0 0 0-3.294-.054h-3.186v23.814c0 1.008.018 2.007.054 2.997.036.99.126 1.989.27 2.997H195.45Zm35.694 0c.18-1.008.306-2.007.378-2.997.072-.99.126-1.989.162-2.997l.972-25.326c.108-2.448-.144-4.788-.756-7.02h12.258l8.856 20.574L261.924.66h11.61a18.922 18.922 0 0 0-.621 3.429 26.28 26.28 0 0 0-.027 3.591l.918 25.326c.036 1.008.099 2.007.189 2.997.09.99.207 1.989.351 2.997h-10.638c.18-1.008.27-2.007.27-2.997 0-.99-.018-1.989-.054-2.997l-.756-16.74-10.692 23.112h-.108l-10.638-23.004-.756 16.632a53.142 53.142 0 0 0-.027 2.916c.018.936.081 1.962.189 3.078h-9.99Zm85.968 0H305.07a25.704 25.704 0 0 0-.405-3.105 28.125 28.125 0 0 0-.729-2.943l-.27-.864h-12.528l-.27.864a36.88 36.88 0 0 0-.729 3.024 24.869 24.869 0 0 0-.405 3.024h-11.502l11.124-32.346c.36-1.044.648-2.07.864-3.078.216-1.008.396-1.98.54-2.916h13.662c.18.936.405 1.908.675 2.916s.549 2.034.837 3.078L317.112 39Zm-23.814-14.256h8.208l-4.104-13.716-4.104 13.716ZM321.324 39c.216-2.016.324-4.014.324-5.994V6.654c0-1.944-.108-3.942-.324-5.994h10.962a57.261 57.261 0 0 0-.324 5.994v26.352c0 1.98.108 3.978.324 5.994h-10.962Zm17.118 0c.144-1.008.234-2.007.27-2.997.036-.99.054-1.989.054-2.997V6.654c0-.936-.018-1.917-.054-2.943a28.666 28.666 0 0 0-.27-3.051h10.962a28.666 28.666 0 0 0-.27 3.051 84.056 84.056 0 0 0-.054 2.943v24.03h7.074c1.188 0 2.367-.018 3.537-.054a55.638 55.638 0 0 0 3.483-.216V39h-24.732ZM.132 93c.144-1.008.243-2.007.297-2.997.054-.99.081-1.989.081-2.997V60.654c0-.936-.027-1.917-.081-2.943a24.734 24.734 0 0 0-.351-3.051h14.094c5.112 0 8.802 1.008 11.07 3.024 2.268 2.016 3.402 4.842 3.402 8.478 0 2.124-.441 3.978-1.323 5.562-.882 1.584-2.475 2.898-4.779 3.942 1.692.72 2.934 1.719 3.726 2.997.792 1.278 1.512 3.069 2.16 5.373l.918 3.564c.468 1.98 1.116 3.78 1.944 5.4H20.598l-1.674-6.588c-.396-1.692-.882-2.952-1.458-3.78-.576-.828-1.314-1.386-2.214-1.674-.9-.288-2.052-.432-3.456-.432h-1.134v6.48c0 1.008.027 2.007.081 2.997.054.99.171 1.989.351 2.997H.132Zm12.906-30.024h-2.376V73.02h2.484c2.232 0 3.78-.459 4.644-1.377.864-.918 1.296-2.151 1.296-3.699 0-1.584-.459-2.808-1.377-3.672-.918-.864-2.475-1.296-4.671-1.296ZM53.16 93.648c-3.78 0-7.074-.828-9.882-2.484-2.808-1.656-4.995-3.996-6.561-7.02-1.566-3.024-2.349-6.552-2.349-10.584 0-4.32.864-7.929 2.592-10.827 1.728-2.898 4.077-5.076 7.047-6.534 2.97-1.458 6.345-2.187 10.125-2.187 3.78 0 7.083.837 9.909 2.511 2.826 1.674 5.013 4.014 6.561 7.02 1.548 3.006 2.322 6.525 2.322 10.557 0 4.32-.864 7.929-2.592 10.827-1.728 2.898-4.077 5.076-7.047 6.534-2.97 1.458-6.345 2.187-10.125 2.187Zm.594-8.964c2.556 0 4.635-.873 6.237-2.619 1.602-1.746 2.403-4.221 2.403-7.425 0-3.852-.801-6.759-2.403-8.721-1.602-1.962-3.735-2.943-6.399-2.943-2.556 0-4.653.873-6.291 2.619-1.638 1.746-2.457 4.221-2.457 7.425 0 3.852.819 6.759 2.457 8.721 1.638 1.962 3.789 2.943 6.453 2.943ZM77.946 93c.108-1.008.18-2.007.216-2.997.036-.99.054-1.989.054-2.997V60.654c0-.936-.018-1.917-.054-2.943a28.666 28.666 0 0 0-.27-3.051h13.77c3.456 0 6.192.432 8.208 1.296 2.016.864 3.465 2.034 4.347 3.51.882 1.476 1.323 3.15 1.323 5.022 0 1.584-.333 3.024-.999 4.32-.666 1.296-1.809 2.376-3.429 3.24 2.34.828 4.05 2.079 5.13 3.753s1.62 3.627 1.62 5.859c0 2.196-.504 4.149-1.512 5.859s-2.574 3.051-4.698 4.023C99.528 92.514 96.774 93 93.39 93H77.946Zm13.122-30.564H88.26l-.054 7.992H91.5c1.764 0 3.042-.36 3.834-1.08.792-.72 1.188-1.71 1.188-2.97 0-1.404-.414-2.412-1.242-3.024-.828-.612-2.232-.918-4.212-.918Zm1.026 14.31h-3.942l-.054 8.478h4.428c1.692 0 3.006-.378 3.942-1.134.936-.756 1.404-1.836 1.404-3.24 0-2.736-1.926-4.104-5.778-4.104ZM112.29 93c.108-1.008.18-2.007.216-2.997.036-.99.054-1.989.054-2.997V60.654c0-.936-.018-1.917-.054-2.943a28.666 28.666 0 0 0-.27-3.051h13.77c3.456 0 6.192.432 8.208 1.296 2.016.864 3.465 2.034 4.347 3.51.882 1.476 1.323 3.15 1.323 5.022 0 1.584-.333 3.024-.999 4.32-.666 1.296-1.809 2.376-3.429 3.24 2.34.828 4.05 2.079 5.13 3.753s1.62 3.627 1.62 5.859c0 2.196-.504 4.149-1.512 5.859s-2.574 3.051-4.698 4.023c-2.124.972-4.878 1.458-8.262 1.458H112.29Zm13.122-30.564h-2.808l-.054 7.992h3.294c1.764 0 3.042-.36 3.834-1.08.792-.72 1.188-1.71 1.188-2.97 0-1.404-.414-2.412-1.242-3.024-.828-.612-2.232-.918-4.212-.918Zm1.026 14.31h-3.942l-.054 8.478h4.428c1.692 0 3.006-.378 3.942-1.134.936-.756 1.404-1.836 1.404-3.24 0-2.736-1.926-4.104-5.778-4.104ZM146.58 93c.216-2.016.324-4.014.324-5.994V60.654c0-1.944-.108-3.942-.324-5.994h24.57l.432 8.748a30.24 30.24 0 0 0-3.402-.351 72.661 72.661 0 0 0-3.402-.081h-7.668v6.642h6.048c1.008 0 1.98-.027 2.916-.081a34.822 34.822 0 0 0 2.916-.297v7.992a28.338 28.338 0 0 0-2.916-.27 75.94 75.94 0 0 0-2.916-.054h-6.048v7.776h7.668c1.152 0 2.367-.036 3.645-.108a57.751 57.751 0 0 0 3.699-.324L171.69 93h-25.11Zm30.726 0c.144-1.008.243-2.007.297-2.997.054-.99.081-1.989.081-2.997V60.654c0-.936-.027-1.917-.081-2.943a24.734 24.734 0 0 0-.351-3.051h14.094c5.112 0 8.802 1.008 11.07 3.024 2.268 2.016 3.402 4.842 3.402 8.478 0 2.124-.441 3.978-1.323 5.562-.882 1.584-2.475 2.898-4.779 3.942 1.692.72 2.934 1.719 3.726 2.997.792 1.278 1.512 3.069 2.16 5.373l.918 3.564c.468 1.98 1.116 3.78 1.944 5.4h-10.692l-1.674-6.588c-.396-1.692-.882-2.952-1.458-3.78-.576-.828-1.314-1.386-2.214-1.674-.9-.288-2.052-.432-3.456-.432h-1.134v6.48c0 1.008.027 2.007.081 2.997.054.99.171 1.989.351 2.997h-10.962Zm12.906-30.024h-2.376V73.02h2.484c2.232 0 3.78-.459 4.644-1.377.864-.918 1.296-2.151 1.296-3.699 0-1.584-.459-2.808-1.377-3.672-.918-.864-2.475-1.296-4.671-1.296ZM223.476 93c.144-1.008.234-2.007.27-2.997.036-.99.054-1.989.054-2.997v-5.292L210.624 54.66h12.42c.108.9.261 1.737.459 2.511s.441 1.575.729 2.403l4.968 12.798 4.914-12.798c.324-.828.585-1.629.783-2.403.198-.774.351-1.611.459-2.511h11.934l-13.176 27.162v5.184c0 1.008.018 2.007.054 2.997.036.99.126 1.989.27 2.997h-10.962Zm39.204 0c.216-2.016.324-4.014.324-5.994V60.654c0-1.944-.108-3.942-.324-5.994h24.57l.432 8.748a30.24 30.24 0 0 0-3.402-.351 72.661 72.661 0 0 0-3.402-.081h-7.668v6.642h6.048c1.008 0 1.98-.027 2.916-.081a34.822 34.822 0 0 0 2.916-.297v7.992a28.338 28.338 0 0 0-2.916-.27 75.94 75.94 0 0 0-2.916-.054h-6.048v7.776h7.668c1.152 0 2.367-.036 3.645-.108a57.751 57.751 0 0 0 3.699-.324L287.79 93h-25.11Zm40.824 0a16.95 16.95 0 0 0-.459-2.7 54.467 54.467 0 0 0-.783-2.808L291.246 54.66h11.988c.072 1.008.198 1.989.378 2.943s.396 1.899.648 2.835l6.534 22.572 6.588-22.572c.504-1.8.846-3.726 1.026-5.778h11.448l-10.908 32.832a33.195 33.195 0 0 0-.837 2.808 16.95 16.95 0 0 0-.459 2.7h-14.148Zm30.402 0c.216-2.016.324-4.014.324-5.994V60.654c0-1.944-.108-3.942-.324-5.994h24.57l.432 8.748a30.24 30.24 0 0 0-3.402-.351 72.661 72.661 0 0 0-3.402-.081h-7.668v6.642h6.048c1.008 0 1.98-.027 2.916-.081a34.822 34.822 0 0 0 2.916-.297v7.992a28.338 28.338 0 0 0-2.916-.27 75.94 75.94 0 0 0-2.916-.054h-6.048v7.776h7.668c1.152 0 2.367-.036 3.645-.108a57.751 57.751 0 0 0 3.699-.324L359.016 93h-25.11Zm30.726 0c.144-1.008.243-2.007.297-2.997.054-.99.081-1.989.081-2.997V60.654c0-.936-.027-1.917-.081-2.943a24.734 24.734 0 0 0-.351-3.051h14.094c5.112 0 8.802 1.008 11.07 3.024 2.268 2.016 3.402 4.842 3.402 8.478 0 2.124-.441 3.978-1.323 5.562-.882 1.584-2.475 2.898-4.779 3.942 1.692.72 2.934 1.719 3.726 2.997.792 1.278 1.512 3.069 2.16 5.373l.918 3.564c.468 1.98 1.116 3.78 1.944 5.4h-10.692l-1.674-6.588c-.396-1.692-.882-2.952-1.458-3.78-.576-.828-1.314-1.386-2.214-1.674-.9-.288-2.052-.432-3.456-.432h-1.134v6.48c0 1.008.027 2.007.081 2.997.054.99.171 1.989.351 2.997h-10.962Zm12.906-30.024h-2.376V73.02h2.484c2.232 0 3.78-.459 4.644-1.377.864-.918 1.296-2.151 1.296-3.699 0-1.584-.459-2.808-1.377-3.672-.918-.864-2.475-1.296-4.671-1.296Z"/></svg>