<svg xmlns="http://www.w3.org/2000/svg" viewBox="0 0 140 510" style="max-width:140px;">

<g fill="none" fill-rule="evenodd">

<path fill="#FCBD0E" d="m123.765 522.623-3.971 2.978V505.31z"/>

<path fill="#969698" d="M42.68 586.326V27.498L85.319 48.31a27.218 27.218 0 0 0 15.301 24.465v466.87l-14.267 27.062-43.671 19.62Z"/>

<path fill="#89898B" d="M100.618 95.291 42.679 66.985v-4.249l57.939 28.279zM100.617 132.695l-57.938-28.306v-4.249l57.938 28.279zM100.617 170.099l-57.939-28.306v-4.249l57.939 28.279zM100.617 207.504l-57.938-28.306v-4.249l57.938 28.279zM100.617 244.908l-57.939-28.306v-4.249l57.939 28.279zM100.617 282.313l-57.938-28.306v-4.249l57.938 28.279zM100.618 319.718 42.68 291.412v-4.249l57.938 28.279zM100.618 357.122l-57.939-28.306v-4.249l57.939 28.279zM100.617 394.526 42.679 366.22v-4.249l57.938 28.279zM100.618 431.931l-57.939-28.306v-4.249l57.939 28.279zM100.617 469.335l-57.938-28.306v-4.249l57.938 28.279zM100.617 506.739l-57.939-28.306v-4.249l57.939 28.279z"/>

<path fill="#A0A2A5" d="M100.617 91.042 42.679 62.736v-4.249l57.938 28.279zM100.617 128.446 42.679 100.14v-4.249l57.938 28.279zM100.618 165.851l-57.939-28.306v-4.249l57.939 28.279zM100.617 203.255l-57.938-28.306V170.7l57.938 28.279zM100.617 240.659l-57.939-28.306v-4.249l57.939 28.279zM100.617 278.064l-57.938-28.306v-4.249l57.938 28.279zM100.617 315.468l-57.939-28.306v-4.249l57.939 28.279zM100.617 352.873l-57.938-28.306v-4.249l57.938 28.279zM100.618 390.278 42.68 361.972v-4.249l57.938 28.279zM100.618 427.682l-57.939-28.306v-4.249l57.939 28.279zM100.617 465.086 42.679 436.78v-4.249l57.938 28.279zM100.618 502.491l-57.939-28.306v-4.249l57.939 28.279zM100.617 539.895l-57.938-28.306v-4.249l57.938 28.279z"/>

<path fill="#747477" d="m100.091 133.068-10.328-4.876c-4.964-2.344-10.687 1.262-10.687 6.732v446.018l21.015-22.101V133.068Z"/>

<path fill="#C4C5C7" d="M85.889 574.148V128.142c0-5.169 5.054-8.66 9.81-7.09.298.08.597.216.896.35l10.327 4.872V552.04L85.89 574.148Z"/>

<path fill="#C36800" d="m71.16 547.609-11.767 4.969c-3.594 1.506-7.36 1.138-10.407-.49v31.405l36.913-16.583v7.24l15.42-16.22a133.42 133.42 0 0 0 5.596-11.98V184.876l-2.709-19.023-14.078 5.024V519.26c0 12.344-7.471 23.484-18.967 28.348" opacity=".489"/>

<path fill="#DCDDDE" d="M106.922 391.482H95.698v-270.43c.299.082.598.217.897.353l10.327 4.871v265.206Z"/>

<path fill="#C4C5C7" d="m35.668 126.275 10.329-4.877c4.964-2.343 10.687 1.262 10.687 6.732v446.018l-21.016-22.101V126.275Z"/>

<path fill="#FCBD0E" d="M-4.687 528.82c31.93-79.21 16.141-201.774 9.62-242.367-1.386-8.659-2.364-13.584-2.364-13.584l17.881-80.293 28.534-11.5v359.76c0 8.551 8.778 14.314 16.685 10.959l11.768-5.033c11.494-4.926 18.968-16.21 18.968-28.713V165.19l14.077-5.089 3.043 21.65s.653 4.169 1.685 11.637c6.06 42.784 25.518 193.573 13.94 284.014-2.255 17.671-5.163 32.582-8.532 45.22-6.604 24.518-15.028 40.566-24.213 51.77-14.567 17.78-31.144 23.272-45.382 30.878-.653.35-1.333.702-2.039 1.027-6.36 3.085-14.376 5.63-22.583 6.684-29.05 3.68-60.573-11.041-31.088-84.162"/>

<path fill="#C36800" d="M26.402 612.983c8.206-1.055 16.223-3.6 22.583-6.684a36.062 36.062 0 0 0 2.038-1.03c14.24-7.603 30.816-13.097 45.382-30.876a88.193 88.193 0 0 0 2.65-3.415c-11.27 8.936-23.002 13.356-33.472 18.888a36.02 36.02 0 0 1-2.038 1.018c-6.36 3.053-14.377 5.57-22.584 6.615-29.05 3.64-60.573-10.926-31.088-83.276 31.93-78.376 16.143-199.647 9.62-239.813-1.386-8.57-2.364-13.442-2.364-13.442l16.597-73.742-13.276 5.352-17.88 80.29s.977 4.926 2.363 13.587c6.521 40.593 22.311 163.156-9.62 242.366-29.485 73.12 2.038 87.842 31.089 84.162" opacity=".489"/>

<path fill="#26282C" d="M60.224 414.317c-5.516 1.803-9.146-.654-9.498-6.374-5.745-.35-8.213-3.966-6.403-9.458-5.22-2.536-6.161-6.95-2.347-11.58-3.814-4.634-2.872-9.047 2.347-11.583-1.81-5.492.658-9.107 6.403-9.456.352-5.722 3.982-8.179 9.498-6.376 2.545-5.198 6.977-6.136 11.629-2.34 4.65-3.796 9.083-2.858 11.63 2.34 5.515-1.803 9.145.654 9.497 6.376 5.745.349 8.211 3.964 6.403 9.456 5.218 2.536 6.161 6.95 2.347 11.582 3.814 4.632 2.87 9.045-2.347 11.58 1.808 5.493-.658 9.108-6.403 9.459-.352 5.72-3.982 8.177-9.498 6.374-2.546 5.198-6.978 6.138-11.629 2.34-4.652 3.798-9.084 2.858-11.63-2.34Z"/>

<path fill="#FFBA1B" d="M74.052 386.597a2.44 2.44 0 0 1-2.432 2.44 2.44 2.44 0 0 1-2.432-2.44 2.44 2.44 0 0 1 2.432-2.44 2.44 2.44 0 0 1 2.432 2.44m-9.927-4.042a8.505 8.505 0 0 0-1.017 4.042c0 .46.046.907.117 1.348a7.316 7.316 0 0 1 5.945 6.826 8.43 8.43 0 0 0 4.9 0 7.316 7.316 0 0 1 5.946-6.826c.07-.44.117-.888.117-1.348 0-1.46-.369-2.838-1.017-4.042a34.473 34.473 0 0 0-14.991 0"/>

<path fill="#FFBA1B" d="M71.62 396.356c-5.364 0-9.728-4.378-9.728-9.76 0-5.38 4.364-9.759 9.728-9.759s9.729 4.379 9.729 9.76c0 5.38-4.365 9.759-9.729 9.759m-14.592-9.76c0 8.073 6.546 14.64 14.592 14.64 8.047 0 14.593-6.567 14.593-14.64 0-8.071-6.546-14.638-14.593-14.638-8.046 0-14.592 6.567-14.592 14.639Z"/>

<path fill="#26282C" d="M123.766 522.623c-8.113-15.155-14.875-36.371-10.454-61.457 9.069-51.417-7.422-265.206-7.422-265.206l11.313-2.57c7.354 42.785 30.97 193.572 16.92 284.012-2.738 17.672-6.267 32.584-10.357 45.221M69.882 335.554c-3.752 0-6.793-3.028-6.793-6.765 0-3.736 3.041-6.765 6.793-6.765 3.753 0 6.794 3.029 6.794 6.765 0 3.737-3.041 6.765-6.794 6.765"/></g></svg>