<svg xmlns="http://www.w3.org/2000/svg" viewBox="0 0 340 500"><g fill="none" fill-rule="evenodd"><path fill="#6D6D6F" d="m226.388 282.107-35.758 11.804-8.58-26.297-1.18-3.613-7.193-5.46a43.5 43.5 0 0 1-4.08.21c-24.609 0-44.55-19.913-44.55-44.446 0-1.68.127-3.361.295-5l-5.174-2.015-2.356-12.435-3.617-19.324a166.882 166.882 0 0 1 .21-63.14l17.332-88.176 9.464-3.822 1.053-.38 4.711 60.998c-16.027 20.207 3.701 32.557 3.701 32.557l2.82 47.764.589 10.25c.126.042.714.084 2.608.168a43.702 43.702 0 0 1 12.913-1.933c21.96 0 40.175 15.922 43.792 36.842.253 1.513.253 1.513.42 2.646.17 1.639.297 3.32.297 5a44.63 44.63 0 0 1-2.02 13.232l6.395 6.554.84 3.53 4.964 20.877 2.104 23.609Z"/><path fill="#494A4C" d="M219.32 237.62c-7.109 14.956-20.78 26.17-37.27 29.994l-1.18-3.613-7.193-5.461c-1.346.126-2.692.21-4.08.21-24.609 0-44.55-19.911-44.55-44.445 0-1.68.127-3.362.295-4.999l-5.174-2.016-2.356-12.436c5.975-16.005 19.183-28.523 35.673-33.522l.59 10.25c.126.041.714.085 2.608.169a43.646 43.646 0 0 1 12.914-1.933c21.96 0 40.175 15.922 43.791 36.842.253 1.511.253 1.511.42 2.646.17 1.637.297 3.318.297 4.999 0 4.579-.717 9.032-2.02 13.233l6.395 6.552.84 3.53Z"/><path fill="#858789" d="m114.713 258.488 5.783-24.419 6.395-6.532a44.373 44.373 0 0 1-2.012-13.245c0-1.683.112-3.335.294-4.968.162-1.136.162-1.136.408-2.673 3.634-20.907 21.845-36.82 43.82-36.82 4.49 0 8.82.68 12.909 1.915 3.112-.075 2.602-.165 2.602-.165l3.418-58.024s19.719-12.34 3.68-32.557l4.733-61 1.027.41 9.49 3.791 17.298 88.172a167.361 167.361 0 0 1 .245 63.155l-5.974 31.762-5.203 2.033c.182 1.633.295 3.286.295 4.969 0 24.553-19.933 44.458-44.52 44.458-1.385 0-2.75-.082-4.101-.207l-7.205 5.458-9.728 29.931-35.758-11.815 2.104-23.63Z"/><path fill="#26282C" d="M154.075 292.357s-1.431 5.377-4.46 15.04c-3.576 11.467-9.465 28.985-17.92 50.705-9.676 24.784-22.674 54.988-39.586 87.924-40.888 79.732-63.184 185.888-62.343 271.796.126 11.132-9.045 20.164-20.193 20.164-5.3 0-10.18-2.058-13.798-5.376-3.617-3.362-6.015-8.025-6.393-13.318-.8-11.468-1.557-27.725-1.347-47.302.463-56.711 8.582-141.527 45.181-220.335 13.082-28.146 23.894-52.386 32.812-73.096 11.19-25.92 19.435-46.336 25.45-62.047 4.67-12.183 7.993-21.55 10.349-28.44 3.744-11.132 4.923-15.921 4.923-15.921 1.555.503 47.325 20.206 47.325 20.206"/><path fill="#CC1441" d="M149.615 307.396a580.876 580.876 0 0 0-1.893 5.924c-3.617 11.215-8.919 26.507-16.028 44.781l-40.216-41.589s-4.669-19.744-27.596-18.106c-4.249.336-7.866-3.318-7.277-7.56a62.18 62.18 0 0 1 2.944-12.226c1.263-3.654 5.26-5.503 8.835-4.074l10.6 4.285 22.842 9.242 47.789 19.323Z"/><path fill="#26282C" d="M232.237 272.14c-1.578.525-47.324 20.218-47.324 20.218s17.79 67.563 61.96 153.682c40.9 79.74 63.164 185.89 62.34 271.765-.106 11.154 9.04 20.195 20.209 20.195 10.598 0 19.416-8.156 20.16-18.713 3.15-44.645 5.415-161.593-43.815-267.647-62.4-134.428-73.53-179.5-73.53-179.5"/><path fill="#5E5E60" d="M202.367 214.032c0 18.131-14.718 32.83-32.876 32.83-18.157 0-32.875-14.699-32.875-32.83 0-18.132 14.718-32.831 32.875-32.831 18.158 0 32.876 14.7 32.876 32.83"/><path fill="#4C4C4E" d="M169.491 240.281c-17.33 0-31.492-11.716-32.752-28.7-.06.812-.125 1.624-.125 2.451 0 18.132 14.72 32.83 32.877 32.83 18.157 0 32.877-14.698 32.877-32.83 0-.827-.065-1.639-.125-2.451-1.26 16.984-15.422 28.7-32.752 28.7"/><path fill="#858789" d="M189.389 214.032c0 10.973-8.908 19.87-19.898 19.87s-19.897-8.897-19.897-19.87c0-10.974 8.908-19.87 19.897-19.87 10.99 0 19.898 8.896 19.898 19.87"/><path fill="#B8B9BA" d="M169.491 197.312c10.449 0 18.921 8.071 19.74 18.295.041-.529.158-1.036.158-1.575 0-10.974-8.909-19.87-19.898-19.87-10.989 0-19.898 8.896-19.898 19.87 0 .54.117 1.046.16 1.575.817-10.224 9.29-18.295 19.738-18.295"/><path fill="#CC1441" d="M66.996 445.605C46.593 481.691 32.332 521.18 24.929 561.97c-4.375 24.24-6.479 49.235-16.323 71.794-5.763 13.274-14.05 25.288-20.57 38.227.462-56.712 8.582-141.527 45.18-220.335 13.083-28.147 23.893-52.385 32.813-73.096 6.52 4.37 11.82 10.545 14.217 17.98 5.385 16.635-4.67 33.816-13.25 49.066m122.371-138.209c3.577 11.469 9.465 28.986 17.921 50.705l40.216-41.589s4.67-19.744 27.596-18.106c4.249.336 7.866-3.318 7.277-7.56a62.18 62.18 0 0 0-2.944-12.226c-1.263-3.654-5.258-5.503-8.834-4.074l-33.443 13.527-47.789 19.323Zm82.62 138.21c20.403 36.085 34.663 75.573 42.067 116.363 4.375 24.24 6.478 49.235 16.323 71.794 5.762 13.274 14.05 25.288 20.57 38.227-.463-56.712-8.583-141.527-45.18-220.335-13.083-28.147-23.895-52.385-32.813-73.096-6.52 4.37-11.821 10.545-14.219 17.98-5.384 16.635 4.671 33.816 13.252 49.066"/><path fill="#DB5B7A" d="M149.615 307.396a580.876 580.876 0 0 0-1.893 5.924c-37.566-10.88-58.557-25.5-68.738-34.489l22.842 9.242 47.789 19.323Zm39.752 0c.589 1.807 1.22 3.782 1.894 5.924 37.565-10.88 58.556-25.5 68.738-34.489l-22.843 9.242-47.789 19.323Z"/><path fill="#5D6163" d="m149.516 290.396-36.261-15.532.501-5.628 37.169 16.822z"/><path fill="#4B5052" d="m189.467 290.396 36.261-15.532-.502-5.628-37.169 16.822z"/></g></svg>