<svg xmlns="http://www.w3.org/2000/svg" viewBox="0 0 470 30"><path fill="#FFF" d="M15.565 18.442c-.012 4.07-.782 6.977-2.31 8.721-1.527 1.744-3.806 2.616-6.837 2.616-.68 0-1.277-.03-1.79-.092a18.626 18.626 0 0 1-1.42-.223c-1.014-.223-1.741-.575-2.18-1.058-.44-.482-.659-1.113-.659-1.892 0-.792.235-1.42.705-1.884.47-.463 1.12-.695 1.948-.695.36 0 .684.03.975.092.29.062.59.093.9.093 1.113 0 2.013-.176 2.7-.529.686-.352 1.193-.965 1.52-1.837.328-.872.505-2.087.53-3.646l.24-11.8c.05-1.757.332-2.947.845-3.572.513-.625 1.178-.937 1.995-.937.952 0 1.66.321 2.124.965.464.643.684 1.843.659 3.6l.055 12.078Zm2.487-9.203c-.013-2.028.164-3.578.529-4.648.364-1.07.992-1.8 1.883-2.19.89-.389 2.103-.565 3.637-.528l5.64.26c1.175.012 2.05.256 2.626.733.575.476.862 1.085.862 1.827 0 .73-.238 1.308-.714 1.735-.476.427-1.265.677-2.366.752l-4.156.148c-.792.05-1.314.189-1.568.418-.253.228-.392.67-.417 1.326l-.112 1.93c-.024.742.106 1.262.39 1.559.285.296.823.457 1.614.482l3.322.148c1.917.075 2.876.792 2.876 2.153 0 .73-.242 1.268-.724 1.614-.482.346-1.181.55-2.097.612l-2.95.093c-.928.05-1.586.263-1.976.64-.39.378-.541 1.036-.455 1.976l.186 1.837c.062.656.16 1.154.297 1.494.136.34.377.569.724.686.346.118.865.183 1.558.195l2.95.019c1.287.05 2.215.266 2.784.65.569.383.853.94.853 1.67 0 .902-.312 1.592-.937 2.068s-1.692.745-3.2.807l-4.342-.037c-1.336.05-2.422-.025-3.257-.223s-1.472-.587-1.91-1.169c-.44-.581-.746-1.41-.92-2.486-.173-1.076-.272-2.468-.296-4.175L18.052 9.24ZM59.373 23.99c-.334 1.485-.696 2.629-1.085 3.433-.39.804-.826 1.357-1.309 1.66-.482.304-1.039.455-1.67.455-.84 0-1.617-.303-2.328-.91-.711-.605-1.259-1.768-1.642-3.487l-1.559-7.31c-.111-.545-.253-.92-.426-1.123a.799.799 0 0 0-.631-.307c-.235 0-.449.106-.64.316-.192.21-.35.606-.474 1.187l-1.67 7.422c-.321 1.596-.788 2.73-1.4 3.405-.613.674-1.45 1.011-2.515 1.011-.717 0-1.363-.154-1.939-.464-.575-.309-1.082-.887-1.521-1.735-.44-.847-.813-2.075-1.123-3.683L34.213 8.07c-.322-1.67-.399-2.962-.232-3.878.167-.915.495-1.555.983-1.92.489-.365 1.061-.547 1.717-.547.606 0 1.128.133 1.568.399.439.265.813.745 1.122 1.438.31.692.557 1.688.742 2.987l1.336 8.646c.112.767.263 1.271.455 1.513.192.24.411.361.658.361.248 0 .464-.111.65-.334.185-.222.365-.705.538-1.447l1.985-9.055c.248-1.014.616-1.731 1.104-2.152.489-.42 1.08-.63 1.772-.63.718 0 1.342.219 1.874.658.532.439.916 1.153 1.15 2.143l1.949 9.574c.136.582.29.974.464 1.178.173.204.37.307.594.307.26 0 .485-.112.677-.334.192-.223.35-.662.473-1.318l1.707-9.63c.31-1.546.708-2.628 1.197-3.247.488-.618 1.172-.928 2.05-.928 1.15 0 1.945.498 2.384 1.494.44.996.43 2.527-.027 4.592l-3.73 16.05Zm5.492-14.75c-.012-2.03.164-3.579.529-4.649.365-1.07.993-1.8 1.883-2.19.891-.389 2.103-.565 3.637-.528l5.64.26c1.176.012 2.051.256 2.626.733.575.476.863 1.085.863 1.827 0 .73-.238 1.308-.714 1.735-.477.427-1.265.677-2.366.752l-4.156.148c-.792.05-1.315.189-1.568.418-.254.228-.393.67-.418 1.326l-.111 1.93c-.025.742.105 1.262.39 1.559.284.296.822.457 1.614.482l3.321.148c1.917.075 2.876.792 2.876 2.153 0 .73-.241 1.268-.724 1.614-.482.346-1.18.55-2.096.612l-2.95.093c-.928.05-1.587.263-1.976.64-.39.378-.542 1.036-.455 1.976l.186 1.837c.061.656.16 1.154.296 1.494.136.34.378.569.724.686.346.118.866.183 1.559.195l2.95.019c1.286.05 2.214.266 2.783.65.569.383.854.94.854 1.67 0 .902-.313 1.592-.937 2.068-.625.476-1.692.745-3.201.807l-4.342-.037c-1.336.05-2.421-.025-3.256-.223s-1.472-.587-1.911-1.169c-.44-.581-.746-1.41-.919-2.486-.173-1.076-.272-2.468-.297-4.175L64.865 9.24ZM81.49 7.401c0-1.496.136-2.64.408-3.432.273-.792.637-1.34 1.095-1.642a2.637 2.637 0 0 1 1.485-.455c.977 0 1.728.356 2.254 1.067s.751 2.081.677 4.11l.019 13.804c-.025 1.324.151 2.205.529 2.645.377.439 1.172.621 2.384.547l2.653-.167c1.472-.1 2.499.083 3.08.547.582.464.872 1.203.872 2.218 0 .927-.324 1.61-.974 2.05-.65.439-1.729.659-3.238.659a26.755 26.755 0 0 0-2.226.055c-.742.05-1.447.1-2.115.149a46.213 46.213 0 0 1-2.116.148c-1.076.025-1.948-.158-2.616-.547-.668-.39-1.156-1.073-1.466-2.05-.309-.978-.47-2.326-.482-4.046l-.223-15.66Zm16.625 0c0-1.496.136-2.64.408-3.432.273-.792.637-1.34 1.095-1.642a2.637 2.637 0 0 1 1.485-.455c.977 0 1.728.356 2.254 1.067s.751 2.081.677 4.11l.019 13.804c-.025 1.324.151 2.205.529 2.645.377.439 1.172.621 2.384.547l2.653-.167c1.472-.1 2.499.083 3.08.547.582.464.872 1.203.872 2.218 0 .927-.324 1.61-.974 2.05-.65.439-1.729.659-3.238.659a26.755 26.755 0 0 0-2.226.055c-.742.05-1.447.1-2.115.149a46.212 46.212 0 0 1-2.116.148c-1.076.025-1.948-.158-2.616-.547-.668-.39-1.156-1.073-1.466-2.05-.309-.978-.47-2.326-.482-4.046l-.223-15.66ZM114.87 9.24c-.012-2.028.164-3.578.529-4.648.365-1.07.993-1.8 1.883-2.19.89-.389 2.103-.565 3.637-.528l5.64.26c1.176.012 2.05.256 2.626.733.575.476.863 1.085.863 1.827 0 .73-.238 1.308-.715 1.735-.476.427-1.264.677-2.365.752l-4.156.148c-.792.05-1.315.189-1.568.418-.254.228-.393.67-.418 1.326l-.111 1.93c-.025.742.105 1.262.39 1.559.284.296.822.457 1.614.482l3.321.148c1.917.075 2.876.792 2.876 2.153 0 .73-.241 1.268-.724 1.614-.482.346-1.18.55-2.096.612l-2.95.093c-.928.05-1.587.263-1.977.64-.39.378-.54 1.036-.454 1.976l.185 1.837c.062.656.161 1.154.297 1.494.136.34.378.569.724.686.346.118.866.183 1.558.195l2.95.019c1.287.05 2.215.266 2.784.65.569.383.853.94.853 1.67 0 .902-.312 1.592-.937 2.068-.624.476-1.691.745-3.2.807l-4.342-.037c-1.336.05-2.421-.025-3.256-.223s-1.472-.587-1.912-1.169c-.439-.581-.745-1.41-.918-2.486-.173-1.076-.272-2.468-.297-4.175L114.87 9.24Zm19.631 20.095a2.525 2.525 0 0 1-1.484-.455c-.433-.303-.764-.872-.993-1.707-.229-.835-.319-2.056-.27-3.664l.13-14.176c.063-1.992.28-3.5.65-4.527.371-1.027.996-1.738 1.874-2.134.878-.396 2.11-.631 3.693-.705l.927-.037c3.6-.173 6.284.532 8.053 2.115 1.769 1.583 2.653 3.723 2.653 6.42 0 1.175-.126 2.146-.38 2.913-.254.767-.597 1.416-1.03 1.948-.433.532-.928 1.04-1.484 1.522-.26.21-.464.433-.612.668a1.53 1.53 0 0 0-.223.835c0 .272.037.566.111.881.074.315.198.659.371 1.03.235.47.55 1.008.947 1.614.395.606.97 1.423 1.725 2.45.643.828.965 1.675.965 2.541 0 .718-.241 1.336-.724 1.856-.482.52-1.144.779-1.985.779-1.064 0-1.954-.433-2.672-1.299a16.102 16.102 0 0 1-1.577-2.208 34.588 34.588 0 0 1-1.317-2.375c-.371-.742-.644-1.28-.817-1.614-.321-.643-.621-1.073-.9-1.29-.278-.216-.646-.324-1.104-.324h-.092c-.532 0-.925.151-1.179.454-.253.303-.399.838-.436 1.605l-.13 3.97c-.148 1.943-1.045 2.914-2.69 2.914Zm5.678-22.043h-.223c-.977 0-1.611.198-1.902.594-.29.396-.436 1.1-.436 2.115v.445c0 1.522.223 2.499.668 2.932.445.433 1.027.65 1.744.65h.149c2.202 0 3.302-1.083 3.302-3.248 0-2.325-1.1-3.488-3.302-3.488Zm10.947-.26c-.68-1.546-.863-2.832-.547-3.86.315-1.026 1.14-1.54 2.477-1.54.754 0 1.357.236 1.809.706.451.47.9 1.342 1.345 2.616l2.523 5.938c.248.618.455 1.039.622 1.261.167.223.35.334.547.334.223 0 .424-.111.603-.334.18-.222.418-.661.715-1.317l3.173-6.55c.395-.878.813-1.5 1.252-1.865.44-.364.993-.547 1.66-.547 1.176 0 1.927.448 2.255 1.345.328.897.22 1.958-.325 3.182l-4.119 8.276c-.198.42-.402.84-.612 1.261l-.668 1.336c-.26.52-.458.956-.594 1.309a5.6 5.6 0 0 0-.297 1.066 13.81 13.81 0 0 0-.148 1.41l-.204 4.936c-.198 2.388-1.095 3.581-2.69 3.581-.83 0-1.473-.281-1.93-.844-.458-.563-.718-1.475-.78-2.737l-.092-4.23c-.025-.891-.093-1.574-.205-2.05a7.243 7.243 0 0 0-.519-1.457 77.983 77.983 0 0 0-.64-1.401c-.229-.489-.467-1.005-.715-1.55l-3.896-8.275Zm29.02 22.303a2.525 2.525 0 0 1-1.485-.455c-.433-.303-.764-.872-.993-1.707-.228-.835-.318-2.056-.269-3.664l.13-14.176c.062-1.992.279-3.5.65-4.527.37-1.027.995-1.738 1.874-2.134.878-.396 2.109-.631 3.692-.705l.928-.037c3.6-.173 6.284.532 8.053 2.115 1.768 1.583 2.653 3.723 2.653 6.42 0 1.175-.127 2.146-.38 2.913-.254.767-.597 1.416-1.03 1.948-.433.532-.928 1.04-1.485 1.522-.26.21-.463.433-.612.668a1.53 1.53 0 0 0-.223.835c0 .272.038.566.112.881.074.315.198.659.37 1.03.236.47.551 1.008.947 1.614.396.606.971 1.423 1.726 2.45.643.828.965 1.675.965 2.541 0 .718-.242 1.336-.724 1.856s-1.144.779-1.985.779c-1.064 0-1.955-.433-2.672-1.299a16.102 16.102 0 0 1-1.577-2.208 34.588 34.588 0 0 1-1.318-2.375c-.37-.742-.643-1.28-.816-1.614-.322-.643-.622-1.073-.9-1.29-.278-.216-.646-.324-1.104-.324h-.093c-.532 0-.925.151-1.178.454-.254.303-.4.838-.436 1.605l-.13 3.97c-.149 1.943-1.045 2.914-2.69 2.914Zm5.677-22.043h-.222c-.978 0-1.612.198-1.902.594-.291.396-.436 1.1-.436 2.115v.445c0 1.522.222 2.499.668 2.932.445.433 1.026.65 1.744.65h.148c2.202 0 3.303-1.083 3.303-3.248 0-2.325-1.1-3.488-3.303-3.488Zm21.616 22.488c-1.608 0-3.073-.238-4.397-.714a8.037 8.037 0 0 1-3.405-2.357c-.946-1.094-1.676-2.572-2.19-4.434-.513-1.862-.77-4.184-.77-6.967v-.613c0-2.882.452-5.29 1.355-7.227.903-1.936 2.143-3.395 3.72-4.379 1.578-.983 3.374-1.475 5.39-1.475 3.167 0 5.697 1.058 7.59 3.173 1.892 2.115 2.838 5.338 2.838 9.667v.631c0 3.439-.408 6.24-1.224 8.405-.817 2.165-1.98 3.754-3.489 4.769-1.509 1.014-3.315 1.521-5.418 1.521Zm3.971-13.526c0-2.462-.396-4.376-1.187-5.743-.792-1.367-1.8-2.05-3.025-2.05-1.534 0-2.625.702-3.275 2.106-.65 1.404-.974 3.213-.974 5.427v.316c0 2.078.371 3.741 1.113 4.99.743 1.25 1.868 1.875 3.377 1.875 1.51 0 2.549-.51 3.118-1.53.569-1.021.853-2.707.853-5.057v-.334Zm8.257-6.568c.012-2.041.204-3.6.575-4.676s.987-1.828 1.846-2.255c.86-.426 2.014-.695 3.46-.807l2.042-.13c3.179-.235 5.579.325 7.2 1.68 1.62 1.354 2.43 3.176 2.43 5.464 0 1.98-.742 3.507-2.227 4.583-.532.396-.798.767-.798 1.113 0 .31.297.656.89 1.04.99.568 1.739 1.292 2.246 2.17.507.878.76 2.004.76 3.377 0 2.524-.884 4.475-2.653 5.854-1.768 1.38-4.131 2.069-7.087 2.069h-2.45c-1.583 0-2.835-.16-3.757-.482-.922-.322-1.577-.99-1.967-2.004-.39-1.015-.584-2.567-.584-4.658l.074-12.338Zm8.684 14.435c.952 0 1.738-.306 2.356-.918a3.028 3.028 0 0 0 .928-2.236c0-1.089-.34-1.924-1.02-2.505-.681-.581-1.652-.823-2.914-.724l-.63.056c-.693.05-1.194.204-1.504.464-.309.26-.463.699-.463 1.317v2.45c0 .791.216 1.338.649 1.642.433.303.878.454 1.336.454h1.262Zm-.297-11.522c.84.05 1.53-.161 2.069-.631.538-.47.807-1.194.807-2.171 0-1.027-.282-1.744-.845-2.152-.562-.409-1.351-.526-2.365-.353l-.167.019c-.656.099-1.154.324-1.494.677-.34.352-.529.887-.566 1.605l-.055 1.262c-.038.63.027 1.057.194 1.28.167.222.48.346.937.37l1.485.094Zm11.281-2.913c.012-2.041.204-3.6.575-4.676s.987-1.828 1.846-2.255c.86-.426 2.014-.695 3.46-.807l2.042-.13c3.179-.235 5.579.325 7.199 1.68 1.62 1.354 2.43 3.176 2.43 5.464 0 1.98-.741 3.507-2.226 4.583-.532.396-.798.767-.798 1.113 0 .31.297.656.89 1.04.99.568 1.739 1.292 2.246 2.17.507.878.76 2.004.76 3.377 0 2.524-.884 4.475-2.653 5.854-1.768 1.38-4.131 2.069-7.087 2.069h-2.45c-1.583 0-2.835-.16-3.757-.482-.922-.322-1.577-.99-1.967-2.004-.39-1.015-.584-2.567-.584-4.658l.074-12.338Zm8.684 14.435c.952 0 1.738-.306 2.356-.918a3.028 3.028 0 0 0 .928-2.236c0-1.089-.34-1.924-1.02-2.505-.681-.581-1.652-.823-2.914-.724l-.63.056c-.693.05-1.194.204-1.504.464-.309.26-.464.699-.464 1.317v2.45c0 .791.217 1.338.65 1.642.433.303.878.454 1.336.454h1.262Zm-.297-11.522c.84.05 1.53-.161 2.069-.631.538-.47.807-1.194.807-2.171 0-1.027-.282-1.744-.845-2.152-.562-.409-1.351-.526-2.365-.353l-.167.019c-.656.099-1.154.324-1.494.677-.34.352-.529.887-.566 1.605l-.056 1.262c-.037.63.028 1.057.195 1.28.167.222.48.346.937.37l1.485.094Zm11.151-3.359c-.012-2.028.164-3.578.529-4.648.365-1.07.993-1.8 1.883-2.19.89-.389 2.103-.565 3.637-.528l5.64.26c1.176.012 2.05.256 2.626.733.575.476.863 1.085.863 1.827 0 .73-.238 1.308-.715 1.735-.476.427-1.264.677-2.365.752l-4.157.148c-.791.05-1.314.189-1.567.418-.254.228-.393.67-.418 1.326l-.111 1.93c-.025.742.105 1.262.39 1.559.284.296.822.457 1.614.482l3.321.148c1.917.075 2.876.792 2.876 2.153 0 .73-.241 1.268-.724 1.614-.482.346-1.181.55-2.096.612l-2.95.093c-.928.05-1.587.263-1.977.64-.39.378-.54 1.036-.454 1.976l.185 1.837c.062.656.161 1.154.297 1.494.136.34.377.569.724.686.346.118.866.183 1.558.195l2.95.019c1.287.05 2.215.266 2.784.65.569.383.853.94.853 1.67 0 .902-.312 1.592-.937 2.068-.624.476-1.691.745-3.2.807l-4.342-.037c-1.336.05-2.422-.025-3.257-.223-.834-.198-1.472-.587-1.91-1.169-.44-.581-.746-1.41-.92-2.486-.172-1.076-.271-2.468-.296-4.175l-.334-12.376Zm19.63 20.095a2.525 2.525 0 0 1-1.483-.455c-.433-.303-.764-.872-.993-1.707-.229-.835-.319-2.056-.27-3.664l.13-14.176c.063-1.992.279-3.5.65-4.527.371-1.027.996-1.738 1.874-2.134.878-.396 2.11-.631 3.693-.705l.927-.037c3.6-.173 6.284.532 8.053 2.115 1.769 1.583 2.653 3.723 2.653 6.42 0 1.175-.126 2.146-.38 2.913-.254.767-.597 1.416-1.03 1.948-.433.532-.928 1.04-1.484 1.522-.26.21-.464.433-.613.668a1.53 1.53 0 0 0-.222.835c0 .272.037.566.111.881.074.315.198.659.371 1.03.235.47.55 1.008.947 1.614.395.606.97 1.423 1.725 2.45.643.828.965 1.675.965 2.541 0 .718-.241 1.336-.724 1.856-.482.52-1.144.779-1.985.779-1.064 0-1.954-.433-2.672-1.299a16.103 16.103 0 0 1-1.577-2.208 34.588 34.588 0 0 1-1.317-2.375c-.372-.742-.644-1.28-.817-1.614-.321-.643-.621-1.073-.9-1.29-.278-.216-.646-.324-1.104-.324h-.093c-.531 0-.924.151-1.178.454-.253.303-.399.838-.436 1.605l-.13 3.97c-.148 1.943-1.045 2.914-2.69 2.914Zm5.679-22.043h-.223c-.977 0-1.611.198-1.902.594-.29.396-.436 1.1-.436 2.115v.445c0 1.522.223 2.499.668 2.932.445.433 1.027.65 1.744.65h.149c2.201 0 3.302-1.083 3.302-3.248 0-2.325-1.1-3.488-3.302-3.488Zm12.431 6.847c-1.088-1.274-1.633-2.901-1.633-4.88 0-1.559.387-2.9 1.16-4.027.773-1.125 1.862-1.991 3.266-2.597 1.404-.606 3.046-.91 4.926-.91.928 0 1.741.053 2.44.158.699.105 1.296.232 1.79.38.965.285 1.695.727 2.19 1.327.495.6.742 1.278.742 2.032 0 .804-.241 1.49-.723 2.06-.483.569-1.188.853-2.116.853-.606 0-1.314-.17-2.124-.51-.81-.34-1.735-.51-2.774-.51-.668 0-1.231.167-1.689.5-.457.335-.686.836-.686 1.504 0 .655.216 1.215.65 1.679.432.464 1.193.95 2.281 1.456l.613.279c1.67.742 2.993 1.524 3.97 2.347.978.822 1.677 1.735 2.097 2.737.42 1.002.631 2.152.631 3.45 0 1.584-.39 2.997-1.169 4.24-.78 1.244-1.899 2.224-3.358 2.941-1.46.718-3.21 1.077-5.251 1.077a15.75 15.75 0 0 1-2.607-.204 16.675 16.675 0 0 1-2.013-.446c-1.027-.321-1.745-.751-2.153-1.29-.408-.537-.612-1.24-.612-2.105 0-.693.247-1.32.742-1.884.495-.562 1.25-.844 2.264-.844.791 0 1.466.053 2.022.158.557.105 1.076.213 1.559.325.482.11.99.167 1.521.167 1.62 0 2.431-.712 2.431-2.134 0-.767-.226-1.398-.677-1.893-.452-.495-1.228-1.014-2.329-1.558l-.65-.334c-2.065-1.101-3.642-2.283-4.73-3.544Zm22.489-10.131c0 1.979-.433 3.432-1.3 4.36-.865.928-1.91 1.392-3.135 1.392-.544 0-.943-.14-1.197-.418-.253-.278-.38-.572-.38-.881 0-.359.09-.653.269-.881.18-.23.529-.424 1.048-.585.619-.198.928-.408.928-.63 0-.199-.13-.304-.39-.316a1.435 1.435 0 0 0-.139-.037 2.919 2.919 0 0 0-.213-.037c-.619-.075-1.117-.337-1.494-.789-.377-.451-.566-1.067-.566-1.846 0-.99.316-1.778.946-2.366.631-.587 1.386-.881 2.264-.881.854 0 1.627.328 2.32.983.692.656 1.039 1.633 1.039 2.932ZM341.608 23.1c-.655 2.4-1.37 4.072-2.143 5.019-.773.946-1.803 1.42-3.089 1.42-.829 0-1.537-.193-2.125-.576-.587-.384-1.116-1.048-1.586-1.995-.47-.946-.959-2.254-1.466-3.924l-4.156-14.565c-.705-2.363-.813-4.064-.325-5.103.489-1.04 1.284-1.559 2.385-1.559.816 0 1.478.31 1.985.928.507.619.946 1.689 1.317 3.21l2.672 10.576c.173.755.368 1.271.585 1.55.216.278.498.417.844.417.334 0 .628-.148.881-.445.254-.297.473-.823.659-1.577l2.43-10.502c.322-1.349.761-2.375 1.318-3.08.557-.706 1.28-1.058 2.17-1.058 1.312 0 2.169.473 2.57 1.42.403.946.313 2.452-.268 4.517L341.608 23.1Zm6.272-13.86c-.012-2.03.164-3.579.529-4.649.365-1.07.992-1.8 1.883-2.19.89-.389 2.103-.565 3.637-.528l5.64.26c1.175.012 2.05.256 2.626.733.575.476.863 1.085.863 1.827 0 .73-.239 1.308-.715 1.735-.476.427-1.265.677-2.365.752l-4.157.148c-.791.05-1.314.189-1.568.418-.253.228-.392.67-.417 1.326l-.111 1.93c-.025.742.105 1.262.39 1.559.284.296.822.457 1.614.482l3.32.148c1.918.075 2.877.792 2.877 2.153 0 .73-.241 1.268-.724 1.614-.482.346-1.181.55-2.097.612l-2.95.093c-.927.05-1.586.263-1.976.64-.39.378-.541 1.036-.454 1.976l.185 1.837c.062.656.161 1.154.297 1.494.136.34.377.569.724.686.346.118.866.183 1.558.195l2.95.019c1.287.05 2.215.266 2.784.65.569.383.853.94.853 1.67 0 .902-.312 1.592-.937 2.068s-1.691.745-3.2.807l-4.342-.037c-1.336.05-2.422-.025-3.257-.223s-1.472-.587-1.91-1.169c-.44-.581-.746-1.41-.92-2.486-.172-1.076-.271-2.468-.296-4.175L347.88 9.24Zm19.63 20.094a2.525 2.525 0 0 1-1.484-.455c-.433-.303-.763-.872-.992-1.707-.23-.835-.319-2.056-.27-3.664l.13-14.176c.062-1.992.279-3.5.65-4.527.371-1.027.996-1.738 1.874-2.134.878-.396 2.109-.631 3.692-.705l.928-.037c3.6-.173 6.284.532 8.053 2.115 1.769 1.583 2.653 3.723 2.653 6.42 0 1.175-.127 2.146-.38 2.913-.254.767-.597 1.416-1.03 1.948-.433.532-.928 1.04-1.484 1.522-.26.21-.464.433-.613.668a1.53 1.53 0 0 0-.222.835c0 .272.037.566.111.881.074.315.198.659.371 1.03.235.47.55 1.008.946 1.614.396.606.971 1.423 1.726 2.45.643.828.965 1.675.965 2.541 0 .718-.241 1.336-.724 1.856-.482.52-1.144.779-1.985.779-1.064 0-1.955-.433-2.672-1.299a16.103 16.103 0 0 1-1.577-2.208 34.588 34.588 0 0 1-1.318-2.375 138.21 138.21 0 0 0-.816-1.614c-.322-.643-.622-1.073-.9-1.29-.278-.216-.646-.324-1.104-.324h-.093c-.532 0-.924.151-1.178.454-.253.303-.399.838-.436 1.605l-.13 3.97c-.148 1.943-1.045 2.914-2.69 2.914Zm5.678-22.043h-.222c-.977 0-1.611.198-1.902.594-.29.396-.436 1.1-.436 2.115v.445c0 1.522.223 2.499.668 2.932.445.433 1.027.65 1.744.65h.148c2.202 0 3.303-1.083 3.303-3.248 0-2.325-1.1-3.488-3.303-3.488Zm11.356 2.394c-.012-2.079.176-3.653.566-4.723.39-1.07 1.014-1.793 1.874-2.17.86-.378 1.976-.566 3.349-.566h2.227c2.66 0 4.898.463 6.716 1.391 1.819.928 3.17 2.397 4.055 4.407.884 2.01 1.24 4.648 1.066 7.914l-.037.797c-.235 4.441-1.373 7.639-3.414 9.593-2.04 1.955-4.966 2.888-8.776 2.802l-1.577-.019c-1.51-.037-2.69-.24-3.544-.612-.854-.371-1.457-1.06-1.81-2.069-.352-1.008-.534-2.477-.547-4.407l-.148-12.338Zm8.46 12.877c1.51-.087 2.676-.653 3.498-1.698.823-1.045 1.315-2.706 1.476-4.982l.018-.204c.16-2.326-.182-4.008-1.03-5.047-.847-1.04-2.192-1.602-4.035-1.689l-.501-.037c-1.126-.05-1.701.464-1.726 1.54l-.26 10.558c-.012.618.109 1.048.362 1.29.254.24.696.349 1.327.324l.872-.055ZM406.18 6.456c-.05-1.707.17-2.898.658-3.572.489-.674 1.185-1.011 2.088-1.011.878 0 1.565.297 2.06.89.494.594.772 1.745.834 3.452l.39 18.258c.062 2.004-.18 3.349-.724 4.035-.544.687-1.274 1.03-2.19 1.03-.89 0-1.582-.325-2.077-.974-.495-.65-.773-1.852-.835-3.609l-.204-18.499Zm8.22 10.205-.056-1.466c-.149-3.29.185-5.953 1.002-7.987.816-2.035 2.069-3.52 3.757-4.454 1.689-.934 3.757-1.4 6.207-1.4 1.719 0 3.219.398 4.5 1.196 1.28.798 2.275 1.918 2.986 3.359.712 1.44 1.067 3.126 1.067 5.056 0 1.2-.235 2.15-.705 2.848-.47.699-1.237 1.048-2.3 1.048-.94 0-1.649-.281-2.125-.844s-.782-1.456-.919-2.681c-.074-.99-.358-1.812-.853-2.468-.495-.655-1.225-.99-2.19-1.002-1.41-.025-2.489.566-3.237 1.772-.749 1.206-1.129 3.065-1.141 5.576v1.15c-.013 2.425.321 4.215 1.002 5.372.68 1.156 1.694 1.784 3.043 1.883.89.05 1.648-.232 2.272-.844.625-.612 1.036-1.42 1.234-2.421.223-1.077.566-1.816 1.03-2.218.464-.402 1.03-.603 1.698-.603 1.051 0 1.818.334 2.3 1.002.483.668.75 1.565.799 2.69.136 2.672-.597 4.788-2.2 6.346-1.601 1.559-3.825 2.338-6.67 2.338-3.315-.012-5.838-1.048-7.57-3.108-1.732-2.06-2.709-5.44-2.932-10.14Zm31.71 8.628c-.038 2.981-.972 4.472-2.802 4.472-1.052 0-1.782-.337-2.19-1.011-.408-.675-.594-1.73-.556-3.164l.426-15.864c.025-.73-.096-1.24-.362-1.531-.265-.29-.732-.436-1.4-.436l-1.93.037c-.878-.012-1.55-.285-2.013-.816-.464-.532-.696-1.225-.696-2.079 0-.99.325-1.74.974-2.254.65-.513 1.568-.745 2.755-.696l11.115.334c.927.037 1.657.275 2.19.715.531.439.797 1.005.797 1.697 0 .718-.198 1.336-.594 1.856-.396.52-1.057.822-1.985.909l-1.893.13c-.569.05-.977.198-1.224.445-.248.248-.378.68-.39 1.299l-.223 15.957Zm8.757-11.151c-1.088-1.274-1.633-2.901-1.633-4.88 0-1.559.387-2.9 1.16-4.027.773-1.125 1.862-1.991 3.266-2.597 1.404-.606 3.046-.91 4.926-.91.928 0 1.741.053 2.44.158.699.105 1.296.232 1.79.38.965.285 1.695.727 2.19 1.327.495.6.742 1.278.742 2.032 0 .804-.241 1.49-.724 2.06-.482.569-1.187.853-2.115.853-.606 0-1.314-.17-2.124-.51-.81-.34-1.735-.51-2.774-.51-.668 0-1.231.167-1.689.5-.457.335-.686.836-.686 1.504 0 .655.216 1.215.65 1.679.432.464 1.193.95 2.281 1.456l.613.279c1.67.742 2.993 1.524 3.97 2.347.978.822 1.677 1.735 2.097 2.737.42 1.002.631 2.152.631 3.45 0 1.584-.39 2.997-1.169 4.24-.78 1.244-1.899 2.224-3.358 2.941-1.46.718-3.21 1.077-5.251 1.077a15.75 15.75 0 0 1-2.607-.204 16.675 16.675 0 0 1-2.013-.446c-1.027-.321-1.745-.751-2.153-1.29-.408-.537-.612-1.24-.612-2.105 0-.693.247-1.32.742-1.884.495-.562 1.25-.844 2.264-.844.791 0 1.466.053 2.022.158.557.105 1.076.213 1.559.325.482.11.99.167 1.521.167 1.62 0 2.43-.712 2.43-2.134 0-.767-.225-1.398-.676-1.893-.452-.495-1.228-1.014-2.329-1.558l-.65-.334c-2.065-1.101-3.642-2.283-4.73-3.544Z"/></svg>