<svg xmlns="http://www.w3.org/2000/svg" viewBox="0 0 440 125"><path fill="#FFF" d="M11.69 24.29c-.038 2.98-.972 4.47-2.802 4.47-1.052 0-1.782-.336-2.19-1.01-.408-.675-.594-1.73-.556-3.164l.426-15.864c.025-.73-.096-1.24-.361-1.531-.266-.29-.733-.436-1.401-.436l-1.93.037c-.878-.012-1.55-.285-2.013-.816C.399 5.444.167 4.75.167 3.897c0-.99.325-1.74.974-2.254.65-.513 1.568-.745 2.755-.696l11.115.334c.927.037 1.657.275 2.19.715.531.439.797 1.005.797 1.697 0 .718-.198 1.336-.594 1.856-.396.52-1.057.822-1.985.909l-1.893.13c-.569.05-.977.198-1.224.445-.248.248-.378.68-.39 1.299l-.223 15.957Zm26.05-1.318c-.05 2.09-.278 3.507-.686 4.249-.408.742-1.095 1.113-2.06 1.113-.841 0-1.453-.322-1.837-.965-.383-.643-.618-1.72-.705-3.228l-.111-4.268c-.05-.878-.232-1.521-.548-1.93-.315-.408-.813-.624-1.493-.65l-3.303-.129c-.643-.025-1.088.108-1.336.399-.247.29-.402.869-.464 1.735l-.297 4.991c-.136 1.534-.417 2.616-.844 3.247-.427.631-1.03.946-1.809.946-.52 0-.974-.145-1.364-.436-.39-.29-.702-.835-.937-1.632-.235-.798-.383-1.952-.445-3.46l-.26-16.552c-.05-1.447.04-2.563.27-3.349.228-.785.574-1.333 1.038-1.642.464-.31 1-.464 1.605-.464.73 0 1.336.27 1.819.807.482.538.785 1.525.909 2.96l.185 4.527c.062.742.201 1.277.418 1.605.216.328.61.492 1.178.492h3.581c.817 0 1.398-.136 1.744-.408.347-.272.538-.854.575-1.744l-.018-4.676c.087-1.324.356-2.252.807-2.783.452-.532 1.116-.798 1.995-.798.853 0 1.521.3 2.004.9.482.6.698 1.79.649 3.571l-.26 17.572Zm3.284-14.733c-.012-2.028.164-3.578.53-4.648.364-1.07.992-1.8 1.883-2.19.89-.389 2.102-.565 3.636-.528l5.64.26c1.176.012 2.051.256 2.626.733.576.476.863 1.085.863 1.827 0 .73-.238 1.308-.714 1.735-.476.427-1.265.677-2.366.752l-4.156.148c-.792.05-1.314.189-1.568.418-.254.228-.393.67-.418 1.326l-.11 1.93c-.026.742.104 1.262.389 1.559.284.296.822.457 1.614.482l3.321.148c1.918.075 2.876.792 2.876 2.153 0 .73-.24 1.268-.723 1.614-.483.346-1.182.55-2.097.612l-2.95.093c-.928.05-1.587.263-1.976.64-.39.378-.541 1.036-.455 1.976l.186 1.837c.062.656.16 1.154.297 1.494.136.34.377.569.723.686.347.118.866.183 1.559.195l2.95.019c1.286.05 2.214.266 2.783.65.57.383.854.94.854 1.67 0 .902-.313 1.592-.937 2.068-.625.476-1.692.745-3.201.807l-4.342-.037c-1.336.05-2.421-.025-3.256-.223s-1.472-.587-1.911-1.169c-.44-.581-.746-1.41-.919-2.486-.173-1.076-.272-2.468-.297-4.175L41.024 8.24Zm16.384-2.208c-.68-1.546-.863-2.832-.547-3.86.315-1.026 1.141-1.54 2.477-1.54.754 0 1.357.236 1.809.706.451.47.9 1.342 1.345 2.616l2.524 5.938c.247.618.454 1.039.621 1.261.167.223.35.334.548.334.222 0 .423-.111.603-.334.179-.222.417-.661.714-1.317l3.173-6.55c.396-.878.813-1.5 1.252-1.865.44-.364.993-.547 1.66-.547 1.176 0 1.927.448 2.255 1.345.328.897.22 1.958-.324 3.182l-4.12 8.276c-.197.42-.402.84-.612 1.261l-.668 1.336c-.26.52-.458.956-.594 1.309a5.6 5.6 0 0 0-.296 1.066 13.81 13.81 0 0 0-.149 1.41l-.204 4.936c-.198 2.388-1.095 3.581-2.69 3.581-.83 0-1.472-.281-1.93-.844-.458-.563-.718-1.475-.78-2.737l-.092-4.23c-.025-.891-.093-1.574-.204-2.05a7.243 7.243 0 0 0-.52-1.457 77.987 77.987 0 0 0-.64-1.401 150.15 150.15 0 0 1-.714-1.55l-3.897-8.275Zm27.257 7.107c-1.089-1.274-1.633-2.901-1.633-4.88 0-1.559.387-2.9 1.16-4.027.773-1.125 1.862-1.991 3.266-2.597 1.403-.606 3.046-.91 4.926-.91.928 0 1.74.053 2.44.158.699.105 1.295.232 1.79.38.965.285 1.695.727 2.19 1.327.495.6.742 1.278.742 2.032 0 .804-.241 1.49-.724 2.06-.482.569-1.187.853-2.115.853-.606 0-1.314-.17-2.124-.51-.81-.34-1.735-.51-2.774-.51-.668 0-1.231.167-1.689.5-.458.335-.686.836-.686 1.504 0 .655.216 1.215.649 1.679.433.464 1.194.95 2.282 1.456l.613.279c1.67.742 2.993 1.524 3.97 2.347.977.822 1.676 1.735 2.097 2.737.42 1.002.63 2.152.63 3.45 0 1.584-.389 2.997-1.168 4.24-.78 1.244-1.899 2.224-3.359 2.941-1.46.718-3.21 1.077-5.25 1.077a15.75 15.75 0 0 1-2.607-.204 16.675 16.675 0 0 1-2.014-.446c-1.026-.321-1.744-.751-2.152-1.29-.408-.537-.612-1.24-.612-2.105 0-.693.247-1.32.742-1.884.495-.562 1.25-.844 2.264-.844.791 0 1.465.053 2.022.158.557.105 1.076.213 1.559.325.482.11.99.167 1.521.167 1.62 0 2.43-.712 2.43-2.134 0-.767-.225-1.398-.676-1.893-.452-.495-1.228-1.014-2.33-1.558l-.649-.334c-2.065-1.101-3.642-2.283-4.731-3.544Zm39.726 10.353c.037 1.472-.053 2.567-.27 3.284-.216.718-.519 1.191-.909 1.42-.39.229-.825.343-1.308.343-.742 0-1.4-.22-1.976-.659-.575-.439-.863-1.24-.863-2.402l.316-7.868c0-.482-.074-.822-.223-1.02a.705.705 0 0 0-.594-.297c-.42 0-.766.322-1.039.965l-2.133 5.01c-.421.99-.786 1.713-1.095 2.17-.31.458-.59.749-.844.873a1.74 1.74 0 0 1-.77.185c-.458 0-.842-.167-1.15-.5-.31-.335-.607-.86-.891-1.578l-2.654-6.977c-.21-.494-.482-.742-.816-.742-.47 0-.711.39-.724 1.17l.204 7.718c-.05 1.497-.35 2.486-.9 2.969-.55.482-1.209.723-1.976.723a2.92 2.92 0 0 1-1.549-.436c-.476-.29-.841-.85-1.095-1.679-.253-.829-.337-2.035-.25-3.618l.556-15.679c.087-1.595.257-2.82.51-3.674.254-.853.607-1.444 1.058-1.772.452-.327 1.005-.491 1.661-.491 1.72 0 2.913 1.07 3.581 3.21l3.303 9.63c.148.494.328.84.538 1.039.21.198.464.296.76.296.26 0 .49-.095.687-.287.198-.192.377-.535.538-1.03l3.451-9.073c.495-1.435 1.02-2.394 1.578-2.876a2.907 2.907 0 0 1 1.966-.724c.631 0 1.203.14 1.717.418.513.278.927.816 1.243 1.614.315.798.48 1.976.492 3.535l-.13 16.81Zm22.005-.37c.668 2.065.746 3.518.232 4.36-.513.84-1.339 1.261-2.477 1.261-1.484 0-2.492-.928-3.024-2.783l-.482-1.948c-.198-.742-.495-1.237-.891-1.485-.396-.247-1.058-.346-1.985-.297l-1.596.093c-1.2.05-2.047.226-2.542.53-.495.302-.878.936-1.15 1.9l-.112.446c-.383 1.324-.853 2.242-1.41 2.756-.557.513-1.33.763-2.32.751-1.273-.025-2.115-.581-2.523-1.67-.408-1.088-.18-2.907.687-5.455l5.01-15.456c.717-2.115 1.45-3.547 2.198-4.295.749-.749 1.618-1.123 2.607-1.123.78 0 1.432.148 1.958.445.525.297.999.838 1.42 1.624.42.785.859 1.902 1.316 3.349l5.084 16.996Zm-9.945-12.266a.749.749 0 0 0-.547.232c-.155.155-.282.449-.38.882l-.836 3.45c-.222.941-.207 1.553.047 1.838.253.284.665.427 1.234.427h.872c.767 0 1.258-.25 1.475-.752.216-.5.158-1.302-.176-2.403l-.817-2.672c-.111-.383-.232-.646-.362-.788a.658.658 0 0 0-.51-.214Zm12.71 2.283c-1.088-1.274-1.633-2.901-1.633-4.88 0-1.559.387-2.9 1.16-4.027.773-1.125 1.862-1.991 3.266-2.597 1.404-.606 3.046-.91 4.926-.91.928 0 1.74.053 2.44.158.699.105 1.296.232 1.79.38.965.285 1.695.727 2.19 1.327.495.6.742 1.278.742 2.032 0 .804-.241 1.49-.724 2.06-.482.569-1.187.853-2.115.853-.606 0-1.314-.17-2.124-.51-.81-.34-1.735-.51-2.774-.51-.668 0-1.231.167-1.689.5-.457.335-.686.836-.686 1.504 0 .655.216 1.215.65 1.679.432.464 1.193.95 2.281 1.456l.613.279c1.67.742 2.993 1.524 3.97 2.347.978.822 1.676 1.735 2.097 2.737.42 1.002.63 2.152.63 3.45 0 1.584-.389 2.997-1.168 4.24-.78 1.244-1.899 2.224-3.358 2.941-1.46.718-3.21 1.077-5.251 1.077a15.75 15.75 0 0 1-2.607-.204 16.675 16.675 0 0 1-2.014-.446c-1.026-.321-1.744-.751-2.152-1.29-.408-.537-.612-1.24-.612-2.105 0-.693.247-1.32.742-1.884.495-.562 1.25-.844 2.264-.844.791 0 1.465.053 2.022.158.557.105 1.076.213 1.559.325.482.11.99.167 1.521.167 1.62 0 2.43-.712 2.43-2.134 0-.767-.225-1.398-.676-1.893-.452-.495-1.228-1.014-2.329-1.558l-.65-.334c-2.065-1.101-3.642-2.283-4.73-3.544Zm34.623 9.834c-.05 2.09-.278 3.507-.686 4.249-.409.742-1.095 1.113-2.06 1.113-.841 0-1.453-.322-1.837-.965-.383-.643-.618-1.72-.705-3.228l-.111-4.268c-.05-.878-.232-1.521-.548-1.93-.315-.408-.813-.624-1.493-.65l-3.303-.129c-.643-.025-1.089.108-1.336.399-.247.29-.402.869-.464 1.735l-.297 4.991c-.136 1.534-.417 2.616-.844 3.247-.427.631-1.03.946-1.809.946-.52 0-.974-.145-1.364-.436-.39-.29-.702-.835-.937-1.632-.235-.798-.383-1.952-.445-3.46l-.26-16.552c-.05-1.447.04-2.563.27-3.349.228-.785.574-1.333 1.038-1.642.464-.31 1-.464 1.605-.464.73 0 1.336.27 1.819.807.482.538.785 1.525.909 2.96l.185 4.527c.062.742.201 1.277.418 1.605.216.328.609.492 1.178.492h3.581c.816 0 1.398-.136 1.744-.408.347-.272.538-.854.575-1.744l-.018-4.676c.086-1.324.355-2.252.807-2.783.451-.532 1.116-.798 1.995-.798.853 0 1.521.3 2.004.9.482.6.698 1.79.649 3.571l-.26 17.572Zm3.284-14.733c-.012-2.028.164-3.578.53-4.648.364-1.07.992-1.8 1.882-2.19.891-.389 2.103-.565 3.637-.528l5.64.26c1.176.012 2.051.256 2.626.733.575.476.863 1.085.863 1.827 0 .73-.238 1.308-.714 1.735-.476.427-1.265.677-2.366.752l-4.156.148c-.792.05-1.315.189-1.568.418-.254.228-.393.67-.418 1.326l-.11 1.93c-.026.742.104 1.262.389 1.559.284.296.822.457 1.614.482l3.321.148c1.918.075 2.876.792 2.876 2.153 0 .73-.241 1.268-.723 1.614-.483.346-1.182.55-2.097.612l-2.95.093c-.928.05-1.587.263-1.976.64-.39.378-.542 1.036-.455 1.976l.186 1.837c.061.656.16 1.154.297 1.494.136.34.377.569.723.686.346.118.866.183 1.559.195l2.95.019c1.286.05 2.214.266 2.783.65.57.383.854.94.854 1.67 0 .902-.313 1.592-.937 2.068-.625.476-1.692.745-3.201.807l-4.342-.037c-1.336.05-2.421-.025-3.256-.223s-1.472-.587-1.911-1.169c-.44-.581-.746-1.41-.919-2.486-.173-1.076-.272-2.468-.297-4.175l-.334-12.376Zm16.792.446c-.012-2.079.177-3.653.566-4.723.39-1.07 1.015-1.793 1.874-2.17.86-.378 1.976-.566 3.35-.566h2.226c2.66 0 4.898.463 6.717 1.391 1.818.928 3.17 2.397 4.054 4.407.884 2.01 1.24 4.648 1.067 7.913l-.037.798c-.235 4.441-1.373 7.639-3.414 9.593-2.041 1.955-4.967 2.888-8.777 2.802l-1.577-.019c-1.509-.037-2.69-.24-3.544-.612-.853-.371-1.456-1.06-1.809-2.069-.352-1.008-.535-2.477-.547-4.407l-.149-12.338Zm8.461 12.877c1.51-.087 2.675-.653 3.498-1.698.822-1.045 1.314-2.706 1.475-4.982l.018-.204c.161-2.326-.182-4.008-1.03-5.047-.847-1.04-2.192-1.602-4.035-1.689l-.5-.037c-1.127-.05-1.702.464-1.726 1.54l-.26 10.558c-.013.618.108 1.048.362 1.29.253.24.695.349 1.326.324l.872-.055Zm30.022 2.727c-.037 2.981-.971 4.472-2.802 4.472-1.051 0-1.781-.337-2.19-1.011-.408-.675-.593-1.73-.556-3.164l.427-15.864c.024-.73-.096-1.24-.362-1.531-.266-.29-.733-.436-1.401-.436l-1.93.037c-.878-.012-1.549-.285-2.013-.816-.464-.532-.696-1.225-.696-2.079 0-.99.325-1.74.974-2.254.65-.513 1.568-.745 2.756-.696l11.114.334c.928.037 1.658.275 2.19.715.531.439.797 1.005.797 1.697 0 .718-.198 1.336-.593 1.856-.396.52-1.058.822-1.986.909l-1.892.13c-.57.05-.978.198-1.225.445-.247.248-.377.68-.39 1.299l-.222 15.957Zm26.05-1.317c-.049 2.09-.278 3.507-.686 4.249-.408.742-1.095 1.113-2.06 1.113-.84 0-1.453-.322-1.836-.965-.384-.643-.619-1.72-.706-3.228l-.11-4.268c-.05-.878-.233-1.521-.548-1.93-.316-.408-.814-.624-1.494-.65l-3.303-.129c-.643-.025-1.088.108-1.336.399-.247.29-.402.869-.463 1.735l-.297 4.991c-.136 1.534-.418 2.616-.845 3.247-.426.631-1.03.946-1.809.946-.52 0-.974-.145-1.363-.436-.39-.29-.702-.835-.937-1.632-.235-.798-.384-1.952-.446-3.46l-.26-16.552c-.049-1.447.04-2.563.27-3.349.228-.785.575-1.333 1.039-1.642.464-.31.998-.464 1.605-.464.73 0 1.336.27 1.818.807.482.538.785 1.525.91 2.96l.185 4.527c.062.742.2 1.277.417 1.605.217.328.61.492 1.178.492h3.581c.817 0 1.398-.136 1.745-.408.346-.272.538-.854.575-1.744l-.019-4.676c.087-1.324.356-2.252.807-2.783.452-.532 1.117-.798 1.995-.798.854 0 1.521.3 2.004.9.482.6.699 1.79.65 3.571l-.26 17.572Zm6.16 5.362a2.525 2.525 0 0 1-1.484-.455c-.433-.303-.763-.872-.992-1.707-.23-.835-.319-2.056-.27-3.664l.13-14.176c.062-1.992.279-3.5.65-4.527.371-1.027.996-1.738 1.874-2.134.878-.396 2.109-.631 3.692-.705l.928-.037c3.6-.173 6.284.532 8.053 2.115 1.769 1.583 2.653 3.723 2.653 6.42 0 1.175-.127 2.146-.38 2.913-.254.767-.597 1.416-1.03 1.948-.433.532-.928 1.04-1.484 1.522-.26.21-.464.433-.613.668a1.53 1.53 0 0 0-.222.835c0 .272.037.566.11.881.075.315.199.659.372 1.03.235.47.55 1.008.946 1.614.396.606.971 1.423 1.726 2.45.643.828.965 1.675.965 2.541 0 .718-.241 1.336-.724 1.856-.482.52-1.144.779-1.985.779-1.064 0-1.955-.433-2.672-1.299a16.103 16.103 0 0 1-1.577-2.208 34.588 34.588 0 0 1-1.318-2.375c-.37-.742-.643-1.28-.816-1.614-.322-.643-.622-1.073-.9-1.29-.278-.216-.646-.324-1.104-.324h-.093c-.532 0-.924.151-1.178.454-.254.303-.399.838-.436 1.605l-.13 3.97c-.148 1.943-1.045 2.914-2.69 2.914Zm5.678-22.043h-.222c-.977 0-1.611.198-1.902.594-.29.396-.436 1.1-.436 2.115v.445c0 1.522.223 2.499.668 2.932.445.433 1.027.65 1.744.65h.148c2.202 0 3.303-1.083 3.303-3.248 0-2.325-1.1-3.488-3.303-3.488Zm21.617 22.488c-1.608 0-3.074-.238-4.398-.714a8.037 8.037 0 0 1-3.405-2.357c-.946-1.094-1.676-2.572-2.189-4.434-.513-1.862-.77-4.184-.77-6.967v-.613c0-2.882.451-5.29 1.354-7.227.903-1.936 2.143-3.395 3.72-4.379 1.578-.983 3.375-1.475 5.39-1.475 3.167 0 5.697 1.058 7.59 3.173 1.892 2.115 2.839 5.338 2.839 9.667v.631c0 3.439-.409 6.24-1.225 8.405-.817 2.165-1.98 3.754-3.488 4.769-1.51 1.014-3.315 1.521-5.418 1.521Zm3.97-13.526c0-2.462-.395-4.376-1.187-5.743s-1.8-2.05-3.025-2.05c-1.533 0-2.625.702-3.274 2.106-.65 1.404-.975 3.213-.975 5.427v.316c0 2.078.372 3.741 1.114 4.99.742 1.25 1.868 1.875 3.377 1.875 1.509 0 2.548-.51 3.117-1.53.569-1.021.853-2.707.853-5.057v-.334Zm26.979.798c-.26 8.35-3.544 12.524-9.853 12.524-2.14 0-3.871-.43-5.195-1.29-1.324-.86-2.285-2.223-2.885-4.09-.6-1.869-.9-4.318-.9-7.348V6.254c0-3.352.934-5.028 2.802-5.028.915 0 1.583.368 2.004 1.104.42.736.674 2.044.76 3.924l.149 9.351c.05 2.041.337 3.455.863 4.24.525.786 1.431 1.178 2.718 1.178 1.274.013 2.198-.402 2.774-1.243.575-.84.887-2.232.937-4.175l.24-10.075c.1-1.781.384-3.009.854-3.683.47-.674 1.231-1.011 2.283-1.011 1.076 0 1.833.52 2.273 1.559.439 1.039.627 2.758.566 5.158l-.39 8.498Zm2.839 6.049c-.903-2.202-1.293-4.973-1.17-8.313l.02-.408c.135-3.142.655-5.65 1.558-7.524.903-1.874 2.155-3.225 3.757-4.054 1.602-.829 3.516-1.243 5.743-1.243 1.843 0 3.395.334 4.657 1.002 1.262.668 2.227 1.549 2.895 2.644a6.936 6.936 0 0 1 1.039 3.534c.025 1.114-.232 1.967-.77 2.56-.538.595-1.172.891-1.902.891-.606 0-1.138-.151-1.596-.454-.457-.303-.829-.795-1.113-1.475-.606-1.72-1.744-2.58-3.414-2.58-.817 0-1.577.279-2.282.836-.705.556-1.274 1.425-1.707 2.607-.433 1.18-.656 2.724-.668 4.629v.334c-.025 2.697.29 4.657.946 5.882.656 1.224 1.868 1.837 3.637 1.837 1.348 0 2.313-.316 2.894-.947.582-.63.91-1.434.984-2.412l.018-.167c.05-.643-.05-1.088-.297-1.336-.247-.247-.754-.383-1.521-.408l-.761-.018c-.866-.025-1.503-.226-1.911-.603-.408-.378-.612-.876-.612-1.494 0-.705.235-1.268.705-1.689.47-.42 1.274-.637 2.412-.649l3.173-.093c1.546-.024 2.631.313 3.256 1.011.625.7.906 1.915.844 3.646l-.055 1.114c-.112 3.24-.99 5.702-2.635 7.385-1.645 1.682-3.835 2.517-6.569 2.505-2.127-.013-4.023-.56-5.687-1.643-1.663-1.082-2.953-2.718-3.868-4.907Zm39.132.872c-.05 2.09-.279 3.507-.687 4.249-.408.742-1.095 1.113-2.06 1.113-.84 0-1.453-.322-1.836-.965-.384-.643-.619-1.72-.706-3.228l-.11-4.268c-.05-.878-.233-1.521-.548-1.93-.316-.408-.814-.624-1.494-.65l-3.303-.129c-.643-.025-1.088.108-1.336.399-.247.29-.402.869-.463 1.735l-.297 4.991c-.136 1.534-.418 2.616-.845 3.247-.426.631-1.03.946-1.809.946-.52 0-.974-.145-1.363-.436-.39-.29-.702-.835-.937-1.632-.235-.798-.384-1.952-.446-3.46l-.26-16.552c-.049-1.447.04-2.563.27-3.349.228-.785.575-1.333 1.039-1.642.464-.31.999-.464 1.605-.464.73 0 1.336.27 1.818.807.482.538.785 1.525.91 2.96l.185 4.527c.062.742.2 1.277.417 1.605.217.328.61.492 1.178.492h3.581c.817 0 1.398-.136 1.745-.408.346-.272.538-.854.575-1.744l-.019-4.676c.087-1.324.356-2.252.807-2.783.452-.532 1.117-.798 1.995-.798.854 0 1.522.3 2.004.9.482.6.699 1.79.65 3.571l-.26 17.572Zm20.039 1.317c-.037 2.981-.971 4.472-2.802 4.472-1.052 0-1.781-.337-2.19-1.011-.408-.675-.593-1.73-.556-3.164l.427-15.864c.024-.73-.096-1.24-.362-1.531-.266-.29-.733-.436-1.401-.436l-1.93.037c-.878-.012-1.55-.285-2.013-.816-.464-.532-.696-1.225-.696-2.079 0-.99.325-1.74.974-2.254.65-.513 1.568-.745 2.756-.696l11.114.334c.928.037 1.657.275 2.19.715.531.439.797 1.005.797 1.697 0 .718-.198 1.336-.594 1.856-.395.52-1.057.822-1.985.909l-1.892.13c-.57.05-.978.198-1.225.445-.247.248-.377.68-.39 1.299l-.222 15.957Zm26.05-1.317c-.05 2.09-.278 3.507-.686 4.249-.408.742-1.095 1.113-2.06 1.113-.84 0-1.453-.322-1.837-.965-.383-.643-.618-1.72-.705-3.228l-.111-4.268c-.05-.878-.232-1.521-.547-1.93-.316-.408-.814-.624-1.494-.65l-3.303-.129c-.643-.025-1.088.108-1.336.399-.247.29-.402.869-.464 1.735l-.296 4.991c-.136 1.534-.418 2.616-.845 3.247-.426.631-1.03.946-1.809.946-.52 0-.974-.145-1.364-.436-.39-.29-.701-.835-.937-1.632-.235-.798-.383-1.952-.445-3.46l-.26-16.552c-.05-1.447.04-2.563.27-3.349.228-.785.575-1.333 1.039-1.642.463-.31.998-.464 1.604-.464.73 0 1.336.27 1.819.807.482.538.785 1.525.909 2.96l.186 4.527c.061.742.2 1.277.417 1.605.217.328.61.492 1.178.492h3.581c.817 0 1.398-.136 1.744-.408.347-.272.539-.854.576-1.744l-.019-4.676c.087-1.324.356-2.252.807-2.783.452-.532 1.117-.798 1.995-.798.853 0 1.521.3 2.004.9.482.6.699 1.79.65 3.571l-.26 17.572Zm3.285-14.733c-.013-2.028.164-3.578.528-4.648.365-1.07.993-1.8 1.884-2.19.89-.389 2.103-.565 3.636-.528l5.641.26c1.175.012 2.05.256 2.626.733.575.476.862 1.085.862 1.827 0 .73-.238 1.308-.714 1.735-.476.427-1.265.677-2.366.752l-4.156.148c-.792.05-1.314.189-1.568.418-.253.228-.393.67-.417 1.326l-.112 1.93c-.024.742.105 1.262.39 1.559.284.296.823.457 1.614.482l3.322.148c1.917.075 2.875.792 2.875 2.153 0 .73-.24 1.268-.723 1.614-.483.346-1.181.55-2.097.612l-2.95.093c-.928.05-1.586.263-1.976.64-.39.378-.541 1.036-.455 1.976l.186 1.837c.062.656.16 1.154.297 1.494.136.34.377.569.723.686.347.118.866.183 1.559.195l2.95.019c1.287.05 2.214.266 2.783.65.57.383.854.94.854 1.67 0 .902-.312 1.592-.937 2.068s-1.692.745-3.2.807l-4.343-.037c-1.336.05-2.421-.025-3.256-.223s-1.472-.587-1.911-1.169c-.44-.581-.745-1.41-.919-2.486-.173-1.076-.272-2.468-.296-4.175l-.334-12.376ZM25.79 70.99c-.334 1.485-.696 2.629-1.085 3.433-.39.804-.826 1.357-1.309 1.66-.482.304-1.039.455-1.67.455-.84 0-1.617-.303-2.328-.91-.711-.605-1.259-1.768-1.642-3.487l-1.559-7.31c-.111-.545-.253-.92-.427-1.123a.799.799 0 0 0-.63-.307c-.235 0-.449.106-.64.316-.192.21-.35.606-.474 1.187l-1.67 7.422c-.321 1.596-.788 2.73-1.4 3.405-.613.674-1.45 1.011-2.515 1.011-.717 0-1.363-.154-1.939-.464-.575-.309-1.082-.887-1.521-1.735-.44-.847-.813-2.075-1.123-3.683L.631 55.07c-.322-1.67-.4-2.962-.232-3.878.167-.915.495-1.555.983-1.92.489-.365 1.061-.547 1.717-.547.606 0 1.128.133 1.568.399.439.265.813.745 1.122 1.438.31.692.557 1.688.742 2.987l1.336 8.646c.112.767.263 1.271.455 1.513.192.24.411.361.658.361.248 0 .464-.111.65-.334.185-.222.365-.705.538-1.447l1.985-9.055c.248-1.014.616-1.731 1.104-2.152.489-.42 1.08-.63 1.772-.63.718 0 1.342.219 1.874.658.532.439.916 1.153 1.15 2.143l1.949 9.574c.136.582.29.974.464 1.178.173.204.37.307.594.307.26 0 .485-.112.677-.334.192-.223.35-.662.473-1.318l1.707-9.63c.31-1.546.708-2.628 1.197-3.247.488-.618 1.172-.928 2.05-.928 1.15 0 1.945.498 2.384 1.494.44.996.43 2.527-.027 4.592l-3.73 16.05Zm8.368 5.344a2.525 2.525 0 0 1-1.484-.455c-.433-.303-.764-.872-.993-1.707-.229-.835-.318-2.056-.269-3.664l.13-14.176c.062-1.992.278-3.5.65-4.527.37-1.027.995-1.738 1.873-2.134.879-.396 2.11-.631 3.693-.705l.928-.037c3.6-.173 6.283.532 8.052 2.115 1.77 1.583 2.654 3.723 2.654 6.42 0 1.175-.127 2.146-.38 2.913-.254.767-.598 1.416-1.03 1.948-.434.532-.928 1.04-1.485 1.522-.26.21-.464.433-.612.668a1.53 1.53 0 0 0-.223.835c0 .272.037.566.111.881.075.315.198.659.372 1.03.235.47.55 1.008.946 1.614.396.606.97 1.423 1.725 2.45.644.828.965 1.675.965 2.541 0 .718-.241 1.336-.723 1.856-.483.52-1.145.779-1.986.779-1.064 0-1.954-.433-2.672-1.299a16.103 16.103 0 0 1-1.577-2.208 34.588 34.588 0 0 1-1.317-2.375c-.371-.742-.643-1.28-.817-1.614-.321-.643-.621-1.073-.9-1.29-.278-.216-.646-.324-1.103-.324h-.093c-.532 0-.925.151-1.178.454-.254.303-.4.838-.437 1.605l-.13 3.97c-.148 1.943-1.045 2.914-2.69 2.914Zm5.678-22.043h-.223c-.977 0-1.61.198-1.902.594-.29.396-.436 1.1-.436 2.115v.445c0 1.522.223 2.499.668 2.932.446.433 1.027.65 1.744.65h.149c2.202 0 3.303-1.083 3.303-3.248 0-2.325-1.101-3.488-3.303-3.488Zm21.616 22.488c-1.608 0-3.074-.238-4.397-.714a8.037 8.037 0 0 1-3.405-2.357c-.946-1.094-1.676-2.572-2.19-4.434-.513-1.862-.77-4.184-.77-6.967v-.613c0-2.882.452-5.29 1.355-7.227.903-1.936 2.143-3.395 3.72-4.379 1.577-.983 3.374-1.475 5.39-1.475 3.167 0 5.697 1.058 7.59 3.173 1.892 2.115 2.838 5.338 2.838 9.667v.631c0 3.439-.408 6.24-1.225 8.405-.816 2.165-1.979 3.754-3.488 4.769-1.509 1.014-3.315 1.521-5.418 1.521Zm3.97-13.526c0-2.462-.395-4.376-1.187-5.743-.791-1.367-1.8-2.05-3.024-2.05-1.534 0-2.626.702-3.275 2.106-.65 1.404-.974 3.213-.974 5.427v.316c0 2.078.371 3.741 1.113 4.99.742 1.25 1.868 1.875 3.377 1.875 1.51 0 2.548-.51 3.117-1.53.57-1.021.854-2.707.854-5.057v-.334Zm26.701 9.76c-.037 1.274-.315 2.19-.835 2.746s-1.206.835-2.06.835c-.816 0-1.53-.294-2.143-.882-.612-.587-1.19-1.586-1.734-2.996l-4.62-9.908c-.285-.705-.638-1.058-1.058-1.058-.235 0-.424.108-.566.325-.142.216-.213.603-.213 1.16 0 1.508.018 3.03.055 4.564.037 1.534.056 3.043.056 4.527v.26c0 1.521-.257 2.564-.77 3.126-.514.563-1.185.845-2.013.845-.606 0-1.123-.136-1.55-.409-.426-.272-.745-.77-.955-1.493-.21-.724-.297-1.747-.26-3.071l.594-18.202c.062-1.806.386-3.003.974-3.59.587-.588 1.314-.882 2.18-.882.915 0 1.655.322 2.217.965.563.643 1.179 1.775 1.847 3.396l3.97 8.386c.21.458.405.776.585.956.18.18.38.269.603.269a.59.59 0 0 0 .52-.278c.123-.186.185-.526.185-1.021 0-.854-.025-1.658-.074-2.412-.05-.755-.109-1.58-.177-2.477-.068-.897-.133-1.97-.195-3.22v-.463c-.049-1.522.208-2.607.77-3.257.563-.649 1.296-.974 2.2-.974.976 0 1.712.371 2.207 1.114.495.742.712 2.152.65 4.23l-.39 18.889Zm3.6-2.913c-.903-2.202-1.293-4.973-1.17-8.313l.02-.408c.135-3.142.655-5.65 1.558-7.524.903-1.874 2.155-3.225 3.757-4.054 1.602-.829 3.516-1.243 5.743-1.243 1.843 0 3.395.334 4.657 1.002 1.262.668 2.227 1.549 2.895 2.644a6.936 6.936 0 0 1 1.039 3.534c.024 1.114-.232 1.967-.77 2.56-.538.595-1.172.891-1.902.891-.606 0-1.138-.151-1.596-.454-.458-.303-.829-.795-1.113-1.475-.606-1.72-1.744-2.58-3.414-2.58-.817 0-1.577.279-2.282.836-.706.556-1.275 1.425-1.708 2.607-.432 1.18-.655 2.724-.667 4.629v.334c-.025 2.697.29 4.657.946 5.882.655 1.224 1.868 1.837 3.637 1.837 1.348 0 2.313-.316 2.894-.947.581-.63.91-1.434.983-2.412l.019-.167c.05-.643-.05-1.088-.297-1.336-.247-.247-.754-.383-1.521-.408l-.761-.018c-.866-.025-1.503-.226-1.911-.603-.408-.378-.613-.876-.613-1.494 0-.705.235-1.268.706-1.689.47-.42 1.274-.637 2.412-.649l3.172-.093c1.547-.024 2.632.313 3.257 1.011.625.7.906 1.915.844 3.646l-.056 1.114c-.11 3.24-.99 5.702-2.634 7.385-1.646 1.682-3.835 2.517-6.569 2.505-2.127-.013-4.023-.56-5.687-1.643-1.663-1.082-2.953-2.718-3.868-4.907Zm51.582.89c-.334 1.485-.696 2.629-1.086 3.433-.39.804-.825 1.357-1.308 1.66-.482.304-1.039.455-1.67.455-.841 0-1.617-.303-2.328-.91-.712-.605-1.26-1.768-1.643-3.487l-1.558-7.31c-.111-.545-.254-.92-.427-1.123a.799.799 0 0 0-.63-.307c-.236 0-.45.106-.64.316-.193.21-.35.606-.474 1.187l-1.67 7.422c-.322 1.596-.789 2.73-1.4 3.405-.613.674-1.451 1.011-2.515 1.011-.717 0-1.364-.154-1.939-.464-.575-.309-1.082-.887-1.521-1.735-.44-.847-.814-2.075-1.123-3.683l-3.228-15.79c-.322-1.67-.4-2.962-.232-3.878.167-.915.494-1.555.983-1.92s1.06-.547 1.716-.547c.606 0 1.129.133 1.568.399.44.265.813.745 1.123 1.438.309.692.556 1.688.742 2.987l1.336 8.646c.111.767.263 1.271.454 1.513.192.24.412.361.66.361.247 0 .463-.111.649-.334.185-.222.364-.705.538-1.447l1.985-9.055c.247-1.014.615-1.731 1.104-2.152.489-.42 1.08-.63 1.772-.63.717 0 1.342.219 1.874.658.532.439.915 1.153 1.15 2.143l1.949 9.574c.136.582.29.974.463 1.178.174.204.372.307.594.307.26 0 .486-.112.677-.334.192-.223.35-.662.474-1.318l1.707-9.63c.309-1.546.708-2.628 1.196-3.247.489-.618 1.172-.928 2.05-.928 1.151 0 1.946.498 2.385 1.494.44.996.43 2.527-.028 4.592l-3.73 16.05Zm24.603.13c.668 2.066.745 3.52.232 4.36-.513.842-1.339 1.262-2.477 1.262-1.484 0-2.492-.928-3.024-2.783l-.483-1.948c-.198-.742-.495-1.237-.89-1.485-.396-.247-1.058-.346-1.986-.297l-1.595.093c-1.2.05-2.048.226-2.542.53-.495.302-.879.936-1.15 1.9l-.112.446c-.384 1.324-.854 2.242-1.41 2.756-.557.513-1.33.763-2.32.751-1.274-.025-2.115-.581-2.523-1.67-.408-1.088-.18-2.907.686-5.455l5.01-15.456c.718-2.115 1.45-3.547 2.199-4.295.748-.749 1.617-1.123 2.607-1.123.78 0 1.432.148 1.957.445.526.297 1 .838 1.42 1.624.42.785.86 1.902 1.317 3.349l5.084 16.996Zm-9.945-12.265a.749.749 0 0 0-.547.232c-.155.155-.282.449-.38.882l-.836 3.45c-.222.941-.207 1.553.047 1.838.253.284.664.427 1.233.427h.873c.766 0 1.258-.25 1.475-.752.216-.5.157-1.302-.177-2.403l-.816-2.672c-.111-.383-.232-.646-.362-.788a.658.658 0 0 0-.51-.214Zm11.467-4.453c0-1.496.136-2.64.408-3.432.272-.792.637-1.34 1.095-1.642a2.637 2.637 0 0 1 1.484-.455c.977 0 1.729.356 2.254 1.067.526.711.752 2.081.678 4.11l.018 13.804c-.025 1.324.152 2.205.529 2.645.377.439 1.172.621 2.384.547l2.654-.167c1.472-.1 2.498.083 3.08.547.581.464.872 1.203.872 2.218 0 .927-.325 1.61-.974 2.05-.65.439-1.73.659-3.238.659a26.755 26.755 0 0 0-2.227.055c-.742.05-1.447.1-2.115.149a46.213 46.213 0 0 1-2.115.148c-1.076.025-1.948-.158-2.616-.547-.668-.39-1.157-1.073-1.466-2.05-.31-.978-.47-2.326-.483-4.046l-.222-15.66Zm16.625 0c0-1.496.136-2.64.408-3.432.272-.792.637-1.34 1.095-1.642a2.637 2.637 0 0 1 1.484-.455c.977 0 1.729.356 2.254 1.067.526.711.752 2.081.678 4.11l.018 13.804c-.025 1.324.152 2.205.529 2.645.377.439 1.172.621 2.384.547l2.654-.167c1.472-.1 2.498.083 3.08.547.581.464.872 1.203.872 2.218 0 .927-.325 1.61-.974 2.05-.65.439-1.73.659-3.238.659a26.755 26.755 0 0 0-2.227.055c-.742.05-1.447.1-2.115.149a46.213 46.213 0 0 1-2.115.148c-1.076.025-1.948-.158-2.616-.547-.668-.39-1.157-1.073-1.466-2.05-.31-.978-.47-2.326-.483-4.046l-.222-15.66Zm47.611 16.588c-.334 1.485-.696 2.629-1.085 3.433-.39.804-.826 1.357-1.309 1.66-.482.304-1.039.455-1.67.455-.84 0-1.617-.303-2.328-.91-.711-.605-1.259-1.768-1.642-3.487l-1.559-7.31c-.111-.545-.253-.92-.427-1.123a.799.799 0 0 0-.63-.307c-.235 0-.449.106-.64.316-.192.21-.35.606-.474 1.187l-1.67 7.422c-.321 1.596-.788 2.73-1.4 3.405-.613.674-1.45 1.011-2.515 1.011-.717 0-1.363-.154-1.939-.464-.575-.309-1.082-.887-1.521-1.735-.44-.847-.813-2.075-1.123-3.683l-3.228-15.79c-.322-1.67-.4-2.962-.232-3.878.167-.915.495-1.555.983-1.92.489-.365 1.061-.547 1.717-.547.606 0 1.128.133 1.567.399.44.265.814.745 1.123 1.438.31.692.557 1.688.742 2.987l1.336 8.646c.111.767.263 1.271.455 1.513.191.24.411.361.658.361.248 0 .464-.111.65-.334.185-.222.365-.705.538-1.447l1.985-9.055c.248-1.014.616-1.731 1.104-2.152.489-.42 1.08-.63 1.772-.63.718 0 1.342.219 1.874.658.532.439.916 1.153 1.15 2.143l1.949 9.574c.136.582.29.974.464 1.178.173.204.37.307.594.307.26 0 .485-.112.677-.334.192-.223.35-.662.473-1.318l1.707-9.63c.31-1.546.708-2.628 1.197-3.247.488-.618 1.172-.928 2.05-.928 1.15 0 1.945.498 2.384 1.494.44.996.43 2.527-.028 4.592l-3.729 16.05Zm23.898-.018c-.049 2.09-.278 3.507-.686 4.249-.408.742-1.095 1.113-2.06 1.113-.84 0-1.453-.322-1.837-.965-.383-.643-.618-1.72-.705-3.228l-.111-4.268c-.05-.878-.232-1.521-.547-1.93-.316-.408-.814-.624-1.494-.65l-3.303-.129c-.643-.025-1.088.108-1.336.399-.247.29-.402.869-.464 1.735l-.296 4.991c-.136 1.534-.418 2.616-.845 3.247-.426.631-1.03.946-1.809.946-.52 0-.974-.145-1.364-.436-.39-.29-.701-.835-.937-1.632-.235-.798-.383-1.952-.445-3.46l-.26-16.552c-.05-1.447.04-2.563.27-3.349.228-.785.575-1.333 1.039-1.642.463-.31.998-.464 1.604-.464.73 0 1.336.27 1.819.807.482.538.785 1.525.909 2.96l.186 4.527c.061.742.2 1.277.417 1.605.217.328.61.492 1.178.492h3.581c.817 0 1.398-.136 1.744-.408.347-.272.539-.854.576-1.744l-.019-4.676c.087-1.324.356-2.252.807-2.783.452-.532 1.117-.798 1.995-.798.853 0 1.521.3 2.004.9.482.6.699 1.79.65 3.571l-.26 17.572Zm3.192-17.516c-.05-1.707.17-2.898.659-3.572.488-.674 1.184-1.011 2.087-1.011.878 0 1.565.297 2.06.89.494.594.773 1.745.834 3.452l.39 18.258c.062 2.004-.18 3.349-.724 4.035-.544.687-1.274 1.03-2.189 1.03-.89 0-1.583-.325-2.078-.974-.495-.65-.773-1.852-.835-3.609l-.204-18.499Zm8.22 10.205-.056-1.466c-.149-3.29.185-5.953 1.002-7.987.816-2.035 2.069-3.52 3.757-4.454 1.689-.934 3.757-1.4 6.207-1.4 1.72 0 3.219.398 4.5 1.196 1.28.798 2.275 1.918 2.987 3.359.71 1.44 1.066 3.126 1.066 5.056 0 1.2-.235 2.15-.705 2.848-.47.699-1.237 1.048-2.3 1.048-.94 0-1.649-.281-2.125-.844s-.782-1.456-.918-2.681c-.075-.99-.36-1.812-.854-2.468-.495-.655-1.225-.99-2.19-1.002-1.41-.025-2.489.566-3.237 1.772-.749 1.206-1.129 3.065-1.141 5.576v1.15c-.013 2.425.321 4.215 1.002 5.372.68 1.156 1.694 1.784 3.043 1.883.89.05 1.648-.232 2.273-.844.624-.612 1.036-1.42 1.233-2.421.223-1.077.566-1.816 1.03-2.218.464-.402 1.03-.603 1.698-.603 1.051 0 1.818.334 2.3 1.002.483.668.75 1.565.799 2.69.136 2.672-.597 4.788-2.2 6.346-1.601 1.559-3.824 2.338-6.67 2.338-3.315-.012-5.838-1.048-7.57-3.108-1.732-2.06-2.709-5.44-2.931-10.14Zm39.65 7.31c-.049 2.091-.277 3.508-.686 4.25-.408.742-1.094 1.113-2.06 1.113-.84 0-1.453-.322-1.836-.965-.384-.643-.619-1.72-.705-3.228l-.111-4.268c-.05-.878-.232-1.521-.548-1.93-.315-.408-.813-.624-1.493-.65l-3.303-.129c-.643-.025-1.089.108-1.336.399-.248.29-.402.869-.464 1.735l-.297 4.991c-.136 1.534-.417 2.616-.844 3.247-.427.631-1.03.946-1.81.946-.519 0-.973-.145-1.363-.436-.39-.29-.702-.835-.937-1.632-.235-.798-.383-1.952-.445-3.46l-.26-16.552c-.05-1.447.04-2.563.269-3.349.229-.785.575-1.333 1.039-1.642.464-.31.999-.464 1.605-.464.73 0 1.336.27 1.818.807.483.538.786 1.525.91 2.96l.185 4.527c.062.742.201 1.277.418 1.605.216.328.609.492 1.178.492h3.58c.817 0 1.399-.136 1.745-.408.346-.272.538-.854.575-1.744l-.018-4.676c.086-1.324.355-2.252.807-2.783.451-.532 1.116-.798 1.994-.798.854 0 1.522.3 2.004.9.483.6.7 1.79.65 3.571l-.26 17.572Zm9.445-16.569c0-1.496.136-2.64.408-3.432.273-.792.638-1.34 1.095-1.642a2.637 2.637 0 0 1 1.485-.455c.977 0 1.728.356 2.254 1.067s.751 2.081.677 4.11l.019 13.804c-.025 1.324.151 2.205.529 2.645.377.439 1.172.621 2.384.547l2.653-.167c1.472-.1 2.499.083 3.08.547.582.464.872 1.203.872 2.218 0 .927-.324 1.61-.974 2.05-.65.439-1.728.659-3.238.659a26.755 26.755 0 0 0-2.226.055c-.742.05-1.447.1-2.115.149a46.212 46.212 0 0 1-2.116.148c-1.076.025-1.948-.158-2.616-.547-.668-.39-1.156-1.073-1.466-2.05-.309-.978-.47-2.326-.482-4.046l-.223-15.66Zm16.755 1.837c-.012-2.028.164-3.578.529-4.648.365-1.07.993-1.8 1.883-2.19.89-.389 2.103-.565 3.637-.528l5.64.26c1.176.012 2.05.256 2.626.733.575.476.863 1.085.863 1.827 0 .73-.238 1.308-.714 1.735-.477.427-1.265.677-2.366.752l-4.156.148c-.792.05-1.315.189-1.568.418-.254.228-.393.67-.418 1.326l-.111 1.93c-.025.742.105 1.262.39 1.559.284.296.822.457 1.614.482l3.321.148c1.917.075 2.876.792 2.876 2.153 0 .73-.241 1.268-.724 1.614-.482.346-1.18.55-2.096.612l-2.95.093c-.928.05-1.587.263-1.977.64-.39.378-.54 1.036-.454 1.976l.185 1.837c.062.656.161 1.154.297 1.494.136.34.378.569.724.686.346.118.866.183 1.559.195l2.95.019c1.286.05 2.214.266 2.783.65.569.383.853.94.853 1.67 0 .902-.312 1.592-.937 2.068-.624.476-1.691.745-3.2.807l-4.342-.037c-1.336.05-2.421-.025-3.256-.223s-1.472-.587-1.912-1.169c-.439-.581-.745-1.41-.918-2.486-.173-1.076-.272-2.468-.297-4.175l-.334-12.376Zm16.792.446c-.012-2.079.176-3.653.566-4.723.39-1.07 1.014-1.793 1.874-2.17.86-.378 1.976-.566 3.35-.566h2.226c2.66 0 4.898.463 6.717 1.391 1.818.928 3.17 2.397 4.054 4.407.884 2.01 1.24 4.648 1.067 7.913l-.037.798c-.235 4.441-1.373 7.639-3.415 9.593-2.04 1.955-4.966 2.888-8.776 2.802l-1.577-.019c-1.51-.037-2.69-.24-3.544-.612-.853-.371-1.457-1.06-1.81-2.069-.352-1.008-.534-2.477-.546-4.407l-.149-12.338Zm8.461 12.877c1.51-.087 2.675-.653 3.498-1.698.822-1.045 1.314-2.706 1.475-4.982l.018-.204c.161-2.326-.182-4.008-1.03-5.047-.847-1.04-2.192-1.602-4.035-1.689l-.501-.037c-1.126-.05-1.701.464-1.726 1.54l-.26 10.558c-.012.618.109 1.048.362 1.29.254.24.696.349 1.327.324l.872-.055ZM11.69 120.289c-.038 2.981-.972 4.472-2.802 4.472-1.052 0-1.782-.337-2.19-1.011-.408-.675-.594-1.73-.556-3.164l.426-15.864c.025-.73-.096-1.24-.361-1.531-.266-.29-.733-.436-1.401-.436l-1.93.037c-.878-.012-1.55-.285-2.013-.816-.464-.532-.696-1.225-.696-2.079 0-.99.325-1.74.974-2.254.65-.513 1.568-.745 2.755-.696l11.115.334c.927.037 1.657.275 2.19.715.531.439.797 1.005.797 1.697 0 .718-.198 1.336-.594 1.856-.396.52-1.057.822-1.985.909l-1.893.13c-.569.05-.977.198-1.224.445-.248.248-.378.68-.39 1.299l-.223 15.957Zm26.05-1.317c-.05 2.09-.278 3.507-.686 4.249-.408.742-1.095 1.113-2.06 1.113-.841 0-1.453-.322-1.837-.965-.383-.643-.618-1.72-.705-3.228l-.111-4.268c-.05-.878-.232-1.521-.548-1.93-.315-.408-.813-.624-1.493-.65l-3.303-.129c-.643-.025-1.088.108-1.336.399-.247.29-.402.869-.464 1.735l-.297 4.991c-.136 1.534-.417 2.616-.844 3.247-.427.631-1.03.946-1.809.946-.52 0-.974-.145-1.364-.436-.39-.29-.702-.835-.937-1.632-.235-.798-.383-1.952-.445-3.46l-.26-16.552c-.05-1.447.04-2.563.27-3.349.228-.785.574-1.333 1.038-1.642.464-.31 1-.464 1.605-.464.73 0 1.336.27 1.819.807.482.538.785 1.525.909 2.96l.185 4.527c.062.742.201 1.277.418 1.605.216.328.61.492 1.178.492h3.581c.817 0 1.398-.136 1.744-.408.347-.272.538-.854.575-1.744l-.018-4.676c.087-1.324.356-2.252.807-2.783.452-.532 1.116-.798 1.995-.798.853 0 1.521.3 2.004.9.482.6.698 1.79.649 3.571l-.26 17.572Zm3.284-14.733c-.012-2.028.164-3.578.53-4.648.364-1.07.992-1.8 1.883-2.19.89-.389 2.102-.565 3.636-.528l5.64.26c1.176.012 2.051.256 2.626.733.576.476.863 1.085.863 1.827 0 .73-.238 1.308-.714 1.735-.476.427-1.265.677-2.366.752l-4.156.148c-.792.05-1.314.189-1.568.418-.254.228-.393.67-.418 1.326l-.11 1.93c-.026.742.104 1.262.389 1.559.284.296.822.457 1.614.482l3.321.148c1.918.075 2.876.792 2.876 2.153 0 .73-.24 1.268-.723 1.614-.483.346-1.182.55-2.097.612l-2.95.093c-.928.05-1.587.263-1.976.64-.39.378-.541 1.036-.455 1.976l.186 1.837c.062.656.16 1.154.297 1.494.136.34.377.569.723.686.347.118.866.183 1.559.195l2.95.019c1.286.05 2.214.266 2.783.65.57.383.854.94.854 1.67 0 .902-.313 1.592-.937 2.068-.625.476-1.692.745-3.201.807l-4.342-.037c-1.336.05-2.421-.025-3.256-.223s-1.472-.587-1.911-1.169c-.44-.581-.746-1.41-.919-2.486-.173-1.076-.272-2.468-.297-4.175l-.334-12.376Zm40.264 15.252c.037 1.472-.052 2.567-.269 3.284-.216.718-.52 1.191-.91 1.42-.389.229-.825.343-1.307.343-.742 0-1.401-.22-1.976-.659-.576-.439-.863-1.24-.863-2.402l.315-7.868c0-.482-.074-.822-.222-1.02a.705.705 0 0 0-.594-.297c-.42 0-.767.322-1.04.965l-2.133 5.01c-.42.99-.785 1.713-1.095 2.17-.309.458-.59.749-.844.873a1.74 1.74 0 0 1-.77.185c-.458 0-.841-.167-1.15-.5-.31-.335-.606-.86-.89-1.578l-2.654-6.977c-.21-.494-.483-.742-.817-.742-.47 0-.71.39-.723 1.17l.204 7.718c-.05 1.497-.35 2.486-.9 2.969-.55.482-1.21.723-1.976.723a2.92 2.92 0 0 1-1.55-.436c-.476-.29-.84-.85-1.094-1.679-.254-.829-.337-2.035-.25-3.618l.556-15.679c.087-1.595.257-2.82.51-3.674.254-.853.606-1.444 1.058-1.772.451-.327 1.005-.491 1.66-.491 1.72 0 2.914 1.07 3.582 3.21l3.302 9.63c.149.494.328.84.538 1.039.21.198.464.296.761.296.26 0 .489-.095.687-.287.198-.192.377-.535.538-1.03l3.45-9.073c.496-1.435 1.021-2.394 1.578-2.876a2.907 2.907 0 0 1 1.967-.724c.63 0 1.203.14 1.716.418.513.278.928.816 1.243 1.614.316.798.48 1.976.492 3.535l-.13 16.81Zm19.65.798c-.038 2.981-.972 4.472-2.802 4.472-1.052 0-1.782-.337-2.19-1.011-.408-.675-.593-1.73-.556-3.164l.426-15.864c.025-.73-.095-1.24-.361-1.531-.266-.29-.733-.436-1.401-.436l-1.93.037c-.878-.012-1.55-.285-2.013-.816-.464-.532-.696-1.225-.696-2.079 0-.99.325-1.74.974-2.254.65-.513 1.568-.745 2.756-.696l11.114.334c.928.037 1.657.275 2.19.715.531.439.797 1.005.797 1.697 0 .718-.198 1.336-.594 1.856-.395.52-1.057.822-1.985.909l-1.893.13c-.569.05-.977.198-1.224.445-.248.248-.377.68-.39 1.299l-.222 15.957Zm17.942 4.49c-1.608 0-3.074-.238-4.398-.714a8.037 8.037 0 0 1-3.404-2.357c-.947-1.094-1.676-2.572-2.19-4.434-.513-1.862-.77-4.184-.77-6.967v-.613c0-2.882.452-5.29 1.355-7.227.903-1.936 2.143-3.395 3.72-4.379 1.577-.983 3.374-1.475 5.39-1.475 3.167 0 5.696 1.058 7.589 3.173 1.892 2.115 2.839 5.338 2.839 9.667v.631c0 3.439-.408 6.24-1.225 8.405-.816 2.165-1.979 3.754-3.488 4.769-1.51 1.014-3.315 1.521-5.418 1.521Zm3.97-13.526c0-2.462-.395-4.376-1.187-5.743s-1.8-2.05-3.024-2.05c-1.534 0-2.626.702-3.275 2.106-.65 1.404-.974 3.213-.974 5.427v.316c0 2.078.37 3.741 1.113 4.99.742 1.25 1.868 1.875 3.377 1.875 1.509 0 2.548-.51 3.117-1.53.57-1.021.854-2.707.854-5.057v-.334Zm33.529 7.867c.668 2.066.745 3.52.232 4.36-.514.842-1.34 1.262-2.477 1.262-1.485 0-2.493-.928-3.025-2.783l-.482-1.948c-.198-.742-.495-1.237-.89-1.485-.397-.247-1.058-.346-1.986-.297l-1.596.093c-1.2.05-2.047.226-2.542.53-.495.302-.878.936-1.15 1.9l-.111.446c-.384 1.324-.854 2.242-1.41 2.756-.557.513-1.33.763-2.32.751-1.274-.025-2.115-.581-2.523-1.67-.409-1.088-.18-2.907.686-5.455l5.01-15.456c.717-2.115 1.45-3.547 2.199-4.295.748-.749 1.617-1.123 2.607-1.123.779 0 1.431.148 1.957.445.526.297.999.838 1.42 1.624.42.785.86 1.902 1.317 3.349l5.084 16.996Zm-9.945-12.265a.749.749 0 0 0-.548.232c-.154.155-.281.449-.38.882l-.835 3.45c-.223.941-.207 1.553.046 1.838.254.284.665.427 1.234.427h.872c.767 0 1.259-.25 1.475-.752.217-.5.158-1.302-.176-2.403l-.816-2.672c-.112-.383-.232-.646-.362-.788a.658.658 0 0 0-.51-.214Zm30.17 14.158c-.038 1.274-.316 2.19-.835 2.746-.52.556-1.207.835-2.06.835-.816 0-1.53-.294-2.143-.882-.612-.587-1.19-1.586-1.735-2.996l-4.62-9.908c-.285-.705-.637-1.058-1.058-1.058-.235 0-.423.108-.566.325-.142.216-.213.603-.213 1.16 0 1.508.019 3.03.056 4.564.037 1.534.055 3.043.055 4.527v.26c0 1.521-.256 2.564-.77 3.126-.513.563-1.184.845-2.013.845-.606 0-1.122-.136-1.55-.409-.426-.272-.744-.77-.955-1.493-.21-.724-.297-1.747-.26-3.071l.594-18.202c.062-1.806.387-3.003.974-3.59.588-.588 1.315-.882 2.18-.882.916 0 1.655.322 2.218.965s1.178 1.775 1.846 3.396l3.97 8.386c.211.458.406.776.585.956.18.18.38.269.603.269a.59.59 0 0 0 .52-.278c.123-.186.185-.526.185-1.021 0-.854-.024-1.658-.074-2.412-.05-.755-.108-1.58-.176-2.477-.068-.897-.133-1.97-.195-3.22v-.463c-.05-1.522.207-2.607.77-3.257.563-.649 1.296-.974 2.199-.974.977 0 1.713.371 2.208 1.114.495.742.711 2.152.65 4.23l-.39 18.889Zm9.481-16.774c-.012-2.028.164-3.578.529-4.648.365-1.07.992-1.8 1.883-2.19.89-.389 2.103-.565 3.637-.528l5.64.26c1.176.012 2.05.256 2.626.733.575.476.863 1.085.863 1.827 0 .73-.238 1.308-.715 1.735-.476.427-1.264.677-2.365.752l-4.157.148c-.791.05-1.314.189-1.568.418-.253.228-.392.67-.417 1.326l-.111 1.93c-.025.742.105 1.262.39 1.559.284.296.822.457 1.614.482l3.32.148c1.918.075 2.877.792 2.877 2.153 0 .73-.241 1.268-.724 1.614-.482.346-1.181.55-2.096.612l-2.95.093c-.928.05-1.587.263-1.977.64-.39.378-.54 1.036-.454 1.976l.185 1.837c.062.656.161 1.154.297 1.494.136.34.377.569.724.686.346.118.866.183 1.558.195l2.95.019c1.287.05 2.215.266 2.784.65.569.383.853.94.853 1.67 0 .902-.312 1.592-.937 2.068-.624.476-1.691.745-3.2.807l-4.342-.037c-1.336.05-2.422-.025-3.257-.223s-1.472-.587-1.91-1.169c-.44-.581-.746-1.41-.92-2.486-.172-1.076-.271-2.468-.296-4.175l-.334-12.376Zm40.264 15.252c.037 1.472-.053 2.567-.27 3.284-.216.718-.519 1.191-.909 1.42-.39.229-.825.343-1.308.343-.742 0-1.4-.22-1.976-.659-.575-.439-.863-1.24-.863-2.402l.316-7.868c0-.482-.074-.822-.223-1.02a.705.705 0 0 0-.594-.297c-.42 0-.766.322-1.039.965l-2.133 5.01c-.421.99-.786 1.713-1.095 2.17-.31.458-.59.749-.844.873a1.74 1.74 0 0 1-.77.185c-.458 0-.842-.167-1.15-.5-.31-.335-.607-.86-.891-1.578l-2.654-6.977c-.21-.494-.482-.742-.816-.742-.47 0-.711.39-.724 1.17l.204 7.718c-.05 1.497-.35 2.486-.9 2.969-.55.482-1.209.723-1.976.723a2.92 2.92 0 0 1-1.549-.436c-.476-.29-.841-.85-1.095-1.679-.253-.829-.337-2.035-.25-3.618l.556-15.679c.087-1.595.257-2.82.51-3.674.254-.853.607-1.444 1.058-1.772.452-.327 1.005-.491 1.661-.491 1.72 0 2.913 1.07 3.581 3.21l3.303 9.63c.148.494.328.84.538 1.039.21.198.464.296.76.296.26 0 .49-.095.687-.287.198-.192.377-.535.538-1.03l3.451-9.073c.495-1.435 1.02-2.394 1.578-2.876a2.907 2.907 0 0 1 1.966-.724c.631 0 1.203.14 1.717.418.513.278.927.816 1.243 1.614.315.798.48 1.976.492 3.535l-.13 16.81Zm6.197 4.954c-.594 0-1.11-.16-1.55-.482-.439-.322-.785-.974-1.038-1.958-.254-.983-.412-2.452-.474-4.406l-.352-13.323c-.062-2.065.111-3.64.52-4.722.408-1.082 1.057-1.821 1.948-2.217.89-.396 2.034-.594 3.432-.594l1.8.074c3.328.025 5.845.795 7.552 2.31 1.707 1.516 2.56 3.566 2.56 6.151 0 2.87-.751 5.053-2.254 6.55-1.503 1.497-3.603 2.344-6.3 2.542l-.315.037c-1.113.074-1.877.319-2.291.733-.415.415-.628 1.222-.64 2.422l.11 2.764c-.011 1.645-.271 2.743-.778 3.294-.508.55-1.15.825-1.93.825Zm7.348-21.412c-.619-.594-1.54-.835-2.765-.723l-.186.018c-.791.062-1.323.275-1.595.64s-.409 1.061-.409 2.088v.798c0 1.162.155 1.932.464 2.31.31.377.773.59 1.392.64l.204.018c1.286.087 2.248-.173 2.885-.779.637-.606.956-1.435.956-2.486 0-1.101-.316-1.942-.946-2.524Zm18.981 17.256c-.037 2.981-.971 4.472-2.802 4.472-1.051 0-1.781-.337-2.19-1.011-.407-.675-.593-1.73-.556-3.164l.427-15.864c.025-.73-.096-1.24-.362-1.531-.266-.29-.733-.436-1.4-.436l-1.93.037c-.879-.012-1.55-.285-2.014-.816-.464-.532-.695-1.225-.695-2.079 0-.99.324-1.74.974-2.254.65-.513 1.568-.745 2.755-.696l11.114.334c.928.037 1.658.275 2.19.715.532.439.798 1.005.798 1.697 0 .718-.198 1.336-.594 1.856-.396.52-1.058.822-1.986.909l-1.892.13c-.57.05-.977.198-1.225.445-.247.248-.377.68-.39 1.299l-.222 15.957Zm7.273-18.258c-.68-1.546-.862-2.832-.547-3.86.316-1.026 1.141-1.54 2.477-1.54.755 0 1.358.236 1.81.706.45.47.9 1.342 1.344 2.616l2.524 5.938c.247.618.454 1.039.621 1.261.167.223.35.334.548.334.222 0 .423-.111.603-.334.18-.222.417-.661.714-1.317l3.173-6.55c.396-.878.813-1.5 1.252-1.865.44-.364.993-.547 1.661-.547 1.175 0 1.927.448 2.255 1.345.327.897.22 1.958-.325 3.182l-4.12 8.276c-.197.42-.401.84-.612 1.261l-.668 1.336c-.26.52-.457.956-.593 1.309a5.601 5.601 0 0 0-.297 1.066 13.81 13.81 0 0 0-.149 1.41l-.204 4.936c-.198 2.388-1.094 3.581-2.69 3.581-.829 0-1.472-.281-1.93-.844-.458-.563-.717-1.475-.78-2.737l-.092-4.23c-.025-.891-.093-1.574-.204-2.05a7.243 7.243 0 0 0-.52-1.457 77.99 77.99 0 0 0-.64-1.401 150.17 150.17 0 0 1-.714-1.55l-3.897-8.275Zm29.02 22.303a2.525 2.525 0 0 1-1.484-.455c-.433-.303-.764-.872-.993-1.707-.229-.835-.319-2.056-.27-3.664l.13-14.176c.063-1.992.28-3.5.65-4.527.371-1.027.996-1.738 1.874-2.134.878-.396 2.11-.631 3.693-.705l.927-.037c3.6-.173 6.284.532 8.053 2.115 1.769 1.583 2.653 3.723 2.653 6.42 0 1.175-.126 2.146-.38 2.913-.254.767-.597 1.416-1.03 1.948-.433.532-.928 1.04-1.484 1.522-.26.21-.464.433-.612.668a1.53 1.53 0 0 0-.223.835c0 .272.037.566.111.881.074.315.198.659.371 1.03.235.47.55 1.008.947 1.614.395.606.97 1.423 1.725 2.45.643.828.965 1.675.965 2.541 0 .718-.241 1.336-.724 1.856-.482.52-1.144.779-1.985.779-1.064 0-1.954-.433-2.672-1.299a16.103 16.103 0 0 1-1.577-2.208 34.588 34.588 0 0 1-1.317-2.375c-.371-.742-.644-1.28-.817-1.614-.321-.643-.621-1.073-.9-1.29-.278-.216-.646-.324-1.104-.324h-.092c-.532 0-.925.151-1.179.454-.253.303-.399.838-.436 1.605l-.13 3.97c-.148 1.943-1.045 2.914-2.69 2.914Zm5.678-22.043h-.223c-.977 0-1.611.198-1.902.594-.29.396-.436 1.1-.436 2.115v.445c0 1.522.223 2.499.668 2.932.445.433 1.027.65 1.744.65h.149c2.202 0 3.302-1.083 3.302-3.248 0-2.325-1.1-3.488-3.302-3.488Zm21.616 22.488c-1.608 0-3.074-.238-4.398-.714a8.037 8.037 0 0 1-3.404-2.357c-.947-1.094-1.676-2.572-2.19-4.434-.513-1.862-.77-4.184-.77-6.967v-.613c0-2.882.452-5.29 1.355-7.227.903-1.936 2.143-3.395 3.72-4.379 1.577-.983 3.374-1.475 5.39-1.475 3.167 0 5.696 1.058 7.589 3.173 1.892 2.115 2.839 5.338 2.839 9.667v.631c0 3.439-.408 6.24-1.225 8.405-.816 2.165-1.979 3.754-3.488 4.769-1.51 1.014-3.315 1.521-5.418 1.521Zm3.97-13.526c0-2.462-.395-4.376-1.187-5.743s-1.8-2.05-3.024-2.05c-1.534 0-2.626.702-3.275 2.106-.65 1.404-.974 3.213-.974 5.427v.316c0 2.078.37 3.741 1.113 4.99.742 1.25 1.868 1.875 3.377 1.875 1.509 0 2.548-.51 3.117-1.53.57-1.021.854-2.707.854-5.057v-.334Zm18.425 13.526c-1.608 0-3.073-.238-4.397-.714a8.037 8.037 0 0 1-3.405-2.357c-.946-1.094-1.676-2.572-2.19-4.434-.513-1.862-.77-4.184-.77-6.967v-.613c0-2.882.452-5.29 1.355-7.227.903-1.936 2.143-3.395 3.72-4.379 1.578-.983 3.374-1.475 5.39-1.475 3.167 0 5.697 1.058 7.59 3.173 1.892 2.115 2.838 5.338 2.838 9.667v.631c0 3.439-.408 6.24-1.224 8.405-.817 2.165-1.98 3.754-3.489 4.769-1.509 1.014-3.315 1.521-5.418 1.521Zm3.971-13.526c0-2.462-.396-4.376-1.187-5.743-.792-1.367-1.8-2.05-3.025-2.05-1.534 0-2.625.702-3.275 2.106-.65 1.404-.974 3.213-.974 5.427v.316c0 2.078.371 3.741 1.113 4.99.743 1.25 1.868 1.875 3.377 1.875 1.51 0 2.549-.51 3.118-1.53.569-1.021.853-2.707.853-5.057v-.334Zm31.636 8.238c.037 1.472-.053 2.567-.27 3.284-.216.718-.519 1.191-.908 1.42-.39.229-.826.343-1.308.343-.743 0-1.401-.22-1.977-.659-.575-.439-.862-1.24-.862-2.402l.315-7.868c0-.482-.074-.822-.223-1.02a.705.705 0 0 0-.593-.297c-.42 0-.767.322-1.04.965l-2.133 5.01c-.42.99-.786 1.713-1.095 2.17-.31.458-.59.749-.844.873a1.74 1.74 0 0 1-.77.185c-.458 0-.841-.167-1.15-.5-.31-.335-.607-.86-.891-1.578l-2.653-6.977c-.21-.494-.483-.742-.817-.742-.47 0-.711.39-.724 1.17l.205 7.718c-.05 1.497-.35 2.486-.9 2.969-.55.482-1.21.723-1.976.723a2.92 2.92 0 0 1-1.55-.436c-.476-.29-.84-.85-1.094-1.679-.254-.829-.338-2.035-.25-3.618l.556-15.679c.086-1.595.256-2.82.51-3.674.254-.853.606-1.444 1.058-1.772.451-.327 1.005-.491 1.66-.491 1.72 0 2.913 1.07 3.581 3.21l3.303 9.63c.148.494.328.84.538 1.039.21.198.464.296.76.296.26 0 .49-.095.687-.287.198-.192.378-.535.538-1.03l3.452-9.073c.494-1.435 1.02-2.394 1.577-2.876a2.907 2.907 0 0 1 1.967-.724c.63 0 1.203.14 1.716.418.513.278.928.816 1.243 1.614.315.798.48 1.976.492 3.535l-.13 16.81Z"/></svg>