<svg xmlns="http://www.w3.org/2000/svg" viewBox="0 0 470 29"><path fill="#FFF" d="m.668 15.661-.056-1.466c-.148-3.29.186-5.953 1.002-7.987.817-2.035 2.07-3.52 3.758-4.454C7.06.82 9.129.354 11.578.354c1.72 0 3.22.398 4.5 1.196 1.28.798 2.276 1.918 2.987 3.359.711 1.44 1.067 3.126 1.067 5.056 0 1.2-.235 2.15-.705 2.848-.47.699-1.237 1.048-2.301 1.048-.94 0-1.648-.281-2.125-.844-.476-.563-.782-1.456-.918-2.681-.074-.99-.359-1.812-.854-2.468-.494-.655-1.224-.99-2.189-1.002-1.41-.025-2.49.566-3.238 1.772-.748 1.206-1.128 3.065-1.14 5.576v1.15c-.013 2.425.32 4.215 1.001 5.372.68 1.156 1.695 1.784 3.043 1.883.89.05 1.648-.232 2.273-.844.625-.612 1.036-1.42 1.234-2.421.223-1.077.566-1.816 1.03-2.218.464-.402 1.03-.603 1.697-.603 1.052 0 1.819.334 2.301 1.002.483.668.749 1.565.798 2.69.136 2.672-.597 4.788-2.199 6.346-1.602 1.559-3.825 2.338-6.67 2.338-3.315-.012-5.839-1.048-7.57-3.108-1.732-2.06-2.71-5.44-2.932-10.14Zm39.651 7.31c-.05 2.091-.278 3.508-.686 4.25-.408.742-1.095 1.113-2.06 1.113-.84 0-1.453-.322-1.837-.965-.383-.643-.618-1.72-.705-3.228l-.111-4.268c-.05-.878-.232-1.521-.547-1.93-.316-.408-.814-.624-1.494-.65l-3.303-.129c-.643-.025-1.088.108-1.336.399-.247.29-.402.869-.464 1.735l-.297 4.991c-.136 1.534-.417 2.616-.844 3.247-.427.631-1.03.946-1.809.946-.52 0-.974-.145-1.364-.436-.39-.29-.702-.835-.937-1.632-.235-.798-.383-1.952-.445-3.46l-.26-16.552c-.05-1.447.04-2.563.27-3.349.228-.785.575-1.333 1.038-1.642.464-.31 1-.464 1.605-.464.73 0 1.336.27 1.819.807.482.538.785 1.525.909 2.96l.185 4.527c.062.742.201 1.277.418 1.605.216.328.61.492 1.178.492h3.581c.817 0 1.398-.136 1.744-.408.347-.272.538-.854.576-1.744l-.019-4.676c.087-1.324.356-2.252.807-2.783.452-.532 1.117-.798 1.995-.798.853 0 1.521.3 2.004.9.482.6.699 1.79.65 3.571l-.26 17.572Zm6.16 5.363a2.525 2.525 0 0 1-1.484-.455c-.433-.303-.764-.872-.993-1.707-.228-.835-.318-2.056-.269-3.664l.13-14.176c.062-1.992.279-3.5.65-4.527.37-1.027.995-1.738 1.874-2.134.878-.396 2.109-.631 3.692-.705l.928-.037c3.6-.173 6.284.532 8.053 2.115 1.768 1.583 2.653 3.723 2.653 6.42 0 1.175-.127 2.146-.38 2.913-.254.767-.597 1.416-1.03 1.948-.433.532-.928 1.04-1.485 1.522-.26.21-.464.433-.612.668a1.53 1.53 0 0 0-.223.835c0 .272.038.566.112.881.074.315.198.659.37 1.03.236.47.551 1.008.947 1.614.396.606.971 1.423 1.726 2.45.643.828.965 1.675.965 2.541 0 .718-.242 1.336-.724 1.856-.483.52-1.144.779-1.985.779-1.064 0-1.955-.433-2.672-1.299a16.103 16.103 0 0 1-1.577-2.208 34.588 34.588 0 0 1-1.318-2.375c-.37-.742-.643-1.28-.816-1.614-.322-.643-.622-1.073-.9-1.29-.278-.216-.646-.324-1.104-.324h-.093c-.532 0-.925.151-1.178.454-.254.303-.4.838-.436 1.605l-.13 3.97c-.149 1.943-1.045 2.914-2.69 2.914Zm5.678-22.043h-.222c-.978 0-1.612.198-1.902.594-.291.396-.436 1.1-.436 2.115v.445c0 1.522.222 2.499.668 2.932.445.433 1.026.65 1.744.65h.148c2.202 0 3.303-1.083 3.303-3.248 0-2.325-1.101-3.488-3.303-3.488Zm11.226-.835c-.05-1.707.17-2.898.659-3.572.488-.674 1.184-1.011 2.087-1.011.878 0 1.565.297 2.06.89.494.594.773 1.745.834 3.452l.39 18.258c.062 2.004-.18 3.349-.724 4.035-.544.687-1.274 1.03-2.189 1.03-.89 0-1.583-.325-2.078-.974-.495-.65-.773-1.852-.835-3.609l-.204-18.499Zm9.89 7.682c-1.09-1.274-1.633-2.901-1.633-4.88 0-1.559.386-2.9 1.16-4.027.772-1.125 1.861-1.991 3.265-2.597 1.404-.606 3.046-.91 4.926-.91.928 0 1.741.053 2.44.158.699.105 1.296.232 1.79.38.966.285 1.695.727 2.19 1.327.495.6.742 1.278.742 2.032 0 .804-.24 1.49-.723 2.06-.483.569-1.188.853-2.116.853-.606 0-1.314-.17-2.124-.51-.81-.34-1.735-.51-2.774-.51-.668 0-1.23.167-1.688.5-.458.335-.687.836-.687 1.504 0 .655.216 1.215.65 1.679.432.464 1.193.95 2.282 1.456l.612.279c1.67.742 2.993 1.524 3.97 2.347.978.822 1.677 1.735 2.097 2.737.42 1.002.631 2.152.631 3.45 0 1.584-.39 2.997-1.169 4.24-.779 1.244-1.899 2.224-3.358 2.941-1.46.718-3.21 1.077-5.251 1.077a15.75 15.75 0 0 1-2.607-.204 16.675 16.675 0 0 1-2.013-.446c-1.027-.321-1.744-.751-2.153-1.29-.408-.537-.612-1.24-.612-2.105 0-.693.248-1.32.742-1.884.495-.562 1.25-.844 2.264-.844.792 0 1.466.053 2.022.158.557.105 1.077.213 1.559.325.482.11.99.167 1.522.167 1.62 0 2.43-.712 2.43-2.134 0-.767-.226-1.398-.677-1.893-.452-.495-1.228-1.014-2.329-1.558l-.65-.334c-2.065-1.101-3.642-2.283-4.73-3.544Zm26.681 11.151c-.037 2.981-.97 4.472-2.802 4.472-1.051 0-1.78-.337-2.19-1.011-.407-.675-.593-1.73-.556-3.164l.427-15.864c.025-.73-.096-1.24-.362-1.531-.266-.29-.733-.436-1.4-.436l-1.93.037c-.879-.012-1.55-.285-2.014-.816-.463-.532-.695-1.225-.695-2.079 0-.99.324-1.74.974-2.254.65-.513 1.568-.745 2.755-.696l11.114.334c.928.037 1.658.275 2.19.715.532.439.798 1.005.798 1.697 0 .718-.198 1.336-.594 1.856-.396.52-1.058.822-1.985.909l-1.893.13c-.569.05-.977.198-1.225.445-.247.248-.377.68-.39 1.299l-.222 15.957Zm13.378-8.628-.056-1.466c-.148-3.29.186-5.953 1.002-7.987.817-2.035 2.07-3.52 3.758-4.454 1.688-.934 3.757-1.4 6.206-1.4 1.72 0 3.22.398 4.5 1.196 1.28.798 2.276 1.918 2.987 3.359.711 1.44 1.067 3.126 1.067 5.056 0 1.2-.235 2.15-.705 2.848-.47.699-1.237 1.048-2.301 1.048-.94 0-1.648-.281-2.124-.844-.477-.563-.783-1.456-.919-2.681-.074-.99-.359-1.812-.853-2.468-.495-.655-1.225-.99-2.19-1.002-1.41-.025-2.49.566-3.238 1.772-.748 1.206-1.128 3.065-1.14 5.576v1.15c-.013 2.425.32 4.215 1.001 5.372.68 1.156 1.695 1.784 3.043 1.883.89.05 1.648-.232 2.273-.844.625-.612 1.036-1.42 1.234-2.421.223-1.077.566-1.816 1.03-2.218.464-.402 1.03-.603 1.697-.603 1.052 0 1.819.334 2.301 1.002.483.668.749 1.565.798 2.69.136 2.672-.597 4.788-2.199 6.346-1.601 1.559-3.825 2.338-6.67 2.338-3.315-.012-5.839-1.048-7.57-3.108-1.732-2.06-2.71-5.44-2.932-10.14Zm39.651 7.31c-.05 2.091-.278 3.508-.686 4.25-.408.742-1.095 1.113-2.06 1.113-.84 0-1.453-.322-1.837-.965-.383-.643-.618-1.72-.705-3.228l-.111-4.268c-.05-.878-.232-1.521-.547-1.93-.316-.408-.814-.624-1.494-.65l-3.303-.129c-.643-.025-1.088.108-1.336.399-.247.29-.402.869-.464 1.735l-.296 4.991c-.137 1.534-.418 2.616-.845 3.247-.426.631-1.03.946-1.809.946-.52 0-.974-.145-1.364-.436-.39-.29-.702-.835-.937-1.632-.235-.798-.383-1.952-.445-3.46l-.26-16.552c-.05-1.447.04-2.563.27-3.349.228-.785.575-1.333 1.038-1.642.464-.31 1-.464 1.605-.464.73 0 1.336.27 1.819.807.482.538.785 1.525.909 2.96l.186 4.527c.061.742.2 1.277.417 1.605.216.328.61.492 1.178.492h3.581c.817 0 1.398-.136 1.744-.408.347-.272.539-.854.576-1.744l-.019-4.676c.087-1.324.356-2.252.807-2.783.452-.532 1.117-.798 1.995-.798.853 0 1.521.3 2.004.9.482.6.699 1.79.65 3.571l-.26 17.572Zm22.136-6.92c-.26 8.35-3.544 12.524-9.852 12.524-2.14 0-3.872-.43-5.196-1.29-1.323-.86-2.285-2.223-2.885-4.09-.6-1.869-.9-4.318-.9-7.348V6.254c0-3.352.934-5.028 2.802-5.028.915 0 1.583.368 2.004 1.104.42.736.674 2.044.76 3.924l.149 9.351c.05 2.041.337 3.455.863 4.24.525.786 1.432 1.178 2.718 1.178 1.274.013 2.199-.402 2.774-1.243.575-.84.887-2.232.937-4.175l.241-10.075c.1-1.781.384-3.009.854-3.683.47-.674 1.23-1.011 2.282-1.011 1.076 0 1.834.52 2.273 1.559.439 1.039.628 2.758.566 5.158l-.39 8.498Zm5.307 12.283a2.525 2.525 0 0 1-1.485-.455c-.433-.303-.763-.872-.992-1.707-.23-.835-.319-2.056-.27-3.664l.13-14.176c.062-1.992.279-3.5.65-4.527.371-1.027.996-1.738 1.874-2.134.878-.396 2.11-.631 3.692-.705l.928-.037c3.6-.173 6.284.532 8.053 2.115 1.769 1.583 2.653 3.723 2.653 6.42 0 1.175-.127 2.146-.38 2.913-.254.767-.597 1.416-1.03 1.948-.433.532-.928 1.04-1.484 1.522-.26.21-.464.433-.613.668a1.53 1.53 0 0 0-.222.835c0 .272.037.566.111.881.074.315.198.659.371 1.03.235.47.55 1.008.946 1.614.396.606.971 1.423 1.726 2.45.643.828.965 1.675.965 2.541 0 .718-.241 1.336-.724 1.856-.482.52-1.144.779-1.985.779-1.064 0-1.955-.433-2.672-1.299a16.103 16.103 0 0 1-1.577-2.208 34.588 34.588 0 0 1-1.318-2.375c-.37-.742-.643-1.28-.816-1.614-.322-.643-.622-1.073-.9-1.29-.278-.216-.646-.324-1.104-.324h-.093c-.532 0-.924.151-1.178.454-.253.303-.399.838-.436 1.605l-.13 3.97c-.148 1.943-1.045 2.914-2.69 2.914Zm5.678-22.043h-.223c-.977 0-1.611.198-1.902.594-.29.396-.436 1.1-.436 2.115v.445c0 1.522.223 2.499.668 2.932.445.433 1.027.65 1.744.65h.149c2.201 0 3.302-1.083 3.302-3.248 0-2.325-1.1-3.488-3.302-3.488Zm10.761 9.37-.055-1.466c-.149-3.29.185-5.953 1.002-7.987.816-2.035 2.068-3.52 3.757-4.454 1.688-.934 3.757-1.4 6.206-1.4 1.72 0 3.22.398 4.5 1.196 1.28.798 2.276 1.918 2.987 3.359.711 1.44 1.067 3.126 1.067 5.056 0 1.2-.235 2.15-.705 2.848-.47.699-1.237 1.048-2.3 1.048-.94 0-1.649-.281-2.125-.844-.477-.563-.783-1.456-.919-2.681-.074-.99-.358-1.812-.853-2.468-.495-.655-1.225-.99-2.19-1.002-1.41-.025-2.49.566-3.237 1.772-.749 1.206-1.13 3.065-1.142 5.576v1.15c-.012 2.425.322 4.215 1.002 5.372.68 1.156 1.695 1.784 3.043 1.883.89.05 1.649-.232 2.273-.844.625-.612 1.036-1.42 1.234-2.421.223-1.077.566-1.816 1.03-2.218.464-.402 1.03-.603 1.698-.603 1.051 0 1.818.334 2.3 1.002.483.668.749 1.565.798 2.69.136 2.672-.597 4.788-2.198 6.346-1.602 1.559-3.826 2.338-6.67 2.338-3.316-.012-5.84-1.048-7.571-3.108-1.732-2.06-2.71-5.44-2.932-10.14Zm39.652 7.31c-.05 2.091-.279 3.508-.687 4.25-.408.742-1.095 1.113-2.06 1.113-.84 0-1.453-.322-1.836-.965-.384-.643-.619-1.72-.705-3.228l-.112-4.268c-.05-.878-.232-1.521-.547-1.93-.316-.408-.813-.624-1.494-.65l-3.303-.129c-.643-.025-1.088.108-1.335.399-.248.29-.403.869-.464 1.735l-.297 4.991c-.136 1.534-.418 2.616-.844 3.247-.427.631-1.03.946-1.81.946-.52 0-.974-.145-1.363-.436-.39-.29-.702-.835-.937-1.632-.235-.798-.384-1.952-.446-3.46l-.26-16.552c-.049-1.447.04-2.563.27-3.349.228-.785.575-1.333 1.039-1.642.464-.31.999-.464 1.605-.464.73 0 1.336.27 1.818.807.482.538.786 1.525.91 2.96l.185 4.527c.062.742.2 1.277.417 1.605.217.328.61.492 1.178.492h3.582c.816 0 1.397-.136 1.744-.408.346-.272.538-.854.575-1.744l-.019-4.676c.087-1.324.356-2.252.807-2.783.452-.532 1.117-.798 1.995-.798.854 0 1.522.3 2.004.9.482.6.699 1.79.65 3.571l-.26 17.572Zm9.982-.871c-.903-2.202-1.293-4.973-1.169-8.313l.019-.408c.136-3.142.655-5.65 1.558-7.524.903-1.874 2.156-3.225 3.758-4.054 1.601-.829 3.516-1.243 5.742-1.243 1.843 0 3.396.334 4.657 1.002 1.262.668 2.227 1.549 2.895 2.644a6.936 6.936 0 0 1 1.039 3.534c.025 1.114-.232 1.967-.77 2.56-.538.595-1.172.891-1.902.891-.606 0-1.138-.151-1.596-.454-.457-.303-.828-.795-1.113-1.475-.606-1.72-1.744-2.58-3.414-2.58-.816 0-1.577.279-2.282.836-.705.556-1.274 1.425-1.707 2.607-.433 1.18-.656 2.724-.668 4.629v.334c-.025 2.697.29 4.657.946 5.882.656 1.224 1.868 1.837 3.637 1.837 1.348 0 2.313-.316 2.894-.947.582-.63.91-1.434.984-2.412l.018-.167c.05-.643-.05-1.088-.296-1.336-.248-.247-.755-.383-1.522-.408l-.76-.018c-.867-.025-1.504-.226-1.912-.603-.408-.378-.612-.876-.612-1.494 0-.705.235-1.268.705-1.689.47-.42 1.274-.637 2.412-.649l3.173-.093c1.546-.024 2.632.313 3.256 1.011.625.7.906 1.915.844 3.646l-.055 1.114c-.112 3.24-.99 5.702-2.635 7.385-1.645 1.682-3.835 2.517-6.568 2.505-2.128-.013-4.024-.56-5.687-1.643-1.664-1.082-2.954-2.718-3.869-4.907Zm39.837 1.02c.668 2.066.745 3.52.232 4.36-.513.842-1.34 1.262-2.477 1.262-1.485 0-2.493-.928-3.025-2.783l-.482-1.948c-.198-.742-.495-1.237-.89-1.485-.396-.247-1.058-.346-1.986-.297l-1.596.093c-1.2.05-2.047.226-2.542.53-.494.302-.878.936-1.15 1.9l-.111.446c-.384 1.324-.854 2.242-1.41 2.756-.557.513-1.33.763-2.32.751-1.274-.025-2.115-.581-2.523-1.67-.409-1.088-.18-2.907.686-5.455l5.01-15.456c.717-2.115 1.45-3.547 2.199-4.295.748-.749 1.617-1.123 2.607-1.123.779 0 1.431.148 1.957.445.526.297.999.838 1.42 1.624.42.785.86 1.902 1.317 3.349l5.084 16.996Zm-9.945-12.265a.749.749 0 0 0-.548.232c-.154.155-.281.449-.38.882l-.835 3.45c-.223.941-.207 1.553.046 1.838.254.284.665.427 1.234.427h.872c.767 0 1.259-.25 1.475-.752.217-.5.158-1.302-.176-2.403l-.816-2.672c-.112-.383-.232-.646-.362-.788a.658.658 0 0 0-.51-.214Zm11.466-4.453c0-1.496.136-2.64.409-3.432.272-.792.637-1.34 1.094-1.642a2.637 2.637 0 0 1 1.485-.455c.977 0 1.728.356 2.254 1.067s.752 2.081.677 4.11l.019 13.804c-.025 1.324.151 2.205.529 2.645.377.439 1.172.621 2.384.547l2.653-.167c1.472-.1 2.499.083 3.08.547.582.464.872 1.203.872 2.218 0 .927-.324 1.61-.974 2.05-.65.439-1.728.659-3.237.659a26.755 26.755 0 0 0-2.227.055c-.742.05-1.447.1-2.115.149a46.213 46.213 0 0 1-2.115.148c-1.077.025-1.949-.158-2.617-.547-.668-.39-1.156-1.073-1.466-2.05-.309-.978-.47-2.326-.482-4.046l-.223-15.66Zm16.625 0c0-1.496.136-2.64.409-3.432.272-.792.637-1.34 1.094-1.642a2.637 2.637 0 0 1 1.485-.455c.977 0 1.728.356 2.254 1.067s.752 2.081.677 4.11l.019 13.804c-.025 1.324.151 2.205.529 2.645.377.439 1.172.621 2.384.547l2.653-.167c1.472-.1 2.499.083 3.08.547.582.464.872 1.203.872 2.218 0 .927-.324 1.61-.974 2.05-.65.439-1.728.659-3.237.659a26.755 26.755 0 0 0-2.227.055c-.742.05-1.447.1-2.115.149a46.213 46.213 0 0 1-2.115.148c-1.077.025-1.949-.158-2.617-.547-.668-.39-1.156-1.073-1.466-2.05-.309-.978-.47-2.326-.482-4.046l-.223-15.66Zm16.755 1.837c-.012-2.028.164-3.578.53-4.648.364-1.07.992-1.8 1.882-2.19.891-.389 2.103-.565 3.637-.528l5.64.26c1.176.012 2.051.256 2.626.733.575.476.863 1.085.863 1.827 0 .73-.238 1.308-.714 1.735-.477.427-1.265.677-2.366.752l-4.156.148c-.792.05-1.315.189-1.568.418-.254.228-.393.67-.418 1.326l-.111 1.93c-.025.742.105 1.262.39 1.559.284.296.822.457 1.614.482l3.321.148c1.918.075 2.876.792 2.876 2.153 0 .73-.241 1.268-.723 1.614-.483.346-1.182.55-2.097.612l-2.95.093c-.928.05-1.587.263-1.976.64-.39.378-.542 1.036-.455 1.976l.186 1.837c.061.656.16 1.154.296 1.494.137.34.378.569.724.686.346.118.866.183 1.559.195l2.95.019c1.286.05 2.214.266 2.783.65.57.383.854.94.854 1.67 0 .902-.313 1.592-.937 2.068-.625.476-1.692.745-3.201.807l-4.342-.037c-1.336.05-2.421-.025-3.256-.223s-1.472-.587-1.911-1.169c-.44-.581-.746-1.41-.919-2.486-.173-1.076-.272-2.468-.297-4.175l-.334-12.376Zm19.631 20.095a2.525 2.525 0 0 1-1.484-.455c-.433-.303-.764-.872-.993-1.707-.229-.835-.318-2.056-.269-3.664l.13-14.176c.062-1.992.278-3.5.65-4.527.37-1.027.995-1.738 1.873-2.134.879-.396 2.11-.631 3.693-.705l.928-.037c3.6-.173 6.283.532 8.052 2.115 1.77 1.583 2.654 3.723 2.654 6.42 0 1.175-.127 2.146-.38 2.913-.254.767-.598 1.416-1.03 1.948-.434.532-.928 1.04-1.485 1.522-.26.21-.464.433-.612.668a1.53 1.53 0 0 0-.223.835c0 .272.037.566.111.881.075.315.198.659.371 1.03.236.47.55 1.008.947 1.614.396.606.97 1.423 1.725 2.45.644.828.965 1.675.965 2.541 0 .718-.241 1.336-.723 1.856-.483.52-1.145.779-1.986.779-1.064 0-1.954-.433-2.672-1.299a16.103 16.103 0 0 1-1.577-2.208 34.588 34.588 0 0 1-1.317-2.375 138.21 138.21 0 0 0-.817-1.614c-.321-.643-.621-1.073-.9-1.29-.278-.216-.646-.324-1.103-.324h-.093c-.532 0-.925.151-1.178.454-.254.303-.4.838-.437 1.605l-.13 3.97c-.148 1.943-1.045 2.914-2.69 2.914Zm5.678-22.043h-.223c-.977 0-1.61.198-1.902.594-.29.396-.436 1.1-.436 2.115v.445c0 1.522.223 2.499.668 2.932.446.433 1.027.65 1.744.65h.149c2.202 0 3.303-1.083 3.303-3.248 0-2.325-1.101-3.488-3.303-3.488Zm10.947-.26c-.68-1.546-.863-2.832-.547-3.86.315-1.026 1.14-1.54 2.477-1.54.754 0 1.357.236 1.809.706.451.47.9 1.342 1.345 2.616l2.524 5.938c.247.618.454 1.039.621 1.261.167.223.35.334.548.334.222 0 .423-.111.603-.334.179-.222.417-.661.714-1.317l3.173-6.55c.396-.878.813-1.5 1.252-1.865.44-.364.993-.547 1.66-.547 1.176 0 1.927.448 2.255 1.345.328.897.22 1.958-.324 3.182l-4.12 8.276c-.198.42-.402.84-.612 1.261l-.668 1.336c-.26.52-.458.956-.594 1.309a5.6 5.6 0 0 0-.296 1.066 13.81 13.81 0 0 0-.149 1.41l-.204 4.936c-.198 2.388-1.095 3.581-2.69 3.581-.83 0-1.472-.281-1.93-.844-.458-.563-.718-1.475-.78-2.737l-.092-4.23c-.025-.891-.093-1.574-.204-2.05a7.243 7.243 0 0 0-.52-1.457 77.99 77.99 0 0 0-.64-1.401c-.229-.489-.467-1.005-.714-1.55l-3.897-8.275Zm44.55 16.94c-.05 2.091-.278 3.508-.687 4.25-.408.742-1.094 1.113-2.06 1.113-.84 0-1.453-.322-1.836-.965-.384-.643-.619-1.72-.705-3.228l-.111-4.268c-.05-.878-.232-1.521-.548-1.93-.315-.408-.813-.624-1.493-.65l-3.303-.129c-.643-.025-1.089.108-1.336.399-.248.29-.402.869-.464 1.735l-.297 4.991c-.136 1.534-.417 2.616-.844 3.247-.427.631-1.03.946-1.81.946-.519 0-.973-.145-1.363-.436-.39-.29-.702-.835-.937-1.632-.235-.798-.383-1.952-.445-3.46l-.26-16.552c-.05-1.447.04-2.563.269-3.349.229-.785.575-1.333 1.04-1.642.463-.31.998-.464 1.604-.464.73 0 1.336.27 1.818.807.483.538.786 1.525.91 2.96l.185 4.527c.062.742.201 1.277.418 1.605.216.328.609.492 1.178.492h3.58c.817 0 1.399-.136 1.745-.408.346-.272.538-.854.575-1.744l-.018-4.676c.086-1.324.355-2.252.807-2.783.451-.532 1.116-.798 1.994-.798.854 0 1.522.3 2.004.9.483.6.7 1.79.65 3.571l-.26 17.572Zm3.284-14.732c-.012-2.028.164-3.578.529-4.648.365-1.07.993-1.8 1.883-2.19.89-.389 2.103-.565 3.637-.528l5.64.26c1.176.012 2.05.256 2.626.733.575.476.863 1.085.863 1.827 0 .73-.238 1.308-.714 1.735-.477.427-1.265.677-2.366.752l-4.156.148c-.792.05-1.315.189-1.568.418-.254.228-.393.67-.418 1.326l-.111 1.93c-.025.742.105 1.262.39 1.559.284.296.822.457 1.614.482l3.321.148c1.917.075 2.876.792 2.876 2.153 0 .73-.241 1.268-.724 1.614-.482.346-1.18.55-2.096.612l-2.95.093c-.928.05-1.587.263-1.977.64-.39.378-.54 1.036-.454 1.976l.185 1.837c.062.656.161 1.154.297 1.494.136.34.378.569.724.686.346.118.866.183 1.559.195l2.95.019c1.286.05 2.214.266 2.783.65.569.383.853.94.853 1.67 0 .902-.312 1.592-.937 2.068-.624.476-1.691.745-3.2.807l-4.342-.037c-1.336.05-2.421-.025-3.256-.223s-1.472-.587-1.912-1.169c-.439-.581-.745-1.41-.918-2.486-.173-1.076-.272-2.468-.297-4.175l-.334-12.376Zm16.662-2.783c-.05-1.707.17-2.898.659-3.572.489-.674 1.184-1.011 2.087-1.011.879 0 1.565.297 2.06.89.495.594.773 1.745.835 3.452l.39 18.258c.061 2.004-.18 3.349-.724 4.035-.544.687-1.274 1.03-2.19 1.03-.89 0-1.583-.325-2.078-.974-.494-.65-.773-1.852-.835-3.609l-.204-18.499Zm9.89 7.682c-1.089-1.274-1.633-2.901-1.633-4.88 0-1.559.387-2.9 1.16-4.027.773-1.125 1.861-1.991 3.265-2.597 1.404-.606 3.046-.91 4.927-.91.927 0 1.74.053 2.44.158.698.105 1.295.232 1.79.38.965.285 1.695.727 2.19 1.327.494.6.742 1.278.742 2.032 0 .804-.241 1.49-.724 2.06-.482.569-1.187.853-2.115.853-.606 0-1.314-.17-2.125-.51-.81-.34-1.734-.51-2.774-.51-.668 0-1.23.167-1.688.5-.458.335-.687.836-.687 1.504 0 .655.217 1.215.65 1.679.433.464 1.194.95 2.282 1.456l.612.279c1.67.742 2.994 1.524 3.971 2.347.977.822 1.676 1.735 2.097 2.737.42 1.002.63 2.152.63 3.45 0 1.584-.389 2.997-1.168 4.24-.78 1.244-1.9 2.224-3.359 2.941-1.46.718-3.21 1.077-5.25 1.077a15.75 15.75 0 0 1-2.608-.204 16.675 16.675 0 0 1-2.013-.446c-1.026-.321-1.744-.751-2.152-1.29-.408-.537-.612-1.24-.612-2.105 0-.693.247-1.32.742-1.884.495-.562 1.25-.844 2.263-.844.792 0 1.466.053 2.023.158.557.105 1.076.213 1.558.325.483.11.99.167 1.522.167 1.62 0 2.43-.712 2.43-2.134 0-.767-.225-1.398-.677-1.893-.451-.495-1.227-1.014-2.328-1.558l-.65-.334c-2.065-1.101-3.643-2.283-4.731-3.544Zm26.682 11.151c-.038 2.981-.971 4.472-2.802 4.472-1.052 0-1.781-.337-2.19-1.011-.408-.675-.593-1.73-.556-3.164l.426-15.864c.025-.73-.095-1.24-.361-1.531-.266-.29-.733-.436-1.401-.436l-1.93.037c-.878-.012-1.55-.285-2.013-.816-.464-.532-.696-1.225-.696-2.079 0-.99.325-1.74.974-2.254.65-.513 1.568-.745 2.756-.696l11.114.334c.928.037 1.657.275 2.19.715.531.439.797 1.005.797 1.697 0 .718-.198 1.336-.594 1.856-.395.52-1.057.822-1.985.909l-1.893.13c-.569.05-.977.198-1.224.445-.248.248-.377.68-.39 1.299l-.222 15.957Z"/></svg>