<svg xmlns="http://www.w3.org/2000/svg" width="160" viewBox="0 0 310 60" id="banner-logo">

<g fill="none" fill-rule="evenodd">
<path fill="#243A4A" id="banner-logotype" fill-rule="nonzero" d="M75.976 57 70.72 8.04h8.928l2.592 34.416L86.632 8.04h7.848l4.32 34.632 2.592-34.632h7.704L103.768 57H93.4l-3.528-29.808L86.128 57H75.976Zm36.72 0V8.04h8.928v19.656h6.84V8.04h8.928V57h-8.928V35.112h-6.84V57h-8.928Zm30.456 0V8.04h19.728v7.416h-10.8v12.672h9.576v7.416h-9.576v14.04h11.52V57h-20.448Zm24.696 0V8.04h19.728v7.416h-10.8v12.672h9.576v7.416h-9.576v14.04h11.52V57h-20.448Zm24.696 0V8.04h8.928v41.544h10.44V57h-19.368Zm23.256 0V8.04h12.24l4.608 31.752 4.896-31.752h12.024V57h-8.064V22.296L235.888 57h-7.92l-5.616-34.992V57H215.8Zm37.008 0 9.144-48.96h10.296L281.392 57h-9.36l-1.44-9.072h-8.64L260.584 57h-7.776Zm10.224-16.2h6.48l-3.24-20.808-3.24 20.808Zm21.6 16.2V8.04h10.296l7.848 32.544V8.04h6.768V57h-10.296L291.4 24.672V57h-6.768Z"/>

<path fill="#BA0D37" id="banner-logomark" d="M30 0c16.542 0 30 13.457 30 30 0 16.542-13.458 30-30 30C13.457 60 0 46.542 0 30 0 13.457 13.457 0 30 0Zm0 10c-11.027 0-20 8.973-20 20 0 11.028 8.973 20 20 20 11.028 0 20-8.972 20-20 0-11.027-8.972-20-20-20ZM14.59 21.718a71.089 71.089 0 0 1 30.82 0A17.385 17.385 0 0 1 47.5 30c0 .942-.095 1.86-.24 2.763-6.725 1.247-11.875 6.992-12.222 13.99a17.368 17.368 0 0 1-10.075 0c-.348-6.998-5.498-12.743-12.223-13.99-.145-.903-.24-1.82-.24-2.763 0-2.992.758-5.815 2.09-8.282ZM30 25c-2.758 0-5 2.245-5 5s2.242 5 5 5 5-2.245 5-5-2.242-5-5-5Z"/>
</g></svg>