<svg xmlns="http://www.w3.org/2000/svg" viewBox="0 0 293 120"><g fill="none" fill-rule="evenodd"><path fill="#F2F9FF" fill-rule="nonzero" d="M265.5 0a7.45 7.45 0 0 1 6.45 3.75 2.6 2.6 0 0 0 2.2 1.25H278c8.284 0 15 6.716 15 15v80c0 8.284-6.716 15-15 15h-3.85a2.6 2.6 0 0 0-2.2 1.25 7.45 7.45 0 0 1-6.45 3.75H193a7.5 7.5 0 0 1-7.3-7.5v-3.75c0-.69-.56-1.25-1.25-1.25H178a5 5 0 1 1 0-10h15a5 5 0 1 0 0-10h-6.05c-.69 0-1.25-.56-1.25-1.25v-15c0-.69-.56-1.25-1.25-1.25H178a5 5 0 1 1 0-10h15a5 5 0 1 0 0-10h-6.05c-.69 0-1.25-.56-1.25-1.25v-15c0-.69-.56-1.25-1.25-1.25H178a5 5 0 1 1 0-10h15a5 5 0 1 0 0-10h-6.25c-.69 0-1.25-.56-1.25-1.25V7.5A7.5 7.5 0 0 1 193 0Zm16.25 90h-7.5c-.69 0-1.25.56-1.25 1.25v12.5c0 .69.56 1.25 1.25 1.25H278a5 5 0 0 0 5-5v-8.75c0-.69-.56-1.25-1.25-1.25ZM233 35c-13.785 0-25 11.215-25 25s11.215 25 25 25 25-11.215 25-25-11.215-25-25-25Zm48.75 30h-7.5c-.69 0-1.25.56-1.25 1.25v12.5c0 .69.56 1.25 1.25 1.25h7.5c.69 0 1.25-.56 1.25-1.25v-12.5c0-.69-.56-1.25-1.25-1.25ZM233 43.333c9.19 0 16.667 7.477 16.667 16.667 0 9.19-7.477 16.667-16.667 16.667-9.19 0-16.667-7.477-16.667-16.667 0-9.19 7.477-16.667 16.667-16.667Zm12.842 9.765a59.24 59.24 0 0 0-25.684 0A14.488 14.488 0 0 0 218.417 60c0 .785.079 1.55.2 2.302 5.604 1.04 9.895 5.827 10.185 11.658a14.484 14.484 0 0 0 8.396 0c.29-5.83 4.581-10.618 10.185-11.658.121-.752.2-1.517.2-2.302 0-2.494-.63-4.846-1.741-6.902ZM233 55.833A4.172 4.172 0 0 1 237.167 60 4.172 4.172 0 0 1 233 64.167 4.172 4.172 0 0 1 228.833 60 4.172 4.172 0 0 1 233 55.833ZM281.75 40h-7.5c-.69 0-1.25.56-1.25 1.25v12.5c0 .69.56 1.25 1.25 1.25h7.5c.69 0 1.25-.56 1.25-1.25v-12.5c0-.69-.56-1.25-1.25-1.25ZM278 15h-3.75c-.69 0-1.25.56-1.25 1.25v12.5c0 .69.56 1.25 1.25 1.25h7.5c.69 0 1.25-.56 1.25-1.25V20a5 5 0 0 0-5-5Z"/><path stroke="#FFF" stroke-linecap="round" stroke-width="2" d="M176 15H1m155 13H1M156 2H1m155 39H1m155 26H1m155 13H1m155 25H1m175-51H1m175 38H1"/></g></svg>