<svg xmlns="http://www.w3.org/2000/svg" width="100" viewBox="0 0 160 51"><g fill="#243A4A" fill-rule="evenodd"><path d="M84.167 26A4.172 4.172 0 0 1 80 30.167 4.172 4.172 0 0 1 75.833 26 4.172 4.172 0 0 1 80 21.833 4.172 4.172 0 0 1 84.167 26m-17.009-6.902A14.488 14.488 0 0 0 65.417 26c0 .785.079 1.55.2 2.302 5.604 1.04 9.895 5.827 10.185 11.658a14.484 14.484 0 0 0 8.396 0c.29-5.83 4.581-10.618 10.185-11.658.121-.752.2-1.517.2-2.302 0-2.494-.63-4.846-1.741-6.902a59.24 59.24 0 0 0-25.684 0"/><path d="M80 42.667c-9.19 0-16.667-7.477-16.667-16.667 0-9.19 7.477-16.667 16.667-16.667 9.19 0 16.667 7.477 16.667 16.667 0 9.19-7.477 16.667-16.667 16.667M80 1C66.215 1 55 12.215 55 26s11.215 25 25 25 25-11.215 25-25S93.785 1 80 1"/></g></svg>