<svg xmlns="http://www.w3.org/2000/svg" width="100" viewBox="0 0 160 51"><path fill="#2D3C53" d="M107 0v50H53V0h50.205L82.554 27.068h3.164L106.369 0H107ZM91.011 28.017h-3.593c-.12.477-.308.833-.533 1.173-.172.222-.344.425-.499.664l-6.103 7.889-.74-2.312 4.264-5.594c.466-.595.946-1.223 1.703-1.818h-3.852c-.258.63-.843 1.275-1.272 1.854l-1.892 2.481-.807-2.465a14.191 14.191 0 0 1-.43-1.87h-4.4c.377.716.566 1.31.721 1.769l2.08 6.274-1.306 1.7-2.546-7.89c-.172-.61-.291-1.055-.291-1.853h-3.627a3.902 3.902 0 0 1-.5 1.207c-.12.22-.257.425-.412.628L55.8 44.458c-.516.68-.876 1.053-2.269 2.243h3.663l5.898-7.735h7.548l.86 2.583-2.202 2.857c-.48.63-1.031 1.327-1.908 2.092-.069.066-.138.135-.224.203h3.455l1.822-2.311.74 2.311h3.455l1.72-2.328.704 2.328h4.298c-.447-.968-.705-1.563-.946-2.328l-1.22-3.639 1.359-1.768h7.564l1.703 5.372c.222.663.377 1.206.549 2.363l4.54.003c-.586-1.089-.739-1.566-.963-2.347l-4.625-14.588a8.384 8.384 0 0 1-.31-1.752ZM76.537 38.968l.91 2.531-1.324 1.72-.826-2.586 1.24-1.665Zm-8.133-7.022 1.564 4.708H64.81l3.594-4.708Zm19.41 0 1.564 4.708h-4.986l3.422-4.708Z"/></svg>