<svg xmlns="http://www.w3.org/2000/svg" width="100" viewBox="0 0 160 51"><path fill="#2D3C53" fill-rule="evenodd" d="M77.741 36.624c.304.062 1.36.369 1.36 1.127V50h3.61V36.174h-4.97v.45m-22.375-.45L60.701 50H56.97l-1.481-3.79h-5.964L47.84 50H45l5.376-12.147c.385-.86-.548-1.147-.994-1.229v-.45h5.984Zm9.575 0 3.976 10.139 4.179-10.14h2.698L70.094 50l-3.875-.02-4.808-12.25c-.304-.757-.953-1.003-1.541-1.126v-.43h5.07Zm-12.233 2.888-2.413 5.428h4.523l-2.11-5.428Zm57.957-2.888L116 50h-3.733l-1.48-3.79h-5.965L103.14 50h-2.84l5.376-12.147c.385-.86-.569-1.147-.994-1.229v-.43l5.984-.02Zm-20.732 0 3.976 10.139 4.179-10.14h2.698L95.086 50l-3.875-.02-4.808-12.25c-.304-.757-.953-1.003-1.542-1.126v-.43h5.072Zm18.074 2.888-2.414 5.428h4.524l-2.11-5.428ZM87.58 0l-2.435 25.338c-7.465.84-14.078 2.52-19.15 4.732L65.976 0H87.58Zm8.256 0v24.744c-1.988 0-3.935.082-5.863.164L87.58 0h8.256Z"/></svg>