<svg xmlns="http://www.w3.org/2000/svg" width="100" viewBox="0 0 160 51"><path fill="#2D3C53" d="M90.942 12.021c1.55-.135 3.254.384 4.444 1.54 1.077 1.046 1.746 2.634 1.746 4.013 0 1.354-.546 2.709-1.59 3.75L77.38 40 59.158 21.433a5.246 5.246 0 0 1-1.595-3.605c-.043-1.448.626-3.128 1.733-4.224 1.22-1.206 2.986-1.736 4.59-1.566 1.177.126 2.319.65 3.22 1.53l10.269 10.628 10.2-10.599a5.437 5.437 0 0 1 3.367-1.576Zm-49.582.18v16.555h16.333v10.601H30V12.201h11.36Zm60.935 16.555H130v10.599h-27.705Zm0-16.548H130v10.599h-27.705Z"/></svg>