<svg xmlns="http://www.w3.org/2000/svg" viewBox="0 0 851 84"><path fill="#FFF" d="M31.496 5.276c2.67 0 4.559.832 5.668 2.496 1.11 1.664 1.213 3.761.312 6.292l-1.3 3.692h-9.464l1.56-4.212c.208-.624.208-1.127 0-1.508s-.607-.572-1.196-.572h-.52c-.659 0-1.161.139-1.508.416-.347.277-.676.797-.988 1.56l-.884 2.496c-.243.728-.295 1.309-.156 1.742.139.433.52.806 1.144 1.118l4.472 1.976c3.71 1.733 4.801 4.732 3.276 8.996l-1.768 4.992c-1.56 4.403-4.87 6.604-9.932 6.604h-6.708c-2.704 0-4.61-.832-5.72-2.496-1.11-1.664-1.196-3.83-.26-6.5l1.456-3.9h9.62l-1.664 4.628c-.208.624-.208 1.127 0 1.508s.59.572 1.144.572h.624c.624 0 1.118-.147 1.482-.442.364-.295.685-.806.962-1.534l1.144-3.224c.243-.763.295-1.343.156-1.742-.139-.399-.52-.771-1.144-1.118L16.78 25.14c-3.744-1.768-4.853-4.767-3.328-8.996l1.56-4.264c1.595-4.403 4.888-6.604 9.88-6.604h6.604Zm22.1.364-9.88 27.144c-.243.624-.251 1.135-.026 1.534s.615.598 1.17.598h.572c.659 0 1.161-.139 1.508-.416.347-.277.676-.815.988-1.612L57.86 5.64h9.568L56.872 34.76c-1.595 4.403-4.905 6.604-9.932 6.604h-6.812c-2.704 0-4.61-.84-5.72-2.522-1.11-1.681-1.179-3.822-.208-6.422l9.776-26.78h9.62Zm58.032-.364c2.67 0 4.559.832 5.668 2.496 1.11 1.664 1.213 3.761.312 6.292l-1.3 3.692h-9.464l1.56-4.212c.208-.624.208-1.127 0-1.508s-.607-.572-1.196-.572h-.52c-.659 0-1.161.139-1.508.416-.347.277-.676.797-.988 1.56l-.884 2.496c-.243.728-.295 1.309-.156 1.742.139.433.52.806 1.144 1.118l4.472 1.976c3.71 1.733 4.801 4.732 3.276 8.996l-1.768 4.992c-1.56 4.403-4.87 6.604-9.932 6.604h-6.708c-2.704 0-4.61-.832-5.72-2.496-1.11-1.664-1.196-3.83-.26-6.5l1.456-3.9h9.62l-1.664 4.628c-.208.624-.208 1.127 0 1.508s.59.572 1.144.572h.624c.624 0 1.118-.147 1.482-.442.364-.295.685-.806.962-1.534l1.144-3.224c.243-.763.295-1.343.156-1.742-.139-.399-.52-.771-1.144-1.118l-4.524-1.976c-3.744-1.768-4.853-4.767-3.328-8.996l1.56-4.264c1.595-4.403 4.888-6.604 9.88-6.604h6.604Zm26.52 0c2.67 0 4.559.85 5.668 2.548 1.11 1.699 1.196 3.83.26 6.396l-2.288 6.188h-9.516l2.392-6.552c.243-.624.26-1.135.052-1.534-.208-.399-.59-.598-1.144-.598h-.364c-.659 0-1.17.147-1.534.442-.364.295-.667.823-.91 1.586l-6.968 19.032c-.208.624-.208 1.135 0 1.534s.607.598 1.196.598h.364c.659 0 1.153-.147 1.482-.442.33-.295.65-.84.962-1.638l2.392-6.604h9.464l-3.068 8.528c-1.595 4.403-4.888 6.604-9.88 6.604h-6.448c-2.704 0-4.61-.832-5.72-2.496-1.11-1.664-1.179-3.813-.208-6.448l7.436-20.54c1.595-4.403 4.905-6.604 9.932-6.604h6.448Zm-53.404.364c2.67 0 4.576.806 5.72 2.418 1.144 1.612 1.265 3.666.364 6.162l-1.248 3.536c-.52 1.456-1.257 2.574-2.21 3.354-.953.78-2.21 1.309-3.77 1.586 1.179.52 1.933 1.395 2.262 2.626.33 1.23.182 2.695-.442 4.394l-1.82 4.992C82.075 38.903 78.903 41 74.084 41H58.12L70.964 5.64h13.78Zm80.08 0c2.67 0 4.559.84 5.668 2.522 1.11 1.681 1.179 3.822.208 6.422l-2.808 7.644c-1.005 2.739-2.721 4.559-5.148 5.46L162.172 41H152.5l1.508-12.584h-2.184L147.248 41h-9.62l12.844-35.36h14.352Zm22.204 0L174.184 41h-9.62l12.844-35.36h9.62Zm17.524 0c2.67 0 4.576.806 5.72 2.418 1.144 1.612 1.265 3.666.364 6.162l-1.248 3.536c-.52 1.456-1.257 2.574-2.21 3.354-.953.78-2.21 1.309-3.77 1.586 1.179.52 1.933 1.395 2.262 2.626.33 1.23.182 2.695-.442 4.394l-1.82 4.992c-1.525 4.195-4.697 6.292-9.516 6.292h-15.964l12.844-35.36h13.78Zm31.408 0-2.392 6.708h-9.1l-2.652 7.28h8.32l-2.392 6.656h-8.32l-2.912 7.956H226.6L224.208 41h-19.76l12.844-35.36h18.668ZM75.488 25.556H73.2l-3.38 9.256h2.548c.659 0 1.153-.139 1.482-.416.33-.277.65-.815.962-1.612l1.82-5.096c.243-.59.251-1.092.026-1.508-.225-.416-.615-.624-1.17-.624Zm119.808 0h-2.288l-3.38 9.256h2.548c.659 0 1.153-.139 1.482-.416.33-.277.65-.815.962-1.612l1.82-5.096c.243-.59.251-1.092.026-1.508-.225-.416-.615-.624-1.17-.624ZM160.04 12.088h-2.288l-3.64 9.984h2.548c.624 0 1.118-.156 1.482-.468.364-.312.667-.832.91-1.56l2.132-5.824c.243-.659.251-1.179.026-1.56s-.615-.572-1.17-.572Zm-79.56-.26h-2.288l-2.86 7.904h2.496c.659 0 1.17-.147 1.534-.442.364-.295.667-.806.91-1.534l1.352-3.796c.243-.624.26-1.135.052-1.534-.208-.399-.607-.598-1.196-.598Zm119.808 0H198l-2.86 7.904h2.496c.659 0 1.17-.147 1.534-.442.364-.295.667-.806.91-1.534l1.352-3.796c.243-.624.26-1.135.052-1.534-.208-.399-.607-.598-1.196-.598Zm82.316-6.552c2.704 0 4.61.84 5.72 2.522 1.11 1.681 1.179 3.822.208 6.422l-7.436 20.54c-1.595 4.403-4.905 6.604-9.932 6.604H264.3c-2.704 0-4.61-.84-5.72-2.522-1.11-1.681-1.179-3.822-.208-6.422l7.436-20.54c1.595-4.403 4.905-6.604 9.932-6.604h6.864Zm-16.536.364-2.548 6.968h-5.876L247.348 41h-9.62l10.296-28.392h-6.136l2.548-6.968h21.632Zm11.856 6.084h-.728c-.659 0-1.17.147-1.534.442-.364.295-.667.823-.91 1.586l-6.968 19.032c-.208.624-.208 1.135 0 1.534s.607.598 1.196.598h.728c.659 0 1.161-.147 1.508-.442.347-.295.659-.823.936-1.586l6.916-19.032c.243-.624.26-1.135.052-1.534-.208-.399-.607-.598-1.196-.598Zm43.472-6.084-2.548 6.968h-5.876L302.676 41h-9.62l10.296-28.392h-6.136l2.548-6.968h21.632Zm11.856 0-4.94 13.624h4.264l4.94-13.624h9.568L334.24 41h-9.568l5.408-14.924h-4.264L320.408 41h-9.62l12.844-35.36h9.62Zm36.244 0-2.392 6.708h-9.1l-2.652 7.28h8.32l-2.392 6.656h-8.32l-2.912 7.956h10.088L357.744 41h-19.76l12.844-35.36h18.668Zm333.736-.364c2.67 0 4.559.832 5.668 2.496 1.11 1.664 1.213 3.761.312 6.292l-1.3 3.692h-9.464l1.56-4.212c.208-.624.208-1.127 0-1.508s-.607-.572-1.196-.572h-.52c-.659 0-1.161.139-1.508.416-.347.277-.676.797-.988 1.56l-.884 2.496c-.243.728-.295 1.309-.156 1.742.139.433.52.806 1.144 1.118l4.472 1.976c3.71 1.733 4.801 4.732 3.276 8.996l-1.768 4.992c-1.56 4.403-4.87 6.604-9.932 6.604h-6.708c-2.704 0-4.61-.832-5.72-2.496-1.11-1.664-1.196-3.83-.26-6.5l1.456-3.9h9.62l-1.664 4.628c-.208.624-.208 1.127 0 1.508s.59.572 1.144.572h.624c.624 0 1.118-.147 1.482-.442.364-.295.685-.806.962-1.534l1.144-3.224c.243-.763.295-1.343.156-1.742-.139-.399-.52-.771-1.144-1.118l-4.524-1.976c-3.744-1.768-4.853-4.767-3.328-8.996l1.56-4.264c1.595-4.403 4.888-6.604 9.88-6.604h6.604Zm-277.524.364-4.94 13.624h4.264l4.94-13.624h9.568L426.696 41h-9.568l5.408-14.924h-4.264L412.864 41h-9.62l12.844-35.36h9.62Zm415.116 0c2.67 0 4.559.84 5.668 2.522 1.11 1.681 1.179 3.822.208 6.422l-2.808 7.644c-1.005 2.739-2.721 4.559-5.148 5.46L838.172 41H828.5l1.508-12.584h-2.184L823.248 41h-9.62l12.844-35.36h14.352Zm-179.868 0-6.032 21.164L665.896 5.64h8.164l-4.524 21.112 9.516-21.112h7.748L669.432 41h-10.816l3.952-18.044L653.26 41h-10.556l8.268-35.36h9.984Zm-139.672 0-3.38 18.564L528.2 5.64h12.324L527.68 41h-8.788l7.28-20.02L514.732 41h-7.956l3.64-21.216L502.72 41h-6.5l12.844-35.36h12.22Zm280.384 0-2.548 6.968h-5.876L782.948 41h-9.62l10.296-28.392h-6.136l2.548-6.968h21.632Zm-188.188 0-1.456 19.604 7.124-19.604h6.968L613.272 41h-10.348l1.456-19.604L597.256 41h-6.968l12.844-35.36h10.348Zm112.008 0-10.296 28.392h8.424L721.068 41h-18.044l12.844-35.36h9.62Zm-164.372 0L555.5 41h-9.62l1.196-5.824h-6.188L537.872 41h-8.06l20.072-35.36h11.232Zm-173.16 0-6.032 21.164L392.896 5.64h8.164l-4.524 21.112 9.516-21.112h7.748L396.432 41h-10.816l3.952-18.044L380.26 41h-10.556l8.268-35.36h9.984Zm391.3 0-2.548 6.968h-5.876L760.536 41h-9.62l10.296-28.392h-6.136l2.548-6.968h21.632Zm-130.728 0-2.392 6.708h-9.1l-2.652 7.28h8.32l-2.392 6.656h-8.32l-2.912 7.956h10.088L636.776 41h-19.76L629.86 5.64h18.668Zm174.044 0-2.392 6.708h-9.1l-2.652 7.28h8.32l-2.392 6.656h-8.32l-2.912 7.956h10.088L810.82 41h-19.76l12.844-35.36h18.668Zm-360.62 0-2.392 6.708h-9.1l-2.652 7.28h8.32l-2.392 6.656h-8.32l-2.912 7.956h10.088L450.2 41h-19.76l12.844-35.36h18.668Zm22.568 0-2.392 6.708h-9.1l-2.652 7.28h8.32l-2.392 6.656h-8.32l-2.912 7.956h10.088L472.768 41h-19.76l12.844-35.36h18.668Zm13.52 0-10.296 28.392h8.424L493.62 41h-18.044L488.42 5.64h9.62Zm257.14 0-2.392 6.708h-9.1l-2.652 7.28h8.32l-2.392 6.656h-8.32l-2.912 7.956h10.088L743.428 41h-19.76l12.844-35.36h18.668Zm-174.46 0-1.456 19.604 7.124-19.604h6.968L580.512 41h-10.348l1.456-19.604L564.496 41h-6.968l12.844-35.36h10.348Zm-29.536 9.724-7.124 13.728h4.264l2.86-13.728Zm284.856-3.276h-2.288l-3.64 9.984h2.548c.624 0 1.118-.156 1.482-.468.364-.312.667-.832.91-1.56l2.132-5.824c.243-.659.251-1.179.026-1.56s-.615-.572-1.17-.572ZM198.468 47.64 192.852 83h-9.62l1.196-5.824h-6.188L175.224 83h-8.06l20.072-35.36h11.232Zm19.604 0-1.456 19.604 7.124-19.604h6.968L217.864 83h-10.348l1.456-19.604L201.848 83h-6.968l12.844-35.36h10.348Zm30.68 0c2.67 0 4.559.84 5.668 2.522 1.11 1.681 1.196 3.822.26 6.422l-7.228 19.812C245.857 80.799 242.547 83 237.52 83h-15.912l12.844-35.36h14.3Zm-4.732 6.448h-2.288l-8.164 22.464h2.496c.624 0 1.118-.147 1.482-.442.364-.295.685-.823.962-1.586l6.656-18.304c.243-.624.251-1.135.026-1.534s-.615-.598-1.17-.598Zm-55.484 3.276-7.124 13.728h4.264l2.86-13.728Zm93.08-10.088c2.67 0 4.559.832 5.668 2.496 1.11 1.664 1.213 3.761.312 6.292l-1.3 3.692h-9.464l1.56-4.212c.208-.624.208-1.127 0-1.508s-.607-.572-1.196-.572h-.52c-.659 0-1.161.139-1.508.416-.347.277-.676.797-.988 1.56l-.884 2.496c-.243.728-.295 1.309-.156 1.742.139.433.52.806 1.144 1.118l4.472 1.976c3.71 1.733 4.801 4.732 3.276 8.996l-1.768 4.992c-1.56 4.403-4.87 6.604-9.932 6.604h-6.708c-2.704 0-4.61-.832-5.72-2.496-1.11-1.664-1.196-3.83-.26-6.5l1.456-3.9h9.62l-1.664 4.628c-.208.624-.208 1.127 0 1.508s.59.572 1.144.572h.624c.624 0 1.118-.147 1.482-.442.364-.295.685-.806.962-1.534l1.144-3.224c.243-.763.295-1.343.156-1.742-.139-.399-.52-.771-1.144-1.118L266.9 67.14c-3.744-1.768-4.853-4.767-3.328-8.996l1.56-4.264c1.595-4.403 4.888-6.604 9.88-6.604h6.604Zm32.812.364-2.548 6.968h-5.876L295.708 83h-9.62l10.296-28.392h-6.136l2.548-6.968h21.632Zm19.084 0L327.896 83h-9.62l1.196-5.824h-6.188L310.268 83h-8.06l20.072-35.36h11.232Zm-9.932 9.724-7.124 13.728h4.264l2.86-13.728Zm64.376-10.088c2.704 0 4.61.84 5.72 2.522 1.11 1.681 1.179 3.822.208 6.422l-7.436 20.54c-1.595 4.403-4.905 6.604-9.932 6.604h-6.864c-2.704 0-4.61-.84-5.72-2.522-1.11-1.681-1.179-3.822-.208-6.422l7.436-20.54c1.595-4.403 4.905-6.604 9.932-6.604h6.864Zm82.056 0c2.67 0 4.559.832 5.668 2.496 1.11 1.664 1.213 3.761.312 6.292l-1.3 3.692h-9.464l1.56-4.212c.208-.624.208-1.127 0-1.508s-.607-.572-1.196-.572h-.52c-.659 0-1.161.139-1.508.416-.347.277-.676.797-.988 1.56l-.884 2.496c-.243.728-.295 1.309-.156 1.742.139.433.52.806 1.144 1.118l4.472 1.976c3.71 1.733 4.801 4.732 3.276 8.996l-1.768 4.992c-1.56 4.403-4.87 6.604-9.932 6.604h-6.708c-2.704 0-4.61-.832-5.72-2.496-1.11-1.664-1.196-3.83-.26-6.5l1.456-3.9h9.62l-1.664 4.628c-.208.624-.208 1.127 0 1.508s.59.572 1.144.572h.624c.624 0 1.118-.147 1.482-.442.364-.295.685-.806.962-1.534l1.144-3.224c.243-.763.295-1.343.156-1.742-.139-.399-.52-.771-1.144-1.118l-4.524-1.976c-3.744-1.768-4.853-4.767-3.328-8.996l1.56-4.264c1.595-4.403 4.888-6.604 9.88-6.604h6.604Zm-118.716.364-1.82 13.468 7.956-13.468h8.164l-16.224 24.648-3.9 10.712h-9.932l4.056-11.232 1.508-24.128h10.192Zm59.592 0-1.456 19.604 7.124-19.604h6.968L410.68 83h-10.348l1.456-19.604L394.664 83h-6.968l12.844-35.36h10.348Zm35.048 0-2.392 6.708h-9.1l-2.652 7.28h8.32l-2.392 6.656h-8.32l-2.912 7.956h10.088L434.184 83h-19.76l12.844-35.36h18.668Zm56.888 0-2.548 6.968H494.4L484.104 83h-9.62l10.296-28.392h-6.136l2.548-6.968h21.632Zm20.904 0-2.392 6.708h-9.1l-2.652 7.28h8.32l-2.392 6.656h-8.32l-2.912 7.956h10.088L511.976 83h-19.76l12.844-35.36h18.668Zm18.2 0c2.739 0 4.645.84 5.72 2.522 1.075 1.681 1.127 3.874.156 6.578l-2.34 6.344c-.97 2.67-2.253 4.585-3.848 5.746-1.595 1.161-3.71 1.742-6.344 1.742h-6.344L524.404 83h-9.62l12.844-35.36h14.3Zm35.1 0L571.412 83h-9.62l1.196-5.824H556.8L553.784 83h-8.06l20.072-35.36h11.232Zm18.876 0-4.94 13.624h4.264l4.94-13.624h9.568L596.892 83h-9.568l5.408-14.924h-4.264L583.06 83h-9.62l12.844-35.36h9.62Zm36.244 0-2.392 6.708h-9.1l-2.652 7.28h8.32l-2.392 6.656h-8.32L612.7 76.24h10.088L620.396 83h-19.76l12.844-35.36h18.668Zm20.748 0L647.28 83h-9.62l1.196-5.824h-6.188L629.652 83h-8.06l20.072-35.36h11.232Zm23.556 0c2.67 0 4.559.84 5.668 2.522 1.11 1.681 1.196 3.822.26 6.422l-7.228 19.812C673.557 80.799 670.247 83 665.22 83h-15.912l12.844-35.36h14.3Zm-293.176 6.084h-.728c-.659 0-1.17.147-1.534.442-.364.295-.667.823-.91 1.586l-6.968 19.032c-.208.624-.208 1.135 0 1.534s.607.598 1.196.598h.728c.659 0 1.161-.147 1.508-.442.347-.295.659-.823.936-1.586l6.916-19.032c.243-.624.26-1.135.052-1.534-.208-.399-.607-.598-1.196-.598Zm288.444.364h-2.288l-8.164 22.464h2.496c.624 0 1.118-.147 1.482-.442.364-.295.685-.823.962-1.586l6.656-18.304c.243-.624.251-1.135.026-1.534s-.615-.598-1.17-.598Zm-104.624 3.276-7.124 13.728h4.264l2.86-13.728Zm75.868 0-7.124 13.728h4.264l2.86-13.728ZM537.3 54.088h-2.392l-3.64 10.036h2.496c.624 0 1.118-.139 1.482-.416.364-.277.685-.815.962-1.612l2.132-5.928c.243-.659.269-1.17.078-1.534-.19-.364-.563-.546-1.118-.546Z"/></svg>