<svg xmlns="http://www.w3.org/2000/svg" viewBox="0 0 834 457">
<path class="editorial-subscription-light" fill="#FAFBED" stroke="#000" stroke-width=".956" d="M341.157 316.707c8.444 0 15.04 2.296 19.803 6.852 4.767 4.559 7.175 11.252 7.175 20.105v25.553h-25.85v-22.945c0-2.86-.612-5.02-1.887-6.453-1.26-1.415-3.157-2.096-5.666-2.096h-2.409c-2.509 0-4.406.68-5.665 2.096-1.276 1.434-1.887 3.593-1.887 6.453v80.64c0 2.86.611 5.02 1.887 6.454 1.259 1.415 3.156 2.096 5.665 2.096h2.41c2.543 0 4.616-.688 6.208-2.088 1.585-1.393 2.347-3.558 2.347-6.461v-24.798h-10.84V381.1h35.687v48.422c0 8.853-2.408 15.546-7.175 20.104-4.763 4.556-11.359 6.853-19.803 6.853h-15.258c-8.307 0-14.87-2.294-19.701-6.85-4.835-4.56-7.277-11.253-7.277-20.107v-85.857c0-8.854 2.442-15.548 7.277-20.107 4.832-4.556 11.394-6.85 19.7-6.85Zm351.393 1.203v21.618h-30.114v34.35h26.7v21.617h-26.7v38.162h32.121v21.617h-57.97V317.91h55.963Zm-107.144 0 21.028 87.131v-87.13h19.827v137.363H596.7L575.67 368.72v86.555h-19.827V317.91h29.563Zm-39.887 0v137.364h-25.85V317.91h25.85Zm-32.762 0v21.027l-35.922 94.519h36.926v21.818h-64.797v-21.428l35.92-94.117h-34.917V317.91h62.79Zm-89.256 0 25.675 137.364h-27.082L418.079 430h-23.272l-3.815 25.275h-22.668l25.675-137.364H423.5Zm-17.06 36.882-8.476 54.391h16.952l-8.476-54.39ZM272.856 317.91l25.675 137.364h-27.082L267.434 430h-23.272l-3.814 25.275h-22.67l25.676-137.364h29.502Zm-17.06 36.882-8.476 54.391h16.952l-8.476-54.39ZM154.387 317.91l12.45 85.716 13.227-85.716h34.414v137.364h-23.44v-91.226l-14.775 91.226h-22.897l-14.774-91.98v91.98h-19.225V317.91h35.02ZM128.458.522c8.72 0 15.384 2.335 20.012 6.96 4.63 4.625 6.966 11.284 6.966 19.997v23.547h-25.649V30.087c0-2.86-.611-5.019-1.887-6.452-1.259-1.416-3.156-2.097-5.665-2.097h-2.61c-2.509 0-4.407.681-5.666 2.097-1.275 1.433-1.886 3.593-1.886 6.452v12.638c0 3.084.66 5.534 2.012 7.336 1.366 1.82 3.751 3.432 7.122 4.857l13.655 5.418c7.331 2.985 12.58 6.76 15.77 11.302 3.19 4.545 4.804 10.95 4.804 19.231v22.467c0 8.577-2.334 15.201-6.963 19.894-4.63 4.694-11.293 7.063-20.015 7.063h-15.056c-8.584 0-15.215-2.367-19.912-7.06-4.698-4.694-7.067-11.32-7.067-19.897V87.984h25.65v22.744c0 2.86.61 5.02 1.886 6.453 1.26 1.415 3.157 2.096 5.666 2.096h3.011c2.372 0 4.167-.678 5.357-2.087 1.213-1.436 1.794-3.598 1.794-6.462V95.282c0-3.225-.664-5.812-2.021-7.75-1.362-1.944-3.674-3.55-6.912-4.845l-14.65-5.815c-7.075-2.719-12.131-6.535-15.19-11.426-3.051-4.878-4.59-11.445-4.59-19.712V27.479c0-8.713 2.337-15.372 6.965-19.997 4.629-4.625 11.292-6.96 20.013-6.96Zm61.547 1.204v109.002c0 2.86.611 5.02 1.887 6.453 1.259 1.415 3.157 2.096 5.665 2.096h2.81c2.511 0 4.41-.665 5.67-2.05 1.273-1.4 1.883-3.507 1.883-6.298V1.726h25.85v111.61c0 8.577-2.335 15.201-6.963 19.894-4.63 4.695-11.228 7.063-19.814 7.063h-16.06c-8.45 0-15.014-2.366-19.712-7.06-4.697-4.694-7.066-11.32-7.066-19.897V1.726h25.85ZM364.263.522c8.72 0 15.383 2.335 20.012 6.96 4.629 4.625 6.966 11.284 6.966 19.997v23.547h-25.65V30.087c0-2.86-.61-5.019-1.886-6.452-1.26-1.416-3.157-2.097-5.666-2.097h-2.61c-2.508 0-4.406.681-5.665 2.097-1.276 1.433-1.887 3.593-1.887 6.452v12.638c0 3.084.66 5.534 2.012 7.336 1.367 1.82 3.752 3.432 7.122 4.857l13.656 5.418c7.33 2.985 12.58 6.76 15.77 11.302 3.19 4.545 4.804 10.95 4.804 19.231v22.467c0 8.577-2.335 15.201-6.964 19.894-4.629 4.694-11.293 7.063-20.014 7.063h-15.057c-8.584 0-15.215-2.367-19.912-7.06-4.697-4.694-7.066-11.32-7.066-19.897V87.984h25.65v22.744c0 2.86.61 5.02 1.886 6.453 1.259 1.415 3.157 2.096 5.665 2.096h3.012c2.371 0 4.166-.678 5.356-2.087 1.214-1.436 1.795-3.598 1.795-6.462V95.282c0-3.225-.665-5.812-2.022-7.75-1.362-1.944-3.674-3.55-6.912-4.845l-14.65-5.815c-7.074-2.719-12.13-6.535-15.19-11.426-3.05-4.878-4.59-11.445-4.59-19.712V27.479c0-8.713 2.337-15.372 6.966-19.997 4.628-4.625 11.292-6.96 20.012-6.96Zm76.928 0c8.445 0 15.04 2.297 19.804 6.853 4.766 4.558 7.174 11.251 7.174 20.104v29.565h-25.85V30.087c0-2.857-.626-5.015-1.933-6.448-1.293-1.419-3.242-2.101-5.82-2.101h-1.204c-2.509 0-4.407.681-5.666 2.097-1.275 1.433-1.887 3.593-1.887 6.452v80.641c0 2.86.612 5.02 1.887 6.453 1.26 1.415 3.157 2.096 5.666 2.096h1.405c2.509 0 4.407-.68 5.666-2.096 1.275-1.434 1.886-3.593 1.886-6.453V83.771h25.85v29.565c0 8.853-2.408 15.546-7.174 20.105-4.764 4.556-11.36 6.852-19.804 6.852h-14.253c-8.308 0-14.87-2.294-19.702-6.85-4.834-4.559-7.277-11.253-7.277-20.107V27.48c0-8.853 2.408-15.546 7.175-20.104 4.763-4.556 11.36-6.853 19.804-6.853Zm339.28 90.43c2.99 0 5.32.825 7.006 2.437 1.688 1.615 2.557 3.98 2.557 7.12v29.437c0 3.14-.869 5.506-2.557 7.12-1.685 1.612-4.015 2.437-7.007 2.437h-5.644c-2.942 0-5.26-.823-6.97-2.435-1.713-1.615-2.594-3.98-2.594-7.122v-29.437c0-3.141.881-5.507 2.594-7.122 1.71-1.612 4.028-2.434 6.97-2.434h5.644Zm-2.203 7.834h-1.24c-.75 0-1.328.187-1.707.614-.396.445-.568 1.121-.568 2.003v27.649c0 .882.172 1.558.568 2.003.38.427.958.614 1.708.614h1.239c.75 0 1.328-.187 1.707-.614.397-.445.568-1.121.568-2.003v-27.649c0-.882-.171-1.558-.568-2.003-.38-.427-.958-.614-1.707-.614Zm-13.44-7.42v8.04h-7.089v39.684h-9.491V99.405h-7.09v-8.04h23.67Zm-39.134-89.64v21.617H695.58v34.35h26.701v21.618h-26.7v38.161h32.12v21.618h-57.97V1.726h55.963Zm-92.463 0c8.72 0 15.383 2.335 20.012 6.96 4.63 4.626 6.966 11.218 6.966 19.796V47.34c0 4.865-1.177 8.869-3.507 12.02-2.094 2.83-5.125 4.978-9.103 6.429 4.112 1.46 7.243 3.661 9.405 6.593 2.396 3.25 3.606 7.404 3.606 12.47v27.482c0 8.442-2.334 15-6.963 19.694-4.63 4.693-11.294 7.063-20.015 7.063h-42.637V1.726h42.236Zm-6.023 75.378h-10.363v41.572h9.961c2.645 0 4.644-.7 5.971-2.152 1.34-1.466 1.983-3.674 1.983-6.598V85.854c0-2.928-.612-5.139-1.89-6.607-1.258-1.446-3.155-2.143-5.662-2.143Zm-.402-54.964h-9.961v34.55h10.363c2.269 0 4.103-.65 5.492-1.974 1.4-1.336 2.06-3.61 2.06-6.775V30.689c0-2.855-.642-5.012-1.98-6.444-1.327-1.422-3.328-2.105-5.974-2.105ZM580.67 1.726V139.09h-25.85V1.726h25.85Zm-61.546 0c8.444 0 15.04 2.296 19.804 6.852 4.766 4.559 7.174 11.252 7.174 20.105v31.294c0 11.024-3.745 18.774-11.167 23.294l14.722 55.819h-27.502l-11.844-51.956h-7.975v51.956h-25.85V1.726h42.638Zm-6.425 21.016h-10.363v43.376H512.7c2.396 0 4.266-.611 5.593-1.874 1.334-1.27 1.96-3.443 1.96-6.474V31.29c0-2.859-.611-5.018-1.887-6.452-1.26-1.415-3.157-2.096-5.666-2.096ZM285.527 1.726c8.72 0 15.384 2.335 20.013 6.96 4.63 4.626 6.966 11.218 6.966 19.796V47.34c0 4.865-1.177 8.869-3.507 12.02-2.094 2.83-5.125 4.978-9.103 6.429 4.112 1.46 7.243 3.661 9.404 6.593 2.397 3.25 3.607 7.404 3.607 12.47v27.482c0 8.442-2.334 15-6.963 19.694-4.63 4.693-11.294 7.063-20.015 7.063h-42.637V1.726h42.235Zm-6.022 75.378h-10.363v41.572h9.961c2.645 0 4.644-.7 5.971-2.152 1.34-1.466 1.983-3.674 1.983-6.598V85.854c0-2.928-.612-5.139-1.89-6.607-1.258-1.446-3.155-2.143-5.662-2.143Zm-.402-54.964h-9.961v34.55h10.363c2.269 0 4.103-.65 5.492-1.974 1.4-1.336 2.06-3.61 2.06-6.775V30.689c0-2.855-.642-5.012-1.98-6.444-1.327-1.422-3.328-2.105-5.974-2.105ZM73.1 160.295l-22.16 77.69 40.309-77.69h32.4l-16.65 77.64 35.023-77.64h30.99L105.486 297.66h-42.65l14.605-66.628-34.397 66.628H1.397l32.144-137.365H73.1Zm141.02 0-19.073 52.558h15.445l19.072-52.558h37.957L217.586 297.66h-37.957l20.88-57.573h-15.446l-20.879 57.573h-38.157l49.934-137.365h38.157Zm135.144 0-9.576 26.834h-35.135l-9.89 27.128h32.118l-9.58 26.633h-32.122l-10.893 29.736h38.94l-9.574 27.034h-77.308l49.935-137.365h73.085Zm82.349 0-9.576 26.834H386.9l-9.89 27.128h32.118l-9.58 26.633h-32.122l-10.893 29.736h38.94L385.9 297.66h-77.308l49.935-137.365h73.085Zm47.42 0-39.75 109.528h32.525L461.62 297.66h-70.68l49.936-137.365h38.157Zm84.85 0-12.631 69.323 38.478-69.323h48.543L588.338 297.66h-34.946l26.426-72.616-41.527 72.616h-31.56l13.243-77.13-28 77.13h-26.112l49.935-137.365h48.085Zm148.988 0L691.036 297.66h-38.134l4.617-22.467h-23.013l-11.644 22.467h-32.23l78.036-137.365h44.202Zm-40.082 41.294-25.54 49.177h15.287l10.253-49.177Zm110.943-41.294-5.403 72.69 26.436-72.69h27.918L782.748 297.66h-40.8l5.402-72.69-26.436 72.69h-27.919l49.935-137.365h40.8Z"/></svg>