<svg xmlns="http://www.w3.org/2000/svg" viewBox="0 0 1177 210"><g fill="#FFF" fill-rule="evenodd"><path fill-rule="nonzero" d="M15.101 207.916 0 67.25h25.651l7.447 98.88 12.619-98.88h22.548l12.412 99.502 7.447-99.502h22.134L94.95 207.916H65.162l-10.136-85.641-10.757 85.641H15.1Zm105.5 0V67.25h25.652v56.474h19.652V67.249h25.65v140.667h-25.65V145.03h-19.652v62.886H120.6Zm87.504 0V67.25h56.68v21.307h-31.03v36.408h27.514v21.307h-27.513v40.338h33.098v21.307h-58.75Zm70.954 0V67.25h56.68v21.307H304.71v36.408h27.513v21.307H304.71v40.338h33.098v21.307h-58.75Zm70.954 0V67.25h25.651v119.36h29.995v21.307h-55.646Zm66.817 0V67.25h35.167l13.24 91.227 14.066-91.227h34.546v140.667H490.68v-99.708l-16.135 99.708H451.79l-16.135-100.535v100.535H416.83Zm106.328 0L549.43 67.25h29.581l26.272 140.667H578.39l-4.137-26.064H549.43l-3.93 26.064h-22.342Zm29.374-46.544h18.618l-9.309-59.783-9.309 59.783Zm62.06 46.544V67.25h29.581l22.548 93.502V67.25h19.445v140.667h-29.581l-22.548-92.881v92.881h-19.445Zm143.356 0L742.847 67.25h25.651l7.447 98.88 12.619-98.88h22.548l12.412 99.502 7.447-99.502h22.134l-15.308 140.667H808.01l-10.136-85.641-10.757 85.641h-29.168Zm131.979 1.242c-8.413 0-15.067-2.31-19.962-6.93-4.896-4.62-7.344-11.412-7.344-20.376V93.314c0-8.964 2.448-15.756 7.344-20.376 4.895-4.62 11.55-6.93 19.962-6.93h16.963c8.55 0 15.239 2.31 20.065 6.93 4.827 4.62 7.24 11.412 7.24 20.376v88.538c0 8.964-2.413 15.756-7.24 20.376-4.826 4.62-11.515 6.93-20.065 6.93h-16.963Zm6.62-20.687h3.723c5.516 0 8.275-3.103 8.275-9.309V96.003c0-6.206-2.759-9.309-8.275-9.309h-3.723c-5.517 0-8.275 3.103-8.275 9.31v83.158c0 6.206 2.758 9.31 8.275 9.31Zm53.37 19.445V67.25h43.442c8.55 0 15.239 2.31 20.065 6.93 4.827 4.62 7.24 11.412 7.24 20.376v32.27c0 11.31-3.86 19.24-11.584 23.79l15.101 57.301h-27.306L984.67 154.34h-9.102v53.577h-25.65Zm36.822-119.98h-11.17v45.716h11.17c2.62 0 4.654-.69 6.102-2.068 1.449-1.38 2.173-3.724 2.173-7.034V97.244c0-6.206-2.759-9.308-8.275-9.308Zm48.82 119.98V67.25h25.65v119.36h29.996v21.307h-55.646Zm66.817 0V67.25h43.441c8.55 0 15.239 2.31 20.066 6.93 4.827 4.62 7.24 11.412 7.24 20.376v86.055c0 8.964-2.413 15.756-7.24 20.376-4.827 4.62-11.516 6.93-20.066 6.93h-43.441Zm36.821-119.98h-11.17v99.294h11.17c5.517 0 8.275-3.034 8.275-9.102V97.244c0-6.206-2.758-9.308-8.275-9.308ZM74.052 39l6.096-32.64h6.864L93.108 39h-6.24l-.96-6.048h-5.76L79.236 39h-5.184Zm6.816-10.8h4.32l-2.16-13.872-2.16 13.872Zm15.9 10.8V6.36h10.08c1.984 0 3.536.536 4.656 1.608 1.12 1.072 1.68 2.648 1.68 4.728v19.968c0 2.08-.56 3.656-1.68 4.728-1.12 1.072-2.672 1.608-4.656 1.608h-10.08Zm8.544-27.84h-2.592V34.2h2.592c1.28 0 1.92-.704 1.92-2.112V13.32c0-1.44-.64-2.16-1.92-2.16ZM121.692 39l-5.52-32.64h6.384l3.264 23.952 3.264-23.952h5.376L128.748 39h-7.056Zm16.428 0V6.36h5.952V39h-5.952Zm17.436.288c-1.952 0-3.496-.536-4.632-1.608-1.136-1.072-1.704-2.648-1.704-4.728V12.408c0-2.08.56-3.656 1.68-4.728 1.12-1.072 2.672-1.608 4.656-1.608h3.408c1.984 0 3.536.536 4.656 1.608 1.12 1.072 1.68 2.648 1.68 4.728v6.96h-5.952v-6.336c0-1.44-.656-2.16-1.968-2.16h-.288c-1.28 0-1.92.72-1.92 2.16v19.296c0 1.44.64 2.16 1.92 2.16h.336c1.28 0 1.92-.72 1.92-2.16v-6.336h5.952v6.96c0 2.08-.56 3.656-1.68 4.728-1.12 1.072-2.672 1.608-4.656 1.608h-3.408ZM170.16 39V6.36h13.152v4.944h-7.2v8.448h6.384v4.944h-6.384v9.36h7.68V39H170.16Zm17.004 7.008L189.948 39h-2.016v-5.712h5.856v5.136l-3.12 7.584h-3.504ZM205.812 39V6.36h10.08c1.984 0 3.536.536 4.656 1.608 1.12 1.072 1.68 2.648 1.68 4.728v7.632c0 2.08-.568 3.656-1.704 4.728-1.136 1.072-2.696 1.608-4.68 1.608h-4.08V39h-5.952Zm8.544-27.84h-2.592v10.704h2.592c1.28 0 1.92-.704 1.92-2.112V13.32c0-1.44-.64-2.16-1.92-2.16ZM226.848 39V6.36h10.08c1.984 0 3.536.536 4.656 1.608 1.12 1.072 1.68 2.648 1.68 4.728v7.488c0 2.624-.896 4.464-2.688 5.52L244.08 39h-6.336l-2.832-12.432H232.8V39h-5.952Zm8.544-27.84H232.8v10.608h2.592c.608 0 1.08-.16 1.416-.48.336-.32.504-.864.504-1.632V13.32c0-1.44-.64-2.16-1.92-2.16Zm18.492 28.128c-1.952 0-3.496-.536-4.632-1.608-1.136-1.072-1.704-2.648-1.704-4.728V12.408c0-2.08.568-3.656 1.704-4.728 1.136-1.072 2.68-1.608 4.632-1.608h3.936c1.984 0 3.536.536 4.656 1.608 1.12 1.072 1.68 2.648 1.68 4.728v20.544c0 2.08-.56 3.656-1.68 4.728-1.12 1.072-2.672 1.608-4.656 1.608h-3.936Zm1.536-4.8h.864c1.28 0 1.92-.72 1.92-2.16V13.032c0-1.44-.64-2.16-1.92-2.16h-.864c-1.28 0-1.92.72-1.92 2.16v19.296c0 1.44.64 2.16 1.92 2.16ZM269.304 39V6.36h10.08c1.984 0 3.536.536 4.656 1.608 1.12 1.072 1.68 2.648 1.68 4.728v19.968c0 2.08-.56 3.656-1.68 4.728-1.12 1.072-2.672 1.608-4.656 1.608h-10.08Zm8.544-27.84h-2.592V34.2h2.592c1.28 0 1.92-.704 1.92-2.112V13.32c0-1.44-.64-2.16-1.92-2.16Zm19.116 28.128c-1.984 0-3.528-.552-4.632-1.656-1.104-1.104-1.656-2.664-1.656-4.68V6.36h5.952v25.968c0 1.44.64 2.16 1.92 2.16h.672c1.28 0 1.92-.704 1.92-2.112V6.36h5.952v26.592c0 2.016-.544 3.576-1.632 4.68-1.088 1.104-2.64 1.656-4.656 1.656h-3.84Zm21.42 0c-1.952 0-3.496-.536-4.632-1.608-1.136-1.072-1.704-2.648-1.704-4.728V12.408c0-2.08.56-3.656 1.68-4.728 1.12-1.072 2.672-1.608 4.656-1.608h3.408c1.984 0 3.536.536 4.656 1.608 1.12 1.072 1.68 2.648 1.68 4.728v6.96h-5.952v-6.336c0-1.44-.656-2.16-1.968-2.16h-.288c-1.28 0-1.92.72-1.92 2.16v19.296c0 1.44.64 2.16 1.92 2.16h.336c1.28 0 1.92-.72 1.92-2.16v-6.336h5.952v6.96c0 2.08-.56 3.656-1.68 4.728-1.12 1.072-2.672 1.608-4.656 1.608h-3.408ZM336.396 39V11.304h-4.944V6.36h15.84v4.944h-4.944V39h-5.952Zm21.084.288c-2.016 0-3.576-.552-4.68-1.656-1.104-1.104-1.656-2.664-1.656-4.68V27h5.904v5.328c0 1.44.64 2.16 1.92 2.16h.72c1.216 0 1.824-.72 1.824-2.16v-3.696c0-.8-.168-1.44-.504-1.92-.336-.48-.904-.88-1.704-1.2L355.8 24.12c-1.664-.64-2.856-1.536-3.576-2.688-.72-1.152-1.08-2.704-1.08-4.656v-4.368c0-2.048.544-3.616 1.632-4.704 1.088-1.088 2.656-1.632 4.704-1.632h3.6c2.048 0 3.616.544 4.704 1.632 1.088 1.088 1.632 2.656 1.632 4.704v5.52h-5.904v-4.896c0-1.44-.64-2.16-1.92-2.16h-.624c-1.28 0-1.92.72-1.92 2.16v3.024c0 .768.168 1.376.504 1.824.336.448.92.848 1.752 1.2l3.264 1.296c1.728.704 2.968 1.592 3.72 2.664.752 1.072 1.128 2.584 1.128 4.536v5.376c0 2.016-.544 3.576-1.632 4.68-1.088 1.104-2.656 1.656-4.704 1.656h-3.6Zm14.124 6.72L374.388 39h-2.016v-5.712h5.856v5.136l-3.12 7.584h-3.504ZM388.572 39l6.096-32.64h6.864L407.628 39h-6.24l-.96-6.048h-5.76L393.756 39h-5.184Zm6.816-10.8h4.32l-2.16-13.872-2.16 13.872Zm15.9 10.8V6.36h6.864l5.232 21.696V6.36h4.512V39h-6.864L415.8 17.448V39h-4.512Zm21.948 0V6.36h10.08c1.984 0 3.536.536 4.656 1.608 1.12 1.072 1.68 2.648 1.68 4.728v19.968c0 2.08-.56 3.656-1.68 4.728-1.12 1.072-2.672 1.608-4.656 1.608h-10.08Zm8.544-27.84h-2.592V34.2h2.592c1.28 0 1.92-.704 1.92-2.112V13.32c0-1.44-.64-2.16-1.92-2.16Zm26.28 28.128c-2.016 0-3.576-.552-4.68-1.656-1.104-1.104-1.656-2.664-1.656-4.68V27h5.904v5.328c0 1.44.64 2.16 1.92 2.16h.72c1.216 0 1.824-.72 1.824-2.16v-3.696c0-.8-.168-1.44-.504-1.92-.336-.48-.904-.88-1.704-1.2l-3.504-1.392c-1.664-.64-2.856-1.536-3.576-2.688-.72-1.152-1.08-2.704-1.08-4.656v-4.368c0-2.048.544-3.616 1.632-4.704 1.088-1.088 2.656-1.632 4.704-1.632h3.6c2.048 0 3.616.544 4.704 1.632 1.088 1.088 1.632 2.656 1.632 4.704v5.52h-5.904v-4.896c0-1.44-.64-2.16-1.92-2.16h-.624c-1.28 0-1.92.72-1.92 2.16v3.024c0 .768.168 1.376.504 1.824.336.448.92.848 1.752 1.2l3.264 1.296c1.728.704 2.968 1.592 3.72 2.664.752 1.072 1.128 2.584 1.128 4.536v5.376c0 2.016-.544 3.576-1.632 4.68-1.088 1.104-2.656 1.656-4.704 1.656h-3.6ZM483.144 39V6.36h13.152v4.944h-7.2v8.448h6.384v4.944h-6.384v9.36h7.68V39h-13.632Zm17.964 0V6.36h10.08c1.984 0 3.536.536 4.656 1.608 1.12 1.072 1.68 2.648 1.68 4.728v7.488c0 2.624-.896 4.464-2.688 5.52L518.34 39h-6.336l-2.832-12.432h-2.112V39h-5.952Zm8.544-27.84h-2.592v10.608h2.592c.608 0 1.08-.16 1.416-.48.336-.32.504-.864.504-1.632V13.32c0-1.44-.64-2.16-1.92-2.16ZM525.696 39l-5.52-32.64h6.384l3.264 23.952 3.264-23.952h5.376L532.752 39h-7.056Zm16.428 0V6.36h5.952V39h-5.952Zm17.436.288c-1.952 0-3.496-.536-4.632-1.608-1.136-1.072-1.704-2.648-1.704-4.728V12.408c0-2.08.56-3.656 1.68-4.728 1.12-1.072 2.672-1.608 4.656-1.608h3.408c1.984 0 3.536.536 4.656 1.608 1.12 1.072 1.68 2.648 1.68 4.728v6.96h-5.952v-6.336c0-1.44-.656-2.16-1.968-2.16h-.288c-1.28 0-1.92.72-1.92 2.16v19.296c0 1.44.64 2.16 1.92 2.16h.336c1.28 0 1.92-.72 1.92-2.16v-6.336h5.952v6.96c0 2.08-.56 3.656-1.68 4.728-1.12 1.072-2.672 1.608-4.656 1.608h-3.408ZM574.164 39V6.36h13.152v4.944h-7.2v8.448h6.384v4.944h-6.384v9.36h7.68V39h-13.632Zm24.348.288c-2.016 0-3.576-.552-4.68-1.656-1.104-1.104-1.656-2.664-1.656-4.68V27h5.904v5.328c0 1.44.64 2.16 1.92 2.16h.72c1.216 0 1.824-.72 1.824-2.16v-3.696c0-.8-.168-1.44-.504-1.92-.336-.48-.904-.88-1.704-1.2l-3.504-1.392c-1.664-.64-2.856-1.536-3.576-2.688-.72-1.152-1.08-2.704-1.08-4.656v-4.368c0-2.048.544-3.616 1.632-4.704 1.088-1.088 2.656-1.632 4.704-1.632h3.6c2.048 0 3.616.544 4.704 1.632 1.088 1.088 1.632 2.656 1.632 4.704v5.52h-5.904v-4.896c0-1.44-.64-2.16-1.92-2.16H600c-1.28 0-1.92.72-1.92 2.16v3.024c0 .768.168 1.376.504 1.824.336.448.92.848 1.752 1.2l3.264 1.296c1.728.704 2.968 1.592 3.72 2.664.752 1.072 1.128 2.584 1.128 4.536v5.376c0 2.016-.544 3.576-1.632 4.68-1.088 1.104-2.656 1.656-4.704 1.656h-3.6Zm21.96-.288V6.36h13.152v4.944h-7.2v8.448h6.048v4.944h-6.048V39h-5.952Zm23.388.288c-1.952 0-3.496-.536-4.632-1.608-1.136-1.072-1.704-2.648-1.704-4.728V12.408c0-2.08.568-3.656 1.704-4.728 1.136-1.072 2.68-1.608 4.632-1.608h3.936c1.984 0 3.536.536 4.656 1.608 1.12 1.072 1.68 2.648 1.68 4.728v20.544c0 2.08-.56 3.656-1.68 4.728-1.12 1.072-2.672 1.608-4.656 1.608h-3.936Zm1.536-4.8h.864c1.28 0 1.92-.72 1.92-2.16V13.032c0-1.44-.64-2.16-1.92-2.16h-.864c-1.28 0-1.92.72-1.92 2.16v19.296c0 1.44.64 2.16 1.92 2.16ZM659.28 39V6.36h10.08c1.984 0 3.536.536 4.656 1.608 1.12 1.072 1.68 2.648 1.68 4.728v7.488c0 2.624-.896 4.464-2.688 5.52L676.512 39h-6.336l-2.832-12.432h-2.112V39h-5.952Zm8.544-27.84h-2.592v10.608h2.592c.608 0 1.08-.16 1.416-.48.336-.32.504-.864.504-1.632V13.32c0-1.44-.64-2.16-1.92-2.16Zm25.848 28.128c-1.952 0-3.496-.536-4.632-1.608-1.136-1.072-1.704-2.648-1.704-4.728V12.408c0-2.08.568-3.656 1.704-4.728 1.136-1.072 2.68-1.608 4.632-1.608h3.648c1.984 0 3.536.536 4.656 1.608 1.12 1.072 1.68 2.648 1.68 4.728v6h-5.952v-5.376c0-1.44-.64-2.16-1.92-2.16h-.576c-1.28 0-1.92.72-1.92 2.16v19.296c0 1.44.64 2.16 1.92 2.16h.576c.64 0 1.16-.176 1.56-.528.4-.352.6-.896.6-1.632V26.28h-2.592v-4.8h8.304v11.472c0 2.08-.56 3.656-1.68 4.728-1.12 1.072-2.672 1.608-4.656 1.608h-3.648ZM708.756 39V6.36h13.152v4.944h-7.2v8.448h6.384v4.944h-6.384v9.36h7.68V39h-13.632Zm21.372 0V11.304h-4.944V6.36h15.84v4.944h-4.944V39h-5.952Zm11.388 0 6.096-32.64h6.864L760.572 39h-6.24l-.96-6.048h-5.76L746.7 39h-5.184Zm6.816-10.8h4.32l-2.16-13.872-2.16 13.872ZM764.616 39l-3.504-32.64h5.952l1.728 22.944L771.72 6.36h5.232l2.88 23.088L781.56 6.36h5.136L783.144 39h-6.912l-2.352-19.872L771.384 39h-6.768Zm35.676-32.64L806.388 39h-6.24l-.96-6.048h-5.76L792.516 39h-5.184l6.096-32.64h6.864Zm11.58 0 3.12 13.44 3.072-13.44h5.424l-6.096 21.552V39h-6.048V27.912L805.248 6.36h6.624Zm-15.564 7.968-2.16 13.872h4.32l-2.16-13.872ZM834.024 39V6.36h10.08c1.984 0 3.536.536 4.656 1.608 1.12 1.072 1.68 2.648 1.68 4.728v19.968c0 2.08-.56 3.656-1.68 4.728-1.12 1.072-2.672 1.608-4.656 1.608h-10.08Zm8.544-27.84h-2.592V34.2h2.592c1.28 0 1.92-.704 1.92-2.112V13.32c0-1.44-.64-2.16-1.92-2.16ZM855.588 39V6.36h10.08c1.984 0 3.536.536 4.656 1.608 1.12 1.072 1.68 2.648 1.68 4.728v7.488c0 2.624-.896 4.464-2.688 5.52L872.82 39h-6.336l-2.832-12.432h-2.112V39h-5.952Zm8.544-27.84h-2.592v10.608h2.592c.608 0 1.08-.16 1.416-.48.336-.32.504-.864.504-1.632V13.32c0-1.44-.64-2.16-1.92-2.16ZM876.96 39V6.36h5.952V39h-5.952Zm15.132 0-5.52-32.64h6.384l3.264 23.952 3.264-23.952h5.376L899.148 39h-7.056Zm16.428 0V6.36h13.152v4.944h-7.2v8.448h6.384v4.944h-6.384v9.36h7.68V39H908.52Zm17.964 0V6.36h10.08c1.984 0 3.536.536 4.656 1.608 1.12 1.072 1.68 2.648 1.68 4.728v7.488c0 2.624-.896 4.464-2.688 5.52L943.716 39h-6.336l-2.832-12.432h-2.112V39h-5.952Zm8.544-27.84h-2.592v10.608h2.592c.608 0 1.08-.16 1.416-.48.336-.32.504-.864.504-1.632V13.32c0-1.44-.64-2.16-1.92-2.16Zm18.732 28.128c-2.016 0-3.576-.552-4.68-1.656-1.104-1.104-1.656-2.664-1.656-4.68V27h5.904v5.328c0 1.44.64 2.16 1.92 2.16h.72c1.216 0 1.824-.72 1.824-2.16v-3.696c0-.8-.168-1.44-.504-1.92-.336-.48-.904-.88-1.704-1.2l-3.504-1.392c-1.664-.64-2.856-1.536-3.576-2.688-.72-1.152-1.08-2.704-1.08-4.656v-4.368c0-2.048.544-3.616 1.632-4.704 1.088-1.088 2.656-1.632 4.704-1.632h3.6c2.048 0 3.616.544 4.704 1.632 1.088 1.088 1.632 2.656 1.632 4.704v5.52h-5.904v-4.896c0-1.44-.64-2.16-1.92-2.16h-.624c-1.28 0-1.92.72-1.92 2.16v3.024c0 .768.168 1.376.504 1.824.336.448.92.848 1.752 1.2l3.264 1.296c1.728.704 2.968 1.592 3.72 2.664.752 1.072 1.128 2.584 1.128 4.536v5.376c0 2.016-.544 3.576-1.632 4.68-1.088 1.104-2.656 1.656-4.704 1.656h-3.6ZM975.72 39V6.36h6.864l5.232 21.696V6.36h4.512V39h-6.864l-5.232-21.552V39h-4.512Zm21.948 0V6.36h13.152v4.944h-7.2v8.448h6.384v4.944h-6.384v9.36h7.68V39h-13.632Zm20.028 0-3.504-32.64h5.952l1.728 22.944L1024.8 6.36h5.232l2.88 23.088 1.728-23.088h5.136L1036.224 39h-6.912l-2.352-19.872L1024.464 39h-6.768Zm31.176 0 6.096-32.64h6.864l6.096 32.64h-6.24l-.96-6.048h-5.76l-.912 6.048h-5.184Zm6.816-10.8h4.32l-2.16-13.872-2.16 13.872Zm15.9 10.8V6.36h6.864l5.232 21.696V6.36h4.512V39h-6.864l-5.232-21.552V39h-4.512Zm21.948 0V6.36h10.08c1.984 0 3.536.536 4.656 1.608 1.12 1.072 1.68 2.648 1.68 4.728v19.968c0 2.08-.56 3.656-1.68 4.728-1.12 1.072-2.672 1.608-4.656 1.608h-10.08Zm8.544-27.84h-2.592V34.2h2.592c1.28 0 1.92-.704 1.92-2.112V13.32c0-1.44-.64-2.16-1.92-2.16Zm26.04 28.128c-1.952 0-3.496-.536-4.632-1.608-1.136-1.072-1.704-2.648-1.704-4.728V12.408c0-2.08.568-3.656 1.704-4.728 1.136-1.072 2.68-1.608 4.632-1.608h3.936c1.984 0 3.536.536 4.656 1.608 1.12 1.072 1.68 2.648 1.68 4.728v20.544c0 2.08-.56 3.656-1.68 4.728-1.12 1.072-2.672 1.608-4.656 1.608h-3.936Zm1.536-4.8h.864c1.28 0 1.92-.72 1.92-2.16V13.032c0-1.44-.64-2.16-1.92-2.16h-.864c-1.28 0-1.92.72-1.92 2.16v19.296c0 1.44.64 2.16 1.92 2.16ZM1143.54 39V6.36h5.952v27.696h6.96V39h-12.912Zm17.004 0V6.36h10.08c1.984 0 3.536.536 4.656 1.608 1.12 1.072 1.68 2.648 1.68 4.728v19.968c0 2.08-.56 3.656-1.68 4.728-1.12 1.072-2.672 1.608-4.656 1.608h-10.08Zm8.544-27.84h-2.592V34.2h2.592c1.28 0 1.92-.704 1.92-2.112V13.32c0-1.44-.64-2.16-1.92-2.16Z"/><path d="M35 24c0 2.204-1.794 4-4 4s-4-1.796-4-4c0-2.204 1.794-4 4-4s4 1.796 4 4m-16.328-6.626A13.908 13.908 0 0 0 17 24c0 .754.076 1.488.192 2.21 5.38.998 9.5 5.594 9.778 11.192a13.904 13.904 0 0 0 8.06 0c.278-5.598 4.398-10.194 9.778-11.192.116-.722.192-1.456.192-2.21 0-2.394-.606-4.652-1.672-6.626a56.871 56.871 0 0 0-24.656 0"/><path d="M31 40c-8.822 0-16-7.178-16-16S22.178 8 31 8s16 7.178 16 16-7.178 16-16 16m0-40C17.766 0 7 10.766 7 24s10.766 24 24 24 24-10.766 24-24S44.234 0 31 0"/></g></svg>