<svg xmlns="http://www.w3.org/2000/svg" viewBox="0 0 500 155"><g fill="none" fill-rule="nonzero"><path fill="#BA0D37" d="M88.575 83 103.18 4.8h16.445L134.23 83h-14.95l-2.3-14.49h-13.8L100.995 83h-12.42Zm16.33-25.875h10.35L110.08 23.89l-5.175 33.235ZM138.405 83V4.8h16.445l12.535 51.98V4.8h10.81V83H161.75l-12.535-51.635V83h-10.81Zm56.155 0V16.645h-11.845V4.8h37.95v11.845H208.82V83h-14.26Zm35.57 0-8.395-78.2h14.26l4.14 54.97L247.15 4.8h12.535l6.9 55.315 4.14-55.315h12.305L274.52 83h-16.56l-5.635-47.61-5.98 47.61H230.13Zm57.65 0V4.8h31.51v11.845h-17.25v20.24h15.295V48.73H302.04v22.425h18.4V83h-32.66Zm38.445 0V4.8h24.15c4.753 0 8.472 1.284 11.155 3.853 2.683 2.568 4.025 6.344 4.025 11.327v17.94c0 6.287-2.147 10.695-6.44 13.225L367.51 83h-15.18l-6.785-29.785h-5.06V83h-14.26Zm20.47-66.7h-6.21v25.415h6.21c1.457 0 2.588-.383 3.392-1.15.805-.767 1.208-2.07 1.208-3.91v-15.18c0-3.45-1.533-5.175-4.6-5.175Zm26.14 66.7V4.8h24.15c4.753 0 8.472 1.284 11.155 3.853 2.683 2.568 4.025 6.344 4.025 11.327v18.285c0 4.983-1.36 8.76-4.083 11.328-2.721 2.568-6.459 3.852-11.212 3.852h-9.775V83h-14.26Zm20.47-66.7h-6.21v25.645h6.21c3.067 0 4.6-1.687 4.6-5.06v-15.41c0-3.45-1.533-5.175-4.6-5.175Z"/><path fill="#243A4A" d="M91.612 150.54V93.42h13.104c2.968 0 5.292.798 6.972 2.394 1.68 1.596 2.52 4.046 2.52 7.35v37.632c0 3.304-.84 5.754-2.52 7.35-1.68 1.596-4.004 2.394-6.972 2.394H91.612Zm11.844-51.324h-5.04v45.528h5.04c1.232 0 2.184-.336 2.856-1.008.672-.672 1.008-1.764 1.008-3.276V103.5c0-1.512-.336-2.604-1.008-3.276-.672-.672-1.624-1.008-2.856-1.008Zm16.556 51.324V93.42h6.804v57.12h-6.804Zm10.088 0 9.072-57.12h8.4l9.072 57.12h-7.224l-1.68-12.264h-9.576l-1.68 12.264H130.1Zm8.82-18.06h7.98l-3.948-28.98-4.032 28.98Zm21.008 18.06V93.42h9.66l6.132 44.604 6.132-44.604h9.492v57.12h-6.132v-45.864l-6.552 45.864h-6.804l-6.636-45.864v45.864h-5.292Zm46.712.42c-2.912 0-5.222-.798-6.93-2.394-1.708-1.596-2.562-4.018-2.562-7.266v-38.64c0-3.248.854-5.67 2.562-7.266 1.708-1.596 4.018-2.394 6.93-2.394h4.116c2.912 0 5.208.798 6.888 2.394 1.68 1.596 2.52 4.018 2.52 7.266v38.64c0 3.248-.84 5.67-2.52 7.266-1.68 1.596-3.976 2.394-6.888 2.394h-4.116Zm1.26-5.796h1.596c1.176 0 2.114-.336 2.814-1.008.7-.672 1.05-1.764 1.05-3.276v-37.8c0-1.512-.35-2.604-1.05-3.276-.7-.672-1.638-1.008-2.814-1.008H207.9c-1.176 0-2.114.336-2.814 1.008-.7.672-1.05 1.764-1.05 3.276v37.8c0 1.512.35 2.604 1.05 3.276.7.672 1.638 1.008 2.814 1.008Zm18.152 5.376V93.42h7.98l9.912 43.008V93.42h5.46v57.12h-7.98l-9.912-42.84v42.84h-5.46Zm29.576 0V93.42h13.104c2.968 0 5.292.798 6.972 2.394 1.68 1.596 2.52 4.046 2.52 7.35v37.632c0 3.304-.84 5.754-2.52 7.35-1.68 1.596-4.004 2.394-6.972 2.394h-13.104Zm11.844-51.324h-5.04v45.528h5.04c1.232 0 2.184-.336 2.856-1.008.672-.672 1.008-1.764 1.008-3.276V103.5c0-1.512-.336-2.604-1.008-3.276-.672-.672-1.624-1.008-2.856-1.008ZM292.1 150.54V93.42h6.804v24.192h9.072V93.42h6.804v57.12h-6.804v-26.964h-9.072v26.964H292.1Zm28.904 0V93.42h17.808v5.964h-11.004v18.396h9.912v5.964h-9.912v20.832h11.844v5.964h-18.648Zm22.856 0V93.42h6.804v57.12h-6.804Zm22.268.42c-2.968 0-5.292-.812-6.972-2.436-1.68-1.624-2.52-4.032-2.52-7.224v-12.6h6.804v12.18c0 1.512.35 2.604 1.05 3.276.7.672 1.638 1.008 2.814 1.008h1.512c1.176 0 2.114-.336 2.814-1.008.7-.672 1.05-1.764 1.05-3.276v-9.324c0-1.624-.294-2.912-.882-3.864-.588-.952-1.666-1.792-3.234-2.52l-5.124-2.436c-2.408-1.12-4.144-2.562-5.208-4.326-1.064-1.764-1.596-4.102-1.596-7.014v-8.736c0-3.248.84-5.67 2.52-7.266 1.68-1.596 4.004-2.394 6.972-2.394h3.864c2.968 0 5.292.798 6.972 2.394 1.68 1.596 2.52 4.018 2.52 7.266v10.836h-6.804V103.08c0-1.512-.35-2.604-1.05-3.276-.7-.672-1.638-1.008-2.814-1.008h-1.512c-1.064 0-1.974.336-2.73 1.008-.756.672-1.134 1.764-1.134 3.276v7.476c0 1.68.308 2.968.924 3.864.616.896 1.68 1.708 3.192 2.436l5.04 2.352c2.464 1.176 4.228 2.618 5.292 4.326 1.064 1.708 1.596 4.018 1.596 6.93V141.3c0 3.192-.84 5.6-2.52 7.224-1.68 1.624-4.004 2.436-6.972 2.436h-3.864Zm24.62-.42V99.384h-8.232V93.42h23.268v5.964h-8.232v51.156h-6.804Z"/></g></svg>