<svg xmlns="http://www.w3.org/2000/svg" viewBox="0 0 500 155"><g fill="none" fill-rule="nonzero"><path fill="#bf0d3e" d="M26.274 71V20.768H15.602V8.44h37.996v12.328H42.926V71H26.274Zm30.372 0V8.44h16.652v24.104h7.544V8.44h16.652V71H80.842V44.596h-7.544V71H56.646Zm46.38 0V8.44h33.12v11.868h-16.468v12.88h14.72v11.776h-14.72V59.04h17.388V71h-34.04Zm125.34-62.56-17.48 48.024c-.43 1.104-.445 2.009-.046 2.714.399.705 1.089 1.058 2.07 1.058h1.012c1.165 0 2.055-.245 2.668-.736.613-.49 1.196-1.441 1.748-2.852L235.91 8.44h16.928l-18.676 51.52c-2.821 7.79-8.679 11.684-17.572 11.684h-12.052c-4.784 0-8.157-1.487-10.12-4.462-1.963-2.975-2.085-6.762-.368-11.362l17.296-47.38h17.02Zm200.884-.644c4.723 0 8.065 1.472 10.028 4.416 1.963 2.944 2.147 6.655.552 11.132l-2.3 6.532h-16.744l2.76-7.452c.368-1.104.368-1.993 0-2.668s-1.073-1.012-2.116-1.012h-.92c-1.165 0-2.055.245-2.668.736-.613.49-1.196 1.41-1.748 2.76l-1.564 4.416c-.43 1.288-.521 2.315-.276 3.082.245.767.92 1.426 2.024 1.978l7.912 3.496c6.563 3.067 8.495 8.372 5.796 15.916l-3.128 8.832c-2.76 7.79-8.617 11.684-17.572 11.684h-11.868c-4.784 0-8.157-1.472-10.12-4.416-1.963-2.944-2.116-6.777-.46-11.5l2.576-6.9h17.02l-2.944 8.188c-.368 1.104-.368 1.993 0 2.668s1.043 1.012 2.024 1.012h1.104c1.104 0 1.978-.26 2.622-.782.644-.521 1.211-1.426 1.702-2.714l2.024-5.704c.43-1.35.521-2.377.276-3.082-.245-.705-.92-1.365-2.024-1.978l-8.004-3.496c-6.624-3.128-8.587-8.433-5.888-15.916l2.76-7.544c2.821-7.79 8.648-11.684 17.48-11.684h11.684Zm-239.076.644c4.723 0 8.065 1.487 10.028 4.462 1.963 2.975 2.116 6.762.46 11.362l-12.788 35.052C185.053 67.106 179.195 71 170.302 71H142.15l22.724-62.56h25.3Zm89.54 0-5.98 32.844L291.95 8.44h21.804L291.03 71h-15.548l12.88-35.42L268.122 71h-14.076l6.44-37.536L246.87 71h-11.5l22.724-62.56h21.62Zm64.044 0c4.723 0 8.096 1.426 10.12 4.278 2.024 2.852 2.239 6.486.644 10.902l-2.208 6.256c-.92 2.576-2.223 4.554-3.91 5.934-1.687 1.38-3.91 2.315-6.67 2.806 2.085.92 3.42 2.469 4.002 4.646.583 2.177.322 4.769-.782 7.774l-3.22 8.832C339.035 67.289 333.424 71 324.898 71h-28.244l22.724-62.56h24.38Zm54.568 0-4.232 11.868h-16.1l-4.692 12.88h14.72l-4.232 11.776h-14.72l-5.152 14.076h17.848L377.534 71h-34.96l22.724-62.56h33.028Zm87.332 0-4.508 12.328h-10.396L452.538 71h-17.02l18.216-50.232h-10.856l4.508-12.328h38.272ZM327.382 43.676h-4.048l-5.98 16.376h4.508c1.165 0 2.04-.245 2.622-.736.583-.49 1.15-1.441 1.702-2.852l3.22-9.016c.43-1.043.445-1.932.046-2.668-.399-.736-1.089-1.104-2.07-1.104Zm-145.58-23.828h-4.048L163.31 59.592h4.416c1.104 0 1.978-.26 2.622-.782.644-.521 1.211-1.457 1.702-2.806l11.776-32.384c.43-1.104.445-2.009.046-2.714-.399-.705-1.089-1.058-2.07-1.058Zm154.412-.46h-4.048l-5.06 13.984h4.416c1.165 0 2.07-.26 2.714-.782.644-.521 1.18-1.426 1.61-2.714l2.392-6.716c.43-1.104.46-2.009.092-2.714-.368-.705-1.073-1.058-2.116-1.058Z"/><path fill="#2D3C53" d="M4.51 146V83.44h26.68c4.416 0 7.866 1.165 10.35 3.496 2.484 2.33 3.726 5.735 3.726 10.212v12.788c0 5.213-1.717 9.016-5.152 11.408L47.198 146H29.902l-5.06-22.264h-3.68V146H4.51Zm20.884-51.152h-4.232v17.664h4.232c2.147 0 3.22-1.196 3.22-3.588V98.436c0-2.392-1.073-3.588-3.22-3.588Zm37.732 51.796c-4.416 0-7.866-1.18-10.35-3.542-2.484-2.361-3.726-5.811-3.726-10.35V96.688c0-4.539 1.242-7.989 3.726-10.35 2.484-2.361 5.934-3.542 10.35-3.542h12.88c4.355 0 7.79 1.18 10.304 3.542 2.515 2.361 3.772 5.811 3.772 10.35v36.064c0 4.539-1.257 7.989-3.772 10.35-2.515 2.361-5.95 3.542-10.304 3.542h-12.88Zm5.796-11.408h1.288c2.147 0 3.22-1.227 3.22-3.68V97.884c0-2.453-1.073-3.68-3.22-3.68h-1.288c-2.147 0-3.22 1.227-3.22 3.68v33.672c0 2.453 1.073 3.68 3.22 3.68ZM95.338 146V83.44h26.496c4.293 0 7.62 1.135 9.982 3.404 2.361 2.27 3.542 5.428 3.542 9.476v6.716c0 5.275-2.453 8.617-7.36 10.028 2.453.675 4.355 1.87 5.704 3.588 1.35 1.717 2.024 3.956 2.024 6.716v9.752c0 4.048-1.18 7.207-3.542 9.476-2.361 2.27-5.689 3.404-9.982 3.404H95.338Zm20.424-51.612h-4.048v13.984h4.14c1.043 0 1.87-.291 2.484-.874.613-.583.92-1.549.92-2.898v-6.624c0-2.392-1.165-3.588-3.496-3.588Zm.092 24.288h-4.14v16.376h4.048c2.33 0 3.496-1.227 3.496-3.68v-9.016c0-2.453-1.135-3.68-3.404-3.68ZM140.798 146V83.44h26.496c4.293 0 7.62 1.135 9.982 3.404 2.361 2.27 3.542 5.428 3.542 9.476v6.716c0 5.275-2.453 8.617-7.36 10.028 2.453.675 4.355 1.87 5.704 3.588 1.35 1.717 2.024 3.956 2.024 6.716v9.752c0 4.048-1.18 7.207-3.542 9.476-2.361 2.27-5.689 3.404-9.982 3.404h-26.864Zm20.424-51.612h-4.048v13.984h4.14c1.043 0 1.87-.291 2.484-.874.613-.583.92-1.549.92-2.898v-6.624c0-2.392-1.165-3.588-3.496-3.588Zm.092 24.288h-4.14v16.376h4.048c2.33 0 3.496-1.227 3.496-3.68v-9.016c0-2.453-1.135-3.68-3.404-3.68ZM186.258 146V83.44h33.12v11.868H202.91v12.88h14.72v11.776h-14.72v14.076h17.388V146h-34.04Zm38.008 0V83.44h26.68c4.416 0 7.866 1.165 10.35 3.496 2.484 2.33 3.726 5.735 3.726 10.212v12.788c0 5.213-1.717 9.016-5.152 11.408L266.954 146h-17.296l-5.06-22.264h-3.68V146h-16.652Zm20.884-51.152h-4.232v17.664h4.232c2.147 0 3.22-1.196 3.22-3.588V98.436c0-2.392-1.073-3.588-3.22-3.588ZM279.766 146V83.44h33.12v11.868h-16.468v12.88h14.72v11.776h-14.72v14.076h17.388V146h-34.04Zm46.84 0L314.83 83.44h17.756l5.98 41.584 5.888-41.584h13.616L345.926 146h-19.32Zm34.052 0V83.44h33.12v11.868H377.31v12.88h14.72v11.776h-14.72v14.076h17.388V146h-34.04Zm38.008 0V83.44h26.68c4.416 0 7.866 1.165 10.35 3.496 2.484 2.33 3.726 5.735 3.726 10.212v12.788c0 5.213-1.717 9.016-5.152 11.408L441.354 146h-17.296l-5.06-22.264h-3.68V146h-16.652Zm20.884-51.152h-4.232v17.664h4.232c2.147 0 3.22-1.196 3.22-3.588V98.436c0-2.392-1.073-3.588-3.22-3.588Zm34.604 32.936v-15.18l9.568-2.392c2.085-.552 3.128-1.932 3.128-4.14v-9.016c0-2.27-.95-3.404-2.852-3.404h-2.024c-1.901 0-2.852 1.135-2.852 3.404v8.556h-16.1v-9.66c0-4.232 1.211-7.483 3.634-9.752 2.423-2.27 5.842-3.404 10.258-3.404h12.512c4.355 0 7.728 1.135 10.12 3.404 2.392 2.27 3.588 5.52 3.588 9.752v10.764c0 3.987-.966 6.93-2.898 8.832-1.932 1.901-4.677 3.25-8.234 4.048l-2.024.46v7.728h-15.824ZM454.062 146v-13.34h16.1V146h-16.1Z"/></g></svg>