<svg xmlns="http://www.w3.org/2000/svg" width="512" height="512">

<style>
.icon-path { fill: #ba0d37; }
@media (prefers-color-scheme: dark) {
.icon-path { fill: #cc1441; }
}
</style>

<g fill-rule="evenodd">
<path class="icon-path" fill="#ba0d37" d="M294.929 255.594c0 21.16-17.236 38.402-38.429 38.402s-38.429-17.242-38.429-38.402c0-21.159 17.236-38.401 38.429-38.401s38.429 17.242 38.429 38.401m-156.866-63.612C127.822 210.933 122 232.611 122 255.594c0 7.24.73 14.286 1.845 21.217 51.686 9.581 91.267 53.705 93.938 107.448C230.061 387.965 243.031 390 256.5 390a133.57 133.57 0 0 0 38.717-5.741c2.67-53.743 42.252-97.867 93.938-107.448 1.115-6.931 1.845-13.978 1.845-21.217 0-22.983-5.822-44.66-16.063-63.612-77.607-17.319-159.287-17.3-236.874 0"/>
<path class="icon-path" fill="#ba0d37" d="M256.5 410.167c-84.728 0-153.667-68.939-153.667-153.667 0-84.728 68.939-153.667 153.667-153.667 84.728 0 153.667 68.939 153.667 153.667 0 84.728-68.939 153.667-153.667 153.667M26 256.5C26 383.602 129.398 487 256.5 487S487 383.602 487 256.5 383.602 26 256.5 26 26 129.398 26 256.5Z"/>
</g>
</svg>